<?xml version="1.0" standalone="no"?>
<!DOCTYPE svg PUBLIC "-//W3C//DTD SVG 1.1//EN" "http://www.w3.org/Graphics/SVG/1.1/DTD/svg11.dtd" >
<svg xmlns="http://www.w3.org/2000/svg" xmlns:xlink="http://www.w3.org/1999/xlink" version="1.1">
<metadata>
Created by FontForge 20161116 at Thu Feb 13 17:43:08 2014
 By Jimmy Warting
(c)2008-09 Paul Barnes and Christian Schwartz, under exclusive license to Schwartzco Inc./Commercial Type. All rights reserved.
</metadata>
<defs>
<font id="GuardianSans-LightIt" horiz-adv-x="496" >
  <font-face 
    font-family="Guardian Sans Light"
    font-weight="300"
    font-style="italic"
    font-stretch="normal"
    units-per-em="1000"
    panose-1="2 11 4 3 5 5 3 13 8 3"
    ascent="790"
    descent="-210"
    x-height="507"
    cap-height="693"
    bbox="-210 -213 1062 1036"
    underline-thickness="102"
    underline-position="-51"
    slope="-10"
    stemh="46"
    stemv="55"
    unicode-range="U+0020-FB04"
  />
<missing-glyph horiz-adv-x="500" 
 />
    <glyph glyph-name="f_b" unicode="fb" horiz-adv-x="772" 
d="M302 24l116 661c-12 7 -35 12 -66 12c-76 0 -127 -33 -144 -126l-11 -64h123l-7 -45h-124l-115 -657h-55l116 657h-79l7 45h80l11 65c22 124 103 170 199 170c59 0 99 -13 125 -27l-47 -266h3c43 34 97 67 169 67c90 0 147 -55 147 -163c0 -185 -78 -361 -276 -361
c-57 0 -132 10 -172 32zM424 407l-62 -351c30 -14 78 -20 117 -20c129 0 189 100 211 240c4 23 5 50 5 71c-1 91 -46 122 -113 122c-62 0 -115 -29 -158 -62z" />
    <glyph glyph-name="f_f" unicode="ff" horiz-adv-x="536" 
d="M259 -195l115 657h-185l-115 -657h-55l116 657h-79l7 45h80l12 68c20 113 84 160 168 160c29 0 50 -6 65 -13l-7 -41c-12 5 -29 9 -55 9c-63 0 -103 -37 -117 -116l-12 -67h186l11 65c21 124 96 170 185 170c39 0 63 -8 81 -18l-7 -40c-15 7 -36 13 -72 13
c-67 0 -117 -35 -133 -126l-11 -64h123l-7 -45h-125l-114 -657h-55z" />
    <glyph glyph-name="f_f_b" unicode="ffb" horiz-adv-x="1013" 
d="M542 24l116 661c-12 7 -35 12 -66 12c-76 0 -127 -33 -144 -126l-11 -64h123l-7 -45h-124l-115 -657h-54l115 657h-186l-115 -657h-55l116 657h-79l7 45h80l12 68c20 113 84 160 168 160c29 0 50 -6 65 -13l-7 -41c-12 5 -29 9 -55 9c-63 0 -103 -37 -117 -116l-12 -67
h186l11 65c22 124 104 170 200 170c58 0 98 -13 124 -27l-47 -266h3c44 34 98 67 169 67c90 0 148 -55 148 -163c0 -185 -79 -361 -276 -361c-57 0 -133 10 -173 32zM664 407l-62 -351c30 -14 78 -20 117 -20c129 0 190 100 211 240c4 23 5 50 5 71c-1 91 -46 122 -112 122
c-63 0 -116 -29 -159 -62z" />
    <glyph glyph-name="f_f_h" unicode="ffh" horiz-adv-x="1019" 
d="M260 -195l115 657h-186l-115 -657h-55l116 657h-79l7 45h80l12 68c20 113 84 160 168 160c29 0 50 -6 65 -13l-7 -41c-12 5 -29 9 -55 9c-63 0 -103 -37 -117 -116l-12 -67h186l11 65c22 124 104 170 200 170c58 0 98 -13 124 -27l-46 -268h4c57 41 123 69 189 69
c89 0 117 -48 117 -109c0 -13 -2 -27 -4 -40l-64 -367h-55l64 360c2 14 4 27 4 38c0 45 -22 71 -83 71c-57 0 -119 -23 -180 -61l-72 -408h-55l121 685c-12 7 -35 12 -66 12c-76 0 -127 -33 -144 -126l-11 -64h123l-7 -45h-124l-115 -657h-54z" />
    <glyph glyph-name="f_f_i" unicode="ffi" horiz-adv-x="702" 
d="M260 -195l115 657h-186l-115 -657h-55l116 657h-79l7 45h80l12 68c20 113 84 160 168 160c29 0 50 -6 65 -13l-7 -41c-12 5 -29 9 -55 9c-63 0 -103 -37 -117 -116l-12 -67h186l13 75c20 114 87 160 168 160c27 0 47 -6 61 -14l-7 -40c-15 6 -31 9 -52 9
c-57 0 -101 -34 -116 -116l-13 -74h245l-89 -507h-55l81 462h-190l-115 -657h-54zM646 616l11 62h55l-11 -62h-55z" />
    <glyph glyph-name="f_f_j" unicode="ffj" horiz-adv-x="702" 
d="M378 -180l7 37c15 -5 31 -8 51 -8c53 0 81 28 92 91l91 522h-190l-115 -657h-54l115 657h-186l-115 -657h-55l116 657h-79l7 45h80l12 68c20 113 84 160 168 160c29 0 50 -6 65 -13l-7 -41c-12 5 -29 9 -55 9c-63 0 -103 -37 -117 -116l-12 -67h186l13 75
c20 114 87 160 168 160c27 0 47 -6 61 -14l-7 -40c-15 6 -31 9 -52 9c-57 0 -101 -34 -116 -116l-13 -74h245l-101 -571c-15 -86 -59 -132 -136 -132c-27 0 -50 5 -67 16zM646 616l11 62h55l-11 -62h-55z" />
    <glyph glyph-name="f_f_k" unicode="ffk" horiz-adv-x="955" 
d="M260 -195l115 657h-186l-115 -657h-55l116 657h-79l7 45h80l12 68c20 113 84 160 168 160c29 0 50 -6 65 -13l-7 -41c-12 5 -29 9 -55 9c-63 0 -103 -37 -117 -116l-12 -67h186l11 65c22 124 104 170 200 170c58 0 98 -13 124 -27l-126 -715h-54l120 685
c-12 7 -35 12 -66 12c-76 0 -127 -33 -144 -126l-11 -64h123l-7 -45h-124l-115 -657h-54zM833 0l-160 267l234 240h64l-239 -241l162 -266h-61z" />
    <glyph glyph-name="f_f_l" unicode="ffl" horiz-adv-x="696" 
d="M260 -195l115 657h-186l-115 -657h-55l116 657h-79l7 45h80l12 68c20 113 84 160 168 160c29 0 50 -6 65 -13l-7 -41c-12 5 -29 9 -55 9c-63 0 -103 -37 -117 -116l-12 -67h186l11 65c22 124 104 170 200 170c58 0 98 -13 124 -27l-126 -715h-54l120 685
c-12 7 -35 12 -66 12c-76 0 -127 -33 -144 -126l-11 -64h123l-7 -45h-124l-115 -657h-54z" />
    <glyph glyph-name="f_h" unicode="fh" horiz-adv-x="779" 
d="M19 -195l116 657h-79l7 45h80l11 65c22 124 103 170 199 170c59 0 99 -13 125 -27l-46 -268h3c58 41 124 69 190 69c88 0 117 -48 117 -109c0 -13 -2 -27 -4 -40l-65 -367h-54l63 360c3 14 4 27 4 38c0 45 -21 71 -82 71c-58 0 -119 -23 -180 -61l-73 -408h-54l121 685
c-12 7 -35 12 -66 12c-76 0 -127 -33 -144 -126l-11 -64h123l-7 -45h-124l-115 -657h-55z" />
    <glyph glyph-name="f_i" unicode="fi" horiz-adv-x="462" 
d="M19 -195l116 657h-79l7 45h80l13 75c20 114 86 160 168 160c26 0 47 -6 61 -14l-7 -40c-15 6 -31 9 -52 9c-58 0 -101 -34 -116 -116l-13 -74h244l-88 -507h-55l81 462h-190l-115 -657h-55zM406 616l11 62h55l-11 -62h-55z" />
    <glyph glyph-name="f_j" unicode="fj" horiz-adv-x="462" 
d="M138 -180l6 37c16 -5 31 -8 52 -8c53 0 81 28 92 91l91 522h-190l-115 -657h-55l116 657h-79l7 45h80l13 75c20 114 86 160 168 160c26 0 47 -6 61 -14l-7 -40c-15 6 -31 9 -52 9c-58 0 -101 -34 -116 -116l-13 -74h244l-100 -571c-15 -86 -59 -132 -136 -132
c-27 0 -50 5 -67 16zM406 616l11 62h55l-11 -62h-55z" />
    <glyph glyph-name="f_k" unicode="fk" horiz-adv-x="715" 
d="M593 0l-161 267l235 240h64l-239 -241l162 -266h-61zM19 -195l116 657h-79l7 45h80l11 65c22 124 103 170 199 170c59 0 99 -13 125 -27l-126 -715h-54l120 685c-12 7 -35 12 -66 12c-76 0 -127 -33 -144 -126l-11 -64h123l-7 -45h-124l-115 -657h-55z" />
    <glyph glyph-name="f_l" unicode="fl" horiz-adv-x="456" 
d="M19 -195l116 657h-79l7 45h80l11 65c22 124 103 170 199 170c59 0 99 -13 125 -27l-126 -715h-54l120 685c-12 7 -35 12 -66 12c-76 0 -127 -33 -144 -126l-11 -64h123l-7 -45h-124l-115 -657h-55z" />
    <glyph glyph-name=".notdef" horiz-adv-x="500" 
 />
    <glyph glyph-name="Eth" unicode="&#xd0;" horiz-adv-x="614" 
d="M18 326l9 48h66l56 319h176c175 0 279 -84 279 -252c0 -236 -104 -441 -387 -441h-190l57 326h-66zM91 48h130c202 0 284 117 313 277c7 42 10 80 10 116c0 141 -79 204 -229 204h-119l-48 -271h199l-9 -48h-198z" />
    <glyph glyph-name="eth" unicode="&#xf0;" horiz-adv-x="490" 
d="M171 609l119 47c-27 27 -58 55 -93 83h67c26 -20 51 -41 73 -64l105 41l12 -35l-90 -35c63 -75 105 -167 105 -280c0 -230 -103 -375 -265 -375c-116 0 -183 75 -183 193c0 181 101 332 262 332c51 0 83 -14 109 -31h5c-16 51 -43 97 -81 142l-133 -52zM415 360
c0 25 -2 49 -6 72c-36 26 -72 39 -128 39c-104 0 -172 -79 -196 -202c-5 -23 -9 -57 -9 -84c0 -101 50 -149 131 -149c105 0 173 86 196 205c6 31 12 66 12 119z" />
    <glyph glyph-name="Lslash" unicode="&#x141;" horiz-adv-x="473" 
d="M31 0l46 258l-79 -33l9 49l78 33l68 386h57l-64 -362l243 103l-9 -49l-243 -103l-41 -234h320l-9 -48h-376z" />
    <glyph glyph-name="lslash" unicode="&#x142;" horiz-adv-x="196" 
d="M19 336l9 51l72 39l55 313h55l-49 -280l81 45l-8 -52l-82 -44l-72 -408h-55l66 375z" />
    <glyph glyph-name="Scaron" unicode="&#x160;" horiz-adv-x="471" 
d="M444 845l-115 -112h-45l-75 112h44l58 -70l88 70h45zM187 -10c-102 0 -159 30 -199 55l8 49c46 -29 103 -55 195 -55c119 0 172 61 172 160c0 61 -35 93 -102 125l-52 24c-86 40 -124 86 -124 167c0 113 79 187 216 187c95 0 133 -24 167 -45l-8 -47
c-35 20 -79 45 -164 45c-99 0 -156 -47 -156 -139c0 -56 22 -86 97 -122l52 -24c81 -37 130 -80 130 -169c0 -111 -64 -211 -232 -211z" />
    <glyph glyph-name="scaron" unicode="&#x161;" horiz-adv-x="385" 
d="M213 585l-74 131h43l60 -90l90 90h46l-118 -131h-47zM146 -8c-79 0 -123 21 -156 42l8 43c35 -18 73 -39 149 -39c103 0 129 52 129 105c0 42 -22 64 -77 86l-49 20c-58 24 -94 58 -94 120c0 90 60 146 171 146c74 0 110 -19 136 -35l-9 -44c-28 16 -68 33 -131 33
c-78 0 -115 -35 -115 -93c0 -41 19 -63 69 -82l48 -20c71 -29 105 -59 105 -125c0 -79 -43 -157 -184 -157z" />
    <glyph glyph-name="Yacute" unicode="&#xdd;" horiz-adv-x="494" 
d="M175 0l50 287l-141 406h56l122 -357h2l243 357h58l-284 -408l-50 -285h-56zM301 733l81 125h64l-95 -125h-50z" />
    <glyph glyph-name="yacute" unicode="&#xfd;" horiz-adv-x="448" 
d="M-4 -198c-25 0 -47 8 -60 15l7 40c14 -6 31 -9 50 -9c52 0 82 29 115 86l45 81l-97 492h58l78 -422h2l230 422h56l-325 -585c-43 -79 -83 -120 -159 -120zM246 585l94 145h64l-108 -145h-50z" />
    <glyph glyph-name="Thorn" unicode="&#xde;" horiz-adv-x="511" 
d="M27 0l122 693h57l-23 -127h127c138 0 199 -71 199 -175c0 -146 -94 -219 -252 -219h-143l-30 -172h-57zM122 219h133c132 0 194 52 194 168c0 74 -33 131 -148 131h-126z" />
    <glyph glyph-name="thorn" unicode="&#xfe;" horiz-adv-x="491" 
d="M-16 -195l164 934h54l-51 -293h3c43 37 97 70 170 70c89 0 146 -57 146 -167c0 -186 -78 -357 -271 -357c-54 0 -95 12 -123 28l-38 -215h-54zM199 36c131 0 189 95 211 234c4 24 5 51 5 72c-1 94 -46 127 -112 127c-63 0 -116 -29 -159 -63l-60 -342
c29 -18 74 -28 115 -28z" />
    <glyph glyph-name="Zcaron" unicode="&#x17d;" horiz-adv-x="513" 
d="M482 845l-115 -112h-45l-75 112h44l58 -70l88 70h45zM-16 0l8 43l486 600v2h-361l8 48h430l-8 -42l-487 -601v-2h385l-9 -48h-452z" />
    <glyph glyph-name="zcaron" unicode="&#x17e;" horiz-adv-x="402" 
d="M240 585l-74 131h43l60 -90l90 90h46l-118 -131h-47zM-19 0l7 41l358 419v2h-277l7 45h346l-7 -40l-360 -420v-2h287l-8 -45h-353z" />
    <glyph glyph-name="onehalf" unicode="&#xbd;" horiz-adv-x="758" 
d="M14 -39l587 753h46l-586 -753h-47zM113 293l62 357l-94 -20l5 30l119 40h25l-71 -407h-46zM413 0l6 32l119 98c79 66 124 106 124 172c0 42 -23 69 -77 69c-33 0 -69 -10 -96 -24l6 36c30 16 61 26 102 26c76 0 115 -42 115 -103c0 -76 -55 -128 -142 -196l-93 -71v-2
h198l-6 -37h-256z" />
    <glyph glyph-name="onequarter" unicode="&#xbc;" horiz-adv-x="723" 
d="M113 293l62 357l-94 -20l5 30l119 40h25l-71 -407h-46zM23 -39l587 753h46l-586 -753h-47zM516 0l21 115h-186l5 32l237 255h41l-44 -252h68l-6 -35h-69l-21 -115h-46zM407 150h137l32 184h-2l-167 -182v-2z" />
    <glyph glyph-name="threequarters" unicode="&#xbe;" horiz-adv-x="768" 
d="M145 286c-51 0 -91 14 -111 28l6 33c26 -13 61 -23 100 -23c72 0 112 37 112 94c0 42 -33 68 -89 68h-33l7 36h28c58 0 105 27 105 84c0 39 -28 58 -78 58c-31 0 -54 -2 -84 -14l6 35c30 13 57 17 96 17c64 0 106 -35 106 -90s-42 -94 -92 -105v-2c40 -7 76 -36 76 -83
c0 -84 -67 -136 -155 -136zM84 -42l587 753h46l-586 -753h-47zM561 0l21 115h-186l5 32l237 255h41l-44 -252h68l-6 -35h-69l-21 -115h-46zM452 150h137l32 184h-2l-167 -182v-2z" />
    <glyph glyph-name="brokenbar" unicode="&#xa6;" horiz-adv-x="255" 
d="M106 -120v402h51v-402h-51zM106 348v387h51v-387h-51z" />
    <glyph glyph-name="minus" unicode="&#x2212;" horiz-adv-x="500" 
d="M60 311l9 48h399l-9 -48h-399z" />
    <glyph glyph-name="multiply" unicode="&#xd7;" horiz-adv-x="500" 
d="M82 141l-29 34l176 149l-124 149l37 33l124 -150l175 150l29 -33l-175 -150l123 -149l-37 -33l-123 149z" />
    <glyph glyph-name="space" unicode=" " horiz-adv-x="188" 
 />
    <glyph glyph-name="exclam" unicode="!" horiz-adv-x="228" 
d="M76 180l86 513h59l-98 -513h-47zM40 0l13 73h59l-13 -73h-59z" />
    <glyph glyph-name="quotedbl" unicode="&#x22;" horiz-adv-x="281" 
d="M220 531l25 162h59l-37 -162h-47zM102 531l25 162h59l-37 -162h-47z" />
    <glyph glyph-name="numbersign" unicode="#" horiz-adv-x="488" 
d="M81 430l9 48h93l54 215h46l-54 -215h130l54 215h45l-54 -215h84l-8 -48h-88l-38 -153h87l-8 -48h-91l-57 -229h-45l57 229h-130l-57 -229h-46l57 229h-86l8 48h90l39 153h-91zM217 430l-38 -153h130l38 153h-130z" />
    <glyph glyph-name="dollar" unicode="$" horiz-adv-x="477" 
d="M90 -117l34 113c-60 9 -99 30 -129 49l8 47c36 -22 77 -43 135 -51l93 300l-14 6c-87 39 -122 84 -122 166c0 112 77 189 214 189c9 0 16 0 33 -1l20 65h43l-22 -70c44 -9 69 -25 93 -39l-8 -46c-25 14 -54 31 -99 39l-84 -275l12 -5c81 -35 129 -77 129 -166
c0 -111 -63 -214 -231 -214c-10 0 -17 0 -28 1l-33 -108h-44zM270 324h-1l-88 -287h17c120 0 172 65 172 164c0 61 -33 93 -100 123zM149 514c0 -56 20 -87 95 -120l3 -2l80 262c-7 1 -14 1 -22 1c-100 0 -156 -48 -156 -141z" />
    <glyph glyph-name="percent" unicode="%" horiz-adv-x="764" 
d="M199 369c63 0 104 50 119 131c5 30 7 54 7 77c0 52 -26 87 -79 87c-63 0 -104 -50 -119 -130c-5 -28 -7 -53 -7 -76c0 -56 26 -89 79 -89zM544 30c63 0 104 50 119 131c5 30 7 53 7 76c0 53 -26 88 -79 88c-63 0 -104 -50 -119 -130c-5 -29 -7 -53 -7 -76
c0 -56 26 -89 79 -89zM197 332c-79 0 -126 52 -126 130c0 115 54 240 176 240c79 0 126 -52 126 -130c0 -115 -53 -240 -176 -240zM126 -39h-49l577 753h49zM542 -7c-79 0 -126 52 -126 130c0 115 54 239 176 239c79 0 126 -51 126 -129c0 -115 -53 -240 -176 -240z" />
    <glyph glyph-name="ampersand" unicode="&#x26;" horiz-adv-x="587" 
d="M220 -10c-128 0 -198 74 -198 174c0 124 93 179 192 224c-28 42 -50 92 -50 143c0 109 77 172 172 172c76 0 133 -52 133 -129c0 -102 -83 -157 -181 -200l144 -217c32 48 55 105 70 163h49c-16 -71 -47 -144 -93 -204l78 -116h-63l-52 76c-53 -54 -120 -86 -201 -86z
M222 36c73 0 131 28 175 77l-160 240c-89 -40 -157 -84 -157 -187c0 -77 53 -130 142 -130zM266 408c84 39 147 79 147 162c0 58 -39 89 -81 89c-64 0 -111 -44 -111 -124c0 -46 20 -88 45 -127z" />
    <glyph glyph-name="quotesingle" unicode="'" horiz-adv-x="163" 
d="M102 531l25 162h59l-37 -162h-47z" />
    <glyph glyph-name="parenleft" unicode="(" horiz-adv-x="281" 
d="M152 -120c-53 73 -101 202 -101 334c0 225 114 410 234 525h49c-118 -123 -227 -299 -227 -524c0 -126 36 -250 92 -335h-47z" />
    <glyph glyph-name="parenright" unicode=")" horiz-adv-x="281" 
d="M-34 -121c118 124 227 300 227 525c0 125 -35 249 -92 334h47c54 -72 101 -201 101 -334c0 -224 -114 -410 -234 -525h-49z" />
    <glyph glyph-name="asterisk" unicode="*" horiz-adv-x="357" 
d="M182 396l23 120l-109 -51l-16 38l113 45l-93 62l28 35l88 -71l18 119h43l-23 -121l110 52l15 -38l-112 -45l92 -62l-27 -35l-89 72l-19 -120h-42z" />
    <glyph glyph-name="plus" unicode="+" horiz-adv-x="501" 
d="M203 129l33 183h-176l9 47h175l32 183h50l-32 -183h175l-8 -47h-174l-33 -183h-51z" />
    <glyph glyph-name="comma" unicode="," horiz-adv-x="188" 
d="M-8 -93l44 166h63l-60 -166h-47z" />
    <glyph glyph-name="hyphen" unicode="-" horiz-adv-x="302" 
d="M52 245l8 47h194l-8 -47h-194z" />
    <glyph glyph-name="period" unicode="." horiz-adv-x="189" 
d="M19 0l13 73h61l-13 -73h-61z" />
    <glyph glyph-name="slash" unicode="/" horiz-adv-x="317" 
d="M-65 -121l398 859h51l-398 -859h-51z" />
    <glyph glyph-name="zero" unicode="0" horiz-adv-x="604" 
d="M262 -11c-138 0 -218 88 -218 239c0 47 9 103 20 159c34 178 130 316 311 316c142 0 217 -88 217 -238c0 -49 -7 -103 -18 -156c-34 -176 -128 -320 -312 -320zM267 37c145 0 217 118 247 275c11 58 19 110 19 151c0 120 -45 192 -163 192c-146 0 -216 -118 -247 -274
c-12 -58 -20 -110 -20 -152c0 -119 46 -192 164 -192z" />
    <glyph glyph-name="one" unicode="1" horiz-adv-x="297" 
d="M100 0l112 635l-134 -24l5 33l175 56h22l-123 -700h-57z" />
    <glyph glyph-name="two" unicode="2" horiz-adv-x="481" 
d="M-16 0l7 42l198 171c124 107 220 197 220 314c0 85 -46 128 -138 128c-67 0 -114 -15 -165 -37l8 44c52 26 95 41 172 41c123 0 182 -69 182 -173c0 -135 -108 -232 -242 -345l-160 -135v-2h340l-9 -48h-413z" />
    <glyph glyph-name="three" unicode="3" horiz-adv-x="465" 
d="M159 -9c-84 0 -138 21 -171 43l8 42c44 -22 87 -37 161 -37c127 0 199 71 199 176c0 82 -50 127 -155 127h-59l8 48h53c101 0 181 57 181 154c0 65 -36 111 -126 111c-52 0 -100 -10 -149 -30l9 45c46 23 95 33 151 33c121 0 174 -69 174 -151c0 -97 -70 -163 -162 -183
v-2c76 -12 133 -59 133 -147c0 -141 -100 -229 -255 -229z" />
    <glyph glyph-name="four" unicode="4" horiz-adv-x="526" 
d="M286 0l35 199h-315l8 44l403 450h47l-79 -447h126l-9 -47h-126l-35 -199h-55zM74 246h256l63 358h-2l-317 -356v-2z" />
    <glyph glyph-name="five" unicode="5" horiz-adv-x="468" 
d="M154 -9c-66 0 -128 18 -164 45l8 42c50 -28 100 -39 156 -39c148 0 209 82 209 199c0 91 -60 138 -163 138c-56 0 -94 -8 -126 -17l59 334h332l-9 -48h-283l-43 -235c24 8 55 13 95 13c122 0 196 -68 196 -183c0 -139 -84 -249 -267 -249z" />
    <glyph glyph-name="six" unicode="6" horiz-adv-x="523" 
d="M245 -11c-144 0 -212 94 -212 228c0 115 42 265 96 344c65 93 155 142 266 142c68 0 109 -15 135 -30l-7 -42c-27 10 -66 23 -131 23c-131 0 -237 -72 -286 -304c45 38 114 69 191 69c121 0 188 -74 188 -180c0 -153 -95 -250 -240 -250zM246 37c112 0 181 76 181 198
c0 89 -51 137 -144 137c-79 0 -135 -26 -184 -65c-5 -28 -7 -62 -7 -93c0 -101 39 -177 154 -177z" />
    <glyph glyph-name="seven" unicode="7" horiz-adv-x="452" 
d="M48 0l395 642v3h-355l8 48h413l-8 -46l-390 -647h-63z" />
    <glyph glyph-name="eight" unicode="8" horiz-adv-x="534" 
d="M247 -11c-140 0 -227 73 -227 171c0 116 108 170 200 201c-68 34 -122 84 -122 160c0 105 85 182 221 182c123 0 192 -68 192 -155c0 -101 -87 -152 -172 -188c83 -41 145 -93 145 -172c0 -116 -90 -199 -237 -199zM247 37c115 0 179 58 179 147c0 66 -59 111 -164 158
c-92 -35 -184 -78 -184 -181c0 -76 63 -124 169 -124zM298 378c81 35 154 82 154 163c0 63 -44 114 -137 114c-99 0 -159 -52 -159 -129c0 -63 44 -104 142 -148z" />
    <glyph glyph-name="nine" unicode="9" horiz-adv-x="523" 
d="M164 -9c-71 0 -112 16 -138 33l8 42c26 -11 66 -27 133 -27c131 0 247 74 284 305c-47 -40 -116 -71 -191 -71c-123 0 -190 74 -190 179c0 153 100 251 239 251c145 0 213 -98 213 -230c0 -126 -34 -264 -92 -350c-57 -83 -143 -132 -266 -132zM275 321
c76 0 133 26 182 66c4 25 6 59 6 90c0 101 -39 179 -155 179c-108 0 -180 -78 -180 -201c0 -88 50 -134 147 -134z" />
    <glyph glyph-name="colon" unicode=":" horiz-adv-x="197" 
d="M78 306l12 73h61l-13 -73h-60zM23 0l13 73h61l-13 -73h-61z" />
    <glyph glyph-name="semicolon" unicode=";" horiz-adv-x="196" 
d="M-8 -93l44 166h62l-59 -166h-47zM77 306l13 73h61l-13 -73h-61z" />
    <glyph glyph-name="less" unicode="&#x3c;" horiz-adv-x="467" 
d="M387 118l-336 176l8 46l398 174l-10 -56l-336 -143l285 -144z" />
    <glyph glyph-name="equal" unicode="=" horiz-adv-x="508" 
d="M75 375l8 46h401l-7 -46h-402zM44 201l8 46h402l-8 -46h-402z" />
    <glyph glyph-name="greater" unicode="&#x3e;" horiz-adv-x="467" 
d="M31 118l10 56l336 143l-285 145l9 52l335 -176l-7 -45z" />
    <glyph glyph-name="question" unicode="?" horiz-adv-x="391" 
d="M108 180l11 62c12 75 48 105 133 162c81 55 103 92 103 153c0 63 -41 98 -121 98c-56 0 -92 -10 -144 -31l7 45c53 23 91 34 153 34c98 0 163 -52 163 -142c0 -85 -36 -127 -133 -194c-68 -47 -100 -68 -110 -128l-10 -59h-52zM73 0l13 73h61l-13 -73h-61z" />
    <glyph glyph-name="at" unicode="@" horiz-adv-x="853" 
d="M377 -155c-238 0 -355 135 -355 331c0 251 204 504 499 504c202 0 321 -124 321 -307c0 -191 -109 -342 -248 -342c-67 0 -90 35 -92 76h-3c-30 -38 -89 -76 -152 -76c-78 0 -123 49 -123 135c0 190 147 321 276 321c56 0 107 -12 131 -26l-75 -314
c-11 -45 -6 -76 43 -76c103 0 195 127 195 297c0 154 -91 269 -276 269c-260 0 -446 -217 -446 -460c0 -175 100 -290 308 -290c94 0 199 27 250 47l-6 -38c-59 -26 -155 -51 -247 -51zM365 74c59 0 104 35 137 76l66 278c-19 10 -39 16 -74 16c-98 0 -214 -115 -214 -273
c0 -60 29 -97 85 -97z" />
    <glyph glyph-name="A" unicode="A" horiz-adv-x="569" 
d="M-36 0l392 693h59l101 -693h-57l-31 220h-285l-123 -220h-56zM369 623l-200 -355h252l-50 355h-2z" />
    <glyph glyph-name="B" unicode="B" horiz-adv-x="560" 
d="M27 0l122 693h195c131 0 185 -73 185 -155c0 -96 -59 -154 -145 -176v-3c72 -10 132 -58 132 -133c0 -139 -95 -226 -253 -226h-236zM92 47h173c119 0 194 62 194 181c0 69 -52 108 -151 108h-165zM150 382h143c110 0 178 52 178 151c0 65 -40 112 -137 112h-137z" />
    <glyph glyph-name="C" unicode="C" horiz-adv-x="558" 
d="M293 -10c-166 0 -249 109 -249 268c0 102 27 199 70 273c65 113 162 172 295 172c85 0 129 -19 165 -44l-8 -46c-35 22 -84 42 -162 42c-103 0 -188 -49 -242 -149c-36 -68 -59 -150 -59 -249c0 -142 67 -219 197 -219c85 0 146 24 188 47l-7 -49
c-39 -24 -108 -46 -188 -46z" />
    <glyph glyph-name="D" unicode="D" horiz-adv-x="614" 
d="M27 0l122 693h177c174 0 278 -84 278 -252c0 -236 -103 -441 -386 -441h-191zM92 48h130c202 0 283 117 313 277c7 42 10 80 10 116c0 141 -80 204 -229 204h-119z" />
    <glyph glyph-name="E" unicode="E" horiz-adv-x="509" 
d="M27 0l122 693h388l-8 -48h-332l-47 -265h257l-9 -48h-256l-50 -284h339l-9 -48h-395z" />
    <glyph glyph-name="F" unicode="F" horiz-adv-x="484" 
d="M28 0l122 693h381l-8 -48h-326l-47 -270h249l-9 -49h-249l-58 -326h-55z" />
    <glyph glyph-name="G" unicode="G" horiz-adv-x="604" 
d="M311 -10c-178 0 -266 111 -266 266c0 106 27 204 69 273c70 119 174 174 305 174c84 0 136 -21 169 -44l-8 -47c-33 21 -89 43 -165 43c-119 0 -209 -56 -263 -176c-32 -66 -48 -138 -48 -224c0 -117 53 -218 212 -218c54 0 97 7 138 20l39 218h-151l7 47h209l-52 -298
c-59 -20 -118 -34 -195 -34z" />
    <glyph glyph-name="H" unicode="H" horiz-adv-x="622" 
d="M27 0l123 693h56l-55 -309h365l55 309h56l-123 -693h-56l60 336h-365l-59 -336h-57z" />
    <glyph glyph-name="I" unicode="I" horiz-adv-x="209" 
d="M31 0l123 693h56l-123 -693h-56z" />
    <glyph glyph-name="J" unicode="J" horiz-adv-x="350" 
d="M87 -6c-51 0 -87 11 -112 26l7 42c25 -10 54 -19 101 -19c81 0 118 47 132 128l91 522h56l-93 -531c-18 -102 -68 -168 -182 -168z" />
    <glyph glyph-name="K" unicode="K" horiz-adv-x="531" 
d="M406 0l-220 352l325 341h68l-331 -342l220 -351h-62zM27 0l123 693h56l-122 -693h-57z" />
    <glyph glyph-name="L" unicode="L" horiz-adv-x="469" 
d="M27 0l122 693h57l-114 -645h320l-9 -48h-376z" />
    <glyph glyph-name="M" unicode="M" horiz-adv-x="750" 
d="M27 0l122 693h84l107 -620h2l327 620h86l-122 -693h-56l110 623h-2l-332 -623h-54l-108 623h-2l-110 -623h-52z" />
    <glyph glyph-name="N" unicode="N" horiz-adv-x="623" 
d="M27 0l122 693h69l250 -602h2l106 602h51l-122 -693h-59l-256 620h-2l-109 -620h-52z" />
    <glyph glyph-name="O" unicode="O" horiz-adv-x="656" 
d="M290 -9c-156 0 -247 110 -247 262c0 252 149 449 355 449c155 0 248 -110 248 -262c0 -254 -150 -449 -356 -449zM293 37c129 0 244 105 280 281c9 44 13 81 13 125c0 114 -56 213 -191 213c-128 0 -243 -101 -280 -281c-8 -43 -12 -81 -12 -125c0 -119 60 -213 190 -213
z" />
    <glyph glyph-name="P" unicode="P" horiz-adv-x="512" 
d="M27 0l123 693h183c138 0 198 -71 198 -175c0 -146 -94 -226 -252 -226h-144l-51 -292h-57zM144 339h133c132 0 195 59 195 175c0 73 -33 131 -148 131h-127z" />
    <glyph glyph-name="Q" unicode="Q" horiz-adv-x="656" 
d="M584 -105l-349 98c-112 29 -192 112 -192 260c0 252 149 449 355 449c155 0 248 -110 248 -262c0 -236 -131 -409 -306 -435l261 -62zM293 37c129 0 244 105 280 281c9 44 13 81 13 125c0 114 -56 213 -191 213c-128 0 -243 -101 -280 -281c-8 -43 -12 -81 -12 -125
c0 -119 60 -213 190 -213z" />
    <glyph glyph-name="R" unicode="R" horiz-adv-x="537" 
d="M27 0l123 693h181c126 0 191 -70 191 -166c0 -112 -67 -188 -185 -208v-4l137 -315h-60l-133 308h-143l-55 -308h-56zM146 354h129c127 0 187 69 187 169c0 75 -44 122 -139 122h-126z" />
    <glyph glyph-name="S" unicode="S" horiz-adv-x="471" 
d="M187 -10c-102 0 -159 30 -199 55l8 49c46 -29 103 -55 195 -55c119 0 172 61 172 160c0 61 -35 93 -102 125l-52 24c-86 40 -124 86 -124 167c0 113 79 187 216 187c95 0 133 -24 167 -45l-8 -47c-35 20 -79 45 -164 45c-99 0 -156 -47 -156 -139c0 -56 22 -86 97 -122
l52 -24c81 -37 130 -80 130 -169c0 -111 -64 -211 -232 -211z" />
    <glyph glyph-name="T" unicode="T" horiz-adv-x="513" 
d="M183 0l114 645h-214l8 48h485l-8 -48h-215l-114 -645h-56z" />
    <glyph glyph-name="U" unicode="U" horiz-adv-x="613" 
d="M281 -10c-132 0 -222 49 -222 185c0 21 2 43 6 68l79 450h56l-80 -454c-4 -23 -6 -44 -6 -63c0 -105 64 -141 169 -141c117 0 181 54 207 201l81 457h52l-82 -465c-26 -148 -103 -238 -260 -238z" />
    <glyph glyph-name="V" unicode="V" horiz-adv-x="552" 
d="M196 0l-110 693h57l94 -617h2l325 617h57l-370 -693h-55z" />
    <glyph glyph-name="W" unicode="W" horiz-adv-x="817" 
d="M135 0l-43 693h56l34 -608h1l276 608h53l61 -608h1l250 608h55l-292 -693h-61l-57 602h-3l-273 -602h-58z" />
    <glyph glyph-name="X" unicode="X" horiz-adv-x="546" 
d="M-24 0l287 359l-147 334h58l129 -298h3l232 298h61l-273 -342l155 -351h-59l-135 317h-2l-248 -317h-61z" />
    <glyph glyph-name="Y" unicode="Y" horiz-adv-x="494" 
d="M175 0l50 287l-141 406h56l122 -357h2l243 357h58l-284 -408l-50 -285h-56z" />
    <glyph glyph-name="Z" unicode="Z" horiz-adv-x="513" 
d="M-16 0l8 43l486 600v2h-361l8 48h430l-8 -42l-487 -601v-2h385l-9 -48h-452z" />
    <glyph glyph-name="bracketleft" unicode="[" horiz-adv-x="301" 
d="M9 -120l151 859h198l-7 -44h-144l-136 -771h144l-8 -44h-198z" />
    <glyph glyph-name="backslash" unicode="\" horiz-adv-x="305" 
d="M196 -120l-100 859h47l100 -859h-47z" />
    <glyph glyph-name="bracketright" unicode="]" horiz-adv-x="301" 
d="M-38 -120l7 44h144l136 771h-145l8 44h199l-151 -859h-198z" />
    <glyph glyph-name="asciicircum" unicode="^" horiz-adv-x="432" 
d="M81 456l190 237h46l105 -237h-47l-88 187l-155 -187h-51z" />
    <glyph glyph-name="underscore" unicode="_" horiz-adv-x="322" 
d="M-67 -110l6 38h330l-7 -38h-329z" />
    <glyph glyph-name="grave" unicode="`" 
d="M277 585l-68 145h58l57 -145h-47z" />
    <glyph glyph-name="a" unicode="a" horiz-adv-x="479" 
d="M171 -9c-93 0 -151 60 -151 165c0 218 145 360 306 360c62 0 106 -13 131 -23l-86 -493h-44l5 63h-3c-31 -32 -87 -72 -158 -72zM182 36c62 0 120 35 153 68l63 353c-20 9 -39 15 -77 15c-106 0 -195 -79 -231 -202c-10 -34 -15 -69 -15 -113c0 -83 41 -121 107 -121z
" />
    <glyph glyph-name="b" unicode="b" horiz-adv-x="492" 
d="M194 -8c-57 0 -133 10 -173 32l126 715h54l-51 -290h4c43 34 97 67 168 67c90 0 148 -55 148 -163c0 -185 -79 -361 -276 -361zM198 36c129 0 190 100 212 240c3 23 5 50 5 71c-1 91 -47 122 -113 122c-63 0 -116 -29 -159 -62l-62 -351c30 -14 78 -20 117 -20z" />
    <glyph glyph-name="c" unicode="c" horiz-adv-x="406" 
d="M207 -9c-120 0 -185 74 -185 196c0 81 24 162 65 219c50 70 121 110 208 110c58 0 92 -13 118 -28l-9 -45c-25 13 -57 27 -111 27c-64 0 -120 -27 -160 -85c-36 -50 -57 -118 -57 -195c0 -102 50 -153 140 -153c65 0 111 23 142 41l-9 -46c-36 -23 -81 -41 -142 -41z" />
    <glyph glyph-name="d" unicode="d" horiz-adv-x="487" 
d="M172 -8c-92 0 -152 59 -152 168c0 192 109 356 272 356c61 0 94 -17 119 -34l44 257h55l-130 -739h-45l5 65h-3c-36 -38 -91 -73 -165 -73zM188 36c67 0 118 34 156 69l59 333c-27 18 -64 31 -107 31c-113 0 -186 -84 -214 -223c-5 -26 -7 -56 -7 -80
c0 -88 37 -130 113 -130z" />
    <glyph glyph-name="e" unicode="e" horiz-adv-x="457" 
d="M216 -9c-124 0 -194 70 -194 196c0 92 25 173 66 230c44 61 107 99 190 99c119 0 180 -82 153 -236l-6 -32h-345c-2 -19 -3 -38 -3 -57c0 -107 51 -153 147 -153c65 0 123 22 165 41l-9 -45c-32 -18 -90 -43 -164 -43zM132 394c-19 -28 -34 -64 -43 -102h288
c21 120 -18 179 -105 179c-62 0 -108 -28 -140 -77z" />
    <glyph glyph-name="f" unicode="f" horiz-adv-x="296" 
d="M19 -195l116 657h-79l7 45h80l11 65c22 124 96 170 185 170c39 0 63 -8 81 -18l-7 -40c-15 7 -36 13 -71 13c-68 0 -117 -35 -134 -126l-11 -64h123l-7 -45h-124l-115 -657h-55z" />
    <glyph glyph-name="g" unicode="g" horiz-adv-x="487" 
d="M139 -198c-66 0 -132 18 -164 39l7 42c30 -15 92 -37 156 -37c117 0 168 46 186 152l14 80h-3c-29 -33 -86 -69 -161 -69c-92 0 -152 58 -152 170c0 195 122 337 280 337c73 0 120 -14 161 -36l-86 -489c-22 -128 -95 -189 -238 -189zM190 53c67 0 118 33 156 68l58 328
c-22 12 -59 23 -104 23c-109 0 -186 -80 -215 -210c-5 -25 -8 -55 -8 -80c0 -87 37 -129 113 -129z" />
    <glyph glyph-name="h" unicode="h" horiz-adv-x="499" 
d="M17 0l132 739h54l-51 -292h3c58 41 124 69 190 69c88 0 117 -48 117 -109c0 -13 -2 -27 -4 -40l-65 -367h-54l63 360c3 14 4 27 4 38c0 45 -21 71 -82 71c-58 0 -119 -23 -180 -61l-73 -408h-54z" />
    <glyph glyph-name="i" unicode="i" horiz-adv-x="183" 
d="M19 0l89 507h54l-89 -507h-54zM126 616l12 62h55l-11 -62h-56z" />
    <glyph glyph-name="j" unicode="j" horiz-adv-x="182" 
d="M-80 -196c-28 0 -55 6 -71 17l6 38c16 -6 32 -10 56 -10c57 0 86 28 97 91l100 567h54l-100 -571c-15 -86 -61 -132 -142 -132zM126 616l12 62h54l-11 -62h-55z" />
    <glyph glyph-name="k" unicode="k" horiz-adv-x="435" 
d="M17 0l130 739h54l-130 -739h-54zM312 0l-160 267l234 240h65l-240 -241l162 -266h-61z" />
    <glyph glyph-name="l" unicode="l" horiz-adv-x="181" 
d="M18 0l130 739h55l-130 -739h-55z" />
    <glyph glyph-name="m" unicode="m" horiz-adv-x="778" 
d="M17 0l90 507h52l-11 -62h3c60 43 118 71 181 71c67 0 96 -30 105 -74h3c66 45 131 74 195 74c82 0 107 -47 107 -106c0 -14 -1 -29 -4 -43l-64 -367h-55l63 360c3 16 5 30 5 43c0 42 -18 66 -74 66c-54 0 -108 -23 -172 -61c0 -13 -2 -27 -4 -41l-64 -367h-55l63 360
c3 16 4 30 4 43c0 42 -17 66 -73 66c-55 0 -107 -23 -168 -61l-73 -408h-54z" />
    <glyph glyph-name="n" unicode="n" horiz-adv-x="499" 
d="M17 0l90 507h52l-11 -62h3c61 43 128 71 194 71c88 0 117 -48 117 -109c0 -13 -2 -27 -4 -40l-65 -367h-54l63 360c3 14 4 27 4 38c0 45 -21 71 -82 71c-58 0 -119 -23 -180 -61l-73 -408h-54z" />
    <glyph glyph-name="o" unicode="o" horiz-adv-x="488" 
d="M204 -9c-117 0 -183 72 -183 192c0 182 102 333 264 333c115 0 182 -72 182 -192c0 -180 -102 -333 -263 -333zM206 36c103 0 174 83 198 205c5 29 9 60 9 84c0 99 -51 146 -131 146c-103 0 -173 -81 -198 -204c-5 -26 -8 -55 -8 -84c0 -99 50 -147 130 -147z" />
    <glyph glyph-name="p" unicode="p" horiz-adv-x="491" 
d="M-16 -195l122 702h53l-11 -62h3c43 38 100 71 173 71c89 0 146 -57 146 -167c0 -186 -78 -357 -271 -357c-54 0 -95 13 -123 28l-38 -215h-54zM199 36c131 0 189 95 211 234c4 24 5 51 5 72c-1 94 -46 127 -112 127c-63 0 -117 -30 -160 -63l-59 -342
c29 -18 74 -28 115 -28z" />
    <glyph glyph-name="q" unicode="q" horiz-adv-x="488" 
d="M292 -195l45 256h-3c-30 -32 -87 -69 -161 -69c-93 0 -153 60 -153 168c0 211 123 356 282 356c73 0 124 -16 163 -36l-118 -675h-55zM188 37c67 0 119 33 157 68l60 343c-23 12 -59 23 -104 23c-115 0 -190 -86 -219 -225c-5 -26 -7 -56 -7 -80c0 -87 37 -129 113 -129z
" />
    <glyph glyph-name="r" unicode="r" horiz-adv-x="305" 
d="M17 0l89 507h53l-12 -67h3c39 39 93 73 156 73c12 0 25 -2 30 -4l-9 -48c-10 2 -24 3 -33 3c-59 0 -109 -27 -152 -61l-71 -403h-54z" />
    <glyph glyph-name="s" unicode="s" horiz-adv-x="385" 
d="M146 -8c-79 0 -123 21 -156 42l8 43c35 -18 73 -39 149 -39c103 0 129 52 129 105c0 42 -22 64 -77 86l-49 20c-58 24 -94 58 -94 120c0 90 60 146 171 146c74 0 110 -19 136 -35l-9 -44c-28 16 -68 33 -131 33c-78 0 -115 -35 -115 -93c0 -41 19 -63 69 -82l48 -20
c71 -29 105 -59 105 -125c0 -79 -43 -157 -184 -157z" />
    <glyph glyph-name="t" unicode="t" horiz-adv-x="319" 
d="M178 -5c-90 0 -122 54 -107 135l59 332h-74l8 45h74l22 120h54l-21 -120h136l-8 -45h-136l-59 -331c-10 -58 2 -92 65 -92c25 0 50 6 72 13l-7 -38c-17 -10 -45 -19 -78 -19z" />
    <glyph glyph-name="u" unicode="u" horiz-adv-x="495" 
d="M157 -9c-81 0 -120 43 -121 113c0 12 1 25 4 39l63 364h55l-63 -360c-2 -14 -4 -27 -4 -39c0 -45 22 -70 80 -70c60 0 117 23 179 61l72 408h54l-89 -507h-46l5 62h-4c-59 -43 -118 -71 -185 -71z" />
    <glyph glyph-name="v" unicode="v" horiz-adv-x="440" 
d="M130 0l-74 507h57l58 -439h3l241 439h57l-284 -507h-58z" />
    <glyph glyph-name="w" unicode="w" horiz-adv-x="697" 
d="M105 0l-46 507h55l34 -436h3l216 436h52l36 -436h3l214 436h54l-256 -507h-57l-37 424h-3l-210 -424h-58z" />
    <glyph glyph-name="x" unicode="x" horiz-adv-x="431" 
d="M-32 0l216 261l-118 246h57l101 -212l175 212h58l-212 -255l122 -252h-58l-103 216l-179 -216h-59z" />
    <glyph glyph-name="y" unicode="y" horiz-adv-x="448" 
d="M-4 -198c-25 0 -47 8 -60 15l7 40c14 -6 31 -9 50 -9c52 0 82 29 115 86l45 81l-97 492h58l78 -422h2l230 422h56l-325 -585c-43 -79 -83 -120 -159 -120z" />
    <glyph glyph-name="z" unicode="z" horiz-adv-x="402" 
d="M-19 0l7 41l358 419v2h-277l7 45h346l-7 -40l-360 -420v-2h287l-8 -45h-353z" />
    <glyph glyph-name="braceleft" unicode="{" horiz-adv-x="333" 
d="M238 -123c-115 6 -155 53 -155 120c0 12 1 24 3 37l28 155c11 67 -14 94 -92 99l9 47c78 6 113 24 125 94l29 160c17 97 62 146 206 152l-7 -44c-93 -8 -132 -31 -146 -110l-28 -160c-12 -65 -45 -104 -124 -116v-2c66 -12 91 -47 84 -105c0 -4 -18 -107 -19 -112
c-1 -7 -12 -70 -12 -76c-5 -65 29 -87 108 -94z" />
    <glyph glyph-name="bar" unicode="|" horiz-adv-x="255" 
d="M111 -120v859h51v-859h-51z" />
    <glyph glyph-name="braceright" unicode="}" horiz-adv-x="333" 
d="M-38 -123l7 45c93 7 132 31 145 109l29 160c12 66 46 105 124 116v3c-66 11 -91 46 -84 104c0 4 18 108 19 112c1 7 12 71 12 77c5 65 -29 87 -108 94l8 44c116 -6 156 -52 156 -120c0 -11 -1 -23 -3 -36l-28 -156c-12 -66 14 -93 91 -99l-9 -47
c-76 -5 -112 -24 -124 -94l-29 -160c-17 -97 -61 -145 -206 -152z" />
    <glyph glyph-name="asciitilde" unicode="~" horiz-adv-x="425" 
d="M50 245c17 69 58 95 104 95c52 0 92 -47 134 -47c29 0 50 17 60 48h41c-17 -68 -58 -94 -106 -94c-51 0 -92 47 -133 47c-29 0 -50 -18 -59 -49h-41z" />
    <glyph glyph-name="Adieresis" unicode="&#xc4;" horiz-adv-x="569" 
d="M-36 0l392 693h59l101 -693h-57l-31 220h-285l-123 -220h-56zM369 623l-200 -355h252l-50 355h-2zM434 741l11 61h55l-12 -61h-54zM290 741l11 61h54l-11 -61h-54z" />
    <glyph glyph-name="Aring" unicode="&#xc5;" horiz-adv-x="569" 
d="M-36 0l392 693h59l101 -693h-57l-31 220h-285l-123 -220h-56zM369 623l-200 -355h252l-50 355h-2zM390 722c-51 0 -83 35 -83 78c0 49 39 90 90 90s83 -36 83 -78c0 -51 -39 -90 -90 -90zM391 755c31 0 51 23 51 57c0 24 -16 45 -46 45c-31 0 -51 -24 -51 -56
c0 -26 16 -46 46 -46z" />
    <glyph glyph-name="Ccedilla" unicode="&#xc7;" horiz-adv-x="558" 
d="M149 -213l6 37c90 7 121 22 121 55c0 24 -25 36 -80 36l14 85c-111 31 -166 128 -166 258c0 102 27 199 70 273c65 113 162 172 295 172c85 0 129 -19 165 -44l-8 -46c-35 22 -84 42 -162 42c-103 0 -188 -49 -242 -149c-36 -68 -59 -150 -59 -249
c0 -142 67 -219 197 -219c85 0 146 24 188 47l-7 -49c-39 -24 -108 -46 -188 -46c-15 0 -30 1 -43 3l-8 -44c51 -3 85 -26 85 -65c0 -57 -51 -90 -178 -97z" />
    <glyph glyph-name="Eacute" unicode="&#xc9;" horiz-adv-x="509" 
d="M323 733l81 125h64l-95 -125h-50zM27 0l122 693h388l-8 -48h-332l-47 -265h257l-9 -48h-256l-50 -284h339l-9 -48h-395z" />
    <glyph glyph-name="Ntilde" unicode="&#xd1;" horiz-adv-x="623" 
d="M269 743c11 56 47 81 86 81c43 0 76 -36 109 -36c21 0 37 12 44 37h38c-10 -56 -47 -82 -84 -82c-43 0 -77 36 -110 36c-22 0 -37 -12 -44 -36h-39zM27 0l122 693h69l250 -602h2l106 602h51l-122 -693h-59l-256 620h-2l-109 -620h-52z" />
    <glyph glyph-name="Odieresis" unicode="&#xd6;" horiz-adv-x="656" 
d="M453 741l11 61h55l-12 -61h-54zM309 741l11 61h54l-11 -61h-54zM290 -9c-156 0 -247 110 -247 262c0 252 149 449 355 449c155 0 248 -110 248 -262c0 -254 -150 -449 -356 -449zM293 37c129 0 244 105 280 281c9 44 13 81 13 125c0 114 -56 213 -191 213
c-128 0 -243 -101 -280 -281c-8 -43 -12 -81 -12 -125c0 -119 60 -213 190 -213z" />
    <glyph glyph-name="Udieresis" unicode="&#xdc;" horiz-adv-x="613" 
d="M281 -10c-132 0 -222 49 -222 185c0 21 2 43 6 68l79 450h56l-80 -454c-4 -23 -6 -44 -6 -63c0 -105 64 -141 169 -141c117 0 181 54 207 201l81 457h52l-82 -465c-26 -148 -103 -238 -260 -238zM438 741l11 61h55l-12 -61h-54zM294 741l11 61h54l-11 -61h-54z" />
    <glyph glyph-name="aacute" unicode="&#xe1;" horiz-adv-x="479" 
d="M171 -9c-93 0 -151 60 -151 165c0 218 145 360 306 360c62 0 106 -13 131 -23l-86 -493h-44l5 63h-3c-31 -32 -87 -72 -158 -72zM182 36c62 0 120 35 153 68l63 353c-20 9 -39 15 -77 15c-106 0 -195 -79 -231 -202c-10 -34 -15 -69 -15 -113c0 -83 41 -121 107 -121z
M288 585l94 145h64l-108 -145h-50z" />
    <glyph glyph-name="agrave" unicode="&#xe0;" horiz-adv-x="479" 
d="M171 -9c-93 0 -151 60 -151 165c0 218 145 360 306 360c62 0 106 -13 131 -23l-86 -493h-44l5 63h-3c-31 -32 -87 -72 -158 -72zM182 36c62 0 120 35 153 68l63 353c-20 9 -39 15 -77 15c-106 0 -195 -79 -231 -202c-10 -34 -15 -69 -15 -113c0 -83 41 -121 107 -121z
M295 585l-68 145h58l57 -145h-47z" />
    <glyph glyph-name="acircumflex" unicode="&#xe2;" horiz-adv-x="479" 
d="M171 -9c-93 0 -151 60 -151 165c0 218 145 360 306 360c62 0 106 -13 131 -23l-86 -493h-44l5 63h-3c-31 -32 -87 -72 -158 -72zM182 36c62 0 120 35 153 68l63 353c-20 9 -39 15 -77 15c-106 0 -195 -79 -231 -202c-10 -34 -15 -69 -15 -113c0 -83 41 -121 107 -121z
M200 585l117 131h48l74 -131h-44l-59 90l-90 -90h-46z" />
    <glyph glyph-name="adieresis" unicode="&#xe4;" horiz-adv-x="479" 
d="M171 -9c-93 0 -151 60 -151 165c0 218 145 360 306 360c62 0 106 -13 131 -23l-86 -493h-44l5 63h-3c-31 -32 -87 -72 -158 -72zM182 36c62 0 120 35 153 68l63 353c-20 9 -39 15 -77 15c-106 0 -195 -79 -231 -202c-10 -34 -15 -69 -15 -113c0 -83 41 -121 107 -121z
M364 616l11 62h54l-11 -62h-54zM222 616l11 62h54l-12 -62h-53z" />
    <glyph glyph-name="atilde" unicode="&#xe3;" horiz-adv-x="479" 
d="M171 -9c-93 0 -151 60 -151 165c0 218 145 360 306 360c62 0 106 -13 131 -23l-86 -493h-44l5 63h-3c-31 -32 -87 -72 -158 -72zM182 36c62 0 120 35 153 68l63 353c-20 9 -39 15 -77 15c-106 0 -195 -79 -231 -202c-10 -34 -15 -69 -15 -113c0 -83 41 -121 107 -121z
M193 608c11 58 48 85 86 85c43 0 75 -39 108 -39c21 0 38 13 45 40h38c-11 -58 -48 -85 -85 -85c-43 0 -76 39 -108 39c-22 0 -38 -14 -45 -40h-39z" />
    <glyph glyph-name="aring" unicode="&#xe5;" horiz-adv-x="479" 
d="M171 -9c-93 0 -151 60 -151 165c0 218 145 360 306 360c62 0 106 -13 131 -23l-86 -493h-44l5 63h-3c-31 -32 -87 -72 -158 -72zM182 36c62 0 120 35 153 68l63 353c-20 9 -39 15 -77 15c-106 0 -195 -79 -231 -202c-10 -34 -15 -69 -15 -113c0 -83 41 -121 107 -121z
M327 581c-50 0 -82 36 -82 79c0 49 38 90 89 90s83 -36 83 -78c0 -52 -39 -91 -90 -91zM328 614c31 0 51 23 51 57c0 25 -16 46 -46 46c-31 0 -51 -24 -51 -57c0 -25 16 -46 46 -46z" />
    <glyph glyph-name="ccedilla" unicode="&#xe7;" horiz-adv-x="406" 
d="M81 -213l6 37c90 7 121 22 121 55c0 24 -25 36 -80 36l13 85c-78 22 -119 89 -119 187c0 81 24 162 65 219c50 70 121 110 208 110c58 0 92 -13 118 -28l-9 -45c-25 13 -57 27 -111 27c-64 0 -120 -27 -160 -85c-36 -50 -57 -118 -57 -195c0 -102 50 -153 140 -153
c65 0 111 23 142 41l-9 -46c-36 -23 -81 -41 -142 -41c-9 0 -18 0 -26 1l-7 -43c51 -3 85 -26 85 -65c0 -57 -51 -90 -178 -97z" />
    <glyph glyph-name="eacute" unicode="&#xe9;" horiz-adv-x="457" 
d="M216 -9c-124 0 -194 70 -194 196c0 92 25 173 66 230c44 61 107 99 190 99c119 0 180 -82 153 -236l-6 -32h-345c-2 -19 -3 -38 -3 -57c0 -107 51 -153 147 -153c65 0 123 22 165 41l-9 -45c-32 -18 -90 -43 -164 -43zM132 394c-19 -28 -34 -64 -43 -102h288
c21 120 -18 179 -105 179c-62 0 -108 -28 -140 -77zM256 585l94 145h64l-108 -145h-50z" />
    <glyph glyph-name="egrave" unicode="&#xe8;" horiz-adv-x="457" 
d="M216 -9c-124 0 -194 70 -194 196c0 92 25 173 66 230c44 61 107 99 190 99c119 0 180 -82 153 -236l-6 -32h-345c-2 -19 -3 -38 -3 -57c0 -107 51 -153 147 -153c65 0 123 22 165 41l-9 -45c-32 -18 -90 -43 -164 -43zM132 394c-19 -28 -34 -64 -43 -102h288
c21 120 -18 179 -105 179c-62 0 -108 -28 -140 -77zM264 585l-68 145h58l57 -145h-47z" />
    <glyph glyph-name="ecircumflex" unicode="&#xea;" horiz-adv-x="457" 
d="M216 -9c-124 0 -194 70 -194 196c0 92 25 173 66 230c44 61 107 99 190 99c119 0 180 -82 153 -236l-6 -32h-345c-2 -19 -3 -38 -3 -57c0 -107 51 -153 147 -153c65 0 123 22 165 41l-9 -45c-32 -18 -90 -43 -164 -43zM132 394c-19 -28 -34 -64 -43 -102h288
c21 120 -18 179 -105 179c-62 0 -108 -28 -140 -77zM168 585l117 131h48l74 -131h-44l-59 90l-90 -90h-46z" />
    <glyph glyph-name="edieresis" unicode="&#xeb;" horiz-adv-x="457" 
d="M216 -9c-124 0 -194 70 -194 196c0 92 25 173 66 230c44 61 107 99 190 99c119 0 180 -82 153 -236l-6 -32h-345c-2 -19 -3 -38 -3 -57c0 -107 51 -153 147 -153c65 0 123 22 165 41l-9 -45c-32 -18 -90 -43 -164 -43zM132 394c-19 -28 -34 -64 -43 -102h288
c21 120 -18 179 -105 179c-62 0 -108 -28 -140 -77zM337 616l11 62h54l-11 -62h-54zM195 616l11 62h54l-12 -62h-53z" />
    <glyph glyph-name="iacute" unicode="&#xed;" horiz-adv-x="183" 
d="M121 585l94 145h64l-108 -145h-50zM19 0l89 507h54l-88 -507h-55z" />
    <glyph glyph-name="igrave" unicode="&#xec;" horiz-adv-x="183" 
d="M19 0l89 507h54l-88 -507h-55zM125 585l-68 145h58l57 -145h-47z" />
    <glyph glyph-name="icircumflex" unicode="&#xee;" horiz-adv-x="183" 
d="M19 0l89 507h54l-88 -507h-55zM38 585l108 131h47l63 -131h-43l-49 89l-79 -89h-47z" />
    <glyph glyph-name="idieresis" unicode="&#xef;" horiz-adv-x="183" 
d="M194 616l11 62h54l-11 -62h-54zM60 616l11 62h54l-12 -62h-53zM19 0l89 507h54l-88 -507h-55z" />
    <glyph glyph-name="ntilde" unicode="&#xf1;" horiz-adv-x="499" 
d="M17 0l90 507h52l-11 -62h3c61 43 128 71 194 71c88 0 117 -48 117 -109c0 -13 -2 -27 -4 -40l-65 -367h-54l63 360c3 14 4 27 4 38c0 45 -21 71 -82 71c-58 0 -119 -23 -180 -61l-73 -408h-54zM171 608c11 58 48 85 86 85c43 0 75 -39 108 -39c21 0 38 13 45 40h38
c-11 -58 -48 -85 -85 -85c-43 0 -76 39 -108 39c-22 0 -38 -14 -45 -40h-39z" />
    <glyph glyph-name="oacute" unicode="&#xf3;" horiz-adv-x="488" 
d="M269 585l94 145h64l-108 -145h-50zM204 -9c-117 0 -183 72 -183 192c0 182 102 333 264 333c115 0 182 -72 182 -192c0 -180 -102 -333 -263 -333zM206 36c103 0 174 83 198 205c5 29 9 60 9 84c0 99 -51 146 -131 146c-103 0 -173 -81 -198 -204c-5 -26 -8 -55 -8 -84
c0 -99 50 -147 130 -147z" />
    <glyph glyph-name="ograve" unicode="&#xf2;" horiz-adv-x="488" 
d="M204 -9c-117 0 -183 72 -183 192c0 182 102 333 264 333c115 0 182 -72 182 -192c0 -180 -102 -333 -263 -333zM206 36c103 0 174 83 198 205c5 29 9 60 9 84c0 99 -51 146 -131 146c-103 0 -173 -81 -198 -204c-5 -26 -8 -55 -8 -84c0 -99 50 -147 130 -147zM276 585
l-68 145h58l57 -145h-47z" />
    <glyph glyph-name="ocircumflex" unicode="&#xf4;" horiz-adv-x="488" 
d="M184 585l117 131h48l74 -131h-44l-59 90l-90 -90h-46zM204 -9c-117 0 -183 72 -183 192c0 182 102 333 264 333c115 0 182 -72 182 -192c0 -180 -102 -333 -263 -333zM206 36c103 0 174 83 198 205c5 29 9 60 9 84c0 99 -51 146 -131 146c-103 0 -173 -81 -198 -204
c-5 -26 -8 -55 -8 -84c0 -99 50 -147 130 -147z" />
    <glyph glyph-name="odieresis" unicode="&#xf6;" horiz-adv-x="488" 
d="M349 616l11 62h54l-11 -62h-54zM207 616l11 62h54l-12 -62h-53zM204 -9c-117 0 -183 72 -183 192c0 182 102 333 264 333c115 0 182 -72 182 -192c0 -180 -102 -333 -263 -333zM206 36c103 0 174 83 198 205c5 29 9 60 9 84c0 99 -51 146 -131 146
c-103 0 -173 -81 -198 -204c-5 -26 -8 -55 -8 -84c0 -99 50 -147 130 -147z" />
    <glyph glyph-name="otilde" unicode="&#xf5;" horiz-adv-x="488" 
d="M204 -9c-117 0 -183 72 -183 192c0 182 102 333 264 333c115 0 182 -72 182 -192c0 -180 -102 -333 -263 -333zM206 36c103 0 174 83 198 205c5 29 9 60 9 84c0 99 -51 146 -131 146c-103 0 -173 -81 -198 -204c-5 -26 -8 -55 -8 -84c0 -99 50 -147 130 -147zM172 608
c11 58 48 85 86 85c43 0 75 -39 108 -39c21 0 38 13 45 40h38c-11 -58 -48 -85 -85 -85c-43 0 -76 39 -108 39c-22 0 -38 -14 -45 -40h-39z" />
    <glyph glyph-name="uacute" unicode="&#xfa;" horiz-adv-x="495" 
d="M269 585l94 145h64l-108 -145h-50zM157 -9c-81 0 -120 43 -121 113c0 12 1 25 4 39l63 364h55l-63 -360c-2 -14 -4 -27 -4 -39c0 -45 22 -70 80 -70c60 0 117 23 179 61l72 408h54l-89 -507h-46l5 62h-4c-59 -43 -118 -71 -185 -71z" />
    <glyph glyph-name="ugrave" unicode="&#xf9;" horiz-adv-x="495" 
d="M157 -9c-81 0 -120 43 -121 113c0 12 1 25 4 39l63 364h55l-63 -360c-2 -14 -4 -27 -4 -39c0 -45 22 -70 80 -70c60 0 117 23 179 61l72 408h54l-89 -507h-46l5 62h-4c-59 -43 -118 -71 -185 -71zM277 585l-68 145h58l57 -145h-47z" />
    <glyph glyph-name="ucircumflex" unicode="&#xfb;" horiz-adv-x="495" 
d="M182 585l117 131h48l74 -131h-44l-59 90l-90 -90h-46zM157 -9c-81 0 -120 43 -121 113c0 12 1 25 4 39l63 364h55l-63 -360c-2 -14 -4 -27 -4 -39c0 -45 22 -70 80 -70c60 0 117 23 179 61l72 408h54l-89 -507h-46l5 62h-4c-59 -43 -118 -71 -185 -71z" />
    <glyph glyph-name="udieresis" unicode="&#xfc;" horiz-adv-x="495" 
d="M351 616l11 62h54l-11 -62h-54zM209 616l11 62h54l-12 -62h-53zM157 -9c-81 0 -120 43 -121 113c0 12 1 25 4 39l63 364h55l-63 -360c-2 -14 -4 -27 -4 -39c0 -45 22 -70 80 -70c60 0 117 23 179 61l72 408h54l-89 -507h-46l5 62h-4c-59 -43 -118 -71 -185 -71z" />
    <glyph glyph-name="dagger" unicode="&#x2020;" horiz-adv-x="428" 
d="M131 -69l91 515h-156l8 48h157l34 199h51l-35 -199h156l-8 -48h-157l-90 -515h-51z" />
    <glyph glyph-name="degree" unicode="&#xb0;" horiz-adv-x="330" 
d="M210 449c-69 0 -116 53 -116 114c0 82 64 139 138 139c69 0 117 -52 117 -114c0 -80 -64 -139 -139 -139zM213 484c53 0 93 42 93 104c0 43 -29 79 -77 79c-52 0 -93 -42 -93 -103c0 -44 29 -80 77 -80z" />
    <glyph glyph-name="cent" unicode="&#xa2;" horiz-adv-x="410" 
d="M106 -119l37 118c-79 22 -121 90 -121 191c0 78 24 158 65 216c50 70 120 110 208 110h11l23 72h44l-24 -77c28 -5 49 -14 65 -23l-7 -44c-18 10 -41 19 -72 23l-136 -430c6 -1 11 -1 17 -1c65 0 113 22 143 40l-8 -44c-36 -23 -83 -41 -144 -41c-5 0 -11 0 -22 1
l-35 -111h-44zM76 190c0 -77 28 -126 81 -145l134 425c-65 0 -118 -27 -158 -85c-35 -51 -57 -118 -57 -195z" />
    <glyph glyph-name="sterling" unicode="&#xa3;" horiz-adv-x="485" 
d="M49 320l8 43h87l22 121c28 157 122 219 232 219c56 0 90 -12 113 -27l-8 -42c-28 12 -57 21 -104 21c-86 0 -154 -41 -178 -174l-21 -118h184l-7 -43h-185l-16 -95c-17 -94 -47 -140 -105 -175v-2h348l-8 -48h-417l7 42c67 36 103 87 119 181l17 97h-88z" />
    <glyph glyph-name="section" unicode="&#xa7;" horiz-adv-x="463" 
d="M165 -131c-75 0 -120 19 -159 43l8 45c33 -20 85 -41 151 -41c91 0 138 45 138 109c0 50 -24 76 -81 101l-70 31c-64 29 -111 67 -111 144c0 74 49 120 126 141c-29 27 -41 61 -41 104c0 95 78 157 187 157c70 0 109 -18 142 -35l-8 -45c-31 18 -75 32 -135 32
c-79 0 -132 -36 -132 -107c0 -42 16 -75 69 -98l70 -32c65 -29 121 -66 121 -140s-48 -124 -131 -144c32 -26 47 -56 47 -102c0 -97 -70 -163 -191 -163zM300 370c0 0 -97 44 -101 46c-66 -16 -107 -50 -107 -111c0 -49 34 -80 79 -99c0 0 99 -45 103 -47
c73 16 113 51 113 112c0 53 -40 78 -87 99z" />
    <glyph glyph-name="bullet" unicode="&#x2022;" horiz-adv-x="303" 
d="M156 211c-60 0 -104 47 -104 100c0 73 58 124 119 124c60 0 104 -44 104 -101c0 -70 -57 -123 -119 -123z" />
    <glyph glyph-name="paragraph" unicode="&#xb6;" horiz-adv-x="542" 
d="M212 -119l82 459h-49c-95 0 -167 57 -167 158c0 106 64 195 240 195h226l-143 -812h-42l136 775h-104l-136 -775h-43z" />
    <glyph glyph-name="germandbls" unicode="&#xdf;" horiz-adv-x="511" 
d="M-16 -195l130 743c23 130 111 194 222 194c99 0 149 -47 149 -115c0 -130 -186 -183 -186 -266c0 -31 19 -46 55 -72l40 -28c45 -31 74 -67 74 -121c0 -88 -68 -149 -171 -149c-68 0 -105 18 -130 34l8 45c32 -17 62 -32 121 -32c81 0 118 44 118 100c0 36 -22 61 -57 86
l-37 26c-42 30 -73 57 -73 103c0 108 184 160 184 268c0 46 -33 76 -101 76c-85 0 -144 -47 -162 -153l-130 -739h-54z" />
    <glyph glyph-name="registered" unicode="&#xae;" horiz-adv-x="424" 
d="M257 324c-108 0 -189 85 -189 190c0 107 81 191 189 191c107 0 190 -84 190 -191c0 -105 -83 -190 -190 -190zM257 352c91 0 157 72 157 162s-66 163 -157 163c-93 0 -157 -73 -157 -163s64 -162 157 -162zM194 423v186h65c47 0 72 -17 72 -55c0 -27 -14 -42 -36 -49v-2
l46 -80h-38l-41 74h-33v-74h-35zM229 523h32c25 0 34 12 34 30c0 21 -9 28 -37 28h-29v-58z" />
    <glyph glyph-name="copyright" unicode="&#xa9;" horiz-adv-x="793" 
d="M412 -11c-203 0 -353 160 -353 356c0 195 150 355 353 355c202 0 353 -160 353 -355c0 -196 -151 -356 -353 -356zM412 25c181 0 310 137 310 320c0 181 -129 319 -310 319c-182 0 -310 -138 -310 -319c0 -183 128 -320 310 -320zM420 145c-110 0 -178 67 -178 196v11
c0 133 78 193 182 193c47 0 78 -10 99 -21v-45c-28 12 -58 20 -101 20c-75 0 -122 -48 -122 -142v-17c0 -95 41 -149 126 -149c52 0 78 14 101 26v-44c-23 -13 -55 -28 -107 -28z" />
    <glyph glyph-name="trademark" unicode="&#x2122;" horiz-adv-x="632" 
d="M326 404l51 289h55l48 -240h2l132 240h59l-51 -289h-41l43 238h-3l-131 -238h-37l-47 238h-2l-42 -238h-36zM137 404l45 255h-92l6 34h226l-6 -34h-93l-45 -255h-41z" />
    <glyph glyph-name="acute" unicode="&#xb4;" 
d="M280 585l94 145h64l-108 -145h-50z" />
    <glyph glyph-name="dieresis" unicode="&#xa8;" horiz-adv-x="497" 
d="M356 616l11 62h54l-11 -62h-54zM214 616l11 62h54l-12 -62h-53z" />
    <glyph glyph-name="AE" unicode="&#xc6;" horiz-adv-x="860" 
d="M-43 0l514 693h417l-8 -48h-328l-47 -265h254l-8 -48h-254l-50 -284h334l-8 -48h-389l37 208h-250l-154 -208h-60zM206 257h223l69 389h-4z" />
    <glyph glyph-name="Oslash" unicode="&#xd8;" horiz-adv-x="656" 
d="M290 -9c-78 0 -140 28 -182 75l-59 -66h-58l91 101c-26 42 -39 94 -39 152c0 252 149 449 355 449c71 0 130 -25 172 -65l51 56h56l-80 -88c32 -45 49 -102 49 -165c0 -254 -150 -449 -356 -449zM293 37c129 0 245 105 280 281c10 44 14 81 14 125s-9 86 -27 121
l-417 -460c31 -42 80 -67 150 -67zM102 250c0 -39 6 -75 19 -107l415 456c-31 35 -77 57 -141 57c-128 0 -244 -101 -280 -281c-9 -43 -13 -81 -13 -125z" />
    <glyph glyph-name="yen" unicode="&#xa5;" horiz-adv-x="499" 
d="M177 0l27 153h-159l8 45h159l16 90h-160l8 45h148l-142 360h57l128 -334h3l241 334h59l-266 -360h148l-8 -45h-162l-16 -90h163l-9 -45h-162l-28 -153h-53z" />
    <glyph glyph-name="ordfeminine" unicode="&#xaa;" horiz-adv-x="434" 
d="M192 229c-83 0 -138 52 -138 153c0 194 136 319 271 319c60 0 107 -12 130 -21l-78 -443h-44l4 56h-2c-30 -31 -80 -64 -143 -64zM203 271c55 0 106 29 137 58l56 318c-17 7 -35 13 -76 13c-89 0 -168 -67 -200 -177c-9 -31 -13 -64 -13 -100c0 -81 37 -112 96 -112z" />
    <glyph glyph-name="ordmasculine" unicode="&#xba;" horiz-adv-x="442" 
d="M222 229c-107 0 -167 66 -167 175c0 161 94 297 239 297c111 0 167 -64 167 -172c0 -163 -92 -300 -239 -300zM224 271c92 0 155 74 175 181c6 27 9 56 9 78c0 89 -44 128 -116 128c-92 0 -153 -68 -175 -179c-4 -21 -8 -52 -8 -75c0 -91 43 -133 115 -133z" />
    <glyph glyph-name="ae" unicode="&#xe6;" horiz-adv-x="743" 
d="M142 -9c-87 0 -136 52 -136 128c0 95 61 143 175 156l139 16l11 57c15 81 -17 121 -106 121c-50 0 -90 -8 -128 -20l8 40c41 17 84 27 138 27c84 0 131 -35 139 -99c41 60 101 99 183 99c117 0 180 -82 153 -236l-6 -32h-345c-3 -19 -4 -38 -4 -58
c0 -106 51 -152 147 -152c65 0 124 21 165 40l-8 -44c-33 -18 -90 -43 -164 -43c-81 0 -140 31 -171 89c-48 -50 -108 -89 -190 -89zM309 186c0 22 0 43 3 63l-123 -13c-87 -10 -126 -40 -126 -112c0 -55 28 -90 93 -90c64 0 115 31 163 77c-6 22 -10 47 -10 75zM418 393
c-18 -28 -33 -63 -43 -101h288c22 120 -17 179 -104 179c-63 0 -108 -29 -141 -78z" />
    <glyph glyph-name="oslash" unicode="&#xf8;" horiz-adv-x="488" 
d="M204 -9c-59 0 -105 19 -136 52l-42 -43h-54l73 76c-16 29 -24 65 -24 107c0 182 102 333 264 333c56 0 102 -18 133 -51l38 40h54l-69 -72c16 -30 26 -67 26 -109c0 -180 -102 -333 -263 -333zM206 36c104 0 176 82 199 204c6 30 9 60 9 85c0 27 -4 49 -11 69l-301 -314
c23 -30 59 -44 104 -44zM74 183c0 -26 3 -48 9 -67l300 313c-23 28 -58 42 -101 42c-104 0 -175 -81 -199 -203c-6 -26 -9 -56 -9 -85z" />
    <glyph glyph-name="questiondown" unicode="&#xbf;" horiz-adv-x="391" 
d="M153 -130c-98 0 -163 52 -163 142c0 85 36 127 133 194c67 47 100 68 110 128l10 59h51l-9 -62c-13 -75 -48 -105 -134 -162c-81 -55 -103 -92 -103 -153c0 -63 42 -98 121 -98c56 0 92 10 144 31l-7 -45c-53 -23 -91 -34 -153 -34zM256 500l14 73h61l-14 -73h-61z" />
    <glyph glyph-name="exclamdown" unicode="&#xa1;" horiz-adv-x="228" 
d="M19 -120l98 513h46l-85 -513h-59zM128 500l13 73h59l-14 -73h-58z" />
    <glyph glyph-name="florin" unicode="&#x192;" horiz-adv-x="353" 
d="M61 408l9 47h90l23 129c21 118 80 164 169 164c37 0 64 -7 78 -14l-8 -41c-16 6 -32 10 -62 10c-68 0 -107 -37 -123 -125l-22 -123h129l-9 -47h-128l-78 -441c-20 -112 -73 -150 -147 -150c-34 0 -59 7 -73 16l7 39c15 -6 31 -10 58 -10c49 0 87 30 101 110l77 436h-91z
" />
    <glyph glyph-name="guillemotleft" unicode="&#xab;" horiz-adv-x="411" 
d="M276 60l-76 181l3 23l141 181h52l-143 -195l73 -190h-50zM120 60l-76 181l3 23l142 181h52l-144 -195l73 -190h-50z" />
    <glyph glyph-name="guillemotright" unicode="&#xbb;" horiz-adv-x="411" 
d="M170 60l144 195l-73 190h49l76 -181l-3 -23l-141 -181h-52zM14 60l144 195l-73 190h50l76 -181l-4 -23l-141 -181h-52z" />
    <glyph glyph-name="ellipsis" unicode="&#x2026;" horiz-adv-x="568" 
d="M398 0l13 73h61l-13 -73h-61zM18 0l14 73h61l-14 -73h-61zM208 0l13 73h61l-13 -73h-61z" />
    <glyph glyph-name="uni00A0" unicode="&#xa0;" horiz-adv-x="188" 
 />
    <glyph glyph-name="Agrave" unicode="&#xc0;" horiz-adv-x="569" 
d="M-36 0l392 693h59l101 -693h-57l-31 220h-285l-123 -220h-56zM369 623l-200 -355h252l-50 355h-2zM363 733l-60 125h58l49 -125h-47z" />
    <glyph glyph-name="Atilde" unicode="&#xc3;" horiz-adv-x="569" 
d="M-36 0l392 693h59l101 -693h-57l-31 220h-285l-123 -220h-56zM369 623l-200 -355h252l-50 355h-2zM257 743c11 56 47 81 86 81c43 0 76 -36 109 -36c21 0 37 12 44 37h38c-10 -56 -47 -82 -84 -82c-43 0 -77 36 -110 36c-22 0 -37 -12 -44 -36h-39z" />
    <glyph glyph-name="Otilde" unicode="&#xd5;" horiz-adv-x="656" 
d="M275 743c11 56 47 81 86 81c43 0 76 -36 109 -36c21 0 37 12 44 37h38c-10 -56 -47 -82 -84 -82c-43 0 -77 36 -110 36c-22 0 -37 -12 -44 -36h-39zM290 -9c-156 0 -247 110 -247 262c0 252 149 449 355 449c155 0 248 -110 248 -262c0 -254 -150 -449 -356 -449zM293 37
c129 0 244 105 280 281c9 44 13 81 13 125c0 114 -56 213 -191 213c-128 0 -243 -101 -280 -281c-8 -43 -12 -81 -12 -125c0 -119 60 -213 190 -213z" />
    <glyph glyph-name="OE" unicode="&#x152;" horiz-adv-x="914" 
d="M321 0c-175 0 -278 84 -278 252c0 236 103 441 386 441h513l-8 -48h-327l-47 -265h252l-9 -48h-251l-50 -284h333l-8 -48h-506zM331 48h115l105 597h-126c-202 0 -283 -117 -313 -277c-7 -42 -10 -80 -10 -116c0 -141 80 -204 229 -204z" />
    <glyph glyph-name="oe" unicode="&#x153;" horiz-adv-x="839" 
d="M204 -9c-117 0 -183 73 -183 193c0 181 101 332 264 332c96 0 152 -50 168 -136c5 10 11 20 17 30c42 64 106 106 189 106c119 0 180 -82 153 -236l-6 -32h-344c-3 -19 -4 -38 -4 -57c0 -107 51 -153 147 -153c65 0 123 22 165 41l-9 -45c-32 -18 -90 -43 -163 -43
c-101 0 -165 49 -182 140c-42 -84 -115 -140 -212 -140zM206 36c103 0 174 83 198 205c5 29 9 60 9 84c0 99 -51 146 -131 146c-103 0 -173 -79 -197 -202c-5 -23 -9 -57 -9 -84c0 -101 50 -149 130 -149zM513 394c-19 -28 -34 -64 -43 -102h288c21 120 -18 179 -105 179
c-62 0 -108 -29 -140 -77z" />
    <glyph glyph-name="endash" unicode="&#x2013;" horiz-adv-x="414" 
d="M30 263l9 44h355l-9 -44h-355z" />
    <glyph glyph-name="emdash" unicode="&#x2014;" horiz-adv-x="680" 
d="M30 263l9 44h621l-8 -44h-622z" />
    <glyph glyph-name="quotedblleft" unicode="&#x201c;" horiz-adv-x="284" 
d="M210 531l54 162h48l-42 -162h-60zM92 531l54 162h48l-42 -162h-60z" />
    <glyph glyph-name="quotedblright" unicode="&#x201d;" horiz-adv-x="284" 
d="M217 531l42 162h59l-53 -162h-48zM99 531l42 162h59l-53 -162h-48z" />
    <glyph glyph-name="quoteleft" unicode="&#x2018;" horiz-adv-x="166" 
d="M92 531l54 162h48l-42 -162h-60z" />
    <glyph glyph-name="quoteright" unicode="&#x2019;" horiz-adv-x="166" 
d="M99 531l42 162h59l-53 -162h-48z" />
    <glyph glyph-name="divide" unicode="&#xf7;" horiz-adv-x="500" 
d="M60 312l9 47h400l-9 -47h-400zM200 142l13 73h61l-13 -73h-61zM255 456l13 73h61l-13 -73h-61z" />
    <glyph glyph-name="ydieresis" unicode="&#xff;" horiz-adv-x="448" 
d="M-4 -198c-25 0 -47 8 -60 15l7 40c14 -6 31 -9 50 -9c52 0 82 29 115 86l45 81l-97 492h58l78 -422h2l230 422h56l-325 -585c-43 -79 -83 -120 -159 -120zM330 616l11 62h54l-11 -62h-54zM188 616l11 62h54l-12 -62h-53z" />
    <glyph glyph-name="Ydieresis" unicode="&#x178;" horiz-adv-x="494" 
d="M175 0l50 287l-141 406h56l122 -357h2l243 357h58l-284 -408l-50 -285h-56zM379 741l11 61h55l-12 -61h-54zM235 741l11 61h54l-11 -61h-54z" />
    <glyph glyph-name="fraction" unicode="&#x2044;" horiz-adv-x="200" 
d="M-210 -39l587 753h46l-586 -753h-47z" />
    <glyph glyph-name="Euro" unicode="&#x20ac;" horiz-adv-x="549" 
d="M45 394l8 45h74c17 55 40 103 68 142c62 84 144 122 244 122c68 0 104 -13 136 -31l-8 -44c-38 16 -71 27 -132 27c-76 0 -144 -26 -195 -100c-22 -31 -39 -71 -53 -116h228l-8 -45h-232c-7 -33 -13 -67 -16 -100h231l-8 -46h-226v-20c0 -143 63 -190 171 -190
c68 0 118 18 163 39l-7 -47c-44 -23 -99 -40 -165 -40c-119 0 -220 58 -220 239v19h-79l8 46h74c3 34 8 68 15 100h-71z" />
    <glyph glyph-name="guilsinglleft" unicode="&#x2039;" horiz-adv-x="256" 
d="M120 60l-76 181l3 23l142 181h52l-144 -195l73 -190h-50z" />
    <glyph glyph-name="guilsinglright" unicode="&#x203a;" horiz-adv-x="256" 
d="M14 60l144 195l-73 190h50l76 -181l-4 -23l-141 -181h-52z" />
    <glyph glyph-name="daggerdbl" unicode="&#x2021;" horiz-adv-x="429" 
d="M10 130l9 48h155l48 268h-156l9 48h156l35 199h50l-34 -199h156l-9 -48h-156l-48 -268h157l-9 -48h-156l-35 -199h-51l35 199h-156z" />
    <glyph glyph-name="periodcentered" unicode="&#xb7;" horiz-adv-x="188" 
d="M66 273l14 73h60l-13 -73h-61z" />
    <glyph glyph-name="quotesinglbase" unicode="&#x201a;" horiz-adv-x="166" 
d="M-8 -69l44 162h59l-55 -162h-48z" />
    <glyph glyph-name="quotedblbase" unicode="&#x201e;" horiz-adv-x="284" 
d="M110 -69l44 162h60l-56 -162h-48zM-8 -69l44 162h59l-55 -162h-48z" />
    <glyph glyph-name="perthousand" unicode="&#x2030;" horiz-adv-x="1107" 
d="M199 369c63 0 104 50 119 131c5 30 7 54 7 77c0 52 -26 87 -79 87c-63 0 -104 -50 -119 -130c-5 -28 -7 -53 -7 -76c0 -56 26 -89 79 -89zM544 30c63 0 104 50 119 131c5 30 7 53 7 76c0 53 -26 88 -79 88c-63 0 -104 -50 -119 -130c-5 -29 -7 -53 -7 -76
c0 -56 26 -89 79 -89zM887 30c63 0 104 50 119 131c5 30 7 53 7 76c0 53 -26 88 -79 88c-63 0 -104 -50 -118 -130c-6 -29 -8 -53 -8 -76c0 -56 27 -89 79 -89zM197 332c-79 0 -126 52 -126 130c0 115 54 240 176 240c79 0 126 -52 126 -130c0 -115 -53 -240 -176 -240z
M77 -39l577 753h49l-577 -753h-49zM542 -7c-79 0 -126 52 -126 130c0 115 54 239 176 239c79 0 126 -51 126 -129c0 -115 -53 -240 -176 -240zM886 -7c-79 0 -126 52 -126 130c0 115 53 239 176 239c79 0 126 -51 126 -129c0 -115 -54 -240 -176 -240z" />
    <glyph glyph-name="Acircumflex" unicode="&#xc2;" horiz-adv-x="569" 
d="M-36 0l392 693h59l101 -693h-57l-31 220h-285l-123 -220h-56zM369 623l-200 -355h252l-50 355h-2zM270 733l116 112h45l75 -112h-44l-58 70l-88 -70h-46z" />
    <glyph glyph-name="Ecircumflex" unicode="&#xca;" horiz-adv-x="509" 
d="M236 733l116 112h45l75 -112h-44l-58 70l-88 -70h-46zM27 0l122 693h388l-8 -48h-332l-47 -265h257l-9 -48h-256l-50 -284h339l-9 -48h-395z" />
    <glyph glyph-name="Aacute" unicode="&#xc1;" horiz-adv-x="569" 
d="M-36 0l392 693h59l101 -693h-57l-31 220h-285l-123 -220h-56zM369 623l-200 -355h252l-50 355h-2zM362 733l81 125h64l-95 -125h-50z" />
    <glyph glyph-name="Edieresis" unicode="&#xcb;" horiz-adv-x="509" 
d="M27 0l122 693h388l-8 -48h-332l-47 -265h257l-9 -48h-256l-50 -284h339l-9 -48h-395zM400 741l11 61h55l-12 -61h-54zM256 741l11 61h54l-11 -61h-54z" />
    <glyph glyph-name="Egrave" unicode="&#xc8;" horiz-adv-x="509" 
d="M331 733l-60 125h58l49 -125h-47zM27 0l122 693h388l-8 -48h-332l-47 -265h257l-9 -48h-256l-50 -284h339l-9 -48h-395z" />
    <glyph glyph-name="Iacute" unicode="&#xcd;" horiz-adv-x="209" 
d="M31 0l123 693h56l-123 -693h-56zM162 733l81 125h64l-95 -125h-50z" />
    <glyph glyph-name="Icircumflex" unicode="&#xce;" horiz-adv-x="209" 
d="M31 0l123 693h56l-123 -693h-56zM70 733l116 112h45l75 -112h-44l-58 70l-88 -70h-46z" />
    <glyph glyph-name="Idieresis" unicode="&#xcf;" horiz-adv-x="209" 
d="M31 0l123 693h56l-123 -693h-56zM235 741l11 61h55l-12 -61h-54zM91 741l11 61h54l-11 -61h-54z" />
    <glyph glyph-name="Igrave" unicode="&#xcc;" horiz-adv-x="209" 
d="M31 0l123 693h56l-123 -693h-56zM165 733l-60 125h58l49 -125h-47z" />
    <glyph glyph-name="Oacute" unicode="&#xd3;" horiz-adv-x="656" 
d="M380 733l81 125h64l-95 -125h-50zM290 -9c-156 0 -247 110 -247 262c0 252 149 449 355 449c155 0 248 -110 248 -262c0 -254 -150 -449 -356 -449zM293 37c129 0 244 105 280 281c9 44 13 81 13 125c0 114 -56 213 -191 213c-128 0 -243 -101 -280 -281
c-8 -43 -12 -81 -12 -125c0 -119 60 -213 190 -213z" />
    <glyph glyph-name="Ocircumflex" unicode="&#xd4;" horiz-adv-x="656" 
d="M290 733l116 112h45l75 -112h-44l-58 70l-88 -70h-46zM290 -9c-156 0 -247 110 -247 262c0 252 149 449 355 449c155 0 248 -110 248 -262c0 -254 -150 -449 -356 -449zM293 37c129 0 244 105 280 281c9 44 13 81 13 125c0 114 -56 213 -191 213
c-128 0 -243 -101 -280 -281c-8 -43 -12 -81 -12 -125c0 -119 60 -213 190 -213z" />
    <glyph glyph-name="Ograve" unicode="&#xd2;" horiz-adv-x="656" 
d="M385 733l-60 125h58l49 -125h-47zM290 -9c-156 0 -247 110 -247 262c0 252 149 449 355 449c155 0 248 -110 248 -262c0 -254 -150 -449 -356 -449zM293 37c129 0 244 105 280 281c9 44 13 81 13 125c0 114 -56 213 -191 213c-128 0 -243 -101 -280 -281
c-8 -43 -12 -81 -12 -125c0 -119 60 -213 190 -213z" />
    <glyph glyph-name="Uacute" unicode="&#xda;" horiz-adv-x="613" 
d="M360 733l81 125h64l-95 -125h-50zM281 -10c-132 0 -222 49 -222 185c0 21 2 43 6 68l79 450h56l-80 -454c-4 -23 -6 -44 -6 -63c0 -105 64 -141 169 -141c117 0 181 54 207 201l81 457h52l-82 -465c-26 -148 -103 -238 -260 -238z" />
    <glyph glyph-name="Ucircumflex" unicode="&#xdb;" horiz-adv-x="613" 
d="M272 733l116 112h45l75 -112h-44l-58 70l-88 -70h-46zM281 -10c-132 0 -222 49 -222 185c0 21 2 43 6 68l79 450h56l-80 -454c-4 -23 -6 -44 -6 -63c0 -105 64 -141 169 -141c117 0 181 54 207 201l81 457h52l-82 -465c-26 -148 -103 -238 -260 -238z" />
    <glyph glyph-name="Ugrave" unicode="&#xd9;" horiz-adv-x="613" 
d="M368 733l-60 125h58l49 -125h-47zM281 -10c-132 0 -222 49 -222 185c0 21 2 43 6 68l79 450h56l-80 -454c-4 -23 -6 -44 -6 -63c0 -105 64 -141 169 -141c117 0 181 54 207 201l81 457h52l-82 -465c-26 -148 -103 -238 -260 -238z" />
    <glyph glyph-name="dotlessi" unicode="&#x131;" horiz-adv-x="183" 
d="M19 0l89 507h54l-88 -507h-55z" />
    <glyph glyph-name="circumflex" unicode="&#x2c6;" 
d="M187 585l117 131h48l74 -131h-44l-59 90l-90 -90h-46z" />
    <glyph glyph-name="tilde" unicode="&#x2dc;" 
d="M176 608c11 58 48 85 86 85c43 0 75 -39 108 -39c21 0 38 13 45 40h38c-11 -58 -48 -85 -85 -85c-43 0 -76 39 -108 39c-22 0 -38 -14 -45 -40h-39z" />
    <glyph glyph-name="macron" unicode="&#xaf;" 
d="M200 631l8 46h229l-8 -46h-229z" />
    <glyph glyph-name="breve" unicode="&#x2d8;" 
d="M310 585c-69 0 -113 47 -107 116h42c-2 -45 21 -75 68 -75c49 0 80 28 94 75h42c-17 -72 -68 -116 -139 -116z" />
    <glyph glyph-name="dotaccent" unicode="&#x2d9;" horiz-adv-x="497" 
d="M284 616l11 62h56l-12 -62h-55z" />
    <glyph glyph-name="ring" unicode="&#x2da;" 
d="M315 581c-50 0 -82 36 -82 79c0 49 38 90 89 90s83 -36 83 -78c0 -52 -39 -91 -90 -91zM316 614c31 0 51 23 51 57c0 25 -16 46 -46 46c-31 0 -51 -24 -51 -57c0 -25 16 -46 46 -46z" />
    <glyph glyph-name="cedilla" unicode="&#xb8;" 
d="M115 -213l6 37c90 7 121 22 121 55c0 24 -25 36 -80 36l14 85h41l-9 -51c51 -3 85 -26 85 -65c0 -57 -51 -90 -178 -97z" />
    <glyph glyph-name="hungarumlaut" unicode="&#x2dd;" 
d="M212 585l75 145h59l-87 -145h-47zM344 585l75 145h59l-87 -145h-47z" />
    <glyph glyph-name="ogonek" unicode="&#x2db;" 
d="M195 -199c-59 0 -86 32 -86 72c0 59 54 100 100 127h51c-44 -30 -100 -73 -100 -121c0 -25 16 -39 46 -39c17 0 29 2 39 5l-6 -35c-11 -5 -28 -9 -44 -9z" />
    <glyph glyph-name="caron" unicode="&#x2c7;" 
d="M280 585l-74 131h43l60 -90l90 90h46l-118 -131h-47z" />
    <glyph glyph-name="space_uni0326" horiz-adv-x="488" 
d="M122 -175l34 133h58l-49 -133h-43z" />
    <glyph glyph-name="caron.alt" horiz-adv-x="489" 
d="M309 588h-39l34 151h55z" />
    <glyph glyph-name="space_uni0326.alt" horiz-adv-x="488" 
d="M362 726l-35 -133h-59l51 133h43z" />
    <glyph glyph-name="acute.pl" 
d="M291 585l75 145h58l-87 -145h-46z" />
    <glyph glyph-name="grave.uc" 
d="M312 733l-60 125h58l49 -125h-47z" />
    <glyph glyph-name="dieresis.uc" horiz-adv-x="497" 
d="M377 741l11 61h55l-12 -61h-54zM233 741l11 61h54l-11 -61h-54z" />
    <glyph glyph-name="macron.uc" 
d="M219 746l8 46h229l-8 -46h-229z" />
    <glyph glyph-name="acute.uc" 
d="M302 733l81 125h64l-95 -125h-50z" />
    <glyph glyph-name="circumflex.uc" 
d="M216 733l116 112h45l75 -112h-44l-58 70l-88 -70h-46z" />
    <glyph glyph-name="caron.uc" 
d="M466 845l-115 -112h-45l-75 112h44l58 -70l88 70h45z" />
    <glyph glyph-name="breve.uc" 
d="M336 733c-67 0 -110 41 -108 106h43c0 -41 24 -65 68 -65c46 0 75 24 91 65h42c-18 -67 -68 -106 -136 -106z" />
    <glyph glyph-name="dotaccent.uc" horiz-adv-x="497" 
d="M304 741l11 62h56l-11 -62h-56z" />
    <glyph glyph-name="ring.uc" 
d="M340 722c-51 0 -83 35 -83 78c0 49 39 90 90 90s83 -36 83 -78c0 -51 -39 -90 -90 -90zM341 755c31 0 51 23 51 57c0 24 -16 45 -46 45c-31 0 -51 -24 -51 -56c0 -26 16 -46 46 -46z" />
    <glyph glyph-name="tilde.uc" 
d="M202 743c11 56 47 81 86 81c43 0 76 -36 109 -36c21 0 37 12 44 37h38c-10 -56 -47 -82 -84 -82c-43 0 -77 36 -110 36c-22 0 -37 -12 -44 -36h-39z" />
    <glyph glyph-name="hungarumlaut.uc" 
d="M233 733l65 125h60l-77 -125h-48zM365 733l65 125h59l-76 -125h-48z" />
    <glyph glyph-name="acute.ucpl" 
d="M315 733l65 125h58l-77 -125h-46z" />
    <glyph glyph-name="Dcroat" unicode="&#x110;" horiz-adv-x="614" 
d="M18 326l9 48h66l56 319h176c175 0 279 -84 279 -252c0 -236 -104 -441 -387 -441h-190l57 326h-66zM91 48h130c202 0 284 117 313 277c7 42 10 80 10 116c0 141 -79 204 -229 204h-119l-48 -271h199l-9 -48h-198z" />
    <glyph glyph-name="Eng" unicode="&#x14a;" horiz-adv-x="623" 
d="M324 -177c-39 0 -66 8 -89 20l7 42c23 -8 51 -15 82 -15c70 0 110 33 124 100l4 27l-262 623h-2l-109 -620h-52l122 693h69l251 -593h2l105 593h51l-127 -720c-15 -88 -67 -150 -176 -150z" />
    <glyph glyph-name="IJ" unicode="&#x132;" horiz-adv-x="542" 
d="M31 0l123 693h56l-123 -693h-56zM279 -6c-50 0 -85 11 -110 26l7 42c25 -11 53 -19 99 -19c81 0 118 47 132 128l91 522h56l-94 -531c-17 -102 -69 -168 -181 -168z" />
    <glyph glyph-name="uni0237" unicode="&#x237;" horiz-adv-x="183" 
d="M-78 -196c-28 0 -56 6 -72 17l6 38c16 -6 33 -10 56 -10c58 0 87 28 98 91l100 567h54l-100 -573c-16 -85 -61 -130 -142 -130z" />
    <glyph glyph-name="dcroat" unicode="&#x111;" horiz-adv-x="489" 
d="M280 596l7 39h150l18 104h55l-18 -104h70l-7 -39h-70l-105 -596h-45l5 65h-3c-36 -38 -91 -73 -165 -73c-92 0 -152 59 -152 168c0 192 109 356 272 356c61 0 94 -17 119 -34l19 114h-150zM188 36c67 0 118 34 156 69l59 333c-27 18 -64 31 -107 31
c-113 0 -186 -84 -214 -223c-5 -26 -7 -56 -7 -80c0 -88 37 -130 113 -130z" />
    <glyph glyph-name="eng" unicode="&#x14b;" horiz-adv-x="499" 
d="M17 0l90 507h52l-11 -62h3c61 43 128 71 194 71c88 0 117 -48 117 -109c0 -13 -2 -27 -4 -40l-76 -433c-15 -85 -61 -130 -142 -130c-27 0 -55 6 -71 17l6 38c16 -6 32 -10 56 -10c57 0 86 28 97 91l74 420c3 14 4 27 4 38c0 45 -21 71 -82 71c-58 0 -119 -23 -180 -61
l-73 -408h-54z" />
    <glyph glyph-name="ij" unicode="&#x133;" horiz-adv-x="365" 
d="M19 0l89 507h54l-89 -507h-54zM126 616l12 62h55l-11 -62h-56zM103 -196c-28 0 -55 6 -71 17l6 38c16 -6 32 -10 56 -10c57 0 86 28 97 91l100 567h54l-100 -571c-15 -86 -61 -132 -142 -132zM309 616l12 62h54l-11 -62h-55z" />
    <glyph glyph-name="Abreve" unicode="&#x102;" horiz-adv-x="569" 
d="M-36 0l392 693h59l101 -693h-57l-31 220h-285l-123 -220h-56zM369 623l-200 -355h252l-50 355h-2zM390 733c-67 0 -110 41 -108 106h43c0 -41 24 -65 68 -65c46 0 75 24 91 65h42c-18 -67 -68 -106 -136 -106z" />
    <glyph glyph-name="Amacron" unicode="&#x100;" horiz-adv-x="569" 
d="M-36 0l392 693h59l101 -693h-57l-31 220h-285l-123 -220h-56zM369 623l-200 -355h252l-50 355h-2zM278 746l8 46h229l-8 -46h-229z" />
    <glyph glyph-name="Aogonek" unicode="&#x104;" horiz-adv-x="569" 
d="M451 -199c-59 0 -86 32 -86 72c0 55 51 98 94 126l-31 221h-285l-123 -220h-56l392 693h59l101 -692c-48 -30 -100 -74 -100 -121c0 -26 16 -40 45 -40c18 0 30 2 39 5l-6 -35c-10 -5 -27 -9 -43 -9zM369 623l-200 -355h252l-50 355h-2z" />
    <glyph glyph-name="Aringacute" unicode="&#x1fa;" horiz-adv-x="569" 
d="M-36 0l392 693h59l101 -693h-57l-31 220h-285l-123 -220h-56zM369 623l-200 -355h252l-50 355h-2zM383 911l81 125h64l-95 -125h-50zM390 722c-51 0 -83 35 -83 78c0 49 39 90 90 90s83 -36 83 -78c0 -51 -39 -90 -90 -90zM391 755c31 0 51 23 51 57c0 24 -16 45 -46 45
c-31 0 -51 -24 -51 -56c0 -26 16 -46 46 -46z" />
    <glyph glyph-name="AEacute" unicode="&#x1fc;" horiz-adv-x="860" 
d="M641 733l81 125h64l-95 -125h-50zM-43 0l514 693h417l-8 -48h-328l-47 -265h254l-8 -48h-254l-50 -284h334l-8 -48h-389l37 208h-250l-154 -208h-60zM206 257h223l69 389h-4z" />
    <glyph glyph-name="Cacute" unicode="&#x106;" horiz-adv-x="558" 
d="M293 -10c-166 0 -249 109 -249 268c0 102 27 199 70 273c65 113 162 172 295 172c85 0 129 -19 165 -44l-8 -46c-35 22 -84 42 -162 42c-103 0 -188 -49 -242 -149c-36 -68 -59 -150 -59 -249c0 -142 67 -219 197 -219c85 0 146 24 188 47l-7 -49
c-39 -24 -108 -46 -188 -46zM369 733l81 125h64l-95 -125h-50z" />
    <glyph glyph-name="Ccaron" unicode="&#x10c;" horiz-adv-x="558" 
d="M534 845l-115 -112h-45l-75 112h44l58 -70l88 70h45zM293 -10c-166 0 -249 109 -249 268c0 102 27 199 70 273c65 113 162 172 295 172c85 0 129 -19 165 -44l-8 -46c-35 22 -84 42 -162 42c-103 0 -188 -49 -242 -149c-36 -68 -59 -150 -59 -249
c0 -142 67 -219 197 -219c85 0 146 24 188 47l-7 -49c-39 -24 -108 -46 -188 -46z" />
    <glyph glyph-name="Ccircumflex" unicode="&#x108;" horiz-adv-x="558" 
d="M276 733l116 112h45l75 -112h-44l-58 70l-88 -70h-46zM293 -10c-166 0 -249 109 -249 268c0 102 27 199 70 273c65 113 162 172 295 172c85 0 129 -19 165 -44l-8 -46c-35 22 -84 42 -162 42c-103 0 -188 -49 -242 -149c-36 -68 -59 -150 -59 -249
c0 -142 67 -219 197 -219c85 0 146 24 188 47l-7 -49c-39 -24 -108 -46 -188 -46z" />
    <glyph glyph-name="Cdotaccent" unicode="&#x10a;" horiz-adv-x="558" 
d="M293 -10c-166 0 -249 109 -249 268c0 102 27 199 70 273c65 113 162 172 295 172c85 0 129 -19 165 -44l-8 -46c-35 22 -84 42 -162 42c-103 0 -188 -49 -242 -149c-36 -68 -59 -150 -59 -249c0 -142 67 -219 197 -219c85 0 146 24 188 47l-7 -49
c-39 -24 -108 -46 -188 -46zM370 741l11 62h56l-11 -62h-56z" />
    <glyph glyph-name="Cacute.pl" horiz-adv-x="558" 
d="M293 -10c-166 0 -249 109 -249 268c0 102 27 199 70 273c65 113 162 172 295 172c85 0 129 -19 165 -44l-8 -46c-35 22 -84 42 -162 42c-103 0 -188 -49 -242 -149c-36 -68 -59 -150 -59 -249c0 -142 67 -219 197 -219c85 0 146 24 188 47l-7 -49
c-39 -24 -108 -46 -188 -46zM369 733l65 125h58l-77 -125h-46z" />
    <glyph glyph-name="Dcaron" unicode="&#x10e;" horiz-adv-x="614" 
d="M501 845l-115 -112h-45l-75 112h44l58 -70l88 70h45zM27 0l122 693h177c174 0 278 -84 278 -252c0 -236 -103 -441 -386 -441h-191zM92 48h130c202 0 283 117 313 277c7 42 10 80 10 116c0 141 -80 204 -229 204h-119z" />
    <glyph glyph-name="Ebreve" unicode="&#x114;" horiz-adv-x="509" 
d="M27 0l122 693h388l-8 -48h-332l-47 -265h257l-9 -48h-256l-50 -284h339l-9 -48h-395zM355 733c-67 0 -110 41 -108 106h43c0 -41 24 -65 68 -65c46 0 75 24 91 65h42c-18 -67 -68 -106 -136 -106z" />
    <glyph glyph-name="Ecaron" unicode="&#x11a;" horiz-adv-x="509" 
d="M490 845l-115 -112h-45l-75 112h44l58 -70l88 70h45zM27 0l122 693h388l-8 -48h-332l-47 -265h257l-9 -48h-256l-50 -284h339l-9 -48h-395z" />
    <glyph glyph-name="Edotaccent" unicode="&#x116;" horiz-adv-x="509" 
d="M326 741l11 62h56l-11 -62h-56zM27 0l122 693h388l-8 -48h-332l-47 -265h257l-9 -48h-256l-50 -284h339l-9 -48h-395z" />
    <glyph glyph-name="Emacron" unicode="&#x112;" horiz-adv-x="509" 
d="M27 0l122 693h388l-8 -48h-332l-47 -265h257l-9 -48h-256l-50 -284h339l-9 -48h-395zM242 746l8 46h229l-8 -46h-229z" />
    <glyph glyph-name="Eogonek" unicode="&#x118;" horiz-adv-x="509" 
d="M27 0l122 693h388l-8 -48h-332l-47 -265h257l-9 -48h-256l-50 -284h339l-9 -48h-47c-44 -30 -100 -73 -100 -121c0 -25 16 -39 46 -39c17 0 29 2 39 5l-6 -35c-11 -5 -28 -9 -44 -9c-59 0 -85 32 -85 72c0 56 51 99 95 127h-293z" />
    <glyph glyph-name="Gbreve" unicode="&#x11e;" horiz-adv-x="604" 
d="M411 733c-67 0 -110 41 -108 106h43c0 -41 24 -65 68 -65c46 0 75 24 91 65h42c-18 -67 -68 -106 -136 -106zM311 -10c-178 0 -266 111 -266 266c0 106 27 204 69 273c70 119 174 174 305 174c84 0 136 -21 169 -44l-8 -47c-33 21 -89 43 -165 43
c-119 0 -209 -56 -263 -176c-32 -66 -48 -138 -48 -224c0 -117 53 -218 212 -218c54 0 97 7 138 20l39 218h-151l7 47h209l-52 -298c-59 -20 -118 -34 -195 -34z" />
    <glyph glyph-name="Gcircumflex" unicode="&#x11c;" horiz-adv-x="604" 
d="M292 733l116 112h45l75 -112h-44l-58 70l-88 -70h-46zM311 -10c-178 0 -266 111 -266 266c0 106 27 204 69 273c70 119 174 174 305 174c84 0 136 -21 169 -44l-8 -47c-33 21 -89 43 -165 43c-119 0 -209 -56 -263 -176c-32 -66 -48 -138 -48 -224
c0 -117 53 -218 212 -218c54 0 97 7 138 20l39 218h-151l7 47h209l-52 -298c-59 -20 -118 -34 -195 -34z" />
    <glyph glyph-name="Gcommaaccent" unicode="&#x122;" horiz-adv-x="604" 
d="M214 -175l34 133h58l-49 -133h-43zM311 -10c-178 0 -266 111 -266 266c0 106 27 204 69 273c70 119 174 174 305 174c84 0 136 -21 169 -44l-8 -47c-33 21 -89 43 -165 43c-119 0 -209 -56 -263 -176c-32 -66 -48 -138 -48 -224c0 -117 53 -218 212 -218
c54 0 97 7 138 20l39 218h-151l7 47h209l-52 -298c-59 -20 -118 -34 -195 -34z" />
    <glyph glyph-name="Gdotaccent" unicode="&#x120;" horiz-adv-x="604" 
d="M386 741l11 62h56l-11 -62h-56zM311 -10c-178 0 -266 111 -266 266c0 106 27 204 69 273c70 119 174 174 305 174c84 0 136 -21 169 -44l-8 -47c-33 21 -89 43 -165 43c-119 0 -209 -56 -263 -176c-32 -66 -48 -138 -48 -224c0 -117 53 -218 212 -218c54 0 97 7 138 20
l39 218h-151l7 47h209l-52 -298c-59 -20 -118 -34 -195 -34z" />
    <glyph glyph-name="Hbar" unicode="&#x126;" horiz-adv-x="634" 
d="M57 501l6 42h62l27 150h55l-26 -150h372l27 150h56l-27 -150h60l-7 -42h-60l-88 -501h-56l59 336h-373l-59 -336h-56l89 501h-61zM153 384h372l21 117h-373z" />
    <glyph glyph-name="Hcircumflex" unicode="&#x124;" horiz-adv-x="622" 
d="M27 0l123 693h56l-55 -309h365l55 309h56l-123 -693h-56l60 336h-365l-59 -336h-57zM275 733l116 112h45l75 -112h-44l-58 70l-88 -70h-46z" />
    <glyph glyph-name="Idotaccent" unicode="&#x130;" horiz-adv-x="209" 
d="M31 0l123 693h56l-123 -693h-56zM163 741l11 62h56l-11 -62h-56z" />
    <glyph glyph-name="Ibreve" unicode="&#x12c;" horiz-adv-x="209" 
d="M31 0l123 693h56l-123 -693h-56zM190 733c-67 0 -110 41 -108 106h43c0 -41 24 -65 68 -65c46 0 75 24 91 65h42c-18 -67 -68 -106 -136 -106z" />
    <glyph glyph-name="Imacron" unicode="&#x12a;" horiz-adv-x="209" 
d="M31 0l123 693h56l-123 -693h-56zM102 746l8 46h175l-8 -46h-175z" />
    <glyph glyph-name="Iogonek" unicode="&#x12e;" horiz-adv-x="209" 
d="M24 -199c-57 0 -84 31 -84 72c0 55 50 97 91 126l123 694h56l-123 -693c-41 -31 -96 -74 -96 -122c0 -25 16 -38 44 -38c17 0 28 2 38 5l-6 -35c-11 -5 -27 -9 -43 -9z" />
    <glyph glyph-name="Itilde" unicode="&#x128;" horiz-adv-x="209" 
d="M31 0l123 693h56l-123 -693h-56zM59 743c11 56 47 81 86 81c43 0 76 -36 109 -36c21 0 37 12 44 37h38c-10 -56 -47 -82 -84 -82c-43 0 -77 36 -110 36c-22 0 -37 -12 -44 -36h-39z" />
    <glyph glyph-name="Jcircumflex" unicode="&#x134;" horiz-adv-x="350" 
d="M220 733l116 112h45l75 -112h-44l-58 70l-88 -70h-46zM87 -6c-51 0 -87 11 -112 26l7 42c25 -10 54 -19 101 -19c81 0 118 47 132 128l91 522h56l-93 -531c-18 -102 -68 -168 -182 -168z" />
    <glyph glyph-name="Kcommaaccent" unicode="&#x136;" horiz-adv-x="531" 
d="M170 -175l34 133h58l-49 -133h-43zM406 0l-220 352l325 341h68l-331 -342l220 -351h-62zM27 0l123 693h56l-122 -693h-57z" />
    <glyph glyph-name="Lacute" unicode="&#x139;" horiz-adv-x="469" 
d="M157 733l81 125h64l-95 -125h-50zM27 0l122 693h57l-114 -645h320l-9 -48h-376z" />
    <glyph glyph-name="Lcaron" unicode="&#x13d;" horiz-adv-x="480" 
d="M27 0l122 693h57l-114 -645h327l-8 -48h-384zM330 524l41 169h54l-55 -169h-40z" />
    <glyph glyph-name="Lcommaaccent" unicode="&#x13b;" horiz-adv-x="469" 
d="M147 -175l34 133h58l-49 -133h-43zM27 0l122 693h57l-114 -645h320l-9 -48h-376z" />
    <glyph glyph-name="Ldot" unicode="&#x13f;" horiz-adv-x="469" 
d="M27 0l122 693h57l-114 -645h320l-9 -48h-376zM357 330l14 73h60l-13 -73h-61z" />
    <glyph glyph-name="Nacute" unicode="&#x143;" horiz-adv-x="623" 
d="M378 733l81 125h64l-95 -125h-50zM27 0l122 693h69l250 -602h2l106 602h51l-122 -693h-59l-256 620h-2l-109 -620h-52z" />
    <glyph glyph-name="Ncaron" unicode="&#x147;" horiz-adv-x="623" 
d="M543 845l-115 -112h-45l-75 112h44l58 -70l88 70h45zM27 0l122 693h69l250 -602h2l106 602h51l-122 -693h-59l-256 620h-2l-109 -620h-52z" />
    <glyph glyph-name="Ncommaaccent" unicode="&#x145;" horiz-adv-x="623" 
d="M200 -175l34 133h58l-49 -133h-43zM27 0l122 693h69l250 -602h2l106 602h51l-122 -693h-59l-256 620h-2l-109 -620h-52z" />
    <glyph glyph-name="Nacute.pl" horiz-adv-x="623" 
d="M378 733l65 125h58l-77 -125h-46zM27 0l122 693h69l250 -602h2l106 602h51l-122 -693h-59l-256 620h-2l-109 -620h-52z" />
    <glyph glyph-name="Obreve" unicode="&#x14e;" horiz-adv-x="656" 
d="M413 733c-67 0 -110 41 -108 106h43c0 -41 24 -65 68 -65c46 0 75 24 91 65h42c-18 -67 -68 -106 -136 -106zM290 -9c-156 0 -247 110 -247 262c0 252 149 449 355 449c155 0 248 -110 248 -262c0 -254 -150 -449 -356 -449zM293 37c129 0 244 105 280 281
c9 44 13 81 13 125c0 114 -56 213 -191 213c-128 0 -243 -101 -280 -281c-8 -43 -12 -81 -12 -125c0 -119 60 -213 190 -213z" />
    <glyph glyph-name="Ohungarumlaut" unicode="&#x150;" horiz-adv-x="656" 
d="M314 733l65 125h60l-77 -125h-48zM446 733l65 125h59l-76 -125h-48zM290 -9c-156 0 -247 110 -247 262c0 252 149 449 355 449c155 0 248 -110 248 -262c0 -254 -150 -449 -356 -449zM293 37c129 0 244 105 280 281c9 44 13 81 13 125c0 114 -56 213 -191 213
c-128 0 -243 -101 -280 -281c-8 -43 -12 -81 -12 -125c0 -119 60 -213 190 -213z" />
    <glyph glyph-name="Omacron" unicode="&#x14c;" horiz-adv-x="656" 
d="M296 746l8 46h229l-8 -46h-229zM290 -9c-156 0 -247 110 -247 262c0 252 149 449 355 449c155 0 248 -110 248 -262c0 -254 -150 -449 -356 -449zM293 37c129 0 244 105 280 281c9 44 13 81 13 125c0 114 -56 213 -191 213c-128 0 -243 -101 -280 -281
c-8 -43 -12 -81 -12 -125c0 -119 60 -213 190 -213z" />
    <glyph glyph-name="Oacute.pl" horiz-adv-x="656" 
d="M383 733l65 125h58l-77 -125h-46zM290 -9c-156 0 -247 110 -247 262c0 252 149 449 355 449c155 0 248 -110 248 -262c0 -254 -150 -449 -356 -449zM293 37c129 0 244 105 280 281c9 44 13 81 13 125c0 114 -56 213 -191 213c-128 0 -243 -101 -280 -281
c-8 -43 -12 -81 -12 -125c0 -119 60 -213 190 -213z" />
    <glyph glyph-name="Oslashacute" unicode="&#x1fe;" horiz-adv-x="656" 
d="M290 -9c-78 0 -140 28 -182 75l-59 -66h-58l91 101c-26 42 -39 94 -39 152c0 252 149 449 355 449c71 0 130 -25 172 -65l51 56h56l-80 -88c32 -45 49 -102 49 -165c0 -254 -150 -449 -356 -449zM293 37c129 0 245 105 280 281c10 44 14 81 14 125s-9 86 -27 121
l-417 -460c31 -42 80 -67 150 -67zM102 250c0 -39 6 -75 19 -107l415 456c-31 35 -77 57 -141 57c-128 0 -244 -101 -280 -281c-9 -43 -13 -81 -13 -125zM380 733l81 125h64l-95 -125h-50z" />
    <glyph glyph-name="Racute" unicode="&#x154;" horiz-adv-x="537" 
d="M302 733l81 125h64l-95 -125h-50zM27 0l123 693h181c126 0 191 -70 191 -166c0 -112 -67 -188 -185 -208v-4l137 -315h-60l-133 308h-143l-55 -308h-56zM146 354h129c127 0 187 69 187 169c0 75 -44 122 -139 122h-126z" />
    <glyph glyph-name="Rcaron" unicode="&#x158;" horiz-adv-x="537" 
d="M469 845l-115 -112h-45l-75 112h44l58 -70l88 70h45zM27 0l123 693h181c126 0 191 -70 191 -166c0 -112 -67 -188 -185 -208v-4l137 -315h-60l-133 308h-143l-55 -308h-56zM146 354h129c127 0 187 69 187 169c0 75 -44 122 -139 122h-126z" />
    <glyph glyph-name="Rcommaaccent" unicode="&#x156;" horiz-adv-x="537" 
d="M169 -175l34 133h58l-49 -133h-43zM27 0l123 693h181c126 0 191 -70 191 -166c0 -112 -67 -188 -185 -208v-4l137 -315h-60l-133 308h-143l-55 -308h-56zM146 354h129c127 0 187 69 187 169c0 75 -44 122 -139 122h-126z" />
    <glyph glyph-name="Sacute" unicode="&#x15a;" horiz-adv-x="471" 
d="M187 -10c-102 0 -159 30 -199 55l8 49c46 -29 103 -55 195 -55c119 0 172 61 172 160c0 61 -35 93 -102 125l-52 24c-86 40 -124 86 -124 167c0 113 79 187 216 187c95 0 133 -24 167 -45l-8 -47c-35 20 -79 45 -164 45c-99 0 -156 -47 -156 -139c0 -56 22 -86 97 -122
l52 -24c81 -37 130 -80 130 -169c0 -111 -64 -211 -232 -211zM282 733l81 125h64l-95 -125h-50z" />
    <glyph glyph-name="Scedilla" unicode="&#x15e;" horiz-adv-x="471" 
d="M77 -213l6 37c90 7 121 22 121 55c0 24 -25 36 -80 36l13 78c-72 7 -116 31 -149 52l8 49c46 -29 103 -55 195 -55c119 0 172 61 172 160c0 61 -35 93 -102 125l-52 24c-86 40 -124 86 -124 167c0 113 79 187 216 187c95 0 133 -24 167 -45l-8 -47c-35 20 -79 45 -164 45
c-99 0 -156 -47 -156 -139c0 -56 22 -86 97 -122l52 -24c81 -37 130 -80 130 -169c0 -111 -64 -211 -232 -211h-10l-7 -41c51 -3 85 -26 85 -65c0 -57 -51 -90 -178 -97z" />
    <glyph glyph-name="Scircumflex" unicode="&#x15c;" horiz-adv-x="471" 
d="M189 733l116 112h45l75 -112h-44l-58 70l-88 -70h-46zM187 -10c-102 0 -159 30 -199 55l8 49c46 -29 103 -55 195 -55c119 0 172 61 172 160c0 61 -35 93 -102 125l-52 24c-86 40 -124 86 -124 167c0 113 79 187 216 187c95 0 133 -24 167 -45l-8 -47
c-35 20 -79 45 -164 45c-99 0 -156 -47 -156 -139c0 -56 22 -86 97 -122l52 -24c81 -37 130 -80 130 -169c0 -111 -64 -211 -232 -211z" />
    <glyph glyph-name="Scommaaccent" unicode="&#x218;" horiz-adv-x="471" 
d="M111 -175l34 133h58l-49 -133h-43zM187 -10c-102 0 -159 30 -199 55l8 49c46 -29 103 -55 195 -55c119 0 172 61 172 160c0 61 -35 93 -102 125l-52 24c-86 40 -124 86 -124 167c0 113 79 187 216 187c95 0 133 -24 167 -45l-8 -47c-35 20 -79 45 -164 45
c-99 0 -156 -47 -156 -139c0 -56 22 -86 97 -122l52 -24c81 -37 130 -80 130 -169c0 -111 -64 -211 -232 -211z" />
    <glyph glyph-name="Sacute.pl" horiz-adv-x="471" 
d="M187 -10c-102 0 -159 30 -199 55l8 49c46 -29 103 -55 195 -55c119 0 172 61 172 160c0 61 -35 93 -102 125l-52 24c-86 40 -124 86 -124 167c0 113 79 187 216 187c95 0 133 -24 167 -45l-8 -47c-35 20 -79 45 -164 45c-99 0 -156 -47 -156 -139c0 -56 22 -86 97 -122
l52 -24c81 -37 130 -80 130 -169c0 -111 -64 -211 -232 -211zM282 733l65 125h58l-77 -125h-46z" />
    <glyph glyph-name="Tcaron" unicode="&#x164;" horiz-adv-x="513" 
d="M478 845l-115 -112h-45l-75 112h44l58 -70l88 70h45zM183 0l114 645h-214l8 48h485l-8 -48h-215l-114 -645h-56z" />
    <glyph glyph-name="Tcommaaccent" unicode="&#x162;" horiz-adv-x="513" 
d="M142 -175l34 133h58l-49 -133h-43zM183 0l114 645h-214l8 48h485l-8 -48h-215l-114 -645h-56z" />
    <glyph glyph-name="Tbar" unicode="&#x166;" horiz-adv-x="527" 
d="M109 394l7 41h144l37 210h-214l8 48h485l-8 -48h-215l-37 -210h152l-8 -41h-152l-69 -394h-56l69 394h-143z" />
    <glyph glyph-name="Ubreve" unicode="&#x16c;" horiz-adv-x="613" 
d="M281 -10c-132 0 -222 49 -222 185c0 21 2 43 6 68l79 450h56l-80 -454c-4 -23 -6 -44 -6 -63c0 -105 64 -141 169 -141c117 0 181 54 207 201l81 457h52l-82 -465c-26 -148 -103 -238 -260 -238zM393 733c-67 0 -110 41 -108 106h43c0 -41 24 -65 68 -65
c46 0 75 24 91 65h42c-18 -67 -68 -106 -136 -106z" />
    <glyph glyph-name="Uhungarumlaut" unicode="&#x170;" horiz-adv-x="613" 
d="M293 733l65 125h60l-77 -125h-48zM425 733l65 125h59l-76 -125h-48zM281 -10c-132 0 -222 49 -222 185c0 21 2 43 6 68l79 450h56l-80 -454c-4 -23 -6 -44 -6 -63c0 -105 64 -141 169 -141c117 0 181 54 207 201l81 457h52l-82 -465c-26 -148 -103 -238 -260 -238z" />
    <glyph glyph-name="Umacron" unicode="&#x16a;" horiz-adv-x="613" 
d="M281 -10c-132 0 -222 49 -222 185c0 21 2 43 6 68l79 450h56l-80 -454c-4 -23 -6 -44 -6 -63c0 -105 64 -141 169 -141c117 0 181 54 207 201l81 457h52l-82 -465c-26 -148 -103 -238 -260 -238zM276 746l8 46h229l-8 -46h-229z" />
    <glyph glyph-name="Uogonek" unicode="&#x172;" horiz-adv-x="613" 
d="M268 -199c-59 0 -85 32 -85 72c0 53 43 93 89 118c-129 3 -213 53 -213 184c0 21 2 43 6 68l79 450h56l-80 -454c-4 -23 -6 -44 -6 -63c0 -105 64 -141 169 -141c117 0 181 54 207 201l81 457h52l-82 -465c-27 -150 -99 -198 -173 -227c-71 -27 -135 -69 -135 -122
c0 -25 16 -39 46 -39c17 0 29 2 39 5l-6 -35c-11 -5 -28 -9 -44 -9z" />
    <glyph glyph-name="Uring" unicode="&#x16e;" horiz-adv-x="613" 
d="M281 -10c-132 0 -222 49 -222 185c0 21 2 43 6 68l79 450h56l-80 -454c-4 -23 -6 -44 -6 -63c0 -105 64 -141 169 -141c117 0 181 54 207 201l81 457h52l-82 -465c-26 -148 -103 -238 -260 -238zM394 700c-51 0 -83 35 -83 78c0 49 39 90 90 90s83 -36 83 -78
c0 -51 -39 -90 -90 -90zM395 733c31 0 51 23 51 57c0 24 -16 45 -46 45c-31 0 -51 -24 -51 -56c0 -26 16 -46 46 -46z" />
    <glyph glyph-name="Utilde" unicode="&#x168;" horiz-adv-x="613" 
d="M281 -10c-132 0 -222 49 -222 185c0 21 2 43 6 68l79 450h56l-80 -454c-4 -23 -6 -44 -6 -63c0 -105 64 -141 169 -141c117 0 181 54 207 201l81 457h52l-82 -465c-26 -148 -103 -238 -260 -238zM263 743c11 56 47 81 86 81c43 0 76 -36 109 -36c21 0 37 12 44 37h38
c-10 -56 -47 -82 -84 -82c-43 0 -77 36 -110 36c-22 0 -37 -12 -44 -36h-39z" />
    <glyph glyph-name="Wacute" unicode="&#x1e82;" horiz-adv-x="817" 
d="M463 733l81 125h64l-95 -125h-50zM135 0l-43 693h56l34 -608h1l276 608h53l61 -608h1l250 608h55l-292 -693h-61l-57 602h-3l-273 -602h-58z" />
    <glyph glyph-name="Wcircumflex" unicode="&#x174;" horiz-adv-x="817" 
d="M370 733l116 112h45l75 -112h-44l-58 70l-88 -70h-46zM135 0l-43 693h56l34 -608h1l276 608h53l61 -608h1l250 608h55l-292 -693h-61l-57 602h-3l-273 -602h-58z" />
    <glyph glyph-name="Wdieresis" unicode="&#x1e84;" horiz-adv-x="817" 
d="M536 741l11 61h55l-12 -61h-54zM392 741l11 61h54l-11 -61h-54zM135 0l-43 693h56l34 -608h1l276 608h53l61 -608h1l250 608h55l-292 -693h-61l-57 602h-3l-273 -602h-58z" />
    <glyph glyph-name="Wgrave" unicode="&#x1e80;" horiz-adv-x="817" 
d="M465 733l-60 125h58l49 -125h-47zM135 0l-43 693h56l34 -608h1l276 608h53l61 -608h1l250 608h55l-292 -693h-61l-57 602h-3l-273 -602h-58z" />
    <glyph glyph-name="Ycircumflex" unicode="&#x176;" horiz-adv-x="494" 
d="M175 0l50 287l-141 406h56l122 -357h2l243 357h58l-284 -408l-50 -285h-56zM215 733l116 112h45l75 -112h-44l-58 70l-88 -70h-46z" />
    <glyph glyph-name="Ygrave" unicode="&#x1ef2;" horiz-adv-x="494" 
d="M175 0l50 287l-141 406h56l122 -357h2l243 357h58l-284 -408l-50 -285h-56zM310 733l-60 125h58l49 -125h-47z" />
    <glyph glyph-name="Zacute" unicode="&#x179;" horiz-adv-x="513" 
d="M320 733l81 125h64l-95 -125h-50zM-16 0l8 43l486 600v2h-361l8 48h430l-8 -42l-487 -601v-2h385l-9 -48h-452z" />
    <glyph glyph-name="Zdotaccent" unicode="&#x17b;" horiz-adv-x="513" 
d="M-16 0l8 43l486 600v2h-361l8 48h430l-8 -42l-487 -601v-2h385l-9 -48h-452zM321 741l11 62h56l-11 -62h-56z" />
    <glyph glyph-name="Zacute.pl" horiz-adv-x="513" 
d="M-16 0l8 43l486 600v2h-361l8 48h430l-8 -42l-487 -601v-2h385l-9 -48h-452zM319 733l65 125h58l-77 -125h-46z" />
    <glyph glyph-name="abreve" unicode="&#x103;" horiz-adv-x="479" 
d="M171 -9c-93 0 -151 60 -151 165c0 218 145 360 306 360c62 0 106 -13 131 -23l-86 -493h-44l5 63h-3c-31 -32 -87 -72 -158 -72zM182 36c62 0 120 35 153 68l63 353c-20 9 -39 15 -77 15c-106 0 -195 -79 -231 -202c-10 -34 -15 -69 -15 -113c0 -83 41 -121 107 -121z
M322 585c-69 0 -113 47 -107 116h42c-2 -45 21 -75 68 -75c49 0 80 28 94 75h42c-17 -72 -68 -116 -139 -116z" />
    <glyph glyph-name="amacron" unicode="&#x101;" horiz-adv-x="479" 
d="M171 -9c-93 0 -151 60 -151 165c0 218 145 360 306 360c62 0 106 -13 131 -23l-86 -493h-44l5 63h-3c-31 -32 -87 -72 -158 -72zM182 36c62 0 120 35 153 68l63 353c-20 9 -39 15 -77 15c-106 0 -195 -79 -231 -202c-10 -34 -15 -69 -15 -113c0 -83 41 -121 107 -121z
M211 631l8 46h229l-8 -46h-229z" />
    <glyph glyph-name="aogonek" unicode="&#x105;" horiz-adv-x="479" 
d="M308 -199c-59 0 -85 32 -85 72c0 58 56 105 104 132l5 58h-3c-31 -32 -87 -72 -158 -72c-93 0 -151 60 -151 165c0 218 145 360 306 360c62 0 106 -13 131 -23l-86 -493c-42 -30 -97 -73 -97 -121c0 -25 16 -39 45 -39c17 0 30 2 39 5l-6 -35c-10 -5 -28 -9 -44 -9z
M182 36c62 0 120 35 153 68l63 353c-20 9 -39 15 -77 15c-106 0 -195 -79 -231 -202c-10 -34 -15 -69 -15 -113c0 -83 41 -121 107 -121z" />
    <glyph glyph-name="aringacute" unicode="&#x1fb;" horiz-adv-x="479" 
d="M171 -9c-93 0 -151 60 -151 165c0 218 145 360 306 360c62 0 106 -13 131 -23l-86 -493h-44l5 63h-3c-31 -32 -87 -72 -158 -72zM182 36c62 0 120 35 153 68l63 353c-20 9 -39 15 -77 15c-106 0 -195 -79 -231 -202c-10 -34 -15 -69 -15 -113c0 -83 41 -121 107 -121z
M329 581c-50 0 -82 36 -82 79c0 49 38 90 89 90s83 -36 83 -78c0 -52 -39 -91 -90 -91zM330 614c31 0 51 23 51 57c0 25 -16 46 -46 46c-31 0 -51 -24 -51 -57c0 -25 16 -46 46 -46zM321 789l81 125h64l-95 -125h-50z" />
    <glyph glyph-name="aeacute" unicode="&#x1fd;" horiz-adv-x="743" 
d="M142 -9c-87 0 -136 52 -136 128c0 95 61 143 175 156l139 16l11 57c15 81 -17 121 -106 121c-50 0 -90 -8 -128 -20l8 40c41 17 84 27 138 27c84 0 131 -35 139 -99c41 60 101 99 183 99c117 0 180 -82 153 -236l-6 -32h-345c-3 -19 -4 -38 -4 -58
c0 -106 51 -152 147 -152c65 0 124 21 165 40l-8 -44c-33 -18 -90 -43 -164 -43c-81 0 -140 31 -171 89c-48 -50 -108 -89 -190 -89zM309 186c0 22 0 43 3 63l-123 -13c-87 -10 -126 -40 -126 -112c0 -55 28 -90 93 -90c64 0 115 31 163 77c-6 22 -10 47 -10 75zM418 393
c-18 -28 -33 -63 -43 -101h288c22 120 -17 179 -104 179c-63 0 -108 -29 -141 -78zM410 585l94 145h64l-108 -145h-50z" />
    <glyph glyph-name="cacute" unicode="&#x107;" horiz-adv-x="406" 
d="M261 585l94 145h64l-108 -145h-50zM207 -9c-120 0 -185 74 -185 196c0 81 24 162 65 219c50 70 121 110 208 110c58 0 92 -13 118 -28l-9 -45c-25 13 -57 27 -111 27c-64 0 -120 -27 -160 -85c-36 -50 -57 -118 -57 -195c0 -102 50 -153 140 -153c65 0 111 23 142 41
l-9 -46c-36 -23 -81 -41 -142 -41z" />
    <glyph glyph-name="ccaron" unicode="&#x10d;" horiz-adv-x="406" 
d="M262 585l-74 131h43l60 -90l90 90h46l-118 -131h-47zM207 -9c-120 0 -185 74 -185 196c0 81 24 162 65 219c50 70 121 110 208 110c58 0 92 -13 118 -28l-9 -45c-25 13 -57 27 -111 27c-64 0 -120 -27 -160 -85c-36 -50 -57 -118 -57 -195c0 -102 50 -153 140 -153
c65 0 111 23 142 41l-9 -46c-36 -23 -81 -41 -142 -41z" />
    <glyph glyph-name="ccircumflex" unicode="&#x109;" horiz-adv-x="406" 
d="M164 585l117 131h48l74 -131h-44l-59 90l-90 -90h-46zM207 -9c-120 0 -185 74 -185 196c0 81 24 162 65 219c50 70 121 110 208 110c58 0 92 -13 118 -28l-9 -45c-25 13 -57 27 -111 27c-64 0 -120 -27 -160 -85c-36 -50 -57 -118 -57 -195c0 -102 50 -153 140 -153
c65 0 111 23 142 41l-9 -46c-36 -23 -81 -41 -142 -41z" />
    <glyph glyph-name="cdotaccent" unicode="&#x10b;" horiz-adv-x="406" 
d="M207 -9c-120 0 -185 74 -185 196c0 81 24 162 65 219c50 70 121 110 208 110c58 0 92 -13 118 -28l-9 -45c-25 13 -57 27 -111 27c-64 0 -120 -27 -160 -85c-36 -50 -57 -118 -57 -195c0 -102 50 -153 140 -153c65 0 111 23 142 41l-9 -46c-36 -23 -81 -41 -142 -41z
M261 616l11 62h56l-12 -62h-55z" />
    <glyph glyph-name="cacute.pl" horiz-adv-x="406" 
d="M207 -9c-120 0 -185 74 -185 196c0 81 24 162 65 219c50 70 121 110 208 110c58 0 92 -13 118 -28l-9 -45c-25 13 -57 27 -111 27c-64 0 -120 -27 -160 -85c-36 -50 -57 -118 -57 -195c0 -102 50 -153 140 -153c65 0 111 23 142 41l-9 -46c-36 -23 -81 -41 -142 -41z
M263 585l75 145h58l-87 -145h-46z" />
    <glyph glyph-name="dcaron" unicode="&#x10f;" horiz-adv-x="487" 
d="M566 588h-39l34 151h55zM172 -8c-92 0 -152 59 -152 168c0 192 109 356 272 356c61 0 94 -17 119 -34l44 257h55l-130 -739h-45l5 65h-3c-36 -38 -91 -73 -165 -73zM188 36c67 0 118 34 156 69l59 333c-27 18 -64 31 -107 31c-113 0 -186 -84 -214 -223
c-5 -26 -7 -56 -7 -80c0 -88 37 -130 113 -130z" />
    <glyph glyph-name="ebreve" unicode="&#x115;" horiz-adv-x="457" 
d="M216 -9c-124 0 -194 70 -194 196c0 92 25 173 66 230c44 61 107 99 190 99c119 0 180 -82 153 -236l-6 -32h-345c-2 -19 -3 -38 -3 -57c0 -107 51 -153 147 -153c65 0 123 22 165 41l-9 -45c-32 -18 -90 -43 -164 -43zM132 394c-19 -28 -34 -64 -43 -102h288
c21 120 -18 179 -105 179c-62 0 -108 -28 -140 -77zM289 585c-69 0 -113 47 -107 116h42c-2 -45 21 -75 68 -75c49 0 80 28 94 75h42c-17 -72 -68 -116 -139 -116z" />
    <glyph glyph-name="ecaron" unicode="&#x11b;" horiz-adv-x="457" 
d="M216 -9c-124 0 -194 70 -194 196c0 92 25 173 66 230c44 61 107 99 190 99c119 0 180 -82 153 -236l-6 -32h-345c-2 -19 -3 -38 -3 -57c0 -107 51 -153 147 -153c65 0 123 22 165 41l-9 -45c-32 -18 -90 -43 -164 -43zM132 394c-19 -28 -34 -64 -43 -102h288
c21 120 -18 179 -105 179c-62 0 -108 -28 -140 -77zM262 585l-74 131h43l60 -90l90 90h46l-118 -131h-47z" />
    <glyph glyph-name="edotaccent" unicode="&#x117;" horiz-adv-x="457" 
d="M216 -9c-124 0 -194 70 -194 196c0 92 25 173 66 230c44 61 107 99 190 99c119 0 180 -82 153 -236l-6 -32h-345c-2 -19 -3 -38 -3 -57c0 -107 51 -153 147 -153c65 0 123 22 165 41l-9 -45c-32 -18 -90 -43 -164 -43zM132 394c-19 -28 -34 -64 -43 -102h288
c21 120 -18 179 -105 179c-62 0 -108 -28 -140 -77zM262 616l11 62h56l-12 -62h-55z" />
    <glyph glyph-name="emacron" unicode="&#x113;" horiz-adv-x="457" 
d="M216 -9c-124 0 -194 70 -194 196c0 92 25 173 66 230c44 61 107 99 190 99c119 0 180 -82 153 -236l-6 -32h-345c-2 -19 -3 -38 -3 -57c0 -107 51 -153 147 -153c65 0 123 22 165 41l-9 -45c-32 -18 -90 -43 -164 -43zM132 394c-19 -28 -34 -64 -43 -102h288
c21 120 -18 179 -105 179c-62 0 -108 -28 -140 -77zM177 631l8 46h229l-8 -46h-229z" />
    <glyph glyph-name="eogonek" unicode="&#x119;" horiz-adv-x="457" 
d="M239 -199c-59 0 -85 32 -85 72c0 54 44 95 86 120c-7 -1 -15 -2 -24 -2c-124 0 -194 70 -194 196c0 92 25 173 66 230c44 61 107 99 190 99c119 0 180 -82 153 -236l-6 -32h-345c-2 -19 -3 -38 -3 -57c0 -107 51 -153 147 -153c65 0 123 22 165 41l-9 -45
c-20 -11 -52 -23 -84 -42c-42 -24 -92 -69 -92 -113c0 -25 16 -39 46 -39c17 0 29 2 39 5l-6 -35c-11 -5 -28 -9 -44 -9zM132 394c-19 -28 -34 -64 -43 -102h288c21 120 -18 179 -105 179c-62 0 -108 -28 -140 -77z" />
    <glyph glyph-name="gbreve" unicode="&#x11f;" horiz-adv-x="487" 
d="M139 -198c-66 0 -132 18 -164 39l7 42c30 -15 92 -37 156 -37c117 0 168 46 186 152l14 80h-3c-29 -33 -86 -69 -161 -69c-92 0 -152 58 -152 170c0 195 122 337 280 337c73 0 120 -14 161 -36l-86 -489c-22 -128 -95 -189 -238 -189zM190 53c67 0 118 33 156 68l58 328
c-22 12 -59 23 -104 23c-109 0 -186 -80 -215 -210c-5 -25 -8 -55 -8 -80c0 -87 37 -129 113 -129zM312 585c-69 0 -113 47 -107 116h42c-2 -45 21 -75 68 -75c49 0 80 28 94 75h42c-17 -72 -68 -116 -139 -116z" />
    <glyph glyph-name="gcircumflex" unicode="&#x11d;" horiz-adv-x="487" 
d="M191 585l117 131h48l74 -131h-44l-59 90l-90 -90h-46zM139 -198c-66 0 -132 18 -164 39l7 42c30 -15 92 -37 156 -37c117 0 168 46 186 152l14 80h-3c-29 -33 -86 -69 -161 -69c-92 0 -152 58 -152 170c0 195 122 337 280 337c73 0 120 -14 161 -36l-86 -489
c-22 -128 -95 -189 -238 -189zM190 53c67 0 118 33 156 68l58 328c-22 12 -59 23 -104 23c-109 0 -186 -80 -215 -210c-5 -25 -8 -55 -8 -80c0 -87 37 -129 113 -129z" />
    <glyph glyph-name="gcommaaccent" unicode="&#x123;" horiz-adv-x="487" 
d="M380 726l-35 -133h-59l51 133h43zM139 -198c-66 0 -132 18 -164 39l7 42c30 -15 92 -37 156 -37c117 0 168 46 186 152l14 80h-3c-29 -33 -86 -69 -161 -69c-92 0 -152 58 -152 170c0 195 122 337 280 337c73 0 120 -14 161 -36l-86 -489c-22 -128 -95 -189 -238 -189z
M190 53c67 0 118 33 156 68l58 328c-22 12 -59 23 -104 23c-109 0 -186 -80 -215 -210c-5 -25 -8 -55 -8 -80c0 -87 37 -129 113 -129z" />
    <glyph glyph-name="gdotaccent" unicode="&#x121;" horiz-adv-x="487" 
d="M139 -198c-66 0 -132 18 -164 39l7 42c30 -15 92 -37 156 -37c117 0 168 46 186 152l14 80h-3c-29 -33 -86 -69 -161 -69c-92 0 -152 58 -152 170c0 195 122 337 280 337c73 0 120 -14 161 -36l-86 -489c-22 -128 -95 -189 -238 -189zM190 53c67 0 118 33 156 68l58 328
c-22 12 -59 23 -104 23c-109 0 -186 -80 -215 -210c-5 -25 -8 -55 -8 -80c0 -87 37 -129 113 -129zM284 616l11 62h56l-12 -62h-55z" />
    <glyph glyph-name="hbar" unicode="&#x127;" horiz-adv-x="499" 
d="M17 0l106 596h-68l7 39h68l19 104h54l-18 -104h151l-7 -39h-151l-26 -149h3c58 41 124 69 190 69c88 0 117 -48 117 -109c0 -13 -2 -27 -4 -40l-65 -367h-54l63 360c3 14 4 27 4 38c0 45 -21 71 -82 71c-58 0 -119 -23 -180 -61l-73 -408h-54z" />
    <glyph glyph-name="hcircumflex" unicode="&#x125;" horiz-adv-x="499" 
d="M17 0l132 739h54l-51 -292h3c58 41 124 69 190 69c88 0 117 -48 117 -109c0 -13 -2 -27 -4 -40l-65 -367h-54l63 360c3 14 4 27 4 38c0 45 -21 71 -82 71c-58 0 -119 -23 -180 -61l-73 -408h-54zM216 780l116 112h45l75 -112h-44l-58 70l-88 -70h-46z" />
    <glyph glyph-name="ibreve" unicode="&#x12d;" horiz-adv-x="183" 
d="M151 585c-67 0 -106 46 -102 116h43c-2 -46 18 -75 60 -75c43 0 72 29 80 75h43c-11 -71 -60 -116 -124 -116zM19 0l89 507h54l-88 -507h-55z" />
    <glyph glyph-name="imacron" unicode="&#x12b;" horiz-adv-x="183" 
d="M73 631l8 46h168l-8 -46h-168zM19 0l89 507h54l-88 -507h-55z" />
    <glyph glyph-name="iogonek" unicode="&#x12f;" horiz-adv-x="183" 
d="M-71 -128c0 55 45 99 89 129l90 506h54l-89 -507c-44 -33 -94 -73 -94 -122c0 -23 16 -38 43 -38c16 0 27 2 37 5l-6 -35c-11 -5 -26 -9 -42 -9c-56 0 -82 32 -82 71zM126 616l12 62h55l-11 -62h-56z" />
    <glyph glyph-name="itilde" unicode="&#x129;" horiz-adv-x="183" 
d="M31 608c13 58 45 85 80 85c41 0 70 -39 98 -39c20 0 32 13 39 40h38c-13 -58 -44 -85 -79 -85c-41 0 -71 39 -98 39c-20 0 -32 -14 -39 -40h-39zM19 0l89 507h54l-88 -507h-55z" />
    <glyph glyph-name="idotaccent" horiz-adv-x="183" 
d="M19 0l89 507h54l-89 -507h-54zM126 616l12 62h55l-11 -62h-56z" />
    <glyph glyph-name="jcircumflex" unicode="&#x135;" horiz-adv-x="182" 
d="M40 585l108 131h47l63 -131h-43l-49 89l-79 -89h-47zM-78 -196c-28 0 -56 6 -72 17l6 38c16 -6 33 -10 56 -10c58 0 87 28 98 91l100 567h54l-100 -573c-16 -85 -61 -130 -142 -130z" />
    <glyph glyph-name="kcommaaccent" unicode="&#x137;" horiz-adv-x="435" 
d="M120 -175l34 133h58l-49 -133h-43zM17 0l130 739h54l-130 -739h-54zM312 0l-160 267l234 240h65l-240 -241l162 -266h-61z" />
    <glyph glyph-name="lacute" unicode="&#x13a;" horiz-adv-x="181" 
d="M157 780l81 125h64l-95 -125h-50zM18 0l130 739h55l-130 -739h-55z" />
    <glyph glyph-name="lcaron" unicode="&#x13e;" horiz-adv-x="181" 
d="M261 588h-39l34 151h55zM18 0l130 739h55l-130 -739h-55z" />
    <glyph glyph-name="lcommaaccent" unicode="&#x13c;" horiz-adv-x="181" 
d="M-24 -175l34 133h58l-49 -133h-43zM18 0l130 739h55l-130 -739h-55z" />
    <glyph glyph-name="ldot" unicode="&#x140;" horiz-adv-x="228" 
d="M18 0l130 739h55l-130 -739h-55zM188 330l14 70h57l-12 -70h-59z" />
    <glyph glyph-name="nacute" unicode="&#x144;" horiz-adv-x="499" 
d="M276 585l94 145h64l-108 -145h-50zM17 0l90 507h52l-11 -62h3c61 43 128 71 194 71c88 0 117 -48 117 -109c0 -13 -2 -27 -4 -40l-65 -367h-54l63 360c3 14 4 27 4 38c0 45 -21 71 -82 71c-58 0 -119 -23 -180 -61l-73 -408h-54z" />
    <glyph glyph-name="napostrophe" unicode="&#x149;" horiz-adv-x="516" 
d="M22 531l42 162h59l-53 -162h-48zM26 0l90 507h52l-11 -62h3c61 43 128 71 194 71c88 0 117 -48 117 -109c0 -13 -2 -27 -4 -40l-65 -367h-54l63 360c3 14 4 27 4 38c0 45 -21 71 -82 71c-58 0 -119 -23 -180 -61l-73 -408h-54z" />
    <glyph glyph-name="ncaron" unicode="&#x148;" horiz-adv-x="499" 
d="M278 585l-74 131h43l60 -90l90 90h46l-118 -131h-47zM17 0l90 507h52l-11 -62h3c61 43 128 71 194 71c88 0 117 -48 117 -109c0 -13 -2 -27 -4 -40l-65 -367h-54l63 360c3 14 4 27 4 38c0 45 -21 71 -82 71c-58 0 -119 -23 -180 -61l-73 -408h-54z" />
    <glyph glyph-name="ncommaaccent" unicode="&#x146;" horiz-adv-x="499" 
d="M138 -175l34 133h58l-49 -133h-43zM17 0l90 507h52l-11 -62h3c61 43 128 71 194 71c88 0 117 -48 117 -109c0 -13 -2 -27 -4 -40l-65 -367h-54l63 360c3 14 4 27 4 38c0 45 -21 71 -82 71c-58 0 -119 -23 -180 -61l-73 -408h-54z" />
    <glyph glyph-name="nacute.pl" horiz-adv-x="499" 
d="M274 585l75 145h58l-87 -145h-46zM17 0l90 507h52l-11 -62h3c61 43 128 71 194 71c88 0 117 -48 117 -109c0 -13 -2 -27 -4 -40l-65 -367h-54l63 360c3 14 4 27 4 38c0 45 -21 71 -82 71c-58 0 -119 -23 -180 -61l-73 -408h-54z" />
    <glyph glyph-name="obreve" unicode="&#x14f;" horiz-adv-x="488" 
d="M204 -9c-117 0 -183 72 -183 192c0 182 102 333 264 333c115 0 182 -72 182 -192c0 -180 -102 -333 -263 -333zM206 36c103 0 174 83 198 205c5 29 9 60 9 84c0 99 -51 146 -131 146c-103 0 -173 -81 -198 -204c-5 -26 -8 -55 -8 -84c0 -99 50 -147 130 -147zM306 585
c-69 0 -113 47 -107 116h42c-2 -45 21 -75 68 -75c49 0 80 28 94 75h42c-17 -72 -68 -116 -139 -116z" />
    <glyph glyph-name="ohungarumlaut" unicode="&#x151;" horiz-adv-x="488" 
d="M207 585l75 145h59l-87 -145h-47zM339 585l75 145h59l-87 -145h-47zM204 -9c-117 0 -183 72 -183 192c0 182 102 333 264 333c115 0 182 -72 182 -192c0 -180 -102 -333 -263 -333zM206 36c103 0 174 83 198 205c5 29 9 60 9 84c0 99 -51 146 -131 146
c-103 0 -173 -81 -198 -204c-5 -26 -8 -55 -8 -84c0 -99 50 -147 130 -147z" />
    <glyph glyph-name="omacron" unicode="&#x14d;" horiz-adv-x="488" 
d="M195 631l8 46h229l-8 -46h-229zM204 -9c-117 0 -183 72 -183 192c0 182 102 333 264 333c115 0 182 -72 182 -192c0 -180 -102 -333 -263 -333zM206 36c103 0 174 83 198 205c5 29 9 60 9 84c0 99 -51 146 -131 146c-103 0 -173 -81 -198 -204c-5 -26 -8 -55 -8 -84
c0 -99 50 -147 130 -147z" />
    <glyph glyph-name="oacute.pl" horiz-adv-x="488" 
d="M204 -9c-117 0 -183 72 -183 192c0 182 102 333 264 333c115 0 182 -72 182 -192c0 -180 -102 -333 -263 -333zM206 36c103 0 174 83 198 205c5 29 9 60 9 84c0 99 -51 146 -131 146c-103 0 -173 -81 -198 -204c-5 -26 -8 -55 -8 -84c0 -99 50 -147 130 -147zM270 585
l75 145h58l-87 -145h-46z" />
    <glyph glyph-name="oslashacute" unicode="&#x1ff;" horiz-adv-x="488" 
d="M204 -9c-59 0 -105 19 -136 52l-42 -43h-54l73 76c-16 29 -24 65 -24 107c0 182 102 333 264 333c56 0 102 -18 133 -51l38 40h54l-69 -72c16 -30 26 -67 26 -109c0 -180 -102 -333 -263 -333zM206 36c104 0 176 82 199 204c6 30 9 60 9 85c0 27 -4 49 -11 69l-301 -314
c23 -30 59 -44 104 -44zM74 183c0 -26 3 -48 9 -67l300 313c-23 28 -58 42 -101 42c-104 0 -175 -81 -199 -203c-6 -26 -9 -56 -9 -85zM270 585l94 145h64l-108 -145h-50z" />
    <glyph glyph-name="racute" unicode="&#x155;" horiz-adv-x="305" 
d="M207 585l94 145h64l-108 -145h-50zM17 0l89 507h53l-12 -67h3c39 39 93 73 156 73c12 0 25 -2 30 -4l-9 -48c-10 2 -24 3 -33 3c-59 0 -109 -27 -152 -61l-71 -403h-54z" />
    <glyph glyph-name="rcaron" unicode="&#x159;" horiz-adv-x="305" 
d="M205 585l-74 131h43l60 -90l90 90h46l-118 -131h-47zM17 0l89 507h53l-12 -67h3c39 39 93 73 156 73c12 0 25 -2 30 -4l-9 -48c-10 2 -24 3 -33 3c-59 0 -109 -27 -152 -61l-71 -403h-54z" />
    <glyph glyph-name="rcommaaccent" unicode="&#x157;" horiz-adv-x="305" 
d="M-26 -175l34 133h58l-49 -133h-43zM17 0l89 507h53l-12 -67h3c39 39 93 73 156 73c12 0 25 -2 30 -4l-9 -48c-10 2 -24 3 -33 3c-59 0 -109 -27 -152 -61l-71 -403h-54z" />
    <glyph glyph-name="sacute" unicode="&#x15b;" horiz-adv-x="385" 
d="M211 585l94 145h64l-108 -145h-50zM146 -8c-79 0 -123 21 -156 42l8 43c35 -18 73 -39 149 -39c103 0 129 52 129 105c0 42 -22 64 -77 86l-49 20c-58 24 -94 58 -94 120c0 90 60 146 171 146c74 0 110 -19 136 -35l-9 -44c-28 16 -68 33 -131 33
c-78 0 -115 -35 -115 -93c0 -41 19 -63 69 -82l48 -20c71 -29 105 -59 105 -125c0 -79 -43 -157 -184 -157z" />
    <glyph glyph-name="scedilla" unicode="&#x15f;" horiz-adv-x="385" 
d="M42 -213l6 37c90 7 121 22 121 55c0 24 -25 36 -80 36l13 80c-53 5 -86 22 -112 39l8 43c35 -18 73 -39 149 -39c103 0 129 52 129 105c0 42 -22 64 -77 86l-49 20c-58 24 -94 58 -94 120c0 90 60 146 171 146c74 0 110 -19 136 -35l-9 -44c-28 16 -68 33 -131 33
c-78 0 -115 -35 -115 -93c0 -41 19 -63 69 -82l48 -20c71 -29 105 -59 105 -125c0 -79 -43 -157 -184 -157h-4l-7 -43c51 -3 85 -26 85 -65c0 -57 -51 -90 -178 -97z" />
    <glyph glyph-name="scircumflex" unicode="&#x15d;" horiz-adv-x="385" 
d="M120 585l117 131h48l74 -131h-44l-59 90l-90 -90h-46zM146 -8c-79 0 -123 21 -156 42l8 43c35 -18 73 -39 149 -39c103 0 129 52 129 105c0 42 -22 64 -77 86l-49 20c-58 24 -94 58 -94 120c0 90 60 146 171 146c74 0 110 -19 136 -35l-9 -44c-28 16 -68 33 -131 33
c-78 0 -115 -35 -115 -93c0 -41 19 -63 69 -82l48 -20c71 -29 105 -59 105 -125c0 -79 -43 -157 -184 -157z" />
    <glyph glyph-name="scommaaccent" unicode="&#x219;" horiz-adv-x="385" 
d="M68 -175l34 133h58l-49 -133h-43zM146 -8c-79 0 -123 21 -156 42l8 43c35 -18 73 -39 149 -39c103 0 129 52 129 105c0 42 -22 64 -77 86l-49 20c-58 24 -94 58 -94 120c0 90 60 146 171 146c74 0 110 -19 136 -35l-9 -44c-28 16 -68 33 -131 33c-78 0 -115 -35 -115 -93
c0 -41 19 -63 69 -82l48 -20c71 -29 105 -59 105 -125c0 -79 -43 -157 -184 -157z" />
    <glyph glyph-name="sacute.pl" horiz-adv-x="385" 
d="M146 -8c-79 0 -123 21 -156 42l8 43c35 -18 73 -39 149 -39c103 0 129 52 129 105c0 42 -22 64 -77 86l-49 20c-58 24 -94 58 -94 120c0 90 60 146 171 146c74 0 110 -19 136 -35l-9 -44c-28 16 -68 33 -131 33c-78 0 -115 -35 -115 -93c0 -41 19 -63 69 -82l48 -20
c71 -29 105 -59 105 -125c0 -79 -43 -157 -184 -157zM212 585l75 145h58l-87 -145h-46z" />
    <glyph glyph-name="tbar" unicode="&#x167;" horiz-adv-x="317" 
d="M30 315l7 39h74l19 108h-74l8 45h74l22 120h54l-21 -120h136l-8 -45h-136l-19 -108h136l-7 -39h-136l-33 -184c-10 -58 2 -92 65 -92c25 0 50 6 72 13l-7 -38c-17 -10 -45 -19 -78 -19c-90 0 -122 54 -107 135l33 185h-74z" />
    <glyph glyph-name="tcaron" unicode="&#x165;" horiz-adv-x="319" 
d="M317 588h-39l34 151h55zM178 -5c-90 0 -122 54 -107 135l59 332h-74l8 45h74l22 120h54l-21 -120h136l-8 -45h-136l-59 -331c-10 -58 2 -92 65 -92c25 0 50 6 72 13l-7 -38c-17 -10 -45 -19 -78 -19z" />
    <glyph glyph-name="tcommaaccent" unicode="&#x163;" horiz-adv-x="319" 
d="M77 -175l34 133h58l-49 -133h-43zM178 -5c-90 0 -122 54 -107 135l59 332h-74l8 45h74l22 120h54l-21 -120h136l-8 -45h-136l-59 -331c-10 -58 2 -92 65 -92c25 0 50 6 72 13l-7 -38c-17 -10 -45 -19 -78 -19z" />
    <glyph glyph-name="ubreve" unicode="&#x16d;" horiz-adv-x="495" 
d="M157 -9c-81 0 -120 43 -121 113c0 12 1 25 4 39l63 364h55l-63 -360c-2 -14 -4 -27 -4 -39c0 -45 22 -70 80 -70c60 0 117 23 179 61l72 408h54l-89 -507h-46l5 62h-4c-59 -43 -118 -71 -185 -71zM300 585c-69 0 -113 47 -107 116h42c-2 -45 21 -75 68 -75
c49 0 80 28 94 75h42c-17 -72 -68 -116 -139 -116z" />
    <glyph glyph-name="uhungarumlaut" unicode="&#x171;" horiz-adv-x="495" 
d="M157 -9c-81 0 -120 43 -121 113c0 12 1 25 4 39l63 364h55l-63 -360c-2 -14 -4 -27 -4 -39c0 -45 22 -70 80 -70c60 0 117 23 179 61l72 408h54l-89 -507h-46l5 62h-4c-59 -43 -118 -71 -185 -71zM210 585l75 145h59l-87 -145h-47zM342 585l75 145h59l-87 -145h-47z" />
    <glyph glyph-name="umacron" unicode="&#x16b;" horiz-adv-x="495" 
d="M157 -9c-81 0 -120 43 -121 113c0 12 1 25 4 39l63 364h55l-63 -360c-2 -14 -4 -27 -4 -39c0 -45 22 -70 80 -70c60 0 117 23 179 61l72 408h54l-89 -507h-46l5 62h-4c-59 -43 -118 -71 -185 -71zM194 631l8 46h229l-8 -46h-229z" />
    <glyph glyph-name="uogonek" unicode="&#x173;" horiz-adv-x="495" 
d="M157 -9c-81 0 -120 43 -121 113c0 12 1 25 4 39l63 364h55l-63 -360c-2 -14 -4 -27 -4 -39c0 -45 22 -70 80 -70c60 0 117 23 179 61l72 408h54l-89 -507c-42 -30 -97 -73 -97 -121c0 -25 15 -39 44 -39c18 0 30 2 39 5l-6 -35c-10 -5 -27 -9 -43 -9c-59 0 -85 32 -85 72
c0 58 54 105 103 132l4 57h-4c-59 -43 -118 -71 -185 -71z" />
    <glyph glyph-name="uring" unicode="&#x16f;" horiz-adv-x="495" 
d="M313 581c-50 0 -82 36 -82 79c0 49 38 90 89 90s83 -36 83 -78c0 -52 -39 -91 -90 -91zM314 614c31 0 51 23 51 57c0 25 -16 46 -46 46c-31 0 -51 -24 -51 -57c0 -25 16 -46 46 -46zM157 -9c-81 0 -120 43 -121 113c0 12 1 25 4 39l63 364h55l-63 -360
c-2 -14 -4 -27 -4 -39c0 -45 22 -70 80 -70c60 0 117 23 179 61l72 408h54l-89 -507h-46l5 62h-4c-59 -43 -118 -71 -185 -71z" />
    <glyph glyph-name="utilde" unicode="&#x169;" horiz-adv-x="495" 
d="M157 -9c-81 0 -120 43 -121 113c0 12 1 25 4 39l63 364h55l-63 -360c-2 -14 -4 -27 -4 -39c0 -45 22 -70 80 -70c60 0 117 23 179 61l72 408h54l-89 -507h-46l5 62h-4c-59 -43 -118 -71 -185 -71zM174 608c11 58 48 85 86 85c43 0 75 -39 108 -39c21 0 38 13 45 40h38
c-11 -58 -48 -85 -85 -85c-43 0 -76 39 -108 39c-22 0 -38 -14 -45 -40h-39z" />
    <glyph glyph-name="wacute" unicode="&#x1e83;" horiz-adv-x="697" 
d="M377 585l94 145h64l-108 -145h-50zM105 0l-46 507h55l34 -436h3l216 436h52l36 -436h3l214 436h54l-256 -507h-57l-37 424h-3l-210 -424h-58z" />
    <glyph glyph-name="wcircumflex" unicode="&#x175;" horiz-adv-x="697" 
d="M283 585l117 131h48l74 -131h-44l-59 90l-90 -90h-46zM105 0l-46 507h55l34 -436h3l216 436h52l36 -436h3l214 436h54l-256 -507h-57l-37 424h-3l-210 -424h-58z" />
    <glyph glyph-name="wdieresis" unicode="&#x1e85;" horiz-adv-x="697" 
d="M452 616l11 62h54l-11 -62h-54zM310 616l11 62h54l-12 -62h-53zM105 0l-46 507h55l34 -436h3l216 436h52l36 -436h3l214 436h54l-256 -507h-57l-37 424h-3l-210 -424h-58z" />
    <glyph glyph-name="wgrave" unicode="&#x1e81;" horiz-adv-x="697" 
d="M105 0l-46 507h55l34 -436h3l216 436h52l36 -436h3l214 436h54l-256 -507h-57l-37 424h-3l-210 -424h-58zM376 585l-68 145h58l57 -145h-47z" />
    <glyph glyph-name="ycircumflex" unicode="&#x177;" horiz-adv-x="448" 
d="M-4 -198c-25 0 -47 8 -60 15l7 40c14 -6 31 -9 50 -9c52 0 82 29 115 86l45 81l-97 492h58l78 -422h2l230 422h56l-325 -585c-43 -79 -83 -120 -159 -120zM161 585l117 131h48l74 -131h-44l-59 90l-90 -90h-46z" />
    <glyph glyph-name="ygrave" unicode="&#x1ef3;" horiz-adv-x="448" 
d="M-4 -198c-25 0 -47 8 -60 15l7 40c14 -6 31 -9 50 -9c52 0 82 29 115 86l45 81l-97 492h58l78 -422h2l230 422h56l-325 -585c-43 -79 -83 -120 -159 -120zM256 585l-68 145h58l57 -145h-47z" />
    <glyph glyph-name="zacute" unicode="&#x17a;" horiz-adv-x="402" 
d="M235 585l94 145h64l-108 -145h-50zM-19 0l7 41l358 419v2h-277l7 45h346l-7 -40l-360 -420v-2h287l-8 -45h-353z" />
    <glyph glyph-name="zdotaccent" unicode="&#x17c;" horiz-adv-x="402" 
d="M-19 0l7 41l358 419v2h-277l7 45h346l-7 -40l-360 -420v-2h287l-8 -45h-353zM241 616l11 62h56l-12 -62h-55z" />
    <glyph glyph-name="zacute.pl" horiz-adv-x="402" 
d="M-19 0l7 41l358 419v2h-277l7 45h346l-7 -40l-360 -420v-2h287l-8 -45h-353zM234 585l75 145h58l-87 -145h-46z" />
    <glyph glyph-name="oneeighth" unicode="&#x215b;" horiz-adv-x="765" 
d="M546 -8c-90 0 -143 38 -143 101c0 61 52 94 114 114c-37 20 -66 49 -66 92c0 63 52 111 137 111c70 0 123 -32 123 -96c0 -56 -46 -91 -96 -110c46 -23 79 -51 79 -97c0 -65 -51 -115 -148 -115zM546 29c72 0 104 32 104 75c0 41 -35 61 -98 86
c-55 -17 -106 -42 -106 -94c0 -40 35 -67 100 -67zM579 221c47 18 88 42 88 90c0 37 -26 62 -81 62c-56 0 -91 -29 -91 -71s35 -62 84 -81zM116 293l62 357l-94 -20l5 30l119 40h25l-71 -407h-46zM7 -39l587 753h46l-586 -753h-47z" />
    <glyph glyph-name="onethird" unicode="&#x2153;" horiz-adv-x="758" 
d="M523 -7c-50 0 -90 14 -111 28l6 33c26 -13 62 -23 101 -23c72 0 112 37 112 94c0 42 -34 68 -89 68h-33l7 36h28c58 0 105 28 105 84c0 39 -29 58 -78 58c-31 0 -55 -2 -84 -13l6 34c30 13 57 17 96 17c63 0 106 -35 106 -89c0 -56 -42 -95 -92 -105v-2
c40 -8 76 -37 76 -83c0 -85 -67 -137 -156 -137zM113 293l62 357l-94 -20l5 30l119 40h25l-71 -407h-46zM13 -39l587 753h46l-586 -753h-47z" />
    <glyph glyph-name="threeeighths" unicode="&#x215c;" horiz-adv-x="823" 
d="M603 -8c-90 0 -143 38 -143 101c0 61 52 94 114 114c-37 20 -66 49 -66 92c0 63 52 111 137 111c70 0 123 -32 123 -96c0 -56 -46 -91 -96 -110c46 -23 79 -51 79 -97c0 -65 -51 -115 -148 -115zM603 29c72 0 104 32 104 75c0 41 -35 61 -98 86
c-55 -17 -106 -42 -106 -94c0 -40 35 -67 100 -67zM636 221c47 18 88 42 88 90c0 37 -26 62 -81 62c-56 0 -91 -29 -91 -71s35 -62 84 -81zM80 -39l587 753h46l-586 -753h-47zM145 286c-51 0 -91 14 -111 28l6 33c26 -13 61 -23 100 -23c72 0 112 37 112 94
c0 42 -33 68 -89 68h-33l7 36h28c58 0 105 27 105 84c0 39 -28 58 -78 58c-31 0 -54 -2 -84 -14l6 35c30 13 57 17 96 17c64 0 106 -35 106 -90s-42 -94 -92 -105v-2c40 -7 76 -36 76 -83c0 -84 -67 -136 -155 -136z" />
    <glyph glyph-name="fiveeighths" unicode="&#x215d;" horiz-adv-x="819" 
d="M599 -8c-90 0 -143 38 -143 101c0 61 52 94 114 114c-37 20 -66 49 -66 92c0 63 52 111 137 111c70 0 123 -32 123 -96c0 -56 -46 -91 -96 -110c46 -23 79 -51 79 -97c0 -65 -51 -115 -148 -115zM599 29c72 0 104 32 104 75c0 41 -35 61 -98 86
c-55 -17 -106 -42 -106 -94c0 -40 35 -67 100 -67zM632 221c47 18 88 42 88 90c0 37 -26 62 -81 62c-56 0 -91 -29 -91 -71s35 -62 84 -81zM139 286c-48 0 -84 13 -105 28l6 33c24 -13 59 -23 98 -23c79 0 119 41 119 109c0 46 -30 74 -92 74c-26 0 -52 -2 -81 -10l42 198
h208l-6 -37h-172l-27 -123c22 5 37 7 56 7c73 0 118 -38 118 -107c0 -88 -60 -149 -164 -149zM75 -39l587 753h46l-586 -753h-47z" />
    <glyph glyph-name="twothirds" unicode="&#x2154;" horiz-adv-x="839" 
d="M604 -7c-50 0 -90 14 -111 28l6 33c26 -13 62 -23 101 -23c72 0 112 37 112 94c0 42 -34 68 -89 68h-33l7 36h28c58 0 105 28 105 84c0 39 -29 58 -78 58c-31 0 -55 -2 -84 -13l6 34c30 13 57 17 96 17c63 0 106 -35 106 -89c0 -56 -42 -95 -92 -105v-2
c40 -8 76 -37 76 -83c0 -85 -67 -137 -156 -137zM34 292l6 33l119 98c79 65 124 105 124 171c0 43 -23 70 -77 70c-33 0 -69 -10 -96 -24l6 36c31 16 61 26 102 26c76 0 115 -43 115 -103c0 -77 -55 -128 -142 -196l-93 -72v-2h198l-6 -37h-256zM110 -39l587 753h46
l-586 -753h-47z" />
    <glyph glyph-name="seveneighths" unicode="&#x215e;" horiz-adv-x="791" 
d="M572 -8c-90 0 -143 38 -143 101c0 61 52 94 114 114c-37 20 -66 49 -66 92c0 63 52 111 137 111c70 0 123 -32 123 -96c0 -56 -46 -91 -96 -110c46 -23 79 -51 79 -97c0 -65 -51 -115 -148 -115zM572 29c72 0 104 32 104 75c0 41 -35 61 -98 86
c-55 -17 -106 -42 -106 -94c0 -40 35 -67 100 -67zM605 221c47 18 88 42 88 90c0 37 -26 62 -81 62c-56 0 -91 -29 -91 -71s35 -62 84 -81zM76 293l215 362v2h-211l7 38h257l-5 -35l-214 -367h-49zM25 -39l587 753h46l-586 -753h-47z" />
    <glyph glyph-name="uni24C5" unicode="&#x24c5;" horiz-adv-x="792" 
d="M411 -11c-202 0 -352 160 -352 356c0 195 150 355 352 355c203 0 353 -160 353 -355c0 -196 -150 -356 -353 -356zM411 25c181 0 311 137 311 320c0 181 -130 319 -311 319s-310 -138 -310 -319c0 -183 129 -320 310 -320zM296 157v379h125c99 0 142 -42 142 -115
c0 -77 -48 -117 -133 -117h-81v-147h-53zM349 344h75c59 0 86 28 86 77c0 50 -30 74 -90 74h-71v-151z" />
    <glyph glyph-name="dollar.old" horiz-adv-x="452" 
d="M93 -100l27 95c-60 8 -101 29 -128 48l8 44c33 -21 75 -40 133 -47l79 273l-10 5c-82 36 -121 79 -121 153c0 106 77 176 203 176c8 0 16 0 24 -1l19 66h40l-21 -70c50 -8 81 -25 104 -40l-8 -45c-24 15 -59 32 -109 40l-72 -250l13 -5c77 -33 128 -75 128 -154
c0 -103 -65 -197 -221 -197c-8 0 -15 0 -23 1l-26 -92h-39zM250 298l-3 1l-76 -262h14c110 0 163 59 163 148c0 56 -35 86 -98 113zM133 474c0 -52 23 -82 93 -111v-1l69 239h-15c-91 0 -147 -43 -147 -127z" />
    <glyph glyph-name="Euro.old" horiz-adv-x="524" 
d="M41 362l7 43h71c15 50 36 94 62 129c57 77 141 114 234 114c62 0 101 -11 130 -28l-8 -43c-34 15 -69 25 -126 25c-69 0 -139 -25 -186 -93c-19 -28 -36 -64 -48 -104h214l-8 -43h-218c-7 -30 -11 -61 -14 -91h216l-8 -43h-211v-17c0 -132 62 -174 163 -174
c63 0 114 17 156 37l-8 -45c-40 -22 -95 -38 -156 -38c-112 0 -212 54 -212 220v17h-74l8 43h68c3 31 8 62 14 91h-66z" />
    <glyph glyph-name="sterling.old" horiz-adv-x="475" 
d="M46 292l8 43h81l20 110c27 151 124 203 223 203c56 0 92 -13 113 -27l-7 -38c-28 11 -56 19 -104 19c-80 0 -149 -36 -171 -160l-19 -107h183l-8 -43h-183l-14 -82c-15 -85 -50 -130 -107 -163v-2h352l-8 -45h-416l7 41c63 33 101 79 117 168l15 83h-82z" />
    <glyph glyph-name="yen.old" horiz-adv-x="474" 
d="M167 0l23 133h-162l8 43h162l14 87h-162l8 44h144l-120 332h57l111 -318h2l222 318h56l-236 -332h143l-8 -44h-163l-14 -87h163l-8 -43h-163l-23 -133h-54z" />
    <glyph glyph-name="zero.old" horiz-adv-x="566" 
d="M248 -9c-133 0 -209 85 -209 213c0 36 6 81 14 123c35 169 144 272 284 272c130 0 205 -82 205 -216c0 -34 -7 -81 -16 -122c-35 -172 -139 -270 -278 -270zM250 36c122 0 192 89 222 225c9 43 15 92 15 124c0 102 -48 169 -153 169c-121 0 -196 -94 -225 -226
c-9 -45 -14 -91 -14 -126c0 -99 47 -166 155 -166z" />
    <glyph glyph-name="one.old" horiz-adv-x="290" 
d="M98 0l93 531l-132 -23l7 33l170 54h21l-105 -595h-54z" />
    <glyph glyph-name="two.old" horiz-adv-x="442" 
d="M-21 0l5 39l191 147c128 99 192 162 192 259c0 69 -45 109 -122 109c-63 0 -112 -15 -157 -36l8 41c43 23 90 40 158 40c102 0 168 -55 168 -148c0 -111 -75 -189 -214 -291l-151 -112v-3h313l-8 -45h-383z" />
    <glyph glyph-name="three.old" horiz-adv-x="461" 
d="M139 -106c-81 0 -137 22 -171 44l8 38c46 -23 86 -37 162 -37c131 0 199 69 199 172c0 82 -53 130 -158 130h-59l8 46h53c105 0 180 55 180 152c0 67 -36 115 -126 115c-52 0 -99 -10 -147 -30l7 41c44 22 96 34 150 34c119 0 172 -72 172 -153c0 -98 -66 -160 -157 -179
v-3c70 -11 132 -61 132 -150c0 -137 -98 -220 -253 -220z" />
    <glyph glyph-name="four.old" horiz-adv-x="526" 
d="M277 -97l34 193h-322l8 42l409 452h45l-79 -448h118l-8 -46h-117l-35 -193h-53zM58 142h261l64 361h-3l-322 -359v-2z" />
    <glyph glyph-name="five.old" horiz-adv-x="455" 
d="M133 -106c-66 0 -128 19 -163 46l8 39c48 -28 98 -39 154 -39c143 0 202 83 202 198c0 90 -53 137 -156 137c-56 0 -94 -9 -127 -17l59 331h325l-8 -45h-276l-43 -238c22 8 56 14 95 14c118 0 187 -68 187 -180c0 -137 -81 -246 -257 -246z" />
    <glyph glyph-name="six.old" horiz-adv-x="520" 
d="M251 -11c-138 0 -206 94 -206 228c0 115 38 258 98 344c65 93 151 142 262 142c69 0 107 -15 133 -31l-7 -39c-27 11 -63 24 -127 24c-134 0 -245 -87 -290 -312c45 39 110 69 188 69c118 0 184 -69 184 -175c0 -150 -100 -250 -235 -250zM252 34c106 0 179 81 179 201
c0 87 -50 134 -143 134c-78 0 -133 -26 -181 -65c-5 -27 -7 -59 -7 -90c0 -101 38 -180 152 -180z" />
    <glyph glyph-name="seven.old" horiz-adv-x="443" 
d="M30 -104l390 645v3h-347l8 45h401l-8 -44l-384 -649h-60z" />
    <glyph glyph-name="eight.old" horiz-adv-x="520" 
d="M240 -11c-140 0 -220 73 -220 171c0 116 105 171 198 201c-68 35 -119 84 -119 160c0 105 78 182 215 182c122 0 186 -68 186 -155c0 -101 -84 -152 -168 -188c83 -40 140 -93 140 -172c0 -116 -85 -199 -232 -199zM241 34c115 0 175 61 175 150c0 66 -54 113 -160 159
c-91 -34 -180 -79 -180 -182c0 -76 58 -127 165 -127zM294 378c81 35 149 82 149 163c0 63 -41 117 -134 117c-98 0 -154 -55 -154 -132c0 -63 41 -104 139 -148z" />
    <glyph glyph-name="nine.old" horiz-adv-x="520" 
d="M134 -113c-71 0 -113 17 -138 33l7 39c30 -14 66 -27 133 -27c130 0 239 78 285 313c-45 -40 -110 -70 -187 -70c-119 0 -185 70 -185 175c0 150 100 250 235 250c138 0 207 -94 207 -227c0 -116 -39 -264 -98 -351c-65 -94 -151 -135 -259 -135zM247 221
c79 0 133 25 182 64c4 27 7 60 7 90c0 102 -39 180 -153 180c-105 0 -179 -80 -179 -201c0 -87 50 -133 143 -133z" />
    <glyph glyph-name="percent.old" horiz-adv-x="731" 
d="M188 335c56 0 93 41 107 114c5 27 7 48 7 69c0 48 -25 81 -75 81c-57 0 -95 -43 -108 -114c-4 -25 -6 -47 -6 -68c0 -51 27 -82 75 -82zM526 30c56 0 93 42 107 114c5 27 7 49 7 69c0 47 -25 80 -75 80c-57 0 -95 -42 -108 -113c-5 -25 -7 -48 -7 -69
c0 -50 27 -81 76 -81zM186 298c-72 0 -119 50 -119 121c0 107 47 216 161 216c76 0 120 -48 120 -120c0 -106 -46 -217 -162 -217zM122 -32h-49l548 679h48zM524 -6c-73 0 -120 49 -120 120c0 106 49 216 162 216c76 0 120 -49 120 -120c0 -106 -46 -216 -162 -216z" />
    <glyph glyph-name="perthousand.old" horiz-adv-x="1051" 
d="M188 335c56 0 93 41 107 114c5 27 7 48 7 69c0 48 -25 81 -75 81c-57 0 -95 -43 -108 -114c-4 -25 -6 -47 -6 -68c0 -51 27 -82 75 -82zM526 30c56 0 93 42 107 114c5 27 7 49 7 69c0 47 -25 80 -75 80c-57 0 -95 -42 -108 -113c-5 -25 -7 -48 -7 -69
c0 -50 27 -81 76 -81zM846 30c56 0 93 42 107 114c5 27 7 49 7 69c0 47 -25 80 -75 80c-57 0 -95 -42 -108 -113c-5 -25 -7 -48 -7 -69c0 -50 27 -81 76 -81zM186 298c-72 0 -119 50 -119 121c0 107 47 216 161 216c76 0 120 -48 120 -120c0 -106 -46 -217 -162 -217z
M73 -32l548 679h48l-547 -679h-49zM524 -6c-73 0 -120 49 -120 120c0 106 49 216 162 216c76 0 120 -49 120 -120c0 -106 -46 -216 -162 -216zM844 -6c-73 0 -120 49 -120 120c0 106 49 216 162 216c76 0 120 -49 120 -120c0 -106 -46 -216 -162 -216z" />
    <glyph glyph-name="plus.old" horiz-adv-x="501" 
d="M196 89l33 182h-176l9 48h174l33 182h50l-32 -182h175l-9 -48h-174l-32 -182h-51z" />
    <glyph glyph-name="minus.old" horiz-adv-x="500" 
d="M53 271l9 48h400l-9 -48h-400z" />
    <glyph glyph-name="multiply.old" horiz-adv-x="500" 
d="M75 100l-29 34l176 149l-124 150l37 33l124 -150l175 150l30 -34l-176 -150l123 -149l-36 -33l-124 150z" />
    <glyph glyph-name="divide.old" horiz-adv-x="506" 
d="M55 267l9 48h400l-9 -48h-400zM194 97l14 73h61l-14 -73h-61zM249 411l14 73h61l-14 -73h-61z" />
    <glyph glyph-name="equal.old" horiz-adv-x="509" 
d="M67 334l8 47h403l-9 -47h-402zM37 160l8 47h402l-8 -47h-402z" />
    <glyph glyph-name="less.old" horiz-adv-x="467" 
d="M379 78l-335 176l8 45l398 174l-10 -55l-336 -144l285 -144z" />
    <glyph glyph-name="greater.old" horiz-adv-x="467" 
d="M24 78l9 55l336 144l-284 144l9 52l335 -176l-8 -45z" />
    <glyph glyph-name="numbersign.old" horiz-adv-x="474" 
d="M72 397l8 48h92l49 194h45l-50 -194h126l49 194h45l-50 -194h86l-7 -48h-91l-36 -144h89l-8 -48h-93l-51 -205h-45l52 205h-125l-52 -205h-45l52 205h-86l9 48h89l36 144h-88zM205 397l-37 -144h126l36 144h-125z" />
    <glyph glyph-name="zero.num" horiz-adv-x="377" 
d="M195 286c-80 0 -131 49 -131 140c0 29 5 60 11 93c20 107 81 183 185 183c83 0 132 -50 132 -140c0 -29 -5 -61 -11 -92c-20 -107 -79 -184 -186 -184zM199 322c78 0 116 62 134 152c7 34 11 64 11 88c0 65 -25 104 -88 104c-77 0 -115 -62 -133 -152
c-7 -33 -12 -65 -12 -89c0 -64 26 -103 88 -103z" />
    <glyph glyph-name="one.num" horiz-adv-x="222" 
d="M110 293l62 357l-94 -20l5 30l119 40h25l-71 -407h-46z" />
    <glyph glyph-name="two.num" horiz-adv-x="315" 
d="M31 292l6 33l119 98c79 65 124 105 124 171c0 43 -23 70 -77 70c-33 0 -69 -10 -96 -24l6 36c31 16 61 26 102 26c76 0 115 -43 115 -103c0 -77 -55 -128 -142 -196l-93 -72v-2h198l-6 -37h-256z" />
    <glyph glyph-name="three.num" horiz-adv-x="309" 
d="M142 286c-51 0 -91 14 -111 28l6 33c26 -13 61 -23 100 -23c72 0 112 37 112 94c0 42 -33 68 -89 68h-33l7 36h28c58 0 105 27 105 84c0 39 -28 58 -78 58c-31 0 -54 -2 -84 -14l6 35c30 13 57 17 96 17c64 0 106 -35 106 -90s-42 -94 -92 -105v-2c40 -7 76 -36 76 -83
c0 -84 -67 -136 -155 -136z" />
    <glyph glyph-name="four.num" horiz-adv-x="334" 
d="M204 293l20 115h-186l6 32l236 255h41l-44 -252h69l-7 -35h-69l-20 -115h-46zM94 443h137l32 183h-2l-167 -181v-2z" />
    <glyph glyph-name="five.num" horiz-adv-x="302" 
d="M136 286c-48 0 -84 13 -105 28l6 33c24 -13 59 -23 98 -23c79 0 119 41 119 109c0 46 -30 74 -92 74c-26 0 -52 -2 -81 -10l42 198h208l-6 -37h-172l-27 -123c22 5 37 7 56 7c73 0 118 -38 118 -107c0 -88 -60 -149 -164 -149z" />
    <glyph glyph-name="six.num" horiz-adv-x="336" 
d="M188 286c-86 0 -129 54 -129 134c0 68 23 154 56 201c40 54 92 81 159 81c42 0 69 -9 84 -18l-6 -33c-16 6 -40 14 -78 14c-73 0 -132 -38 -158 -161c25 21 64 36 106 36c72 0 112 -45 112 -107c0 -88 -58 -147 -146 -147zM189 322c61 0 99 44 99 109c0 48 -29 73 -80 73
c-41 0 -72 -13 -98 -34c-3 -16 -4 -37 -4 -54c0 -54 22 -94 83 -94z" />
    <glyph glyph-name="seven.num" horiz-adv-x="301" 
d="M73 293l215 362v2h-211l7 38h257l-5 -35l-214 -367h-49z" />
    <glyph glyph-name="eight.num" horiz-adv-x="347" 
d="M190 285c-90 0 -143 38 -143 101c0 61 52 94 114 114c-36 20 -65 49 -65 92c0 62 51 110 136 110c71 0 123 -32 123 -95c0 -56 -46 -92 -96 -110c46 -24 80 -51 80 -98c0 -64 -52 -114 -149 -114zM190 322c72 0 104 32 104 75c0 40 -35 61 -98 86
c-55 -17 -106 -42 -106 -94c0 -41 35 -67 100 -67zM223 514c47 18 89 42 89 90c0 37 -26 62 -82 62s-91 -29 -91 -71s35 -62 84 -81z" />
    <glyph glyph-name="nine.num" horiz-adv-x="338" 
d="M136 286c-43 0 -68 9 -84 20l6 33c15 -7 39 -15 80 -15c73 0 136 40 156 161c-26 -21 -66 -37 -107 -37c-72 0 -112 45 -112 106c0 89 60 148 145 148c87 0 129 -56 129 -136c0 -74 -18 -155 -54 -205c-34 -48 -85 -75 -159 -75zM201 484c40 0 72 14 98 34
c2 16 3 36 3 52c0 55 -22 96 -84 96c-58 0 -97 -44 -97 -110c0 -47 27 -72 80 -72z" />
    <glyph glyph-name="zero.den" horiz-adv-x="377" 
d="M144 -7c-80 0 -132 50 -132 140c0 29 5 61 12 93c20 108 80 183 185 183c83 0 132 -49 132 -139c0 -29 -5 -62 -11 -92c-20 -107 -79 -185 -186 -185zM148 30c78 0 115 62 133 152c7 33 12 63 12 87c0 66 -25 104 -88 104c-78 0 -115 -62 -133 -152
c-7 -33 -12 -64 -12 -88c0 -65 26 -103 88 -103z" />
    <glyph glyph-name="one.den" horiz-adv-x="222" 
d="M58 0l63 357l-94 -20l5 30l119 40h25l-72 -407h-46z" />
    <glyph glyph-name="two.den" horiz-adv-x="315" 
d="M-20 0l6 32l119 98c79 66 124 106 124 172c0 42 -23 69 -77 69c-33 0 -69 -10 -96 -24l6 36c30 16 61 26 102 26c76 0 115 -42 115 -103c0 -76 -55 -128 -142 -196l-93 -71v-2h198l-6 -37h-256z" />
    <glyph glyph-name="three.den" horiz-adv-x="309" 
d="M90 -7c-50 0 -90 14 -111 28l6 33c26 -13 62 -23 101 -23c72 0 112 37 112 94c0 42 -34 68 -89 68h-33l7 36h28c58 0 105 28 105 84c0 39 -29 58 -78 58c-31 0 -55 -2 -84 -13l6 34c30 13 57 17 96 17c63 0 106 -35 106 -89c0 -56 -42 -95 -92 -105v-2
c40 -8 76 -37 76 -83c0 -85 -67 -137 -156 -137z" />
    <glyph glyph-name="four.den" horiz-adv-x="334" 
d="M152 0l21 115h-186l5 32l237 255h41l-44 -252h68l-6 -35h-69l-21 -115h-46zM43 150h137l32 184h-2l-167 -182v-2z" />
    <glyph glyph-name="five.den" horiz-adv-x="302" 
d="M84 -7c-48 0 -83 13 -104 28l6 34c23 -14 59 -24 98 -24c78 0 119 41 119 109c0 46 -31 74 -93 74c-25 0 -52 -2 -80 -10l42 198h208l-6 -37h-173l-27 -123c23 5 38 7 57 7c73 0 117 -38 117 -107c0 -88 -60 -149 -164 -149z" />
    <glyph glyph-name="six.den" horiz-adv-x="336" 
d="M137 -7c-87 0 -129 54 -129 134c0 68 23 154 56 201c39 54 92 81 159 81c42 0 68 -9 84 -17l-6 -34c-16 6 -41 14 -78 14c-73 0 -132 -38 -159 -161c25 21 64 36 107 36c72 0 112 -44 112 -106c0 -89 -58 -148 -146 -148zM138 29c60 0 99 44 99 109c0 48 -29 73 -80 73
c-41 0 -72 -13 -98 -33c-4 -17 -5 -38 -5 -55c0 -54 23 -94 84 -94z" />
    <glyph glyph-name="seven.den" horiz-adv-x="301" 
d="M22 0l215 362v2h-211l7 38h257l-5 -35l-214 -367h-49z" />
    <glyph glyph-name="eight.den" horiz-adv-x="347" 
d="M139 -8c-90 0 -143 38 -143 101c0 61 52 94 114 114c-37 20 -66 49 -66 92c0 63 52 111 137 111c70 0 123 -32 123 -96c0 -56 -46 -91 -96 -110c46 -23 79 -51 79 -97c0 -65 -51 -115 -148 -115zM139 29c72 0 104 32 104 75c0 41 -35 61 -98 86
c-55 -17 -106 -42 -106 -94c0 -40 35 -67 100 -67zM172 221c47 18 88 42 88 90c0 37 -26 62 -81 62c-56 0 -91 -29 -91 -71s35 -62 84 -81z" />
    <glyph glyph-name="nine.den" horiz-adv-x="338" 
d="M85 -7c-43 0 -69 10 -84 20l6 33c15 -6 39 -15 79 -15c74 0 137 40 157 161c-26 -21 -67 -37 -107 -37c-72 0 -112 45 -112 106c0 89 59 148 144 148c87 0 130 -56 130 -136c0 -74 -19 -155 -54 -205c-34 -47 -86 -75 -159 -75zM150 192c40 0 72 13 98 34c2 15 3 35 3 52
c0 55 -22 95 -84 95c-58 0 -97 -44 -97 -110c0 -47 27 -71 80 -71z" />
    <glyph glyph-name="zero.sub" horiz-adv-x="377" 
d="M123 -127c-80 0 -132 50 -132 140c0 29 5 61 12 93c20 108 80 183 185 183c83 0 132 -49 132 -139c0 -29 -5 -62 -11 -92c-20 -107 -79 -185 -186 -185zM127 -90c78 0 115 62 133 152c7 33 12 63 12 87c0 66 -25 104 -88 104c-78 0 -115 -62 -133 -152
c-7 -33 -12 -64 -12 -88c0 -65 26 -103 88 -103z" />
    <glyph glyph-name="one.sub" horiz-adv-x="222" 
d="M37 -120l63 357l-94 -20l5 30l119 40h25l-72 -407h-46z" />
    <glyph glyph-name="two.sub" horiz-adv-x="315" 
d="M-41 -120l6 32l119 98c79 66 124 106 124 172c0 42 -23 69 -77 69c-33 0 -69 -10 -96 -24l6 36c30 16 61 26 102 26c76 0 115 -42 115 -103c0 -76 -55 -128 -142 -196l-93 -71v-2h198l-6 -37h-256z" />
    <glyph glyph-name="three.sub" horiz-adv-x="309" 
d="M69 -127c-50 0 -90 14 -111 28l6 33c26 -13 62 -23 101 -23c72 0 112 37 112 94c0 42 -34 68 -89 68h-33l7 36h28c58 0 105 28 105 84c0 39 -29 58 -78 58c-31 0 -55 -2 -84 -13l6 34c30 13 57 17 96 17c63 0 106 -35 106 -89c0 -56 -42 -95 -92 -105v-2
c40 -8 76 -37 76 -83c0 -85 -67 -137 -156 -137z" />
    <glyph glyph-name="four.sub" horiz-adv-x="334" 
d="M131 -120l21 115h-186l5 32l237 255h41l-44 -252h68l-6 -35h-69l-21 -115h-46zM22 30h137l32 184h-2l-167 -182v-2z" />
    <glyph glyph-name="five.sub" horiz-adv-x="302" 
d="M63 -127c-48 0 -83 13 -104 28l6 34c23 -14 59 -24 98 -24c78 0 119 41 119 109c0 46 -31 74 -93 74c-25 0 -52 -2 -80 -10l42 198h208l-6 -37h-173l-27 -123c23 5 38 7 57 7c73 0 117 -38 117 -107c0 -88 -60 -149 -164 -149z" />
    <glyph glyph-name="six.sub" horiz-adv-x="336" 
d="M116 -127c-87 0 -129 54 -129 134c0 68 23 154 56 201c39 54 92 81 159 81c42 0 68 -9 84 -17l-6 -34c-16 6 -41 14 -78 14c-73 0 -132 -38 -159 -161c25 21 64 36 107 36c72 0 112 -44 112 -106c0 -89 -58 -148 -146 -148zM117 -91c60 0 99 44 99 109
c0 48 -29 73 -80 73c-41 0 -72 -13 -98 -33c-4 -17 -5 -38 -5 -55c0 -54 23 -94 84 -94z" />
    <glyph glyph-name="seven.sub" horiz-adv-x="301" 
d="M1 -120l215 362v2h-211l7 38h257l-5 -35l-214 -367h-49z" />
    <glyph glyph-name="eight.sub" horiz-adv-x="347" 
d="M118 -128c-90 0 -143 38 -143 101c0 61 52 94 114 114c-37 20 -66 49 -66 92c0 63 52 111 137 111c70 0 123 -32 123 -96c0 -56 -46 -91 -96 -110c46 -23 79 -51 79 -97c0 -65 -51 -115 -148 -115zM118 -91c72 0 104 32 104 75c0 41 -35 61 -98 86
c-55 -17 -106 -42 -106 -94c0 -40 35 -67 100 -67zM151 101c47 18 88 42 88 90c0 37 -26 62 -81 62c-56 0 -91 -29 -91 -71s35 -62 84 -81z" />
    <glyph glyph-name="nine.sub" horiz-adv-x="338" 
d="M64 -127c-43 0 -69 10 -84 20l6 33c15 -6 39 -15 79 -15c74 0 137 40 157 161c-26 -21 -67 -37 -107 -37c-72 0 -112 45 -112 106c0 89 59 148 144 148c87 0 130 -56 130 -136c0 -74 -19 -155 -54 -205c-34 -47 -86 -75 -159 -75zM129 72c40 0 72 13 98 34
c2 15 3 35 3 52c0 55 -22 95 -84 95c-58 0 -97 -44 -97 -110c0 -47 27 -71 80 -71z" />
    <glyph glyph-name="zero.sup" horiz-adv-x="377" 
d="M201 315c-81 0 -132 50 -132 140c0 29 5 61 11 93c21 108 81 183 186 183c83 0 131 -49 131 -139c0 -29 -5 -62 -11 -92c-20 -107 -78 -185 -185 -185zM205 352c77 0 115 62 133 152c7 33 11 63 11 87c0 66 -25 104 -87 104c-78 0 -116 -62 -134 -152
c-7 -33 -11 -64 -11 -88c0 -65 25 -103 88 -103z" />
    <glyph glyph-name="one.sup" horiz-adv-x="222" 
d="M115 322l62 357l-94 -20l5 30l120 40h24l-71 -407h-46z" />
    <glyph glyph-name="two.sup" horiz-adv-x="315" 
d="M37 322l6 32l118 98c79 66 125 106 125 172c0 42 -24 69 -78 69c-33 0 -69 -10 -96 -24l6 36c31 16 61 26 103 26c75 0 114 -42 114 -103c0 -76 -55 -128 -142 -196l-93 -71v-2h199l-7 -37h-255z" />
    <glyph glyph-name="three.sup" horiz-adv-x="309" 
d="M147 315c-51 0 -90 14 -111 28l6 33c26 -13 61 -23 100 -23c72 0 112 37 112 94c0 42 -33 68 -89 68h-32l6 36h28c58 0 105 28 105 84c0 39 -28 58 -78 58c-31 0 -54 -2 -84 -13l6 34c30 13 57 17 97 17c63 0 105 -35 105 -89c0 -56 -41 -95 -92 -105v-2
c40 -8 76 -37 76 -83c0 -85 -66 -137 -155 -137z" />
    <glyph glyph-name="four.sup" horiz-adv-x="334" 
d="M209 322l21 115h-187l6 32l236 255h41l-44 -252h69l-7 -35h-68l-21 -115h-46zM99 472h137l32 184h-2l-167 -182v-2z" />
    <glyph glyph-name="five.sup" horiz-adv-x="302" 
d="M141 315c-48 0 -83 13 -105 28l6 34c24 -14 59 -24 98 -24c79 0 119 41 119 109c0 46 -30 74 -92 74c-25 0 -52 -2 -81 -10l42 198h209l-7 -37h-172l-27 -123c22 5 37 7 56 7c73 0 118 -38 118 -107c0 -88 -60 -149 -164 -149z" />
    <glyph glyph-name="six.sup" horiz-adv-x="336" 
d="M193 315c-86 0 -129 54 -129 134c0 68 24 154 56 201c40 54 93 81 159 81c42 0 69 -9 85 -17l-7 -34c-16 6 -40 14 -78 14c-73 0 -132 -38 -158 -161c25 21 64 36 106 36c72 0 113 -44 113 -106c0 -89 -59 -148 -147 -148zM194 351c61 0 100 44 100 109
c0 48 -30 73 -80 73c-42 0 -73 -13 -99 -33c-3 -17 -4 -38 -4 -55c0 -54 22 -94 83 -94z" />
    <glyph glyph-name="seven.sup" horiz-adv-x="301" 
d="M79 322l214 362v2h-211l7 38h257l-5 -35l-214 -367h-48z" />
    <glyph glyph-name="eight.sup" horiz-adv-x="347" 
d="M195 314c-90 0 -143 38 -143 101c0 61 52 94 114 114c-36 20 -65 49 -65 92c0 63 51 111 136 111c71 0 124 -32 124 -96c0 -56 -46 -91 -97 -110c46 -23 80 -51 80 -97c0 -65 -52 -115 -149 -115zM195 351c73 0 105 32 105 75c0 41 -36 61 -99 86
c-55 -17 -106 -42 -106 -94c0 -40 36 -67 100 -67zM228 543c47 18 89 42 89 90c0 37 -26 62 -81 62c-57 0 -92 -29 -92 -71s35 -62 84 -81z" />
    <glyph glyph-name="nine.sup" horiz-adv-x="338" 
d="M142 315c-44 0 -69 10 -85 20l6 33c15 -6 39 -15 80 -15c73 0 136 40 157 161c-26 -21 -67 -37 -107 -37c-73 0 -113 45 -113 106c0 89 60 148 145 148c87 0 130 -56 130 -136c0 -74 -19 -155 -55 -205c-34 -47 -85 -75 -158 -75zM207 514c39 0 71 13 97 34
c3 15 4 35 4 52c0 55 -22 95 -84 95c-59 0 -98 -44 -98 -110c0 -47 27 -71 81 -71z" />
    <glyph glyph-name="uni2033" unicode="&#x2033;" horiz-adv-x="284" 
d="M99 531l42 162h59l-53 -162h-48zM217 531l42 162h59l-53 -162h-48z" />
    <glyph glyph-name="uni2032" unicode="&#x2032;" horiz-adv-x="166" 
d="M99 531l42 162h59l-53 -162h-48z" />
    <glyph glyph-name="a.alt" horiz-adv-x="444" 
d="M149 -9c-89 0 -143 50 -143 128c0 98 68 146 184 158l146 15l8 45c17 97 -21 132 -113 132c-48 0 -96 -10 -133 -22l7 41c44 18 95 28 143 28c117 0 172 -56 151 -177l-59 -339h-46l4 53h-3c-29 -31 -76 -62 -146 -62zM161 34c60 0 107 28 140 57l28 160l-135 -13
c-83 -8 -131 -38 -131 -116c0 -55 34 -88 98 -88z" />
    <glyph glyph-name="f.alt" horiz-adv-x="297" 
d="M52 0l82 462h-78l7 45h79l12 65c22 126 97 170 186 170c39 0 63 -8 81 -18l-7 -40c-15 7 -36 13 -70 13c-69 0 -118 -34 -135 -126l-11 -64h123l-7 -45h-125l-82 -462h-55z" />
    <glyph glyph-name="l.alt" horiz-adv-x="219" 
d="M119 -5c-67 0 -97 36 -84 111l112 633h54l-112 -635c-8 -44 5 -64 42 -64c16 0 27 2 40 4l-6 -39c-11 -5 -28 -10 -46 -10z" />
    <glyph glyph-name="aacute.alt" horiz-adv-x="444" 
d="M239 585l94 145h64l-108 -145h-50zM149 -9c-89 0 -143 50 -143 128c0 98 68 146 184 158l146 15l8 45c17 97 -21 132 -113 132c-48 0 -96 -10 -133 -22l7 41c44 18 95 28 143 28c117 0 172 -56 151 -177l-59 -339h-46l4 53h-3c-29 -31 -76 -62 -146 -62zM161 34
c60 0 107 28 140 57l28 160l-135 -13c-83 -8 -131 -38 -131 -116c0 -55 34 -88 98 -88z" />
    <glyph glyph-name="abreve.alt" horiz-adv-x="444" 
d="M149 -9c-89 0 -143 50 -143 128c0 98 68 146 184 158l146 15l8 45c17 97 -21 132 -113 132c-48 0 -96 -10 -133 -22l7 41c44 18 95 28 143 28c117 0 172 -56 151 -177l-59 -339h-46l4 53h-3c-29 -31 -76 -62 -146 -62zM161 34c60 0 107 28 140 57l28 160l-135 -13
c-83 -8 -131 -38 -131 -116c0 -55 34 -88 98 -88zM271 585c-69 0 -113 47 -107 116h42c-2 -45 21 -75 68 -75c49 0 80 28 94 75h42c-17 -72 -68 -116 -139 -116z" />
    <glyph glyph-name="acircumflex.alt" horiz-adv-x="444" 
d="M149 585l117 131h48l74 -131h-44l-59 90l-90 -90h-46zM149 -9c-89 0 -143 50 -143 128c0 98 68 146 184 158l146 15l8 45c17 97 -21 132 -113 132c-48 0 -96 -10 -133 -22l7 41c44 18 95 28 143 28c117 0 172 -56 151 -177l-59 -339h-46l4 53h-3
c-29 -31 -76 -62 -146 -62zM161 34c60 0 107 28 140 57l28 160l-135 -13c-83 -8 -131 -38 -131 -116c0 -55 34 -88 98 -88z" />
    <glyph glyph-name="adieresis.alt" horiz-adv-x="444" 
d="M318 616l11 62h54l-11 -62h-54zM176 616l11 62h54l-12 -62h-53zM149 -9c-89 0 -143 50 -143 128c0 98 68 146 184 158l146 15l8 45c17 97 -21 132 -113 132c-48 0 -96 -10 -133 -22l7 41c44 18 95 28 143 28c117 0 172 -56 151 -177l-59 -339h-46l4 53h-3
c-29 -31 -76 -62 -146 -62zM161 34c60 0 107 28 140 57l28 160l-135 -13c-83 -8 -131 -38 -131 -116c0 -55 34 -88 98 -88z" />
    <glyph glyph-name="agrave.alt" horiz-adv-x="444" 
d="M149 -9c-89 0 -143 50 -143 128c0 98 68 146 184 158l146 15l8 45c17 97 -21 132 -113 132c-48 0 -96 -10 -133 -22l7 41c44 18 95 28 143 28c117 0 172 -56 151 -177l-59 -339h-46l4 53h-3c-29 -31 -76 -62 -146 -62zM161 34c60 0 107 28 140 57l28 160l-135 -13
c-83 -8 -131 -38 -131 -116c0 -55 34 -88 98 -88zM244 585l-68 145h58l57 -145h-47z" />
    <glyph glyph-name="amacron.alt" horiz-adv-x="444" 
d="M149 -9c-89 0 -143 50 -143 128c0 98 68 146 184 158l146 15l8 45c17 97 -21 132 -113 132c-48 0 -96 -10 -133 -22l7 41c44 18 95 28 143 28c117 0 172 -56 151 -177l-59 -339h-46l4 53h-3c-29 -31 -76 -62 -146 -62zM161 34c60 0 107 28 140 57l28 160l-135 -13
c-83 -8 -131 -38 -131 -116c0 -55 34 -88 98 -88zM162 631l8 46h229l-8 -46h-229z" />
    <glyph glyph-name="aogonek.alt" horiz-adv-x="444" 
d="M149 -9c-89 0 -143 50 -143 128c0 98 68 146 184 158l146 15l8 45c17 97 -21 132 -113 132c-48 0 -96 -10 -133 -22l7 41c44 18 95 28 143 28c117 0 172 -56 151 -177l-59 -339c-42 -30 -97 -73 -97 -121c0 -25 16 -39 45 -39c17 0 30 2 39 5l-6 -35
c-10 -5 -28 -9 -44 -9c-59 0 -85 32 -85 72c0 58 55 104 102 131l4 49h-3c-29 -31 -76 -62 -146 -62zM161 34c60 0 107 28 140 57l28 160l-135 -13c-83 -8 -131 -38 -131 -116c0 -55 34 -88 98 -88z" />
    <glyph glyph-name="aring.alt" horiz-adv-x="444" 
d="M280 581c-50 0 -82 36 -82 79c0 49 38 90 89 90s83 -36 83 -78c0 -52 -39 -91 -90 -91zM281 614c31 0 51 23 51 57c0 25 -16 46 -46 46c-31 0 -51 -24 -51 -57c0 -25 16 -46 46 -46zM149 -9c-89 0 -143 50 -143 128c0 98 68 146 184 158l146 15l8 45
c17 97 -21 132 -113 132c-48 0 -96 -10 -133 -22l7 41c44 18 95 28 143 28c117 0 172 -56 151 -177l-59 -339h-46l4 53h-3c-29 -31 -76 -62 -146 -62zM161 34c60 0 107 28 140 57l28 160l-135 -13c-83 -8 -131 -38 -131 -116c0 -55 34 -88 98 -88z" />
    <glyph glyph-name="aringacute.alt" horiz-adv-x="444" 
d="M280 581c-50 0 -82 36 -82 79c0 49 38 90 89 90s83 -36 83 -78c0 -52 -39 -91 -90 -91zM281 614c31 0 51 23 51 57c0 25 -16 46 -46 46c-31 0 -51 -24 -51 -57c0 -25 16 -46 46 -46zM149 -9c-89 0 -143 50 -143 128c0 98 68 146 184 158l146 15l8 45
c17 97 -21 132 -113 132c-48 0 -96 -10 -133 -22l7 41c44 18 95 28 143 28c117 0 172 -56 151 -177l-59 -339h-46l4 53h-3c-29 -31 -76 -62 -146 -62zM161 34c60 0 107 28 140 57l28 160l-135 -13c-83 -8 -131 -38 -131 -116c0 -55 34 -88 98 -88zM276 789l81 125h64
l-95 -125h-50z" />
    <glyph glyph-name="atilde.alt" horiz-adv-x="444" 
d="M149 -9c-89 0 -143 50 -143 128c0 98 68 146 184 158l146 15l8 45c17 97 -21 132 -113 132c-48 0 -96 -10 -133 -22l7 41c44 18 95 28 143 28c117 0 172 -56 151 -177l-59 -339h-46l4 53h-3c-29 -31 -76 -62 -146 -62zM161 34c60 0 107 28 140 57l28 160l-135 -13
c-83 -8 -131 -38 -131 -116c0 -55 34 -88 98 -88zM141 608c11 58 48 85 86 85c43 0 75 -39 108 -39c21 0 38 13 45 40h38c-11 -58 -48 -85 -85 -85c-43 0 -76 39 -108 39c-22 0 -38 -14 -45 -40h-39z" />
    <glyph glyph-name="lacute.alt" horiz-adv-x="219" 
d="M119 -5c-67 0 -97 36 -84 111l112 633h54l-112 -635c-8 -44 5 -64 42 -64c16 0 27 2 40 4l-6 -39c-11 -5 -28 -10 -46 -10zM157 780l81 125h64l-95 -125h-50z" />
    <glyph glyph-name="lcaron.alt" horiz-adv-x="219" 
d="M119 -5c-67 0 -97 36 -84 111l112 633h54l-112 -635c-8 -44 5 -64 42 -64c16 0 27 2 40 4l-6 -39c-11 -5 -28 -10 -46 -10zM260 588h-39l34 151h55z" />
    <glyph glyph-name="lcommaaccent.alt" horiz-adv-x="219" 
d="M10 -175l34 133h58l-49 -133h-43zM119 -5c-67 0 -97 36 -84 111l112 633h54l-112 -635c-8 -44 5 -64 42 -64c16 0 27 2 40 4l-6 -39c-11 -5 -28 -10 -46 -10z" />
    <glyph glyph-name="ldot.alt" horiz-adv-x="229" 
d="M119 -5c-67 0 -97 36 -84 111l112 633h54l-112 -635c-8 -44 5 -64 42 -64c16 0 27 2 40 4l-6 -39c-11 -5 -28 -10 -46 -10zM187 330l14 70h57l-12 -70h-59z" />
    <glyph glyph-name="lslash.alt" horiz-adv-x="228" 
d="M19 336l9 50l71 36l56 317h54l-50 -286l95 50l-9 -51l-95 -49l-53 -299c-7 -44 6 -64 42 -64c16 0 28 2 41 4l-7 -39c-10 -5 -27 -10 -46 -10c-67 0 -97 36 -84 111l47 266z" />
    <glyph glyph-name="germandbls.alt" horiz-adv-x="511" 
d="M18 0l96 548c23 130 111 194 222 194c99 0 149 -47 149 -115c0 -130 -186 -183 -186 -266c0 -31 19 -46 55 -72l40 -28c45 -31 74 -67 74 -121c0 -88 -68 -149 -171 -149c-68 0 -105 18 -130 34l8 45c32 -17 62 -32 121 -32c81 0 118 44 118 100c0 36 -22 61 -57 86
l-37 26c-42 30 -73 57 -73 103c0 108 184 160 184 268c0 46 -33 76 -101 76c-85 0 -144 -47 -162 -153l-96 -544h-54z" />
    <glyph glyph-name="f_b.alt" horiz-adv-x="771" 
d="M301 24l116 661c-12 7 -35 12 -66 12c-76 0 -127 -33 -144 -126l-11 -64h123l-7 -45h-124l-82 -462h-54l82 462h-79l7 45h80l11 65c22 124 103 170 199 170c59 0 99 -13 125 -27l-47 -266h3c43 34 97 67 169 67c90 0 147 -55 147 -163c0 -185 -78 -361 -276 -361
c-57 0 -132 10 -172 32zM423 407l-62 -351c30 -14 78 -20 117 -20c129 0 189 100 211 240c4 23 5 50 5 71c-1 91 -46 122 -113 122c-62 0 -115 -29 -158 -62z" />
    <glyph glyph-name="f_f.alt" horiz-adv-x="535" 
d="M292 0l81 462h-185l-82 -462h-54l82 462h-79l7 45h80l12 68c20 113 84 160 168 160c29 0 50 -6 65 -13l-7 -41c-12 5 -29 9 -55 9c-63 0 -103 -37 -117 -116l-12 -67h186l11 65c21 124 96 170 185 170c39 0 63 -8 81 -18l-7 -40c-15 7 -36 13 -72 13
c-67 0 -117 -35 -133 -126l-11 -64h123l-7 -45h-125l-81 -462h-54z" />
    <glyph glyph-name="f_f_b.alt" horiz-adv-x="1012" 
d="M541 24l116 661c-12 7 -35 12 -66 12c-76 0 -127 -33 -144 -126l-11 -64h123l-7 -45h-124l-81 -462h-55l82 462h-186l-82 -462h-54l82 462h-79l7 45h80l12 68c20 113 84 160 168 160c29 0 50 -6 65 -13l-7 -41c-12 5 -29 9 -55 9c-63 0 -103 -37 -117 -116l-12 -67h186
l11 65c22 124 104 170 200 170c58 0 98 -13 124 -27l-47 -266h3c44 34 98 67 169 67c90 0 148 -55 148 -163c0 -185 -79 -361 -276 -361c-57 0 -133 10 -173 32zM663 407l-62 -351c30 -14 78 -20 117 -20c129 0 190 100 211 240c4 23 5 50 5 71c-1 91 -46 122 -112 122
c-63 0 -116 -29 -159 -62z" />
    <glyph glyph-name="f_f_h.alt" horiz-adv-x="1018" 
d="M292 0l82 462h-186l-82 -462h-54l82 462h-79l7 45h80l12 68c20 113 84 160 168 160c29 0 50 -6 65 -13l-7 -41c-12 5 -29 9 -55 9c-63 0 -103 -37 -117 -116l-12 -67h186l11 65c22 124 104 170 200 170c58 0 98 -13 124 -27l-46 -268h4c57 41 123 69 189 69
c89 0 117 -48 117 -109c0 -13 -2 -27 -4 -40l-64 -367h-55l64 360c2 14 4 27 4 38c0 45 -22 71 -83 71c-57 0 -119 -23 -180 -61l-72 -408h-55l121 685c-12 7 -35 12 -66 12c-76 0 -127 -33 -144 -126l-11 -64h123l-7 -45h-124l-81 -462h-55z" />
    <glyph glyph-name="f_f_i.alt" horiz-adv-x="701" 
d="M292 0l82 462h-186l-82 -462h-54l82 462h-79l7 45h80l12 68c20 113 84 160 168 160c29 0 50 -6 65 -13l-7 -41c-12 5 -29 9 -55 9c-63 0 -103 -37 -117 -116l-12 -67h186l13 75c20 114 87 160 168 160c27 0 47 -6 61 -14l-7 -40c-15 6 -31 9 -52 9
c-57 0 -101 -34 -116 -116l-13 -74h245l-89 -507h-55l81 462h-190l-81 -462h-55zM645 616l11 62h55l-11 -62h-55z" />
    <glyph glyph-name="f_f_j.alt" horiz-adv-x="701" 
d="M292 0l82 462h-186l-82 -462h-54l82 462h-79l7 45h80l12 68c20 113 84 160 168 160c29 0 50 -6 65 -13l-7 -41c-12 5 -29 9 -55 9c-63 0 -103 -37 -117 -116l-12 -67h186l13 75c20 114 87 160 168 160c27 0 47 -6 61 -14l-7 -40c-15 6 -31 9 -52 9
c-57 0 -101 -34 -116 -116l-13 -74h245l-101 -571c-15 -86 -60 -132 -141 -132c-28 0 -56 6 -72 17l7 38c16 -6 32 -10 56 -10c57 0 86 28 97 91l91 522h-190l-81 -462h-55zM645 616l11 62h55l-11 -62h-55z" />
    <glyph glyph-name="f_f_k.alt" horiz-adv-x="954" 
d="M292 0l82 462h-186l-82 -462h-54l82 462h-79l7 45h80l12 68c20 113 84 160 168 160c29 0 50 -6 65 -13l-7 -41c-12 5 -29 9 -55 9c-63 0 -103 -37 -117 -116l-12 -67h186l11 65c22 124 104 170 200 170c58 0 98 -13 124 -27l-126 -715h-54l120 685c-12 7 -35 12 -66 12
c-76 0 -127 -33 -144 -126l-11 -64h123l-7 -45h-124l-81 -462h-55zM832 0l-160 267l234 240h64l-239 -241l162 -266h-61z" />
    <glyph glyph-name="f_f_l.alt" horiz-adv-x="695" 
d="M292 0l82 462h-186l-82 -462h-54l82 462h-79l7 45h80l12 68c20 113 84 160 168 160c29 0 50 -6 65 -13l-7 -41c-12 5 -29 9 -55 9c-63 0 -103 -37 -117 -116l-12 -67h186l11 65c22 124 104 170 200 170c58 0 98 -13 124 -27l-126 -715h-54l120 685c-12 7 -35 12 -66 12
c-76 0 -127 -33 -144 -126l-11 -64h123l-7 -45h-124l-81 -462h-55z" />
    <glyph glyph-name="f_f_l.alt1" horiz-adv-x="736" 
d="M640 -5c-67 0 -97 36 -83 114l101 576c-12 7 -35 12 -66 12c-76 0 -127 -33 -144 -126l-11 -64h123l-7 -45h-124l-115 -657h-54l115 657h-186l-115 -657h-55l116 657h-79l7 45h80l12 68c20 113 84 160 168 160c29 0 50 -6 65 -13l-7 -41c-12 5 -29 9 -55 9
c-63 0 -103 -37 -117 -116l-12 -67h186l11 65c22 124 104 170 200 170c58 0 98 -13 124 -27l-107 -608c-8 -47 5 -67 39 -67c18 0 30 2 43 4l-7 -38c-10 -6 -27 -11 -46 -11z" />
    <glyph glyph-name="f_f_l.alt2" horiz-adv-x="735" 
d="M639 -5c-67 0 -97 36 -83 114l101 576c-12 7 -35 12 -66 12c-76 0 -127 -33 -144 -126l-11 -64h123l-7 -45h-124l-81 -462h-55l82 462h-186l-82 -462h-54l82 462h-79l7 45h80l12 68c20 113 84 160 168 160c29 0 50 -6 65 -13l-7 -41c-12 5 -29 9 -55 9
c-63 0 -103 -37 -117 -116l-12 -67h186l11 65c22 124 104 170 200 170c58 0 98 -13 124 -27l-107 -608c-8 -47 5 -67 39 -67c18 0 30 2 43 4l-7 -38c-10 -6 -27 -11 -46 -11z" />
    <glyph glyph-name="f_h.alt" horiz-adv-x="778" 
d="M52 0l82 462h-79l7 45h80l11 65c22 124 103 170 199 170c59 0 99 -13 125 -27l-46 -268h3c58 41 124 69 190 69c88 0 117 -48 117 -109c0 -13 -2 -27 -4 -40l-65 -367h-54l63 360c3 14 4 27 4 38c0 45 -21 71 -82 71c-58 0 -119 -23 -180 -61l-73 -408h-54l121 685
c-12 7 -35 12 -66 12c-76 0 -127 -33 -144 -126l-11 -64h123l-7 -45h-124l-82 -462h-54z" />
    <glyph glyph-name="f_i.alt" horiz-adv-x="461" 
d="M52 0l82 462h-79l7 45h80l13 75c20 114 86 160 168 160c26 0 47 -6 61 -14l-7 -40c-15 6 -31 9 -52 9c-58 0 -101 -34 -116 -116l-13 -74h244l-88 -507h-55l81 462h-190l-82 -462h-54zM405 616l11 62h55l-11 -62h-55z" />
    <glyph glyph-name="f_j.alt" horiz-adv-x="461" 
d="M52 0l82 462h-79l7 45h80l13 75c20 114 86 160 168 160c26 0 47 -6 61 -14l-7 -40c-15 6 -31 9 -52 9c-58 0 -101 -34 -116 -116l-13 -74h244l-100 -571c-15 -86 -60 -132 -141 -132c-28 0 -56 6 -72 17l6 38c16 -6 33 -10 56 -10c58 0 87 28 98 91l91 522h-190l-82 -462
h-54zM405 616l11 62h55l-11 -62h-55z" />
    <glyph glyph-name="f_k.alt" horiz-adv-x="714" 
d="M592 0l-161 267l235 240h64l-239 -241l162 -266h-61zM52 0l82 462h-79l7 45h80l11 65c22 124 103 170 199 170c59 0 99 -13 125 -27l-126 -715h-54l120 685c-12 7 -35 12 -66 12c-76 0 -127 -33 -144 -126l-11 -64h123l-7 -45h-124l-82 -462h-54z" />
    <glyph glyph-name="f_l.alt" horiz-adv-x="455" 
d="M52 0l82 462h-79l7 45h80l11 65c22 124 103 170 199 170c59 0 99 -13 125 -27l-126 -715h-54l120 685c-12 7 -35 12 -66 12c-76 0 -127 -33 -144 -126l-11 -64h123l-7 -45h-124l-82 -462h-54z" />
    <glyph glyph-name="f_l.alt1" 
d="M399 -5c-66 0 -96 36 -82 114l101 576c-12 7 -35 12 -66 12c-76 0 -127 -33 -144 -126l-11 -64h123l-7 -45h-124l-115 -657h-55l116 657h-79l7 45h80l11 65c22 124 103 170 199 170c59 0 99 -13 125 -27l-107 -608c-9 -47 4 -67 39 -67c18 0 29 2 42 4l-6 -38
c-11 -6 -28 -11 -47 -11z" />
    <glyph glyph-name="f_l.alt2" horiz-adv-x="495" 
d="M398 -5c-66 0 -96 36 -82 114l101 576c-12 7 -35 12 -66 12c-76 0 -127 -33 -144 -126l-11 -64h123l-7 -45h-124l-82 -462h-54l82 462h-79l7 45h80l11 65c22 124 103 170 199 170c59 0 99 -13 125 -27l-107 -608c-9 -47 4 -67 39 -67c18 0 29 2 42 4l-6 -38
c-11 -6 -28 -11 -47 -11z" />
    <glyph glyph-name="registered.alt" horiz-adv-x="793" 
d="M412 -11c-203 0 -353 160 -353 356c0 195 150 355 353 355c202 0 353 -160 353 -355c0 -196 -151 -356 -353 -356zM412 25c181 0 310 137 310 320c0 181 -129 319 -310 319c-182 0 -310 -138 -310 -319c0 -183 128 -320 310 -320zM292 159v379h120c96 0 139 -38 139 -109
c0 -55 -28 -90 -84 -101v-2l107 -167h-58l-100 159h-72v-159h-52zM344 358h70c58 0 84 26 84 72c0 47 -28 66 -87 66h-67v-138z" />
    <glyph glyph-name="questiondown.uc" horiz-adv-x="391" 
d="M174 -10c-98 0 -163 52 -163 142c0 85 36 127 133 194c67 47 100 68 110 128l10 59h51l-9 -62c-13 -75 -48 -105 -134 -162c-81 -55 -103 -92 -103 -153c0 -63 42 -98 121 -98c56 0 92 10 144 31l-7 -45c-53 -23 -91 -34 -153 -34zM277 620l14 73h61l-14 -73h-61z" />
    <glyph glyph-name="exclamdown.uc" horiz-adv-x="228" 
d="M40 0l98 513h46l-85 -513h-59zM149 620l13 73h59l-14 -73h-58z" />
    <glyph glyph-name="hyphen.uc" horiz-adv-x="316" 
d="M65 318l8 46h208l-8 -46h-208z" />
    <glyph glyph-name="endash.uc" horiz-adv-x="414" 
d="M41 319l8 44h355l-8 -44h-355z" />
    <glyph glyph-name="emdash.uc" horiz-adv-x="680" 
d="M41 319l8 44h621l-8 -44h-621z" />
    <glyph glyph-name="guilsinglleft.uc" horiz-adv-x="256" 
d="M125 90l-76 181l3 23l142 181h52l-144 -195l73 -190h-50z" />
    <glyph glyph-name="guilsinglright.uc" horiz-adv-x="256" 
d="M19 90l144 195l-73 190h50l76 -181l-4 -23l-141 -181h-52z" />
    <glyph glyph-name="guillemotleft.uc" horiz-adv-x="411" 
d="M281 90l-76 181l3 23l141 181h52l-143 -195l73 -190h-50zM125 90l-76 181l3 23l142 181h52l-144 -195l73 -190h-50z" />
    <glyph glyph-name="guillemotright.uc" horiz-adv-x="411" 
d="M175 90l144 195l-73 190h49l76 -181l-3 -23l-141 -181h-52zM19 90l144 195l-73 190h50l76 -181l-4 -23l-141 -181h-52z" />
    <glyph glyph-name="parenleft.uc" horiz-adv-x="281" 
d="M157 -91c-52 73 -101 202 -101 336c0 225 113 408 234 523h49c-118 -123 -227 -297 -227 -522c0 -126 36 -252 92 -337h-47z" />
    <glyph glyph-name="parenright.uc" horiz-adv-x="281" 
d="M153 767c53 -72 101 -202 101 -336c0 -224 -113 -407 -234 -523h-49c118 124 227 298 227 523c0 126 -35 251 -92 336h47z" />
    <glyph glyph-name="bracketleft.uc" horiz-adv-x="301" 
d="M14 -91l151 859h198l-7 -44h-144l-136 -771h144l-8 -44h-198z" />
    <glyph glyph-name="bracketright.uc" horiz-adv-x="301" 
d="M-33 -91l7 44h144l136 771h-145l8 44h199l-151 -859h-198z" />
    <glyph glyph-name="braceleft.uc" horiz-adv-x="333" 
d="M243 -94c-115 6 -155 53 -155 120c0 12 1 24 3 37l28 155c11 67 -14 94 -92 99l9 47c78 6 113 24 125 94l29 160c17 97 62 146 206 152l-7 -44c-93 -8 -132 -31 -146 -110l-28 -160c-12 -65 -45 -104 -124 -116v-2c66 -12 91 -47 84 -105c0 -4 -18 -107 -19 -112
c-1 -7 -12 -70 -12 -76c-5 -65 29 -87 108 -94z" />
    <glyph glyph-name="braceright.uc" horiz-adv-x="333" 
d="M-33 -94l7 45c93 7 132 31 145 109l29 160c12 66 46 105 124 116v3c-66 11 -91 46 -84 104c0 4 18 108 19 112c1 7 12 71 12 77c5 65 -29 87 -108 94l8 44c116 -6 156 -52 156 -120c0 -11 -1 -23 -3 -36l-28 -156c-12 -66 14 -93 91 -99l-9 -47c-76 -5 -112 -24 -124 -94
l-29 -160c-17 -97 -61 -145 -206 -152z" />
    <glyph glyph-name="slash.uc" horiz-adv-x="317" 
d="M-37 -60l368 793h51l-368 -793h-51z" />
    <glyph glyph-name="backslash.uc" horiz-adv-x="305" 
d="M189 -60l-92 793h47l92 -793h-47z" />
    <glyph glyph-name="bar.uc" horiz-adv-x="255" 
d="M111 -60v793h51v-793h-51z" />
    <glyph glyph-name="at.uc" horiz-adv-x="742" 
d="M345 -10c-202 0 -305 115 -305 282c0 216 170 431 424 431c173 0 278 -106 278 -261c0 -164 -93 -293 -214 -293c-57 0 -78 30 -80 65h-3c-24 -35 -74 -65 -125 -65c-69 0 -107 46 -107 115c0 163 123 273 233 273c50 0 93 -11 115 -22l-63 -266c-8 -34 -5 -61 36 -61
c86 0 161 108 161 249c0 128 -76 225 -234 225c-220 0 -373 -182 -373 -389c0 -148 87 -242 260 -242c82 0 168 21 213 38l-6 -37c-50 -23 -129 -42 -210 -42zM336 190c47 0 83 28 110 62l56 232c-16 8 -33 13 -62 13c-80 0 -174 -97 -174 -227c0 -50 23 -80 70 -80z" />
    <glyph glyph-name="uni2009" unicode="&#x2009;" horiz-adv-x="88" 
 />
    </font>
</defs>
</svg>
