<?xml version="1.0" standalone="no"?>
<!DOCTYPE svg PUBLIC "-//W3C//DTD SVG 1.1//EN" "http://www.w3.org/Graphics/SVG/1.1/DTD/svg11.dtd" >
<svg xmlns="http://www.w3.org/2000/svg" xmlns:xlink="http://www.w3.org/1999/xlink" version="1.1">
<metadata>
Created by FontForge 20161116 at Thu Feb 13 17:43:17 2014
 By Jimmy Warting
(c)2008-09 Paul Barnes and Christian Schwartz, under exclusive license to Schwartzco Inc./Commercial Type. All rights reserved.
</metadata>
<defs>
<font id="GuardianSans-RegularIt" horiz-adv-x="494" >
  <font-face 
    font-family="Guardian Sans Regular"
    font-weight="400"
    font-style="italic"
    font-stretch="normal"
    units-per-em="1000"
    panose-1="2 11 5 3 5 5 3 13 8 3"
    ascent="790"
    descent="-210"
    x-height="513"
    cap-height="693"
    bbox="-217 -217 1106 1061"
    underline-thickness="102"
    underline-position="-51"
    slope="-10"
    stemh="74"
    stemv="88"
    unicode-range="U+0020-FB04"
  />
<missing-glyph horiz-adv-x="500" 
 />
    <glyph glyph-name="f_b" unicode="fb" horiz-adv-x="818" 
d="M319 23l113 642c-12 5 -34 11 -68 11c-68 0 -113 -26 -127 -103l-11 -60h117l-12 -73h-119l-110 -635h-88l111 635h-74l12 73h75l11 61c23 129 121 174 217 174c84 0 133 -18 163 -35l-44 -248h5c42 29 87 58 156 58c91 0 150 -57 150 -169c0 -187 -75 -364 -291 -364
c-63 0 -145 11 -186 33zM474 403l-58 -327c26 -11 64 -15 97 -15c119 0 165 83 188 216c4 23 5 48 5 66c-1 87 -43 105 -96 105c-51 0 -99 -21 -136 -45z" />
    <glyph glyph-name="f_f" unicode="ff" horiz-adv-x="574" 
d="M273 -195l111 635h-172l-110 -635h-88l111 635h-74l12 73h75l10 54c24 128 93 173 180 173c33 0 57 -6 72 -15l-11 -64c-9 3 -27 7 -51 7c-56 0 -89 -33 -102 -102l-10 -53h171l11 61c23 129 101 174 194 174c39 0 64 -9 82 -20l-11 -63c-12 5 -33 11 -64 11
c-60 0 -99 -29 -113 -103l-11 -60h117l-12 -73h-119l-110 -635h-88z" />
    <glyph glyph-name="f_f_b" unicode="ffb" horiz-adv-x="1078" 
d="M579 23l113 642c-12 5 -34 11 -68 11c-68 0 -113 -26 -127 -103l-11 -60h117l-12 -73h-119l-110 -635h-88l111 635h-173l-110 -635h-88l111 635h-74l12 73h75l10 54c24 128 93 173 180 173c33 0 57 -6 72 -15l-11 -64c-9 3 -27 7 -51 7c-56 0 -89 -33 -102 -102l-10 -53
h172l11 61c23 129 121 174 217 174c84 0 133 -18 163 -35l-44 -248h5c42 29 87 58 156 58c91 0 150 -57 150 -169c0 -187 -75 -364 -291 -364c-63 0 -145 11 -186 33zM734 403l-58 -327c26 -11 64 -15 97 -15c119 0 165 83 188 216c4 23 5 48 5 66c-1 87 -43 105 -96 105
c-51 0 -99 -21 -136 -45z" />
    <glyph glyph-name="f_f_h" unicode="ffh" horiz-adv-x="1080" 
d="M274 -195l111 635h-173l-110 -635h-88l111 635h-74l12 73h75l10 54c24 128 93 173 180 173c33 0 57 -6 72 -15l-11 -64c-9 3 -27 7 -51 7c-56 0 -89 -33 -102 -102l-10 -53h172l11 61c23 129 121 174 217 174c84 0 133 -18 163 -35l-41 -250h5c50 36 104 60 167 60
c96 0 123 -59 123 -123c0 -14 -2 -28 -4 -41l-63 -359h-88l61 346c3 15 4 28 4 39c0 42 -19 62 -71 62c-45 0 -92 -12 -148 -44l-71 -403h-88l117 665c-12 5 -34 11 -68 11c-68 0 -113 -26 -127 -103l-11 -60h117l-12 -73h-119l-110 -635h-88z" />
    <glyph glyph-name="f_f_i" unicode="ffi" horiz-adv-x="772" 
d="M274 -195l111 635h-173l-110 -635h-88l111 635h-74l12 73h75l10 54c24 128 93 173 180 173c33 0 57 -6 72 -15l-11 -64c-9 3 -27 7 -51 7c-56 0 -89 -33 -102 -102l-10 -53h172l11 61c23 129 97 174 183 174c31 0 54 -8 66 -16l-11 -63c-14 4 -29 7 -50 7
c-47 0 -86 -27 -100 -103l-11 -60h267l-90 -513h-88l77 440h-180l-110 -635h-88zM682 615l16 91h89l-16 -91h-89z" />
    <glyph glyph-name="f_f_j" unicode="ffj" horiz-adv-x="772" 
d="M422 -180l10 59c15 -5 31 -7 47 -7c56 0 78 27 89 88l84 480h-180l-110 -635h-88l111 635h-173l-110 -635h-88l111 635h-74l12 73h75l10 54c24 128 93 173 180 173c33 0 57 -6 72 -15l-11 -64c-9 3 -27 7 -51 7c-56 0 -89 -33 -102 -102l-10 -53h172l11 61
c23 129 97 174 183 174c31 0 54 -8 66 -16l-11 -63c-14 4 -29 7 -50 7c-47 0 -86 -27 -100 -103l-11 -60h267l-99 -563c-17 -99 -68 -149 -158 -149c-28 0 -55 6 -74 19zM682 615l16 91h89l-16 -91h-89z" />
    <glyph glyph-name="f_f_k" unicode="ffk" horiz-adv-x="1030" 
d="M274 -195l111 635h-173l-110 -635h-88l111 635h-74l12 73h75l10 54c24 128 93 173 180 173c33 0 57 -6 72 -15l-11 -64c-9 3 -27 7 -51 7c-56 0 -89 -33 -102 -102l-10 -53h172l11 61c23 129 121 174 217 174c84 0 133 -18 163 -35l-126 -713h-88l117 665
c-12 5 -34 11 -68 11c-68 0 -113 -26 -127 -103l-11 -60h117l-12 -73h-119l-110 -635h-88zM878 0l-143 267l214 246h101l-221 -247l146 -266h-97z" />
    <glyph glyph-name="f_f_l" unicode="ffl" horiz-adv-x="768" 
d="M274 -195l111 635h-173l-110 -635h-88l111 635h-74l12 73h75l10 54c24 128 93 173 180 173c33 0 57 -6 72 -15l-11 -64c-9 3 -27 7 -51 7c-56 0 -89 -33 -102 -102l-10 -53h172l11 61c23 129 121 174 217 174c84 0 133 -18 163 -35l-126 -713h-88l117 665
c-12 5 -34 11 -68 11c-68 0 -113 -26 -127 -103l-11 -60h117l-12 -73h-119l-110 -635h-88z" />
    <glyph glyph-name="f_h" unicode="fh" horiz-adv-x="820" 
d="M14 -195l111 635h-74l12 73h75l11 61c23 129 121 174 217 174c84 0 133 -18 163 -35l-41 -250h5c50 36 104 60 167 60c96 0 123 -59 123 -123c0 -14 -2 -28 -4 -41l-63 -359h-88l61 346c3 15 4 28 4 39c0 42 -19 62 -71 62c-45 0 -92 -12 -148 -44l-71 -403h-88l117 665
c-12 5 -34 11 -68 11c-68 0 -113 -26 -127 -103l-11 -60h117l-12 -73h-119l-110 -635h-88z" />
    <glyph glyph-name="f_i" unicode="fi" horiz-adv-x="512" 
d="M14 -195l111 635h-74l12 73h75l11 61c23 129 97 174 183 174c31 0 54 -8 66 -16l-11 -63c-14 4 -29 7 -50 7c-47 0 -86 -27 -100 -103l-11 -60h267l-90 -513h-88l77 440h-180l-110 -635h-88zM422 615l16 91h89l-16 -91h-89z" />
    <glyph glyph-name="f_j" unicode="fj" horiz-adv-x="512" 
d="M162 -180l10 59c15 -5 31 -7 47 -7c56 0 78 27 89 88l84 480h-180l-110 -635h-88l111 635h-74l12 73h75l11 61c23 129 97 174 183 174c31 0 54 -8 66 -16l-11 -63c-14 4 -29 7 -50 7c-47 0 -86 -27 -100 -103l-11 -60h267l-99 -563c-17 -99 -68 -149 -158 -149
c-28 0 -55 6 -74 19zM422 615l16 91h89l-16 -91h-89z" />
    <glyph glyph-name="f_k" unicode="fk" horiz-adv-x="770" 
d="M618 0l-143 267l214 246h101l-221 -247l146 -266h-97zM14 -195l111 635h-74l12 73h75l11 61c23 129 121 174 217 174c84 0 133 -18 163 -35l-126 -713h-88l117 665c-12 5 -34 11 -68 11c-68 0 -113 -26 -127 -103l-11 -60h117l-12 -73h-119l-110 -635h-88z" />
    <glyph glyph-name="f_l" unicode="fl" horiz-adv-x="508" 
d="M14 -195l111 635h-74l12 73h75l11 61c23 129 121 174 217 174c84 0 133 -18 163 -35l-126 -713h-88l117 665c-12 5 -34 11 -68 11c-68 0 -113 -26 -127 -103l-11 -60h117l-12 -73h-119l-110 -635h-88z" />
    <glyph glyph-name=".notdef" horiz-adv-x="500" 
 />
    <glyph glyph-name="Eth" unicode="&#xd0;" horiz-adv-x="628" 
d="M11 309l14 77h71l54 307h189c180 0 279 -91 279 -254c0 -268 -121 -439 -368 -439h-222l54 309h-71zM132 77h124c161 0 227 88 255 250c7 42 10 79 10 112c0 120 -60 177 -198 177h-96l-41 -230h187l-14 -77h-186z" />
    <glyph glyph-name="eth" unicode="&#xf0;" horiz-adv-x="514" 
d="M167 610l114 44c-25 28 -54 56 -87 85h108c19 -17 38 -35 56 -55l109 43l19 -53l-91 -36c54 -73 94 -163 94 -268c0 -225 -92 -380 -270 -380c-123 0 -196 81 -196 204c0 167 89 329 263 329c35 0 64 -8 84 -21h7c-13 37 -33 72 -58 106l-132 -51zM402 355
c0 24 -2 46 -5 68c-28 18 -60 29 -114 29c-95 0 -144 -71 -164 -186c-3 -18 -8 -51 -8 -71c0 -95 48 -134 112 -134c96 0 151 84 170 191c6 32 9 74 9 103z" />
    <glyph glyph-name="Lslash" unicode="&#x141;" horiz-adv-x="477" 
d="M35 0l43 247l-82 -33l13 78l83 33l65 368h91l-58 -329l221 88l-14 -78l-221 -88l-36 -209h288l-14 -77h-379z" />
    <glyph glyph-name="lslash" unicode="&#x142;" horiz-adv-x="242" 
d="M14 299l14 80l77 40l57 320h88l-48 -269l87 45l-14 -80l-87 -45l-68 -390h-88l59 339z" />
    <glyph glyph-name="Scaron" unicode="&#x160;" horiz-adv-x="475" 
d="M185 -12c-99 0 -159 28 -201 55l13 77c50 -29 109 -55 195 -55c105 0 149 50 149 142c0 43 -19 70 -82 98l-68 30c-72 32 -110 80 -110 165c0 120 78 204 226 204c102 0 142 -25 178 -46l-14 -76c-39 20 -86 45 -172 45c-85 0 -130 -39 -130 -124c0 -44 17 -70 70 -93
l68 -30c83 -36 125 -79 125 -168c0 -112 -62 -224 -247 -224zM473 864l-120 -124h-72l-78 124h67l54 -61l78 61h71z" />
    <glyph glyph-name="scaron" unicode="&#x161;" horiz-adv-x="409" 
d="M160 -9c-80 0 -127 20 -163 44l12 70c37 -19 78 -40 152 -40c85 0 110 37 110 80c0 30 -18 51 -68 71l-47 19c-60 24 -98 60 -98 130c0 99 69 157 185 157c83 0 120 -22 146 -38l-13 -70c-27 14 -73 35 -140 35c-63 0 -95 -29 -95 -73c0 -36 17 -52 59 -69l47 -19
c78 -32 111 -63 111 -132c0 -90 -54 -165 -198 -165zM206 587l-78 144h68l57 -79l83 79h72l-126 -144h-76z" />
    <glyph glyph-name="Yacute" unicode="&#xdd;" horiz-adv-x="522" 
d="M173 0l48 275l-138 418h91l107 -340h3l216 340h93l-281 -421l-48 -272h-91zM309 740l73 125h103l-97 -125h-79z" />
    <glyph glyph-name="yacute" unicode="&#xfd;" horiz-adv-x="468" 
d="M4 -199c-30 0 -53 8 -67 17l11 63c13 -4 29 -7 49 -7c47 0 78 23 112 82l34 60l-89 497h93l59 -383h3l204 383h91l-318 -574c-53 -96 -100 -138 -182 -138zM238 587l86 145h102l-110 -145h-78z" />
    <glyph glyph-name="Thorn" unicode="&#xde;" horiz-adv-x="531" 
d="M28 0l122 693h91l-21 -121h104c130 0 205 -63 205 -180c0 -153 -99 -227 -258 -227h-123l-29 -165h-91zM161 241h104c118 0 167 37 167 144c0 66 -31 110 -121 110h-105z" />
    <glyph glyph-name="thorn" unicode="&#xfe;" horiz-adv-x="520" 
d="M-17 -195l164 934h88l-48 -274h5c42 29 87 58 158 58c89 0 148 -59 148 -179c0 -188 -74 -354 -283 -354c-45 0 -83 8 -108 19l-36 -204h-88zM215 61c124 0 165 72 188 205c4 23 5 48 5 66c-1 94 -43 116 -94 116c-53 0 -101 -21 -138 -45l-57 -325c27 -12 68 -17 96 -17
z" />
    <glyph glyph-name="Zcaron" unicode="&#x17d;" horiz-adv-x="511" 
d="M-18 0l12 69l444 544v3h-325l13 77h437l-12 -68l-447 -545v-3h344l-14 -77h-452zM504 864l-120 -124h-72l-78 124h67l54 -61l78 61h71z" />
    <glyph glyph-name="zcaron" unicode="&#x17e;" horiz-adv-x="419" 
d="M-12 0l11 65l313 373v3h-238l12 72h348l-11 -63l-316 -375v-3h254l-13 -72h-360zM231 587l-78 144h68l57 -79l83 79h72l-126 -144h-76z" />
    <glyph glyph-name="onehalf" unicode="&#xbd;" horiz-adv-x="800" 
d="M106 282l60 342l-95 -13l8 46l136 44h38l-74 -419h-73zM21 -40l595 753h74l-595 -753h-74zM445 -1l9 50l107 92c73 63 118 103 118 163c0 39 -24 59 -65 59c-34 0 -69 -9 -96 -21l10 54c31 17 59 26 107 26c78 0 123 -44 123 -110c0 -74 -56 -132 -142 -198l-72 -55v-2
h178l-10 -58h-267z" />
    <glyph glyph-name="onequarter" unicode="&#xbc;" horiz-adv-x="767" 
d="M106 282l60 342l-95 -13l8 46l136 44h38l-74 -419h-73zM25 -40l595 753h74l-595 -753h-74zM555 0l19 109h-185l9 50l237 257h66l-44 -253h67l-10 -54h-67l-19 -109h-73zM474 163h110l26 149h-3l-133 -146v-3z" />
    <glyph glyph-name="threequarters" unicode="&#xbe;" horiz-adv-x="807" 
d="M150 275c-53 0 -92 13 -114 29l9 51c26 -12 62 -21 96 -21c67 0 98 32 98 77c0 38 -27 59 -81 59h-30l10 55h24c56 0 97 19 97 70c0 36 -27 51 -70 51c-25 0 -49 -1 -77 -10l9 53c28 12 60 16 99 16c65 0 112 -38 112 -98c0 -55 -42 -93 -93 -105v-2c41 -7 76 -36 76 -83
c0 -86 -72 -142 -165 -142zM82 -43l595 753h74l-595 -753h-74zM595 0l19 109h-185l9 50l237 257h66l-44 -253h67l-10 -54h-67l-19 -109h-73zM514 163h110l26 149h-3l-133 -146v-3z" />
    <glyph glyph-name="brokenbar" unicode="&#xa6;" horiz-adv-x="295" 
d="M107 -120v395h81v-395h-81zM107 352v381h81v-381h-81z" />
    <glyph glyph-name="minus" unicode="&#x2212;" horiz-adv-x="517" 
d="M56 295l14 77h419l-14 -77h-419z" />
    <glyph glyph-name="multiply" unicode="&#xd7;" horiz-adv-x="549" 
d="M108 124l-47 53l172 146l-120 146l59 53l120 -146l172 146l47 -53l-172 -146l120 -146l-59 -53l-120 146z" />
    <glyph glyph-name="space" unicode=" " horiz-adv-x="192" 
 />
    <glyph glyph-name="exclam" unicode="!" horiz-adv-x="274" 
d="M89 208l77 485h96l-99 -485h-74zM44 0l18 101h96l-18 -101h-96z" />
    <glyph glyph-name="quotedbl" unicode="&#x22;" horiz-adv-x="365" 
d="M264 508l25 185h97l-45 -185h-77zM106 508l25 185h97l-45 -185h-77z" />
    <glyph glyph-name="numbersign" unicode="#" horiz-adv-x="513" 
d="M74 414l14 77h96l51 202h71l-51 -202h109l51 202h71l-51 -202h82l-14 -77h-87l-31 -124h88l-13 -77h-94l-53 -213h-71l53 213h-109l-53 -213h-71l53 213h-84l13 77h90l31 124h-91zM236 414l-31 -124h109l31 124h-109z" />
    <glyph glyph-name="dollar" unicode="$" horiz-adv-x="485" 
d="M83 -118l36 112c-56 9 -95 29 -125 49l13 74c37 -22 80 -42 135 -51l83 258l-24 11c-72 32 -110 80 -110 165c0 120 78 204 226 204c10 0 20 0 30 -1l20 62h66l-23 -71c39 -9 63 -23 85 -36l-13 -75c-26 13 -55 28 -96 37l-76 -237c90 -39 132 -82 132 -171
c0 -112 -62 -224 -247 -224h-12l-34 -106h-66zM351 207c0 39 -17 66 -68 91l-76 -236c101 1 144 54 144 145zM179 503c0 -44 17 -70 73 -95l71 220h-13c-85 0 -131 -40 -131 -125z" />
    <glyph glyph-name="percent" unicode="%" horiz-adv-x="798" 
d="M201 322c-82 0 -129 54 -129 134c0 119 55 249 182 249c82 0 129 -54 129 -134c0 -119 -55 -249 -182 -249zM576 -8c-82 0 -129 54 -129 134c0 119 55 249 182 249c82 0 129 -54 129 -134c0 -119 -55 -249 -182 -249zM90 -40l563 753h76l-563 -753h-76zM579 50
c44 0 80 35 94 117c6 35 8 59 8 82c0 40 -18 68 -55 68c-44 0 -80 -35 -94 -117c-6 -33 -8 -59 -8 -82c0 -45 18 -68 55 -68zM204 380c44 0 80 35 94 117c6 35 8 59 8 82c0 40 -18 68 -55 68c-44 0 -80 -35 -94 -117c-6 -33 -8 -59 -8 -82c0 -45 18 -68 55 -68z" />
    <glyph glyph-name="ampersand" unicode="&#x26;" horiz-adv-x="610" 
d="M234 -12c-138 0 -210 75 -210 181c0 123 95 184 178 220c-30 47 -40 88 -40 132c0 112 80 184 188 184c83 0 148 -52 148 -141c0 -93 -71 -153 -176 -198l113 -177c28 48 46 101 56 146h79c-12 -64 -42 -144 -93 -212l80 -123h-103l-38 57c-49 -41 -109 -69 -182 -69z
M237 61c59 0 105 22 141 55l-140 217c-74 -33 -120 -75 -120 -160c0 -73 52 -112 119 -112zM286 421c81 37 123 73 123 138c0 56 -38 76 -66 76c-55 0 -90 -40 -90 -106c0 -35 8 -67 33 -108z" />
    <glyph glyph-name="quotesingle" unicode="'" horiz-adv-x="207" 
d="M106 508l25 185h97l-45 -185h-77z" />
    <glyph glyph-name="parenleft" unicode="(" horiz-adv-x="321" 
d="M169 -120c-59 71 -119 213 -119 353c0 204 108 399 237 506h79c-125 -121 -224 -298 -224 -505c0 -130 38 -262 101 -354h-74z" />
    <glyph glyph-name="parenright" unicode=")" horiz-adv-x="321" 
d="M-26 -120c125 121 224 298 224 505c0 130 -38 262 -101 354h74c59 -71 119 -213 119 -353c0 -204 -108 -399 -237 -506h-79z" />
    <glyph glyph-name="asterisk" unicode="*" horiz-adv-x="379" 
d="M178 385l23 111l-97 -49l-23 60l101 37l-84 53l43 55l78 -67l14 108h67l-22 -111l97 49l23 -60l-100 -37l83 -53l-43 -55l-77 68l-16 -109h-67z" />
    <glyph glyph-name="plus" unicode="+" horiz-adv-x="517" 
d="M195 119l31 176h-170l14 77h169l31 176h81l-31 -176h169l-14 -77h-168l-31 -176h-81z" />
    <glyph glyph-name="comma" unicode="," horiz-adv-x="252" 
d="M7 -92l46 193h103l-73 -193h-76z" />
    <glyph glyph-name="hyphen" unicode="-" horiz-adv-x="320" 
d="M60 238l13 76h194l-13 -76h-194z" />
    <glyph glyph-name="period" unicode="." horiz-adv-x="253" 
d="M32 0l17 101h100l-17 -101h-100z" />
    <glyph glyph-name="slash" unicode="/" horiz-adv-x="345" 
d="M-61 -120l387 859h82l-387 -859h-82z" />
    <glyph glyph-name="zero" unicode="0" horiz-adv-x="632" 
d="M278 -13c-135 0 -230 76 -230 239c0 50 9 106 19 159c37 203 140 320 320 320c141 0 229 -77 229 -239c0 -52 -8 -103 -17 -151c-37 -202 -137 -328 -321 -328zM286 63c122 0 184 87 215 256c10 55 19 102 19 145c0 108 -39 165 -142 165c-122 0 -182 -88 -215 -256
c-11 -54 -19 -102 -19 -145c0 -108 39 -165 142 -165z" />
    <glyph glyph-name="one" unicode="1" horiz-adv-x="329" 
d="M104 0l104 593l-125 -11l9 52l194 65h32l-123 -699h-91z" />
    <glyph glyph-name="two" unicode="2" horiz-adv-x="495" 
d="M-11 0l12 66l191 167c108 95 194 190 194 289c0 71 -39 105 -122 105c-61 0 -110 -15 -156 -31l13 71c49 23 91 38 170 38c135 0 191 -76 191 -178c0 -130 -104 -232 -230 -338l-130 -109v-3h297l-14 -77h-416z" />
    <glyph glyph-name="three" unicode="3" horiz-adv-x="470" 
d="M159 -11c-92 0 -142 24 -169 46l12 66c43 -21 88 -34 154 -34c105 0 169 59 169 150c0 72 -39 105 -137 105h-53l14 77h41c99 0 165 54 165 137c0 51 -26 91 -107 91c-52 0 -94 -10 -141 -26l13 71c46 22 82 33 147 33c131 0 183 -76 183 -154c0 -89 -58 -159 -156 -186
v-3c78 -17 125 -59 125 -137c0 -151 -111 -236 -260 -236z" />
    <glyph glyph-name="four" unicode="4" horiz-adv-x="549" 
d="M274 0l33 188h-306l12 68l397 437h76l-76 -430h127l-13 -75h-128l-33 -188h-89zM111 263h210l52 291h-4l-258 -288v-3z" />
    <glyph glyph-name="five" unicode="5" horiz-adv-x="488" 
d="M161 -11c-71 0 -133 21 -167 47l12 67c44 -22 98 -36 154 -36c123 0 181 58 181 167c0 78 -48 121 -142 121c-54 0 -91 -7 -124 -16l62 354h347l-14 -77h-268l-35 -196c23 9 42 11 75 11c126 0 193 -78 193 -193c0 -142 -90 -249 -274 -249z" />
    <glyph glyph-name="six" unicode="6" horiz-adv-x="546" 
d="M257 -13c-148 0 -220 92 -220 226c0 111 37 264 96 348c71 100 168 144 270 144c76 0 120 -17 146 -34l-12 -68c-25 9 -67 24 -139 24c-107 0 -202 -56 -246 -252c36 32 105 57 164 57c128 0 191 -82 191 -188c0 -150 -100 -257 -250 -257zM259 63c96 0 153 75 153 174
c0 82 -44 119 -123 119c-62 0 -110 -18 -149 -48c-7 -36 -8 -71 -8 -99c0 -84 28 -146 127 -146z" />
    <glyph glyph-name="seven" unicode="7" horiz-adv-x="456" 
d="M44 0l361 612v4h-317l13 77h410l-12 -72l-351 -621h-104z" />
    <glyph glyph-name="eight" unicode="8" horiz-adv-x="557" 
d="M261 -13c-141 0 -236 71 -236 184c0 92 75 157 168 188c-54 34 -95 86 -95 152c0 104 80 194 231 194c127 0 199 -71 199 -160c0 -93 -65 -147 -144 -187c76 -41 122 -92 122 -168c0 -116 -97 -203 -245 -203zM263 63c94 0 148 51 148 120c0 58 -48 98 -154 147
c-86 -36 -137 -85 -137 -158c0 -77 57 -109 143 -109zM322 386c67 37 110 87 110 145c0 48 -28 98 -112 98c-88 0 -127 -54 -127 -110c0 -51 33 -87 129 -133z" />
    <glyph glyph-name="nine" unicode="9" horiz-adv-x="547" 
d="M183 -13c-81 0 -125 21 -151 39l12 68c25 -10 67 -29 144 -29c108 0 215 65 243 254c-38 -34 -109 -60 -163 -60c-133 0 -196 85 -196 185c0 152 104 261 248 261c149 0 222 -99 222 -233c0 -129 -26 -261 -90 -354c-57 -82 -145 -131 -269 -131zM295 336
c57 0 107 18 146 50c5 31 6 65 6 93c0 84 -29 150 -129 150c-92 0 -151 -77 -151 -178c0 -76 40 -115 128 -115z" />
    <glyph glyph-name="colon" unicode=":" horiz-adv-x="262" 
d="M89 300l18 101h100l-18 -101h-100zM36 0l18 101h100l-18 -101h-100z" />
    <glyph glyph-name="semicolon" unicode=";" horiz-adv-x="262" 
d="M7 -92l46 193h103l-73 -193h-76zM89 300l18 101h100l-18 -101h-100z" />
    <glyph glyph-name="less" unicode="&#x3c;" horiz-adv-x="481" 
d="M394 104l-344 182l13 71l407 178l-16 -90l-306 -127l261 -130z" />
    <glyph glyph-name="equal" unicode="=" horiz-adv-x="528" 
d="M74 357l13 74h416l-13 -74h-416zM43 180l13 74h416l-13 -74h-416z" />
    <glyph glyph-name="greater" unicode="&#x3e;" horiz-adv-x="481" 
d="M33 104l16 90l306 127l-261 130l15 84l344 -182l-13 -71z" />
    <glyph glyph-name="question" unicode="?" horiz-adv-x="400" 
d="M104 208l8 49c12 71 45 105 132 161c74 48 85 86 85 129c0 53 -37 82 -105 82c-61 0 -91 -11 -138 -27l12 71c51 21 89 32 153 32c101 0 172 -55 172 -150c0 -81 -30 -126 -132 -196c-60 -41 -89 -59 -97 -108l-7 -43h-83zM60 0l18 101h100l-18 -101h-100z" />
    <glyph glyph-name="at" unicode="@" horiz-adv-x="849" 
d="M375 -155c-232 0 -354 127 -354 322c0 242 196 513 499 513c195 0 325 -116 325 -294c0 -191 -102 -354 -246 -354c-70 0 -104 27 -111 73h-5c-23 -40 -86 -73 -140 -73c-79 0 -124 46 -124 130c0 197 142 318 268 318c70 0 134 -15 161 -27l-76 -305
c-8 -32 0 -53 36 -53c90 0 163 133 163 284c0 131 -82 236 -255 236c-254 0 -421 -219 -421 -447c0 -161 98 -260 284 -260c99 0 204 26 254 43l-10 -57c-63 -27 -153 -49 -248 -49zM377 100c45 0 81 24 109 59l59 241c-21 8 -34 12 -67 12c-75 0 -170 -100 -170 -240
c0 -44 21 -72 69 -72z" />
    <glyph glyph-name="A" unicode="A" horiz-adv-x="590" 
d="M-38 0l384 693h95l97 -693h-94l-25 195h-260l-105 -195h-92zM367 580l-167 -308h209l-39 308h-3z" />
    <glyph glyph-name="B" unicode="B" horiz-adv-x="568" 
d="M28 0l122 693h198c133 0 189 -72 189 -157c0 -88 -39 -142 -128 -173v-4c73 -14 117 -69 117 -132c0 -136 -86 -227 -260 -227h-238zM132 76h136c112 0 163 50 163 153c0 59 -34 93 -116 93h-139zM188 395h99c94 0 156 28 156 131c0 61 -34 90 -113 90h-103z" />
    <glyph glyph-name="C" unicode="C" horiz-adv-x="555" 
d="M297 -12c-160 0 -253 95 -253 274c0 97 28 196 72 271c67 114 155 172 304 172c84 0 128 -19 165 -45l-13 -75c-34 21 -83 43 -160 43c-98 0 -170 -39 -218 -135c-33 -66 -53 -143 -53 -234c0 -150 69 -194 169 -194c83 0 149 26 188 49l-13 -77
c-40 -29 -116 -49 -188 -49z" />
    <glyph glyph-name="D" unicode="D" horiz-adv-x="628" 
d="M28 0l122 693h189c180 0 279 -91 279 -254c0 -268 -121 -439 -368 -439h-222zM132 77h124c161 0 227 88 255 250c7 42 10 79 10 112c0 120 -60 177 -198 177h-96z" />
    <glyph glyph-name="E" unicode="E" horiz-adv-x="523" 
d="M28 0l122 693h397l-13 -77h-307l-39 -220h234l-14 -77h-233l-42 -242h309l-14 -77h-400z" />
    <glyph glyph-name="F" unicode="F" horiz-adv-x="486" 
d="M29 0l122 693h385l-13 -77h-294l-41 -233h223l-14 -77h-223l-54 -306h-91z" />
    <glyph glyph-name="G" unicode="G" horiz-adv-x="622" 
d="M321 -12c-163 0 -275 87 -275 270c0 102 31 203 71 269c78 129 185 178 324 178c77 0 132 -19 169 -45l-13 -76c-34 21 -95 43 -163 43c-128 0 -216 -60 -265 -208c-19 -59 -25 -105 -25 -162c0 -118 52 -194 186 -194c41 0 81 5 113 16l34 185h-134l13 76h225l-55 -314
c-56 -21 -126 -38 -205 -38z" />
    <glyph glyph-name="H" unicode="H" horiz-adv-x="642" 
d="M28 0l123 693h91l-53 -296h313l53 296h91l-123 -693h-91l57 320h-313l-57 -320h-91z" />
    <glyph glyph-name="I" unicode="I" horiz-adv-x="244" 
d="M31 0l123 693h91l-123 -693h-91z" />
    <glyph glyph-name="J" unicode="J" horiz-adv-x="384" 
d="M106 -7c-58 0 -99 13 -128 33l11 67c28 -12 58 -22 110 -22c76 0 103 48 115 119l88 503h91l-91 -519c-19 -108 -70 -181 -196 -181z" />
    <glyph glyph-name="K" unicode="K" horiz-adv-x="565" 
d="M408 0l-202 354l309 339h110l-319 -339l202 -354h-100zM28 0l122 693h91l-122 -693h-91z" />
    <glyph glyph-name="L" unicode="L" horiz-adv-x="470" 
d="M28 0l122 693h91l-108 -616h288l-14 -77h-379z" />
    <glyph glyph-name="M" unicode="M" horiz-adv-x="775" 
d="M28 0l122 693h135l74 -577h3l281 577h136l-122 -693h-91l102 576h-3l-284 -576h-90l-75 576h-3l-102 -576h-83z" />
    <glyph glyph-name="N" unicode="N" horiz-adv-x="638" 
d="M28 0l122 693h112l198 -545h3l96 545h83l-122 -693h-99l-206 574h-3l-101 -574h-83z" />
    <glyph glyph-name="O" unicode="O" horiz-adv-x="665" 
d="M301 -11c-157 0 -257 101 -257 270c0 220 122 445 352 445c155 0 258 -101 258 -270c0 -224 -123 -445 -353 -445zM307 63c121 0 211 107 238 260c8 46 12 77 12 116c0 108 -46 191 -167 191c-120 0 -209 -99 -238 -260c-8 -46 -11 -77 -11 -116c0 -118 51 -191 166 -191
z" />
    <glyph glyph-name="P" unicode="P" horiz-adv-x="532" 
d="M28 0l123 693h195c130 0 205 -63 205 -180c0 -153 -101 -240 -260 -240h-124l-48 -273h-91zM181 349h104c118 0 169 50 169 157c0 66 -31 110 -121 110h-105z" />
    <glyph glyph-name="Q" unicode="Q" horiz-adv-x="665" 
d="M579 -120l-345 112c-97 31 -190 98 -190 267c0 220 122 444 352 444c155 0 258 -100 258 -269c0 -193 -91 -374 -263 -420l216 -56zM307 63c121 0 211 107 238 260c8 46 12 77 12 116c0 108 -46 191 -167 191c-120 0 -209 -99 -238 -260c-8 -46 -11 -77 -11 -116
c0 -118 51 -191 166 -191z" />
    <glyph glyph-name="R" unicode="R" horiz-adv-x="557" 
d="M28 0l123 693h188c125 0 202 -65 202 -174c0 -103 -62 -179 -169 -207v-5l126 -307h-99l-118 293h-110l-52 -293h-91zM184 365h96c113 0 163 57 163 148c0 76 -49 103 -118 103h-97z" />
    <glyph glyph-name="S" unicode="S" horiz-adv-x="475" 
d="M185 -12c-99 0 -159 28 -201 55l13 77c50 -29 109 -55 195 -55c105 0 149 50 149 142c0 43 -19 70 -82 98l-68 30c-72 32 -110 80 -110 165c0 120 78 204 226 204c102 0 142 -25 178 -46l-14 -76c-39 20 -86 45 -172 45c-85 0 -130 -39 -130 -124c0 -44 17 -70 70 -93
l68 -30c83 -36 125 -79 125 -168c0 -112 -62 -224 -247 -224z" />
    <glyph glyph-name="T" unicode="T" horiz-adv-x="511" 
d="M165 0l109 616h-195l13 77h481l-13 -77h-195l-109 -616h-91z" />
    <glyph glyph-name="U" unicode="U" horiz-adv-x="626" 
d="M293 -12c-128 0 -232 44 -232 194c0 22 2 46 7 72l77 439h91l-78 -446c-4 -24 -6 -45 -6 -64c0 -99 57 -123 144 -123c101 0 151 42 175 179l80 454h84l-82 -468c-23 -134 -92 -237 -260 -237z" />
    <glyph glyph-name="V" unicode="V" horiz-adv-x="572" 
d="M193 0l-108 693h92l82 -571h3l288 571h91l-361 -693h-87z" />
    <glyph glyph-name="W" unicode="W" horiz-adv-x="842" 
d="M133 0l-40 693h90l25 -554h3l245 554h85l49 -554h3l221 554h89l-292 -693h-97l-44 543h-3l-243 -543h-91z" />
    <glyph glyph-name="X" unicode="X" horiz-adv-x="568" 
d="M-23 0l276 357l-142 336h95l114 -278h4l201 278h98l-267 -347l145 -346h-95l-114 289h-3l-214 -289h-98z" />
    <glyph glyph-name="Y" unicode="Y" horiz-adv-x="522" 
d="M173 0l48 275l-138 418h91l107 -340h3l216 340h93l-281 -421l-48 -272h-91z" />
    <glyph glyph-name="Z" unicode="Z" horiz-adv-x="511" 
d="M-18 0l12 69l444 544v3h-325l13 77h437l-12 -68l-447 -545v-3h344l-14 -77h-452z" />
    <glyph glyph-name="bracketleft" unicode="[" horiz-adv-x="336" 
d="M12 -120l151 859h226l-12 -70h-138l-127 -719h138l-12 -70h-226z" />
    <glyph glyph-name="backslash" unicode="\" horiz-adv-x="346" 
d="M200 -120l-93 859h75l93 -859h-75z" />
    <glyph glyph-name="bracketright" unicode="]" horiz-adv-x="336" 
d="M-33 -120l12 70h137l127 719h-138l12 70h226l-151 -859h-225z" />
    <glyph glyph-name="asciicircum" unicode="^" horiz-adv-x="453" 
d="M79 452l188 241h74l103 -241h-75l-76 160l-133 -160h-81z" />
    <glyph glyph-name="underscore" unicode="_" horiz-adv-x="320" 
d="M-71 -120l10 59h330l-10 -59h-330z" />
    <glyph glyph-name="grave" unicode="`" 
d="M255 587l-72 145h94l53 -145h-75z" />
    <glyph glyph-name="a" unicode="a" horiz-adv-x="508" 
d="M188 -10c-99 0 -164 61 -164 177c0 210 134 356 315 356c66 0 128 -15 149 -23l-88 -500h-71l-1 50h-5c-32 -33 -77 -60 -135 -60zM208 61c46 0 92 20 123 48l60 332c-21 8 -37 12 -62 12c-101 0 -177 -74 -204 -186c-8 -32 -12 -62 -12 -97c0 -83 41 -109 95 -109z" />
    <glyph glyph-name="b" unicode="b" horiz-adv-x="520" 
d="M207 -10c-63 0 -145 11 -186 33l126 716h88l-48 -274h5c42 29 87 58 156 58c91 0 150 -57 150 -169c0 -187 -75 -364 -291 -364zM215 61c119 0 165 83 188 216c4 23 5 48 5 66c-1 87 -43 105 -96 105c-51 0 -99 -21 -136 -45l-58 -327c26 -11 64 -15 97 -15z" />
    <glyph glyph-name="c" unicode="c" horiz-adv-x="416" 
d="M220 -10c-130 0 -198 76 -198 199c0 75 23 158 64 217c52 75 126 117 226 117c55 0 94 -14 118 -31l-13 -71c-25 13 -57 27 -108 27c-62 0 -111 -21 -148 -74c-35 -50 -51 -111 -51 -179c0 -94 45 -130 126 -130c64 0 110 24 139 39l-13 -73c-42 -26 -89 -41 -142 -41z
" />
    <glyph glyph-name="d" unicode="d" horiz-adv-x="518" 
d="M176 -10c-86 0 -154 57 -154 169c0 187 93 364 272 364c63 0 93 -16 116 -31l43 247h88l-130 -739h-72l-2 52h-5c-39 -35 -87 -62 -156 -62zM204 61c56 0 101 25 138 49l55 311c-26 16 -61 28 -94 28c-113 0 -164 -77 -187 -211c-4 -23 -5 -50 -5 -68
c0 -81 33 -109 93 -109z" />
    <glyph glyph-name="e" unicode="e" horiz-adv-x="483" 
d="M229 -10c-135 0 -207 73 -207 201c0 89 27 173 66 228c46 65 112 104 198 104c130 0 197 -85 169 -242l-9 -50h-333c-1 -12 -2 -23 -2 -34c0 -96 44 -131 131 -131c63 0 124 19 173 40l-13 -71c-35 -21 -99 -45 -173 -45zM158 380c-13 -21 -24 -49 -32 -78h241
c19 104 -14 150 -92 150c-52 0 -90 -26 -117 -72z" />
    <glyph glyph-name="f" unicode="f" horiz-adv-x="315" 
d="M14 -195l111 635h-74l12 73h75l11 61c23 129 101 174 194 174c39 0 64 -9 82 -20l-11 -63c-12 5 -33 11 -64 11c-60 0 -99 -29 -113 -103l-11 -60h117l-12 -73h-119l-110 -635h-88z" />
    <glyph glyph-name="g" unicode="g" horiz-adv-x="516" 
d="M158 -199c-74 0 -146 20 -176 43l11 68c24 -12 92 -40 161 -40c114 0 154 51 168 134l11 64h-5c-28 -27 -81 -57 -150 -57c-86 0 -154 55 -154 174c0 191 118 336 288 336c83 0 133 -17 182 -41l-86 -489c-21 -119 -95 -192 -250 -192zM206 84c56 0 101 24 138 48l53 301
c-22 11 -54 20 -87 20c-106 0 -167 -75 -190 -192c-4 -23 -7 -50 -7 -68c0 -81 33 -109 93 -109z" />
    <glyph glyph-name="h" unicode="h" horiz-adv-x="522" 
d="M17 0l133 739h88l-48 -276h5c50 36 104 60 167 60c96 0 123 -59 123 -123c0 -14 -2 -28 -4 -41l-63 -359h-88l61 346c3 15 4 28 4 39c0 42 -19 62 -71 62c-45 0 -92 -12 -148 -44l-71 -403h-88z" />
    <glyph glyph-name="i" unicode="i" horiz-adv-x="218" 
d="M20 0l90 513h88l-90 -513h-88zM127 615l16 91h90l-16 -91h-90z" />
    <glyph glyph-name="j" unicode="j" horiz-adv-x="217" 
d="M-63 -199c-29 0 -65 7 -83 21l10 59c16 -6 34 -9 56 -9c59 0 82 27 93 88l97 553h88l-99 -563c-17 -99 -69 -149 -162 -149zM127 615l16 91h89l-16 -91h-89z" />
    <glyph glyph-name="k" unicode="k" horiz-adv-x="472" 
d="M17 0l130 739h88l-130 -739h-88zM320 0l-143 267l214 246h101l-221 -247l146 -266h-97z" />
    <glyph glyph-name="l" unicode="l" horiz-adv-x="216" 
d="M19 0l130 739h88l-130 -739h-88z" />
    <glyph glyph-name="m" unicode="m" horiz-adv-x="791" 
d="M17 0l91 513h84l-9 -54h5c54 40 102 64 161 64c64 0 93 -31 107 -70h4c66 45 123 70 183 70c88 0 111 -58 111 -120c0 -15 -2 -30 -4 -44l-63 -359h-88l61 346c3 17 5 31 5 44c0 39 -16 57 -60 57c-42 0 -81 -11 -142 -46c0 -14 -2 -28 -4 -42l-63 -359h-88l61 346
c3 17 5 31 5 44c0 39 -16 57 -60 57c-43 0 -83 -12 -138 -44l-71 -403h-88z" />
    <glyph glyph-name="n" unicode="n" horiz-adv-x="522" 
d="M17 0l91 513h84l-9 -54h5c56 41 111 64 174 64c96 0 123 -59 123 -123c0 -14 -2 -28 -4 -41l-63 -359h-88l61 346c3 15 4 28 4 39c0 42 -19 62 -71 62c-45 0 -92 -12 -148 -44l-71 -403h-88z" />
    <glyph glyph-name="o" unicode="o" horiz-adv-x="510" 
d="M218 -10c-123 0 -195 75 -195 201c0 170 94 332 270 332c123 0 195 -75 195 -201c0 -168 -92 -332 -270 -332zM222 61c96 0 151 78 171 191c5 28 7 56 7 72c0 92 -47 128 -111 128c-96 0 -151 -78 -171 -191c-5 -24 -7 -46 -7 -72c0 -90 47 -128 111 -128z" />
    <glyph glyph-name="p" unicode="p" horiz-adv-x="520" 
d="M-17 -195l124 708h84l-9 -55h5c42 36 92 65 163 65c89 0 148 -59 148 -179c0 -188 -74 -354 -283 -354c-45 0 -83 8 -108 19l-36 -204h-88zM215 61c124 0 165 72 188 205c4 23 5 48 5 66c-1 94 -43 116 -94 116c-53 0 -101 -21 -138 -45l-57 -325c27 -12 68 -17 96 -17z
" />
    <glyph glyph-name="q" unicode="q" horiz-adv-x="519" 
d="M290 -195l42 241h-5c-28 -27 -81 -56 -150 -56c-86 0 -155 58 -155 169c0 222 119 364 294 364c79 0 136 -20 181 -41l-119 -677h-88zM205 63c56 0 102 24 139 48l56 320c-24 12 -53 21 -86 21c-118 0 -174 -80 -197 -214c-4 -23 -5 -50 -5 -68c0 -78 33 -107 93 -107z
" />
    <glyph glyph-name="r" unicode="r" horiz-adv-x="331" 
d="M17 0l90 513h84l-10 -56h5c39 38 91 62 146 62c13 0 27 -2 31 -4l-14 -78c-13 2 -30 3 -39 3c-48 0 -94 -13 -134 -37l-71 -403h-88z" />
    <glyph glyph-name="s" unicode="s" horiz-adv-x="409" 
d="M160 -9c-80 0 -127 20 -163 44l12 70c37 -19 78 -40 152 -40c85 0 110 37 110 80c0 30 -18 51 -68 71l-47 19c-60 24 -98 60 -98 130c0 99 69 157 185 157c83 0 120 -22 146 -38l-13 -70c-27 14 -73 35 -140 35c-63 0 -95 -29 -95 -73c0 -36 17 -52 59 -69l47 -19
c78 -32 111 -63 111 -132c0 -90 -54 -165 -198 -165z" />
    <glyph glyph-name="t" unicode="t" horiz-adv-x="336" 
d="M193 -6c-103 0 -138 62 -122 150l53 296h-73l12 73h73l22 122h88l-22 -122h125l-12 -73h-125l-53 -294c-9 -53 1 -81 59 -81c23 0 45 4 67 9l-11 -59c-17 -11 -46 -21 -81 -21z" />
    <glyph glyph-name="u" unicode="u" horiz-adv-x="518" 
d="M165 -10c-78 0 -126 44 -127 125c0 14 1 30 4 47l62 351h88l-61 -346c-3 -15 -4 -28 -4 -40c0 -40 17 -61 66 -61c50 0 93 12 149 44l71 403h88l-91 -513h-72l-2 54h-5c-54 -41 -99 -64 -166 -64z" />
    <glyph glyph-name="v" unicode="v" horiz-adv-x="468" 
d="M126 0l-72 513h92l46 -405h4l217 405h91l-285 -513h-93z" />
    <glyph glyph-name="w" unicode="w" horiz-adv-x="728" 
d="M98 0l-41 513h91l19 -400h4l197 400h83l29 -400h4l190 400h87l-258 -513h-92l-30 378h-4l-188 -378h-91z" />
    <glyph glyph-name="x" unicode="x" horiz-adv-x="458" 
d="M-37 0l217 265l-110 248h93l82 -193l157 193h93l-216 -263l111 -250h-93l-83 194l-158 -194h-93z" />
    <glyph glyph-name="y" unicode="y" horiz-adv-x="468" 
d="M4 -199c-30 0 -53 8 -67 17l11 63c13 -4 29 -7 49 -7c47 0 78 23 112 82l34 60l-89 497h93l59 -383h3l204 383h91l-318 -574c-53 -96 -100 -138 -182 -138z" />
    <glyph glyph-name="z" unicode="z" horiz-adv-x="419" 
d="M-12 0l11 65l313 373v3h-238l12 72h348l-11 -63l-316 -375v-3h254l-13 -72h-360z" />
    <glyph glyph-name="braceleft" unicode="{" horiz-adv-x="374" 
d="M275 -122c-145 3 -187 56 -187 126c0 12 1 24 3 37l25 141c11 64 -11 90 -96 95l13 72c87 5 117 24 128 88l25 141c19 105 69 161 241 163l-12 -70c-89 -6 -129 -22 -142 -97l-25 -141c-10 -55 -36 -105 -128 -122v-3c69 -14 88 -48 88 -90c0 -10 -1 -21 -3 -32l-25 -141
c-13 -75 19 -91 108 -97z" />
    <glyph glyph-name="bar" unicode="|" horiz-adv-x="295" 
d="M116 -120v859h81v-859h-81z" />
    <glyph glyph-name="braceright" unicode="}" horiz-adv-x="374" 
d="M-33 -122l12 70c89 6 129 22 142 97l25 141c10 55 36 105 128 122v3c-69 14 -88 48 -88 90c0 10 1 21 3 32l25 141c13 75 -19 91 -108 97l13 70c145 -3 187 -56 187 -126c0 -12 -1 -24 -3 -37l-25 -141c-11 -64 11 -90 96 -95l-13 -72c-87 -5 -117 -24 -128 -88l-25 -141
c-19 -105 -69 -161 -241 -163z" />
    <glyph glyph-name="asciitilde" unicode="~" horiz-adv-x="393" 
d="M37 240c20 85 67 112 115 112c45 0 81 -36 111 -36c19 0 35 13 43 38h64c-20 -85 -67 -112 -115 -112c-45 0 -81 36 -111 36c-19 0 -35 -13 -43 -38h-64z" />
    <glyph glyph-name="Adieresis" unicode="&#xc4;" horiz-adv-x="590" 
d="M-38 0l384 693h95l97 -693h-94l-25 195h-260l-105 -195h-92zM367 580l-167 -308h209l-39 308h-3zM443 746l16 89h86l-16 -89h-86zM269 746l16 89h86l-16 -89h-86z" />
    <glyph glyph-name="Aring" unicode="&#xc5;" horiz-adv-x="590" 
d="M-38 0l384 693h95l97 -693h-94l-25 195h-260l-105 -195h-92zM367 580l-167 -308h209l-39 308h-3zM401 729c-55 0 -93 38 -93 87c0 52 43 97 99 97c55 0 93 -38 93 -87c0 -54 -43 -97 -99 -97zM402 771c30 0 49 23 49 54c0 28 -16 46 -44 46c-30 0 -50 -24 -50 -54
c0 -29 17 -46 45 -46z" />
    <glyph glyph-name="Ccedilla" unicode="&#xc7;" horiz-adv-x="555" 
d="M297 -12c-14 0 -30 1 -40 2l-6 -38c53 -3 84 -28 84 -65c0 -62 -53 -95 -192 -104l9 52c80 7 109 17 109 44c0 20 -24 28 -75 28l16 94c-101 32 -158 121 -158 261c0 97 28 196 72 271c67 114 155 172 304 172c84 0 128 -19 165 -45l-13 -75c-34 21 -83 43 -160 43
c-98 0 -170 -39 -218 -135c-33 -66 -53 -143 -53 -234c0 -150 69 -194 169 -194c83 0 149 26 188 49l-13 -77c-40 -29 -116 -49 -188 -49z" />
    <glyph glyph-name="Eacute" unicode="&#xc9;" horiz-adv-x="523" 
d="M28 0l122 693h397l-13 -77h-307l-39 -220h234l-14 -77h-233l-42 -242h309l-14 -77h-400zM319 740l73 125h103l-97 -125h-79z" />
    <glyph glyph-name="Ntilde" unicode="&#xd1;" horiz-adv-x="638" 
d="M28 0l122 693h112l198 -545h3l96 545h83l-122 -693h-99l-206 574h-3l-101 -574h-83zM272 745c13 74 59 104 102 104s77 -31 105 -31c19 0 32 10 38 33h60c-13 -74 -59 -104 -102 -104s-77 31 -105 31c-19 0 -32 -10 -38 -33h-60z" />
    <glyph glyph-name="Odieresis" unicode="&#xd6;" horiz-adv-x="665" 
d="M301 -11c-157 0 -257 101 -257 270c0 220 122 445 352 445c155 0 258 -101 258 -270c0 -224 -123 -445 -353 -445zM307 63c121 0 211 107 238 260c8 46 12 77 12 116c0 108 -46 191 -167 191c-120 0 -209 -99 -238 -260c-8 -46 -11 -77 -11 -116c0 -118 51 -191 166 -191
zM452 746l16 89h86l-16 -89h-86zM278 746l16 89h86l-16 -89h-86z" />
    <glyph glyph-name="Udieresis" unicode="&#xdc;" horiz-adv-x="626" 
d="M293 -12c-128 0 -232 44 -232 194c0 22 2 46 7 72l77 439h91l-78 -446c-4 -24 -6 -45 -6 -64c0 -99 57 -123 144 -123c101 0 151 42 175 179l80 454h84l-82 -468c-23 -134 -92 -237 -260 -237zM444 746l16 89h86l-16 -89h-86zM270 746l16 89h86l-16 -89h-86z" />
    <glyph glyph-name="aacute" unicode="&#xe1;" horiz-adv-x="508" 
d="M188 -10c-99 0 -164 61 -164 177c0 210 134 356 315 356c66 0 128 -15 149 -23l-88 -500h-71l-1 50h-5c-32 -33 -77 -60 -135 -60zM208 61c46 0 92 20 123 48l60 332c-21 8 -37 12 -62 12c-101 0 -177 -74 -204 -186c-8 -32 -12 -62 -12 -97c0 -83 41 -109 95 -109z
M285 587l86 145h102l-110 -145h-78z" />
    <glyph glyph-name="agrave" unicode="&#xe0;" horiz-adv-x="508" 
d="M188 -10c-99 0 -164 61 -164 177c0 210 134 356 315 356c66 0 128 -15 149 -23l-88 -500h-71l-1 50h-5c-32 -33 -77 -60 -135 -60zM208 61c46 0 92 20 123 48l60 332c-21 8 -37 12 -62 12c-101 0 -177 -74 -204 -186c-8 -32 -12 -62 -12 -97c0 -83 41 -109 95 -109z
M298 587l-72 145h94l53 -145h-75z" />
    <glyph glyph-name="acircumflex" unicode="&#xe2;" horiz-adv-x="508" 
d="M188 -10c-99 0 -164 61 -164 177c0 210 134 356 315 356c66 0 128 -15 149 -23l-88 -500h-71l-1 50h-5c-32 -33 -77 -60 -135 -60zM208 61c46 0 92 20 123 48l60 332c-21 8 -37 12 -62 12c-101 0 -177 -74 -204 -186c-8 -32 -12 -62 -12 -97c0 -83 41 -109 95 -109z
M200 587l126 144h76l78 -144h-68l-57 79l-83 -79h-72z" />
    <glyph glyph-name="adieresis" unicode="&#xe4;" horiz-adv-x="508" 
d="M188 -10c-99 0 -164 61 -164 177c0 210 134 356 315 356c66 0 128 -15 149 -23l-88 -500h-71l-1 50h-5c-32 -33 -77 -60 -135 -60zM208 61c46 0 92 20 123 48l60 332c-21 8 -37 12 -62 12c-101 0 -177 -74 -204 -186c-8 -32 -12 -62 -12 -97c0 -83 41 -109 95 -109z
M382 615l16 89h86l-16 -89h-86zM212 615l16 89h86l-16 -89h-86z" />
    <glyph glyph-name="atilde" unicode="&#xe3;" horiz-adv-x="508" 
d="M188 -10c-99 0 -164 61 -164 177c0 210 134 356 315 356c66 0 128 -15 149 -23l-88 -500h-71l-1 50h-5c-32 -33 -77 -60 -135 -60zM208 61c46 0 92 20 123 48l60 332c-21 8 -37 12 -62 12c-101 0 -177 -74 -204 -186c-8 -32 -12 -62 -12 -97c0 -83 41 -109 95 -109z
M200 604c13 76 59 108 102 108s77 -35 105 -35c19 0 32 12 38 37h60c-13 -76 -59 -108 -102 -108s-77 35 -105 35c-19 0 -32 -12 -38 -37h-60z" />
    <glyph glyph-name="aring" unicode="&#xe5;" horiz-adv-x="508" 
d="M188 -10c-99 0 -164 61 -164 177c0 210 134 356 315 356c66 0 128 -15 149 -23l-88 -500h-71l-1 50h-5c-32 -33 -77 -60 -135 -60zM208 61c46 0 92 20 123 48l60 332c-21 8 -37 12 -62 12c-101 0 -177 -74 -204 -186c-8 -32 -12 -62 -12 -97c0 -83 41 -109 95 -109z
M342 576c-55 0 -93 38 -93 87c0 52 43 97 99 97c55 0 93 -38 93 -87c0 -54 -43 -97 -99 -97zM343 618c30 0 49 23 49 54c0 28 -16 46 -44 46c-30 0 -50 -24 -50 -54c0 -29 17 -46 45 -46z" />
    <glyph glyph-name="ccedilla" unicode="&#xe7;" horiz-adv-x="416" 
d="M220 -10c-9 0 -18 1 -27 2l-6 -40c53 -3 84 -28 84 -65c0 -62 -53 -95 -192 -104l9 52c80 7 109 17 109 44c0 20 -24 28 -75 28l16 95c-77 27 -116 93 -116 187c0 75 23 158 64 217c52 75 126 117 226 117c55 0 94 -14 118 -31l-13 -71c-25 13 -57 27 -108 27
c-62 0 -111 -21 -148 -74c-35 -50 -51 -111 -51 -179c0 -94 45 -130 126 -130c64 0 110 24 139 39l-13 -73c-42 -26 -89 -41 -142 -41z" />
    <glyph glyph-name="eacute" unicode="&#xe9;" horiz-adv-x="483" 
d="M229 -10c-135 0 -207 73 -207 201c0 89 27 173 66 228c46 65 112 104 198 104c130 0 197 -85 169 -242l-9 -50h-333c-1 -12 -2 -23 -2 -34c0 -96 44 -131 131 -131c63 0 124 19 173 40l-13 -71c-35 -21 -99 -45 -173 -45zM158 380c-13 -21 -24 -49 -32 -78h241
c19 104 -14 150 -92 150c-52 0 -90 -26 -117 -72zM255 587l86 145h102l-110 -145h-78z" />
    <glyph glyph-name="egrave" unicode="&#xe8;" horiz-adv-x="483" 
d="M229 -10c-135 0 -207 73 -207 201c0 89 27 173 66 228c46 65 112 104 198 104c130 0 197 -85 169 -242l-9 -50h-333c-1 -12 -2 -23 -2 -34c0 -96 44 -131 131 -131c63 0 124 19 173 40l-13 -71c-35 -21 -99 -45 -173 -45zM158 380c-13 -21 -24 -49 -32 -78h241
c19 104 -14 150 -92 150c-52 0 -90 -26 -117 -72zM260 587l-72 145h94l53 -145h-75z" />
    <glyph glyph-name="ecircumflex" unicode="&#xea;" horiz-adv-x="483" 
d="M229 -10c-135 0 -207 73 -207 201c0 89 27 173 66 228c46 65 112 104 198 104c130 0 197 -85 169 -242l-9 -50h-333c-1 -12 -2 -23 -2 -34c0 -96 44 -131 131 -131c63 0 124 19 173 40l-13 -71c-35 -21 -99 -45 -173 -45zM158 380c-13 -21 -24 -49 -32 -78h241
c19 104 -14 150 -92 150c-52 0 -90 -26 -117 -72zM162 587l126 144h76l78 -144h-68l-57 79l-83 -79h-72z" />
    <glyph glyph-name="edieresis" unicode="&#xeb;" horiz-adv-x="483" 
d="M229 -10c-135 0 -207 73 -207 201c0 89 27 173 66 228c46 65 112 104 198 104c130 0 197 -85 169 -242l-9 -50h-333c-1 -12 -2 -23 -2 -34c0 -96 44 -131 131 -131c63 0 124 19 173 40l-13 -71c-35 -21 -99 -45 -173 -45zM158 380c-13 -21 -24 -49 -32 -78h241
c19 104 -14 150 -92 150c-52 0 -90 -26 -117 -72zM348 615l16 89h86l-16 -89h-86zM178 615l16 89h86l-16 -89h-86z" />
    <glyph glyph-name="iacute" unicode="&#xed;" horiz-adv-x="218" 
d="M20 0l90 513h89l-90 -513h-89zM121 587l86 145h102l-110 -145h-78z" />
    <glyph glyph-name="igrave" unicode="&#xec;" horiz-adv-x="218" 
d="M20 0l90 513h89l-90 -513h-89zM126 587l-72 145h94l53 -145h-75z" />
    <glyph glyph-name="icircumflex" unicode="&#xee;" horiz-adv-x="218" 
d="M20 0l90 513h89l-90 -513h-89zM39 587l114 144h76l65 -144h-67l-44 77l-71 -77h-73z" />
    <glyph glyph-name="idieresis" unicode="&#xef;" horiz-adv-x="218" 
d="M202 615l16 89h86l-16 -89h-86zM52 615l16 89h86l-16 -89h-86zM20 0l90 513h89l-90 -513h-89z" />
    <glyph glyph-name="ntilde" unicode="&#xf1;" horiz-adv-x="522" 
d="M17 0l91 513h84l-9 -54h5c56 41 111 64 174 64c96 0 123 -59 123 -123c0 -14 -2 -28 -4 -41l-63 -359h-88l61 346c3 15 4 28 4 39c0 42 -19 62 -71 62c-45 0 -92 -12 -148 -44l-71 -403h-88zM179 604c13 76 59 108 102 108s77 -35 105 -35c19 0 32 12 38 37h60
c-13 -76 -59 -108 -102 -108s-77 35 -105 35c-19 0 -32 -12 -38 -37h-60z" />
    <glyph glyph-name="oacute" unicode="&#xf3;" horiz-adv-x="510" 
d="M218 -10c-123 0 -195 75 -195 201c0 170 94 332 270 332c123 0 195 -75 195 -201c0 -168 -92 -332 -270 -332zM222 61c96 0 151 78 171 191c5 28 7 56 7 72c0 92 -47 128 -111 128c-96 0 -151 -78 -171 -191c-5 -24 -7 -46 -7 -72c0 -90 47 -128 111 -128zM264 587
l86 145h102l-110 -145h-78z" />
    <glyph glyph-name="ograve" unicode="&#xf2;" horiz-adv-x="510" 
d="M218 -10c-123 0 -195 75 -195 201c0 170 94 332 270 332c123 0 195 -75 195 -201c0 -168 -92 -332 -270 -332zM222 61c96 0 151 78 171 191c5 28 7 56 7 72c0 92 -47 128 -111 128c-96 0 -151 -78 -171 -191c-5 -24 -7 -46 -7 -72c0 -90 47 -128 111 -128zM273 587
l-72 145h94l53 -145h-75z" />
    <glyph glyph-name="ocircumflex" unicode="&#xf4;" horiz-adv-x="510" 
d="M218 -10c-123 0 -195 75 -195 201c0 170 94 332 270 332c123 0 195 -75 195 -201c0 -168 -92 -332 -270 -332zM222 61c96 0 151 78 171 191c5 28 7 56 7 72c0 92 -47 128 -111 128c-96 0 -151 -78 -171 -191c-5 -24 -7 -46 -7 -72c0 -90 47 -128 111 -128zM175 587
l126 144h76l78 -144h-68l-57 79l-83 -79h-72z" />
    <glyph glyph-name="odieresis" unicode="&#xf6;" horiz-adv-x="510" 
d="M218 -10c-123 0 -195 75 -195 201c0 170 94 332 270 332c123 0 195 -75 195 -201c0 -168 -92 -332 -270 -332zM222 61c96 0 151 78 171 191c5 28 7 56 7 72c0 92 -47 128 -111 128c-96 0 -151 -78 -171 -191c-5 -24 -7 -46 -7 -72c0 -90 47 -128 111 -128zM361 615l16 89
h86l-16 -89h-86zM191 615l16 89h86l-16 -89h-86z" />
    <glyph glyph-name="otilde" unicode="&#xf5;" horiz-adv-x="510" 
d="M218 -10c-123 0 -195 75 -195 201c0 170 94 332 270 332c123 0 195 -75 195 -201c0 -168 -92 -332 -270 -332zM222 61c96 0 151 78 171 191c5 28 7 56 7 72c0 92 -47 128 -111 128c-96 0 -151 -78 -171 -191c-5 -24 -7 -46 -7 -72c0 -90 47 -128 111 -128zM175 604
c13 76 59 108 102 108s77 -35 105 -35c19 0 32 12 38 37h60c-13 -76 -59 -108 -102 -108s-77 35 -105 35c-19 0 -32 -12 -38 -37h-60z" />
    <glyph glyph-name="uacute" unicode="&#xfa;" horiz-adv-x="518" 
d="M165 -10c-78 0 -126 44 -127 125c0 14 1 30 4 47l62 351h88l-61 -346c-3 -15 -4 -28 -4 -40c0 -40 17 -61 66 -61c50 0 93 12 149 44l71 403h88l-91 -513h-72l-2 54h-5c-54 -41 -99 -64 -166 -64zM266 587l86 145h102l-110 -145h-78z" />
    <glyph glyph-name="ugrave" unicode="&#xf9;" horiz-adv-x="518" 
d="M165 -10c-78 0 -126 44 -127 125c0 14 1 30 4 47l62 351h88l-61 -346c-3 -15 -4 -28 -4 -40c0 -40 17 -61 66 -61c50 0 93 12 149 44l71 403h88l-91 -513h-72l-2 54h-5c-54 -41 -99 -64 -166 -64zM271 587l-72 145h94l53 -145h-75z" />
    <glyph glyph-name="ucircumflex" unicode="&#xfb;" horiz-adv-x="518" 
d="M165 -10c-78 0 -126 44 -127 125c0 14 1 30 4 47l62 351h88l-61 -346c-3 -15 -4 -28 -4 -40c0 -40 17 -61 66 -61c50 0 93 12 149 44l71 403h88l-91 -513h-72l-2 54h-5c-54 -41 -99 -64 -166 -64zM173 587l126 144h76l78 -144h-68l-57 79l-83 -79h-72z" />
    <glyph glyph-name="udieresis" unicode="&#xfc;" horiz-adv-x="518" 
d="M165 -10c-78 0 -126 44 -127 125c0 14 1 30 4 47l62 351h88l-61 -346c-3 -15 -4 -28 -4 -40c0 -40 17 -61 66 -61c50 0 93 12 149 44l71 403h88l-91 -513h-72l-2 54h-5c-54 -41 -99 -64 -166 -64zM359 615l16 89h86l-16 -89h-86zM189 615l16 89h86l-16 -89h-86z" />
    <glyph glyph-name="dagger" unicode="&#x2020;" horiz-adv-x="467" 
d="M136 -69l86 489h-160l14 77h160l34 196h81l-34 -196h160l-14 -77h-160l-86 -489h-81z" />
    <glyph glyph-name="degree" unicode="&#xb0;" horiz-adv-x="358" 
d="M221 429c-77 0 -127 59 -127 125c0 83 69 150 154 150c76 0 126 -58 126 -124c0 -82 -68 -151 -153 -151zM225 483c51 0 82 42 82 95c0 40 -23 72 -64 72c-50 0 -82 -42 -82 -94c0 -41 22 -73 64 -73z" />
    <glyph glyph-name="cent" unicode="&#xa2;" horiz-adv-x="419" 
d="M116 -119l36 118c-86 22 -130 92 -130 197c0 68 24 151 65 210c52 75 124 117 225 117h2l20 63h67l-22 -71c22 -5 41 -14 54 -23l-12 -69c-17 8 -37 17 -64 22l-119 -383c63 0 111 24 140 39l-13 -70c-42 -26 -92 -41 -145 -41h-4l-34 -109h-66zM110 195
c0 -67 22 -106 65 -123l116 377c-76 -6 -140 -52 -169 -162c-8 -30 -12 -63 -12 -92z" />
    <glyph glyph-name="sterling" unicode="&#xa3;" horiz-adv-x="493" 
d="M47 310l12 68h80l18 102c27 155 125 225 242 225c57 0 94 -10 122 -30l-12 -69c-33 14 -59 21 -109 21c-73 0 -132 -35 -153 -151l-18 -98h170l-12 -68h-170l-10 -59c-17 -96 -35 -133 -90 -172v-2h312l-14 -77h-419l12 67c64 35 91 84 108 180l11 63h-80z" />
    <glyph glyph-name="section" unicode="&#xa7;" horiz-adv-x="452" 
d="M169 -132c-71 0 -118 16 -165 43l12 72c34 -21 98 -39 153 -39c74 0 114 31 114 85c0 41 -19 62 -68 86l-70 34c-59 29 -111 59 -111 148c0 72 46 117 110 140c-25 28 -33 61 -33 105c0 99 83 163 196 163c68 0 111 -16 150 -36l-13 -72c-34 20 -85 32 -140 32
c-60 0 -107 -26 -107 -84c0 -37 12 -63 61 -87l70 -34c59 -29 111 -65 111 -142c0 -73 -43 -121 -107 -144c26 -25 37 -54 37 -98c0 -108 -78 -172 -200 -172zM223 382c-12 5 -22 11 -31 17c-46 -17 -76 -46 -76 -94c0 -42 32 -64 61 -78l73 -36l30 -16c45 17 75 46 75 95
c0 42 -30 62 -59 76z" />
    <glyph glyph-name="bullet" unicode="&#x2022;" horiz-adv-x="353" 
d="M181 192c-71 0 -123 55 -123 117c0 86 67 145 139 145c70 0 122 -51 122 -119c0 -79 -65 -143 -138 -143z" />
    <glyph glyph-name="paragraph" unicode="&#xb6;" horiz-adv-x="567" 
d="M210 -120l80 457h-44c-100 0 -167 60 -167 161c0 107 65 195 256 195h231l-143 -813h-65l133 756h-83l-133 -756h-65z" />
    <glyph glyph-name="germandbls" unicode="&#xdf;" horiz-adv-x="544" 
d="M-17 -195l130 741c23 133 121 202 239 202c111 0 164 -54 164 -126c0 -135 -179 -183 -179 -256c0 -25 15 -40 45 -62l46 -33c48 -34 75 -71 75 -127c0 -102 -90 -154 -185 -154c-65 0 -100 14 -131 33l13 71c37 -18 63 -30 115 -30c63 0 100 27 100 76
c0 26 -16 48 -48 71l-42 30c-43 31 -72 61 -72 111c0 113 176 162 176 259c0 39 -29 65 -86 65c-74 0 -126 -42 -143 -138l-129 -733h-88z" />
    <glyph glyph-name="registered" unicode="&#xae;" horiz-adv-x="433" 
d="M261 314c-110 0 -195 89 -195 197c0 109 85 196 195 196s196 -87 196 -196c0 -108 -86 -197 -196 -197zM261 347c93 0 156 72 156 164c0 90 -63 164 -156 164s-155 -74 -155 -164c0 -92 62 -164 155 -164zM196 420v187h71c46 0 73 -18 73 -57c0 -27 -14 -40 -33 -47v-3
l43 -80h-49l-37 71h-21v-71h-47zM243 526h21c22 0 28 8 28 23c0 16 -7 22 -28 22h-21v-45z" />
    <glyph glyph-name="copyright" unicode="&#xa9;" horiz-adv-x="800" 
d="M415 -14c-203 0 -354 161 -354 358s151 356 354 356c202 0 356 -159 356 -356s-154 -358 -356 -358zM415 36c172 0 296 129 296 308s-124 306 -296 306c-173 0 -294 -127 -294 -306s121 -308 294 -308zM424 146c-106 0 -177 63 -177 193v12c0 138 84 191 183 191
c44 0 76 -11 96 -22v-63c-31 12 -60 19 -100 19c-57 0 -96 -34 -96 -117v-20c0 -85 31 -128 104 -128c46 0 73 13 96 25v-63c-25 -14 -61 -27 -106 -27z" />
    <glyph glyph-name="trademark" unicode="&#x2122;" horiz-adv-x="650" 
d="M329 404l51 289h83l36 -215h3l111 215h89l-51 -289h-62l37 210h-3l-109 -210h-56l-34 210h-3l-37 -210h-55zM129 404l42 237h-86l9 52h235l-9 -52h-87l-42 -237h-62z" />
    <glyph glyph-name="acute" unicode="&#xb4;" 
d="M269 587l86 145h102l-110 -145h-78z" />
    <glyph glyph-name="dieresis" unicode="&#xa8;" 
d="M352 615l16 89h86l-16 -89h-86zM182 615l16 89h86l-16 -89h-86z" />
    <glyph glyph-name="AE" unicode="&#xc6;" horiz-adv-x="869" 
d="M-43 0l486 693h450l-13 -77h-307l-39 -220h236l-14 -77h-235l-42 -242h309l-14 -77h-398l35 200h-218l-139 -200h-97zM247 277h178l60 341h-4z" />
    <glyph glyph-name="Oslash" unicode="&#xd8;" horiz-adv-x="665" 
d="M301 -11c-76 0 -138 26 -183 70l-55 -59h-88l104 112c-23 41 -35 91 -35 147c0 220 122 445 352 445c70 0 130 -23 174 -63l49 52h87l-94 -102c27 -43 42 -97 42 -157c0 -224 -123 -445 -353 -445zM307 63c121 0 213 107 240 260c8 46 12 77 12 116c0 30 -4 58 -12 83
l-373 -403c27 -36 70 -56 133 -56zM139 254c0 -26 2 -49 7 -70l370 398c-27 30 -68 48 -126 48c-120 0 -211 -99 -240 -260c-8 -46 -11 -77 -11 -116z" />
    <glyph glyph-name="yen" unicode="&#xa5;" horiz-adv-x="519" 
d="M172 0l25 141h-147l13 73h146l12 68h-147l13 73h128l-140 338h92l117 -297h3l218 297h94l-257 -338h131l-13 -73h-151l-12 -68h152l-13 -73h-153l-25 -141h-86z" />
    <glyph glyph-name="ordfeminine" unicode="&#xaa;" horiz-adv-x="463" 
d="M203 222c-87 0 -151 51 -151 159c0 191 130 321 283 321c60 0 126 -14 145 -21l-79 -450h-70l-1 47h-4c-31 -33 -71 -56 -123 -56zM224 288c39 0 80 16 108 41l53 298c-19 7 -33 11 -59 11c-90 0 -152 -64 -177 -165c-7 -29 -10 -56 -10 -89c0 -79 37 -96 85 -96z" />
    <glyph glyph-name="ordmasculine" unicode="&#xba;" horiz-adv-x="462" 
d="M235 222c-115 0 -179 71 -179 184c0 150 85 296 246 296c120 0 178 -67 178 -181c0 -151 -85 -299 -245 -299zM238 290c86 0 132 66 150 168c4 25 6 51 6 65c0 83 -38 111 -96 111c-86 0 -131 -60 -149 -163c-3 -16 -7 -46 -7 -64c0 -86 39 -117 96 -117z" />
    <glyph glyph-name="ae" unicode="&#xe6;" horiz-adv-x="771" 
d="M152 -10c-85 0 -145 49 -145 134c0 92 59 149 178 162l139 15l6 33c16 83 -21 113 -106 113c-50 0 -93 -8 -125 -15l11 63c43 16 89 28 146 28c79 0 131 -28 149 -83c40 52 96 83 170 83c128 0 197 -85 169 -242l-9 -50h-334c-1 -12 -1 -23 -1 -34
c0 -98 44 -131 131 -131c63 0 124 19 173 40l-13 -71c-35 -21 -98 -45 -172 -45c-84 0 -146 30 -180 85c-44 -45 -102 -85 -187 -85zM311 188c0 16 0 32 2 48l-116 -11c-70 -7 -97 -35 -97 -92c0 -51 28 -75 75 -75c52 0 98 23 144 63c-5 20 -8 43 -8 67zM421 322l-6 -20
h241c19 104 -14 150 -92 150c-75 0 -119 -56 -143 -130z" />
    <glyph glyph-name="oslash" unicode="&#xf8;" horiz-adv-x="510" 
d="M218 -10c-58 0 -104 17 -137 48l-37 -38h-82l83 86c-14 29 -22 64 -22 105c0 170 94 332 270 332c55 0 100 -16 133 -45l34 35h82l-79 -81c16 -31 25 -68 25 -110c0 -168 -92 -332 -270 -332zM222 61c99 0 155 76 175 189c5 28 7 57 7 73s-2 30 -5 43l-263 -271
c21 -23 51 -34 86 -34zM107 190c0 -14 1 -26 3 -38l261 270c-20 20 -49 30 -82 30c-100 0 -155 -76 -175 -189c-5 -24 -7 -47 -7 -73z" />
    <glyph glyph-name="questiondown" unicode="&#xbf;" horiz-adv-x="400" 
d="M160 -132c-101 0 -172 55 -172 150c0 81 30 126 132 196c60 41 89 59 97 108l7 43h83l-8 -49c-12 -71 -45 -105 -132 -161c-74 -48 -85 -86 -85 -129c0 -53 37 -82 105 -82c61 0 91 11 138 27l-12 -71c-51 -21 -89 -32 -153 -32zM233 472l18 101h100l-18 -101h-100z" />
    <glyph glyph-name="exclamdown" unicode="&#xa1;" horiz-adv-x="274" 
d="M23 -120l99 485h74l-77 -485h-96zM127 472l18 101h96l-18 -101h-96z" />
    <glyph glyph-name="florin" unicode="&#x192;" horiz-adv-x="400" 
d="M60 379l14 76h86l22 121c22 127 91 172 183 172c43 0 71 -7 87 -16l-11 -65c-18 6 -30 8 -61 8c-57 0 -96 -28 -111 -110l-20 -110h130l-14 -76h-129l-72 -407c-21 -118 -82 -155 -162 -155c-39 0 -68 8 -83 17l11 63c12 -3 27 -7 58 -7c39 0 77 24 89 91l70 398h-87z
" />
    <glyph glyph-name="guillemotleft" unicode="&#xab;" horiz-adv-x="452" 
d="M290 56l-70 180l5 33l134 180h84l-137 -201l64 -192h-80zM110 56l-70 180l5 33l134 180h84l-137 -201l64 -192h-80z" />
    <glyph glyph-name="guillemotright" unicode="&#xbb;" horiz-adv-x="452" 
d="M188 56l137 201l-64 192h80l70 -180l-5 -33l-134 -180h-84zM8 56l137 201l-64 192h80l70 -180l-5 -33l-134 -180h-84z" />
    <glyph glyph-name="ellipsis" unicode="&#x2026;" horiz-adv-x="728" 
d="M507 0l18 101h100l-18 -101h-100zM31 0l18 101h100l-18 -101h-100zM269 0l18 101h100l-18 -101h-100z" />
    <glyph glyph-name="uni00A0" unicode="&#xa0;" horiz-adv-x="192" 
 />
    <glyph glyph-name="Agrave" unicode="&#xc0;" horiz-adv-x="590" 
d="M-38 0l384 693h95l97 -693h-94l-25 195h-260l-105 -195h-92zM367 580l-167 -308h209l-39 308h-3zM353 740l-64 125h94l45 -125h-75z" />
    <glyph glyph-name="Atilde" unicode="&#xc3;" horiz-adv-x="590" 
d="M-38 0l384 693h95l97 -693h-94l-25 195h-260l-105 -195h-92zM367 580l-167 -308h209l-39 308h-3zM249 745c13 74 59 104 102 104s77 -31 105 -31c19 0 32 10 38 33h60c-13 -74 -59 -104 -102 -104s-77 31 -105 31c-19 0 -32 -10 -38 -33h-60z" />
    <glyph glyph-name="Otilde" unicode="&#xd5;" horiz-adv-x="665" 
d="M301 -11c-157 0 -257 101 -257 270c0 220 122 445 352 445c155 0 258 -101 258 -270c0 -224 -123 -445 -353 -445zM307 63c121 0 211 107 238 260c8 46 12 77 12 116c0 108 -46 191 -167 191c-120 0 -209 -99 -238 -260c-8 -46 -11 -77 -11 -116c0 -118 51 -191 166 -191
zM261 745c13 74 59 104 102 104s77 -31 105 -31c19 0 32 10 38 33h60c-13 -74 -59 -104 -102 -104s-77 31 -105 31c-19 0 -32 -10 -38 -33h-60z" />
    <glyph glyph-name="OE" unicode="&#x152;" horiz-adv-x="914" 
d="M321 0c-180 0 -279 91 -279 254c0 268 121 439 368 439h528l-13 -77h-307l-39 -220h234l-14 -77h-233l-42 -242h309l-14 -77h-498zM337 77h96l95 539h-124c-161 0 -227 -88 -255 -250c-7 -42 -10 -79 -10 -112c0 -120 60 -177 198 -177z" />
    <glyph glyph-name="oe" unicode="&#x153;" horiz-adv-x="853" 
d="M218 -10c-123 0 -195 78 -195 204c0 167 91 329 270 329c91 0 145 -41 167 -114c44 71 111 114 195 114c130 0 197 -85 169 -242l-9 -50h-334c-1 -12 -1 -23 -1 -34c0 -96 44 -134 131 -134c63 0 124 19 173 40l-12 -68c-35 -21 -99 -45 -173 -45c-94 0 -156 40 -181 113
c-41 -68 -107 -113 -200 -113zM222 61c96 0 151 78 171 191c5 28 7 56 7 72c0 92 -47 128 -111 128c-96 0 -150 -71 -170 -186c-3 -18 -8 -51 -8 -71c0 -95 47 -134 111 -134zM500 322l-6 -20h242c19 104 -14 150 -92 150c-71 0 -118 -48 -144 -130z" />
    <glyph glyph-name="endash" unicode="&#x2013;" horiz-adv-x="425" 
d="M34 252l13 70h355l-13 -70h-355z" />
    <glyph glyph-name="emdash" unicode="&#x2014;" horiz-adv-x="700" 
d="M34 252l13 70h630l-13 -70h-630z" />
    <glyph glyph-name="quotedblleft" unicode="&#x201c;" horiz-adv-x="365" 
d="M247 508l62 185h77l-42 -185h-97zM89 508l62 185h77l-42 -185h-97z" />
    <glyph glyph-name="quotedblright" unicode="&#x201d;" horiz-adv-x="365" 
d="M259 508l42 185h97l-62 -185h-77zM101 508l42 185h97l-62 -185h-77z" />
    <glyph glyph-name="quoteleft" unicode="&#x2018;" horiz-adv-x="207" 
d="M89 508l62 185h77l-42 -185h-97z" />
    <glyph glyph-name="quoteright" unicode="&#x2019;" horiz-adv-x="207" 
d="M101 508l42 185h97l-62 -185h-77z" />
    <glyph glyph-name="divide" unicode="&#xf7;" horiz-adv-x="516" 
d="M56 295l14 77h418l-14 -77h-418zM185 127l18 101h100l-18 -101h-100zM240 439l18 101h100l-18 -101h-100z" />
    <glyph glyph-name="ydieresis" unicode="&#xff;" horiz-adv-x="468" 
d="M4 -199c-30 0 -53 8 -67 17l11 63c13 -4 29 -7 49 -7c47 0 78 23 112 82l34 60l-89 497h93l59 -383h3l204 383h91l-318 -574c-53 -96 -100 -138 -182 -138zM336 615l16 89h86l-16 -89h-86zM166 615l16 89h86l-16 -89h-86z" />
    <glyph glyph-name="Ydieresis" unicode="&#x178;" horiz-adv-x="522" 
d="M173 0l48 275l-138 418h91l107 -340h3l216 340h93l-281 -421l-48 -272h-91zM397 746l16 89h86l-16 -89h-86zM223 746l16 89h86l-16 -89h-86z" />
    <glyph glyph-name="fraction" unicode="&#x2044;" horiz-adv-x="236" 
d="M-217 -40l595 753h74l-595 -753h-74z" />
    <glyph glyph-name="Euro" unicode="&#x20ac;" horiz-adv-x="560" 
d="M46 383l13 73h66c17 50 38 94 65 130c65 87 151 119 250 119c69 0 109 -15 141 -34l-13 -71c-42 16 -76 27 -134 27s-122 -11 -171 -83c-16 -23 -30 -54 -41 -88h208l-13 -73h-214c-6 -26 -10 -52 -12 -78h212l-13 -73h-203v-1c0 -120 48 -166 158 -166
c61 0 116 17 162 38l-13 -74c-49 -28 -112 -41 -165 -41c-128 0 -236 61 -236 244h-74l13 73h64c2 27 6 53 11 78h-61z" />
    <glyph glyph-name="guilsinglleft" unicode="&#x2039;" horiz-adv-x="272" 
d="M110 56l-70 180l5 33l134 180h84l-137 -201l64 -192h-80z" />
    <glyph glyph-name="guilsinglright" unicode="&#x203a;" horiz-adv-x="272" 
d="M8 56l137 201l-64 192h80l70 -180l-5 -33l-134 -180h-84z" />
    <glyph glyph-name="daggerdbl" unicode="&#x2021;" horiz-adv-x="467" 
d="M10 127l14 77h160l38 216h-160l14 77h160l34 196h81l-34 -196h160l-14 -77h-160l-38 -216h160l-14 -77h-160l-34 -196h-81l34 196h-160z" />
    <glyph glyph-name="periodcentered" unicode="&#xb7;" horiz-adv-x="252" 
d="M79 273l18 101h100l-18 -101h-100z" />
    <glyph glyph-name="quotesinglbase" unicode="&#x201a;" horiz-adv-x="207" 
d="M-3 -75l45 185h97l-65 -185h-77z" />
    <glyph glyph-name="quotedblbase" unicode="&#x201e;" horiz-adv-x="365" 
d="M155 -75l45 185h97l-65 -185h-77zM-3 -75l45 185h97l-65 -185h-77z" />
    <glyph glyph-name="perthousand" unicode="&#x2030;" horiz-adv-x="1146" 
d="M201 322c-82 0 -129 54 -129 134c0 119 55 249 182 249c82 0 129 -54 129 -134c0 -119 -55 -249 -182 -249zM576 -8c-82 0 -129 54 -129 134c0 119 55 249 182 249c82 0 129 -54 129 -134c0 -119 -55 -249 -182 -249zM924 -8c-82 0 -129 54 -129 134
c0 119 55 249 182 249c82 0 129 -54 129 -134c0 -119 -55 -249 -182 -249zM90 -40l563 753h76l-563 -753h-76zM579 50c44 0 80 35 94 117c6 35 8 59 8 82c0 40 -18 68 -55 68c-44 0 -80 -35 -94 -117c-6 -33 -8 -59 -8 -82c0 -45 18 -68 55 -68zM927 50c44 0 80 35 94 117
c6 35 8 59 8 82c0 40 -18 68 -55 68c-44 0 -80 -35 -94 -117c-6 -33 -8 -59 -8 -82c0 -45 18 -68 55 -68zM204 380c44 0 80 35 94 117c6 35 8 59 8 82c0 40 -18 68 -55 68c-44 0 -80 -35 -94 -117c-6 -33 -8 -59 -8 -82c0 -45 18 -68 55 -68z" />
    <glyph glyph-name="Acircumflex" unicode="&#xc2;" horiz-adv-x="590" 
d="M-38 0l384 693h95l97 -693h-94l-25 195h-260l-105 -195h-92zM367 580l-167 -308h209l-39 308h-3zM263 740l120 124h72l78 -124h-67l-54 61l-78 -61h-71z" />
    <glyph glyph-name="Ecircumflex" unicode="&#xca;" horiz-adv-x="523" 
d="M28 0l122 693h397l-13 -77h-307l-39 -220h234l-14 -77h-233l-42 -242h309l-14 -77h-400zM227 740l120 124h72l78 -124h-67l-54 61l-78 -61h-71z" />
    <glyph glyph-name="Aacute" unicode="&#xc1;" horiz-adv-x="590" 
d="M-38 0l384 693h95l97 -693h-94l-25 195h-260l-105 -195h-92zM367 580l-167 -308h209l-39 308h-3zM354 740l73 125h103l-97 -125h-79z" />
    <glyph glyph-name="Edieresis" unicode="&#xcb;" horiz-adv-x="523" 
d="M28 0l122 693h397l-13 -77h-307l-39 -220h234l-14 -77h-233l-42 -242h309l-14 -77h-400zM407 746l16 89h86l-16 -89h-86zM233 746l16 89h86l-16 -89h-86z" />
    <glyph glyph-name="Egrave" unicode="&#xc8;" horiz-adv-x="523" 
d="M28 0l122 693h397l-13 -77h-307l-39 -220h234l-14 -77h-233l-42 -242h309l-14 -77h-400zM323 740l-64 125h94l45 -125h-75z" />
    <glyph glyph-name="Iacute" unicode="&#xcd;" horiz-adv-x="244" 
d="M31 0l123 693h91l-123 -693h-91zM164 740l73 125h103l-97 -125h-79z" />
    <glyph glyph-name="Icircumflex" unicode="&#xce;" horiz-adv-x="244" 
d="M31 0l123 693h91l-123 -693h-91zM72 740l120 124h72l78 -124h-67l-54 61l-78 -61h-71z" />
    <glyph glyph-name="Idieresis" unicode="&#xcf;" horiz-adv-x="244" 
d="M31 0l123 693h91l-123 -693h-91zM252 746l16 89h86l-16 -89h-86zM78 746l16 89h86l-16 -89h-86z" />
    <glyph glyph-name="Igrave" unicode="&#xcc;" horiz-adv-x="244" 
d="M31 0l123 693h91l-123 -693h-91zM168 740l-64 125h94l45 -125h-75z" />
    <glyph glyph-name="Oacute" unicode="&#xd3;" horiz-adv-x="665" 
d="M301 -11c-157 0 -257 101 -257 270c0 220 122 445 352 445c155 0 258 -101 258 -270c0 -224 -123 -445 -353 -445zM307 63c121 0 211 107 238 260c8 46 12 77 12 116c0 108 -46 191 -167 191c-120 0 -209 -99 -238 -260c-8 -46 -11 -77 -11 -116c0 -118 51 -191 166 -191
zM370 740l73 125h103l-97 -125h-79z" />
    <glyph glyph-name="Ocircumflex" unicode="&#xd4;" horiz-adv-x="665" 
d="M301 -11c-157 0 -257 101 -257 270c0 220 122 445 352 445c155 0 258 -101 258 -270c0 -224 -123 -445 -353 -445zM307 63c121 0 211 107 238 260c8 46 12 77 12 116c0 108 -46 191 -167 191c-120 0 -209 -99 -238 -260c-8 -46 -11 -77 -11 -116c0 -118 51 -191 166 -191
zM278 740l120 124h72l78 -124h-67l-54 61l-78 -61h-71z" />
    <glyph glyph-name="Ograve" unicode="&#xd2;" horiz-adv-x="665" 
d="M301 -11c-157 0 -257 101 -257 270c0 220 122 445 352 445c155 0 258 -101 258 -270c0 -224 -123 -445 -353 -445zM307 63c121 0 211 107 238 260c8 46 12 77 12 116c0 108 -46 191 -167 191c-120 0 -209 -99 -238 -260c-8 -46 -11 -77 -11 -116c0 -118 51 -191 166 -191
zM374 740l-64 125h94l45 -125h-75z" />
    <glyph glyph-name="Uacute" unicode="&#xda;" horiz-adv-x="626" 
d="M293 -12c-128 0 -232 44 -232 194c0 22 2 46 7 72l77 439h91l-78 -446c-4 -24 -6 -45 -6 -64c0 -99 57 -123 144 -123c101 0 151 42 175 179l80 454h84l-82 -468c-23 -134 -92 -237 -260 -237zM356 740l73 125h103l-97 -125h-79z" />
    <glyph glyph-name="Ucircumflex" unicode="&#xdb;" horiz-adv-x="626" 
d="M293 -12c-128 0 -232 44 -232 194c0 22 2 46 7 72l77 439h91l-78 -446c-4 -24 -6 -45 -6 -64c0 -99 57 -123 144 -123c101 0 151 42 175 179l80 454h84l-82 -468c-23 -134 -92 -237 -260 -237zM264 740l120 124h72l78 -124h-67l-54 61l-78 -61h-71z" />
    <glyph glyph-name="Ugrave" unicode="&#xd9;" horiz-adv-x="626" 
d="M293 -12c-128 0 -232 44 -232 194c0 22 2 46 7 72l77 439h91l-78 -446c-4 -24 -6 -45 -6 -64c0 -99 57 -123 144 -123c101 0 151 42 175 179l80 454h84l-82 -468c-23 -134 -92 -237 -260 -237zM360 740l-64 125h94l45 -125h-75z" />
    <glyph glyph-name="dotlessi" unicode="&#x131;" horiz-adv-x="219" 
d="M20 0l90 513h89l-90 -513h-89z" />
    <glyph glyph-name="circumflex" unicode="&#x2c6;" 
d="M162 587l126 144h76l78 -144h-68l-57 79l-83 -79h-72z" />
    <glyph glyph-name="tilde" unicode="&#x2dc;" 
d="M166 604c13 76 59 108 102 108s77 -35 105 -35c19 0 32 12 38 37h60c-13 -76 -59 -108 -102 -108s-77 35 -105 35c-19 0 -32 -12 -38 -37h-60z" />
    <glyph glyph-name="macron" unicode="&#xaf;" 
d="M193 620l13 73h238l-13 -73h-238z" />
    <glyph glyph-name="breve" unicode="&#x2d8;" 
d="M312 593c-76 0 -123 52 -117 126h67c0 -37 15 -60 55 -60s63 23 75 60h67c-15 -76 -71 -126 -147 -126z" />
    <glyph glyph-name="dotaccent" unicode="&#x2d9;" 
d="M265 615l16 91h90l-16 -91h-90z" />
    <glyph glyph-name="ring" unicode="&#x2da;" 
d="M316 576c-55 0 -93 38 -93 87c0 52 43 97 99 97c55 0 93 -38 93 -87c0 -54 -43 -97 -99 -97zM317 618c30 0 49 23 49 54c0 28 -16 46 -44 46c-30 0 -50 -24 -50 -54c0 -29 17 -46 45 -46z" />
    <glyph glyph-name="cedilla" unicode="&#xb8;" 
d="M110 -217l9 52c80 7 109 17 109 44c0 20 -24 28 -75 28l16 93h57l-8 -48c53 -3 84 -28 84 -65c0 -62 -53 -95 -192 -104z" />
    <glyph glyph-name="hungarumlaut" unicode="&#x2dd;" 
d="M179 587l66 145h95l-87 -145h-74zM337 587l65 145h95l-87 -145h-73z" />
    <glyph glyph-name="ogonek" unicode="&#x2db;" 
d="M202 -200c-66 0 -98 34 -98 80c0 62 52 97 100 120h73c-31 -22 -94 -62 -94 -108c0 -23 19 -32 43 -32c16 0 29 2 36 4l-9 -54c-14 -6 -33 -10 -51 -10z" />
    <glyph glyph-name="caron" unicode="&#x2c7;" 
d="M264 587l-78 144h68l57 -79l83 79h72l-126 -144h-76z" />
    <glyph glyph-name="space_uni0326" horiz-adv-x="488" 
d="M103 -182l37 140h96l-65 -140h-68z" />
    <glyph glyph-name="caron.alt" horiz-adv-x="488" 
d="M334 576h-63l39 163h86z" />
    <glyph glyph-name="space_uni0326.alt" horiz-adv-x="488" 
d="M385 746l-37 -140h-99l71 140h65z" />
    <glyph glyph-name="acute.pl" 
d="M300 587l71 145h96l-96 -145h-71z" />
    <glyph glyph-name="grave.uc" 
d="M296 740l-64 125h94l45 -125h-75z" />
    <glyph glyph-name="dieresis.uc" 
d="M376 746l16 89h86l-16 -89h-86zM202 746l16 89h86l-16 -89h-86z" />
    <glyph glyph-name="macron.uc" 
d="M213 748l13 73h238l-13 -73h-238z" />
    <glyph glyph-name="acute.uc" 
d="M289 740l73 125h103l-97 -125h-79z" />
    <glyph glyph-name="circumflex.uc" 
d="M196 740l120 124h72l78 -124h-67l-54 61l-78 -61h-71z" />
    <glyph glyph-name="caron.uc" 
d="M488 864l-120 -124h-72l-78 124h67l54 -61l78 61h71z" />
    <glyph glyph-name="breve.uc" 
d="M338 738c-76 0 -123 52 -117 126h67c0 -37 15 -60 55 -60s63 23 75 60h67c-15 -76 -71 -126 -147 -126z" />
    <glyph glyph-name="dotaccent.uc" 
d="M287 746l16 91h90l-16 -91h-90z" />
    <glyph glyph-name="ring.uc" 
d="M342 729c-55 0 -93 38 -93 87c0 52 43 97 99 97c55 0 93 -38 93 -87c0 -54 -43 -97 -99 -97zM343 771c30 0 49 23 49 54c0 28 -16 46 -44 46c-30 0 -50 -24 -50 -54c0 -29 17 -46 45 -46z" />
    <glyph glyph-name="tilde.uc" 
d="M182 745c13 74 59 104 102 104s77 -31 105 -31c19 0 32 10 38 33h60c-13 -74 -59 -104 -102 -104s-77 31 -105 31c-19 0 -32 -10 -38 -33h-60z" />
    <glyph glyph-name="hungarumlaut.uc" 
d="M199 740l57 125h95l-78 -125h-74zM357 740l56 125h95l-78 -125h-73z" />
    <glyph glyph-name="acute.ucpl" 
d="M322 740l61 125h96l-86 -125h-71z" />
    <glyph glyph-name="Dcroat" unicode="&#x110;" horiz-adv-x="628" 
d="M11 309l14 77h71l54 307h189c180 0 279 -91 279 -254c0 -268 -121 -439 -368 -439h-222l54 309h-71zM132 77h124c161 0 227 88 255 250c7 42 10 79 10 112c0 120 -60 177 -198 177h-96l-41 -230h187l-14 -77h-186z" />
    <glyph glyph-name="Eng" unicode="&#x14a;" horiz-adv-x="638" 
d="M318 -177c-50 0 -78 11 -108 28l12 67c27 -10 57 -19 96 -19c58 0 99 28 114 81l-217 594h-3l-101 -574h-83l122 693h112l199 -539h3l95 539h83l-123 -699c-17 -95 -75 -171 -201 -171z" />
    <glyph glyph-name="IJ" unicode="&#x132;" horiz-adv-x="612" 
d="M31 0l123 693h91l-123 -693h-91zM336 -7c-56 0 -95 12 -124 32l11 67c28 -12 56 -21 106 -21c74 0 101 48 113 119l88 503h91l-91 -519c-19 -108 -72 -181 -194 -181z" />
    <glyph glyph-name="uni0237" unicode="&#x237;" horiz-adv-x="220" 
d="M-61 -199c-29 0 -65 7 -83 21l10 59c16 -6 34 -9 56 -9c59 0 82 27 93 88l97 553h89l-99 -563c-17 -99 -70 -149 -163 -149z" />
    <glyph glyph-name="dcroat" unicode="&#x111;" horiz-adv-x="521" 
d="M286 588l11 61h141l16 90h88l-16 -90h69l-11 -61h-69l-103 -588h-72l-2 52h-5c-39 -35 -87 -62 -156 -62c-86 0 -154 57 -154 169c0 187 93 364 272 364c63 0 93 -16 116 -31l16 96h-141zM205 61c56 0 101 25 138 49l55 311c-26 16 -61 28 -94 28
c-113 0 -164 -77 -187 -211c-4 -23 -5 -50 -5 -68c0 -81 33 -109 93 -109z" />
    <glyph glyph-name="eng" unicode="&#x14b;" horiz-adv-x="522" 
d="M17 0l91 513h84l-9 -54h5c56 41 111 64 174 64c96 0 123 -59 123 -123c0 -14 -2 -28 -4 -41l-72 -409c-17 -99 -69 -149 -162 -149c-29 0 -65 7 -83 21l10 59c16 -6 34 -9 56 -9c59 0 82 27 93 88l68 386c3 15 4 28 4 39c0 42 -19 62 -71 62c-45 0 -92 -12 -148 -44
l-71 -403h-88z" />
    <glyph glyph-name="ij" unicode="&#x133;" horiz-adv-x="435" 
d="M20 0l90 513h88l-90 -513h-88zM127 615l16 91h90l-16 -91h-90zM155 -199c-29 0 -65 7 -83 21l10 59c16 -6 34 -9 56 -9c59 0 82 27 93 88l97 553h88l-99 -563c-17 -99 -69 -149 -162 -149zM345 615l16 91h89l-16 -91h-89z" />
    <glyph glyph-name="Abreve" unicode="&#x102;" horiz-adv-x="590" 
d="M-38 0l384 693h95l97 -693h-94l-25 195h-260l-105 -195h-92zM367 580l-167 -308h209l-39 308h-3zM395 738c-76 0 -123 52 -117 126h67c0 -37 15 -60 55 -60s63 23 75 60h67c-15 -76 -71 -126 -147 -126z" />
    <glyph glyph-name="Amacron" unicode="&#x100;" horiz-adv-x="590" 
d="M-38 0l384 693h95l97 -693h-94l-25 195h-260l-105 -195h-92zM367 580l-167 -308h209l-39 308h-3zM281 748l13 73h238l-13 -73h-238z" />
    <glyph glyph-name="Aogonek" unicode="&#x104;" horiz-adv-x="590" 
d="M459 -200c-66 0 -98 34 -98 80c0 52 44 90 83 115l-25 200h-260l-105 -195h-92l384 693h95l97 -690c-42 -22 -98 -65 -98 -109c0 -25 19 -34 43 -34c16 0 29 2 36 4l-9 -54c-14 -6 -33 -10 -51 -10zM367 580l-167 -308h209l-39 308h-3z" />
    <glyph glyph-name="Aringacute" unicode="&#x1fa;" horiz-adv-x="590" 
d="M-38 0l384 693h95l97 -693h-94l-25 195h-260l-105 -195h-92zM367 580l-167 -308h209l-39 308h-3zM401 729c-55 0 -93 38 -93 87c0 52 43 97 99 97c55 0 93 -38 93 -87c0 -54 -43 -97 -99 -97zM402 771c30 0 49 23 49 54c0 28 -16 46 -44 46c-30 0 -50 -24 -50 -54
c0 -29 17 -46 45 -46zM379 936l73 125h103l-97 -125h-79z" />
    <glyph glyph-name="AEacute" unicode="&#x1fc;" horiz-adv-x="869" 
d="M-43 0l486 693h450l-13 -77h-307l-39 -220h236l-14 -77h-235l-42 -242h309l-14 -77h-398l35 200h-218l-139 -200h-97zM247 277h178l60 341h-4zM625 740l73 125h103l-97 -125h-79z" />
    <glyph glyph-name="Cacute" unicode="&#x106;" horiz-adv-x="555" 
d="M297 -12c-160 0 -253 95 -253 274c0 97 28 196 72 271c67 114 155 172 304 172c84 0 128 -19 165 -45l-13 -75c-34 21 -83 43 -160 43c-98 0 -170 -39 -218 -135c-33 -66 -53 -143 -53 -234c0 -150 69 -194 169 -194c83 0 149 26 188 49l-13 -77
c-40 -29 -116 -49 -188 -49zM363 740l73 125h103l-97 -125h-79z" />
    <glyph glyph-name="Ccaron" unicode="&#x10c;" horiz-adv-x="555" 
d="M297 -12c-160 0 -253 95 -253 274c0 97 28 196 72 271c67 114 155 172 304 172c84 0 128 -19 165 -45l-13 -75c-34 21 -83 43 -160 43c-98 0 -170 -39 -218 -135c-33 -66 -53 -143 -53 -234c0 -150 69 -194 169 -194c83 0 149 26 188 49l-13 -77
c-40 -29 -116 -49 -188 -49zM562 864l-120 -124h-72l-78 124h67l54 -61l78 61h71z" />
    <glyph glyph-name="Ccircumflex" unicode="&#x108;" horiz-adv-x="555" 
d="M297 -12c-160 0 -253 95 -253 274c0 97 28 196 72 271c67 114 155 172 304 172c84 0 128 -19 165 -45l-13 -75c-34 21 -83 43 -160 43c-98 0 -170 -39 -218 -135c-33 -66 -53 -143 -53 -234c0 -150 69 -194 169 -194c83 0 149 26 188 49l-13 -77
c-40 -29 -116 -49 -188 -49zM271 740l120 124h72l78 -124h-67l-54 61l-78 -61h-71z" />
    <glyph glyph-name="Cdotaccent" unicode="&#x10a;" horiz-adv-x="555" 
d="M297 -12c-160 0 -253 95 -253 274c0 97 28 196 72 271c67 114 155 172 304 172c84 0 128 -19 165 -45l-13 -75c-34 21 -83 43 -160 43c-98 0 -170 -39 -218 -135c-33 -66 -53 -143 -53 -234c0 -150 69 -194 169 -194c83 0 149 26 188 49l-13 -77
c-40 -29 -116 -49 -188 -49zM362 746l16 91h90l-16 -91h-90z" />
    <glyph glyph-name="Cacute.pl" horiz-adv-x="555" 
d="M297 -12c-160 0 -253 95 -253 274c0 97 28 196 72 271c67 114 155 172 304 172c84 0 128 -19 165 -45l-13 -75c-34 21 -83 43 -160 43c-98 0 -170 -39 -218 -135c-33 -66 -53 -143 -53 -234c0 -150 69 -194 169 -194c83 0 149 26 188 49l-13 -77
c-40 -29 -116 -49 -188 -49zM369 740l61 125h96l-86 -125h-71z" />
    <glyph glyph-name="Dcaron" unicode="&#x10e;" horiz-adv-x="628" 
d="M28 0l122 693h189c180 0 279 -91 279 -254c0 -268 -121 -439 -368 -439h-222zM132 77h124c161 0 227 88 255 250c7 42 10 79 10 112c0 120 -60 177 -198 177h-96zM531 864l-120 -124h-72l-78 124h67l54 -61l78 61h71z" />
    <glyph glyph-name="Ebreve" unicode="&#x114;" horiz-adv-x="523" 
d="M28 0l122 693h397l-13 -77h-307l-39 -220h234l-14 -77h-233l-42 -242h309l-14 -77h-400zM362 738c-76 0 -123 52 -117 126h67c0 -37 15 -60 55 -60s63 23 75 60h67c-15 -76 -71 -126 -147 -126z" />
    <glyph glyph-name="Ecaron" unicode="&#x11a;" horiz-adv-x="523" 
d="M28 0l122 693h397l-13 -77h-307l-39 -220h234l-14 -77h-233l-42 -242h309l-14 -77h-400zM518 864l-120 -124h-72l-78 124h67l54 -61l78 61h71z" />
    <glyph glyph-name="Edotaccent" unicode="&#x116;" horiz-adv-x="523" 
d="M28 0l122 693h397l-13 -77h-307l-39 -220h234l-14 -77h-233l-42 -242h309l-14 -77h-400zM318 746l16 91h90l-16 -91h-90z" />
    <glyph glyph-name="Emacron" unicode="&#x112;" horiz-adv-x="523" 
d="M28 0l122 693h397l-13 -77h-307l-39 -220h234l-14 -77h-233l-42 -242h309l-14 -77h-400zM245 748l13 73h238l-13 -73h-238z" />
    <glyph glyph-name="Eogonek" unicode="&#x118;" horiz-adv-x="523" 
d="M28 0l122 693h397l-13 -77h-307l-39 -220h234l-14 -77h-233l-42 -242h309l-14 -77h-46c-31 -22 -94 -62 -94 -108c0 -23 19 -32 43 -32c16 0 29 2 36 4l-9 -54c-14 -6 -33 -10 -51 -10c-66 0 -98 34 -98 80c0 56 47 95 91 120h-272z" />
    <glyph glyph-name="Gbreve" unicode="&#x11e;" horiz-adv-x="622" 
d="M321 -12c-163 0 -275 87 -275 270c0 102 31 203 71 269c78 129 185 178 324 178c77 0 132 -19 169 -45l-13 -76c-34 21 -95 43 -163 43c-128 0 -216 -60 -265 -208c-19 -59 -25 -105 -25 -162c0 -118 52 -194 186 -194c41 0 81 5 113 16l34 185h-134l13 76h225l-55 -314
c-56 -21 -126 -38 -205 -38zM424 738c-76 0 -123 52 -117 126h67c0 -37 15 -60 55 -60s63 23 75 60h67c-15 -76 -71 -126 -147 -126z" />
    <glyph glyph-name="Gcircumflex" unicode="&#x11c;" horiz-adv-x="622" 
d="M321 -12c-163 0 -275 87 -275 270c0 102 31 203 71 269c78 129 185 178 324 178c77 0 132 -19 169 -45l-13 -76c-34 21 -95 43 -163 43c-128 0 -216 -60 -265 -208c-19 -59 -25 -105 -25 -162c0 -118 52 -194 186 -194c41 0 81 5 113 16l34 185h-134l13 76h225l-55 -314
c-56 -21 -126 -38 -205 -38zM289 740l120 124h72l78 -124h-67l-54 61l-78 -61h-71z" />
    <glyph glyph-name="Gcommaaccent" unicode="&#x122;" horiz-adv-x="622" 
d="M321 -12c-163 0 -275 87 -275 270c0 102 31 203 71 269c78 129 185 178 324 178c77 0 132 -19 169 -45l-13 -76c-34 21 -95 43 -163 43c-128 0 -216 -60 -265 -208c-19 -59 -25 -105 -25 -162c0 -118 52 -194 186 -194c41 0 81 5 113 16l34 185h-134l13 76h225l-55 -314
c-56 -21 -126 -38 -205 -38zM203 -182l37 140h96l-65 -140h-68z" />
    <glyph glyph-name="Gdotaccent" unicode="&#x120;" horiz-adv-x="622" 
d="M321 -12c-163 0 -275 87 -275 270c0 102 31 203 71 269c78 129 185 178 324 178c77 0 132 -19 169 -45l-13 -76c-34 21 -95 43 -163 43c-128 0 -216 -60 -265 -208c-19 -59 -25 -105 -25 -162c0 -118 52 -194 186 -194c41 0 81 5 113 16l34 185h-134l13 76h225l-55 -314
c-56 -21 -126 -38 -205 -38zM380 746l16 91h90l-16 -91h-90z" />
    <glyph glyph-name="Hbar" unicode="&#x126;" horiz-adv-x="671" 
d="M62 502l11 65h59l22 126h91l-22 -126h333l22 126h91l-22 -126h57l-11 -65h-58l-88 -502h-91l56 320h-333l-56 -320h-91l88 502h-58zM193 397h333l18 105h-333z" />
    <glyph glyph-name="Hcircumflex" unicode="&#x124;" horiz-adv-x="642" 
d="M28 0l123 693h91l-53 -296h313l53 296h91l-123 -693h-91l57 320h-313l-57 -320h-91zM271 740l120 124h72l78 -124h-67l-54 61l-78 -61h-71z" />
    <glyph glyph-name="Idotaccent" unicode="&#x130;" horiz-adv-x="244" 
d="M31 0l123 693h91l-123 -693h-91zM163 746l16 91h90l-16 -91h-90z" />
    <glyph glyph-name="Ibreve" unicode="&#x12c;" horiz-adv-x="244" 
d="M31 0l123 693h91l-123 -693h-91zM207 738c-76 0 -123 52 -117 126h67c0 -37 15 -60 55 -60s63 23 75 60h67c-15 -76 -71 -126 -147 -126z" />
    <glyph glyph-name="Imacron" unicode="&#x12a;" horiz-adv-x="244" 
d="M31 0l123 693h91l-123 -693h-91zM113 748l13 73h190l-13 -73h-190z" />
    <glyph glyph-name="Iogonek" unicode="&#x12e;" horiz-adv-x="244" 
d="M45 -200c-66 0 -98 34 -98 80c0 55 41 88 83 115l124 698h91l-123 -692c-35 -22 -96 -63 -96 -109c0 -23 19 -32 43 -32c16 0 29 2 36 4l-9 -54c-14 -6 -33 -10 -51 -10z" />
    <glyph glyph-name="Itilde" unicode="&#x128;" horiz-adv-x="244" 
d="M31 0l123 693h91l-123 -693h-91zM66 745c13 74 59 104 102 104s77 -31 105 -31c19 0 32 10 38 33h60c-13 -74 -59 -104 -102 -104s-77 31 -105 31c-19 0 -32 -10 -38 -33h-60z" />
    <glyph glyph-name="Jcircumflex" unicode="&#x134;" horiz-adv-x="384" 
d="M106 -7c-58 0 -99 13 -128 33l11 67c28 -12 58 -22 110 -22c76 0 103 48 115 119l88 503h91l-91 -519c-19 -108 -70 -181 -196 -181zM218 740l120 124h72l78 -124h-67l-54 61l-78 -61h-71z" />
    <glyph glyph-name="Kcommaaccent" unicode="&#x136;" horiz-adv-x="565" 
d="M408 0l-202 354l309 339h110l-319 -339l202 -354h-100zM28 0l122 693h91l-122 -693h-91zM166 -182l37 140h96l-65 -140h-68z" />
    <glyph glyph-name="Lacute" unicode="&#x139;" horiz-adv-x="470" 
d="M28 0l122 693h91l-108 -616h288l-14 -77h-379zM157 740l73 125h103l-97 -125h-79z" />
    <glyph glyph-name="Lcaron" unicode="&#x13d;" horiz-adv-x="470" 
d="M390 514h-63l43 179h86zM28 0l122 693h91l-108 -616h288l-14 -77h-379z" />
    <glyph glyph-name="Lcommaaccent" unicode="&#x13b;" horiz-adv-x="470" 
d="M28 0l122 693h91l-108 -616h288l-14 -77h-379zM129 -182l37 140h96l-65 -140h-68z" />
    <glyph glyph-name="Ldot" unicode="&#x13f;" horiz-adv-x="470" 
d="M28 0l122 693h91l-108 -616h288l-14 -77h-379zM343 315l18 101h100l-18 -101h-100z" />
    <glyph glyph-name="Nacute" unicode="&#x143;" horiz-adv-x="638" 
d="M28 0l122 693h112l198 -545h3l96 545h83l-122 -693h-99l-206 574h-3l-101 -574h-83zM370 740l73 125h103l-97 -125h-79z" />
    <glyph glyph-name="Ncaron" unicode="&#x147;" horiz-adv-x="638" 
d="M28 0l122 693h112l198 -545h3l96 545h83l-122 -693h-99l-206 574h-3l-101 -574h-83zM569 864l-120 -124h-72l-78 124h67l54 -61l78 61h71z" />
    <glyph glyph-name="Ncommaaccent" unicode="&#x145;" horiz-adv-x="638" 
d="M28 0l122 693h112l198 -545h3l96 545h83l-122 -693h-99l-206 574h-3l-101 -574h-83zM187 -182l37 140h96l-65 -140h-68z" />
    <glyph glyph-name="Nacute.pl" horiz-adv-x="638" 
d="M28 0l122 693h112l198 -545h3l96 545h83l-122 -693h-99l-206 574h-3l-101 -574h-83zM376 740l61 125h96l-86 -125h-71z" />
    <glyph glyph-name="Obreve" unicode="&#x14e;" horiz-adv-x="665" 
d="M301 -11c-157 0 -257 101 -257 270c0 220 122 445 352 445c155 0 258 -101 258 -270c0 -224 -123 -445 -353 -445zM307 63c121 0 211 107 238 260c8 46 12 77 12 116c0 108 -46 191 -167 191c-120 0 -209 -99 -238 -260c-8 -46 -11 -77 -11 -116c0 -118 51 -191 166 -191
zM418 738c-76 0 -123 52 -117 126h67c0 -37 15 -60 55 -60s63 23 75 60h67c-15 -76 -71 -126 -147 -126z" />
    <glyph glyph-name="Ohungarumlaut" unicode="&#x150;" horiz-adv-x="665" 
d="M301 -11c-157 0 -257 101 -257 270c0 220 122 445 352 445c155 0 258 -101 258 -270c0 -224 -123 -445 -353 -445zM307 63c121 0 211 107 238 260c8 46 12 77 12 116c0 108 -46 191 -167 191c-120 0 -209 -99 -238 -260c-8 -46 -11 -77 -11 -116c0 -118 51 -191 166 -191
zM291 740l57 125h95l-78 -125h-74zM449 740l56 125h95l-78 -125h-73z" />
    <glyph glyph-name="Omacron" unicode="&#x14c;" horiz-adv-x="665" 
d="M301 -11c-157 0 -257 101 -257 270c0 220 122 445 352 445c155 0 258 -101 258 -270c0 -224 -123 -445 -353 -445zM307 63c121 0 211 107 238 260c8 46 12 77 12 116c0 108 -46 191 -167 191c-120 0 -209 -99 -238 -260c-8 -46 -11 -77 -11 -116c0 -118 51 -191 166 -191
zM296 748l13 73h238l-13 -73h-238z" />
    <glyph glyph-name="Oacute.pl" horiz-adv-x="665" 
d="M301 -11c-157 0 -257 101 -257 270c0 220 122 445 352 445c155 0 258 -101 258 -270c0 -224 -123 -445 -353 -445zM307 63c121 0 211 107 238 260c8 46 12 77 12 116c0 108 -46 191 -167 191c-120 0 -209 -99 -238 -260c-8 -46 -11 -77 -11 -116c0 -118 51 -191 166 -191
zM376 740l61 125h96l-86 -125h-71z" />
    <glyph glyph-name="Oslashacute" unicode="&#x1fe;" horiz-adv-x="665" 
d="M301 -11c-76 0 -138 26 -183 70l-55 -59h-88l104 112c-23 41 -35 91 -35 147c0 220 122 445 352 445c70 0 130 -23 174 -63l49 52h87l-94 -102c27 -43 42 -97 42 -157c0 -224 -123 -445 -353 -445zM307 63c121 0 213 107 240 260c8 46 12 77 12 116c0 30 -4 58 -12 83
l-373 -403c27 -36 70 -56 133 -56zM139 254c0 -26 2 -49 7 -70l370 398c-27 30 -68 48 -126 48c-120 0 -211 -99 -240 -260c-8 -46 -11 -77 -11 -116zM370 740l73 125h103l-97 -125h-79z" />
    <glyph glyph-name="Racute" unicode="&#x154;" horiz-adv-x="557" 
d="M28 0l123 693h188c125 0 202 -65 202 -174c0 -103 -62 -179 -169 -207v-5l126 -307h-99l-118 293h-110l-52 -293h-91zM184 365h96c113 0 163 57 163 148c0 76 -49 103 -118 103h-97zM311 740l73 125h103l-97 -125h-79z" />
    <glyph glyph-name="Rcaron" unicode="&#x158;" horiz-adv-x="557" 
d="M28 0l123 693h188c125 0 202 -65 202 -174c0 -103 -62 -179 -169 -207v-5l126 -307h-99l-118 293h-110l-52 -293h-91zM184 365h96c113 0 163 57 163 148c0 76 -49 103 -118 103h-97zM510 864l-120 -124h-72l-78 124h67l54 -61l78 61h71z" />
    <glyph glyph-name="Rcommaaccent" unicode="&#x156;" horiz-adv-x="557" 
d="M28 0l123 693h188c125 0 202 -65 202 -174c0 -103 -62 -179 -169 -207v-5l126 -307h-99l-118 293h-110l-52 -293h-91zM184 365h96c113 0 163 57 163 148c0 76 -49 103 -118 103h-97zM159 -182l37 140h96l-65 -140h-68z" />
    <glyph glyph-name="Sacute" unicode="&#x15a;" horiz-adv-x="475" 
d="M185 -12c-99 0 -159 28 -201 55l13 77c50 -29 109 -55 195 -55c105 0 149 50 149 142c0 43 -19 70 -82 98l-68 30c-72 32 -110 80 -110 165c0 120 78 204 226 204c102 0 142 -25 178 -46l-14 -76c-39 20 -86 45 -172 45c-85 0 -130 -39 -130 -124c0 -44 17 -70 70 -93
l68 -30c83 -36 125 -79 125 -168c0 -112 -62 -224 -247 -224zM274 740l73 125h103l-97 -125h-79z" />
    <glyph glyph-name="Scedilla" unicode="&#x15e;" horiz-adv-x="475" 
d="M75 -217l9 52c80 7 109 17 109 44c0 20 -24 28 -75 28l14 84c-68 8 -114 30 -148 52l13 77c50 -29 109 -55 195 -55c105 0 149 50 149 142c0 43 -19 70 -82 98l-68 30c-72 32 -110 80 -110 165c0 120 78 204 226 204c102 0 142 -25 178 -46l-14 -76
c-39 20 -86 45 -172 45c-85 0 -130 -39 -130 -124c0 -44 17 -70 70 -93l68 -30c83 -36 125 -79 125 -168c0 -111 -61 -222 -243 -224l-6 -36c53 -3 84 -28 84 -65c0 -62 -53 -95 -192 -104z" />
    <glyph glyph-name="Scircumflex" unicode="&#x15c;" horiz-adv-x="475" 
d="M185 -12c-99 0 -159 28 -201 55l13 77c50 -29 109 -55 195 -55c105 0 149 50 149 142c0 43 -19 70 -82 98l-68 30c-72 32 -110 80 -110 165c0 120 78 204 226 204c102 0 142 -25 178 -46l-14 -76c-39 20 -86 45 -172 45c-85 0 -130 -39 -130 -124c0 -44 17 -70 70 -93
l68 -30c83 -36 125 -79 125 -168c0 -112 -62 -224 -247 -224zM182 740l120 124h72l78 -124h-67l-54 61l-78 -61h-71z" />
    <glyph glyph-name="Scommaaccent" unicode="&#x218;" horiz-adv-x="475" 
d="M185 -12c-99 0 -159 28 -201 55l13 77c50 -29 109 -55 195 -55c105 0 149 50 149 142c0 43 -19 70 -82 98l-68 30c-72 32 -110 80 -110 165c0 120 78 204 226 204c102 0 142 -25 178 -46l-14 -76c-39 20 -86 45 -172 45c-85 0 -130 -39 -130 -124c0 -44 17 -70 70 -93
l68 -30c83 -36 125 -79 125 -168c0 -112 -62 -224 -247 -224zM96 -182l37 140h96l-65 -140h-68z" />
    <glyph glyph-name="Sacute.pl" horiz-adv-x="475" 
d="M185 -12c-99 0 -159 28 -201 55l13 77c50 -29 109 -55 195 -55c105 0 149 50 149 142c0 43 -19 70 -82 98l-68 30c-72 32 -110 80 -110 165c0 120 78 204 226 204c102 0 142 -25 178 -46l-14 -76c-39 20 -86 45 -172 45c-85 0 -130 -39 -130 -124c0 -44 17 -70 70 -93
l68 -30c83 -36 125 -79 125 -168c0 -112 -62 -224 -247 -224zM280 740l61 125h96l-86 -125h-71z" />
    <glyph glyph-name="Tcaron" unicode="&#x164;" horiz-adv-x="511" 
d="M165 0l109 616h-195l13 77h481l-13 -77h-195l-109 -616h-91zM497 864l-120 -124h-72l-78 124h67l54 -61l78 61h71z" />
    <glyph glyph-name="Tcommaaccent" unicode="&#x162;" horiz-adv-x="511" 
d="M165 0l109 616h-195l13 77h481l-13 -77h-195l-109 -616h-91zM120 -182l37 140h96l-65 -140h-68z" />
    <glyph glyph-name="Tbar" unicode="&#x166;" horiz-adv-x="511" 
d="M96 357l12 63h131l35 196h-195l13 77h481l-13 -77h-195l-35 -196h140l-12 -63h-139l-63 -357h-91l63 357h-132z" />
    <glyph glyph-name="Ubreve" unicode="&#x16c;" horiz-adv-x="626" 
d="M293 -12c-128 0 -232 44 -232 194c0 22 2 46 7 72l77 439h91l-78 -446c-4 -24 -6 -45 -6 -64c0 -99 57 -123 144 -123c101 0 151 42 175 179l80 454h84l-82 -468c-23 -134 -92 -237 -260 -237zM399 738c-76 0 -123 52 -117 126h67c0 -37 15 -60 55 -60s63 23 75 60h67
c-15 -76 -71 -126 -147 -126z" />
    <glyph glyph-name="Uhungarumlaut" unicode="&#x170;" horiz-adv-x="626" 
d="M293 -12c-128 0 -232 44 -232 194c0 22 2 46 7 72l77 439h91l-78 -446c-4 -24 -6 -45 -6 -64c0 -99 57 -123 144 -123c101 0 151 42 175 179l80 454h84l-82 -468c-23 -134 -92 -237 -260 -237zM277 740l57 125h95l-78 -125h-74zM435 740l56 125h95l-78 -125h-73z" />
    <glyph glyph-name="Umacron" unicode="&#x16a;" horiz-adv-x="626" 
d="M293 -12c-128 0 -232 44 -232 194c0 22 2 46 7 72l77 439h91l-78 -446c-4 -24 -6 -45 -6 -64c0 -99 57 -123 144 -123c101 0 151 42 175 179l80 454h84l-82 -468c-23 -134 -92 -237 -260 -237zM282 748l13 73h238l-13 -73h-238z" />
    <glyph glyph-name="Uogonek" unicode="&#x172;" horiz-adv-x="626" 
d="M280 -200c-66 0 -98 34 -98 80c0 54 40 87 83 109c-114 7 -204 55 -204 193c0 22 2 46 7 72l77 439h91l-78 -446c-4 -24 -6 -45 -6 -64c0 -99 57 -123 144 -123c101 0 151 42 175 179l80 454h84l-82 -468c-17 -97 -56 -175 -142 -215c-58 -27 -150 -55 -150 -118
c0 -23 19 -32 43 -32c16 0 29 2 36 4l-9 -54c-14 -6 -33 -10 -51 -10z" />
    <glyph glyph-name="Uring" unicode="&#x16e;" horiz-adv-x="626" 
d="M293 -12c-128 0 -232 44 -232 194c0 22 2 46 7 72l77 439h91l-78 -446c-4 -24 -6 -45 -6 -64c0 -99 57 -123 144 -123c101 0 151 42 175 179l80 454h84l-82 -468c-23 -134 -92 -237 -260 -237zM405 709c-55 0 -93 38 -93 87c0 52 43 97 99 97c55 0 93 -38 93 -87
c0 -54 -43 -97 -99 -97zM406 751c30 0 49 23 49 54c0 28 -16 46 -44 46c-30 0 -50 -24 -50 -54c0 -29 17 -46 45 -46z" />
    <glyph glyph-name="Utilde" unicode="&#x168;" horiz-adv-x="626" 
d="M293 -12c-128 0 -232 44 -232 194c0 22 2 46 7 72l77 439h91l-78 -446c-4 -24 -6 -45 -6 -64c0 -99 57 -123 144 -123c101 0 151 42 175 179l80 454h84l-82 -468c-23 -134 -92 -237 -260 -237zM258 745c13 74 59 104 102 104s77 -31 105 -31c19 0 32 10 38 33h60
c-13 -74 -59 -104 -102 -104s-77 31 -105 31c-19 0 -32 -10 -38 -33h-60z" />
    <glyph glyph-name="Wacute" unicode="&#x1e82;" horiz-adv-x="842" 
d="M133 0l-40 693h90l25 -554h3l245 554h85l49 -554h3l221 554h89l-292 -693h-97l-44 543h-3l-243 -543h-91zM462 740l73 125h103l-97 -125h-79z" />
    <glyph glyph-name="Wcircumflex" unicode="&#x174;" horiz-adv-x="842" 
d="M133 0l-40 693h90l25 -554h3l245 554h85l49 -554h3l221 554h89l-292 -693h-97l-44 543h-3l-243 -543h-91zM370 740l120 124h72l78 -124h-67l-54 61l-78 -61h-71z" />
    <glyph glyph-name="Wdieresis" unicode="&#x1e84;" horiz-adv-x="842" 
d="M133 0l-40 693h90l25 -554h3l245 554h85l49 -554h3l221 554h89l-292 -693h-97l-44 543h-3l-243 -543h-91zM550 746l16 89h86l-16 -89h-86zM376 746l16 89h86l-16 -89h-86z" />
    <glyph glyph-name="Wgrave" unicode="&#x1e80;" horiz-adv-x="842" 
d="M133 0l-40 693h90l25 -554h3l245 554h85l49 -554h3l221 554h89l-292 -693h-97l-44 543h-3l-243 -543h-91zM466 740l-64 125h94l45 -125h-75z" />
    <glyph glyph-name="Ycircumflex" unicode="&#x176;" horiz-adv-x="522" 
d="M173 0l48 275l-138 418h91l107 -340h3l216 340h93l-281 -421l-48 -272h-91zM217 740l120 124h72l78 -124h-67l-54 61l-78 -61h-71z" />
    <glyph glyph-name="Ygrave" unicode="&#x1ef2;" horiz-adv-x="522" 
d="M173 0l48 275l-138 418h91l107 -340h3l216 340h93l-281 -421l-48 -272h-91zM313 740l-64 125h94l45 -125h-75z" />
    <glyph glyph-name="Zacute" unicode="&#x179;" horiz-adv-x="511" 
d="M-18 0l12 69l444 544v3h-325l13 77h437l-12 -68l-447 -545v-3h344l-14 -77h-452zM309 740l73 125h103l-97 -125h-79z" />
    <glyph glyph-name="Zdotaccent" unicode="&#x17b;" horiz-adv-x="511" 
d="M-18 0l12 69l444 544v3h-325l13 77h437l-12 -68l-447 -545v-3h344l-14 -77h-452zM308 746l16 91h90l-16 -91h-90z" />
    <glyph glyph-name="Zacute.pl" horiz-adv-x="511" 
d="M-18 0l12 69l444 544v3h-325l13 77h437l-12 -68l-447 -545v-3h344l-14 -77h-452zM313 740l61 125h96l-86 -125h-71z" />
    <glyph glyph-name="abreve" unicode="&#x103;" horiz-adv-x="508" 
d="M188 -10c-99 0 -164 61 -164 177c0 210 134 356 315 356c66 0 128 -15 149 -23l-88 -500h-71l-1 50h-5c-32 -33 -77 -60 -135 -60zM208 61c46 0 92 20 123 48l60 332c-21 8 -37 12 -62 12c-101 0 -177 -74 -204 -186c-8 -32 -12 -62 -12 -97c0 -83 41 -109 95 -109z
M341 593c-76 0 -123 52 -117 126h67c0 -37 15 -60 55 -60s63 23 75 60h67c-15 -76 -71 -126 -147 -126z" />
    <glyph glyph-name="amacron" unicode="&#x101;" horiz-adv-x="508" 
d="M188 -10c-99 0 -164 61 -164 177c0 210 134 356 315 356c66 0 128 -15 149 -23l-88 -500h-71l-1 50h-5c-32 -33 -77 -60 -135 -60zM208 61c46 0 92 20 123 48l60 332c-21 8 -37 12 -62 12c-101 0 -177 -74 -204 -186c-8 -32 -12 -62 -12 -97c0 -83 41 -109 95 -109z
M227 620l13 73h238l-13 -73h-238z" />
    <glyph glyph-name="aogonek" unicode="&#x105;" horiz-adv-x="508" 
d="M325 -200c-66 0 -98 34 -98 80c0 61 54 100 102 123l-1 47h-5c-32 -33 -77 -60 -135 -60c-99 0 -164 61 -164 177c0 210 134 356 315 356c66 0 128 -15 149 -23l-88 -500c-31 -22 -94 -62 -94 -108c0 -23 19 -32 43 -32c16 0 29 2 36 4l-9 -54c-14 -6 -33 -10 -51 -10z
M208 61c46 0 92 20 123 48l60 332c-21 8 -37 12 -62 12c-101 0 -177 -74 -204 -186c-8 -32 -12 -62 -12 -97c0 -83 41 -109 95 -109z" />
    <glyph glyph-name="aringacute" unicode="&#x1fb;" horiz-adv-x="508" 
d="M188 -10c-99 0 -164 61 -164 177c0 210 134 356 315 356c66 0 128 -15 149 -23l-88 -500h-71l-1 50h-5c-32 -33 -77 -60 -135 -60zM208 61c46 0 92 20 123 48l60 332c-21 8 -37 12 -62 12c-101 0 -177 -74 -204 -186c-8 -32 -12 -62 -12 -97c0 -83 41 -109 95 -109z
M342 576c-55 0 -93 38 -93 87c0 52 43 97 99 97c55 0 93 -38 93 -87c0 -54 -43 -97 -99 -97zM343 618c30 0 49 23 49 54c0 28 -16 46 -44 46c-30 0 -50 -24 -50 -54c0 -29 17 -46 45 -46zM326 805l73 125h103l-97 -125h-79z" />
    <glyph glyph-name="aeacute" unicode="&#x1fd;" horiz-adv-x="771" 
d="M152 -10c-85 0 -145 49 -145 134c0 92 59 149 178 162l139 15l6 33c16 83 -21 113 -106 113c-50 0 -93 -8 -125 -15l11 63c43 16 89 28 146 28c79 0 131 -28 149 -83c40 52 96 83 170 83c128 0 197 -85 169 -242l-9 -50h-334c-1 -12 -1 -23 -1 -34
c0 -98 44 -131 131 -131c63 0 124 19 173 40l-13 -71c-35 -21 -98 -45 -172 -45c-84 0 -146 30 -180 85c-44 -45 -102 -85 -187 -85zM311 188c0 16 0 32 2 48l-116 -11c-70 -7 -97 -35 -97 -92c0 -51 28 -75 75 -75c52 0 98 23 144 63c-5 20 -8 43 -8 67zM421 322l-6 -20
h241c19 104 -14 150 -92 150c-75 0 -119 -56 -143 -130zM411 587l86 145h102l-110 -145h-78z" />
    <glyph glyph-name="cacute" unicode="&#x107;" horiz-adv-x="416" 
d="M220 -10c-130 0 -198 76 -198 199c0 75 23 158 64 217c52 75 126 117 226 117c55 0 94 -14 118 -31l-13 -71c-25 13 -57 27 -108 27c-62 0 -111 -21 -148 -74c-35 -50 -51 -111 -51 -179c0 -94 45 -130 126 -130c64 0 110 24 139 39l-13 -73c-42 -26 -89 -41 -142 -41z
M247 587l86 145h102l-110 -145h-78z" />
    <glyph glyph-name="ccaron" unicode="&#x10d;" horiz-adv-x="416" 
d="M220 -10c-130 0 -198 76 -198 199c0 75 23 158 64 217c52 75 126 117 226 117c55 0 94 -14 118 -31l-13 -71c-25 13 -57 27 -108 27c-62 0 -111 -21 -148 -74c-35 -50 -51 -111 -51 -179c0 -94 45 -130 126 -130c64 0 110 24 139 39l-13 -73c-42 -26 -89 -41 -142 -41z
M253 587l-78 144h68l57 -79l83 79h72l-126 -144h-76z" />
    <glyph glyph-name="ccircumflex" unicode="&#x109;" horiz-adv-x="416" 
d="M220 -10c-130 0 -198 76 -198 199c0 75 23 158 64 217c52 75 126 117 226 117c55 0 94 -14 118 -31l-13 -71c-25 13 -57 27 -108 27c-62 0 -111 -21 -148 -74c-35 -50 -51 -111 -51 -179c0 -94 45 -130 126 -130c64 0 110 24 139 39l-13 -73c-42 -26 -89 -41 -142 -41z
M148 587l126 144h76l78 -144h-68l-57 79l-83 -79h-72z" />
    <glyph glyph-name="cdotaccent" unicode="&#x10b;" horiz-adv-x="416" 
d="M220 -10c-130 0 -198 76 -198 199c0 75 23 158 64 217c52 75 126 117 226 117c55 0 94 -14 118 -31l-13 -71c-25 13 -57 27 -108 27c-62 0 -111 -21 -148 -74c-35 -50 -51 -111 -51 -179c0 -94 45 -130 126 -130c64 0 110 24 139 39l-13 -73c-42 -26 -89 -41 -142 -41z
M249 615l16 91h90l-16 -91h-90z" />
    <glyph glyph-name="cacute.pl" horiz-adv-x="416" 
d="M220 -10c-130 0 -198 76 -198 199c0 75 23 158 64 217c52 75 126 117 226 117c55 0 94 -14 118 -31l-13 -71c-25 13 -57 27 -108 27c-62 0 -111 -21 -148 -74c-35 -50 -51 -111 -51 -179c0 -94 45 -130 126 -130c64 0 110 24 139 39l-13 -73c-42 -26 -89 -41 -142 -41z
M252 587l71 145h96l-96 -145h-71z" />
    <glyph glyph-name="dcaron" unicode="&#x10f;" horiz-adv-x="518" 
d="M177 -10c-86 0 -154 57 -154 169c0 187 93 364 272 364c63 0 93 -16 116 -31l43 247h88l-130 -739h-72l-2 52h-5c-39 -35 -87 -62 -156 -62zM205 61c56 0 101 25 138 49l55 311c-26 16 -61 28 -94 28c-113 0 -164 -77 -187 -211c-4 -23 -5 -50 -5 -68
c0 -81 33 -109 93 -109zM623 576h-63l39 163h86z" />
    <glyph glyph-name="ebreve" unicode="&#x115;" horiz-adv-x="483" 
d="M229 -10c-135 0 -207 73 -207 201c0 89 27 173 66 228c46 65 112 104 198 104c130 0 197 -85 169 -242l-9 -50h-333c-1 -12 -2 -23 -2 -34c0 -96 44 -131 131 -131c63 0 124 19 173 40l-13 -71c-35 -21 -99 -45 -173 -45zM158 380c-13 -21 -24 -49 -32 -78h241
c19 104 -14 150 -92 150c-52 0 -90 -26 -117 -72zM303 593c-76 0 -123 52 -117 126h67c0 -37 15 -60 55 -60s63 23 75 60h67c-15 -76 -71 -126 -147 -126z" />
    <glyph glyph-name="ecaron" unicode="&#x11b;" horiz-adv-x="483" 
d="M229 -10c-135 0 -207 73 -207 201c0 89 27 173 66 228c46 65 112 104 198 104c130 0 197 -85 169 -242l-9 -50h-333c-1 -12 -2 -23 -2 -34c0 -96 44 -131 131 -131c63 0 124 19 173 40l-13 -71c-35 -21 -99 -45 -173 -45zM158 380c-13 -21 -24 -49 -32 -78h241
c19 104 -14 150 -92 150c-52 0 -90 -26 -117 -72zM256 587l-78 144h68l57 -79l83 79h72l-126 -144h-76z" />
    <glyph glyph-name="edotaccent" unicode="&#x117;" horiz-adv-x="483" 
d="M229 -10c-135 0 -207 73 -207 201c0 89 27 173 66 228c46 65 112 104 198 104c130 0 197 -85 169 -242l-9 -50h-333c-1 -12 -2 -23 -2 -34c0 -96 44 -131 131 -131c63 0 124 19 173 40l-13 -71c-35 -21 -99 -45 -173 -45zM158 380c-13 -21 -24 -49 -32 -78h241
c19 104 -14 150 -92 150c-52 0 -90 -26 -117 -72zM256 615l16 91h90l-16 -91h-90z" />
    <glyph glyph-name="emacron" unicode="&#x113;" horiz-adv-x="483" 
d="M229 -10c-135 0 -207 73 -207 201c0 89 27 173 66 228c46 65 112 104 198 104c130 0 197 -85 169 -242l-9 -50h-333c-1 -12 -2 -23 -2 -34c0 -96 44 -131 131 -131c63 0 124 19 173 40l-13 -71c-35 -21 -99 -45 -173 -45zM158 380c-13 -21 -24 -49 -32 -78h241
c19 104 -14 150 -92 150c-52 0 -90 -26 -117 -72zM178 620l13 73h238l-13 -73h-238z" />
    <glyph glyph-name="eogonek" unicode="&#x119;" horiz-adv-x="483" 
d="M230 -10h-1c-135 0 -207 73 -207 201c0 89 27 173 66 228c46 65 112 104 198 104c130 0 197 -85 169 -242l-9 -50h-333c-1 -12 -2 -23 -2 -34c0 -96 44 -131 131 -131c63 0 124 19 173 40l-13 -71c-21 -12 -54 -24 -89 -44c-31 -18 -84 -55 -84 -99c0 -23 19 -32 43 -32
c16 0 29 2 36 4l-9 -54c-14 -6 -33 -10 -51 -10c-66 0 -98 34 -98 80c0 54 38 87 80 110zM158 380c-13 -21 -24 -49 -32 -78h241c19 104 -14 150 -92 150c-52 0 -90 -26 -117 -72z" />
    <glyph glyph-name="gbreve" unicode="&#x11f;" horiz-adv-x="516" 
d="M158 -199c-74 0 -146 20 -176 43l11 68c24 -12 92 -40 161 -40c114 0 154 51 168 134l11 64h-5c-28 -27 -81 -57 -150 -57c-86 0 -154 55 -154 174c0 191 118 336 288 336c83 0 133 -17 182 -41l-86 -489c-21 -119 -95 -192 -250 -192zM206 84c56 0 101 24 138 48l53 301
c-22 11 -54 20 -87 20c-106 0 -167 -75 -190 -192c-4 -23 -7 -50 -7 -68c0 -81 33 -109 93 -109zM327 593c-76 0 -123 52 -117 126h67c0 -37 15 -60 55 -60s63 23 75 60h67c-15 -76 -71 -126 -147 -126z" />
    <glyph glyph-name="gcircumflex" unicode="&#x11d;" horiz-adv-x="516" 
d="M158 -199c-74 0 -146 20 -176 43l11 68c24 -12 92 -40 161 -40c114 0 154 51 168 134l11 64h-5c-28 -27 -81 -57 -150 -57c-86 0 -154 55 -154 174c0 191 118 336 288 336c83 0 133 -17 182 -41l-86 -489c-21 -119 -95 -192 -250 -192zM206 84c56 0 101 24 138 48l53 301
c-22 11 -54 20 -87 20c-106 0 -167 -75 -190 -192c-4 -23 -7 -50 -7 -68c0 -81 33 -109 93 -109zM187 587l126 144h76l78 -144h-68l-57 79l-83 -79h-72z" />
    <glyph glyph-name="gcommaaccent" unicode="&#x123;" horiz-adv-x="516" 
d="M158 -199c-74 0 -146 20 -176 43l11 68c24 -12 92 -40 161 -40c114 0 154 51 168 134l11 64h-5c-28 -27 -81 -57 -150 -57c-86 0 -154 55 -154 174c0 191 118 336 288 336c83 0 133 -17 182 -41l-86 -489c-21 -119 -95 -192 -250 -192zM206 84c56 0 101 24 138 48l53 301
c-22 11 -54 20 -87 20c-106 0 -167 -75 -190 -192c-4 -23 -7 -50 -7 -68c0 -81 33 -109 93 -109zM428 746l-37 -140h-99l71 140h65z" />
    <glyph glyph-name="gdotaccent" unicode="&#x121;" horiz-adv-x="516" 
d="M158 -199c-74 0 -146 20 -176 43l11 68c24 -12 92 -40 161 -40c114 0 154 51 168 134l11 64h-5c-28 -27 -81 -57 -150 -57c-86 0 -154 55 -154 174c0 191 118 336 288 336c83 0 133 -17 182 -41l-86 -489c-21 -119 -95 -192 -250 -192zM206 84c56 0 101 24 138 48l53 301
c-22 11 -54 20 -87 20c-106 0 -167 -75 -190 -192c-4 -23 -7 -50 -7 -68c0 -81 33 -109 93 -109zM286 615l16 91h90l-16 -91h-90z" />
    <glyph glyph-name="hbar" unicode="&#x127;" horiz-adv-x="522" 
d="M17 0l106 588h-67l11 61h67l16 90h88l-16 -90h143l-11 -61h-143l-21 -125h5c50 36 104 60 167 60c96 0 123 -59 123 -123c0 -14 -2 -28 -4 -41l-63 -359h-88l61 346c3 15 4 28 4 39c0 42 -19 62 -71 62c-45 0 -92 -12 -148 -44l-71 -403h-88z" />
    <glyph glyph-name="hcircumflex" unicode="&#x125;" horiz-adv-x="522" 
d="M17 0l133 739h88l-48 -276h5c50 36 104 60 167 60c96 0 123 -59 123 -123c0 -14 -2 -28 -4 -41l-63 -359h-88l61 346c3 15 4 28 4 39c0 42 -19 62 -71 62c-45 0 -92 -12 -148 -44l-71 -403h-88zM215 790l120 124h72l78 -124h-67l-54 61l-78 -61h-71z" />
    <glyph glyph-name="ibreve" unicode="&#x12d;" horiz-adv-x="218" 
d="M175 593c-78 0 -120 52 -116 126h67c-1 -37 16 -60 51 -60s56 22 63 60h67c-9 -76 -60 -126 -132 -126zM20 0l90 513h89l-90 -513h-89z" />
    <glyph glyph-name="imacron" unicode="&#x12b;" horiz-adv-x="218" 
d="M75 620l13 73h198l-13 -73h-198zM20 0l90 513h89l-90 -513h-89z" />
    <glyph glyph-name="iogonek" unicode="&#x12f;" horiz-adv-x="218" 
d="M33 -200c-64 0 -95 34 -95 80c0 53 40 90 81 117l91 516h88l-90 -513c-33 -21 -92 -62 -92 -108c0 -23 19 -32 41 -32c14 0 26 2 33 4l-9 -54c-14 -6 -30 -10 -48 -10zM127 615l16 91h90l-16 -91h-90z" />
    <glyph glyph-name="itilde" unicode="&#x129;" horiz-adv-x="218" 
d="M34 604c16 76 59 108 97 108c44 0 73 -35 96 -35c17 0 27 12 34 37h60c-16 -76 -58 -108 -96 -108c-44 0 -75 35 -97 35c-17 0 -27 -12 -34 -37h-60zM20 0l90 513h89l-90 -513h-89z" />
    <glyph glyph-name="idotaccent" horiz-adv-x="218" 
d="M20 0l90 513h88l-90 -513h-88zM127 615l16 91h90l-16 -91h-90z" />
    <glyph glyph-name="jcircumflex" unicode="&#x135;" horiz-adv-x="217" 
d="M41 587l114 144h76l65 -144h-67l-44 77l-71 -77h-73zM-61 -199c-29 0 -65 7 -83 21l10 59c16 -6 34 -9 56 -9c59 0 82 27 93 88l97 553h89l-99 -563c-17 -99 -70 -149 -163 -149z" />
    <glyph glyph-name="kcommaaccent" unicode="&#x137;" horiz-adv-x="472" 
d="M17 0l130 739h88l-130 -739h-88zM320 0l-143 267l214 246h101l-221 -247l146 -266h-97zM116 -182l37 140h96l-65 -140h-68z" />
    <glyph glyph-name="lacute" unicode="&#x13a;" horiz-adv-x="216" 
d="M19 0l130 739h88l-130 -739h-88zM160 790l73 125h103l-97 -125h-79z" />
    <glyph glyph-name="lcaron" unicode="&#x13e;" horiz-adv-x="216" 
d="M19 0l130 739h88l-130 -739h-88zM318 576h-63l39 163h86z" />
    <glyph glyph-name="lcommaaccent" unicode="&#x13c;" horiz-adv-x="216" 
d="M19 0l130 739h88l-130 -739h-88zM-28 -182l37 140h96l-65 -140h-68z" />
    <glyph glyph-name="ldot" unicode="&#x140;" horiz-adv-x="287" 
d="M19 0l130 739h88l-130 -739h-88zM214 309l16 91h90l-16 -91h-90z" />
    <glyph glyph-name="nacute" unicode="&#x144;" horiz-adv-x="522" 
d="M17 0l91 513h84l-9 -54h5c56 41 111 64 174 64c96 0 123 -59 123 -123c0 -14 -2 -28 -4 -41l-63 -359h-88l61 346c3 15 4 28 4 39c0 42 -19 62 -71 62c-45 0 -92 -12 -148 -44l-71 -403h-88zM276 587l86 145h102l-110 -145h-78z" />
    <glyph glyph-name="napostrophe" unicode="&#x149;" horiz-adv-x="547" 
d="M42 0l91 513h84l-9 -54h5c56 41 111 64 174 64c96 0 123 -59 123 -123c0 -14 -2 -28 -4 -41l-63 -359h-88l61 346c3 15 4 28 4 39c0 42 -19 62 -71 62c-45 0 -92 -12 -148 -44l-71 -403h-88zM12 508l42 185h97l-62 -185h-77z" />
    <glyph glyph-name="ncaron" unicode="&#x148;" horiz-adv-x="522" 
d="M17 0l91 513h84l-9 -54h5c56 41 111 64 174 64c96 0 123 -59 123 -123c0 -14 -2 -28 -4 -41l-63 -359h-88l61 346c3 15 4 28 4 39c0 42 -19 62 -71 62c-45 0 -92 -12 -148 -44l-71 -403h-88zM278 587l-78 144h68l57 -79l83 79h72l-126 -144h-76z" />
    <glyph glyph-name="ncommaaccent" unicode="&#x146;" horiz-adv-x="522" 
d="M17 0l91 513h84l-9 -54h5c56 41 111 64 174 64c96 0 123 -59 123 -123c0 -14 -2 -28 -4 -41l-63 -359h-88l61 346c3 15 4 28 4 39c0 42 -19 62 -71 62c-45 0 -92 -12 -148 -44l-71 -403h-88zM133 -182l37 140h96l-65 -140h-68z" />
    <glyph glyph-name="nacute.pl" horiz-adv-x="522" 
d="M17 0l91 513h84l-9 -54h5c56 41 111 64 174 64c96 0 123 -59 123 -123c0 -14 -2 -28 -4 -41l-63 -359h-88l61 346c3 15 4 28 4 39c0 42 -19 62 -71 62c-45 0 -92 -12 -148 -44l-71 -403h-88zM276 587l71 145h96l-96 -145h-71z" />
    <glyph glyph-name="obreve" unicode="&#x14f;" horiz-adv-x="510" 
d="M218 -10c-123 0 -195 75 -195 201c0 170 94 332 270 332c123 0 195 -75 195 -201c0 -168 -92 -332 -270 -332zM222 61c96 0 151 78 171 191c5 28 7 56 7 72c0 92 -47 128 -111 128c-96 0 -151 -78 -171 -191c-5 -24 -7 -46 -7 -72c0 -90 47 -128 111 -128zM316 593
c-76 0 -123 52 -117 126h67c0 -37 15 -60 55 -60s63 23 75 60h67c-15 -76 -71 -126 -147 -126z" />
    <glyph glyph-name="ohungarumlaut" unicode="&#x151;" horiz-adv-x="510" 
d="M218 -10c-123 0 -195 75 -195 201c0 170 94 332 270 332c123 0 195 -75 195 -201c0 -168 -92 -332 -270 -332zM222 61c96 0 151 78 171 191c5 28 7 56 7 72c0 92 -47 128 -111 128c-96 0 -151 -78 -171 -191c-5 -24 -7 -46 -7 -72c0 -90 47 -128 111 -128zM192 587
l66 145h95l-87 -145h-74zM350 587l65 145h95l-87 -145h-73z" />
    <glyph glyph-name="omacron" unicode="&#x14d;" horiz-adv-x="510" 
d="M218 -10c-123 0 -195 75 -195 201c0 170 94 332 270 332c123 0 195 -75 195 -201c0 -168 -92 -332 -270 -332zM222 61c96 0 151 78 171 191c5 28 7 56 7 72c0 92 -47 128 -111 128c-96 0 -151 -78 -171 -191c-5 -24 -7 -46 -7 -72c0 -90 47 -128 111 -128zM202 620l13 73
h238l-13 -73h-238z" />
    <glyph glyph-name="oacute.pl" horiz-adv-x="510" 
d="M218 -10c-123 0 -195 75 -195 201c0 170 94 332 270 332c123 0 195 -75 195 -201c0 -168 -92 -332 -270 -332zM222 61c96 0 151 78 171 191c5 28 7 56 7 72c0 92 -47 128 -111 128c-96 0 -151 -78 -171 -191c-5 -24 -7 -46 -7 -72c0 -90 47 -128 111 -128zM267 587
l71 145h96l-96 -145h-71z" />
    <glyph glyph-name="oslashacute" unicode="&#x1ff;" horiz-adv-x="510" 
d="M218 -10c-58 0 -104 17 -137 48l-37 -38h-82l83 86c-14 29 -22 64 -22 105c0 170 94 332 270 332c55 0 100 -16 133 -45l34 35h82l-79 -81c16 -31 25 -68 25 -110c0 -168 -92 -332 -270 -332zM222 61c99 0 155 76 175 189c5 28 7 57 7 73s-2 30 -5 43l-263 -271
c21 -23 51 -34 86 -34zM107 190c0 -14 1 -26 3 -38l261 270c-20 20 -49 30 -82 30c-100 0 -155 -76 -175 -189c-5 -24 -7 -47 -7 -73zM268 587l86 145h102l-110 -145h-78z" />
    <glyph glyph-name="racute" unicode="&#x155;" horiz-adv-x="331" 
d="M17 0l90 513h84l-10 -56h5c39 38 91 62 146 62c13 0 27 -2 31 -4l-14 -78c-13 2 -30 3 -39 3c-48 0 -94 -13 -134 -37l-71 -403h-88zM214 587l86 145h102l-110 -145h-78z" />
    <glyph glyph-name="rcaron" unicode="&#x159;" horiz-adv-x="331" 
d="M17 0l90 513h84l-10 -56h5c39 38 91 62 146 62c13 0 27 -2 31 -4l-14 -78c-13 2 -30 3 -39 3c-48 0 -94 -13 -134 -37l-71 -403h-88zM211 587l-78 144h68l57 -79l83 79h72l-126 -144h-76z" />
    <glyph glyph-name="rcommaaccent" unicode="&#x157;" horiz-adv-x="331" 
d="M17 0l90 513h84l-10 -56h5c39 38 91 62 146 62c13 0 27 -2 31 -4l-14 -78c-13 2 -30 3 -39 3c-48 0 -94 -13 -134 -37l-71 -403h-88zM-31 -182l37 140h96l-65 -140h-68z" />
    <glyph glyph-name="sacute" unicode="&#x15b;" horiz-adv-x="409" 
d="M160 -9c-80 0 -127 20 -163 44l12 70c37 -19 78 -40 152 -40c85 0 110 37 110 80c0 30 -18 51 -68 71l-47 19c-60 24 -98 60 -98 130c0 99 69 157 185 157c83 0 120 -22 146 -38l-13 -70c-27 14 -73 35 -140 35c-63 0 -95 -29 -95 -73c0 -36 17 -52 59 -69l47 -19
c78 -32 111 -63 111 -132c0 -90 -54 -165 -198 -165zM207 587l86 145h102l-110 -145h-78z" />
    <glyph glyph-name="scedilla" unicode="&#x15f;" horiz-adv-x="409" 
d="M45 -217l9 52c80 7 109 17 109 44c0 20 -24 28 -75 28l15 88c-47 7 -80 22 -106 40l12 70c37 -19 78 -40 152 -40c85 0 110 37 110 80c0 30 -18 51 -68 71l-47 19c-60 24 -98 60 -98 130c0 99 69 157 185 157c83 0 120 -22 146 -38l-13 -70c-27 14 -73 35 -140 35
c-63 0 -95 -29 -95 -73c0 -36 17 -52 59 -69l47 -19c78 -32 111 -63 111 -132c0 -90 -54 -165 -198 -165h-1l-6 -39c53 -3 84 -28 84 -65c0 -62 -53 -95 -192 -104z" />
    <glyph glyph-name="scircumflex" unicode="&#x15d;" horiz-adv-x="409" 
d="M160 -9c-80 0 -127 20 -163 44l12 70c37 -19 78 -40 152 -40c85 0 110 37 110 80c0 30 -18 51 -68 71l-47 19c-60 24 -98 60 -98 130c0 99 69 157 185 157c83 0 120 -22 146 -38l-13 -70c-27 14 -73 35 -140 35c-63 0 -95 -29 -95 -73c0 -36 17 -52 59 -69l47 -19
c78 -32 111 -63 111 -132c0 -90 -54 -165 -198 -165zM114 587l126 144h76l78 -144h-68l-57 79l-83 -79h-72z" />
    <glyph glyph-name="scommaaccent" unicode="&#x219;" horiz-adv-x="409" 
d="M160 -9c-80 0 -127 20 -163 44l12 70c37 -19 78 -40 152 -40c85 0 110 37 110 80c0 30 -18 51 -68 71l-47 19c-60 24 -98 60 -98 130c0 99 69 157 185 157c83 0 120 -22 146 -38l-13 -70c-27 14 -73 35 -140 35c-63 0 -95 -29 -95 -73c0 -36 17 -52 59 -69l47 -19
c78 -32 111 -63 111 -132c0 -90 -54 -165 -198 -165zM59 -182l37 140h96l-65 -140h-68z" />
    <glyph glyph-name="sacute.pl" horiz-adv-x="409" 
d="M160 -9c-80 0 -127 20 -163 44l12 70c37 -19 78 -40 152 -40c85 0 110 37 110 80c0 30 -18 51 -68 71l-47 19c-60 24 -98 60 -98 130c0 99 69 157 185 157c83 0 120 -22 146 -38l-13 -70c-27 14 -73 35 -140 35c-63 0 -95 -29 -95 -73c0 -36 17 -52 59 -69l47 -19
c78 -32 111 -63 111 -132c0 -90 -54 -165 -198 -165zM212 587l71 145h96l-96 -145h-71z" />
    <glyph glyph-name="tbar" unicode="&#x167;" horiz-adv-x="336" 
d="M24 289l11 61h73l16 90h-73l12 73h73l22 122h88l-22 -122h125l-12 -73h-125l-16 -90h125l-11 -61h-125l-26 -143c-9 -53 1 -81 59 -81c23 0 45 4 67 9l-11 -59c-17 -11 -46 -21 -81 -21c-103 0 -138 62 -122 150l26 145h-73z" />
    <glyph glyph-name="tcaron" unicode="&#x165;" horiz-adv-x="336" 
d="M193 -6c-103 0 -138 62 -122 150l53 296h-73l12 73h73l22 122h88l-22 -122h125l-12 -73h-125l-53 -294c-9 -53 1 -81 59 -81c23 0 45 4 67 9l-11 -59c-17 -11 -46 -21 -81 -21zM356 576h-63l39 163h86z" />
    <glyph glyph-name="tcommaaccent" unicode="&#x163;" horiz-adv-x="336" 
d="M193 -6c-103 0 -138 62 -122 150l53 296h-73l12 73h73l22 122h88l-22 -122h125l-12 -73h-125l-53 -294c-9 -53 1 -81 59 -81c23 0 45 4 67 9l-11 -59c-17 -11 -46 -21 -81 -21zM67 -182l37 140h96l-65 -140h-68z" />
    <glyph glyph-name="ubreve" unicode="&#x16d;" horiz-adv-x="518" 
d="M165 -10c-78 0 -126 44 -127 125c0 14 1 30 4 47l62 351h88l-61 -346c-3 -15 -4 -28 -4 -40c0 -40 17 -61 66 -61c50 0 93 12 149 44l71 403h88l-91 -513h-72l-2 54h-5c-54 -41 -99 -64 -166 -64zM313 593c-76 0 -123 52 -117 126h67c0 -37 15 -60 55 -60s63 23 75 60h67
c-15 -76 -71 -126 -147 -126z" />
    <glyph glyph-name="uhungarumlaut" unicode="&#x171;" horiz-adv-x="518" 
d="M165 -10c-78 0 -126 44 -127 125c0 14 1 30 4 47l62 351h88l-61 -346c-3 -15 -4 -28 -4 -40c0 -40 17 -61 66 -61c50 0 93 12 149 44l71 403h88l-91 -513h-72l-2 54h-5c-54 -41 -99 -64 -166 -64zM201 587l66 145h95l-87 -145h-74zM359 587l65 145h95l-87 -145h-73z" />
    <glyph glyph-name="umacron" unicode="&#x16b;" horiz-adv-x="518" 
d="M165 -10c-78 0 -126 44 -127 125c0 14 1 30 4 47l62 351h88l-61 -346c-3 -15 -4 -28 -4 -40c0 -40 17 -61 66 -61c50 0 93 12 149 44l71 403h88l-91 -513h-72l-2 54h-5c-54 -41 -99 -64 -166 -64zM199 620l13 73h238l-13 -73h-238z" />
    <glyph glyph-name="uogonek" unicode="&#x173;" horiz-adv-x="518" 
d="M165 -10c-78 0 -126 44 -127 125c0 14 1 30 4 47l62 351h88l-61 -346c-3 -15 -4 -28 -4 -40c0 -40 17 -61 66 -61c50 0 93 12 149 44l71 403h88l-91 -513c-31 -22 -94 -62 -94 -108c0 -23 19 -32 43 -32c16 0 29 2 36 4l-9 -54c-14 -6 -33 -10 -51 -10
c-66 0 -98 34 -98 80c0 61 53 100 101 122l-2 52h-5c-54 -41 -99 -64 -166 -64z" />
    <glyph glyph-name="uring" unicode="&#x16f;" horiz-adv-x="518" 
d="M165 -10c-78 0 -126 44 -127 125c0 14 1 30 4 47l62 351h88l-61 -346c-3 -15 -4 -28 -4 -40c0 -40 17 -61 66 -61c50 0 93 12 149 44l71 403h88l-91 -513h-72l-2 54h-5c-54 -41 -99 -64 -166 -64zM324 576c-55 0 -93 38 -93 87c0 52 43 97 99 97c55 0 93 -38 93 -87
c0 -54 -43 -97 -99 -97zM325 618c30 0 49 23 49 54c0 28 -16 46 -44 46c-30 0 -50 -24 -50 -54c0 -29 17 -46 45 -46z" />
    <glyph glyph-name="utilde" unicode="&#x169;" horiz-adv-x="518" 
d="M165 -10c-78 0 -126 44 -127 125c0 14 1 30 4 47l62 351h88l-61 -346c-3 -15 -4 -28 -4 -40c0 -40 17 -61 66 -61c50 0 93 12 149 44l71 403h88l-91 -513h-72l-2 54h-5c-54 -41 -99 -64 -166 -64zM173 604c13 76 59 108 102 108s77 -35 105 -35c19 0 32 12 38 37h60
c-13 -76 -59 -108 -102 -108s-77 35 -105 35c-19 0 -32 -12 -38 -37h-60z" />
    <glyph glyph-name="wacute" unicode="&#x1e83;" horiz-adv-x="728" 
d="M98 0l-41 513h91l19 -400h4l197 400h83l29 -400h4l190 400h87l-258 -513h-92l-30 378h-4l-188 -378h-91zM375 587l86 145h102l-110 -145h-78z" />
    <glyph glyph-name="wcircumflex" unicode="&#x175;" horiz-adv-x="728" 
d="M98 0l-41 513h91l19 -400h4l197 400h83l29 -400h4l190 400h87l-258 -513h-92l-30 378h-4l-188 -378h-91zM282 587l126 144h76l78 -144h-68l-57 79l-83 -79h-72z" />
    <glyph glyph-name="wdieresis" unicode="&#x1e85;" horiz-adv-x="728" 
d="M98 0l-41 513h91l19 -400h4l197 400h83l29 -400h4l190 400h87l-258 -513h-92l-30 378h-4l-188 -378h-91zM468 615l16 89h86l-16 -89h-86zM298 615l16 89h86l-16 -89h-86z" />
    <glyph glyph-name="wgrave" unicode="&#x1e81;" horiz-adv-x="728" 
d="M98 0l-41 513h91l19 -400h4l197 400h83l29 -400h4l190 400h87l-258 -513h-92l-30 378h-4l-188 -378h-91zM380 587l-72 145h94l53 -145h-75z" />
    <glyph glyph-name="ycircumflex" unicode="&#x177;" horiz-adv-x="468" 
d="M4 -199c-30 0 -53 8 -67 17l11 63c13 -4 29 -7 49 -7c47 0 78 23 112 82l34 60l-89 497h93l59 -383h3l204 383h91l-318 -574c-53 -96 -100 -138 -182 -138zM150 587l126 144h76l78 -144h-68l-57 79l-83 -79h-72z" />
    <glyph glyph-name="ygrave" unicode="&#x1ef3;" horiz-adv-x="468" 
d="M4 -199c-30 0 -53 8 -67 17l11 63c13 -4 29 -7 49 -7c47 0 78 23 112 82l34 60l-89 497h93l59 -383h3l204 383h91l-318 -574c-53 -96 -100 -138 -182 -138zM248 587l-72 145h94l53 -145h-75z" />
    <glyph glyph-name="zacute" unicode="&#x17a;" horiz-adv-x="419" 
d="M-12 0l11 65l313 373v3h-238l12 72h348l-11 -63l-316 -375v-3h254l-13 -72h-360zM225 587l86 145h102l-110 -145h-78z" />
    <glyph glyph-name="zdotaccent" unicode="&#x17c;" horiz-adv-x="419" 
d="M-12 0l11 65l313 373v3h-238l12 72h348l-11 -63l-316 -375v-3h254l-13 -72h-360zM231 615l16 91h90l-16 -91h-90z" />
    <glyph glyph-name="zacute.pl" horiz-adv-x="419" 
d="M-12 0l11 65l313 373v3h-238l12 72h348l-11 -63l-316 -375v-3h254l-13 -72h-360zM231 587l71 145h96l-96 -145h-71z" />
    <glyph glyph-name="oneeighth" unicode="&#x215b;" horiz-adv-x="808" 
d="M106 282l60 342l-95 -13l8 46l136 44h38l-74 -419h-73zM12 -40l595 753h74l-595 -753h-74zM588 -9c-95 0 -150 40 -150 108c0 58 44 92 101 115c-34 22 -51 48 -51 89c0 61 50 121 145 121c74 0 131 -35 131 -103c0 -50 -37 -90 -84 -111c45 -27 66 -53 66 -95
c0 -71 -64 -124 -158 -124zM587 48c60 0 89 26 89 63c0 33 -22 47 -88 76c-49 -19 -82 -44 -82 -82c0 -35 28 -57 81 -57zM630 236c38 19 65 44 65 79c0 30 -17 53 -65 53c-49 0 -74 -29 -74 -59c0 -38 25 -52 74 -73z" />
    <glyph glyph-name="onethird" unicode="&#x2153;" horiz-adv-x="794" 
d="M106 282l60 342l-95 -13l8 46l136 44h38l-74 -419h-73zM17 -40l595 753h74l-595 -753h-74zM561 -7c-53 0 -92 13 -114 29l9 51c26 -12 62 -21 96 -21c67 0 98 32 98 77c0 38 -27 59 -81 59h-30l10 55h24c56 0 97 19 97 70c0 36 -27 51 -70 51c-25 0 -49 -1 -77 -10l9 53
c28 12 60 16 99 16c65 0 112 -38 112 -98c0 -55 -42 -93 -93 -105v-2c41 -7 76 -36 76 -83c0 -86 -72 -142 -165 -142z" />
    <glyph glyph-name="threeeighths" unicode="&#x215c;" horiz-adv-x="858" 
d="M150 275c-53 0 -92 13 -114 29l9 51c26 -12 62 -21 96 -21c67 0 98 32 98 77c0 38 -27 59 -81 59h-30l10 55h24c56 0 97 19 97 70c0 36 -27 51 -70 51c-25 0 -49 -1 -77 -10l9 53c28 12 60 16 99 16c65 0 112 -38 112 -98c0 -55 -42 -93 -93 -105v-2c41 -7 76 -36 76 -83
c0 -86 -72 -142 -165 -142zM79 -40l595 753h74l-595 -753h-74zM638 -9c-95 0 -150 40 -150 108c0 58 44 92 101 115c-34 22 -51 48 -51 89c0 61 50 121 145 121c74 0 131 -35 131 -103c0 -50 -37 -90 -84 -111c45 -27 66 -53 66 -95c0 -71 -64 -124 -158 -124zM637 48
c60 0 89 26 89 63c0 33 -22 47 -88 76c-49 -19 -82 -44 -82 -82c0 -35 28 -57 81 -57zM680 236c38 19 65 44 65 79c0 30 -17 53 -65 53c-49 0 -74 -29 -74 -59c0 -38 25 -52 74 -73z" />
    <glyph glyph-name="fiveeighths" unicode="&#x215d;" horiz-adv-x="851" 
d="M150 275c-51 0 -88 14 -112 30l10 52c24 -13 63 -23 99 -23c63 0 99 28 99 90c0 39 -29 65 -85 65c-30 0 -52 -4 -75 -8l45 217h219l-10 -58h-164l-21 -103c14 3 23 5 42 5c73 0 123 -40 123 -114c0 -92 -66 -153 -170 -153zM71 -40l595 753h74l-595 -753h-74zM631 -9
c-95 0 -150 40 -150 108c0 58 44 92 101 115c-34 22 -51 48 -51 89c0 61 50 121 145 121c74 0 131 -35 131 -103c0 -50 -37 -90 -84 -111c45 -27 66 -53 66 -95c0 -71 -64 -124 -158 -124zM630 48c60 0 89 26 89 63c0 33 -22 47 -88 76c-49 -19 -82 -44 -82 -82
c0 -35 28 -57 81 -57zM673 236c38 19 65 44 65 79c0 30 -17 53 -65 53c-49 0 -74 -29 -74 -59c0 -38 25 -52 74 -73z" />
    <glyph glyph-name="twothirds" unicode="&#x2154;" horiz-adv-x="874" 
d="M38 281l9 50l107 92c73 63 118 103 118 163c0 39 -24 59 -65 59c-34 0 -69 -9 -96 -21l10 54c31 17 59 26 107 26c78 0 123 -44 123 -110c0 -74 -56 -132 -142 -198l-72 -55v-2h178l-10 -58h-267zM115 -40l595 753h74l-595 -753h-74zM641 -7c-53 0 -92 13 -114 29l9 51
c26 -12 62 -21 96 -21c67 0 98 32 98 77c0 38 -27 59 -81 59h-30l10 55h24c56 0 97 19 97 70c0 36 -27 51 -70 51c-25 0 -49 -1 -77 -10l9 53c28 12 60 16 99 16c65 0 112 -38 112 -98c0 -55 -42 -93 -93 -105v-2c41 -7 76 -36 76 -83c0 -86 -72 -142 -165 -142z" />
    <glyph glyph-name="seveneighths" unicode="&#x215e;" horiz-adv-x="819" 
d="M62 282l209 354v2h-191l11 60h264l-9 -54l-208 -362h-76zM23 -40l595 753h74l-595 -753h-74zM599 -9c-95 0 -150 40 -150 108c0 58 44 92 101 115c-34 22 -51 48 -51 89c0 61 50 121 145 121c74 0 131 -35 131 -103c0 -50 -37 -90 -84 -111c45 -27 66 -53 66 -95
c0 -71 -64 -124 -158 -124zM598 48c60 0 89 26 89 63c0 33 -22 47 -88 76c-49 -19 -82 -44 -82 -82c0 -35 28 -57 81 -57zM641 236c38 19 65 44 65 79c0 30 -17 53 -65 53c-49 0 -74 -29 -74 -59c0 -38 25 -52 74 -73z" />
    <glyph glyph-name="uni24C5" unicode="&#x24c5;" horiz-adv-x="806" 
d="M418 -14c-203 0 -354 161 -354 358s151 356 354 356c202 0 356 -159 356 -356s-154 -358 -356 -358zM418 36c172 0 296 129 296 308s-124 306 -296 306c-173 0 -294 -127 -294 -306s121 -308 294 -308zM294 161v373h133c97 0 146 -41 146 -118c0 -84 -54 -119 -136 -119
h-68v-136h-75zM369 353h60c43 0 67 19 67 64s-30 59 -71 59h-56v-123z" />
    <glyph glyph-name="dollar.old" horiz-adv-x="463" 
d="M80 -108l31 103c-56 8 -96 27 -123 46l13 71c35 -20 76 -39 131 -47l71 238l-15 7c-70 31 -113 79 -113 155c0 115 79 190 217 190h17l19 64h62l-21 -70c47 -9 74 -25 97 -38l-13 -71c-26 13 -59 29 -106 37l-66 -220l11 -4c83 -36 127 -79 127 -157
c0 -106 -64 -207 -237 -207h-11l-29 -97h-62zM333 190c0 39 -20 64 -75 89l-66 -218c96 1 141 48 141 129zM158 471c0 -42 21 -68 69 -90l60 201h-2c-79 0 -127 -34 -127 -111z" />
    <glyph glyph-name="Euro.old" horiz-adv-x="541" 
d="M42 355l12 69h66c15 45 35 85 59 117c60 81 147 114 239 114c65 0 109 -14 138 -32l-12 -68c-39 15 -75 25 -131 25c-54 0 -118 -11 -163 -78c-14 -21 -27 -48 -37 -78h200l-12 -69h-206c-5 -24 -9 -47 -12 -71h205l-12 -69h-196c0 -112 47 -153 149 -153
c57 0 115 18 158 39l-12 -71c-45 -27 -112 -41 -161 -41c-119 0 -224 56 -225 226h-72l12 69h63c2 24 5 48 10 71h-60z" />
    <glyph glyph-name="sterling.old" horiz-adv-x="498" 
d="M46 284l12 69h75l17 93c28 154 135 208 238 208c61 0 99 -14 125 -32l-11 -61c-35 13 -57 21 -111 21c-69 0 -134 -29 -154 -141l-16 -88h174l-12 -69h-174l-8 -46c-15 -85 -44 -126 -102 -163v-2h336l-13 -73h-435l11 64c62 33 97 78 114 171l9 49h-75z" />
    <glyph glyph-name="yen.old" horiz-adv-x="506" 
d="M165 0l21 117h-164l12 69h164l12 72h-164l13 69h133l-112 316h91l99 -296h3l200 296h89l-221 -316h134l-13 -69h-165l-12 -72h165l-12 -69h-165l-21 -117h-87z" />
    <glyph glyph-name="zero.old" horiz-adv-x="579" 
d="M264 -12c-138 0 -223 85 -223 222c0 35 6 77 13 113c41 209 169 281 284 281c133 0 214 -80 214 -228c0 -31 -6 -76 -13 -111c-41 -211 -162 -277 -275 -277zM269 59c86 0 151 56 181 204c8 39 14 89 14 117c0 94 -38 153 -132 153c-86 0 -157 -60 -186 -207
c-8 -41 -14 -87 -14 -119c0 -87 36 -148 137 -148z" />
    <glyph glyph-name="one.old" horiz-adv-x="321" 
d="M94 0l87 493l-124 -9l10 52l189 63h32l-106 -599h-88z" />
    <glyph glyph-name="two.old" horiz-adv-x="462" 
d="M-19 0l11 63l186 145c127 100 167 152 167 235c0 58 -36 90 -104 90c-57 0 -107 -13 -151 -32l11 63c46 26 92 41 157 41c109 0 177 -57 177 -153c0 -103 -59 -180 -203 -284l-128 -92v-3h280l-13 -73h-390z" />
    <glyph glyph-name="three.old" horiz-adv-x="463" 
d="M137 -111c-87 0 -143 23 -170 45l11 60c46 -22 86 -33 156 -33c112 0 173 61 173 150c0 74 -43 113 -141 113h-53l13 73h41c106 0 166 53 166 136c0 56 -27 100 -108 100c-51 0 -94 -11 -141 -28l12 65c42 21 84 35 147 35c128 0 180 -82 180 -160
c0 -89 -54 -155 -151 -180v-3c72 -15 124 -66 124 -146c0 -147 -110 -227 -259 -227z" />
    <glyph glyph-name="four.old" horiz-adv-x="549" 
d="M267 -100l34 188h-314l11 66l405 439h73l-77 -432h117l-12 -73h-117l-34 -188h-86zM96 161h217l53 296h-4l-266 -293v-3z" />
    <glyph glyph-name="five.old" horiz-adv-x="464" 
d="M134 -111c-71 0 -131 21 -165 47l11 62c44 -22 97 -36 153 -36c114 0 179 63 179 172c0 78 -44 121 -138 121c-54 0 -91 -7 -124 -16l62 354h337l-13 -73h-258l-36 -204c20 8 44 11 77 11c118 0 184 -74 184 -189c0 -142 -96 -249 -269 -249z" />
    <glyph glyph-name="six.old" horiz-adv-x="540" 
d="M262 -13c-136 0 -216 92 -216 226c0 111 32 254 98 347c71 101 160 145 262 145c76 0 118 -17 144 -35l-11 -62c-25 10 -64 25 -136 25c-113 0 -211 -85 -249 -267c36 32 104 57 162 57c124 0 188 -74 188 -179c0 -148 -103 -257 -242 -257zM264 57c92 0 151 82 151 180
c0 78 -44 114 -123 114c-62 0 -111 -18 -150 -48c-5 -34 -7 -66 -7 -94c0 -84 32 -152 129 -152z" />
    <glyph glyph-name="seven.old" horiz-adv-x="460" 
d="M31 -100l365 616v4h-322l13 73h408l-12 -68l-355 -625h-97z" />
    <glyph glyph-name="eight.old" horiz-adv-x="539" 
d="M252 -13c-141 0 -228 71 -228 184c0 92 72 157 165 188c-54 34 -92 86 -92 152c0 104 72 194 223 194c127 0 191 -71 191 -160c0 -93 -62 -147 -141 -187c76 -41 119 -92 119 -168c0 -116 -89 -203 -237 -203zM254 58c94 0 144 56 144 125c0 58 -46 100 -152 149
c-86 -36 -132 -87 -132 -160c0 -77 54 -114 140 -114zM314 385c67 37 106 88 106 146c0 48 -25 103 -109 103c-88 0 -123 -59 -123 -115c0 -51 30 -88 126 -134z" />
    <glyph glyph-name="nine.old" horiz-adv-x="540" 
d="M151 -113c-77 0 -125 20 -149 39l11 62c32 -15 67 -29 141 -29c109 0 207 68 246 267c-36 -32 -104 -57 -162 -57c-124 0 -188 74 -188 179c0 148 103 257 242 257c136 0 216 -92 216 -226c0 -111 -31 -264 -96 -358c-71 -102 -163 -134 -261 -134zM262 241
c62 0 111 18 150 48c5 34 7 66 7 94c0 84 -32 152 -129 152c-92 0 -151 -82 -151 -180c0 -78 44 -114 123 -114z" />
    <glyph glyph-name="percent.old" horiz-adv-x="791" 
d="M193 287c-77 0 -127 52 -127 125c0 112 49 223 168 223c83 0 127 -52 127 -124c0 -112 -44 -224 -168 -224zM578 -7c-77 0 -127 52 -127 125c0 112 49 223 168 223c83 0 127 -52 127 -124c0 -112 -44 -224 -168 -224zM86 -30l553 673h76l-553 -673h-76zM581 49
c38 0 71 25 84 98c6 33 8 54 8 75c0 36 -18 63 -56 63c-40 0 -74 -27 -86 -98c-5 -30 -7 -53 -7 -74c0 -41 21 -64 57 -64zM196 343c38 0 71 25 84 98c6 33 8 54 8 75c0 36 -18 63 -56 63c-40 0 -74 -27 -86 -98c-5 -30 -7 -53 -7 -74c0 -41 21 -64 57 -64z" />
    <glyph glyph-name="perthousand.old" horiz-adv-x="1123" 
d="M193 287c-77 0 -127 52 -127 125c0 112 49 223 168 223c83 0 127 -52 127 -124c0 -112 -44 -224 -168 -224zM578 -7c-77 0 -127 52 -127 125c0 112 49 223 168 223c83 0 127 -52 127 -124c0 -112 -44 -224 -168 -224zM86 -30l553 673h76l-553 -673h-76zM581 49
c38 0 71 25 84 98c6 33 8 54 8 75c0 36 -18 63 -56 63c-40 0 -74 -27 -86 -98c-5 -30 -7 -53 -7 -74c0 -41 21 -64 57 -64zM196 343c38 0 71 25 84 98c6 33 8 54 8 75c0 36 -18 63 -56 63c-40 0 -74 -27 -86 -98c-5 -30 -7 -53 -7 -74c0 -41 21 -64 57 -64zM910 -7
c-77 0 -127 52 -127 125c0 112 49 223 168 223c83 0 127 -52 127 -124c0 -112 -44 -224 -168 -224zM913 49c38 0 71 25 84 98c6 33 8 54 8 75c0 36 -18 63 -56 63c-40 0 -74 -27 -86 -98c-5 -30 -7 -53 -7 -74c0 -41 21 -64 57 -64z" />
    <glyph glyph-name="plus.old" horiz-adv-x="517" 
d="M190 91l31 176h-170l14 77h169l31 176h81l-31 -176h169l-14 -77h-168l-31 -176h-81z" />
    <glyph glyph-name="minus.old" horiz-adv-x="517" 
d="M51 267l14 77h419l-14 -77h-419z" />
    <glyph glyph-name="multiply.old" horiz-adv-x="549" 
d="M103 96l-47 53l172 146l-120 146l59 53l120 -146l172 146l47 -53l-172 -146l120 -146l-59 -53l-120 146z" />
    <glyph glyph-name="divide.old" horiz-adv-x="516" 
d="M51 267l14 77h418l-14 -77h-418zM180 99l18 101h100l-18 -101h-100zM235 411l18 101h100l-18 -101h-100z" />
    <glyph glyph-name="equal.old" horiz-adv-x="528" 
d="M69 329l13 74h416l-13 -74h-416zM38 152l13 74h416l-13 -74h-416z" />
    <glyph glyph-name="less.old" horiz-adv-x="481" 
d="M389 76l-344 182l13 71l407 178l-16 -90l-306 -127l261 -130z" />
    <glyph glyph-name="greater.old" horiz-adv-x="481" 
d="M28 76l16 90l306 127l-261 130l15 84l344 -182l-13 -71z" />
    <glyph glyph-name="numbersign.old" horiz-adv-x="503" 
d="M66 389l13 77h94l46 177h71l-46 -177h109l46 177h71l-46 -177h83l-13 -77h-89l-32 -124h89l-14 -77h-94l-48 -188h-71l48 188h-109l-48 -188h-71l48 188h-82l14 77h87l32 124h-88zM225 389l-32 -124h109l32 124h-109z" />
    <glyph glyph-name="zero.num" horiz-adv-x="397" 
d="M202 275c-83 0 -145 46 -145 146c0 32 5 63 11 96c22 122 93 188 199 188c86 0 145 -46 145 -145c0 -32 -5 -64 -10 -92c-22 -122 -90 -193 -200 -193zM209 332c63 0 96 47 114 140c7 34 12 65 12 89c0 58 -22 88 -75 88c-64 0 -96 -47 -115 -140c-7 -32 -12 -65 -12 -89
c0 -58 23 -88 76 -88z" />
    <glyph glyph-name="one.num" horiz-adv-x="240" 
d="M103 282l60 342l-95 -13l8 46l136 44h38l-74 -419h-73z" />
    <glyph glyph-name="two.num" horiz-adv-x="337" 
d="M35 281l9 50l107 92c73 63 118 103 118 163c0 39 -24 59 -65 59c-34 0 -69 -9 -96 -21l10 54c31 17 59 26 107 26c78 0 123 -44 123 -110c0 -74 -56 -132 -142 -198l-72 -55v-2h178l-10 -58h-267z" />
    <glyph glyph-name="three.num" horiz-adv-x="327" 
d="M147 275c-53 0 -92 13 -114 29l9 51c26 -12 62 -21 96 -21c67 0 98 32 98 77c0 38 -27 59 -81 59h-30l10 55h24c56 0 97 19 97 70c0 36 -27 51 -70 51c-25 0 -49 -1 -77 -10l9 53c28 12 60 16 99 16c65 0 112 -38 112 -98c0 -55 -42 -93 -93 -105v-2c41 -7 76 -36 76 -83
c0 -86 -72 -142 -165 -142z" />
    <glyph glyph-name="four.num" horiz-adv-x="365" 
d="M206 282l19 109h-185l9 50l237 257h66l-44 -253h67l-10 -54h-67l-19 -109h-73zM125 445h110l26 149h-3l-133 -146v-3z" />
    <glyph glyph-name="five.num" horiz-adv-x="326" 
d="M147 275c-51 0 -88 14 -112 30l10 52c24 -13 63 -23 99 -23c63 0 99 28 99 90c0 39 -29 65 -85 65c-30 0 -52 -4 -75 -8l45 217h219l-10 -58h-164l-21 -103c14 3 23 5 42 5c73 0 123 -40 123 -114c0 -92 -66 -153 -170 -153z" />
    <glyph glyph-name="six.num" horiz-adv-x="363" 
d="M200 275c-93 0 -143 55 -143 140c0 69 23 158 60 207c43 58 100 83 169 83c48 0 80 -10 97 -20l-10 -53c-17 6 -44 14 -86 14c-65 0 -118 -29 -142 -130c22 17 61 28 96 28c79 0 121 -48 121 -113c0 -90 -65 -156 -162 -156zM202 331c53 0 87 42 87 96
c0 43 -27 62 -71 62c-33 0 -61 -9 -81 -24c-4 -21 -5 -42 -5 -58c0 -45 19 -76 70 -76z" />
    <glyph glyph-name="seven.num" horiz-adv-x="308" 
d="M59 282l209 354v2h-191l11 60h264l-9 -54l-208 -362h-76z" />
    <glyph glyph-name="eight.num" horiz-adv-x="365" 
d="M198 273c-95 0 -150 40 -150 108c0 58 44 92 101 115c-34 22 -51 48 -51 89c0 61 50 121 145 121c74 0 131 -35 131 -103c0 -50 -37 -90 -84 -111c45 -27 66 -53 66 -95c0 -71 -64 -124 -158 -124zM197 330c60 0 89 26 89 63c0 33 -22 47 -88 76c-49 -19 -82 -44 -82 -82
c0 -35 28 -57 81 -57zM240 518c38 19 65 44 65 79c0 30 -17 53 -65 53c-49 0 -74 -29 -74 -59c0 -38 25 -52 74 -73z" />
    <glyph glyph-name="nine.num" horiz-adv-x="369" 
d="M152 275c-50 0 -79 12 -96 24l9 52c16 -6 42 -16 87 -16c66 0 124 35 140 131c-23 -18 -65 -30 -98 -30c-78 0 -118 50 -118 111c0 92 64 158 158 158c93 0 143 -58 143 -142c0 -79 -17 -159 -56 -212c-36 -49 -91 -76 -169 -76zM220 491c29 0 59 9 79 25c3 20 4 40 4 55
c0 46 -19 79 -72 79c-50 0 -83 -43 -83 -99c0 -39 23 -60 72 -60z" />
    <glyph glyph-name="zero.den" horiz-adv-x="397" 
d="M152 -7c-83 0 -145 46 -145 146c0 32 5 63 11 96c22 122 93 188 199 188c86 0 145 -46 145 -145c0 -32 -5 -64 -10 -92c-22 -122 -90 -193 -200 -193zM159 50c63 0 96 47 114 140c7 34 12 65 12 89c0 58 -22 88 -75 88c-64 0 -96 -47 -115 -140c-7 -32 -12 -65 -12 -89
c0 -58 23 -88 76 -88z" />
    <glyph glyph-name="one.den" horiz-adv-x="240" 
d="M53 0l60 342l-95 -13l8 46l136 44h38l-74 -419h-73z" />
    <glyph glyph-name="two.den" horiz-adv-x="337" 
d="M-15 -1l9 50l107 92c73 63 118 103 118 163c0 39 -24 59 -65 59c-34 0 -69 -9 -96 -21l10 54c31 17 59 26 107 26c78 0 123 -44 123 -110c0 -74 -56 -132 -142 -198l-72 -55v-2h178l-10 -58h-267z" />
    <glyph glyph-name="three.den" horiz-adv-x="327" 
d="M97 -7c-53 0 -92 13 -114 29l9 51c26 -12 62 -21 96 -21c67 0 98 32 98 77c0 38 -27 59 -81 59h-30l10 55h24c56 0 97 19 97 70c0 36 -27 51 -70 51c-25 0 -49 -1 -77 -10l9 53c28 12 60 16 99 16c65 0 112 -38 112 -98c0 -55 -42 -93 -93 -105v-2c41 -7 76 -36 76 -83
c0 -86 -72 -142 -165 -142z" />
    <glyph glyph-name="four.den" horiz-adv-x="365" 
d="M156 0l19 109h-185l9 50l237 257h66l-44 -253h67l-10 -54h-67l-19 -109h-73zM75 163h110l26 149h-3l-133 -146v-3z" />
    <glyph glyph-name="five.den" horiz-adv-x="326" 
d="M97 -7c-51 0 -88 14 -112 30l10 52c24 -13 63 -23 99 -23c63 0 99 28 99 90c0 39 -29 65 -85 65c-30 0 -52 -4 -75 -8l45 217h219l-10 -58h-164l-21 -103c14 3 23 5 42 5c73 0 123 -40 123 -114c0 -92 -66 -153 -170 -153z" />
    <glyph glyph-name="six.den" horiz-adv-x="363" 
d="M150 -7c-93 0 -143 55 -143 140c0 69 23 158 60 207c43 58 100 83 169 83c48 0 80 -10 97 -20l-10 -53c-17 6 -44 14 -86 14c-65 0 -118 -29 -142 -130c22 17 61 28 96 28c79 0 121 -48 121 -113c0 -90 -65 -156 -162 -156zM152 49c53 0 87 42 87 96c0 43 -27 62 -71 62
c-33 0 -61 -9 -81 -24c-4 -21 -5 -42 -5 -58c0 -45 19 -76 70 -76z" />
    <glyph glyph-name="seven.den" horiz-adv-x="308" 
d="M9 0l209 354v2h-191l11 60h264l-9 -54l-208 -362h-76z" />
    <glyph glyph-name="eight.den" horiz-adv-x="365" 
d="M148 -9c-95 0 -150 40 -150 108c0 58 44 92 101 115c-34 22 -51 48 -51 89c0 61 50 121 145 121c74 0 131 -35 131 -103c0 -50 -37 -90 -84 -111c45 -27 66 -53 66 -95c0 -71 -64 -124 -158 -124zM147 48c60 0 89 26 89 63c0 33 -22 47 -88 76c-49 -19 -82 -44 -82 -82
c0 -35 28 -57 81 -57zM190 236c38 19 65 44 65 79c0 30 -17 53 -65 53c-49 0 -74 -29 -74 -59c0 -38 25 -52 74 -73z" />
    <glyph glyph-name="nine.den" horiz-adv-x="369" 
d="M102 -7c-50 0 -79 12 -96 24l9 52c16 -6 42 -16 87 -16c66 0 124 35 140 131c-23 -18 -65 -30 -98 -30c-78 0 -118 50 -118 111c0 92 64 158 158 158c93 0 143 -58 143 -142c0 -79 -17 -159 -56 -212c-36 -49 -91 -76 -169 -76zM170 209c29 0 59 9 79 25c3 20 4 40 4 55
c0 46 -19 79 -72 79c-50 0 -83 -43 -83 -99c0 -39 23 -60 72 -60z" />
    <glyph glyph-name="zero.sub" horiz-adv-x="397" 
d="M131 -127c-83 0 -145 46 -145 146c0 32 5 63 11 96c22 122 93 188 199 188c86 0 145 -46 145 -145c0 -32 -5 -64 -10 -92c-22 -122 -90 -193 -200 -193zM138 -70c63 0 96 47 114 140c7 34 12 65 12 89c0 58 -22 88 -75 88c-64 0 -96 -47 -115 -140
c-7 -32 -12 -65 -12 -89c0 -58 23 -88 76 -88z" />
    <glyph glyph-name="one.sub" horiz-adv-x="240" 
d="M32 -120l60 342l-95 -13l8 46l136 44h38l-74 -419h-73z" />
    <glyph glyph-name="two.sub" horiz-adv-x="337" 
d="M-36 -121l9 50l107 92c73 63 118 103 118 163c0 39 -24 59 -65 59c-34 0 -69 -9 -96 -21l10 54c31 17 59 26 107 26c78 0 123 -44 123 -110c0 -74 -56 -132 -142 -198l-72 -55v-2h178l-10 -58h-267z" />
    <glyph glyph-name="three.sub" horiz-adv-x="327" 
d="M76 -127c-53 0 -92 13 -114 29l9 51c26 -12 62 -21 96 -21c67 0 98 32 98 77c0 38 -27 59 -81 59h-30l10 55h24c56 0 97 19 97 70c0 36 -27 51 -70 51c-25 0 -49 -1 -77 -10l9 53c28 12 60 16 99 16c65 0 112 -38 112 -98c0 -55 -42 -93 -93 -105v-2c41 -7 76 -36 76 -83
c0 -86 -72 -142 -165 -142z" />
    <glyph glyph-name="four.sub" horiz-adv-x="365" 
d="M135 -120l19 109h-185l9 50l237 257h66l-44 -253h67l-10 -54h-67l-19 -109h-73zM54 43h110l26 149h-3l-133 -146v-3z" />
    <glyph glyph-name="five.sub" horiz-adv-x="326" 
d="M76 -127c-51 0 -88 14 -112 30l10 52c24 -13 63 -23 99 -23c63 0 99 28 99 90c0 39 -29 65 -85 65c-30 0 -52 -4 -75 -8l45 217h219l-10 -58h-164l-21 -103c14 3 23 5 42 5c73 0 123 -40 123 -114c0 -92 -66 -153 -170 -153z" />
    <glyph glyph-name="six.sub" horiz-adv-x="363" 
d="M129 -127c-93 0 -143 55 -143 140c0 69 23 158 60 207c43 58 100 83 169 83c48 0 80 -10 97 -20l-10 -53c-17 6 -44 14 -86 14c-65 0 -118 -29 -142 -130c22 17 61 28 96 28c79 0 121 -48 121 -113c0 -90 -65 -156 -162 -156zM131 -71c53 0 87 42 87 96
c0 43 -27 62 -71 62c-33 0 -61 -9 -81 -24c-4 -21 -5 -42 -5 -58c0 -45 19 -76 70 -76z" />
    <glyph glyph-name="seven.sub" horiz-adv-x="308" 
d="M-12 -120l209 354v2h-191l11 60h264l-9 -54l-208 -362h-76z" />
    <glyph glyph-name="eight.sub" horiz-adv-x="365" 
d="M127 -129c-95 0 -150 40 -150 108c0 58 44 92 101 115c-34 22 -51 48 -51 89c0 61 50 121 145 121c74 0 131 -35 131 -103c0 -50 -37 -90 -84 -111c45 -27 66 -53 66 -95c0 -71 -64 -124 -158 -124zM126 -72c60 0 89 26 89 63c0 33 -22 47 -88 76
c-49 -19 -82 -44 -82 -82c0 -35 28 -57 81 -57zM169 116c38 19 65 44 65 79c0 30 -17 53 -65 53c-49 0 -74 -29 -74 -59c0 -38 25 -52 74 -73z" />
    <glyph glyph-name="nine.sub" horiz-adv-x="369" 
d="M81 -127c-50 0 -79 12 -96 24l9 52c16 -6 42 -16 87 -16c66 0 124 35 140 131c-23 -18 -65 -30 -98 -30c-78 0 -118 50 -118 111c0 92 64 158 158 158c93 0 143 -58 143 -142c0 -79 -17 -159 -56 -212c-36 -49 -91 -76 -169 -76zM149 89c29 0 59 9 79 25c3 20 4 40 4 55
c0 46 -19 79 -72 79c-50 0 -83 -43 -83 -99c0 -39 23 -60 72 -60z" />
    <glyph glyph-name="zero.sup" horiz-adv-x="397" 
d="M209 315c-83 0 -145 46 -145 146c0 32 5 63 11 96c22 122 93 188 199 188c86 0 145 -46 145 -145c0 -32 -5 -64 -10 -92c-22 -122 -90 -193 -200 -193zM216 372c63 0 96 47 114 140c7 34 12 65 12 89c0 58 -22 88 -75 88c-64 0 -96 -47 -115 -140c-7 -32 -12 -65 -12 -89
c0 -58 23 -88 76 -88z" />
    <glyph glyph-name="one.sup" horiz-adv-x="240" 
d="M110 322l60 342l-95 -13l8 46l136 44h38l-74 -419h-73z" />
    <glyph glyph-name="two.sup" horiz-adv-x="337" 
d="M42 321l9 50l107 92c73 63 118 103 118 163c0 39 -24 59 -65 59c-34 0 -69 -9 -96 -21l10 54c31 17 59 26 107 26c78 0 123 -44 123 -110c0 -74 -56 -132 -142 -198l-72 -55v-2h178l-10 -58h-267z" />
    <glyph glyph-name="three.sup" horiz-adv-x="327" 
d="M154 315c-53 0 -92 13 -114 29l9 51c26 -12 62 -21 96 -21c67 0 98 32 98 77c0 38 -27 59 -81 59h-30l10 55h24c56 0 97 19 97 70c0 36 -27 51 -70 51c-25 0 -49 -1 -77 -10l9 53c28 12 60 16 99 16c65 0 112 -38 112 -98c0 -55 -42 -93 -93 -105v-2c41 -7 76 -36 76 -83
c0 -86 -72 -142 -165 -142z" />
    <glyph glyph-name="four.sup" horiz-adv-x="365" 
d="M213 322l19 109h-185l9 50l237 257h66l-44 -253h67l-10 -54h-67l-19 -109h-73zM132 485h110l26 149h-3l-133 -146v-3z" />
    <glyph glyph-name="five.sup" horiz-adv-x="326" 
d="M154 315c-51 0 -88 14 -112 30l10 52c24 -13 63 -23 99 -23c63 0 99 28 99 90c0 39 -29 65 -85 65c-30 0 -52 -4 -75 -8l45 217h219l-10 -58h-164l-21 -103c14 3 23 5 42 5c73 0 123 -40 123 -114c0 -92 -66 -153 -170 -153z" />
    <glyph glyph-name="six.sup" horiz-adv-x="363" 
d="M207 315c-93 0 -143 55 -143 140c0 69 23 158 60 207c43 58 100 83 169 83c48 0 80 -10 97 -20l-10 -53c-17 6 -44 14 -86 14c-65 0 -118 -29 -142 -130c22 17 61 28 96 28c79 0 121 -48 121 -113c0 -90 -65 -156 -162 -156zM209 371c53 0 87 42 87 96
c0 43 -27 62 -71 62c-33 0 -61 -9 -81 -24c-4 -21 -5 -42 -5 -58c0 -45 19 -76 70 -76z" />
    <glyph glyph-name="seven.sup" horiz-adv-x="308" 
d="M66 322l209 354v2h-191l11 60h264l-9 -54l-208 -362h-76z" />
    <glyph glyph-name="eight.sup" horiz-adv-x="365" 
d="M205 313c-95 0 -150 40 -150 108c0 58 44 92 101 115c-34 22 -51 48 -51 89c0 61 50 121 145 121c74 0 131 -35 131 -103c0 -50 -37 -90 -84 -111c45 -27 66 -53 66 -95c0 -71 -64 -124 -158 -124zM204 370c60 0 89 26 89 63c0 33 -22 47 -88 76c-49 -19 -82 -44 -82 -82
c0 -35 28 -57 81 -57zM247 558c38 19 65 44 65 79c0 30 -17 53 -65 53c-49 0 -74 -29 -74 -59c0 -38 25 -52 74 -73z" />
    <glyph glyph-name="nine.sup" horiz-adv-x="369" 
d="M159 315c-50 0 -79 12 -96 24l9 52c16 -6 42 -16 87 -16c66 0 124 35 140 131c-23 -18 -65 -30 -98 -30c-78 0 -118 50 -118 111c0 92 64 158 158 158c93 0 143 -58 143 -142c0 -79 -17 -159 -56 -212c-36 -49 -91 -76 -169 -76zM227 531c29 0 59 9 79 25c3 20 4 40 4 55
c0 46 -19 79 -72 79c-50 0 -83 -43 -83 -99c0 -39 23 -60 72 -60z" />
    <glyph glyph-name="uni2033" unicode="&#x2033;" horiz-adv-x="365" 
d="M259 508l42 185h97l-62 -185h-77zM101 508l42 185h97l-62 -185h-77z" />
    <glyph glyph-name="uni2032" unicode="&#x2032;" horiz-adv-x="207" 
d="M101 508l42 185h97l-62 -185h-77z" />
    <glyph glyph-name="a.alt" horiz-adv-x="469" 
d="M154 -10c-87 0 -147 47 -147 134c0 94 62 152 185 164l139 14l5 29c14 82 -19 116 -107 116c-54 0 -101 -9 -133 -17l11 63c41 18 94 30 154 30c127 0 185 -66 164 -186l-59 -337h-71l-1 45h-6c-28 -29 -67 -55 -134 -55zM180 58c49 0 86 19 115 41l24 136l-115 -9
c-80 -6 -104 -37 -104 -95c0 -49 30 -73 80 -73z" />
    <glyph glyph-name="f.alt" horiz-adv-x="317" 
d="M45 0l79 440h-73l12 73h74l12 62c25 131 103 173 196 173c39 0 64 -9 82 -20l-11 -63c-12 5 -33 11 -64 11c-60 0 -100 -27 -113 -103l-10 -60h116l-12 -73h-120l-78 -440h-90z" />
    <glyph glyph-name="l.alt" horiz-adv-x="260" 
d="M140 -6c-81 0 -119 38 -102 134l108 611h88l-109 -618c-7 -41 6 -56 41 -56c15 0 29 2 45 5l-11 -62c-15 -7 -38 -14 -60 -14z" />
    <glyph glyph-name="aacute.alt" horiz-adv-x="469" 
d="M154 -10c-87 0 -147 47 -147 134c0 94 62 152 185 164l139 14l5 29c14 82 -19 116 -107 116c-54 0 -101 -9 -133 -17l11 63c41 18 94 30 154 30c127 0 185 -66 164 -186l-59 -337h-71l-1 45h-6c-28 -29 -67 -55 -134 -55zM180 58c49 0 86 19 115 41l24 136l-115 -9
c-80 -6 -104 -37 -104 -95c0 -49 30 -73 80 -73zM229 587l86 145h102l-110 -145h-78z" />
    <glyph glyph-name="abreve.alt" horiz-adv-x="469" 
d="M154 -10c-87 0 -147 47 -147 134c0 94 62 152 185 164l139 14l5 29c14 82 -19 116 -107 116c-54 0 -101 -9 -133 -17l11 63c41 18 94 30 154 30c127 0 185 -66 164 -186l-59 -337h-71l-1 45h-6c-28 -29 -67 -55 -134 -55zM180 58c49 0 86 19 115 41l24 136l-115 -9
c-80 -6 -104 -37 -104 -95c0 -49 30 -73 80 -73zM281 593c-76 0 -123 52 -117 126h67c0 -37 15 -60 55 -60s63 23 75 60h67c-15 -76 -71 -126 -147 -126z" />
    <glyph glyph-name="acircumflex.alt" horiz-adv-x="469" 
d="M154 -10c-87 0 -147 47 -147 134c0 94 62 152 185 164l139 14l5 29c14 82 -19 116 -107 116c-54 0 -101 -9 -133 -17l11 63c41 18 94 30 154 30c127 0 185 -66 164 -186l-59 -337h-71l-1 45h-6c-28 -29 -67 -55 -134 -55zM180 58c49 0 86 19 115 41l24 136l-115 -9
c-80 -6 -104 -37 -104 -95c0 -49 30 -73 80 -73zM140 587l126 144h76l78 -144h-68l-57 79l-83 -79h-72z" />
    <glyph glyph-name="adieresis.alt" horiz-adv-x="469" 
d="M154 -10c-87 0 -147 47 -147 134c0 94 62 152 185 164l139 14l5 29c14 82 -19 116 -107 116c-54 0 -101 -9 -133 -17l11 63c41 18 94 30 154 30c127 0 185 -66 164 -186l-59 -337h-71l-1 45h-6c-28 -29 -67 -55 -134 -55zM180 58c49 0 86 19 115 41l24 136l-115 -9
c-80 -6 -104 -37 -104 -95c0 -49 30 -73 80 -73zM326 615l16 89h86l-16 -89h-86zM156 615l16 89h86l-16 -89h-86z" />
    <glyph glyph-name="agrave.alt" horiz-adv-x="469" 
d="M154 -10c-87 0 -147 47 -147 134c0 94 62 152 185 164l139 14l5 29c14 82 -19 116 -107 116c-54 0 -101 -9 -133 -17l11 63c41 18 94 30 154 30c127 0 185 -66 164 -186l-59 -337h-71l-1 45h-6c-28 -29 -67 -55 -134 -55zM180 58c49 0 86 19 115 41l24 136l-115 -9
c-80 -6 -104 -37 -104 -95c0 -49 30 -73 80 -73zM238 587l-72 145h94l53 -145h-75z" />
    <glyph glyph-name="amacron.alt" horiz-adv-x="469" 
d="M154 -10c-87 0 -147 47 -147 134c0 94 62 152 185 164l139 14l5 29c14 82 -19 116 -107 116c-54 0 -101 -9 -133 -17l11 63c41 18 94 30 154 30c127 0 185 -66 164 -186l-59 -337h-71l-1 45h-6c-28 -29 -67 -55 -134 -55zM180 58c49 0 86 19 115 41l24 136l-115 -9
c-80 -6 -104 -37 -104 -95c0 -49 30 -73 80 -73zM167 620l13 73h238l-13 -73h-238z" />
    <glyph glyph-name="aogonek.alt" horiz-adv-x="469" 
d="M154 -10c-87 0 -147 47 -147 134c0 94 62 152 185 164l139 14l5 29c14 82 -19 116 -107 116c-54 0 -101 -9 -133 -17l11 63c41 18 94 30 154 30c127 0 185 -66 164 -186l-59 -337c-31 -22 -94 -62 -94 -108c0 -23 19 -32 43 -32c16 0 29 2 36 4l-9 -54
c-14 -6 -33 -10 -51 -10c-66 0 -98 34 -98 80c0 61 54 100 102 123l-1 42h-6c-28 -29 -67 -55 -134 -55zM180 58c49 0 86 19 115 41l24 136l-115 -9c-80 -6 -104 -37 -104 -95c0 -49 30 -73 80 -73z" />
    <glyph glyph-name="aring.alt" horiz-adv-x="469" 
d="M154 -10c-87 0 -147 47 -147 134c0 94 62 152 185 164l139 14l5 29c14 82 -19 116 -107 116c-54 0 -101 -9 -133 -17l11 63c41 18 94 30 154 30c127 0 185 -66 164 -186l-59 -337h-71l-1 45h-6c-28 -29 -67 -55 -134 -55zM180 58c49 0 86 19 115 41l24 136l-115 -9
c-80 -6 -104 -37 -104 -95c0 -49 30 -73 80 -73zM291 576c-55 0 -93 38 -93 87c0 52 43 97 99 97c55 0 93 -38 93 -87c0 -54 -43 -97 -99 -97zM292 618c30 0 49 23 49 54c0 28 -16 46 -44 46c-30 0 -50 -24 -50 -54c0 -29 17 -46 45 -46z" />
    <glyph glyph-name="aringacute.alt" horiz-adv-x="469" 
d="M154 -10c-87 0 -147 47 -147 134c0 94 62 152 185 164l139 14l5 29c14 82 -19 116 -107 116c-54 0 -101 -9 -133 -17l11 63c41 18 94 30 154 30c127 0 185 -66 164 -186l-59 -337h-71l-1 45h-6c-28 -29 -67 -55 -134 -55zM180 58c49 0 86 19 115 41l24 136l-115 -9
c-80 -6 -104 -37 -104 -95c0 -49 30 -73 80 -73zM293 576c-55 0 -93 38 -93 87c0 52 43 97 99 97c55 0 93 -38 93 -87c0 -54 -43 -97 -99 -97zM294 618c30 0 49 23 49 54c0 28 -16 46 -44 46c-30 0 -50 -24 -50 -54c0 -29 17 -46 45 -46zM279 805l73 125h103l-97 -125h-79z
" />
    <glyph glyph-name="atilde.alt" horiz-adv-x="469" 
d="M154 -10c-87 0 -147 47 -147 134c0 94 62 152 185 164l139 14l5 29c14 82 -19 116 -107 116c-54 0 -101 -9 -133 -17l11 63c41 18 94 30 154 30c127 0 185 -66 164 -186l-59 -337h-71l-1 45h-6c-28 -29 -67 -55 -134 -55zM180 58c49 0 86 19 115 41l24 136l-115 -9
c-80 -6 -104 -37 -104 -95c0 -49 30 -73 80 -73zM140 604c13 76 59 108 102 108s77 -35 105 -35c19 0 32 12 38 37h60c-13 -76 -59 -108 -102 -108s-77 35 -105 35c-19 0 -32 -12 -38 -37h-60z" />
    <glyph glyph-name="lacute.alt" horiz-adv-x="260" 
d="M140 -6c-81 0 -119 38 -102 134l108 611h88l-109 -618c-7 -41 6 -56 41 -56c15 0 29 2 45 5l-11 -62c-15 -7 -38 -14 -60 -14zM161 790l73 125h103l-97 -125h-79z" />
    <glyph glyph-name="lcaron.alt" horiz-adv-x="260" 
d="M140 -6c-81 0 -119 38 -102 134l108 611h88l-109 -618c-7 -41 6 -56 41 -56c15 0 29 2 45 5l-11 -62c-15 -7 -38 -14 -60 -14zM315 576h-63l39 163h86z" />
    <glyph glyph-name="lcommaaccent.alt" horiz-adv-x="260" 
d="M140 -6c-81 0 -119 38 -102 134l108 611h88l-109 -618c-7 -41 6 -56 41 -56c15 0 29 2 45 5l-11 -62c-15 -7 -38 -14 -60 -14zM9 -182l37 140h96l-65 -140h-68z" />
    <glyph glyph-name="ldot.alt" horiz-adv-x="284" 
d="M140 -6c-81 0 -119 38 -102 134l108 611h88l-109 -618c-7 -41 6 -56 41 -56c15 0 29 2 45 5l-11 -62c-15 -7 -38 -14 -60 -14zM211 309l16 91h90l-16 -91h-90z" />
    <glyph glyph-name="lslash.alt" horiz-adv-x="276" 
d="M14 299l14 80l77 37l57 323h88l-49 -276l107 52l-14 -80l-107 -52l-46 -262c-7 -41 6 -56 41 -56c15 0 29 2 45 5l-11 -62c-15 -7 -38 -14 -60 -14c-81 0 -119 38 -102 134l37 208z" />
    <glyph glyph-name="germandbls.alt" horiz-adv-x="544" 
d="M17 0l96 546c23 133 121 202 239 202c111 0 164 -54 164 -126c0 -135 -179 -183 -179 -256c0 -25 15 -40 45 -62l46 -33c48 -34 75 -71 75 -127c0 -102 -90 -154 -185 -154c-65 0 -100 14 -131 33l13 71c37 -18 63 -30 115 -30c63 0 100 27 100 76c0 26 -16 48 -48 71
l-42 30c-43 31 -72 61 -72 111c0 113 176 162 176 259c0 39 -29 65 -86 65c-74 0 -126 -42 -143 -138l-95 -538h-88z" />
    <glyph glyph-name="f_b.alt" horiz-adv-x="816" 
d="M317 23l113 642c-12 5 -34 11 -68 11c-68 0 -113 -26 -127 -103l-11 -60h117l-12 -73h-119l-77 -440h-88l78 440h-74l12 73h75l11 61c23 129 121 174 217 174c84 0 133 -18 163 -35l-44 -248h5c42 29 87 58 156 58c91 0 150 -57 150 -169c0 -187 -75 -364 -291 -364
c-63 0 -145 11 -186 33zM472 403l-58 -327c26 -11 64 -15 97 -15c119 0 165 83 188 216c4 23 5 48 5 66c-1 87 -43 105 -96 105c-51 0 -99 -21 -136 -45z" />
    <glyph glyph-name="f_f.alt" horiz-adv-x="572" 
d="M304 0l78 440h-172l-77 -440h-88l78 440h-74l12 73h75l10 54c24 128 93 173 180 173c33 0 57 -6 72 -15l-11 -64c-9 3 -27 7 -51 7c-56 0 -89 -33 -102 -102l-10 -53h171l11 61c23 129 101 174 194 174c39 0 64 -9 82 -20l-11 -63c-12 5 -33 11 -64 11
c-60 0 -99 -29 -113 -103l-11 -60h117l-12 -73h-119l-77 -440h-88z" />
    <glyph glyph-name="f_f_b.alt" horiz-adv-x="1076" 
d="M577 23l113 642c-12 5 -34 11 -68 11c-68 0 -113 -26 -127 -103l-11 -60h117l-12 -73h-119l-77 -440h-88l78 440h-173l-77 -440h-88l78 440h-74l12 73h75l10 54c24 128 93 173 180 173c33 0 57 -6 72 -15l-11 -64c-9 3 -27 7 -51 7c-56 0 -89 -33 -102 -102l-10 -53h172
l11 61c23 129 121 174 217 174c84 0 133 -18 163 -35l-44 -248h5c42 29 87 58 156 58c91 0 150 -57 150 -169c0 -187 -75 -364 -291 -364c-63 0 -145 11 -186 33zM732 403l-58 -327c26 -11 64 -15 97 -15c119 0 165 83 188 216c4 23 5 48 5 66c-1 87 -43 105 -96 105
c-51 0 -99 -21 -136 -45z" />
    <glyph glyph-name="f_f_h.alt" horiz-adv-x="1078" 
d="M305 0l78 440h-173l-77 -440h-88l78 440h-74l12 73h75l10 54c24 128 93 173 180 173c33 0 57 -6 72 -15l-11 -64c-9 3 -27 7 -51 7c-56 0 -89 -33 -102 -102l-10 -53h172l11 61c23 129 121 174 217 174c84 0 133 -18 163 -35l-41 -250h5c50 36 104 60 167 60
c96 0 123 -59 123 -123c0 -14 -2 -28 -4 -41l-63 -359h-88l61 346c3 15 4 28 4 39c0 42 -19 62 -71 62c-45 0 -92 -12 -148 -44l-71 -403h-88l117 665c-12 5 -34 11 -68 11c-68 0 -113 -26 -127 -103l-11 -60h117l-12 -73h-119l-77 -440h-88z" />
    <glyph glyph-name="f_f_i.alt" horiz-adv-x="771" 
d="M305 0l78 440h-173l-77 -440h-88l78 440h-74l12 73h75l10 54c24 128 93 173 180 173c33 0 57 -6 72 -15l-11 -64c-9 3 -27 7 -51 7c-56 0 -89 -33 -102 -102l-10 -53h172l11 61c23 129 97 174 183 174c31 0 54 -8 66 -16l-11 -63c-14 4 -29 7 -50 7
c-47 0 -86 -27 -100 -103l-11 -60h267l-90 -513h-88l77 440h-180l-77 -440h-88zM680 615l16 91h90l-16 -91h-90z" />
    <glyph glyph-name="f_f_j.alt" horiz-adv-x="770" 
d="M305 0l78 440h-173l-77 -440h-88l78 440h-74l12 73h75l10 54c24 128 93 173 180 173c33 0 57 -6 72 -15l-11 -64c-9 3 -27 7 -51 7c-56 0 -89 -33 -102 -102l-10 -53h172l11 61c23 129 97 174 183 174c31 0 54 -8 66 -16l-11 -63c-14 4 -29 7 -50 7
c-47 0 -86 -27 -100 -103l-11 -60h267l-99 -563c-17 -99 -69 -149 -162 -149c-29 0 -65 7 -83 21l10 59c16 -6 34 -9 56 -9c59 0 82 27 93 88l84 480h-180l-77 -440h-88zM680 615l16 91h89l-16 -91h-89z" />
    <glyph glyph-name="f_f_k.alt" horiz-adv-x="1028" 
d="M305 0l78 440h-173l-77 -440h-88l78 440h-74l12 73h75l10 54c24 128 93 173 180 173c33 0 57 -6 72 -15l-11 -64c-9 3 -27 7 -51 7c-56 0 -89 -33 -102 -102l-10 -53h172l11 61c23 129 121 174 217 174c84 0 133 -18 163 -35l-126 -713h-88l117 665c-12 5 -34 11 -68 11
c-68 0 -113 -26 -127 -103l-11 -60h117l-12 -73h-119l-77 -440h-88zM876 0l-143 267l214 246h101l-221 -247l146 -266h-97z" />
    <glyph glyph-name="f_f_l.alt" horiz-adv-x="766" 
d="M305 0l78 440h-173l-77 -440h-88l78 440h-74l12 73h75l10 54c24 128 93 173 180 173c33 0 57 -6 72 -15l-11 -64c-9 3 -27 7 -51 7c-56 0 -89 -33 -102 -102l-10 -53h172l11 61c23 129 121 174 217 174c84 0 133 -18 163 -35l-126 -713h-88l117 665c-12 5 -34 11 -68 11
c-68 0 -113 -26 -127 -103l-11 -60h117l-12 -73h-119l-77 -440h-88z" />
    <glyph glyph-name="f_f_l.alt1" horiz-adv-x="815" 
d="M699 -6c-81 0 -119 38 -102 134l95 537c-12 5 -34 11 -68 11c-68 0 -113 -26 -127 -103l-11 -60h117l-12 -73h-119l-110 -635h-88l111 635h-173l-110 -635h-88l111 635h-74l12 73h75l10 54c24 128 93 173 180 173c33 0 57 -6 72 -15l-11 -64c-9 3 -27 7 -51 7
c-56 0 -89 -33 -102 -102l-10 -53h172l11 61c23 129 121 174 217 174c84 0 133 -18 163 -35l-105 -592c-7 -41 6 -56 41 -56c15 0 29 2 45 5l-11 -62c-15 -7 -38 -14 -60 -14z" />
    <glyph glyph-name="f_f_l.alt2" horiz-adv-x="813" 
d="M697 -6c-81 0 -119 38 -102 134l95 537c-12 5 -34 11 -68 11c-68 0 -113 -26 -127 -103l-11 -60h117l-12 -73h-119l-77 -440h-88l78 440h-173l-77 -440h-88l78 440h-74l12 73h75l10 54c24 128 93 173 180 173c33 0 57 -6 72 -15l-11 -64c-9 3 -27 7 -51 7
c-56 0 -89 -33 -102 -102l-10 -53h172l11 61c23 129 121 174 217 174c84 0 133 -18 163 -35l-105 -592c-7 -41 6 -56 41 -56c15 0 29 2 45 5l-11 -62c-15 -7 -38 -14 -60 -14z" />
    <glyph glyph-name="f_h.alt" horiz-adv-x="818" 
d="M45 0l78 440h-74l12 73h75l11 61c23 129 121 174 217 174c84 0 133 -18 163 -35l-41 -250h5c50 36 104 60 167 60c96 0 123 -59 123 -123c0 -14 -2 -28 -4 -41l-63 -359h-88l61 346c3 15 4 28 4 39c0 42 -19 62 -71 62c-45 0 -92 -12 -148 -44l-71 -403h-88l117 665
c-12 5 -34 11 -68 11c-68 0 -113 -26 -127 -103l-11 -60h117l-12 -73h-119l-77 -440h-88z" />
    <glyph glyph-name="f_i.alt" horiz-adv-x="511" 
d="M45 0l78 440h-74l12 73h75l11 61c23 129 97 174 183 174c31 0 54 -8 66 -16l-11 -63c-14 4 -29 7 -50 7c-47 0 -86 -27 -100 -103l-11 -60h267l-90 -513h-88l77 440h-180l-77 -440h-88zM420 615l16 91h90l-16 -91h-90z" />
    <glyph glyph-name="f_j.alt" horiz-adv-x="510" 
d="M45 0l78 440h-74l12 73h75l11 61c23 129 97 174 183 174c31 0 54 -8 66 -16l-11 -63c-14 4 -29 7 -50 7c-47 0 -86 -27 -100 -103l-11 -60h267l-99 -563c-17 -99 -69 -149 -162 -149c-29 0 -65 7 -83 21l10 59c16 -6 34 -9 56 -9c59 0 82 27 93 88l84 480h-180l-77 -440
h-88zM420 615l16 91h89l-16 -91h-89z" />
    <glyph glyph-name="f_k.alt" horiz-adv-x="768" 
d="M616 0l-143 267l214 246h101l-221 -247l146 -266h-97zM45 0l78 440h-74l12 73h75l11 61c23 129 121 174 217 174c84 0 133 -18 163 -35l-126 -713h-88l117 665c-12 5 -34 11 -68 11c-68 0 -113 -26 -127 -103l-11 -60h117l-12 -73h-119l-77 -440h-88z" />
    <glyph glyph-name="f_l.alt" horiz-adv-x="506" 
d="M45 0l78 440h-74l12 73h75l11 61c23 129 121 174 217 174c84 0 133 -18 163 -35l-126 -713h-88l117 665c-12 5 -34 11 -68 11c-68 0 -113 -26 -127 -103l-11 -60h117l-12 -73h-119l-77 -440h-88z" />
    <glyph glyph-name="f_l.alt1" horiz-adv-x="555" 
d="M439 -6c-81 0 -119 38 -102 134l95 537c-12 5 -34 11 -68 11c-68 0 -113 -26 -127 -103l-11 -60h117l-12 -73h-119l-110 -635h-88l111 635h-74l12 73h75l11 61c23 129 121 174 217 174c84 0 133 -18 163 -35l-105 -592c-7 -41 6 -56 41 -56c15 0 29 2 45 5l-11 -62
c-15 -7 -38 -14 -60 -14z" />
    <glyph glyph-name="f_l.alt2" horiz-adv-x="553" 
d="M437 -6c-81 0 -119 38 -102 134l95 537c-12 5 -34 11 -68 11c-68 0 -113 -26 -127 -103l-11 -60h117l-12 -73h-119l-77 -440h-88l78 440h-74l12 73h75l11 61c23 129 121 174 217 174c84 0 133 -18 163 -35l-105 -592c-7 -41 6 -56 41 -56c15 0 29 2 45 5l-11 -62
c-15 -7 -38 -14 -60 -14z" />
    <glyph glyph-name="registered.alt" horiz-adv-x="800" 
d="M415 -14c-203 0 -354 161 -354 358s151 356 354 356c202 0 356 -159 356 -356s-154 -358 -356 -358zM415 36c172 0 296 129 296 308s-124 306 -296 306c-173 0 -294 -127 -294 -306s121 -308 294 -308zM289 161v373h128c93 0 144 -35 144 -112c0 -55 -30 -86 -76 -98v-4
l95 -159h-81l-86 148h-49v-148h-75zM364 365h53c43 0 67 17 67 58c0 43 -28 53 -69 53h-51v-111z" />
    <glyph glyph-name="questiondown.uc" horiz-adv-x="400" 
d="M181 -12c-101 0 -172 55 -172 150c0 81 30 126 132 196c60 41 89 59 97 108l7 43h83l-8 -49c-12 -71 -45 -105 -132 -161c-74 -48 -85 -86 -85 -129c0 -53 37 -82 105 -82c61 0 91 11 138 27l-12 -71c-51 -21 -89 -32 -153 -32zM254 592l18 101h100l-18 -101h-100z" />
    <glyph glyph-name="exclamdown.uc" horiz-adv-x="274" 
d="M44 0l99 485h74l-77 -485h-96zM148 592l18 101h96l-18 -101h-96z" />
    <glyph glyph-name="hyphen.uc" horiz-adv-x="340" 
d="M71 298l13 76h214l-13 -76h-214z" />
    <glyph glyph-name="endash.uc" horiz-adv-x="425" 
d="M43 302l13 70h355l-13 -70h-355z" />
    <glyph glyph-name="emdash.uc" horiz-adv-x="700" 
d="M43 302l13 70h630l-13 -70h-630z" />
    <glyph glyph-name="guilsinglleft.uc" horiz-adv-x="272" 
d="M115 86l-70 180l5 33l134 180h84l-137 -201l64 -192h-80z" />
    <glyph glyph-name="guilsinglright.uc" horiz-adv-x="272" 
d="M13 86l137 201l-64 192h80l70 -180l-5 -33l-134 -180h-84z" />
    <glyph glyph-name="guillemotleft.uc" horiz-adv-x="452" 
d="M295 86l-70 180l5 33l134 180h84l-137 -201l64 -192h-80zM115 86l-70 180l5 33l134 180h84l-137 -201l64 -192h-80z" />
    <glyph glyph-name="guillemotright.uc" horiz-adv-x="452" 
d="M193 86l137 201l-64 192h80l70 -180l-5 -33l-134 -180h-84zM13 86l137 201l-64 192h80l70 -180l-5 -33l-134 -180h-84z" />
    <glyph glyph-name="parenleft.uc" horiz-adv-x="321" 
d="M174 -91c-56 71 -119 214 -119 357c0 204 107 394 237 502h79c-125 -121 -224 -294 -224 -501c0 -130 38 -266 101 -358h-74z" />
    <glyph glyph-name="parenright.uc" horiz-adv-x="321" 
d="M176 768c56 -71 119 -214 119 -357c0 -204 -107 -394 -237 -502h-79c125 121 224 294 224 501c0 130 -38 266 -101 358h74z" />
    <glyph glyph-name="bracketleft.uc" horiz-adv-x="336" 
d="M17 -91l151 859h226l-12 -70h-138l-127 -719h138l-12 -70h-226z" />
    <glyph glyph-name="bracketright.uc" horiz-adv-x="336" 
d="M-28 -91l12 70h137l127 719h-138l12 70h226l-151 -859h-225z" />
    <glyph glyph-name="braceleft.uc" horiz-adv-x="374" 
d="M280 -93c-145 3 -187 56 -187 126c0 12 1 24 3 37l25 141c11 64 -11 90 -96 95l13 72c87 5 117 24 128 88l25 141c19 105 69 161 241 163l-12 -70c-89 -6 -129 -22 -142 -97l-25 -141c-10 -55 -36 -105 -128 -122v-3c69 -14 88 -48 88 -90c0 -10 -1 -21 -3 -32l-25 -141
c-13 -75 19 -91 108 -97z" />
    <glyph glyph-name="braceright.uc" horiz-adv-x="374" 
d="M-28 -93l12 70c89 6 129 22 142 97l25 141c10 55 36 105 128 122v3c-69 14 -88 48 -88 90c0 10 1 21 3 32l25 141c13 75 -19 91 -108 97l13 70c145 -3 187 -56 187 -126c0 -12 -1 -24 -3 -37l-25 -141c-11 -64 11 -90 96 -95l-13 -72c-87 -5 -117 -24 -128 -88l-25 -141
c-19 -105 -69 -161 -241 -163z" />
    <glyph glyph-name="slash.uc" horiz-adv-x="345" 
d="M-35 -60l359 793h82l-359 -793h-82z" />
    <glyph glyph-name="backslash.uc" horiz-adv-x="346" 
d="M193 -60l-85 793h75l85 -793h-75z" />
    <glyph glyph-name="bar.uc" horiz-adv-x="295" 
d="M116 -60v793h81v-793h-81z" />
    <glyph glyph-name="at.uc" horiz-adv-x="746" 
d="M341 -12c-198 0 -305 110 -305 277c0 213 168 440 430 440c172 0 283 -102 283 -253c0 -167 -90 -302 -216 -302c-61 0 -90 23 -96 60h-4c-20 -33 -73 -60 -119 -60c-67 0 -107 40 -107 112c0 167 121 271 231 271c62 0 115 -13 139 -23l-63 -259c-6 -26 1 -43 30 -43
c76 0 137 111 137 238c0 110 -68 200 -219 200c-216 0 -358 -183 -358 -379c0 -138 85 -221 241 -221c86 0 175 21 220 37l-9 -52c-53 -24 -131 -43 -215 -43zM347 212c35 0 64 19 86 47l50 203c-16 7 -28 10 -54 10c-62 0 -138 -86 -138 -201c0 -37 17 -59 56 -59z" />
    <glyph glyph-name="uni2009" unicode="&#x2009;" horiz-adv-x="92" 
 />
    </font>
</defs>
</svg>
