<?xml version="1.0" standalone="no"?>
<!DOCTYPE svg PUBLIC "-//W3C//DTD SVG 1.1//EN" "http://www.w3.org/Graphics/SVG/1.1/DTD/svg11.dtd" >
<svg xmlns="http://www.w3.org/2000/svg" xmlns:xlink="http://www.w3.org/1999/xlink" version="1.1">
<metadata>
Created by FontForge 20161116 at Thu Feb 13 17:43:21 2014
 By Jimmy Warting
(c)2008-09 Paul Barnes and Christian Schwartz, under exclusive license to Schwartzco Inc./Commercial Type. All rights reserved.
</metadata>
<defs>
<font id="GuardianSans-SemiboldIt" horiz-adv-x="496" >
  <font-face 
    font-family="Guardian Sans Semibold"
    font-weight="600"
    font-style="italic"
    font-stretch="normal"
    units-per-em="1000"
    panose-1="2 11 7 3 5 5 3 13 8 3"
    ascent="790"
    descent="-210"
    x-height="525"
    cap-height="693"
    bbox="-232 -222 1208 1082"
    underline-thickness="102"
    underline-position="-51"
    slope="-10"
    stemh="114"
    stemv="142"
    unicode-range="U+0020-FB04"
  />
<missing-glyph horiz-adv-x="500" 
 />
    <glyph glyph-name="f_b" unicode="fb" horiz-adv-x="864" 
d="M324 24l109 617c-12 3 -30 7 -55 7c-57 0 -91 -21 -102 -80l-8 -43h95l-18 -104h-96l-106 -616h-141l108 616h-67l18 104h67l8 46c23 128 109 177 258 177c88 0 151 -15 192 -34l-42 -236h5c42 30 83 57 151 57c88 0 150 -60 150 -172c0 -211 -93 -373 -307 -373
c-82 0 -167 12 -219 34zM529 390l-51 -288c20 -8 48 -11 74 -11c92 0 127 64 148 182c4 21 5 47 5 65c0 71 -32 86 -75 86c-39 0 -73 -16 -101 -34z" />
    <glyph glyph-name="f_f" unicode="ff" horiz-adv-x="620" 
d="M282 -195l107 616h-140l-106 -616h-141l108 616h-67l18 104h67l7 42c24 127 98 174 194 174c41 0 67 -7 83 -14l-16 -92c-7 3 -22 6 -40 6c-45 0 -71 -28 -81 -80l-7 -36h139l8 46c24 128 103 177 213 177c46 0 75 -9 94 -18l-16 -91c-12 5 -33 9 -58 9
c-51 0 -82 -23 -93 -80l-8 -43h107l-18 -104h-107l-107 -616h-140z" />
    <glyph glyph-name="f_f_b" unicode="ffb" horiz-adv-x="1144" 
d="M604 24l109 617c-12 3 -31 7 -56 7c-56 0 -90 -21 -101 -80l-8 -43h95l-18 -104h-96l-106 -616h-141l107 616h-140l-106 -616h-141l108 616h-67l18 104h67l7 42c24 127 98 174 194 174c41 0 67 -7 83 -14l-16 -92c-7 3 -22 6 -40 6c-45 0 -71 -28 -81 -80l-7 -36h139
l9 46c23 128 109 177 258 177c88 0 151 -15 192 -34l-42 -236h5c42 30 83 57 151 57c88 0 150 -60 150 -172c0 -211 -93 -373 -307 -373c-82 0 -167 12 -219 34zM809 390l-51 -288c20 -8 48 -11 74 -11c92 0 127 64 148 182c3 21 5 47 5 65c-1 71 -32 86 -75 86
c-39 0 -73 -16 -101 -34z" />
    <glyph glyph-name="f_f_h" unicode="ffh" horiz-adv-x="1145" 
d="M282 -195l107 616h-140l-106 -616h-141l108 616h-67l18 104h67l7 42c24 127 98 174 194 174c41 0 67 -7 83 -14l-16 -92c-7 3 -22 6 -40 6c-45 0 -71 -28 -81 -80l-7 -36h139l9 46c23 128 109 177 258 177c88 0 151 -15 192 -34l-40 -241h5c47 38 102 62 165 62
c94 0 125 -54 125 -125c0 -15 -2 -32 -4 -48l-64 -362h-140l59 337c3 12 4 24 4 34c0 34 -16 51 -56 51c-35 0 -71 -10 -112 -34l-68 -388h-140l113 641c-12 3 -31 7 -56 7c-56 0 -90 -21 -101 -80l-8 -43h95l-18 -104h-96l-106 -616h-141z" />
    <glyph glyph-name="f_f_i" unicode="ffi" horiz-adv-x="838" 
d="M282 -195l107 616h-140l-106 -616h-141l108 616h-67l18 104h67l7 42c24 127 98 174 194 174c41 0 67 -7 83 -14l-16 -92c-7 3 -22 6 -40 6c-45 0 -71 -28 -81 -80l-7 -36h139l9 49c23 128 100 174 195 174c39 0 63 -7 78 -14l-16 -91c-11 3 -22 5 -39 5
c-38 0 -68 -23 -78 -80l-8 -43h284l-92 -525h-140l74 421h-145l-106 -616h-141zM705 601l20 117h142l-21 -117h-141z" />
    <glyph glyph-name="f_f_j" unicode="ffj" horiz-adv-x="838" 
d="M472 -179l14 89c11 -4 25 -5 38 -5c45 0 63 21 72 70l78 446h-145l-106 -616h-141l107 616h-140l-106 -616h-141l108 616h-67l18 104h67l7 42c24 127 98 174 194 174c41 0 67 -7 83 -14l-16 -92c-7 3 -22 6 -40 6c-45 0 -71 -28 -81 -80l-7 -36h139l9 49
c23 128 100 174 195 174c39 0 63 -7 78 -14l-16 -91c-11 3 -22 5 -39 5c-38 0 -68 -23 -78 -80l-8 -43h284l-97 -559c-18 -104 -66 -164 -176 -164c-40 0 -68 8 -87 19zM705 601l20 117h142l-21 -117h-141z" />
    <glyph glyph-name="f_f_k" unicode="ffk" horiz-adv-x="1114" 
d="M916 0l-129 273l-48 -273h-140l112 640c-11 4 -29 8 -54 8c-57 0 -91 -21 -102 -80l-8 -44h95l-18 -103h-96l-106 -616h-141l107 616h-140l-106 -616h-140l106 616h-66l18 103h67l7 42c24 128 98 175 194 175c41 0 67 -6 83 -14l-16 -92c-8 3 -22 5 -40 5
c-45 0 -72 -27 -81 -79l-7 -37h140l8 47c23 128 109 178 257 178c89 0 152 -17 193 -35l-78 -439l208 249h149l-216 -253l135 -271h-147z" />
    <glyph glyph-name="f_f_l" unicode="ffl" horiz-adv-x="833" 
d="M282 -195l107 616h-140l-106 -616h-141l108 616h-67l18 104h67l7 42c24 127 98 174 194 174c41 0 67 -7 83 -14l-16 -92c-7 3 -22 6 -40 6c-45 0 -71 -28 -81 -80l-7 -36h139l9 46c23 128 109 177 258 177c88 0 151 -15 192 -34l-126 -714h-140l113 641
c-12 3 -31 7 -56 7c-56 0 -90 -21 -101 -80l-8 -43h95l-18 -104h-96l-106 -616h-141z" />
    <glyph glyph-name="f_h" unicode="fh" horiz-adv-x="866" 
d="M2 -195l108 616h-67l18 104h67l8 46c23 128 109 177 258 177c88 0 151 -15 192 -34l-40 -241h5c47 38 103 62 165 62c94 0 126 -54 126 -125c0 -15 -2 -32 -5 -48l-64 -362h-140l60 337c2 12 3 24 3 34c0 34 -16 51 -56 51c-35 0 -71 -10 -112 -34l-68 -388h-140l113 641
c-12 3 -30 7 -55 7c-57 0 -91 -21 -102 -80l-8 -43h95l-18 -104h-96l-106 -616h-141z" />
    <glyph glyph-name="f_i" unicode="fi" horiz-adv-x="558" 
d="M2 -195l108 616h-67l18 104h67l8 49c23 128 100 174 195 174c40 0 63 -7 78 -14l-16 -91c-11 3 -22 5 -38 5c-38 0 -69 -23 -79 -80l-8 -43h284l-92 -525h-140l74 421h-145l-106 -616h-141zM425 601l20 117h142l-21 -117h-141z" />
    <glyph glyph-name="f_j" unicode="fj" horiz-adv-x="558" 
d="M192 -179l15 89c11 -4 24 -5 37 -5c45 0 63 21 72 70l78 446h-145l-106 -616h-141l108 616h-67l18 104h67l8 49c23 128 100 174 195 174c40 0 63 -7 78 -14l-16 -91c-11 3 -22 5 -38 5c-38 0 -69 -23 -79 -80l-8 -43h284l-97 -559c-18 -104 -66 -164 -176 -164
c-40 0 -68 8 -87 19zM425 601l20 117h142l-21 -117h-141z" />
    <glyph glyph-name="f_k" unicode="fk" horiz-adv-x="834" 
d="M2 -195l106 616h-66l18 103h67l8 47c23 128 109 178 258 178c88 0 151 -17 192 -35l-78 -439l209 249h148l-216 -253l136 -271h-148l-129 273l-48 -273h-140l113 640c-12 4 -30 8 -55 8c-57 0 -91 -21 -102 -80l-8 -44h95l-18 -103h-96l-106 -616h-140z" />
    <glyph glyph-name="f_l" unicode="fl" horiz-adv-x="553" 
d="M2 -195l108 616h-67l18 104h67l8 46c23 128 109 177 258 177c88 0 151 -15 192 -34l-126 -714h-140l113 641c-12 3 -30 7 -55 7c-57 0 -91 -21 -102 -80l-8 -43h95l-18 -104h-96l-106 -616h-141z" />
    <glyph glyph-name=".notdef" horiz-adv-x="500" 
 />
    <glyph glyph-name="Eth" unicode="&#xd0;" horiz-adv-x="658" 
d="M8 292l20 110h59l51 291h218c196 0 297 -90 297 -259c0 -256 -117 -434 -378 -434h-259l51 292h-59zM187 113h93c124 0 178 74 203 218c7 41 10 78 10 107c0 99 -47 142 -152 142h-72l-31 -178h145l-20 -110h-144z" />
    <glyph glyph-name="eth" unicode="&#xf0;" horiz-adv-x="542" 
d="M147 617l112 36c-27 29 -57 57 -90 86h161c17 -14 34 -29 51 -46l109 36l19 -62l-81 -27c56 -70 98 -160 98 -266c0 -230 -96 -384 -291 -384c-145 0 -216 91 -216 209c0 179 94 328 259 328c30 0 56 -7 72 -18h7c-13 32 -32 62 -53 91l-137 -45zM386 363
c0 18 -2 35 -4 52c-21 12 -45 20 -82 20c-73 0 -112 -56 -131 -162c-4 -24 -9 -57 -9 -78c0 -75 36 -105 84 -105c71 0 113 62 132 166c6 34 10 74 10 107z" />
    <glyph glyph-name="Lslash" unicode="&#x141;" horiz-adv-x="507" 
d="M24 0l41 231l-70 -26l19 111l70 26l62 351h153l-51 -293l199 75l-20 -111l-199 -75l-30 -175h269l-21 -114h-422z" />
    <glyph glyph-name="lslash" unicode="&#x142;" horiz-adv-x="272" 
d="M7 266l20 113l66 32l58 328h140l-45 -253l75 37l-19 -112l-75 -37l-66 -374h-140l52 298z" />
    <glyph glyph-name="Scaron" unicode="&#x160;" horiz-adv-x="505" 
d="M508 864l-125 -130h-112l-79 130h99l46 -51l66 51h105zM195 -11c-97 0 -170 26 -212 54l21 111c53 -28 108 -50 186 -50c90 0 126 39 126 106c0 34 -15 54 -71 77l-55 23c-85 32 -121 86 -121 173c0 135 85 221 254 221c114 0 161 -26 197 -47l-22 -109
c-42 19 -94 41 -178 41c-67 0 -104 -29 -104 -91c0 -35 14 -55 60 -74l59 -23c96 -36 134 -89 134 -179c0 -132 -80 -233 -274 -233z" />
    <glyph glyph-name="scaron" unicode="&#x161;" horiz-adv-x="435" 
d="M201 583l-77 151h100l47 -66l70 66h105l-130 -151h-115zM171 -9c-79 0 -142 19 -179 43l17 98c37 -18 87 -39 153 -39c73 0 94 27 94 60c0 25 -16 39 -59 54l-44 16c-64 21 -105 59 -105 137c0 112 78 174 212 174c82 0 127 -19 159 -37l-18 -98c-30 15 -79 33 -139 33
c-56 0 -81 -20 -81 -55c0 -28 18 -40 51 -52l44 -15c89 -31 118 -68 118 -137c0 -103 -58 -182 -223 -182z" />
    <glyph glyph-name="Yacute" unicode="&#xdd;" horiz-adv-x="575" 
d="M168 0l48 274l-136 419h152l86 -295h3l180 295h147l-279 -422l-48 -271h-153zM317 734l74 134h147l-107 -134h-114z" />
    <glyph glyph-name="yacute" unicode="&#xfd;" horiz-adv-x="514" 
d="M32 -199c-41 0 -72 10 -89 20l17 93c16 -4 35 -8 57 -8c45 0 73 19 98 66l24 43l-87 510h143l44 -344h4l174 344h139l-309 -569c-57 -106 -110 -155 -215 -155zM246 583l85 152h146l-118 -152h-113z" />
    <glyph glyph-name="Thorn" unicode="&#xde;" horiz-adv-x="585" 
d="M14 0l122 693h154l-20 -113h90c149 0 226 -68 226 -185c0 -162 -99 -245 -282 -245h-110l-26 -150h-154zM212 254h83c96 0 136 38 136 127c0 56 -29 88 -97 88h-84z" />
    <glyph glyph-name="thorn" unicode="&#xfe;" horiz-adv-x="549" 
d="M-29 -195l164 934h140l-46 -261h5c42 30 83 57 152 57c87 0 149 -62 149 -178c0 -218 -94 -367 -285 -367c-41 0 -80 6 -104 18l-35 -203h-140zM237 91c95 0 127 57 148 175c3 21 5 47 5 65c-1 75 -33 93 -74 93c-40 0 -74 -16 -102 -34l-51 -286c21 -10 51 -13 74 -13z
" />
    <glyph glyph-name="Zcaron" unicode="&#x17d;" horiz-adv-x="544" 
d="M546 864l-125 -130h-112l-79 130h99l46 -51l66 51h105zM-18 0l19 107l388 469v3h-286l19 114h471l-19 -107l-390 -469v-3h305l-20 -114h-487z" />
    <glyph glyph-name="zcaron" unicode="&#x17e;" horiz-adv-x="448" 
d="M230 583l-77 151h100l47 -66l70 66h105l-130 -151h-115zM-18 0l17 100l278 319v3h-215l18 103h388l-16 -94l-286 -325v-3h233l-18 -103h-399z" />
    <glyph glyph-name="onehalf" unicode="&#xbd;" horiz-adv-x="855" 
d="M33 -40l606 753h103l-606 -753h-103zM99 276l55 314l-86 -11l12 68l139 51h67l-74 -422h-113zM481 -1l13 75l99 79c66 53 104 88 104 139c0 33 -23 49 -61 49c-33 0 -64 -7 -88 -17l14 76c30 17 72 27 122 27c87 0 136 -43 136 -114s-52 -129 -134 -187l-59 -42v-2h162
l-15 -83h-293z" />
    <glyph glyph-name="onequarter" unicode="&#xbc;" horiz-adv-x="829" 
d="M99 276l55 314l-86 -11l12 68l139 51h67l-74 -422h-113zM37 -40l606 753h103l-606 -753h-103zM587 0l18 101h-183l13 71l233 248h105l-43 -243h61l-14 -76h-61l-17 -101h-112zM533 175h88l21 123h-3l-106 -120v-3z" />
    <glyph glyph-name="threequarters" unicode="&#xbe;" horiz-adv-x="864" 
d="M156 269c-51 0 -98 13 -123 27l13 72c24 -9 57 -16 87 -16c54 0 86 23 86 59c0 29 -21 45 -65 45h-32l12 71h29c49 0 80 15 80 54c0 28 -23 41 -64 41c-29 0 -50 -2 -75 -10l12 73c30 12 63 19 112 19c74 0 128 -35 128 -99c0 -57 -44 -95 -96 -107v-2
c45 -7 77 -34 77 -85c0 -84 -69 -142 -181 -142zM87 -43l606 753h103l-606 -753h-103zM622 0l18 101h-183l13 71l233 248h105l-43 -243h61l-14 -76h-61l-17 -101h-112zM568 175h88l21 123h-3l-106 -120v-3z" />
    <glyph glyph-name="brokenbar" unicode="&#xa6;" horiz-adv-x="302" 
d="M89 -120v399h126v-399h-126zM89 358v377h126v-377h-126z" />
    <glyph glyph-name="minus" unicode="&#x2212;" horiz-adv-x="517" 
d="M43 282l20 112h441l-20 -112h-441z" />
    <glyph glyph-name="multiply" unicode="&#xd7;" horiz-adv-x="551" 
d="M117 111l-70 79l161 137l-112 135l88 78l113 -137l161 137l70 -78l-161 -137l113 -135l-89 -79l-113 137z" />
    <glyph glyph-name="space" unicode=" " horiz-adv-x="177" 
 />
    <glyph glyph-name="exclam" unicode="!" horiz-adv-x="290" 
d="M78 221l65 472h158l-105 -472h-118zM30 0l24 132h139l-24 -132h-139z" />
    <glyph glyph-name="quotedbl" unicode="&#x22;" horiz-adv-x="411" 
d="M281 488l26 205h137l-51 -205h-112zM93 488l25 205h137l-51 -205h-111z" />
    <glyph glyph-name="numbersign" unicode="#" horiz-adv-x="531" 
d="M70 405l19 109h91l46 179h97l-46 -179h95l45 179h97l-46 -179h75l-19 -109h-83l-28 -109h81l-19 -109h-89l-47 -187h-97l47 187h-95l-47 -187h-97l47 187h-75l18 109h85l27 109h-82zM249 405l-27 -109h95l27 109h-95z" />
    <glyph glyph-name="dollar" unicode="$" horiz-adv-x="514" 
d="M74 -118l40 116c-52 9 -94 27 -121 45l21 104c38 -20 82 -37 137 -45l70 200l-12 5c-90 29 -132 85 -132 176c0 135 86 221 254 221c11 0 21 0 31 -1l22 62h76l-25 -71c45 -9 72 -24 95 -37l-21 -104c-29 12 -64 26 -112 34l-65 -185h2c110 -34 146 -89 146 -178
c0 -133 -74 -235 -272 -235c-7 0 -14 0 -21 1l-37 -108h-76zM346 207c0 32 -13 52 -58 71l-63 -180c88 1 121 42 121 109zM207 499c0 -35 11 -56 57 -74l60 169h-13c-68 0 -104 -30 -104 -95z" />
    <glyph glyph-name="percent" unicode="%" horiz-adv-x="866" 
d="M212 -40h-106l563 753h106zM219 391c34 0 61 28 73 104c5 29 8 56 8 76c0 33 -14 54 -42 54c-34 0 -61 -28 -73 -104c-5 -28 -7 -54 -7 -73c0 -39 13 -57 41 -57zM212 311c-91 0 -148 52 -148 146c0 131 72 248 201 248c90 0 148 -51 148 -143c0 -132 -74 -251 -201 -251
zM640 71c34 0 61 28 74 104c4 29 7 56 7 75c0 34 -13 55 -41 55c-35 0 -62 -28 -73 -104c-5 -28 -7 -54 -7 -73c0 -39 12 -57 40 -57zM634 -9c-92 0 -148 52 -148 146c0 131 73 248 201 248c89 0 147 -51 147 -144c0 -130 -72 -250 -200 -250z" />
    <glyph glyph-name="ampersand" unicode="&#x26;" horiz-adv-x="659" 
d="M241 -12c-149 0 -226 69 -226 183c0 121 87 187 177 223c-24 40 -34 77 -34 114c0 118 82 197 216 197c109 0 175 -60 175 -147c0 -95 -67 -149 -173 -193l92 -144c23 40 39 82 48 124h114c-17 -75 -49 -151 -103 -215l85 -130h-164l-31 46c-53 -36 -107 -58 -176 -58z
M263 91c41 0 74 14 100 35l-122 189c-50 -29 -81 -59 -81 -123c0 -62 39 -101 103 -101zM329 434c62 33 92 63 92 115c0 45 -28 64 -53 64c-43 0 -70 -33 -70 -86c0 -31 11 -61 31 -93z" />
    <glyph glyph-name="quotesingle" unicode="'" horiz-adv-x="222" 
d="M93 488l25 205h137l-51 -205h-111z" />
    <glyph glyph-name="parenleft" unicode="(" horiz-adv-x="358" 
d="M169 -120c-61 69 -126 203 -126 349c0 224 124 413 252 510h122c-127 -122 -231 -299 -231 -515c0 -133 41 -257 99 -344h-116z" />
    <glyph glyph-name="parenright" unicode=")" horiz-adv-x="358" 
d="M-40 -120c127 122 232 299 232 515c0 133 -41 257 -99 344h115c62 -69 127 -203 127 -349c0 -224 -125 -413 -252 -510h-123z" />
    <glyph glyph-name="asterisk" unicode="*" horiz-adv-x="399" 
d="M170 352l24 109l-95 -53l-31 86l103 33l-88 48l60 80l75 -67l12 105h93l-24 -110l96 53l30 -85l-101 -34l86 -48l-59 -79l-75 68l-14 -106h-92z" />
    <glyph glyph-name="plus" unicode="+" horiz-adv-x="521" 
d="M175 114l29 168h-161l20 112h161l29 168h123l-30 -168h161l-20 -112h-160l-30 -168h-122z" />
    <glyph glyph-name="comma" unicode="," horiz-adv-x="256" 
d="M-6 -81l46 215h145l-80 -215h-111z" />
    <glyph glyph-name="hyphen" unicode="-" horiz-adv-x="327" 
d="M44 226l20 113h228l-20 -113h-228z" />
    <glyph glyph-name="period" unicode="." horiz-adv-x="257" 
d="M13 0l23 134h142l-23 -134h-142z" />
    <glyph glyph-name="slash" unicode="/" horiz-adv-x="376" 
d="M-67 -120l389 859h127l-390 -859h-126z" />
    <glyph glyph-name="zero" unicode="0" horiz-adv-x="654" 
d="M291 -12c-144 0 -251 76 -251 246c0 57 9 107 19 161c39 206 164 310 337 310c148 0 250 -78 250 -247c0 -54 -9 -109 -18 -156c-39 -206 -157 -314 -337 -314zM304 101c91 0 137 67 163 210c11 59 21 115 21 154c0 84 -30 126 -105 126c-91 0 -136 -68 -164 -208
c-11 -54 -21 -116 -21 -154c0 -87 30 -128 106 -128z" />
    <glyph glyph-name="one" unicode="1" horiz-adv-x="361" 
d="M88 0l96 545l-113 -10l15 87l198 75h80l-123 -697h-153z" />
    <glyph glyph-name="two" unicode="2" horiz-adv-x="510" 
d="M-17 0l19 103l173 144c101 85 171 164 171 250c0 63 -37 89 -109 89c-52 0 -100 -13 -144 -27l19 106c52 25 104 40 185 40c145 0 212 -78 212 -183c0 -124 -90 -222 -215 -319l-107 -86v-3h263l-20 -114h-447z" />
    <glyph glyph-name="three" unicode="3" horiz-adv-x="491" 
d="M174 -11c-99 0 -155 22 -188 44l18 102c41 -17 85 -29 144 -29c98 0 145 45 145 115c0 58 -35 82 -114 82h-57l19 108h48c85 0 139 38 139 104c0 41 -24 72 -96 72c-54 0 -94 -8 -139 -22l19 105c52 22 90 35 169 35c134 0 201 -71 201 -157c0 -91 -60 -158 -153 -182v-4
c77 -16 122 -60 122 -137c0 -139 -104 -236 -277 -236z" />
    <glyph glyph-name="four" unicode="4" horiz-adv-x="592" 
d="M269 0l31 174h-300l18 101l386 418h137l-72 -410h114l-19 -109h-115l-30 -174h-150zM151 283h170l42 234h-4l-208 -231v-3z" />
    <glyph glyph-name="five" unicode="5" horiz-adv-x="510" 
d="M169 -11c-76 0 -146 20 -183 44l18 105c42 -18 89 -30 147 -30c108 0 160 42 160 129c0 61 -41 93 -129 93c-52 0 -83 -5 -120 -14l68 377h380l-21 -114h-261l-28 -152c22 7 36 9 71 9c131 0 200 -77 200 -186c0 -158 -105 -261 -302 -261z" />
    <glyph glyph-name="six" unicode="6" horiz-adv-x="583" 
d="M277 -13c-162 0 -244 93 -244 239c0 122 40 263 104 345c72 93 172 134 283 134c83 0 133 -17 162 -34l-18 -107c-27 9 -70 22 -138 22c-104 0 -181 -47 -216 -197c35 27 93 48 152 48c126 0 190 -77 190 -186c0 -152 -102 -264 -275 -264zM283 94c76 0 117 65 117 149
c0 64 -32 92 -94 92c-46 0 -81 -13 -111 -35c-7 -36 -9 -70 -9 -93c0 -69 24 -113 97 -113z" />
    <glyph glyph-name="seven" unicode="7" horiz-adv-x="501" 
d="M35 0l347 572v4h-304l20 117h461l-19 -106l-334 -587h-171z" />
    <glyph glyph-name="eight" unicode="8" horiz-adv-x="590" 
d="M271 -13c-161 0 -252 72 -252 180c0 88 64 149 160 181c-57 33 -91 83 -91 147c0 123 98 210 265 210c143 0 218 -72 218 -163c0 -88 -57 -140 -139 -180c69 -36 114 -87 114 -158c0 -128 -105 -217 -275 -217zM276 91c77 0 120 46 120 103c0 47 -42 79 -131 118
c-65 -30 -105 -71 -105 -130c0 -60 43 -91 116 -91zM345 403c53 29 88 68 88 118c0 39 -24 79 -92 79c-73 0 -105 -42 -105 -89c0 -41 27 -72 109 -108z" />
    <glyph glyph-name="nine" unicode="9" horiz-adv-x="584" 
d="M201 -13c-86 0 -139 19 -169 39l19 107c27 -12 72 -27 143 -27c105 0 194 54 215 199c-36 -29 -96 -50 -151 -50c-128 0 -194 78 -194 184c0 153 104 266 274 266c162 0 245 -97 245 -243c0 -133 -31 -264 -98 -351c-64 -82 -159 -124 -284 -124zM313 357
c43 0 79 13 109 36c6 33 8 67 8 90c0 69 -24 115 -98 115s-116 -66 -116 -152c0 -59 29 -89 97 -89z" />
    <glyph glyph-name="colon" unicode=":" horiz-adv-x="265" 
d="M68 294l24 134h142l-24 -134h-142zM17 0l23 134h142l-24 -134h-141z" />
    <glyph glyph-name="semicolon" unicode=";" horiz-adv-x="265" 
d="M-6 -81l46 215h145l-80 -215h-111zM68 294l24 134h142l-24 -134h-142z" />
    <glyph glyph-name="less" unicode="&#x3c;" horiz-adv-x="476" 
d="M397 89l-357 181l19 108l420 175l-22 -125l-277 -108l238 -114z" />
    <glyph glyph-name="equal" unicode="=" horiz-adv-x="523" 
d="M62 349l19 109h432l-19 -109h-432zM27 149l19 110h432l-19 -110h-432z" />
    <glyph glyph-name="greater" unicode="&#x3e;" horiz-adv-x="476" 
d="M20 89l22 125l276 108l-237 114l20 117l358 -181l-20 -108z" />
    <glyph glyph-name="question" unicode="?" horiz-adv-x="420" 
d="M95 221l7 44c12 68 39 97 118 148c63 41 76 71 76 111c0 43 -28 68 -94 68c-57 0 -86 -9 -126 -22l18 104c50 19 92 31 164 31c117 0 188 -59 188 -160c0 -80 -30 -130 -124 -193c-62 -42 -91 -58 -98 -100l-5 -31h-124zM48 0l24 132h142l-24 -132h-142z" />
    <glyph glyph-name="at" unicode="@" horiz-adv-x="893" 
d="M385 -159c-226 0 -362 129 -362 328c0 266 199 511 510 511c219 0 351 -126 351 -300c0 -204 -121 -346 -272 -346c-76 0 -112 26 -121 67h-5c-21 -40 -81 -67 -130 -67c-78 0 -127 51 -127 139c0 185 133 308 272 308c81 0 137 -15 170 -30l-63 -290
c-6 -25 1 -42 30 -42c85 0 150 117 150 252c0 125 -78 227 -262 227c-244 0 -406 -193 -406 -426c0 -162 102 -251 275 -251c102 0 201 21 262 43l-12 -71c-60 -31 -156 -52 -260 -52zM411 132c30 0 52 16 70 37l47 214c-12 5 -22 7 -42 7c-61 0 -125 -94 -125 -200
c0 -40 18 -58 50 -58z" />
    <glyph glyph-name="A" unicode="A" horiz-adv-x="639" 
d="M-42 0l373 693h164l96 -693h-155l-18 160h-234l-82 -160h-144zM372 532l-137 -266h171l-31 266h-3z" />
    <glyph glyph-name="B" unicode="B" horiz-adv-x="601" 
d="M14 0l122 693h244c135 0 201 -68 201 -158c0 -91 -44 -145 -132 -173v-3c75 -14 119 -61 119 -129c0 -132 -86 -230 -270 -230h-284zM183 105h99c86 0 129 40 129 125c0 49 -25 79 -91 79h-100zM236 402h74c74 0 123 28 123 112c0 50 -27 75 -89 75h-75z" />
    <glyph glyph-name="C" unicode="C" horiz-adv-x="560" 
d="M311 -11c-173 0 -273 94 -273 276c0 109 31 212 82 286c69 104 165 154 308 154c85 0 132 -16 168 -40l-20 -112c-32 17 -75 33 -143 33c-96 0 -158 -39 -195 -129c-25 -56 -39 -117 -39 -190c0 -123 60 -160 147 -160c73 0 132 21 168 39l-20 -115
c-38 -24 -105 -42 -183 -42z" />
    <glyph glyph-name="D" unicode="D" horiz-adv-x="656" 
d="M14 0l122 693h218c196 0 297 -90 297 -259c0 -256 -117 -434 -378 -434h-259zM187 113h92c124 0 177 74 202 218c7 41 10 78 10 107c0 99 -47 142 -152 142h-70z" />
    <glyph glyph-name="E" unicode="E" horiz-adv-x="540" 
d="M14 0l122 693h435l-19 -114h-284l-30 -168h217l-20 -112h-216l-32 -185h290l-21 -114h-442z" />
    <glyph glyph-name="F" unicode="F" horiz-adv-x="513" 
d="M15 0l122 693h429l-20 -114h-276l-33 -187h211l-20 -113h-211l-49 -279h-153z" />
    <glyph glyph-name="G" unicode="G" horiz-adv-x="647" 
d="M337 -11c-185 0 -296 88 -296 274c0 112 35 216 80 282c76 116 187 160 325 160c96 0 153 -20 190 -45l-20 -116c-36 20 -96 41 -169 41c-116 0 -189 -55 -227 -183c-15 -51 -21 -96 -21 -148c0 -95 45 -153 145 -153c33 0 62 4 86 13l26 141h-103l18 106h249l-59 -334
c-58 -21 -136 -38 -224 -38z" />
    <glyph glyph-name="H" unicode="H" horiz-adv-x="677" 
d="M14 0l123 693h153l-50 -279h252l49 279h154l-123 -693h-154l54 299h-251l-54 -299h-153z" />
    <glyph glyph-name="I" unicode="I" horiz-adv-x="278" 
d="M17 0l123 693h153l-123 -693h-153z" />
    <glyph glyph-name="J" unicode="J" horiz-adv-x="406" 
d="M119 -7c-65 0 -113 13 -143 33l18 104c23 -8 51 -16 92 -16c70 0 94 38 105 104l84 475h153l-85 -483c-24 -140 -81 -217 -224 -217z" />
    <glyph glyph-name="K" unicode="K" horiz-adv-x="618" 
d="M404 0l-173 353l289 340h165l-296 -341l178 -352h-163zM14 0l122 693h154l-122 -693h-154z" />
    <glyph glyph-name="L" unicode="L" 
d="M14 0l122 693h154l-102 -579h269l-21 -114h-422z" />
    <glyph glyph-name="M" unicode="M" horiz-adv-x="823" 
d="M14 0l122 693h207l54 -482h3l227 482h213l-122 -693h-151l90 512h-3l-241 -512h-119l-56 512h-3l-91 -512h-130z" />
    <glyph glyph-name="N" unicode="N" horiz-adv-x="665" 
d="M14 0l122 693h171l159 -459h3l81 459h133l-122 -693h-154l-171 490h-3l-86 -490h-133z" />
    <glyph glyph-name="O" unicode="O" horiz-adv-x="688" 
d="M312 -11c-166 0 -274 98 -274 274c0 238 137 441 370 441c166 0 275 -98 275 -274c0 -240 -137 -441 -371 -441zM324 103c95 0 163 89 188 231c6 40 10 74 10 109c0 90 -37 147 -126 147c-91 0 -160 -78 -187 -231c-8 -44 -10 -76 -10 -109c0 -96 41 -147 125 -147z" />
    <glyph glyph-name="P" unicode="P" horiz-adv-x="577" 
d="M14 0l123 693h231c152 0 229 -69 229 -192c0 -168 -109 -254 -289 -254h-99l-44 -247h-151zM228 352h78c92 0 134 47 134 140c0 57 -26 90 -96 90h-76z" />
    <glyph glyph-name="Q" unicode="Q" horiz-adv-x="688" 
d="M601 -116l-354 104c-118 34 -209 105 -209 275c0 238 137 441 370 441c166 0 275 -98 275 -274c0 -195 -93 -342 -241 -385l200 -46zM324 103c95 0 163 89 188 231c6 40 10 74 10 109c0 90 -37 147 -126 147c-91 0 -160 -78 -187 -231c-8 -44 -10 -76 -10 -109
c0 -96 41 -147 125 -147z" />
    <glyph glyph-name="R" unicode="R" horiz-adv-x="605" 
d="M14 0l123 693h239c138 0 216 -68 216 -180c0 -104 -55 -179 -156 -208v-4l116 -301h-158l-98 269h-85l-44 -269h-153zM231 368h75c92 0 129 53 129 132c0 60 -37 83 -92 83h-74z" />
    <glyph glyph-name="S" unicode="S" horiz-adv-x="505" 
d="M195 -11c-97 0 -170 26 -212 54l21 111c53 -28 108 -50 186 -50c90 0 126 39 126 106c0 34 -15 54 -71 77l-55 23c-85 32 -121 86 -121 173c0 135 85 221 254 221c114 0 161 -26 197 -47l-22 -109c-42 19 -94 41 -178 41c-67 0 -104 -29 -104 -91c0 -35 14 -55 60 -74
l59 -23c96 -36 134 -89 134 -179c0 -132 -80 -233 -274 -233z" />
    <glyph glyph-name="T" unicode="T" horiz-adv-x="546" 
d="M151 0l102 579h-183l20 114h520l-20 -114h-183l-103 -579h-153z" />
    <glyph glyph-name="U" unicode="U" horiz-adv-x="651" 
d="M303 -12c-155 0 -254 57 -254 204c0 22 2 46 7 72l75 429h153l-77 -440c-3 -18 -5 -35 -5 -52c0 -75 43 -99 115 -99c83 0 122 39 141 145l79 446h137l-80 -458c-27 -152 -103 -247 -291 -247z" />
    <glyph glyph-name="V" unicode="V" horiz-adv-x="625" 
d="M184 0l-102 693h152l64 -510h3l250 510h147l-359 -693h-155z" />
    <glyph glyph-name="W" unicode="W" horiz-adv-x="893" 
d="M130 0l-42 693h149l19 -488h3l204 488h130l38 -488h3l185 488h140l-282 -693h-158l-32 476h-3l-199 -476h-155z" />
    <glyph glyph-name="X" unicode="X" horiz-adv-x="624" 
d="M-32 0l264 360l-127 333h159l89 -251h4l169 251h158l-254 -343l134 -350h-159l-94 264h-3l-182 -264h-158z" />
    <glyph glyph-name="Y" unicode="Y" horiz-adv-x="575" 
d="M168 0l48 274l-136 419h152l86 -295h3l180 295h147l-279 -422l-48 -271h-153z" />
    <glyph glyph-name="Z" unicode="Z" horiz-adv-x="544" 
d="M-18 0l19 107l388 469v3h-286l19 114h471l-19 -107l-390 -469v-3h305l-20 -114h-487z" />
    <glyph glyph-name="bracketleft" unicode="[" horiz-adv-x="360" 
d="M-4 -120l151 859h268l-18 -105h-128l-115 -649h128l-18 -105h-268z" />
    <glyph glyph-name="backslash" unicode="\" horiz-adv-x="377" 
d="M196 -120l-98 859h117l99 -859h-118z" />
    <glyph glyph-name="bracketright" unicode="]" horiz-adv-x="360" 
d="M-36 -120l19 105h127l115 649h-129l18 105h269l-151 -859h-268z" />
    <glyph glyph-name="asciicircum" unicode="^" horiz-adv-x="471" 
d="M63 444l192 249h116l104 -249h-113l-66 136l-115 -136h-118z" />
    <glyph glyph-name="underscore" unicode="_" horiz-adv-x="356" 
d="M-75 -143l15 88h366l-16 -88h-365z" />
    <glyph glyph-name="grave" unicode="`" 
d="M249 583l-75 152h137l45 -152h-107z" />
    <glyph glyph-name="a" unicode="a" horiz-adv-x="536" 
d="M178 -10c-99 0 -160 64 -160 178c0 229 146 367 332 367c81 0 153 -17 180 -27l-89 -508h-114l-3 55h-5c-33 -36 -81 -65 -141 -65zM233 93c35 0 68 16 91 36l53 294c-15 6 -27 9 -46 9c-80 0 -138 -60 -160 -166c-6 -28 -11 -56 -11 -88c0 -63 29 -85 73 -85z" />
    <glyph glyph-name="b" unicode="b" horiz-adv-x="549" 
d="M228 -10c-82 0 -167 12 -219 34l126 715h140l-46 -261h5c42 30 83 57 151 57c88 0 150 -60 150 -172c0 -211 -93 -373 -307 -373zM237 91c92 0 127 64 148 182c3 21 5 47 5 65c-1 71 -33 86 -75 86c-39 0 -73 -16 -101 -34l-51 -288c20 -8 48 -11 74 -11z" />
    <glyph glyph-name="c" unicode="c" horiz-adv-x="435" 
d="M234 -10c-143 0 -216 79 -216 208c0 78 23 157 62 215c52 77 132 122 245 122c60 0 104 -15 129 -31l-19 -102c-25 12 -53 23 -102 23c-65 0 -110 -19 -141 -77c-21 -39 -34 -86 -34 -136c0 -79 38 -113 113 -113c56 0 99 18 127 31l-18 -102c-34 -22 -78 -38 -146 -38z
" />
    <glyph glyph-name="d" unicode="d" horiz-adv-x="548" 
d="M172 -10c-92 0 -155 61 -155 173c0 214 112 372 280 372c59 0 87 -15 105 -26l41 230h140l-130 -739h-115l-4 56h-5c-37 -37 -92 -66 -157 -66zM231 93c43 0 78 19 105 37l49 282c-19 12 -44 21 -72 21c-88 0 -128 -64 -148 -186c-4 -22 -6 -48 -6 -67
c0 -63 24 -87 72 -87z" />
    <glyph glyph-name="e" unicode="e" horiz-adv-x="509" 
d="M246 -10c-152 0 -228 77 -228 209c0 88 24 168 64 224c48 69 121 111 218 111c156 0 216 -99 187 -261l-8 -48h-320v-11c0 -85 33 -119 123 -119c62 0 122 18 165 36l-17 -96c-41 -22 -98 -45 -184 -45zM175 320l-3 -8h185c16 85 -7 124 -69 124c-58 0 -94 -43 -113 -116
z" />
    <glyph glyph-name="f" unicode="f" horiz-adv-x="341" 
d="M2 -195l108 616h-67l18 104h67l8 46c23 128 103 177 213 177c46 0 75 -9 94 -18l-16 -91c-12 5 -33 9 -58 9c-52 0 -82 -23 -93 -80l-8 -43h107l-18 -104h-108l-106 -616h-141z" />
    <glyph glyph-name="g" unicode="g" horiz-adv-x="547" 
d="M175 -200c-81 0 -161 20 -196 43l17 100c35 -15 97 -37 164 -37c112 0 144 47 157 119l7 44h-5c-30 -30 -77 -56 -144 -56c-93 0 -155 64 -155 178c0 198 116 343 314 343c92 0 158 -18 206 -40l-85 -482c-25 -144 -110 -212 -280 -212zM234 113c41 0 78 19 105 37
l47 269c-16 8 -42 15 -66 15c-81 0 -130 -58 -150 -163c-4 -22 -7 -47 -7 -68c0 -63 24 -90 71 -90z" />
    <glyph glyph-name="h" unicode="h" horiz-adv-x="550" 
d="M5 0l132 739h140l-46 -266h5c47 38 102 62 165 62c94 0 125 -54 125 -125c0 -15 -2 -32 -4 -48l-64 -362h-140l59 337c3 12 4 24 4 34c0 34 -16 51 -56 51c-35 0 -71 -10 -112 -34l-68 -388h-140z" />
    <glyph glyph-name="i" unicode="i" horiz-adv-x="246" 
d="M8 0l92 525h140l-92 -525h-140zM113 601l20 117h142l-20 -117h-142z" />
    <glyph glyph-name="j" unicode="j" horiz-adv-x="245" 
d="M-50 -198c-36 0 -76 9 -94 21l16 89c12 -4 29 -7 49 -7c52 0 73 20 83 73l96 547h140l-98 -559c-18 -105 -74 -164 -192 -164zM113 601l20 117h141l-20 -117h-141z" />
    <glyph glyph-name="k" unicode="k" horiz-adv-x="520" 
d="M322 0l-129 273l-48 -273h-140l130 739h140l-82 -465l208 250h149l-217 -253l137 -271h-148z" />
    <glyph glyph-name="l" unicode="l" horiz-adv-x="244" 
d="M7 0l130 739h140l-130 -739h-140z" />
    <glyph glyph-name="m" unicode="m" horiz-adv-x="828" 
d="M5 0l93 525h135l-10 -58h5c51 42 101 68 164 68s96 -30 110 -73h4c61 46 118 73 182 73c87 0 116 -53 116 -122c0 -17 -2 -34 -5 -51l-63 -362h-141l60 337c2 13 4 26 4 38c0 32 -13 47 -47 47c-32 0 -62 -9 -106 -35c0 -9 -1 -18 -2 -27l-64 -360h-140l60 337
c2 13 4 26 4 38c0 32 -14 47 -47 47c-34 0 -63 -10 -104 -34l-68 -388h-140z" />
    <glyph glyph-name="n" unicode="n" horiz-adv-x="550" 
d="M5 0l93 525h135l-10 -58h5c53 42 110 68 173 68c93 0 125 -54 125 -125c0 -15 -2 -32 -4 -48l-64 -362h-140l59 337c3 12 4 24 4 34c0 34 -16 51 -56 51c-35 0 -71 -10 -112 -34l-68 -388h-140z" />
    <glyph glyph-name="o" unicode="o" horiz-adv-x="540" 
d="M232 -10c-143 0 -214 87 -214 207c0 176 102 338 291 338c143 0 216 -87 216 -207c0 -185 -103 -338 -293 -338zM243 91c71 0 113 57 132 165c6 31 9 59 9 78c0 73 -35 100 -83 100c-71 0 -114 -59 -133 -165c-6 -28 -8 -53 -8 -78c0 -72 35 -100 83 -100z" />
    <glyph glyph-name="p" unicode="p" horiz-adv-x="549" 
d="M-29 -195l126 720h135l-9 -54h5c43 37 89 64 158 64c87 0 149 -62 149 -178c0 -218 -94 -367 -285 -367c-41 0 -80 6 -104 18l-35 -203h-140zM237 91c95 0 127 57 147 174c4 21 6 47 6 66c-1 74 -33 92 -74 92c-40 0 -75 -16 -103 -34l-50 -285c21 -10 51 -13 74 -13z
" />
    <glyph glyph-name="q" unicode="q" horiz-adv-x="548" 
d="M279 -195l42 240h-5c-27 -26 -79 -55 -144 -55c-92 0 -155 62 -155 173c0 236 124 372 315 372c86 0 159 -20 209 -40l-122 -690h-140zM232 98c43 0 79 18 106 36l49 283c-19 10 -39 17 -67 17c-91 0 -134 -64 -154 -183c-4 -22 -6 -47 -6 -67c0 -61 24 -86 72 -86z" />
    <glyph glyph-name="r" unicode="r" horiz-adv-x="359" 
d="M5 0l92 525h135l-11 -63h5c35 40 82 68 137 68c13 0 26 -1 31 -4l-22 -124c-12 2 -30 4 -43 4c-47 0 -82 -10 -118 -29l-66 -377h-140z" />
    <glyph glyph-name="s" unicode="s" horiz-adv-x="435" 
d="M171 -9c-79 0 -142 19 -179 43l17 98c37 -18 87 -39 153 -39c73 0 94 27 94 60c0 25 -16 39 -59 54l-44 16c-64 21 -105 59 -105 137c0 112 78 174 212 174c82 0 127 -19 159 -37l-18 -98c-30 15 -79 33 -139 33c-56 0 -81 -20 -81 -55c0 -28 18 -40 51 -52l44 -15
c89 -31 118 -68 118 -137c0 -103 -58 -182 -223 -182z" />
    <glyph glyph-name="t" unicode="t" horiz-adv-x="362" 
d="M200 -7c-114 0 -155 59 -137 161l48 268h-68l18 103h67l23 124h140l-22 -124h114l-18 -103h-114l-46 -259c-8 -43 3 -65 52 -65c20 0 42 4 60 8l-17 -91c-19 -12 -55 -22 -100 -22z" />
    <glyph glyph-name="u" unicode="u" horiz-adv-x="547" 
d="M156 -10c-82 0 -128 45 -128 128c0 15 1 31 4 50l63 357h140l-60 -340c-3 -14 -4 -25 -4 -36c0 -33 14 -49 53 -49c38 0 71 10 112 34l68 391h141l-93 -525h-118l-4 58h-5c-51 -43 -101 -68 -169 -68z" />
    <glyph glyph-name="v" unicode="v" horiz-adv-x="513" 
d="M117 0l-65 525h141l32 -373h4l186 373h140l-288 -525h-150z" />
    <glyph glyph-name="w" unicode="w" horiz-adv-x="755" 
d="M91 0l-35 525h139l12 -348h4l161 348h113l19 -348h4l156 348h130l-251 -525h-136l-20 333h-4l-157 -333h-135z" />
    <glyph glyph-name="x" unicode="x" horiz-adv-x="507" 
d="M-41 0l211 273l-103 252h145l64 -175l126 175h142l-201 -260l105 -265h-145l-68 181l-134 -181h-142z" />
    <glyph glyph-name="y" unicode="y" horiz-adv-x="514" 
d="M32 -199c-41 0 -72 10 -89 20l17 93c16 -4 35 -8 57 -8c45 0 73 19 98 66l24 43l-87 510h143l44 -344h4l174 344h139l-309 -569c-57 -106 -110 -155 -215 -155z" />
    <glyph glyph-name="z" unicode="z" horiz-adv-x="448" 
d="M-18 0l17 100l278 319v3h-215l18 103h388l-16 -94l-286 -325v-3h233l-18 -103h-399z" />
    <glyph glyph-name="braceleft" unicode="{" horiz-adv-x="385" 
d="M288 -122c-165 3 -214 53 -214 131c0 13 1 27 3 41l22 122c9 59 -11 82 -82 86l19 106c71 5 100 21 111 79l21 122c21 113 78 174 272 176l-18 -106c-74 -5 -105 -21 -117 -85l-20 -114c-10 -61 -40 -109 -134 -126v-3c66 -13 93 -43 93 -93c0 -10 -1 -22 -3 -33
l-20 -114c-11 -63 13 -78 86 -83z" />
    <glyph glyph-name="bar" unicode="|" horiz-adv-x="291" 
d="M97 -120v859h115v-859h-115z" />
    <glyph glyph-name="braceright" unicode="}" horiz-adv-x="385" 
d="M-36 -122l18 106c75 5 106 21 117 85l20 114c11 61 41 109 134 126v3c-66 13 -93 43 -93 93c0 10 1 22 4 33l20 114c11 63 -13 78 -87 83l19 106c165 -3 215 -53 215 -131c0 -13 -2 -27 -4 -41l-21 -122c-10 -59 10 -82 81 -86l-18 -106c-72 -5 -101 -21 -111 -79
l-22 -122c-20 -113 -77 -174 -272 -176z" />
    <glyph glyph-name="asciitilde" unicode="~" horiz-adv-x="420" 
d="M28 230c15 110 76 145 131 145c50 0 91 -36 119 -36c18 0 32 13 39 36h92c-15 -103 -75 -145 -131 -145c-49 0 -91 35 -119 35c-18 0 -32 -13 -39 -35h-92z" />
    <glyph glyph-name="Adieresis" unicode="&#xc4;" horiz-adv-x="639" 
d="M-42 0l373 693h164l96 -693h-155l-18 160h-234l-82 -160h-144zM372 532l-137 -266h171l-31 266h-3zM452 737l20 113h121l-19 -113h-122zM256 737l20 113h121l-19 -113h-122z" />
    <glyph glyph-name="Aring" unicode="&#xc5;" horiz-adv-x="639" 
d="M-42 0l373 693h164l96 -693h-155l-18 160h-234l-82 -160h-144zM372 532l-137 -266h171l-31 266h-3zM419 721c-65 0 -106 45 -106 98c0 61 49 109 114 109s107 -44 107 -97c0 -62 -49 -110 -115 -110zM421 777c29 0 46 21 46 51c0 26 -14 44 -41 44c-28 0 -47 -21 -47 -51
c0 -27 15 -44 42 -44z" />
    <glyph glyph-name="Ccedilla" unicode="&#xc7;" horiz-adv-x="560" 
d="M311 -11c-14 0 -27 1 -39 2l-6 -35c60 -3 90 -29 90 -68c0 -68 -60 -102 -215 -110l11 62c74 6 104 14 104 39c0 18 -19 26 -70 27l17 98c-106 33 -165 121 -165 261c0 109 31 212 82 286c69 104 165 154 308 154c85 0 132 -16 168 -40l-20 -112c-32 17 -75 33 -143 33
c-96 0 -158 -39 -195 -129c-25 -56 -39 -117 -39 -190c0 -123 60 -160 147 -160c73 0 132 21 168 39l-20 -115c-38 -24 -105 -42 -183 -42z" />
    <glyph glyph-name="Eacute" unicode="&#xc9;" horiz-adv-x="540" 
d="M301 734l74 134h147l-107 -134h-114zM14 0l122 693h435l-19 -114h-284l-30 -168h217l-20 -112h-216l-32 -185h290l-21 -114h-442z" />
    <glyph glyph-name="Ntilde" unicode="&#xd1;" horiz-adv-x="665" 
d="M263 737c16 88 67 123 118 123c47 0 82 -30 109 -30c17 0 29 10 35 30h86c-16 -88 -67 -123 -118 -123c-47 0 -82 30 -109 30c-18 0 -29 -10 -35 -30h-86zM14 0l122 693h171l159 -459h3l81 459h133l-122 -693h-154l-171 490h-3l-86 -490h-133z" />
    <glyph glyph-name="Odieresis" unicode="&#xd6;" horiz-adv-x="688" 
d="M455 737l20 113h121l-19 -113h-122zM259 737l20 113h121l-19 -113h-122zM312 -11c-166 0 -274 98 -274 274c0 238 137 441 370 441c166 0 275 -98 275 -274c0 -240 -137 -441 -371 -441zM324 103c95 0 163 89 188 231c6 40 10 74 10 109c0 90 -37 147 -126 147
c-91 0 -160 -78 -187 -231c-8 -44 -10 -76 -10 -109c0 -96 41 -147 125 -147z" />
    <glyph glyph-name="Udieresis" unicode="&#xdc;" horiz-adv-x="651" 
d="M303 -12c-155 0 -254 57 -254 204c0 22 2 46 7 72l75 429h153l-77 -440c-3 -18 -5 -35 -5 -52c0 -75 43 -99 115 -99c83 0 122 39 141 145l79 446h137l-80 -458c-27 -152 -103 -247 -291 -247zM449 737l20 113h121l-19 -113h-122zM253 737l20 113h121l-19 -113h-122z" />
    <glyph glyph-name="aacute" unicode="&#xe1;" horiz-adv-x="536" 
d="M178 -10c-99 0 -160 64 -160 178c0 229 146 367 332 367c81 0 153 -17 180 -27l-89 -508h-114l-3 55h-5c-33 -36 -81 -65 -141 -65zM233 93c35 0 68 16 91 36l53 294c-15 6 -27 9 -46 9c-80 0 -138 -60 -160 -166c-6 -28 -11 -56 -11 -88c0 -63 29 -85 73 -85zM281 583
l85 152h146l-118 -152h-113z" />
    <glyph glyph-name="agrave" unicode="&#xe0;" horiz-adv-x="536" 
d="M178 -10c-99 0 -160 64 -160 178c0 229 146 367 332 367c81 0 153 -17 180 -27l-89 -508h-114l-3 55h-5c-33 -36 -81 -65 -141 -65zM233 93c35 0 68 16 91 36l53 294c-15 6 -27 9 -46 9c-80 0 -138 -60 -160 -166c-6 -28 -11 -56 -11 -88c0 -63 29 -85 73 -85zM302 583
l-75 152h137l45 -152h-107z" />
    <glyph glyph-name="acircumflex" unicode="&#xe2;" horiz-adv-x="536" 
d="M178 -10c-99 0 -160 64 -160 178c0 229 146 367 332 367c81 0 153 -17 180 -27l-89 -508h-114l-3 55h-5c-33 -36 -81 -65 -141 -65zM233 93c35 0 68 16 91 36l53 294c-15 6 -27 9 -46 9c-80 0 -138 -60 -160 -166c-6 -28 -11 -56 -11 -88c0 -63 29 -85 73 -85zM193 583
l130 151h115l77 -151h-100l-47 66l-69 -66h-106z" />
    <glyph glyph-name="adieresis" unicode="&#xe4;" horiz-adv-x="536" 
d="M178 -10c-99 0 -160 64 -160 178c0 229 146 367 332 367c81 0 153 -17 180 -27l-89 -508h-114l-3 55h-5c-33 -36 -81 -65 -141 -65zM233 93c35 0 68 16 91 36l53 294c-15 6 -27 9 -46 9c-80 0 -138 -60 -160 -166c-6 -28 -11 -56 -11 -88c0 -63 29 -85 73 -85zM389 601
l20 116h122l-21 -116h-121zM197 601l21 116h121l-20 -116h-122z" />
    <glyph glyph-name="atilde" unicode="&#xe3;" horiz-adv-x="536" 
d="M178 -10c-99 0 -160 64 -160 178c0 229 146 367 332 367c81 0 153 -17 180 -27l-89 -508h-114l-3 55h-5c-33 -36 -81 -65 -141 -65zM233 93c35 0 68 16 91 36l53 294c-15 6 -27 9 -46 9c-80 0 -138 -60 -160 -166c-6 -28 -11 -56 -11 -88c0 -63 29 -85 73 -85zM193 596
c16 92 69 129 119 129c47 0 82 -33 109 -33c18 0 29 11 35 33h86c-16 -92 -68 -129 -119 -129c-47 0 -82 33 -108 33c-18 0 -30 -12 -35 -33h-87z" />
    <glyph glyph-name="aring" unicode="&#xe5;" horiz-adv-x="536" 
d="M178 -10c-99 0 -160 64 -160 178c0 229 146 367 332 367c81 0 153 -17 180 -27l-89 -508h-114l-3 55h-5c-33 -36 -81 -65 -141 -65zM233 93c35 0 68 16 91 36l53 294c-15 6 -27 9 -46 9c-80 0 -138 -60 -160 -166c-6 -28 -11 -56 -11 -88c0 -63 29 -85 73 -85zM359 576
c-65 0 -106 44 -106 97c0 61 49 109 114 109s107 -44 107 -97c0 -62 -49 -109 -115 -109zM361 632c28 0 46 21 46 50c0 27 -14 44 -41 44c-28 0 -47 -21 -47 -50c0 -27 15 -44 42 -44z" />
    <glyph glyph-name="ccedilla" unicode="&#xe7;" horiz-adv-x="435" 
d="M234 -10c-7 0 -13 0 -19 1l-5 -35c59 -3 89 -29 89 -68c0 -68 -60 -102 -215 -110l11 62c74 6 104 14 104 39c0 18 -19 26 -69 27l16 96c-85 27 -128 96 -128 196c0 78 23 157 62 215c52 77 132 122 245 122c60 0 104 -15 129 -31l-19 -102c-25 12 -53 23 -102 23
c-65 0 -110 -19 -141 -77c-21 -39 -34 -86 -34 -136c0 -79 38 -113 113 -113c56 0 99 18 127 31l-18 -102c-34 -22 -78 -38 -146 -38z" />
    <glyph glyph-name="eacute" unicode="&#xe9;" horiz-adv-x="509" 
d="M246 -10c-152 0 -228 77 -228 209c0 88 24 168 64 224c48 69 121 111 218 111c156 0 216 -99 187 -261l-8 -48h-320v-11c0 -85 33 -119 123 -119c62 0 122 18 165 36l-17 -96c-41 -22 -98 -45 -184 -45zM244 583l85 152h146l-118 -152h-113zM175 320l-3 -8h185
c16 85 -7 124 -69 124c-58 0 -94 -43 -113 -116z" />
    <glyph glyph-name="egrave" unicode="&#xe8;" horiz-adv-x="509" 
d="M246 -10c-152 0 -228 77 -228 209c0 88 24 168 64 224c48 69 121 111 218 111c156 0 216 -99 187 -261l-8 -48h-320v-11c0 -85 33 -119 123 -119c62 0 122 18 165 36l-17 -96c-41 -22 -98 -45 -184 -45zM175 320l-3 -8h185c16 85 -7 124 -69 124c-58 0 -94 -43 -113 -116
zM257 583l-75 152h137l45 -152h-107z" />
    <glyph glyph-name="ecircumflex" unicode="&#xea;" horiz-adv-x="509" 
d="M246 -10c-152 0 -228 77 -228 209c0 88 24 168 64 224c48 69 121 111 218 111c156 0 216 -99 187 -261l-8 -48h-320v-11c0 -85 33 -119 123 -119c62 0 122 18 165 36l-17 -96c-41 -22 -98 -45 -184 -45zM149 583l130 151h115l77 -151h-100l-47 66l-69 -66h-106zM175 320
l-3 -8h185c16 85 -7 124 -69 124c-58 0 -94 -43 -113 -116z" />
    <glyph glyph-name="edieresis" unicode="&#xeb;" horiz-adv-x="509" 
d="M246 -10c-152 0 -228 77 -228 209c0 88 24 168 64 224c48 69 121 111 218 111c156 0 216 -99 187 -261l-8 -48h-320v-11c0 -85 33 -119 123 -119c62 0 122 18 165 36l-17 -96c-41 -22 -98 -45 -184 -45zM175 320l-3 -8h185c16 85 -7 124 -69 124c-58 0 -94 -43 -113 -116
zM155 601l21 116h121l-20 -116h-122zM347 601l20 116h122l-21 -116h-121z" />
    <glyph glyph-name="iacute" unicode="&#xed;" horiz-adv-x="246" 
d="M113 583l85 152h146l-118 -152h-113zM8 0l92 525h141l-92 -525h-141z" />
    <glyph glyph-name="igrave" unicode="&#xec;" horiz-adv-x="246" 
d="M8 0l92 525h141l-92 -525h-141zM129 583l-75 152h137l45 -152h-107z" />
    <glyph glyph-name="icircumflex" unicode="&#xee;" horiz-adv-x="246" 
d="M8 0l92 525h141l-92 -525h-141zM27 583l122 151h115l69 -151h-100l-38 65l-62 -65h-106z" />
    <glyph glyph-name="idieresis" unicode="&#xef;" horiz-adv-x="246" 
d="M210 601l20 116h115l-21 -116h-114zM40 601l21 116h114l-20 -116h-115zM8 0l92 525h141l-92 -525h-141z" />
    <glyph glyph-name="ntilde" unicode="&#xf1;" horiz-adv-x="550" 
d="M5 0l93 525h135l-10 -58h5c53 42 110 68 173 68c93 0 125 -54 125 -125c0 -15 -2 -32 -4 -48l-64 -362h-140l59 337c3 12 4 24 4 34c0 34 -16 51 -56 51c-35 0 -71 -10 -112 -34l-68 -388h-140zM172 596c16 92 69 129 119 129c47 0 82 -33 109 -33c18 0 29 11 35 33h86
c-16 -92 -68 -129 -119 -129c-47 0 -82 33 -108 33c-18 0 -30 -12 -35 -33h-87z" />
    <glyph glyph-name="oacute" unicode="&#xf3;" horiz-adv-x="540" 
d="M257 583l85 152h146l-118 -152h-113zM232 -10c-143 0 -214 87 -214 207c0 176 102 338 291 338c143 0 216 -87 216 -207c0 -185 -103 -338 -293 -338zM243 91c71 0 113 57 132 165c6 31 9 59 9 78c0 73 -35 100 -83 100c-71 0 -114 -59 -133 -165c-6 -28 -8 -53 -8 -78
c0 -72 35 -100 83 -100z" />
    <glyph glyph-name="ograve" unicode="&#xf2;" horiz-adv-x="540" 
d="M232 -10c-143 0 -214 87 -214 207c0 176 102 338 291 338c143 0 216 -87 216 -207c0 -185 -103 -338 -293 -338zM243 91c71 0 113 57 132 165c6 31 9 59 9 78c0 73 -35 100 -83 100c-71 0 -114 -59 -133 -165c-6 -28 -8 -53 -8 -78c0 -72 35 -100 83 -100zM272 583
l-75 152h137l45 -152h-107z" />
    <glyph glyph-name="ocircumflex" unicode="&#xf4;" horiz-adv-x="540" 
d="M166 583l130 151h115l77 -151h-100l-47 66l-69 -66h-106zM232 -10c-143 0 -214 87 -214 207c0 176 102 338 291 338c143 0 216 -87 216 -207c0 -185 -103 -338 -293 -338zM243 91c71 0 113 57 132 165c6 31 9 59 9 78c0 73 -35 100 -83 100c-71 0 -114 -59 -133 -165
c-6 -28 -8 -53 -8 -78c0 -72 35 -100 83 -100z" />
    <glyph glyph-name="odieresis" unicode="&#xf6;" horiz-adv-x="540" 
d="M363 601l20 116h122l-21 -116h-121zM171 601l21 116h121l-20 -116h-122zM232 -10c-143 0 -214 87 -214 207c0 176 102 338 291 338c143 0 216 -87 216 -207c0 -185 -103 -338 -293 -338zM243 91c71 0 113 57 132 165c6 31 9 59 9 78c0 73 -35 100 -83 100
c-71 0 -114 -59 -133 -165c-6 -28 -8 -53 -8 -78c0 -72 35 -100 83 -100z" />
    <glyph glyph-name="otilde" unicode="&#xf5;" horiz-adv-x="540" 
d="M232 -10c-143 0 -214 87 -214 207c0 176 102 338 291 338c143 0 216 -87 216 -207c0 -185 -103 -338 -293 -338zM243 91c71 0 113 57 132 165c6 31 9 59 9 78c0 73 -35 100 -83 100c-71 0 -114 -59 -133 -165c-6 -28 -8 -53 -8 -78c0 -72 35 -100 83 -100zM166 596
c16 92 69 129 119 129c47 0 82 -33 109 -33c18 0 29 11 35 33h86c-16 -92 -68 -129 -119 -129c-47 0 -82 33 -108 33c-18 0 -30 -12 -35 -33h-87z" />
    <glyph glyph-name="uacute" unicode="&#xfa;" horiz-adv-x="547" 
d="M263 583l85 152h146l-118 -152h-113zM156 -10c-82 0 -128 45 -128 128c0 15 1 31 4 50l63 357h140l-60 -340c-3 -14 -4 -25 -4 -36c0 -33 14 -49 53 -49c38 0 71 10 112 34l68 391h141l-93 -525h-118l-4 58h-5c-51 -43 -101 -68 -169 -68z" />
    <glyph glyph-name="ugrave" unicode="&#xf9;" horiz-adv-x="547" 
d="M156 -10c-82 0 -128 45 -128 128c0 15 1 31 4 50l63 357h140l-60 -340c-3 -14 -4 -25 -4 -36c0 -33 14 -49 53 -49c38 0 71 10 112 34l68 391h141l-93 -525h-118l-4 58h-5c-51 -43 -101 -68 -169 -68zM275 583l-75 152h137l45 -152h-107z" />
    <glyph glyph-name="ucircumflex" unicode="&#xfb;" horiz-adv-x="547" 
d="M166 583l130 151h115l77 -151h-100l-47 66l-69 -66h-106zM156 -10c-82 0 -128 45 -128 128c0 15 1 31 4 50l63 357h140l-60 -340c-3 -14 -4 -25 -4 -36c0 -33 14 -49 53 -49c38 0 71 10 112 34l68 391h141l-93 -525h-118l-4 58h-5c-51 -43 -101 -68 -169 -68z" />
    <glyph glyph-name="udieresis" unicode="&#xfc;" horiz-adv-x="547" 
d="M365 601l20 116h122l-21 -116h-121zM173 601l21 116h121l-20 -116h-122zM156 -10c-82 0 -128 45 -128 128c0 15 1 31 4 50l63 357h140l-60 -340c-3 -14 -4 -25 -4 -36c0 -33 14 -49 53 -49c38 0 71 10 112 34l68 391h141l-93 -525h-118l-4 58h-5
c-51 -43 -101 -68 -169 -68z" />
    <glyph glyph-name="dagger" unicode="&#x2020;" horiz-adv-x="486" 
d="M120 -69l83 468h-151l20 113h151l32 181h132l-32 -181h150l-20 -113h-150l-83 -468h-132z" />
    <glyph glyph-name="degree" unicode="&#xb0;" horiz-adv-x="369" 
d="M225 405c-89 0 -143 64 -143 136c0 89 72 162 168 162c89 0 142 -62 142 -135c0 -88 -71 -163 -167 -163zM230 477c49 0 74 40 74 88c0 36 -20 66 -59 66c-48 0 -75 -40 -75 -87c0 -37 20 -67 60 -67z" />
    <glyph glyph-name="cent" unicode="&#xa2;" horiz-adv-x="447" 
d="M134 -119l37 116c-99 22 -151 95 -151 206c0 73 22 152 62 211c53 76 134 121 247 121h15l20 61h78l-24 -73c20 -5 36 -12 47 -19l-17 -99c-16 7 -36 15 -62 19l-106 -328c53 1 102 18 130 31l-18 -99c-34 -22 -81 -37 -146 -38l-35 -109h-77zM158 212
c0 -54 16 -87 49 -103l102 317c-68 -8 -119 -47 -141 -137c-6 -25 -10 -52 -10 -77z" />
    <glyph glyph-name="sterling" unicode="&#xa3;" horiz-adv-x="516" 
d="M39 293l18 99h70l15 80c28 161 134 233 274 233c63 0 105 -12 131 -30l-19 -106c-30 11 -55 17 -95 17c-71 0 -123 -30 -140 -127l-12 -67h157l-18 -99h-157l-3 -21c-16 -89 -47 -125 -95 -156v-2h299l-21 -114h-454l19 104c53 26 80 65 94 143l8 46h-71z" />
    <glyph glyph-name="section" unicode="&#xa7;" horiz-adv-x="501" 
d="M419 57c0 -121 -86 -189 -232 -189c-83 0 -139 20 -185 46l17 100c38 -20 96 -40 160 -40c67 0 98 23 98 66c0 30 -13 47 -57 66l-64 26c-73 27 -130 60 -130 149c0 75 44 119 114 141c-25 27 -35 61 -35 105c0 109 89 178 221 178c85 0 132 -18 172 -39l-18 -100
c-33 18 -86 34 -152 34c-48 0 -86 -18 -86 -63c0 -30 12 -49 57 -67l63 -27c76 -28 131 -65 131 -143s-43 -124 -112 -146c26 -25 38 -55 38 -97zM295 339c0 0 -64 31 -70 34c-40 -12 -65 -33 -65 -72c0 -33 22 -51 59 -65c0 0 63 -31 69 -34c44 12 67 34 67 73
c0 32 -21 49 -60 64z" />
    <glyph glyph-name="bullet" unicode="&#x2022;" horiz-adv-x="361" 
d="M182 176c-78 0 -135 61 -135 129c0 93 72 159 155 159c77 0 135 -57 135 -130c0 -86 -71 -158 -155 -158z" />
    <glyph glyph-name="paragraph" unicode="&#xb6;" horiz-adv-x="579" 
d="M202 -120l79 449h-32c-109 0 -176 62 -176 161c0 118 77 203 256 203h263l-143 -813h-85l129 734h-76l-130 -734h-85z" />
    <glyph glyph-name="germandbls" unicode="&#xdf;" horiz-adv-x="599" 
d="M-29 -195l128 730c26 147 136 214 284 214c130 0 194 -56 194 -137c0 -133 -171 -177 -171 -237c0 -21 13 -32 40 -51l36 -25c55 -37 83 -77 83 -138c0 -107 -86 -170 -201 -170c-72 0 -117 12 -151 31l18 98c35 -16 63 -28 114 -28c52 0 82 19 82 57c0 21 -13 36 -43 55
l-33 23c-50 32 -78 65 -78 117c0 120 162 168 162 248c0 33 -25 55 -72 55c-66 0 -111 -36 -126 -123l-126 -719h-140z" />
    <glyph glyph-name="registered" unicode="&#xae;" horiz-adv-x="443" 
d="M265 308c-113 0 -200 90 -200 199c0 111 87 199 200 199s201 -88 201 -199c0 -109 -88 -199 -201 -199zM265 343c95 0 159 72 159 164c0 91 -64 165 -159 165c-94 0 -157 -74 -157 -165c0 -92 63 -164 157 -164zM191 414v191h85c48 0 77 -20 77 -60
c0 -25 -14 -41 -31 -48v-3l41 -80h-61l-34 68h-19v-68h-58zM249 521h20c18 0 24 7 24 21c0 15 -7 21 -24 21h-20v-42z" />
    <glyph glyph-name="copyright" unicode="&#xa9;" horiz-adv-x="786" 
d="M408 -14c-204 0 -356 161 -356 358s152 356 356 356s359 -159 359 -356s-155 -358 -359 -358zM408 39c171 0 295 128 295 305s-124 303 -295 303c-172 0 -293 -126 -293 -303s121 -305 293 -305zM421 143c-115 0 -189 63 -189 195v10c0 141 87 196 193 196
c50 0 81 -9 103 -20v-84c-24 9 -49 15 -85 15c-56 0 -90 -28 -90 -98v-18c0 -73 26 -108 94 -108c39 0 64 10 84 19v-83c-26 -12 -59 -24 -110 -24z" />
    <glyph glyph-name="trademark" unicode="&#x2122;" horiz-adv-x="695" 
d="M340 396l52 297h112l26 -188h3l92 188h125l-53 -297h-88l34 194h-3l-94 -194h-73l-26 194h-3l-34 -194h-70zM123 396l39 222h-81l13 75h256l-13 -75h-83l-39 -222h-92z" />
    <glyph glyph-name="acute" unicode="&#xb4;" 
d="M252 583l85 152h146l-118 -152h-113z" />
    <glyph glyph-name="dieresis" unicode="&#xa8;" 
d="M344 601l20 116h122l-21 -116h-121zM152 601l21 116h121l-20 -116h-122z" />
    <glyph glyph-name="AE" unicode="&#xc6;" horiz-adv-x="905" 
d="M-47 0l477 693h507l-20 -114h-279l-29 -168h213l-20 -112h-213l-32 -185h285l-20 -114h-434l29 167h-201l-113 -167h-150zM285 273h151l53 301h-4z" />
    <glyph glyph-name="Oslash" unicode="&#xd8;" horiz-adv-x="688" 
d="M312 -11c-76 0 -139 22 -186 62l-48 -51h-107l105 111c-25 42 -38 93 -38 152c0 238 137 441 370 441c71 0 132 -21 178 -57l43 46h107l-98 -102c29 -44 45 -99 45 -161c0 -240 -137 -441 -371 -441zM323 101c99 0 172 87 197 232c7 40 11 76 11 111c0 11 -1 21 -2 31
l-312 -328c22 -31 58 -46 106 -46zM190 249c0 -6 0 -12 1 -18l306 323c-22 24 -55 38 -99 38c-96 0 -169 -76 -197 -232c-8 -44 -11 -77 -11 -111z" />
    <glyph glyph-name="yen" unicode="&#xa5;" horiz-adv-x="572" 
d="M166 0l21 119h-145l17 98h145l10 56h-146l18 98h114l-126 322h154l90 -267h3l183 267h148l-237 -322h116l-18 -98h-148l-10 -56h149l-17 -98h-150l-21 -119h-150z" />
    <glyph glyph-name="ordfeminine" unicode="&#xaa;" horiz-adv-x="491" 
d="M197 217c-87 0 -149 54 -149 158c0 206 134 328 299 328c75 0 146 -15 170 -24l-79 -453h-108l-3 50h-4c-31 -34 -73 -59 -126 -59zM247 310c30 0 60 13 80 31l46 264c-13 6 -23 9 -43 9c-71 0 -118 -53 -139 -150c-6 -25 -9 -50 -9 -80c0 -58 26 -74 65 -74z" />
    <glyph glyph-name="ordmasculine" unicode="&#xba;" horiz-adv-x="493" 
d="M250 217c-132 0 -198 80 -198 188c0 155 91 298 263 298c135 0 199 -77 199 -185c0 -165 -93 -301 -264 -301zM257 309c64 0 100 49 117 145c4 29 7 53 7 70c0 66 -29 87 -72 87c-64 0 -99 -47 -116 -141c-4 -22 -8 -51 -8 -70c0 -67 30 -91 72 -91z" />
    <glyph glyph-name="ae" unicode="&#xe6;" horiz-adv-x="791" 
d="M152 -10c-92 0 -152 49 -152 135c0 100 64 159 199 174l118 14l5 22c13 67 -18 90 -97 90c-50 0 -98 -8 -134 -16l17 94c50 19 103 31 165 31c75 0 129 -22 152 -69c38 43 91 69 163 69c150 0 211 -99 182 -261l-8 -47h-319v-12c0 -87 32 -119 122 -119
c62 0 122 18 165 36l-17 -96c-40 -22 -97 -45 -183 -45c-92 0 -157 29 -194 82c-46 -48 -106 -82 -184 -82zM301 198c0 10 0 19 1 29l-81 -5c-56 -4 -81 -26 -81 -80c0 -40 22 -58 58 -58c40 0 75 17 111 48c-5 20 -8 42 -8 66zM458 320c-1 -3 -2 -5 -2 -7h184
c16 85 -6 123 -68 123c-59 0 -94 -42 -114 -116z" />
    <glyph glyph-name="oslash" unicode="&#xf8;" horiz-adv-x="540" 
d="M232 -10c-61 0 -108 16 -143 43l-32 -33h-96l84 85c-18 32 -27 70 -27 112c0 176 102 338 291 338c58 0 105 -15 140 -41l30 31h96l-80 -81c20 -33 30 -73 30 -116c0 -185 -103 -338 -293 -338zM243 88c78 0 123 56 142 165c6 32 9 62 9 82v6l-222 -225
c17 -19 42 -28 71 -28zM158 272c-6 -29 -9 -56 -9 -82l219 223c-16 17 -40 24 -67 24c-77 0 -124 -58 -143 -165z" />
    <glyph glyph-name="questiondown" unicode="&#xbf;" horiz-adv-x="420" 
d="M173 -132c-117 0 -188 59 -188 160c0 80 30 130 125 193c61 42 90 58 97 100l5 31h124l-7 -44c-12 -68 -39 -97 -118 -148c-63 -41 -76 -71 -76 -111c0 -43 28 -68 94 -68c57 0 86 9 126 22l-18 -104c-50 -19 -92 -31 -164 -31zM218 441l23 132h142l-24 -132h-141z" />
    <glyph glyph-name="exclamdown" unicode="&#xa1;" horiz-adv-x="290" 
d="M0 -120l105 472h118l-65 -472h-158zM108 441l24 132h139l-24 -132h-139z" />
    <glyph glyph-name="florin" unicode="&#x192;" horiz-adv-x="428" 
d="M49 335l19 105h78l20 109c21 130 103 181 207 181c54 0 85 -8 103 -19l-16 -95c-17 6 -28 8 -54 8c-50 0 -81 -23 -92 -91l-17 -93h115l-19 -105h-115l-60 -344c-21 -127 -90 -174 -192 -174c-50 0 -86 11 -99 20l16 93c11 -3 24 -7 50 -7c36 0 66 21 76 77l59 335h-79z
" />
    <glyph glyph-name="guillemotleft" unicode="&#xab;" 
d="M302 54l-65 179l7 39l128 179h122l-133 -204l59 -193h-118zM97 54l-64 179l6 39l128 179h123l-134 -204l59 -193h-118z" />
    <glyph glyph-name="guillemotright" unicode="&#xbb;" 
d="M205 54l133 204l-59 193h118l65 -179l-7 -39l-128 -179h-122zM0 54l134 204l-59 193h118l64 -179l-6 -39l-128 -179h-123z" />
    <glyph glyph-name="ellipsis" unicode="&#x2026;" horiz-adv-x="751" 
d="M507 0l24 134h142l-24 -134h-142zM12 0l24 134h142l-24 -134h-142zM260 0l23 134h142l-24 -134h-141z" />
    <glyph glyph-name="uni00A0" unicode="&#xa0;" horiz-adv-x="177" 
 />
    <glyph glyph-name="Agrave" unicode="&#xc0;" horiz-adv-x="639" 
d="M-42 0l373 693h164l96 -693h-155l-18 160h-234l-82 -160h-144zM372 532l-137 -266h171l-31 266h-3zM362 734l-68 135h137l39 -135h-108z" />
    <glyph glyph-name="Atilde" unicode="&#xc3;" horiz-adv-x="639" 
d="M-42 0l373 693h164l96 -693h-155l-18 160h-234l-82 -160h-144zM372 532l-137 -266h171l-31 266h-3zM248 737c16 88 67 123 118 123c47 0 82 -30 109 -30c17 0 29 10 35 30h86c-16 -88 -67 -123 -118 -123c-47 0 -82 30 -109 30c-18 0 -29 -10 -35 -30h-86z" />
    <glyph glyph-name="Otilde" unicode="&#xd5;" horiz-adv-x="688" 
d="M252 737c16 88 67 123 118 123c47 0 82 -30 109 -30c17 0 29 10 35 30h86c-16 -88 -67 -123 -118 -123c-47 0 -82 30 -109 30c-18 0 -29 -10 -35 -30h-86zM312 -11c-166 0 -274 98 -274 274c0 238 137 441 370 441c166 0 275 -98 275 -274c0 -240 -137 -441 -371 -441z
M324 103c95 0 163 89 188 231c6 40 10 74 10 109c0 90 -37 147 -126 147c-91 0 -160 -78 -187 -231c-8 -44 -10 -76 -10 -109c0 -96 41 -147 125 -147z" />
    <glyph glyph-name="OE" unicode="&#x152;" horiz-adv-x="919" 
d="M334 0c-196 0 -297 90 -297 259c0 256 117 434 378 434h536l-20 -114h-280l-30 -168h214l-20 -112h-213l-32 -185h286l-20 -114h-502zM349 113h70l82 467h-92c-124 0 -177 -74 -202 -218c-7 -41 -10 -78 -10 -107c0 -99 47 -142 152 -142z" />
    <glyph glyph-name="oe" unicode="&#x153;" horiz-adv-x="866" 
d="M232 -10c-143 0 -214 89 -214 209c0 174 100 335 288 335c87 0 140 -35 167 -92c43 58 106 92 188 92c151 0 212 -100 183 -261l-9 -48h-320v-11c0 -85 34 -119 124 -119c61 0 122 18 164 36l-17 -96c-40 -22 -95 -45 -177 -45c-92 0 -152 34 -182 95
c-44 -59 -109 -95 -195 -95zM243 90c71 0 113 58 133 166c5 31 8 59 8 78c0 73 -35 101 -83 101c-71 0 -113 -56 -132 -162c-5 -24 -9 -57 -9 -78c0 -75 35 -105 83 -105zM531 320l-3 -8h186c16 85 -7 124 -69 124c-59 0 -95 -43 -114 -116z" />
    <glyph glyph-name="endash" unicode="&#x2013;" horiz-adv-x="428" 
d="M27 234l20 106h367l-19 -106h-368z" />
    <glyph glyph-name="emdash" unicode="&#x2014;" horiz-adv-x="737" 
d="M27 234l20 106h676l-19 -106h-677z" />
    <glyph glyph-name="quotedblleft" unicode="&#x201c;" horiz-adv-x="411" 
d="M263 488l69 205h111l-44 -205h-136zM74 488l69 205h112l-44 -205h-137z" />
    <glyph glyph-name="quotedblright" unicode="&#x201d;" horiz-adv-x="411" 
d="M274 488l44 205h137l-69 -205h-112zM86 488l44 205h136l-69 -205h-111z" />
    <glyph glyph-name="quoteleft" unicode="&#x2018;" horiz-adv-x="222" 
d="M74 488l69 205h112l-44 -205h-137z" />
    <glyph glyph-name="quoteright" unicode="&#x2019;" horiz-adv-x="222" 
d="M86 488l44 205h136l-69 -205h-111z" />
    <glyph glyph-name="divide" unicode="&#xf7;" horiz-adv-x="520" 
d="M43 282l20 112h444l-20 -112h-444zM162 96l23 132h140l-23 -132h-140zM224 448l24 132h139l-23 -132h-140z" />
    <glyph glyph-name="ydieresis" unicode="&#xff;" horiz-adv-x="514" 
d="M32 -199c-41 0 -72 10 -89 20l17 93c16 -4 35 -8 57 -8c45 0 73 19 98 66l24 43l-87 510h143l44 -344h4l174 344h139l-309 -569c-57 -106 -110 -155 -215 -155zM352 601l20 116h122l-21 -116h-121zM160 601l21 116h121l-20 -116h-122z" />
    <glyph glyph-name="Ydieresis" unicode="&#x178;" horiz-adv-x="575" 
d="M168 0l48 274l-136 419h152l86 -295h3l180 295h147l-279 -422l-48 -271h-153zM412 737l20 113h121l-19 -113h-122zM216 737l20 113h121l-19 -113h-122z" />
    <glyph glyph-name="fraction" unicode="&#x2044;" horiz-adv-x="250" 
d="M-232 -40l606 753h103l-606 -753h-103z" />
    <glyph glyph-name="Euro" unicode="&#x20ac;" horiz-adv-x="578" 
d="M42 375l15 87h63c15 44 34 82 58 115c66 88 159 128 276 128c77 0 122 -15 155 -34l-19 -108c-38 15 -70 25 -124 25c-68 0 -126 -14 -164 -84c-7 -13 -14 -27 -20 -42h191l-15 -87h-201c-4 -20 -7 -40 -10 -60h200l-16 -87h-188c4 -88 46 -124 142 -124
c61 0 107 14 148 31l-19 -109c-47 -25 -102 -38 -171 -38c-145 0 -251 70 -256 240h-71l15 87h59c2 20 4 40 8 60h-56z" />
    <glyph glyph-name="guilsinglleft" unicode="&#x2039;" horiz-adv-x="291" 
d="M97 54l-64 179l6 39l128 179h123l-134 -204l59 -193h-118z" />
    <glyph glyph-name="guilsinglright" unicode="&#x203a;" horiz-adv-x="291" 
d="M0 54l134 204l-59 193h118l64 -179l-6 -39l-128 -179h-123z" />
    <glyph glyph-name="daggerdbl" unicode="&#x2021;" horiz-adv-x="486" 
d="M1 112l20 113h151l31 174h-151l20 113h151l31 181h132l-31 -181h150l-20 -113h-150l-31 -174h151l-21 -113h-150l-32 -181h-132l32 181h-151z" />
    <glyph glyph-name="periodcentered" unicode="&#xb7;" horiz-adv-x="257" 
d="M57 252l23 134h143l-24 -134h-142z" />
    <glyph glyph-name="quotesinglbase" unicode="&#x201a;" horiz-adv-x="222" 
d="M-13 -68l46 205h136l-71 -205h-111z" />
    <glyph glyph-name="quotedblbase" unicode="&#x201e;" horiz-adv-x="410" 
d="M176 -68l45 205h137l-71 -205h-111zM-13 -68l46 205h136l-71 -205h-111z" />
    <glyph glyph-name="perthousand" unicode="&#x2030;" horiz-adv-x="1240" 
d="M212 -40h-106l563 753h106zM219 391c34 0 61 28 73 104c5 29 8 56 8 76c0 33 -14 54 -42 54c-34 0 -61 -28 -73 -104c-5 -28 -7 -54 -7 -73c0 -39 13 -57 41 -57zM212 311c-91 0 -148 52 -148 146c0 131 72 248 201 248c90 0 148 -51 148 -143c0 -132 -74 -251 -201 -251
zM640 71c34 0 61 28 74 104c4 29 7 56 7 75c0 34 -13 55 -41 55c-35 0 -62 -28 -73 -104c-5 -28 -7 -54 -7 -73c0 -39 12 -57 40 -57zM634 -9c-92 0 -148 52 -148 146c0 131 73 248 201 248c89 0 147 -51 147 -144c0 -130 -72 -250 -200 -250zM1014 71c34 0 61 28 74 104
c4 29 7 56 7 75c0 34 -13 55 -41 55c-35 0 -62 -28 -73 -104c-5 -28 -7 -54 -7 -73c0 -39 12 -57 40 -57zM1008 -9c-92 0 -148 52 -148 146c0 131 73 248 201 248c89 0 147 -51 147 -144c0 -130 -72 -250 -200 -250z" />
    <glyph glyph-name="Acircumflex" unicode="&#xc2;" horiz-adv-x="639" 
d="M-42 0l373 693h164l96 -693h-155l-18 160h-234l-82 -160h-144zM372 532l-137 -266h171l-31 266h-3zM255 734l125 130h112l79 -130h-99l-46 51l-66 -51h-105z" />
    <glyph glyph-name="Ecircumflex" unicode="&#xca;" horiz-adv-x="540" 
d="M208 734l125 130h112l79 -130h-99l-46 51l-66 -51h-105zM14 0l122 693h435l-19 -114h-284l-30 -168h217l-20 -112h-216l-32 -185h290l-21 -114h-442z" />
    <glyph glyph-name="Aacute" unicode="&#xc1;" horiz-adv-x="639" 
d="M-42 0l373 693h164l96 -693h-155l-18 160h-234l-82 -160h-144zM372 532l-137 -266h171l-31 266h-3zM348 734l74 134h147l-107 -134h-114z" />
    <glyph glyph-name="Edieresis" unicode="&#xcb;" horiz-adv-x="540" 
d="M14 0l122 693h435l-19 -114h-284l-30 -168h217l-20 -112h-216l-32 -185h290l-21 -114h-442zM405 737l20 113h121l-19 -113h-122zM209 737l20 113h121l-19 -113h-122z" />
    <glyph glyph-name="Egrave" unicode="&#xc8;" horiz-adv-x="540" 
d="M318 734l-68 135h137l39 -135h-108zM14 0l122 693h435l-19 -114h-284l-30 -168h217l-20 -112h-216l-32 -185h290l-21 -114h-442z" />
    <glyph glyph-name="Iacute" unicode="&#xcd;" horiz-adv-x="278" 
d="M17 0l123 693h153l-123 -693h-153zM156 734l74 134h147l-107 -134h-114z" />
    <glyph glyph-name="Icircumflex" unicode="&#xce;" horiz-adv-x="278" 
d="M17 0l123 693h153l-123 -693h-153zM64 734l125 130h112l79 -130h-99l-46 51l-66 -51h-105z" />
    <glyph glyph-name="Idieresis" unicode="&#xcf;" horiz-adv-x="278" 
d="M17 0l123 693h153l-123 -693h-153zM261 737l20 113h121l-19 -113h-122zM65 737l20 113h121l-19 -113h-122z" />
    <glyph glyph-name="Igrave" unicode="&#xcc;" horiz-adv-x="278" 
d="M17 0l123 693h153l-123 -693h-153zM175 734l-68 135h137l39 -135h-108z" />
    <glyph glyph-name="Oacute" unicode="&#xd3;" horiz-adv-x="688" 
d="M354 734l74 134h147l-107 -134h-114zM312 -11c-166 0 -274 98 -274 274c0 238 137 441 370 441c166 0 275 -98 275 -274c0 -240 -137 -441 -371 -441zM324 103c95 0 163 89 188 231c6 40 10 74 10 109c0 90 -37 147 -126 147c-91 0 -160 -78 -187 -231
c-8 -44 -10 -76 -10 -109c0 -96 41 -147 125 -147z" />
    <glyph glyph-name="Ocircumflex" unicode="&#xd4;" horiz-adv-x="688" 
d="M261 734l125 130h112l79 -130h-99l-46 51l-66 -51h-105zM312 -11c-166 0 -274 98 -274 274c0 238 137 441 370 441c166 0 275 -98 275 -274c0 -240 -137 -441 -371 -441zM324 103c95 0 163 89 188 231c6 40 10 74 10 109c0 90 -37 147 -126 147c-91 0 -160 -78 -187 -231
c-8 -44 -10 -76 -10 -109c0 -96 41 -147 125 -147z" />
    <glyph glyph-name="Ograve" unicode="&#xd2;" horiz-adv-x="688" 
d="M372 734l-68 135h137l39 -135h-108zM312 -11c-166 0 -274 98 -274 274c0 238 137 441 370 441c166 0 275 -98 275 -274c0 -240 -137 -441 -371 -441zM324 103c95 0 163 89 188 231c6 40 10 74 10 109c0 90 -37 147 -126 147c-91 0 -160 -78 -187 -231
c-8 -44 -10 -76 -10 -109c0 -96 41 -147 125 -147z" />
    <glyph glyph-name="Uacute" unicode="&#xda;" horiz-adv-x="651" 
d="M352 734l74 134h147l-107 -134h-114zM303 -12c-155 0 -254 57 -254 204c0 22 2 46 7 72l75 429h153l-77 -440c-3 -18 -5 -35 -5 -52c0 -75 43 -99 115 -99c83 0 122 39 141 145l79 446h137l-80 -458c-27 -152 -103 -247 -291 -247z" />
    <glyph glyph-name="Ucircumflex" unicode="&#xdb;" horiz-adv-x="651" 
d="M252 734l125 130h112l79 -130h-99l-46 51l-66 -51h-105zM303 -12c-155 0 -254 57 -254 204c0 22 2 46 7 72l75 429h153l-77 -440c-3 -18 -5 -35 -5 -52c0 -75 43 -99 115 -99c83 0 122 39 141 145l79 446h137l-80 -458c-27 -152 -103 -247 -291 -247z" />
    <glyph glyph-name="Ugrave" unicode="&#xd9;" horiz-adv-x="651" 
d="M358 734l-68 135h137l39 -135h-108zM303 -12c-155 0 -254 57 -254 204c0 22 2 46 7 72l75 429h153l-77 -440c-3 -18 -5 -35 -5 -52c0 -75 43 -99 115 -99c83 0 122 39 141 145l79 446h137l-80 -458c-27 -152 -103 -247 -291 -247z" />
    <glyph glyph-name="dotlessi" unicode="&#x131;" horiz-adv-x="246" 
d="M8 0l92 525h141l-92 -525h-141z" />
    <glyph glyph-name="circumflex" unicode="&#x2c6;" 
d="M142 583l130 151h115l77 -151h-100l-47 66l-69 -66h-106z" />
    <glyph glyph-name="tilde" unicode="&#x2dc;" 
d="M145 596c16 92 69 129 119 129c47 0 82 -33 109 -33c18 0 29 11 35 33h86c-16 -92 -68 -129 -119 -129c-47 0 -82 33 -108 33c-18 0 -30 -12 -35 -33h-87z" />
    <glyph glyph-name="macron" unicode="&#xaf;" 
d="M177 605l17 97h266l-17 -97h-266z" />
    <glyph glyph-name="breve" unicode="&#x2d8;" 
d="M317 589c-89 0 -140 56 -135 137h94c0 -30 14 -49 47 -49s53 19 62 49h94c-13 -82 -73 -137 -162 -137z" />
    <glyph glyph-name="dotaccent" unicode="&#x2d9;" 
d="M237 601l20 117h142l-20 -117h-142z" />
    <glyph glyph-name="ring" unicode="&#x2da;" 
d="M318 576c-65 0 -106 44 -106 97c0 61 49 109 114 109s107 -44 107 -97c0 -62 -49 -109 -115 -109zM320 632c28 0 46 21 46 50c0 27 -14 44 -41 44c-28 0 -47 -21 -47 -50c0 -27 15 -44 42 -44z" />
    <glyph glyph-name="cedilla" unicode="&#xb8;" 
d="M107 -222l11 62c75 6 104 14 104 39c0 18 -19 26 -69 27l16 94h71l-7 -44c59 -3 90 -29 90 -68c0 -68 -61 -102 -216 -110z" />
    <glyph glyph-name="hungarumlaut" unicode="&#x2dd;" 
d="M153 583l65 152h132l-87 -152h-110zM337 583l64 152h132l-87 -152h-109z" />
    <glyph glyph-name="ogonek" unicode="&#x2db;" 
d="M216 -200c-73 0 -105 37 -105 82c0 60 53 95 106 118h90c-30 -20 -79 -53 -79 -90c0 -19 15 -27 36 -27c12 0 24 2 31 3l-12 -73c-16 -7 -41 -13 -67 -13z" />
    <glyph glyph-name="caron" unicode="&#x2c7;" 
d="M245 583l-77 151h100l47 -66l70 66h105l-130 -151h-115z" />
    <glyph glyph-name="space_uni0326" horiz-adv-x="488" 
d="M89 -182l37 144h132l-69 -144h-100z" />
    <glyph glyph-name="caron.alt" horiz-adv-x="488" 
d="M347 575h-83l37 164h107z" />
    <glyph glyph-name="space_uni0326.alt" horiz-adv-x="488" 
d="M400 740l-37 -144h-133l73 144h97z" />
    <glyph glyph-name="acute.pl" 
d="M265 583l68 152h143l-101 -152h-110z" />
    <glyph glyph-name="grave.uc" 
d="M267 734l-68 135h137l39 -135h-108z" />
    <glyph glyph-name="dieresis.uc" 
d="M369 737l20 113h121l-19 -113h-122zM173 737l20 113h121l-19 -113h-122z" />
    <glyph glyph-name="macron.uc" 
d="M196 739l17 97h273l-18 -97h-272z" />
    <glyph glyph-name="acute.uc" 
d="M292 734l74 134h147l-107 -134h-114z" />
    <glyph glyph-name="circumflex.uc" 
d="M177 734l125 130h112l79 -130h-99l-46 51l-66 -51h-105z" />
    <glyph glyph-name="caron.uc" 
d="M507 864l-125 -130h-112l-79 130h99l46 -51l66 51h105z" />
    <glyph glyph-name="breve.uc" 
d="M338 731c-89 0 -142 55 -137 134h94c0 -31 14 -50 47 -50s52 19 62 50h94c-14 -80 -71 -134 -160 -134z" />
    <glyph glyph-name="dotaccent.uc" 
d="M260 737l20 114h143l-20 -114h-143z" />
    <glyph glyph-name="ring.uc" 
d="M336 721c-65 0 -106 45 -106 98c0 61 49 109 114 109s107 -44 107 -97c0 -62 -49 -110 -115 -110zM338 777c29 0 46 21 46 51c0 26 -14 44 -41 44c-28 0 -47 -21 -47 -51c0 -27 15 -44 42 -44z" />
    <glyph glyph-name="tilde.uc" 
d="M156 737c16 88 67 123 118 123c47 0 82 -30 109 -30c17 0 29 10 35 30h86c-16 -88 -67 -123 -118 -123c-47 0 -82 30 -109 30c-18 0 -29 -10 -35 -30h-86z" />
    <glyph glyph-name="hungarumlaut.uc" 
d="M192 734l58 135h132l-80 -135h-110zM376 734l57 135h132l-80 -135h-109z" />
    <glyph glyph-name="acute.ucpl" 
d="M299 734l61 135h143l-94 -135h-110z" />
    <glyph glyph-name="Dcroat" unicode="&#x110;" horiz-adv-x="658" 
d="M8 292l20 110h59l51 291h218c196 0 297 -90 297 -259c0 -256 -117 -434 -378 -434h-259l51 292h-59zM187 113h93c124 0 178 74 203 218c7 41 10 78 10 107c0 99 -47 142 -152 142h-72l-31 -178h145l-20 -110h-144z" />
    <glyph glyph-name="Eng" unicode="&#x14a;" horiz-adv-x="665" 
d="M341 -177c-57 0 -90 12 -118 26l17 93c21 -7 47 -14 83 -14c50 0 85 20 99 60l-186 502h-3l-86 -490h-133l122 693h171l162 -446h3l78 446h133l-121 -685c-19 -109 -81 -185 -221 -185z" />
    <glyph glyph-name="IJ" unicode="&#x132;" horiz-adv-x="673" 
d="M17 0l123 693h153l-123 -693h-153zM388 -7c-63 0 -111 13 -141 33l18 104c23 -9 50 -16 90 -16c68 0 92 38 104 104l83 475h154l-85 -483c-24 -140 -82 -217 -223 -217z" />
    <glyph glyph-name="uni0237" unicode="&#x237;" horiz-adv-x="247" 
d="M-48 -198c-37 0 -77 9 -95 21l16 89c13 -4 29 -7 49 -7c53 0 74 20 83 73l96 547h141l-98 -559c-18 -105 -75 -164 -192 -164z" />
    <glyph glyph-name="dcroat" unicode="&#x111;" horiz-adv-x="549" 
d="M281 589l13 73h135l14 77h140l-14 -77h62l-13 -73h-62l-103 -589h-115l-4 56h-5c-37 -37 -92 -66 -157 -66c-92 0 -155 61 -155 173c0 214 112 372 280 372c59 0 87 -15 105 -26l14 80h-135zM231 93c43 0 78 19 105 37l49 282c-19 12 -44 21 -72 21
c-88 0 -128 -64 -148 -186c-4 -22 -6 -48 -6 -67c0 -63 24 -87 72 -87z" />
    <glyph glyph-name="eng" unicode="&#x14b;" horiz-adv-x="550" 
d="M5 0l93 525h135l-10 -58h5c53 42 110 68 176 68c91 0 122 -54 122 -125c0 -15 -2 -32 -4 -48l-70 -396c-19 -105 -74 -164 -186 -164c-40 0 -79 9 -98 21l16 88c13 -5 28 -8 49 -8c50 0 71 22 81 75l63 359c3 12 4 24 4 34c0 34 -16 51 -56 51c-35 0 -71 -10 -112 -34
l-68 -388h-140z" />
    <glyph glyph-name="ij" unicode="&#x133;" horiz-adv-x="491" 
d="M8 0l92 525h140l-92 -525h-140zM113 601l20 117h142l-20 -117h-142zM195 -198c-36 0 -76 9 -94 21l16 89c12 -4 29 -7 49 -7c52 0 73 20 83 73l96 547h140l-98 -559c-18 -105 -74 -164 -192 -164zM358 601l20 117h141l-20 -117h-141z" />
    <glyph glyph-name="Abreve" unicode="&#x102;" horiz-adv-x="639" 
d="M-42 0l373 693h164l96 -693h-155l-18 160h-234l-82 -160h-144zM372 532l-137 -266h171l-31 266h-3zM417 731c-89 0 -142 55 -137 134h94c0 -31 14 -50 47 -50s52 19 62 50h94c-14 -80 -71 -134 -160 -134z" />
    <glyph glyph-name="Amacron" unicode="&#x100;" horiz-adv-x="639" 
d="M-42 0l373 693h164l96 -693h-155l-18 160h-234l-82 -160h-144zM372 532l-137 -266h171l-31 266h-3zM280 739l17 97h273l-18 -97h-272z" />
    <glyph glyph-name="Aogonek" unicode="&#x104;" horiz-adv-x="639" 
d="M492 -199c-73 0 -105 36 -105 81c0 53 48 93 94 118h-45l-18 160h-234l-83 -160h-143l373 693h163l97 -689c-42 -21 -86 -57 -86 -93c0 -20 14 -28 36 -28c11 0 24 2 31 3l-13 -73c-16 -7 -41 -12 -67 -12zM372 532l-137 -266h171l-31 266h-3z" />
    <glyph glyph-name="Aringacute" unicode="&#x1fa;" horiz-adv-x="639" 
d="M-42 0l373 693h164l96 -693h-155l-18 160h-234l-82 -160h-144zM372 532l-137 -266h171l-31 266h-3zM383 948l74 134h147l-107 -134h-114zM419 721c-65 0 -106 45 -106 98c0 61 49 109 114 109s107 -44 107 -97c0 -62 -49 -110 -115 -110zM421 777c29 0 46 21 46 51
c0 26 -14 44 -41 44c-28 0 -47 -21 -47 -51c0 -27 15 -44 42 -44z" />
    <glyph glyph-name="AEacute" unicode="&#x1fc;" horiz-adv-x="905" 
d="M607 734l74 134h147l-107 -134h-114zM-47 0l477 693h507l-20 -114h-279l-29 -168h213l-20 -112h-213l-32 -185h285l-20 -114h-434l29 167h-201l-113 -167h-150zM285 273h151l53 301h-4z" />
    <glyph glyph-name="Cacute" unicode="&#x106;" horiz-adv-x="560" 
d="M311 -11c-173 0 -273 94 -273 276c0 109 31 212 82 286c69 104 165 154 308 154c85 0 132 -16 168 -40l-20 -112c-32 17 -75 33 -143 33c-96 0 -158 -39 -195 -129c-25 -56 -39 -117 -39 -190c0 -123 60 -160 147 -160c73 0 132 21 168 39l-20 -115
c-38 -24 -105 -42 -183 -42zM342 734l74 134h147l-107 -134h-114z" />
    <glyph glyph-name="Ccaron" unicode="&#x10c;" horiz-adv-x="560" 
d="M588 864l-125 -130h-112l-79 130h99l46 -51l66 51h105zM311 -11c-173 0 -273 94 -273 276c0 109 31 212 82 286c69 104 165 154 308 154c85 0 132 -16 168 -40l-20 -112c-32 17 -75 33 -143 33c-96 0 -158 -39 -195 -129c-25 -56 -39 -117 -39 -190
c0 -123 60 -160 147 -160c73 0 132 21 168 39l-20 -115c-38 -24 -105 -42 -183 -42z" />
    <glyph glyph-name="Ccircumflex" unicode="&#x108;" horiz-adv-x="560" 
d="M248 734l125 130h112l79 -130h-99l-46 51l-66 -51h-105zM311 -11c-173 0 -273 94 -273 276c0 109 31 212 82 286c69 104 165 154 308 154c85 0 132 -16 168 -40l-20 -112c-32 17 -75 33 -143 33c-96 0 -158 -39 -195 -129c-25 -56 -39 -117 -39 -190
c0 -123 60 -160 147 -160c73 0 132 21 168 39l-20 -115c-38 -24 -105 -42 -183 -42z" />
    <glyph glyph-name="Cdotaccent" unicode="&#x10a;" horiz-adv-x="560" 
d="M311 -11c-173 0 -273 94 -273 276c0 109 31 212 82 286c69 104 165 154 308 154c85 0 132 -16 168 -40l-20 -112c-32 17 -75 33 -143 33c-96 0 -158 -39 -195 -129c-25 -56 -39 -117 -39 -190c0 -123 60 -160 147 -160c73 0 132 21 168 39l-20 -115
c-38 -24 -105 -42 -183 -42zM338 737l20 114h143l-20 -114h-143z" />
    <glyph glyph-name="Cacute.pl" horiz-adv-x="560" 
d="M311 -11c-173 0 -273 94 -273 276c0 109 31 212 82 286c69 104 165 154 308 154c85 0 132 -16 168 -40l-20 -112c-32 17 -75 33 -143 33c-96 0 -158 -39 -195 -129c-25 -56 -39 -117 -39 -190c0 -123 60 -160 147 -160c73 0 132 21 168 39l-20 -115
c-38 -24 -105 -42 -183 -42zM355 734l61 135h143l-94 -135h-110z" />
    <glyph glyph-name="Dcaron" unicode="&#x10e;" horiz-adv-x="656" 
d="M566 864l-125 -130h-112l-79 130h99l46 -51l66 51h105zM14 0l122 693h218c196 0 297 -90 297 -259c0 -256 -117 -434 -378 -434h-259zM187 113h92c124 0 177 74 202 218c7 41 10 78 10 107c0 99 -47 142 -152 142h-70z" />
    <glyph glyph-name="Ebreve" unicode="&#x114;" horiz-adv-x="540" 
d="M14 0l122 693h435l-19 -114h-284l-30 -168h217l-20 -112h-216l-32 -185h290l-21 -114h-442zM367 731c-89 0 -142 55 -137 134h94c0 -31 14 -50 47 -50s52 19 62 50h94c-14 -80 -71 -134 -160 -134z" />
    <glyph glyph-name="Ecaron" unicode="&#x11a;" horiz-adv-x="540" 
d="M546 864l-125 -130h-112l-79 130h99l46 -51l66 51h105zM14 0l122 693h435l-19 -114h-284l-30 -168h217l-20 -112h-216l-32 -185h290l-21 -114h-442z" />
    <glyph glyph-name="Edotaccent" unicode="&#x116;" horiz-adv-x="540" 
d="M296 737l20 114h143l-20 -114h-143zM14 0l122 693h435l-19 -114h-284l-30 -168h217l-20 -112h-216l-32 -185h290l-21 -114h-442z" />
    <glyph glyph-name="Emacron" unicode="&#x112;" horiz-adv-x="540" 
d="M14 0l122 693h435l-19 -114h-284l-30 -168h217l-20 -112h-216l-32 -185h290l-21 -114h-442zM230 739l17 97h273l-18 -97h-272z" />
    <glyph glyph-name="Eogonek" unicode="&#x118;" horiz-adv-x="540" 
d="M14 0l122 693h435l-19 -114h-284l-30 -168h217l-20 -112h-216l-32 -185h290l-21 -114h-46c-30 -20 -78 -53 -78 -90c0 -19 14 -27 35 -27c12 0 24 2 31 3l-12 -73c-16 -7 -41 -13 -67 -13c-73 0 -105 37 -105 82c0 55 47 94 95 118h-295z" />
    <glyph glyph-name="Gbreve" unicode="&#x11e;" horiz-adv-x="647" 
d="M431 731c-89 0 -142 55 -137 134h94c0 -31 14 -50 47 -50s52 19 62 50h94c-14 -80 -71 -134 -160 -134zM337 -11c-185 0 -296 88 -296 274c0 112 35 216 80 282c76 116 187 160 325 160c96 0 153 -20 190 -45l-20 -116c-36 20 -96 41 -169 41c-116 0 -189 -55 -227 -183
c-15 -51 -21 -96 -21 -148c0 -95 45 -153 145 -153c33 0 62 4 86 13l26 141h-103l18 106h249l-59 -334c-58 -21 -136 -38 -224 -38z" />
    <glyph glyph-name="Gcircumflex" unicode="&#x11c;" horiz-adv-x="647" 
d="M269 734l125 130h112l79 -130h-99l-46 51l-66 -51h-105zM337 -11c-185 0 -296 88 -296 274c0 112 35 216 80 282c76 116 187 160 325 160c96 0 153 -20 190 -45l-20 -116c-36 20 -96 41 -169 41c-116 0 -189 -55 -227 -183c-15 -51 -21 -96 -21 -148
c0 -95 45 -153 145 -153c33 0 62 4 86 13l26 141h-103l18 106h249l-59 -334c-58 -21 -136 -38 -224 -38z" />
    <glyph glyph-name="Gcommaaccent" unicode="&#x122;" horiz-adv-x="647" 
d="M198 -182l37 144h132l-69 -144h-100zM337 -11c-185 0 -296 88 -296 274c0 112 35 216 80 282c76 116 187 160 325 160c96 0 153 -20 190 -45l-20 -116c-36 20 -96 41 -169 41c-116 0 -189 -55 -227 -183c-15 -51 -21 -96 -21 -148c0 -95 45 -153 145 -153
c33 0 62 4 86 13l26 141h-103l18 106h249l-59 -334c-58 -21 -136 -38 -224 -38z" />
    <glyph glyph-name="Gdotaccent" unicode="&#x120;" horiz-adv-x="647" 
d="M357 737l20 114h143l-20 -114h-143zM337 -11c-185 0 -296 88 -296 274c0 112 35 216 80 282c76 116 187 160 325 160c96 0 153 -20 190 -45l-20 -116c-36 20 -96 41 -169 41c-116 0 -189 -55 -227 -183c-15 -51 -21 -96 -21 -148c0 -95 45 -153 145 -153c33 0 62 4 86 13
l26 141h-103l18 106h249l-59 -334c-58 -21 -136 -38 -224 -38z" />
    <glyph glyph-name="Hbar" unicode="&#x126;" horiz-adv-x="695" 
d="M53 503l14 78h52l20 112h153l-20 -112h264l20 112h153l-20 -112h52l-14 -78h-52l-88 -503h-153l52 299h-263l-53 -299h-153l88 503h-52zM243 411h264l16 92h-264z" />
    <glyph glyph-name="Hcircumflex" unicode="&#x124;" horiz-adv-x="677" 
d="M14 0l123 693h153l-50 -279h252l49 279h154l-123 -693h-154l54 299h-251l-54 -299h-153zM263 734l125 130h112l79 -130h-99l-46 51l-66 -51h-105z" />
    <glyph glyph-name="Idotaccent" unicode="&#x130;" horiz-adv-x="278" 
d="M17 0l123 693h153l-123 -693h-153zM153 737l20 114h143l-20 -114h-143z" />
    <glyph glyph-name="Ibreve" unicode="&#x12c;" horiz-adv-x="278" 
d="M17 0l123 693h153l-123 -693h-153zM228 731c-89 0 -142 55 -137 134h94c0 -31 14 -50 47 -50s52 19 62 50h94c-14 -80 -71 -134 -160 -134z" />
    <glyph glyph-name="Imacron" unicode="&#x12a;" horiz-adv-x="278" 
d="M17 0l123 693h153l-123 -693h-153zM103 739l17 97h242l-17 -97h-242z" />
    <glyph glyph-name="Iogonek" unicode="&#x12e;" horiz-adv-x="278" 
d="M73 -199c-73 0 -105 36 -105 81c0 55 46 93 96 118h-47l123 693h153l-123 -691c-37 -20 -85 -55 -85 -93c0 -18 15 -26 36 -26c12 0 24 2 31 3l-12 -73c-16 -7 -41 -12 -67 -12z" />
    <glyph glyph-name="Itilde" unicode="&#x128;" horiz-adv-x="278" 
d="M17 0l123 693h153l-123 -693h-153zM62 737c16 88 67 123 118 123c47 0 82 -30 109 -30c17 0 29 10 35 30h86c-16 -88 -67 -123 -118 -123c-47 0 -82 30 -109 30c-18 0 -29 -10 -35 -30h-86z" />
    <glyph glyph-name="Jcircumflex" unicode="&#x134;" horiz-adv-x="406" 
d="M195 734l125 130h112l79 -130h-99l-46 51l-66 -51h-105zM119 -7c-65 0 -113 13 -143 33l18 104c23 -8 51 -16 92 -16c70 0 94 38 105 104l84 475h153l-85 -483c-24 -140 -81 -217 -224 -217z" />
    <glyph glyph-name="Kcommaaccent" unicode="&#x136;" horiz-adv-x="618" 
d="M170 -182l37 144h132l-69 -144h-100zM404 0l-173 353l289 340h165l-296 -341l178 -352h-163zM14 0l122 693h154l-122 -693h-154z" />
    <glyph glyph-name="Lacute" unicode="&#x139;" 
d="M150 734l74 134h147l-107 -134h-114zM14 0l122 693h154l-102 -579h269l-21 -114h-422z" />
    <glyph glyph-name="Lcaron" unicode="&#x13d;" horiz-adv-x="499" 
d="M14 0l122 693h153l-102 -579h269l-20 -114h-422zM345 509l43 184h117l-66 -184h-94z" />
    <glyph glyph-name="Lcommaaccent" unicode="&#x13b;" 
d="M117 -182l37 144h132l-69 -144h-100zM14 0l122 693h154l-102 -579h269l-21 -114h-422z" />
    <glyph glyph-name="Ldot" unicode="&#x13f;" 
d="M14 0l122 693h154l-102 -579h269l-21 -114h-422zM346 304l21 126h134l-22 -126h-133z" />
    <glyph glyph-name="Nacute" unicode="&#x143;" horiz-adv-x="665" 
d="M358 734l74 134h147l-107 -134h-114zM14 0l122 693h171l159 -459h3l81 459h133l-122 -693h-154l-171 490h-3l-86 -490h-133z" />
    <glyph glyph-name="Ncaron" unicode="&#x147;" horiz-adv-x="665" 
d="M607 864l-125 -130h-112l-79 130h99l46 -51l66 51h105zM14 0l122 693h171l159 -459h3l81 459h133l-122 -693h-154l-171 490h-3l-86 -490h-133z" />
    <glyph glyph-name="Ncommaaccent" unicode="&#x145;" horiz-adv-x="665" 
d="M180 -182l37 144h132l-69 -144h-100zM14 0l122 693h171l159 -459h3l81 459h133l-122 -693h-154l-171 490h-3l-86 -490h-133z" />
    <glyph glyph-name="Nacute.pl" horiz-adv-x="665" 
d="M371 734l61 135h143l-94 -135h-110zM14 0l122 693h171l159 -459h3l81 459h133l-122 -693h-154l-171 490h-3l-86 -490h-133z" />
    <glyph glyph-name="Obreve" unicode="&#x14e;" horiz-adv-x="688" 
d="M427 731c-89 0 -142 55 -137 134h94c0 -31 14 -50 47 -50s52 19 62 50h94c-14 -80 -71 -134 -160 -134zM312 -11c-166 0 -274 98 -274 274c0 238 137 441 370 441c166 0 275 -98 275 -274c0 -240 -137 -441 -371 -441zM324 103c95 0 163 89 188 231c6 40 10 74 10 109
c0 90 -37 147 -126 147c-91 0 -160 -78 -187 -231c-8 -44 -10 -76 -10 -109c0 -96 41 -147 125 -147z" />
    <glyph glyph-name="Ohungarumlaut" unicode="&#x150;" horiz-adv-x="688" 
d="M271 734l58 135h132l-80 -135h-110zM455 734l57 135h132l-80 -135h-109zM312 -11c-166 0 -274 98 -274 274c0 238 137 441 370 441c166 0 275 -98 275 -274c0 -240 -137 -441 -371 -441zM324 103c95 0 163 89 188 231c6 40 10 74 10 109c0 90 -37 147 -126 147
c-91 0 -160 -78 -187 -231c-8 -44 -10 -76 -10 -109c0 -96 41 -147 125 -147z" />
    <glyph glyph-name="Omacron" unicode="&#x14c;" horiz-adv-x="688" 
d="M286 739l17 97h273l-18 -97h-272zM312 -11c-166 0 -274 98 -274 274c0 238 137 441 370 441c166 0 275 -98 275 -274c0 -240 -137 -441 -371 -441zM324 103c95 0 163 89 188 231c6 40 10 74 10 109c0 90 -37 147 -126 147c-91 0 -160 -78 -187 -231
c-8 -44 -10 -76 -10 -109c0 -96 41 -147 125 -147z" />
    <glyph glyph-name="Oacute.pl" horiz-adv-x="688" 
d="M367 734l61 135h143l-94 -135h-110zM312 -11c-166 0 -274 98 -274 274c0 238 137 441 370 441c166 0 275 -98 275 -274c0 -240 -137 -441 -371 -441zM324 103c95 0 163 89 188 231c6 40 10 74 10 109c0 90 -37 147 -126 147c-91 0 -160 -78 -187 -231
c-8 -44 -10 -76 -10 -109c0 -96 41 -147 125 -147z" />
    <glyph glyph-name="Oslashacute" unicode="&#x1fe;" horiz-adv-x="688" 
d="M312 -11c-76 0 -139 22 -186 62l-48 -51h-107l105 111c-25 42 -38 93 -38 152c0 238 137 441 370 441c71 0 132 -21 178 -57l43 46h107l-98 -102c29 -44 45 -99 45 -161c0 -240 -137 -441 -371 -441zM323 101c99 0 172 87 197 232c7 40 11 76 11 111c0 11 -1 21 -2 31
l-312 -328c22 -31 58 -46 106 -46zM190 249c0 -6 0 -12 1 -18l306 323c-22 24 -55 38 -99 38c-96 0 -169 -76 -197 -232c-8 -44 -11 -77 -11 -111zM354 734l74 134h147l-107 -134h-114z" />
    <glyph glyph-name="Racute" unicode="&#x154;" horiz-adv-x="605" 
d="M299 734l74 134h147l-107 -134h-114zM14 0l123 693h239c138 0 216 -68 216 -180c0 -104 -55 -179 -156 -208v-4l116 -301h-158l-98 269h-85l-44 -269h-153zM231 368h75c92 0 129 53 129 132c0 60 -37 83 -92 83h-74z" />
    <glyph glyph-name="Rcaron" unicode="&#x158;" horiz-adv-x="605" 
d="M549 864l-125 -130h-112l-79 130h99l46 -51l66 51h105zM14 0l123 693h239c138 0 216 -68 216 -180c0 -104 -55 -179 -156 -208v-4l116 -301h-158l-98 269h-85l-44 -269h-153zM231 368h75c92 0 129 53 129 132c0 60 -37 83 -92 83h-74z" />
    <glyph glyph-name="Rcommaaccent" unicode="&#x156;" horiz-adv-x="605" 
d="M162 -182l37 144h132l-69 -144h-100zM14 0l123 693h239c138 0 216 -68 216 -180c0 -104 -55 -179 -156 -208v-4l116 -301h-158l-98 269h-85l-44 -269h-153zM231 368h75c92 0 129 53 129 132c0 60 -37 83 -92 83h-74z" />
    <glyph glyph-name="Sacute" unicode="&#x15a;" horiz-adv-x="505" 
d="M195 -11c-97 0 -170 26 -212 54l21 111c53 -28 108 -50 186 -50c90 0 126 39 126 106c0 34 -15 54 -71 77l-55 23c-85 32 -121 86 -121 173c0 135 85 221 254 221c114 0 161 -26 197 -47l-22 -109c-42 19 -94 41 -178 41c-67 0 -104 -29 -104 -91c0 -35 14 -55 60 -74
l59 -23c96 -36 134 -89 134 -179c0 -132 -80 -233 -274 -233zM261 734l74 134h147l-107 -134h-114z" />
    <glyph glyph-name="Scedilla" unicode="&#x15e;" horiz-adv-x="505" 
d="M77 -222l11 62c75 6 104 14 104 39c0 18 -19 26 -69 27l14 86c-68 8 -121 29 -154 51l21 111c53 -28 108 -50 186 -50c90 0 126 39 126 106c0 34 -15 54 -71 77l-55 23c-85 32 -121 86 -121 173c0 135 85 221 254 221c114 0 161 -26 197 -47l-22 -109
c-42 19 -94 41 -178 41c-67 0 -104 -29 -104 -91c0 -35 14 -55 60 -74l59 -23c96 -36 134 -89 134 -179c0 -129 -77 -228 -261 -233l-5 -33c59 -3 90 -29 90 -68c0 -68 -61 -102 -216 -110z" />
    <glyph glyph-name="Scircumflex" unicode="&#x15c;" horiz-adv-x="505" 
d="M169 734l125 130h112l79 -130h-99l-46 51l-66 -51h-105zM195 -11c-97 0 -170 26 -212 54l21 111c53 -28 108 -50 186 -50c90 0 126 39 126 106c0 34 -15 54 -71 77l-55 23c-85 32 -121 86 -121 173c0 135 85 221 254 221c114 0 161 -26 197 -47l-22 -109
c-42 19 -94 41 -178 41c-67 0 -104 -29 -104 -91c0 -35 14 -55 60 -74l59 -23c96 -36 134 -89 134 -179c0 -132 -80 -233 -274 -233z" />
    <glyph glyph-name="Scommaaccent" unicode="&#x218;" horiz-adv-x="505" 
d="M89 -182l37 144h132l-69 -144h-100zM195 -11c-97 0 -170 26 -212 54l21 111c53 -28 108 -50 186 -50c90 0 126 39 126 106c0 34 -15 54 -71 77l-55 23c-85 32 -121 86 -121 173c0 135 85 221 254 221c114 0 161 -26 197 -47l-22 -109c-42 19 -94 41 -178 41
c-67 0 -104 -29 -104 -91c0 -35 14 -55 60 -74l59 -23c96 -36 134 -89 134 -179c0 -132 -80 -233 -274 -233z" />
    <glyph glyph-name="Sacute.pl" horiz-adv-x="505" 
d="M195 -11c-97 0 -170 26 -212 54l21 111c53 -28 108 -50 186 -50c90 0 126 39 126 106c0 34 -15 54 -71 77l-55 23c-85 32 -121 86 -121 173c0 135 85 221 254 221c114 0 161 -26 197 -47l-22 -109c-42 19 -94 41 -178 41c-67 0 -104 -29 -104 -91c0 -35 14 -55 60 -74
l59 -23c96 -36 134 -89 134 -179c0 -132 -80 -233 -274 -233zM269 734l61 135h143l-94 -135h-110z" />
    <glyph glyph-name="Tcaron" unicode="&#x164;" horiz-adv-x="546" 
d="M538 864l-125 -130h-112l-79 130h99l46 -51l66 51h105zM151 0l102 579h-183l20 114h520l-20 -114h-183l-103 -579h-153z" />
    <glyph glyph-name="Tcommaaccent" unicode="&#x162;" horiz-adv-x="546" 
d="M114 -182l37 144h132l-69 -144h-100zM151 0l102 579h-183l20 114h520l-20 -114h-183l-103 -579h-153z" />
    <glyph glyph-name="Tbar" unicode="&#x166;" horiz-adv-x="546" 
d="M85 331l16 84h123l29 164h-183l20 114h520l-20 -114h-183l-29 -164h131l-16 -84h-130l-59 -331h-153l58 331h-124z" />
    <glyph glyph-name="Ubreve" unicode="&#x16c;" horiz-adv-x="651" 
d="M303 -12c-155 0 -254 57 -254 204c0 22 2 46 7 72l75 429h153l-77 -440c-3 -18 -5 -35 -5 -52c0 -75 43 -99 115 -99c83 0 122 39 141 145l79 446h137l-80 -458c-27 -152 -103 -247 -291 -247zM415 731c-89 0 -142 55 -137 134h94c0 -31 14 -50 47 -50s52 19 62 50h94
c-14 -80 -71 -134 -160 -134z" />
    <glyph glyph-name="Uhungarumlaut" unicode="&#x170;" horiz-adv-x="651" 
d="M262 734l58 135h132l-80 -135h-110zM446 734l57 135h132l-80 -135h-109zM303 -12c-155 0 -254 57 -254 204c0 22 2 46 7 72l75 429h153l-77 -440c-3 -18 -5 -35 -5 -52c0 -75 43 -99 115 -99c83 0 122 39 141 145l79 446h137l-80 -458c-27 -152 -103 -247 -291 -247z" />
    <glyph glyph-name="Umacron" unicode="&#x16a;" horiz-adv-x="651" 
d="M303 -12c-155 0 -254 57 -254 204c0 22 2 46 7 72l75 429h153l-77 -440c-3 -18 -5 -35 -5 -52c0 -75 43 -99 115 -99c83 0 122 39 141 145l79 446h137l-80 -458c-27 -152 -103 -247 -291 -247zM277 739l17 97h273l-18 -97h-272z" />
    <glyph glyph-name="Uogonek" unicode="&#x172;" horiz-adv-x="651" 
d="M294 -200c-73 0 -105 37 -105 82c0 52 40 85 85 107c-139 7 -225 67 -225 203c0 22 2 46 7 72l75 429h153l-77 -440c-3 -18 -5 -35 -5 -52c0 -75 43 -99 115 -99c83 0 122 39 141 145l79 446h137l-80 -458c-19 -109 -62 -185 -155 -225c-59 -26 -133 -48 -133 -100
c0 -19 15 -27 36 -27c12 0 24 2 31 3l-12 -73c-16 -7 -41 -13 -67 -13z" />
    <glyph glyph-name="Uring" unicode="&#x16e;" horiz-adv-x="651" 
d="M303 -12c-155 0 -254 57 -254 204c0 22 2 46 7 72l75 429h153l-77 -440c-3 -18 -5 -35 -5 -52c0 -75 43 -99 115 -99c83 0 122 39 141 145l79 446h137l-80 -458c-27 -152 -103 -247 -291 -247zM417 704c-65 0 -106 45 -106 98c0 61 49 109 114 109s107 -44 107 -97
c0 -62 -49 -110 -115 -110zM419 760c29 0 46 21 46 51c0 26 -14 44 -41 44c-28 0 -47 -21 -47 -51c0 -27 15 -44 42 -44z" />
    <glyph glyph-name="Utilde" unicode="&#x168;" horiz-adv-x="651" 
d="M303 -12c-155 0 -254 57 -254 204c0 22 2 46 7 72l75 429h153l-77 -440c-3 -18 -5 -35 -5 -52c0 -75 43 -99 115 -99c83 0 122 39 141 145l79 446h137l-80 -458c-27 -152 -103 -247 -291 -247zM250 737c16 88 67 123 118 123c47 0 82 -30 109 -30c17 0 29 10 35 30h86
c-16 -88 -67 -123 -118 -123c-47 0 -82 30 -109 30c-18 0 -29 -10 -35 -30h-86z" />
    <glyph glyph-name="Wacute" unicode="&#x1e82;" horiz-adv-x="893" 
d="M471 734l74 134h147l-107 -134h-114zM130 0l-42 693h149l19 -488h3l204 488h130l38 -488h3l185 488h140l-282 -693h-158l-32 476h-3l-199 -476h-155z" />
    <glyph glyph-name="Wcircumflex" unicode="&#x174;" horiz-adv-x="893" 
d="M375 734l125 130h112l79 -130h-99l-46 51l-66 -51h-105zM130 0l-42 693h149l19 -488h3l204 488h130l38 -488h3l185 488h140l-282 -693h-158l-32 476h-3l-199 -476h-155z" />
    <glyph glyph-name="Wdieresis" unicode="&#x1e84;" horiz-adv-x="893" 
d="M572 737l20 113h121l-19 -113h-122zM376 737l20 113h121l-19 -113h-122zM130 0l-42 693h149l19 -488h3l204 488h130l38 -488h3l185 488h140l-282 -693h-158l-32 476h-3l-199 -476h-155z" />
    <glyph glyph-name="Wgrave" unicode="&#x1e80;" horiz-adv-x="893" 
d="M483 734l-68 135h137l39 -135h-108zM130 0l-42 693h149l19 -488h3l204 488h130l38 -488h3l185 488h140l-282 -693h-158l-32 476h-3l-199 -476h-155z" />
    <glyph glyph-name="Ycircumflex" unicode="&#x176;" horiz-adv-x="575" 
d="M168 0l48 274l-136 419h152l86 -295h3l180 295h147l-279 -422l-48 -271h-153zM215 734l125 130h112l79 -130h-99l-46 51l-66 -51h-105z" />
    <glyph glyph-name="Ygrave" unicode="&#x1ef2;" horiz-adv-x="575" 
d="M168 0l48 274l-136 419h152l86 -295h3l180 295h147l-279 -422l-48 -271h-153zM326 734l-68 135h137l39 -135h-108z" />
    <glyph glyph-name="Zacute" unicode="&#x179;" horiz-adv-x="544" 
d="M299 734l74 134h147l-107 -134h-114zM-18 0l19 107l388 469v3h-286l19 114h471l-19 -107l-390 -469v-3h305l-20 -114h-487z" />
    <glyph glyph-name="Zdotaccent" unicode="&#x17b;" horiz-adv-x="544" 
d="M-18 0l19 107l388 469v3h-286l19 114h471l-19 -107l-390 -469v-3h305l-20 -114h-487zM295 737l20 114h143l-20 -114h-143z" />
    <glyph glyph-name="Zacute.pl" horiz-adv-x="544" 
d="M-18 0l19 107l388 469v3h-286l19 114h471l-19 -107l-390 -469v-3h305l-20 -114h-487zM299 734l61 135h143l-94 -135h-110z" />
    <glyph glyph-name="abreve" unicode="&#x103;" horiz-adv-x="536" 
d="M178 -10c-99 0 -160 64 -160 178c0 229 146 367 332 367c81 0 153 -17 180 -27l-89 -508h-114l-3 55h-5c-33 -36 -81 -65 -141 -65zM233 93c35 0 68 16 91 36l53 294c-15 6 -27 9 -46 9c-80 0 -138 -60 -160 -166c-6 -28 -11 -56 -11 -88c0 -63 29 -85 73 -85zM358 589
c-89 0 -140 56 -135 137h94c0 -30 14 -49 47 -49s53 19 62 49h94c-13 -82 -73 -137 -162 -137z" />
    <glyph glyph-name="amacron" unicode="&#x101;" horiz-adv-x="536" 
d="M178 -10c-99 0 -160 64 -160 178c0 229 146 367 332 367c81 0 153 -17 180 -27l-89 -508h-114l-3 55h-5c-33 -36 -81 -65 -141 -65zM233 93c35 0 68 16 91 36l53 294c-15 6 -27 9 -46 9c-80 0 -138 -60 -160 -166c-6 -28 -11 -56 -11 -88c0 -63 29 -85 73 -85zM225 605
l17 97h266l-17 -97h-266z" />
    <glyph glyph-name="aogonek" unicode="&#x105;" horiz-adv-x="536" 
d="M348 -199c-73 0 -105 36 -105 81c0 53 45 95 107 118h-23l-3 55h-5c-33 -36 -81 -65 -141 -65c-99 0 -160 63 -160 178c0 229 146 366 332 366c81 0 153 -16 181 -26l-90 -506c-32 -22 -80 -55 -80 -93c0 -18 14 -26 35 -26c13 0 25 2 32 3l-13 -73
c-16 -7 -41 -12 -67 -12zM233 93c35 0 68 16 91 36l53 293c-15 7 -27 10 -46 10c-80 0 -138 -60 -160 -166c-7 -28 -11 -56 -11 -88c0 -63 29 -85 73 -85z" />
    <glyph glyph-name="aringacute" unicode="&#x1fb;" horiz-adv-x="536" 
d="M178 -10c-99 0 -160 64 -160 178c0 229 146 367 332 367c81 0 153 -17 180 -27l-89 -508h-114l-3 55h-5c-33 -36 -81 -65 -141 -65zM233 93c35 0 68 16 91 36l53 294c-15 6 -27 9 -46 9c-80 0 -138 -60 -160 -166c-6 -28 -11 -56 -11 -88c0 -63 29 -85 73 -85zM359 576
c-65 0 -106 44 -106 97c0 61 49 109 114 109s107 -44 107 -97c0 -62 -49 -109 -115 -109zM361 632c28 0 46 21 46 50c0 27 -14 44 -41 44c-28 0 -47 -21 -47 -50c0 -27 15 -44 42 -44zM324 818l74 134h147l-107 -134h-114z" />
    <glyph glyph-name="aeacute" unicode="&#x1fd;" horiz-adv-x="791" 
d="M152 -10c-92 0 -152 49 -152 135c0 100 64 159 199 174l118 14l5 22c13 67 -18 90 -97 90c-50 0 -98 -8 -134 -16l17 94c50 19 103 31 165 31c75 0 129 -22 152 -69c38 43 91 69 163 69c150 0 211 -99 182 -261l-8 -47h-319v-12c0 -87 32 -119 122 -119
c62 0 122 18 165 36l-17 -96c-40 -22 -97 -45 -183 -45c-92 0 -157 29 -194 82c-46 -48 -106 -82 -184 -82zM406 583l85 152h146l-118 -152h-113zM301 198c0 10 0 19 1 29l-81 -5c-56 -4 -81 -26 -81 -80c0 -40 22 -58 58 -58c40 0 75 17 111 48c-5 20 -8 42 -8 66zM458 320
c-1 -3 -2 -5 -2 -7h184c16 85 -6 123 -68 123c-59 0 -94 -42 -114 -116z" />
    <glyph glyph-name="cacute" unicode="&#x107;" horiz-adv-x="435" 
d="M243 583l85 152h146l-118 -152h-113zM234 -10c-143 0 -216 79 -216 208c0 78 23 157 62 215c52 77 132 122 245 122c60 0 104 -15 129 -31l-19 -102c-25 12 -53 23 -102 23c-65 0 -112 -21 -140 -80c-23 -38 -35 -83 -35 -133c0 -79 38 -113 113 -113c56 0 99 18 127 31
l-18 -102c-34 -22 -78 -38 -146 -38z" />
    <glyph glyph-name="ccaron" unicode="&#x10d;" horiz-adv-x="435" 
d="M244 583l-77 151h100l47 -66l70 66h105l-130 -151h-115zM234 -10c-143 0 -216 79 -216 208c0 78 23 157 62 215c52 77 132 122 245 122c60 0 104 -15 129 -31l-19 -102c-25 12 -53 23 -102 23c-65 0 -112 -21 -140 -80c-23 -38 -35 -83 -35 -133c0 -79 38 -113 113 -113
c56 0 99 18 127 31l-18 -102c-34 -22 -78 -38 -146 -38z" />
    <glyph glyph-name="ccircumflex" unicode="&#x109;" horiz-adv-x="435" 
d="M139 583l130 151h115l77 -151h-100l-47 66l-69 -66h-106zM234 -10c-143 0 -216 79 -216 208c0 78 23 157 62 215c52 77 132 122 245 122c60 0 104 -15 129 -31l-19 -102c-25 12 -53 23 -102 23c-65 0 -112 -21 -140 -80c-23 -38 -35 -83 -35 -133c0 -79 38 -113 113 -113
c56 0 99 18 127 31l-18 -102c-34 -22 -78 -38 -146 -38z" />
    <glyph glyph-name="cdotaccent" unicode="&#x10b;" horiz-adv-x="435" 
d="M234 -10c-143 0 -216 79 -216 208c0 78 23 157 62 215c52 77 132 122 245 122c60 0 104 -15 129 -31l-19 -102c-25 12 -53 23 -102 23c-65 0 -112 -21 -140 -80c-23 -38 -35 -83 -35 -133c0 -79 38 -113 113 -113c56 0 99 18 127 31l-18 -102c-34 -22 -78 -38 -146 -38z
M233 601l20 117h142l-20 -117h-142z" />
    <glyph glyph-name="cacute.pl" horiz-adv-x="435" 
d="M234 -10c-143 0 -216 79 -216 208c0 78 23 157 62 215c52 77 132 122 245 122c60 0 104 -15 129 -31l-19 -102c-25 12 -53 23 -102 23c-65 0 -112 -21 -140 -80c-23 -38 -35 -83 -35 -133c0 -79 38 -113 113 -113c56 0 99 18 127 31l-18 -102c-34 -22 -78 -38 -146 -38z
M242 583l68 152h143l-101 -152h-110z" />
    <glyph glyph-name="dcaron" unicode="&#x10f;" horiz-adv-x="548" 
d="M678 575h-83l37 164h107zM172 -10c-92 0 -155 61 -155 173c0 214 112 372 280 372c59 0 87 -15 105 -26l41 230h140l-130 -739h-115l-4 56h-5c-37 -37 -92 -66 -157 -66zM231 93c43 0 78 19 105 37l49 282c-19 12 -44 21 -72 21c-88 0 -128 -64 -148 -186
c-4 -22 -6 -48 -6 -67c0 -63 24 -87 72 -87z" />
    <glyph glyph-name="ebreve" unicode="&#x115;" horiz-adv-x="509" 
d="M246 -10c-152 0 -228 77 -228 209c0 88 24 168 64 224c48 69 121 111 218 111c156 0 216 -99 187 -261l-8 -48h-320v-11c0 -85 33 -119 123 -119c62 0 122 18 165 36l-17 -96c-41 -22 -98 -45 -184 -45zM313 589c-89 0 -140 56 -135 137h94c0 -30 14 -49 47 -49
s53 19 62 49h94c-13 -82 -73 -137 -162 -137zM175 320l-3 -8h185c16 85 -7 124 -69 124c-58 0 -94 -43 -113 -116z" />
    <glyph glyph-name="ecaron" unicode="&#x11b;" horiz-adv-x="509" 
d="M246 -10c-152 0 -228 77 -228 209c0 88 24 168 64 224c48 69 121 111 218 111c156 0 216 -99 187 -261l-8 -48h-320v-11c0 -85 33 -119 123 -119c62 0 122 18 165 36l-17 -96c-41 -22 -98 -45 -184 -45zM246 583l-77 151h100l47 -66l70 66h105l-130 -151h-115zM175 320
l-3 -8h185c16 85 -7 124 -69 124c-58 0 -94 -43 -113 -116z" />
    <glyph glyph-name="edotaccent" unicode="&#x117;" horiz-adv-x="509" 
d="M246 -10c-152 0 -228 77 -228 209c0 88 24 168 64 224c48 69 121 111 218 111c156 0 216 -99 187 -261l-8 -48h-320v-11c0 -85 33 -119 123 -119c62 0 122 18 165 36l-17 -96c-41 -22 -98 -45 -184 -45zM175 320l-3 -8h185c16 85 -7 124 -69 124c-58 0 -94 -43 -113 -116
zM238 601l20 117h142l-20 -117h-142z" />
    <glyph glyph-name="emacron" unicode="&#x113;" horiz-adv-x="509" 
d="M246 -10c-152 0 -228 77 -228 209c0 88 24 168 64 224c48 69 121 111 218 111c156 0 216 -99 187 -261l-8 -48h-320v-11c0 -85 33 -119 123 -119c62 0 122 18 165 36l-17 -96c-41 -22 -98 -45 -184 -45zM175 605l17 97h266l-17 -97h-266zM175 320l-3 -8h185
c16 85 -7 124 -69 124c-58 0 -94 -43 -113 -116z" />
    <glyph glyph-name="eogonek" unicode="&#x119;" horiz-adv-x="509" 
d="M447 131l-17 -96c-24 -13 -56 -25 -86 -42c-30 -18 -71 -47 -71 -84c0 -18 14 -26 36 -26c11 0 23 2 30 3l-12 -73c-16 -7 -41 -12 -67 -12c-73 0 -105 36 -105 81c0 53 40 86 86 108h-1c-148 2 -222 79 -222 209c0 88 24 168 64 224c48 69 121 111 218 111
c156 0 215 -99 187 -261l-8 -48h-320v-11c0 -85 33 -119 123 -119c62 0 122 18 165 36zM175 320l-3 -8h185c16 85 -7 124 -69 124c-58 0 -94 -43 -113 -116z" />
    <glyph glyph-name="gbreve" unicode="&#x11f;" horiz-adv-x="547" 
d="M175 -200c-81 0 -161 20 -196 43l17 100c35 -15 97 -37 164 -37c112 0 144 47 157 119l7 44h-5c-30 -30 -77 -56 -144 -56c-93 0 -155 64 -155 178c0 198 116 343 314 343c92 0 158 -18 206 -40l-85 -482c-25 -144 -110 -212 -280 -212zM234 113c41 0 78 19 105 37
l47 269c-16 8 -42 15 -66 15c-81 0 -130 -58 -150 -163c-4 -22 -7 -47 -7 -68c0 -63 24 -90 71 -90zM348 589c-89 0 -140 56 -135 137h94c0 -30 14 -49 47 -49s53 19 62 49h94c-13 -82 -73 -137 -162 -137z" />
    <glyph glyph-name="gcircumflex" unicode="&#x11d;" horiz-adv-x="547" 
d="M184 583l130 151h115l77 -151h-100l-47 66l-69 -66h-106zM175 -200c-81 0 -161 20 -196 43l17 100c35 -15 97 -37 164 -37c112 0 144 47 157 119l7 44h-5c-30 -30 -77 -56 -144 -56c-93 0 -155 64 -155 178c0 198 116 343 314 343c92 0 158 -18 206 -40l-85 -482
c-25 -144 -110 -212 -280 -212zM234 113c41 0 78 19 105 37l47 269c-16 8 -42 15 -66 15c-81 0 -130 -58 -150 -163c-4 -22 -7 -47 -7 -68c0 -63 24 -90 71 -90z" />
    <glyph glyph-name="gcommaaccent" unicode="&#x123;" horiz-adv-x="547" 
d="M455 740l-37 -144h-133l73 144h97zM175 -200c-81 0 -161 20 -196 43l17 100c35 -15 97 -37 164 -37c112 0 144 47 157 119l7 44h-5c-30 -30 -77 -56 -144 -56c-93 0 -155 64 -155 178c0 198 116 343 314 343c92 0 158 -18 206 -40l-85 -482c-25 -144 -110 -212 -280 -212
zM234 113c41 0 78 19 105 37l47 269c-16 8 -42 15 -66 15c-81 0 -130 -58 -150 -163c-4 -22 -7 -47 -7 -68c0 -63 24 -90 71 -90z" />
    <glyph glyph-name="gdotaccent" unicode="&#x121;" horiz-adv-x="547" 
d="M175 -200c-81 0 -161 20 -196 43l17 100c35 -15 97 -37 164 -37c112 0 144 47 157 119l7 44h-5c-30 -30 -77 -56 -144 -56c-93 0 -155 64 -155 178c0 198 116 343 314 343c92 0 158 -18 206 -40l-85 -482c-25 -144 -110 -212 -280 -212zM234 113c41 0 78 19 105 37
l47 269c-16 8 -42 15 -66 15c-81 0 -130 -58 -150 -163c-4 -22 -7 -47 -7 -68c0 -63 24 -90 71 -90zM277 601l20 117h142l-20 -117h-142z" />
    <glyph glyph-name="hbar" unicode="&#x127;" horiz-adv-x="550" 
d="M5 0l105 589h-60l13 73h60l14 77h140l-14 -77h137l-13 -73h-136l-20 -116h5c47 38 102 62 165 62c94 0 125 -54 125 -125c0 -15 -2 -32 -4 -48l-64 -362h-140l59 337c3 12 4 24 4 34c0 34 -16 51 -56 51c-35 0 -71 -10 -112 -34l-68 -388h-140z" />
    <glyph glyph-name="hcircumflex" unicode="&#x125;" horiz-adv-x="550" 
d="M5 0l132 739h140l-46 -266h5c47 38 102 62 165 62c94 0 125 -54 125 -125c0 -15 -2 -32 -4 -48l-64 -362h-140l59 337c3 12 4 24 4 34c0 34 -16 51 -56 51c-35 0 -71 -10 -112 -34l-68 -388h-140zM206 782l125 130h112l79 -130h-99l-46 51l-66 -51h-105z" />
    <glyph glyph-name="ibreve" unicode="&#x12d;" horiz-adv-x="246" 
d="M188 589c-88 0 -135 56 -132 137h93c-1 -30 14 -49 44 -49s48 18 54 49h92c-10 -82 -65 -137 -151 -137zM8 0l92 525h141l-92 -525h-141z" />
    <glyph glyph-name="imacron" unicode="&#x12b;" horiz-adv-x="246" 
d="M69 605l17 97h232l-17 -97h-232zM8 0l92 525h141l-92 -525h-141z" />
    <glyph glyph-name="iogonek" unicode="&#x12f;" horiz-adv-x="246" 
d="M-48 -118c0 55 47 93 94 118h-38l92 524h140l-91 -521c-34 -22 -80 -56 -80 -94c0 -18 14 -26 34 -26c11 0 23 2 30 3l-13 -73c-16 -7 -39 -12 -65 -12c-72 0 -103 36 -103 81zM113 601l20 117h142l-20 -117h-142z" />
    <glyph glyph-name="itilde" unicode="&#x129;" horiz-adv-x="246" 
d="M29 596c18 92 67 129 112 129c46 0 77 -33 99 -33c16 0 25 11 31 33h84c-17 -92 -65 -129 -111 -129s-78 33 -99 33c-16 0 -26 -12 -32 -33h-84zM8 0l92 525h141l-92 -525h-141z" />
    <glyph glyph-name="idotaccent" horiz-adv-x="246" 
d="M8 0l92 525h140l-92 -525h-140zM113 601l20 117h142l-20 -117h-142z" />
    <glyph glyph-name="jcircumflex" unicode="&#x135;" horiz-adv-x="245" 
d="M28 583l123 151h115l69 -151h-100l-39 65l-61 -65h-107zM-48 -198c-37 0 -77 9 -95 21l16 89c13 -4 29 -7 49 -7c53 0 74 20 83 73l96 547h141l-98 -559c-18 -105 -75 -164 -192 -164z" />
    <glyph glyph-name="kcommaaccent" unicode="&#x137;" horiz-adv-x="520" 
d="M322 0l-129 273l-48 -273h-140l130 739h140l-82 -465l208 250h149l-217 -253l137 -271h-148zM116 -182l37 144h132l-69 -144h-100z" />
    <glyph glyph-name="lacute" unicode="&#x13a;" horiz-adv-x="244" 
d="M152 782l74 134h147l-107 -134h-114zM7 0l130 739h140l-130 -739h-140z" />
    <glyph glyph-name="lcaron" unicode="&#x13e;" horiz-adv-x="244" 
d="M371 575h-83l37 164h107zM7 0l130 739h140l-130 -739h-140z" />
    <glyph glyph-name="lcommaaccent" unicode="&#x13c;" horiz-adv-x="244" 
d="M-31 -182l37 144h132l-69 -144h-100zM7 0l130 739h140l-130 -739h-140z" />
    <glyph glyph-name="ldot" unicode="&#x140;" horiz-adv-x="349" 
d="M7 0l130 739h140l-130 -739h-140zM242 299l20 114h120l-20 -114h-120z" />
    <glyph glyph-name="nacute" unicode="&#x144;" horiz-adv-x="550" 
d="M267 583l85 152h146l-118 -152h-113zM5 0l93 525h135l-10 -58h5c53 42 110 68 173 68c93 0 125 -54 125 -125c0 -15 -2 -32 -4 -48l-64 -362h-140l59 337c3 12 4 24 4 34c0 34 -16 51 -56 51c-35 0 -71 -10 -112 -34l-68 -388h-140z" />
    <glyph glyph-name="napostrophe" unicode="&#x149;" horiz-adv-x="611" 
d="M-3 488l44 205h136l-69 -205h-111zM65 0l93 525h135l-10 -58h5c53 42 110 68 173 68c93 0 125 -54 125 -125c0 -15 -2 -32 -4 -48l-64 -362h-140l59 337c3 12 4 24 4 34c0 34 -16 51 -56 51c-35 0 -71 -10 -112 -34l-68 -388h-140z" />
    <glyph glyph-name="ncaron" unicode="&#x148;" horiz-adv-x="550" 
d="M275 583l-77 151h100l47 -66l70 66h105l-130 -151h-115zM5 0l93 525h135l-10 -58h5c53 42 110 68 173 68c93 0 125 -54 125 -125c0 -15 -2 -32 -4 -48l-64 -362h-140l59 337c3 12 4 24 4 34c0 34 -16 51 -56 51c-35 0 -71 -10 -112 -34l-68 -388h-140z" />
    <glyph glyph-name="ncommaaccent" unicode="&#x146;" horiz-adv-x="550" 
d="M127 -182l37 144h132l-69 -144h-100zM5 0l93 525h135l-10 -58h5c53 42 110 68 173 68c93 0 125 -54 125 -125c0 -15 -2 -32 -4 -48l-64 -362h-140l59 337c3 12 4 24 4 34c0 34 -16 51 -56 51c-35 0 -71 -10 -112 -34l-68 -388h-140z" />
    <glyph glyph-name="nacute.pl" horiz-adv-x="550" 
d="M270 583l68 152h143l-101 -152h-110zM5 0l93 525h135l-10 -58h5c53 42 110 68 173 68c93 0 125 -54 125 -125c0 -15 -2 -32 -4 -48l-64 -362h-140l59 337c3 12 4 24 4 34c0 34 -16 51 -56 51c-35 0 -71 -10 -112 -34l-68 -388h-140z" />
    <glyph glyph-name="obreve" unicode="&#x14f;" horiz-adv-x="540" 
d="M232 -10c-143 0 -214 87 -214 207c0 176 102 338 291 338c143 0 216 -87 216 -207c0 -185 -103 -338 -293 -338zM243 91c71 0 113 57 132 165c6 31 9 59 9 78c0 73 -35 100 -83 100c-71 0 -114 -59 -133 -165c-6 -28 -8 -53 -8 -78c0 -72 35 -100 83 -100zM331 589
c-89 0 -140 56 -135 137h94c0 -30 14 -49 47 -49s53 19 62 49h94c-13 -82 -73 -137 -162 -137z" />
    <glyph glyph-name="ohungarumlaut" unicode="&#x151;" horiz-adv-x="540" 
d="M176 583l65 152h132l-87 -152h-110zM360 583l64 152h132l-87 -152h-109zM232 -10c-143 0 -214 87 -214 207c0 176 102 338 291 338c143 0 216 -87 216 -207c0 -185 -103 -338 -293 -338zM243 91c71 0 113 57 132 165c6 31 9 59 9 78c0 73 -35 100 -83 100
c-71 0 -114 -59 -133 -165c-6 -28 -8 -53 -8 -78c0 -72 35 -100 83 -100z" />
    <glyph glyph-name="omacron" unicode="&#x14d;" horiz-adv-x="540" 
d="M198 605l17 97h266l-17 -97h-266zM232 -10c-143 0 -214 87 -214 207c0 176 102 338 291 338c143 0 216 -87 216 -207c0 -185 -103 -338 -293 -338zM243 91c71 0 113 57 132 165c6 31 9 59 9 78c0 73 -35 100 -83 100c-71 0 -114 -59 -133 -165c-6 -28 -8 -53 -8 -78
c0 -72 35 -100 83 -100z" />
    <glyph glyph-name="oacute.pl" horiz-adv-x="540" 
d="M232 -10c-143 0 -214 87 -214 207c0 176 102 338 291 338c143 0 216 -87 216 -207c0 -185 -103 -338 -293 -338zM243 91c71 0 113 57 132 165c6 31 9 59 9 78c0 73 -35 100 -83 100c-71 0 -114 -59 -133 -165c-6 -28 -8 -53 -8 -78c0 -72 35 -100 83 -100zM262 583
l68 152h143l-101 -152h-110z" />
    <glyph glyph-name="oslashacute" unicode="&#x1ff;" horiz-adv-x="540" 
d="M232 -10c-61 0 -108 16 -143 43l-32 -33h-96l84 85c-18 32 -27 70 -27 112c0 176 102 338 291 338c58 0 105 -15 140 -41l30 31h96l-80 -81c20 -33 30 -73 30 -116c0 -185 -103 -338 -293 -338zM243 88c78 0 123 56 142 165c6 32 9 62 9 82v6l-222 -225
c17 -19 42 -28 71 -28zM158 272c-6 -29 -9 -56 -9 -82l219 223c-16 17 -40 24 -67 24c-77 0 -124 -58 -143 -165zM259 583l85 152h146l-118 -152h-113z" />
    <glyph glyph-name="racute" unicode="&#x155;" horiz-adv-x="359" 
d="M200 583l85 152h146l-118 -152h-113zM5 0l92 525h135l-11 -63h5c35 40 82 68 137 68c13 0 26 -1 31 -4l-22 -124c-12 2 -30 4 -43 4c-47 0 -82 -10 -118 -29l-66 -377h-140z" />
    <glyph glyph-name="rcaron" unicode="&#x159;" horiz-adv-x="359" 
d="M201 583l-77 151h100l47 -66l70 66h105l-130 -151h-115zM5 0l92 525h135l-11 -63h5c35 40 82 68 137 68c13 0 26 -1 31 -4l-22 -124c-12 2 -30 4 -43 4c-47 0 -82 -10 -118 -29l-66 -377h-140z" />
    <glyph glyph-name="rcommaaccent" unicode="&#x157;" horiz-adv-x="359" 
d="M-35 -182l37 144h132l-69 -144h-100zM5 0l92 525h135l-11 -63h5c35 40 82 68 137 68c13 0 26 -1 31 -4l-22 -124c-12 2 -30 4 -43 4c-47 0 -82 -10 -118 -29l-66 -377h-140z" />
    <glyph glyph-name="sacute" unicode="&#x15b;" horiz-adv-x="435" 
d="M198 583l85 152h146l-118 -152h-113zM171 -9c-79 0 -142 19 -179 43l17 98c37 -18 87 -39 153 -39c73 0 94 27 94 60c0 25 -16 39 -59 54l-44 16c-64 21 -105 59 -105 137c0 112 78 174 212 174c82 0 127 -19 159 -37l-18 -98c-30 15 -79 33 -139 33
c-56 0 -81 -20 -81 -55c0 -28 18 -40 51 -52l44 -15c89 -31 118 -68 118 -137c0 -103 -58 -182 -223 -182z" />
    <glyph glyph-name="scedilla" unicode="&#x15f;" horiz-adv-x="435" 
d="M48 -222l11 62c75 6 104 14 104 39c0 18 -19 26 -69 27l15 89c-50 7 -91 21 -117 39l17 98c37 -18 87 -39 153 -39c73 0 94 27 94 60c0 25 -16 39 -59 54l-44 16c-64 21 -105 59 -105 137c0 112 78 174 212 174c82 0 127 -19 159 -37l-18 -98c-30 15 -79 33 -139 33
c-56 0 -81 -20 -81 -55c0 -28 18 -40 51 -52l44 -15c89 -31 118 -68 118 -137c0 -101 -56 -179 -215 -182l-5 -35c59 -3 90 -29 90 -68c0 -68 -61 -102 -216 -110z" />
    <glyph glyph-name="scircumflex" unicode="&#x15d;" horiz-adv-x="435" 
d="M102 583l130 151h115l77 -151h-100l-47 66l-69 -66h-106zM171 -9c-79 0 -142 19 -179 43l17 98c37 -18 87 -39 153 -39c73 0 94 27 94 60c0 25 -16 39 -59 54l-44 16c-64 21 -105 59 -105 137c0 112 78 174 212 174c82 0 127 -19 159 -37l-18 -98c-30 15 -79 33 -139 33
c-56 0 -81 -20 -81 -55c0 -28 18 -40 51 -52l44 -15c89 -31 118 -68 118 -137c0 -103 -58 -182 -223 -182z" />
    <glyph glyph-name="scommaaccent" unicode="&#x219;" horiz-adv-x="435" 
d="M58 -182l37 144h132l-69 -144h-100zM171 -9c-79 0 -142 19 -179 43l17 98c37 -18 87 -39 153 -39c73 0 94 27 94 60c0 25 -16 39 -59 54l-44 16c-64 21 -105 59 -105 137c0 112 78 174 212 174c82 0 127 -19 159 -37l-18 -98c-30 15 -79 33 -139 33
c-56 0 -81 -20 -81 -55c0 -28 18 -40 51 -52l44 -15c89 -31 118 -68 118 -137c0 -103 -58 -182 -223 -182z" />
    <glyph glyph-name="sacute.pl" horiz-adv-x="435" 
d="M171 -9c-79 0 -142 19 -179 43l17 98c37 -18 87 -39 153 -39c73 0 94 27 94 60c0 25 -16 39 -59 54l-44 16c-64 21 -105 59 -105 137c0 112 78 174 212 174c82 0 127 -19 159 -37l-18 -98c-30 15 -79 33 -139 33c-56 0 -81 -20 -81 -55c0 -28 18 -40 51 -52l44 -15
c89 -31 118 -68 118 -137c0 -103 -58 -182 -223 -182zM201 583l68 152h143l-101 -152h-110z" />
    <glyph glyph-name="tbar" unicode="&#x167;" horiz-adv-x="362" 
d="M17 273l13 75h68l13 74h-68l18 103h67l23 124h140l-22 -124h114l-18 -103h-114l-13 -74h114l-13 -75h-115l-19 -110c-8 -43 3 -65 52 -65c20 0 42 4 60 8l-17 -91c-19 -12 -55 -22 -100 -22c-114 0 -155 59 -137 161l21 119h-67z" />
    <glyph glyph-name="tcaron" unicode="&#x165;" horiz-adv-x="362" 
d="M409 575h-83l37 164h107zM200 -7c-114 0 -155 59 -137 161l48 268h-68l18 103h67l23 124h140l-22 -124h114l-18 -103h-114l-46 -259c-8 -43 3 -65 52 -65c20 0 42 4 60 8l-17 -91c-19 -12 -55 -22 -100 -22z" />
    <glyph glyph-name="tcommaaccent" unicode="&#x163;" horiz-adv-x="362" 
d="M60 -182l37 144h132l-69 -144h-100zM200 -7c-114 0 -155 59 -137 161l48 268h-68l18 103h67l23 124h140l-22 -124h114l-18 -103h-114l-46 -259c-8 -43 3 -65 52 -65c20 0 42 4 60 8l-17 -91c-19 -12 -55 -22 -100 -22z" />
    <glyph glyph-name="ubreve" unicode="&#x16d;" horiz-adv-x="547" 
d="M156 -10c-82 0 -128 45 -128 128c0 15 1 31 4 50l63 357h140l-60 -340c-3 -14 -4 -25 -4 -36c0 -33 14 -49 53 -49c38 0 71 10 112 34l68 391h141l-93 -525h-118l-4 58h-5c-51 -43 -101 -68 -169 -68zM329 589c-89 0 -140 56 -135 137h94c0 -30 14 -49 47 -49
s53 19 62 49h94c-13 -82 -73 -137 -162 -137z" />
    <glyph glyph-name="uhungarumlaut" unicode="&#x171;" horiz-adv-x="547" 
d="M156 -10c-82 0 -128 45 -128 128c0 15 1 31 4 50l63 357h140l-60 -340c-3 -14 -4 -25 -4 -36c0 -33 14 -49 53 -49c38 0 71 10 112 34l68 391h141l-93 -525h-118l-4 58h-5c-51 -43 -101 -68 -169 -68zM183 583l65 152h132l-87 -152h-110zM367 583l64 152h132l-87 -152
h-109z" />
    <glyph glyph-name="umacron" unicode="&#x16b;" horiz-adv-x="547" 
d="M156 -10c-82 0 -128 45 -128 128c0 15 1 31 4 50l63 357h140l-60 -340c-3 -14 -4 -25 -4 -36c0 -33 14 -49 53 -49c38 0 71 10 112 34l68 391h141l-93 -525h-118l-4 58h-5c-51 -43 -101 -68 -169 -68zM198 605l17 97h266l-17 -97h-266z" />
    <glyph glyph-name="uogonek" unicode="&#x173;" horiz-adv-x="547" 
d="M156 -10c-82 0 -128 45 -128 127c0 16 1 32 4 51l62 356h141l-60 -340c-3 -13 -4 -25 -4 -35c0 -33 14 -49 53 -49c38 0 70 10 111 35l70 389h140l-93 -522c-32 -22 -81 -55 -81 -93c0 -18 15 -26 36 -26c12 0 24 2 31 3l-12 -73c-16 -7 -41 -12 -67 -12
c-73 0 -105 36 -105 81c0 51 42 92 105 118h-25l-4 58h-5c-51 -43 -101 -68 -169 -68z" />
    <glyph glyph-name="uring" unicode="&#x16f;" horiz-adv-x="547" 
d="M339 576c-65 0 -106 44 -106 97c0 61 49 109 114 109s107 -44 107 -97c0 -62 -49 -109 -115 -109zM341 632c28 0 46 21 46 50c0 27 -14 44 -41 44c-28 0 -47 -21 -47 -50c0 -27 15 -44 42 -44zM156 -10c-82 0 -128 45 -128 128c0 15 1 31 4 50l63 357h140l-60 -340
c-3 -14 -4 -25 -4 -36c0 -33 14 -49 53 -49c38 0 71 10 112 34l68 391h141l-93 -525h-118l-4 58h-5c-51 -43 -101 -68 -169 -68z" />
    <glyph glyph-name="utilde" unicode="&#x169;" horiz-adv-x="547" 
d="M156 -10c-82 0 -128 45 -128 128c0 15 1 31 4 50l63 357h140l-60 -340c-3 -14 -4 -25 -4 -36c0 -33 14 -49 53 -49c38 0 71 10 112 34l68 391h141l-93 -525h-118l-4 58h-5c-51 -43 -101 -68 -169 -68zM166 596c16 92 69 129 119 129c47 0 82 -33 109 -33
c18 0 29 11 35 33h86c-16 -92 -68 -129 -119 -129c-47 0 -82 33 -108 33c-18 0 -30 -12 -35 -33h-87z" />
    <glyph glyph-name="wacute" unicode="&#x1e83;" horiz-adv-x="755" 
d="M376 583l85 152h146l-118 -152h-113zM91 0l-35 525h139l12 -348h4l161 348h113l19 -348h4l156 348h130l-251 -525h-136l-20 333h-4l-157 -333h-135z" />
    <glyph glyph-name="wcircumflex" unicode="&#x175;" horiz-adv-x="755" 
d="M273 583l130 151h115l77 -151h-100l-47 66l-69 -66h-106zM91 0l-35 525h139l12 -348h4l161 348h113l19 -348h4l156 348h130l-251 -525h-136l-20 333h-4l-157 -333h-135z" />
    <glyph glyph-name="wdieresis" unicode="&#x1e85;" horiz-adv-x="755" 
d="M474 601l20 116h122l-21 -116h-121zM282 601l21 116h121l-20 -116h-122zM91 0l-35 525h139l12 -348h4l161 348h113l19 -348h4l156 348h130l-251 -525h-136l-20 333h-4l-157 -333h-135z" />
    <glyph glyph-name="wgrave" unicode="&#x1e81;" horiz-adv-x="755" 
d="M91 0l-35 525h139l12 -348h4l161 348h113l19 -348h4l156 348h130l-251 -525h-136l-20 333h-4l-157 -333h-135zM381 583l-75 152h137l45 -152h-107z" />
    <glyph glyph-name="ycircumflex" unicode="&#x177;" horiz-adv-x="514" 
d="M32 -199c-41 0 -72 10 -89 20l17 93c16 -4 35 -8 57 -8c45 0 73 19 98 66l24 43l-87 510h143l44 -344h4l174 344h139l-309 -569c-57 -106 -110 -155 -215 -155zM153 583l130 151h115l77 -151h-100l-47 66l-69 -66h-106z" />
    <glyph glyph-name="ygrave" unicode="&#x1ef3;" horiz-adv-x="514" 
d="M32 -199c-41 0 -72 10 -89 20l17 93c16 -4 35 -8 57 -8c45 0 73 19 98 66l24 43l-87 510h143l44 -344h4l174 344h139l-309 -569c-57 -106 -110 -155 -215 -155zM260 583l-75 152h137l45 -152h-107z" />
    <glyph glyph-name="zacute" unicode="&#x17a;" horiz-adv-x="448" 
d="M223 583l85 152h146l-118 -152h-113zM-18 0l17 100l278 319v3h-215l18 103h388l-16 -94l-286 -325v-3h233l-18 -103h-399z" />
    <glyph glyph-name="zdotaccent" unicode="&#x17c;" horiz-adv-x="448" 
d="M-18 0l17 100l278 319v3h-215l18 103h388l-16 -94l-286 -325v-3h233l-18 -103h-399zM218 601l20 117h142l-20 -117h-142z" />
    <glyph glyph-name="zacute.pl" horiz-adv-x="448" 
d="M-18 0l17 100l278 319v3h-215l18 103h388l-16 -94l-286 -325v-3h233l-18 -103h-399zM224 583l68 152h143l-101 -152h-110z" />
    <glyph glyph-name="oneeighth" unicode="&#x215b;" horiz-adv-x="872" 
d="M637 -8c-108 0 -163 44 -163 106c0 55 44 91 100 110c-34 20 -53 45 -53 90c0 71 60 130 163 130c90 0 148 -39 148 -104c0 -49 -32 -87 -85 -106c45 -26 68 -53 68 -93c0 -75 -60 -133 -178 -133zM638 65c48 0 71 22 71 52c0 27 -19 40 -75 64c-37 -17 -62 -38 -62 -68
s23 -48 66 -48zM684 249c29 14 51 35 51 63c0 24 -15 44 -54 44s-59 -23 -59 -48c0 -30 21 -43 62 -59zM99 276l55 314l-86 -11l12 68l139 51h67l-74 -422h-113zM29 -40l606 753h103l-606 -753h-103z" />
    <glyph glyph-name="onethird" unicode="&#x2153;" horiz-adv-x="851" 
d="M608 -7c-51 0 -99 13 -123 27l12 72c25 -9 57 -16 88 -16c54 0 86 23 86 59c0 29 -21 45 -65 45h-33l13 71h28c49 0 80 15 80 54c0 28 -22 41 -64 41c-29 0 -50 -2 -74 -10l12 73c30 12 63 19 112 19c73 0 128 -35 128 -99c0 -57 -44 -94 -97 -107v-2
c45 -7 77 -34 77 -85c0 -83 -69 -142 -180 -142zM99 276l55 314l-86 -11l12 68l139 51h67l-74 -422h-113zM31 -40l606 753h103l-606 -753h-103z" />
    <glyph glyph-name="threeeighths" unicode="&#x215c;" horiz-adv-x="918" 
d="M684 -8c-108 0 -163 44 -163 106c0 55 44 91 100 110c-34 20 -53 45 -53 90c0 71 60 130 163 130c90 0 148 -39 148 -104c0 -49 -32 -87 -85 -106c45 -26 68 -53 68 -93c0 -75 -60 -133 -178 -133zM685 65c48 0 71 22 71 52c0 27 -19 40 -75 64c-37 -17 -62 -38 -62 -68
s23 -48 66 -48zM731 249c29 14 51 35 51 63c0 24 -15 44 -54 44s-59 -23 -59 -48c0 -30 21 -43 62 -59zM86 -40l606 753h103l-606 -753h-103zM156 269c-51 0 -98 13 -123 27l13 72c24 -9 57 -16 87 -16c54 0 86 23 86 59c0 29 -21 45 -65 45h-32l12 71h29c49 0 80 15 80 54
c0 28 -23 41 -64 41c-29 0 -50 -2 -75 -10l12 73c30 12 63 19 112 19c74 0 128 -35 128 -99c0 -57 -44 -95 -96 -107v-2c45 -7 77 -34 77 -85c0 -84 -69 -142 -181 -142z" />
    <glyph glyph-name="fiveeighths" unicode="&#x215d;" horiz-adv-x="915" 
d="M680 -8c-108 0 -163 44 -163 106c0 55 44 91 100 110c-34 20 -53 45 -53 90c0 71 60 130 163 130c90 0 148 -39 148 -104c0 -49 -32 -87 -85 -106c45 -26 68 -53 68 -93c0 -75 -60 -133 -178 -133zM681 65c48 0 71 22 71 52c0 27 -19 40 -75 64c-37 -17 -62 -38 -62 -68
s23 -48 66 -48zM727 249c29 14 51 35 51 63c0 24 -15 44 -54 44s-59 -23 -59 -48c0 -30 21 -43 62 -59zM159 269c-61 0 -100 14 -126 29l14 70c24 -11 58 -19 95 -19c58 0 89 22 89 69c0 30 -25 52 -77 52c-31 0 -49 -3 -75 -7l49 233h248l-14 -81h-166l-17 -81
c14 3 24 5 45 5c75 0 124 -36 124 -111c0 -96 -72 -159 -189 -159zM84 -40l606 753h103l-606 -753h-103z" />
    <glyph glyph-name="twothirds" unicode="&#x2154;" horiz-adv-x="930" 
d="M688 -7c-51 0 -99 13 -123 27l12 72c25 -9 57 -16 88 -16c54 0 86 23 86 59c0 29 -21 45 -65 45h-33l13 71h28c49 0 80 15 80 54c0 28 -22 41 -64 41c-29 0 -50 -2 -74 -10l12 73c30 12 63 19 112 19c73 0 128 -35 128 -99c0 -57 -44 -94 -97 -107v-2
c45 -7 77 -34 77 -85c0 -83 -69 -142 -180 -142zM33 275l13 75l99 79c65 53 103 88 103 139c0 33 -22 49 -60 49c-34 0 -64 -7 -89 -17l14 76c31 16 73 27 123 27c87 0 136 -43 136 -114s-53 -130 -135 -187l-58 -42v-2h161l-14 -83h-293zM122 -40l606 753h103l-606 -753
h-103z" />
    <glyph glyph-name="seveneighths" unicode="&#x215e;" horiz-adv-x="887" 
d="M652 -8c-108 0 -163 44 -163 106c0 55 44 91 100 110c-34 20 -53 45 -53 90c0 71 60 130 163 130c90 0 148 -39 148 -104c0 -49 -32 -87 -85 -106c45 -26 68 -53 68 -93c0 -75 -60 -133 -178 -133zM653 65c48 0 71 22 71 52c0 27 -19 40 -75 64c-37 -17 -62 -38 -62 -68
s23 -48 66 -48zM699 249c29 14 51 35 51 63c0 24 -15 44 -54 44s-59 -23 -59 -48c0 -30 21 -43 62 -59zM59 276l202 331v3h-183l15 86h298l-14 -77l-201 -343h-117zM40 -40l606 753h103l-606 -753h-103z" />
    <glyph glyph-name="uni24C5" unicode="&#x24c5;" horiz-adv-x="790" 
d="M410 -14c-204 0 -356 161 -356 358s152 356 356 356s359 -159 359 -356s-155 -358 -359 -358zM410 39c171 0 295 128 295 305s-124 303 -295 303c-172 0 -293 -126 -293 -303s121 -305 293 -305zM275 161v370h156c95 0 147 -43 147 -123c0 -84 -53 -126 -141 -126h-63
v-121h-99zM374 352h49c37 0 56 16 56 54c0 37 -23 51 -59 51h-46v-105z" />
    <glyph glyph-name="dollar.old" horiz-adv-x="500" 
d="M71 -109l36 105c-53 9 -94 24 -121 42l19 103c40 -19 83 -36 137 -44l64 185l-8 3c-84 26 -134 76 -134 163c0 128 81 207 247 207c8 0 16 0 24 -1l23 65h73l-25 -72c46 -8 76 -21 99 -34l-19 -103c-29 13 -67 28 -115 35l-59 -169l7 -2c97 -30 146 -76 146 -160
c0 -137 -83 -225 -268 -225h-19l-34 -98h-73zM333 192c0 30 -15 48 -62 67l-57 -165c86 4 119 38 119 98zM191 466c0 -30 14 -51 56 -67l52 152c-71 -1 -108 -27 -108 -85z" />
    <glyph glyph-name="Euro.old" horiz-adv-x="558" 
d="M38 349l14 81h61c14 39 32 75 54 105c60 81 151 120 264 120c72 0 122 -14 152 -31l-21 -102c-35 14 -67 23 -122 23c-63 0 -121 -14 -156 -78c-6 -11 -12 -24 -17 -37h185l-14 -81h-195c-4 -19 -7 -37 -10 -56h195l-15 -81h-184c5 -82 48 -114 137 -114
c57 0 108 14 146 31l-18 -103c-43 -23 -103 -37 -166 -37c-135 0 -241 65 -247 223h-68l15 81h56c2 19 4 38 7 56h-53z" />
    <glyph glyph-name="sterling.old" horiz-adv-x="517" 
d="M37 269l17 98h68l13 74c27 155 136 214 262 214c70 0 114 -15 140 -32l-17 -98c-32 11 -58 19 -108 19c-64 0 -121 -26 -137 -115l-11 -62h161l-18 -98h-160l-3 -16c-14 -76 -44 -113 -95 -144v-2h316l-19 -107h-463l17 98c50 24 84 60 98 136l6 35h-67z" />
    <glyph glyph-name="yen.old" horiz-adv-x="554" 
d="M161 0l19 101h-158l16 92h157l10 58h-157l17 92h118l-108 300h146l82 -261h2l173 261h138l-213 -300h119l-17 -92h-158l-9 -58h157l-16 -92h-157l-19 -101h-142z" />
    <glyph glyph-name="zero.old" horiz-adv-x="604" 
d="M278 -12c-152 0 -246 84 -246 229c0 47 13 115 26 156c55 179 176 234 288 234c148 0 241 -81 241 -234c0 -44 -14 -115 -27 -157c-55 -179 -172 -228 -282 -228zM283 91c73 0 120 56 145 187c8 40 12 82 12 107c0 76 -29 119 -99 119c-69 0 -122 -52 -147 -180
c-8 -45 -14 -88 -14 -118c0 -69 28 -115 103 -115z" />
    <glyph glyph-name="one.old" horiz-adv-x="348" 
d="M82 0l80 451l-112 -8l15 83l194 73h73l-106 -599h-144z" />
    <glyph glyph-name="two.old" horiz-adv-x="480" 
d="M-25 0l17 95l167 126c119 89 153 133 152 198c0 48 -33 74 -98 74c-57 0 -101 -13 -141 -29l18 99c46 24 96 42 179 42c123 0 196 -59 196 -159c0 -105 -58 -177 -196 -266l-108 -72v-3h259l-19 -105h-426z" />
    <glyph glyph-name="three.old" horiz-adv-x="484" 
d="M151 -111c-95 0 -155 22 -188 44l17 96c43 -18 86 -29 148 -29c103 0 149 48 149 117c0 61 -36 89 -116 89h-57l18 102h48c89 0 139 38 139 105c0 46 -26 80 -98 80c-53 0 -95 -8 -140 -23l17 99c50 21 94 36 171 36c132 0 196 -75 196 -160c0 -92 -57 -156 -150 -179v-4
c74 -14 122 -66 122 -143c0 -137 -102 -230 -276 -230z" />
    <glyph glyph-name="four.old" horiz-adv-x="584" 
d="M261 -101l31 174h-308l17 94l394 426h129l-74 -418h104l-18 -102h-103l-31 -174h-141zM133 175h178l44 246h-4l-218 -243v-3z" />
    <glyph glyph-name="five.old" horiz-adv-x="490" 
d="M145 -111c-76 0 -143 20 -181 44l18 97c42 -17 89 -29 146 -29c103 0 158 48 158 136c0 61 -38 94 -125 94c-53 0 -83 -5 -121 -14l69 376h373l-19 -108h-256l-29 -163c20 8 42 12 77 12c122 0 184 -74 184 -183c0 -158 -107 -262 -294 -262z" />
    <glyph glyph-name="six.old" horiz-adv-x="561" 
d="M267 -13c-149 0 -232 90 -232 231c0 122 39 263 110 352c75 94 167 135 278 135c79 0 122 -17 151 -36l-17 -97c-27 9 -67 22 -134 22c-107 0 -189 -71 -221 -213c35 29 95 50 153 50c119 0 180 -69 180 -174c0 -154 -107 -270 -268 -270zM273 87c74 0 118 69 118 159
c0 58 -30 88 -93 88c-45 0 -81 -14 -112 -35c-6 -34 -10 -65 -10 -96c0 -66 25 -116 97 -116z" />
    <glyph glyph-name="seven.old" horiz-adv-x="482" 
d="M18 -100l340 579v4h-295l19 110h439l-17 -99l-330 -594h-156z" />
    <glyph glyph-name="eight.old" horiz-adv-x="565" 
d="M259 -13c-160 0 -244 72 -244 180c0 88 62 149 158 182c-57 33 -89 82 -89 146c0 123 91 210 256 210c142 0 211 -72 211 -163c0 -88 -56 -140 -139 -181c71 -35 114 -86 114 -157c0 -128 -98 -217 -267 -217zM263 87c78 0 117 50 117 107c0 47 -40 81 -128 120
c-65 -31 -102 -73 -102 -133c0 -59 41 -94 113 -94zM332 402c53 30 86 69 86 119c0 40 -22 83 -90 83c-73 0 -102 -45 -102 -93c0 -41 25 -72 106 -109z" />
    <glyph glyph-name="nine.old" horiz-adv-x="567" 
d="M158 -113c-80 0 -127 19 -155 39l18 97c31 -13 68 -25 137 -25c105 0 188 57 219 214c-35 -29 -95 -50 -153 -50c-119 0 -180 69 -180 174c0 153 107 269 268 269c148 0 232 -89 232 -231c0 -122 -35 -270 -105 -360c-75 -95 -173 -127 -281 -127zM281 259
c45 0 81 13 112 35c6 33 10 64 10 96c0 65 -25 116 -97 116c-74 0 -118 -70 -118 -159c0 -59 30 -88 93 -88z" />
    <glyph glyph-name="percent.old" horiz-adv-x="829" 
d="M205 359c31 0 56 21 66 88c5 27 8 50 8 67c0 31 -13 52 -41 52c-33 0 -58 -23 -68 -89c-4 -25 -6 -48 -6 -65c0 -35 14 -53 41 -53zM615 69c31 0 55 22 66 89c4 27 7 50 7 67c0 30 -13 51 -41 51c-32 0 -57 -23 -67 -88c-4 -26 -6 -48 -6 -65c0 -36 14 -54 41 -54z
M199 282c-84 0 -142 49 -142 134c0 123 65 227 186 227c88 0 142 -49 142 -133c0 -123 -64 -228 -186 -228zM199 -33h-101l542 683h102zM609 -8c-85 0 -142 50 -142 135c0 122 67 226 185 226c88 0 142 -48 142 -132c0 -123 -61 -229 -185 -229z" />
    <glyph glyph-name="perthousand.old" horiz-adv-x="1184" 
d="M205 359c31 0 56 21 66 88c5 27 8 50 8 67c0 31 -13 52 -41 52c-33 0 -58 -23 -68 -89c-4 -25 -6 -48 -6 -65c0 -35 14 -53 41 -53zM615 69c31 0 55 22 66 89c4 27 7 50 7 67c0 30 -13 51 -41 51c-32 0 -57 -23 -67 -88c-4 -26 -6 -48 -6 -65c0 -36 14 -54 41 -54z
M199 282c-84 0 -142 49 -142 134c0 123 65 227 186 227c88 0 142 -49 142 -133c0 -123 -64 -228 -186 -228zM199 -33h-101l542 683h102zM609 -8c-85 0 -142 50 -142 135c0 122 67 226 185 226c88 0 142 -48 142 -132c0 -123 -61 -229 -185 -229zM970 69c31 0 55 22 66 89
c4 27 7 50 7 67c0 30 -13 51 -41 51c-32 0 -57 -23 -67 -88c-4 -26 -6 -48 -6 -65c0 -36 14 -54 41 -54zM964 -8c-85 0 -142 50 -142 135c0 122 67 226 185 226c88 0 142 -48 142 -132c0 -123 -61 -229 -185 -229z" />
    <glyph glyph-name="plus.old" horiz-adv-x="521" 
d="M170 86l29 168h-161l20 112h161l29 168h123l-30 -168h161l-20 -112h-160l-30 -168h-122z" />
    <glyph glyph-name="minus.old" horiz-adv-x="517" 
d="M38 254l20 112h441l-20 -112h-441z" />
    <glyph glyph-name="multiply.old" horiz-adv-x="551" 
d="M112 83l-70 79l161 137l-112 135l88 78l113 -137l161 137l70 -78l-161 -137l113 -135l-89 -79l-113 137z" />
    <glyph glyph-name="divide.old" horiz-adv-x="520" 
d="M38 254l20 112h444l-20 -112h-444zM157 68l23 132h140l-23 -132h-140zM219 420l24 132h139l-23 -132h-140z" />
    <glyph glyph-name="equal.old" horiz-adv-x="523" 
d="M57 321l19 109h432l-19 -109h-432zM22 121l19 110h432l-19 -110h-432z" />
    <glyph glyph-name="less.old" horiz-adv-x="476" 
d="M392 61l-357 181l19 108l420 175l-22 -125l-277 -108l238 -114z" />
    <glyph glyph-name="greater.old" horiz-adv-x="476" 
d="M15 61l22 125l276 108l-237 114l20 117l358 -181l-20 -108z" />
    <glyph glyph-name="numbersign.old" horiz-adv-x="525" 
d="M64 380l18 107h89l41 156h97l-41 -156h95l40 156h97l-40 -156h76l-19 -107h-85l-27 -106h81l-19 -107h-89l-43 -167h-97l43 167h-94l-43 -167h-97l43 167h-75l19 107h83l27 106h-80zM241 380l-27 -106h94l27 106h-94z" />
    <glyph glyph-name="zero.num" horiz-adv-x="420" 
d="M216 269c-92 0 -160 47 -160 152c0 35 4 64 11 98c24 125 104 185 210 185c93 0 161 -47 161 -152c0 -33 -6 -67 -11 -95c-23 -126 -101 -188 -211 -188zM224 347c48 0 75 36 89 116c8 37 13 73 13 95c0 46 -17 68 -57 68c-49 0 -74 -36 -90 -115c-7 -33 -13 -73 -13 -95
c0 -48 18 -69 58 -69z" />
    <glyph glyph-name="one.num" horiz-adv-x="263" 
d="M96 276l55 314l-86 -11l12 68l139 51h67l-74 -422h-113z" />
    <glyph glyph-name="two.num" horiz-adv-x="352" 
d="M30 275l13 75l99 79c65 53 103 88 103 139c0 33 -22 49 -60 49c-34 0 -64 -7 -89 -17l14 76c31 16 73 27 123 27c87 0 136 -43 136 -114s-53 -130 -135 -187l-58 -42v-2h161l-14 -83h-293z" />
    <glyph glyph-name="three.num" horiz-adv-x="344" 
d="M153 269c-51 0 -98 13 -123 27l13 72c24 -9 57 -16 87 -16c54 0 86 23 86 59c0 29 -21 45 -65 45h-32l12 71h29c49 0 80 15 80 54c0 28 -23 41 -64 41c-29 0 -50 -2 -75 -10l12 73c30 12 63 19 112 19c74 0 128 -35 128 -99c0 -57 -44 -95 -96 -107v-2
c45 -7 77 -34 77 -85c0 -84 -69 -142 -181 -142z" />
    <glyph glyph-name="four.num" horiz-adv-x="389" 
d="M200 276l17 101h-182l12 71l233 248h105l-42 -243h61l-14 -76h-61l-18 -101h-111zM145 451h88l22 123h-3l-107 -120v-3z" />
    <glyph glyph-name="five.num" horiz-adv-x="350" 
d="M156 269c-61 0 -100 14 -126 29l14 70c24 -11 58 -19 95 -19c58 0 89 22 89 69c0 30 -25 52 -77 52c-31 0 -49 -3 -75 -7l49 233h248l-14 -81h-166l-17 -81c14 3 24 5 45 5c75 0 124 -36 124 -111c0 -96 -72 -159 -189 -159z" />
    <glyph glyph-name="six.num" horiz-adv-x="386" 
d="M213 269c-103 0 -158 56 -158 148c0 76 24 159 65 208c44 55 107 79 180 79c52 0 87 -10 105 -21l-13 -75c-18 6 -45 14 -86 14c-63 0 -109 -26 -128 -104c21 15 56 25 93 25c77 0 119 -46 119 -113c0 -92 -65 -161 -177 -161zM216 341c44 0 68 37 68 84
c0 34 -19 49 -54 49c-25 0 -46 -7 -61 -18c-5 -21 -6 -42 -6 -55c0 -38 16 -60 53 -60z" />
    <glyph glyph-name="seven.num" horiz-adv-x="338" 
d="M56 276l202 331v3h-183l15 86h298l-14 -77l-201 -343h-117z" />
    <glyph glyph-name="eight.num" horiz-adv-x="389" 
d="M206 268c-108 0 -162 44 -162 106c0 55 43 91 100 110c-34 20 -54 45 -54 90c0 71 60 130 164 130c90 0 147 -39 147 -105c0 -49 -32 -86 -84 -106c45 -25 67 -52 67 -92c0 -75 -59 -133 -178 -133zM208 340c48 0 70 22 70 53c0 27 -18 40 -75 63
c-37 -16 -61 -37 -61 -67s22 -49 66 -49zM254 524c29 15 51 36 51 64c0 24 -15 44 -55 44c-38 0 -58 -24 -58 -49c0 -29 21 -42 62 -59z" />
    <glyph glyph-name="nine.num" horiz-adv-x="390" 
d="M161 269c-54 0 -87 12 -106 24l13 74c17 -6 43 -15 87 -15c68 0 114 29 127 104c-22 -16 -58 -26 -94 -26c-76 0 -117 46 -117 111c0 94 64 163 174 163c103 0 158 -58 158 -150c0 -82 -19 -162 -61 -212c-40 -50 -103 -73 -181 -73zM231 498c22 0 44 7 60 19
c3 20 5 40 5 53c0 39 -16 62 -55 62c-41 0 -65 -38 -65 -86c0 -31 17 -48 55 -48z" />
    <glyph glyph-name="zero.den" horiz-adv-x="420" 
d="M167 -7c-91 0 -160 47 -160 152c0 35 5 64 11 98c24 125 105 185 211 185c93 0 160 -47 160 -151c0 -34 -5 -68 -11 -96c-23 -126 -101 -188 -211 -188zM176 71c48 0 74 36 89 116c7 37 13 73 13 96c0 45 -18 67 -58 67c-48 0 -74 -36 -90 -115c-6 -32 -12 -73 -12 -95
c0 -47 18 -69 58 -69z" />
    <glyph glyph-name="one.den" horiz-adv-x="263" 
d="M48 0l55 314l-86 -11l12 68l138 51h68l-75 -422h-112z" />
    <glyph glyph-name="two.den" horiz-adv-x="352" 
d="M-19 -1l13 75l99 79c66 53 104 88 104 139c0 33 -23 49 -61 49c-33 0 -64 -7 -88 -17l14 76c30 17 72 27 122 27c87 0 136 -43 136 -114s-52 -129 -134 -187l-59 -42v-2h162l-15 -83h-293z" />
    <glyph glyph-name="three.den" horiz-adv-x="344" 
d="M105 -7c-51 0 -99 13 -123 27l12 72c25 -9 57 -16 88 -16c54 0 86 23 86 59c0 29 -21 45 -65 45h-33l13 71h28c49 0 80 15 80 54c0 28 -22 41 -64 41c-29 0 -50 -2 -74 -10l12 73c30 12 63 19 112 19c73 0 128 -35 128 -99c0 -57 -44 -94 -97 -107v-2
c45 -7 77 -34 77 -85c0 -83 -69 -142 -180 -142z" />
    <glyph glyph-name="four.den" horiz-adv-x="389" 
d="M151 0l18 101h-183l13 71l233 248h105l-43 -243h61l-14 -76h-61l-17 -101h-112zM97 175h88l21 123h-3l-106 -120v-3z" />
    <glyph glyph-name="five.den" horiz-adv-x="350" 
d="M108 -7c-61 0 -100 14 -126 29l13 70c25 -11 59 -19 95 -19c58 0 89 22 89 69c0 30 -24 52 -76 52c-31 0 -50 -3 -75 -7l49 233h247l-14 -81h-166l-16 -80c14 3 23 5 44 5c75 0 125 -36 125 -112c0 -95 -72 -159 -189 -159z" />
    <glyph glyph-name="six.den" horiz-adv-x="386" 
d="M164 -7c-102 0 -157 56 -157 148c0 76 24 159 64 208c44 55 108 79 180 79c52 0 87 -10 106 -21l-14 -75c-18 6 -45 14 -85 14c-63 0 -109 -26 -129 -104c21 15 56 25 93 25c77 0 119 -45 119 -113c0 -92 -65 -161 -177 -161zM168 66c43 0 68 36 68 83
c0 34 -20 49 -55 49c-24 0 -46 -7 -61 -18c-4 -21 -6 -42 -6 -55c0 -38 16 -59 54 -59z" />
    <glyph glyph-name="seven.den" horiz-adv-x="338" 
d="M8 0l202 331v3h-184l16 86h297l-13 -77l-201 -343h-117z" />
    <glyph glyph-name="eight.den" horiz-adv-x="389" 
d="M158 -8c-108 0 -163 44 -163 106c0 55 44 91 100 110c-34 20 -53 45 -53 90c0 71 60 130 163 130c90 0 148 -39 148 -104c0 -49 -32 -87 -85 -106c45 -26 68 -53 68 -93c0 -75 -60 -133 -178 -133zM159 65c48 0 71 22 71 52c0 27 -19 40 -75 64c-37 -17 -62 -38 -62 -68
s23 -48 66 -48zM205 249c29 14 51 35 51 63c0 24 -15 44 -54 44s-59 -23 -59 -48c0 -30 21 -43 62 -59z" />
    <glyph glyph-name="nine.den" horiz-adv-x="390" 
d="M112 -7c-54 0 -87 12 -106 24l13 74c17 -6 44 -15 87 -15c68 0 114 29 128 104c-22 -16 -59 -26 -94 -26c-77 0 -118 46 -118 111c0 94 65 163 175 163c102 0 157 -58 157 -150c0 -82 -19 -161 -60 -212c-40 -50 -103 -73 -182 -73zM182 222c22 0 45 7 60 19
c4 21 5 41 5 53c0 39 -16 62 -54 62c-42 0 -66 -37 -66 -86c0 -31 17 -48 55 -48z" />
    <glyph glyph-name="zero.sub" horiz-adv-x="420" 
d="M146 -127c-91 0 -160 47 -160 152c0 35 5 64 11 98c24 125 105 185 211 185c93 0 160 -47 160 -151c0 -34 -5 -68 -11 -96c-23 -126 -101 -188 -211 -188zM155 -49c48 0 74 36 89 116c7 37 13 73 13 96c0 45 -18 67 -58 67c-48 0 -74 -36 -90 -115
c-6 -32 -12 -73 -12 -95c0 -47 18 -69 58 -69z" />
    <glyph glyph-name="one.sub" horiz-adv-x="263" 
d="M27 -120l55 314l-86 -11l12 68l138 51h68l-75 -422h-112z" />
    <glyph glyph-name="two.sub" horiz-adv-x="352" 
d="M-40 -121l13 75l99 79c66 53 104 88 104 139c0 33 -23 49 -61 49c-33 0 -64 -7 -88 -17l14 76c30 17 72 27 122 27c87 0 136 -43 136 -114s-52 -129 -134 -187l-59 -42v-2h162l-15 -83h-293z" />
    <glyph glyph-name="three.sub" horiz-adv-x="344" 
d="M84 -127c-51 0 -99 13 -123 27l12 72c25 -9 57 -16 88 -16c54 0 86 23 86 59c0 29 -21 45 -65 45h-33l13 71h28c49 0 80 15 80 54c0 28 -22 41 -64 41c-29 0 -50 -2 -74 -10l12 73c30 12 63 19 112 19c73 0 128 -35 128 -99c0 -57 -44 -94 -97 -107v-2
c45 -7 77 -34 77 -85c0 -83 -69 -142 -180 -142z" />
    <glyph glyph-name="four.sub" horiz-adv-x="389" 
d="M130 -120l18 101h-183l13 71l233 248h105l-43 -243h61l-14 -76h-61l-17 -101h-112zM76 55h88l21 123h-3l-106 -120v-3z" />
    <glyph glyph-name="five.sub" horiz-adv-x="350" 
d="M87 -127c-61 0 -100 14 -126 29l13 70c25 -11 59 -19 95 -19c58 0 89 22 89 69c0 30 -24 52 -76 52c-31 0 -50 -3 -75 -7l49 233h247l-14 -81h-166l-16 -80c14 3 23 5 44 5c75 0 125 -36 125 -112c0 -95 -72 -159 -189 -159z" />
    <glyph glyph-name="six.sub" horiz-adv-x="386" 
d="M143 -127c-102 0 -157 56 -157 148c0 76 24 159 64 208c44 55 108 79 180 79c52 0 87 -10 106 -21l-14 -75c-18 6 -45 14 -85 14c-63 0 -109 -26 -129 -104c21 15 56 25 93 25c77 0 119 -45 119 -113c0 -92 -65 -161 -177 -161zM147 -54c43 0 68 36 68 83
c0 34 -20 49 -55 49c-24 0 -46 -7 -61 -18c-4 -21 -6 -42 -6 -55c0 -38 16 -59 54 -59z" />
    <glyph glyph-name="seven.sub" horiz-adv-x="338" 
d="M-13 -120l202 331v3h-184l16 86h297l-13 -77l-201 -343h-117z" />
    <glyph glyph-name="eight.sub" horiz-adv-x="389" 
d="M137 -128c-108 0 -163 44 -163 106c0 55 44 91 100 110c-34 20 -53 45 -53 90c0 71 60 130 163 130c90 0 148 -39 148 -104c0 -49 -32 -87 -85 -106c45 -26 68 -53 68 -93c0 -75 -60 -133 -178 -133zM138 -55c48 0 71 22 71 52c0 27 -19 40 -75 64
c-37 -17 -62 -38 -62 -68s23 -48 66 -48zM184 129c29 14 51 35 51 63c0 24 -15 44 -54 44s-59 -23 -59 -48c0 -30 21 -43 62 -59z" />
    <glyph glyph-name="nine.sub" horiz-adv-x="390" 
d="M91 -127c-54 0 -87 12 -106 24l13 74c17 -6 44 -15 87 -15c68 0 114 29 128 104c-22 -16 -59 -26 -94 -26c-77 0 -118 46 -118 111c0 94 65 163 175 163c102 0 157 -58 157 -150c0 -82 -19 -161 -60 -212c-40 -50 -103 -73 -182 -73zM161 102c22 0 45 7 60 19
c4 21 5 41 5 53c0 39 -16 62 -54 62c-42 0 -66 -37 -66 -86c0 -31 17 -48 55 -48z" />
    <glyph glyph-name="zero.sup" horiz-adv-x="420" 
d="M224 315c-92 0 -160 47 -160 152c0 35 4 64 11 98c24 125 105 185 210 185c93 0 161 -47 161 -151c0 -34 -6 -68 -11 -96c-23 -126 -101 -188 -211 -188zM232 393c48 0 75 36 89 116c8 37 13 73 13 96c0 45 -17 67 -57 67c-49 0 -74 -36 -90 -115c-7 -32 -13 -73 -13 -95
c0 -47 19 -69 58 -69z" />
    <glyph glyph-name="one.sup" horiz-adv-x="263" 
d="M104 322l55 314l-86 -11l12 68l139 51h67l-74 -422h-113z" />
    <glyph glyph-name="two.sup" horiz-adv-x="352" 
d="M38 321l13 75l99 79c65 53 103 88 103 139c0 33 -22 49 -60 49c-34 0 -64 -7 -88 -17l14 76c30 17 72 27 122 27c87 0 136 -43 136 -114s-53 -129 -135 -187l-58 -42v-2h161l-14 -83h-293z" />
    <glyph glyph-name="three.sup" horiz-adv-x="344" 
d="M161 315c-51 0 -98 13 -123 27l13 72c24 -9 57 -16 87 -16c54 0 86 23 86 59c0 29 -21 45 -65 45h-32l12 71h29c49 0 80 15 80 54c0 28 -23 41 -64 41c-29 0 -50 -2 -75 -10l12 73c30 12 63 19 112 19c74 0 128 -35 128 -99c0 -57 -44 -94 -96 -107v-2
c45 -7 77 -34 77 -85c0 -83 -69 -142 -181 -142z" />
    <glyph glyph-name="four.sup" horiz-adv-x="389" 
d="M208 322l18 101h-183l12 71l233 248h106l-43 -243h61l-14 -76h-61l-18 -101h-111zM153 497h88l22 123h-3l-107 -120v-3z" />
    <glyph glyph-name="five.sup" horiz-adv-x="350" 
d="M164 315c-61 0 -100 14 -126 29l14 70c24 -11 58 -19 95 -19c58 0 89 22 89 69c0 30 -25 52 -77 52c-30 0 -49 -3 -75 -7l50 233h247l-14 -81h-166l-17 -80c14 3 24 5 45 5c75 0 124 -36 124 -112c0 -95 -72 -159 -189 -159z" />
    <glyph glyph-name="six.sup" horiz-adv-x="386" 
d="M221 315c-103 0 -158 56 -158 148c0 76 24 159 65 208c44 55 107 79 180 79c52 0 87 -10 105 -21l-13 -75c-18 6 -45 14 -85 14c-64 0 -110 -26 -129 -104c21 15 56 25 93 25c77 0 119 -45 119 -113c0 -92 -65 -161 -177 -161zM224 388c44 0 68 36 68 83
c0 34 -19 49 -54 49c-25 0 -46 -7 -61 -18c-5 -21 -6 -42 -6 -55c0 -38 16 -59 53 -59z" />
    <glyph glyph-name="seven.sup" horiz-adv-x="338" 
d="M65 322l201 331v3h-183l15 86h298l-14 -77l-201 -343h-116z" />
    <glyph glyph-name="eight.sup" horiz-adv-x="389" 
d="M214 314c-108 0 -162 44 -162 106c0 55 43 91 100 110c-34 20 -53 45 -53 90c0 71 59 130 163 130c90 0 147 -39 147 -104c0 -49 -32 -87 -84 -106c45 -26 67 -53 67 -93c0 -75 -59 -133 -178 -133zM216 387c48 0 71 22 71 52c0 27 -19 40 -76 64
c-37 -17 -61 -38 -61 -68s22 -48 66 -48zM262 571c29 14 51 35 51 63c0 24 -15 44 -54 44s-59 -23 -59 -48c0 -30 21 -43 62 -59z" />
    <glyph glyph-name="nine.sup" horiz-adv-x="390" 
d="M169 315c-54 0 -87 12 -106 24l13 74c17 -6 43 -15 87 -15c68 0 114 29 127 104c-22 -16 -58 -26 -94 -26c-76 0 -117 46 -117 111c0 94 64 163 174 163c103 0 158 -58 158 -150c0 -82 -19 -161 -61 -212c-40 -50 -103 -73 -181 -73zM239 544c22 0 44 7 60 19
c4 21 5 41 5 53c0 39 -16 62 -55 62c-41 0 -65 -37 -65 -86c0 -31 17 -48 55 -48z" />
    <glyph glyph-name="uni2033" unicode="&#x2033;" horiz-adv-x="411" 
d="M86 488l44 205h136l-69 -205h-111zM274 488l44 205h137l-69 -205h-112z" />
    <glyph glyph-name="uni2032" unicode="&#x2032;" horiz-adv-x="222" 
d="M86 488l44 205h136l-69 -205h-111z" />
    <glyph glyph-name="a.alt" horiz-adv-x="500" 
d="M150 -10c-87 0 -150 44 -150 135c0 101 62 159 202 175l121 13l3 19c12 68 -15 93 -98 93c-52 0 -104 -8 -140 -18l17 95c50 20 107 32 179 32c147 0 206 -67 184 -197l-60 -337h-115l-4 44h-5c-30 -31 -68 -54 -134 -54zM201 84c36 0 66 13 87 30l20 114l-84 -6
c-63 -3 -84 -29 -84 -81c0 -39 23 -57 61 -57z" />
    <glyph glyph-name="f.alt" horiz-adv-x="342" 
d="M34 0l75 421h-66l18 104h66l9 47c25 129 104 176 214 176c47 0 76 -9 94 -18l-15 -91c-12 5 -34 9 -59 9c-51 0 -82 -22 -92 -80l-8 -43h106l-18 -104h-108l-74 -421h-142z" />
    <glyph glyph-name="l.alt" horiz-adv-x="286" 
d="M148 -8c-93 0 -137 43 -119 149l106 598h140l-105 -595c-6 -35 5 -48 34 -48c13 0 26 2 39 5l-16 -91c-15 -8 -44 -18 -79 -18z" />
    <glyph glyph-name="aacute.alt" horiz-adv-x="500" 
d="M230 583l85 152h146l-118 -152h-113zM150 -10c-87 0 -150 44 -150 135c0 101 62 159 202 175l121 13l3 19c12 68 -15 93 -98 93c-52 0 -104 -8 -140 -18l17 95c50 20 107 32 179 32c147 0 206 -67 184 -197l-60 -337h-115l-4 44h-5c-30 -31 -68 -54 -134 -54zM201 84
c36 0 66 13 87 30l20 114l-84 -6c-63 -3 -84 -29 -84 -81c0 -39 23 -57 61 -57z" />
    <glyph glyph-name="abreve.alt" horiz-adv-x="500" 
d="M150 -10c-87 0 -150 44 -150 135c0 101 62 159 202 175l121 13l3 19c12 68 -15 93 -98 93c-52 0 -104 -8 -140 -18l17 95c50 20 107 32 179 32c147 0 206 -67 184 -197l-60 -337h-115l-4 44h-5c-30 -31 -68 -54 -134 -54zM201 84c36 0 66 13 87 30l20 114l-84 -6
c-63 -3 -84 -29 -84 -81c0 -39 23 -57 61 -57zM305 589c-89 0 -140 56 -135 137h94c0 -30 14 -49 47 -49s53 19 62 49h94c-13 -82 -73 -137 -162 -137z" />
    <glyph glyph-name="acircumflex.alt" horiz-adv-x="500" 
d="M140 583l130 151h115l77 -151h-100l-47 66l-69 -66h-106zM150 -10c-87 0 -150 44 -150 135c0 101 62 159 202 175l121 13l3 19c12 68 -15 93 -98 93c-52 0 -104 -8 -140 -18l17 95c50 20 107 32 179 32c147 0 206 -67 184 -197l-60 -337h-115l-4 44h-5
c-30 -31 -68 -54 -134 -54zM201 84c36 0 66 13 87 30l20 114l-84 -6c-63 -3 -84 -29 -84 -81c0 -39 23 -57 61 -57z" />
    <glyph glyph-name="adieresis.alt" horiz-adv-x="500" 
d="M339 601l20 116h122l-21 -116h-121zM147 601l21 116h121l-20 -116h-122zM150 -10c-87 0 -150 44 -150 135c0 101 62 159 202 175l121 13l3 19c12 68 -15 93 -98 93c-52 0 -104 -8 -140 -18l17 95c50 20 107 32 179 32c147 0 206 -67 184 -197l-60 -337h-115l-4 44h-5
c-30 -31 -68 -54 -134 -54zM201 84c36 0 66 13 87 30l20 114l-84 -6c-63 -3 -84 -29 -84 -81c0 -39 23 -57 61 -57z" />
    <glyph glyph-name="agrave.alt" horiz-adv-x="500" 
d="M150 -10c-87 0 -150 44 -150 135c0 101 62 159 202 175l121 13l3 19c12 68 -15 93 -98 93c-52 0 -104 -8 -140 -18l17 95c50 20 107 32 179 32c147 0 206 -67 184 -197l-60 -337h-115l-4 44h-5c-30 -31 -68 -54 -134 -54zM201 84c36 0 66 13 87 30l20 114l-84 -6
c-63 -3 -84 -29 -84 -81c0 -39 23 -57 61 -57zM249 583l-75 152h137l45 -152h-107z" />
    <glyph glyph-name="amacron.alt" horiz-adv-x="500" 
d="M150 -10c-87 0 -150 44 -150 135c0 101 62 159 202 175l121 13l3 19c12 68 -15 93 -98 93c-52 0 -104 -8 -140 -18l17 95c50 20 107 32 179 32c147 0 206 -67 184 -197l-60 -337h-115l-4 44h-5c-30 -31 -68 -54 -134 -54zM201 84c36 0 66 13 87 30l20 114l-84 -6
c-63 -3 -84 -29 -84 -81c0 -39 23 -57 61 -57zM172 605l17 97h266l-17 -97h-266z" />
    <glyph glyph-name="aogonek.alt" horiz-adv-x="500" 
d="M150 -10c-87 0 -150 44 -150 135c0 101 62 159 202 175l121 13l3 19c12 68 -15 93 -98 93c-52 0 -104 -8 -140 -18l17 95c50 20 107 32 179 32c147 0 206 -67 184 -197l-59 -335c-33 -22 -81 -55 -81 -93c0 -18 14 -26 36 -26c11 0 24 2 31 3l-13 -73
c-16 -7 -41 -12 -67 -12c-73 0 -105 36 -105 81c0 51 40 86 84 108l-5 54h-5c-30 -31 -68 -54 -134 -54zM201 84c36 0 66 13 87 30l20 114l-84 -6c-63 -3 -84 -29 -84 -81c0 -39 23 -57 61 -57z" />
    <glyph glyph-name="aring.alt" horiz-adv-x="500" 
d="M310 576c-65 0 -106 44 -106 97c0 61 49 109 114 109s107 -44 107 -97c0 -62 -49 -109 -115 -109zM312 632c28 0 46 21 46 50c0 27 -14 44 -41 44c-28 0 -47 -21 -47 -50c0 -27 15 -44 42 -44zM150 -10c-87 0 -150 44 -150 135c0 101 62 159 202 175l121 13l3 19
c12 68 -15 93 -98 93c-52 0 -104 -8 -140 -18l17 95c50 20 107 32 179 32c147 0 206 -67 184 -197l-60 -337h-115l-4 44h-5c-30 -31 -68 -54 -134 -54zM201 84c36 0 66 13 87 30l20 114l-84 -6c-63 -3 -84 -29 -84 -81c0 -39 23 -57 61 -57z" />
    <glyph glyph-name="aringacute.alt" horiz-adv-x="500" 
d="M311 576c-65 0 -106 44 -106 97c0 61 49 109 114 109s107 -44 107 -97c0 -62 -49 -109 -115 -109zM313 632c28 0 46 21 46 50c0 27 -14 44 -41 44c-28 0 -47 -21 -47 -50c0 -27 15 -44 42 -44zM150 -10c-87 0 -150 44 -150 135c0 101 62 159 202 175l121 13l3 19
c12 68 -15 93 -98 93c-52 0 -104 -8 -140 -18l17 95c50 20 107 32 179 32c147 0 206 -67 184 -197l-60 -337h-115l-4 44h-5c-30 -31 -68 -54 -134 -54zM201 84c36 0 66 13 87 30l20 114l-84 -6c-63 -3 -84 -29 -84 -81c0 -39 23 -57 61 -57zM279 818l74 134h147l-107 -134
h-114z" />
    <glyph glyph-name="atilde.alt" horiz-adv-x="500" 
d="M150 -10c-87 0 -150 44 -150 135c0 101 62 159 202 175l121 13l3 19c12 68 -15 93 -98 93c-52 0 -104 -8 -140 -18l17 95c50 20 107 32 179 32c147 0 206 -67 184 -197l-60 -337h-115l-4 44h-5c-30 -31 -68 -54 -134 -54zM201 84c36 0 66 13 87 30l20 114l-84 -6
c-63 -3 -84 -29 -84 -81c0 -39 23 -57 61 -57zM140 596c16 92 69 129 119 129c47 0 82 -33 109 -33c18 0 29 11 35 33h86c-16 -92 -68 -129 -119 -129c-47 0 -82 33 -108 33c-18 0 -30 -12 -35 -33h-87z" />
    <glyph glyph-name="lacute.alt" horiz-adv-x="286" 
d="M148 -8c-93 0 -137 43 -119 149l106 598h140l-105 -595c-6 -35 5 -48 34 -48c13 0 26 2 39 5l-16 -91c-15 -8 -44 -18 -79 -18zM151 782l74 134h147l-107 -134h-114z" />
    <glyph glyph-name="lcaron.alt" horiz-adv-x="286" 
d="M148 -8c-93 0 -137 43 -119 149l106 598h140l-105 -595c-6 -35 5 -48 34 -48c13 0 26 2 39 5l-16 -91c-15 -8 -44 -18 -79 -18zM369 575h-83l37 164h107z" />
    <glyph glyph-name="lcommaaccent.alt" horiz-adv-x="286" 
d="M6 -182l37 144h132l-69 -144h-100zM148 -8c-93 0 -137 43 -119 149l106 598h140l-105 -595c-6 -35 5 -48 34 -48c13 0 26 2 39 5l-16 -91c-15 -8 -44 -18 -79 -18z" />
    <glyph glyph-name="ldot.alt" horiz-adv-x="347" 
d="M148 -8c-93 0 -137 43 -119 149l106 598h140l-105 -595c-6 -35 5 -48 34 -48c13 0 26 2 39 5l-16 -91c-15 -8 -44 -18 -79 -18zM240 299l20 114h120l-20 -114h-120z" />
    <glyph glyph-name="lslash.alt" horiz-adv-x="302" 
d="M7 266l20 113l65 31l58 329h141l-45 -257l90 43l-20 -112l-90 -43l-40 -226c-6 -35 5 -48 33 -48c14 0 26 2 40 5l-16 -91c-16 -8 -45 -18 -79 -18c-94 0 -138 43 -119 149l27 156z" />
    <glyph glyph-name="germandbls.alt" horiz-adv-x="599" 
d="M5 0l94 535c26 147 136 214 284 214c130 0 194 -56 194 -137c0 -133 -171 -177 -171 -237c0 -21 13 -32 40 -51l36 -25c55 -37 83 -77 83 -138c0 -107 -86 -170 -201 -170c-72 0 -117 12 -151 31l18 98c35 -16 63 -28 114 -28c52 0 82 19 82 57c0 21 -13 36 -43 55
l-33 23c-50 32 -78 65 -78 117c0 120 162 168 162 248c0 33 -25 55 -72 55c-66 0 -111 -36 -126 -123l-92 -524h-140z" />
    <glyph glyph-name="f_b.alt" horiz-adv-x="863" 
d="M323 24l109 617c-12 3 -30 7 -55 7c-57 0 -91 -21 -102 -80l-8 -43h95l-18 -104h-96l-73 -421h-141l75 421h-67l18 104h67l8 46c23 128 109 177 258 177c88 0 151 -15 192 -34l-42 -236h5c42 30 83 57 151 57c88 0 150 -60 150 -172c0 -211 -93 -373 -307 -373
c-82 0 -167 12 -219 34zM528 390l-51 -288c20 -8 48 -11 74 -11c92 0 127 64 148 182c4 21 5 47 5 65c0 71 -32 86 -75 86c-39 0 -73 -16 -101 -34z" />
    <glyph glyph-name="f_f.alt" horiz-adv-x="619" 
d="M313 0l75 421h-140l-73 -421h-141l75 421h-67l18 104h67l7 42c24 127 98 174 194 174c41 0 67 -7 83 -14l-16 -92c-7 3 -22 6 -40 6c-45 0 -71 -28 -81 -80l-7 -36h139l8 46c24 128 103 177 213 177c46 0 75 -9 94 -18l-16 -91c-12 5 -33 9 -58 9c-51 0 -82 -23 -93 -80
l-8 -43h107l-18 -104h-107l-74 -421h-141z" />
    <glyph glyph-name="f_f_b.alt" horiz-adv-x="1143" 
d="M603 24l109 617c-12 3 -31 7 -56 7c-56 0 -90 -21 -101 -80l-8 -43h95l-18 -104h-96l-74 -421h-140l74 421h-140l-73 -421h-141l75 421h-67l18 104h67l7 42c24 127 98 174 194 174c41 0 67 -7 83 -14l-16 -92c-7 3 -22 6 -40 6c-45 0 -71 -28 -81 -80l-7 -36h139l9 46
c23 128 109 177 258 177c88 0 151 -15 192 -34l-42 -236h5c42 30 83 57 151 57c88 0 150 -60 150 -172c0 -211 -93 -373 -307 -373c-82 0 -167 12 -219 34zM808 390l-51 -288c20 -8 48 -11 74 -11c92 0 127 64 148 182c3 21 5 47 5 65c-1 71 -32 86 -75 86
c-39 0 -73 -16 -101 -34z" />
    <glyph glyph-name="f_f_h.alt" horiz-adv-x="1144" 
d="M314 0l74 421h-140l-73 -421h-141l75 421h-67l18 104h67l7 42c24 127 98 174 194 174c41 0 67 -7 83 -14l-16 -92c-7 3 -22 6 -40 6c-45 0 -71 -28 -81 -80l-7 -36h139l9 46c23 128 109 177 258 177c88 0 151 -15 192 -34l-40 -241h5c47 38 102 62 165 62
c94 0 125 -54 125 -125c0 -15 -2 -32 -4 -48l-64 -362h-140l59 337c3 12 4 24 4 34c0 34 -16 51 -56 51c-35 0 -71 -10 -112 -34l-68 -388h-140l113 641c-12 3 -31 7 -56 7c-56 0 -90 -21 -101 -80l-8 -43h95l-18 -104h-96l-74 -421h-140z" />
    <glyph glyph-name="f_f_i.alt" horiz-adv-x="837" 
d="M314 0l74 421h-140l-73 -421h-141l75 421h-67l18 104h67l7 42c24 127 98 174 194 174c41 0 67 -7 83 -14l-16 -92c-7 3 -22 6 -40 6c-45 0 -71 -28 -81 -80l-7 -36h139l9 49c23 128 100 174 195 174c39 0 63 -7 78 -14l-16 -91c-11 3 -22 5 -39 5c-38 0 -68 -23 -78 -80
l-8 -43h284l-92 -525h-140l74 421h-145l-74 -421h-140zM704 601l20 117h142l-20 -117h-142z" />
    <glyph glyph-name="f_f_j.alt" horiz-adv-x="837" 
d="M314 0l74 421h-140l-73 -421h-141l75 421h-67l18 104h67l7 42c24 127 98 174 194 174c41 0 67 -7 83 -14l-16 -92c-7 3 -22 6 -40 6c-45 0 -71 -28 -81 -80l-7 -36h139l9 49c23 128 100 174 195 174c39 0 63 -7 78 -14l-16 -91c-11 3 -22 5 -39 5c-38 0 -68 -23 -78 -80
l-8 -43h284l-97 -559c-18 -105 -74 -164 -192 -164c-36 0 -76 9 -94 21l16 89c12 -4 28 -7 49 -7c52 0 73 20 83 73l77 443h-145l-74 -421h-140zM704 601l20 117h142l-21 -117h-141z" />
    <glyph glyph-name="f_f_k.alt" horiz-adv-x="1114" 
d="M916 0l-129 273l-48 -273h-140l112 640c-11 4 -29 8 -54 8c-57 0 -91 -21 -102 -80l-8 -44h95l-18 -103h-96l-73 -421h-141l74 421h-140l-73 -421h-141l74 421h-66l18 103h67l7 42c24 128 98 175 194 175c41 0 67 -6 83 -14l-16 -92c-8 3 -22 5 -40 5
c-45 0 -72 -27 -81 -79l-7 -37h140l8 47c23 128 109 178 257 178c89 0 152 -17 193 -35l-78 -439l208 249h149l-216 -253l135 -271h-147z" />
    <glyph glyph-name="f_f_l.alt" horiz-adv-x="832" 
d="M314 0l74 421h-140l-73 -421h-141l75 421h-67l18 104h67l7 42c24 127 98 174 194 174c41 0 67 -7 83 -14l-16 -92c-7 3 -22 6 -40 6c-45 0 -71 -28 -81 -80l-7 -36h139l9 46c23 128 109 177 258 177c88 0 151 -15 192 -34l-126 -714h-140l113 641c-12 3 -31 7 -56 7
c-56 0 -90 -21 -101 -80l-8 -43h95l-18 -104h-96l-74 -421h-140z" />
    <glyph glyph-name="f_f_l.alt1" horiz-adv-x="877" 
d="M743 -8c-93 0 -137 43 -119 149l89 500c-12 3 -31 7 -56 7c-56 0 -90 -21 -101 -80l-8 -43h95l-18 -104h-96l-106 -616h-141l107 616h-140l-106 -616h-141l108 616h-67l18 104h67l7 42c24 127 98 174 194 174c41 0 67 -7 83 -14l-16 -92c-7 3 -22 6 -40 6
c-45 0 -71 -28 -81 -80l-7 -36h139l9 46c23 128 109 177 258 177c88 0 151 -15 192 -34l-101 -570c-6 -35 5 -48 34 -48c13 0 26 2 39 5l-16 -91c-15 -8 -44 -18 -79 -18z" />
    <glyph glyph-name="f_f_l.alt2" horiz-adv-x="876" 
d="M742 -8c-93 0 -137 43 -119 149l89 500c-12 3 -31 7 -56 7c-56 0 -90 -21 -101 -80l-8 -43h95l-18 -104h-96l-74 -421h-140l74 421h-140l-73 -421h-141l75 421h-67l18 104h67l7 42c24 127 98 174 194 174c41 0 67 -7 83 -14l-16 -92c-7 3 -22 6 -40 6
c-45 0 -71 -28 -81 -80l-7 -36h139l9 46c23 128 109 177 258 177c88 0 151 -15 192 -34l-101 -570c-6 -35 5 -48 34 -48c13 0 26 2 39 5l-16 -91c-15 -8 -44 -18 -79 -18z" />
    <glyph glyph-name="f_h.alt" horiz-adv-x="865" 
d="M34 0l75 421h-67l18 104h67l8 46c23 128 109 177 258 177c88 0 151 -15 192 -34l-40 -241h5c47 38 103 62 165 62c94 0 126 -54 126 -125c0 -15 -2 -32 -5 -48l-64 -362h-140l60 337c2 12 3 24 3 34c0 34 -16 51 -56 51c-35 0 -71 -10 -112 -34l-68 -388h-140l113 641
c-12 3 -30 7 -55 7c-57 0 -91 -21 -102 -80l-8 -43h95l-18 -104h-96l-73 -421h-141z" />
    <glyph glyph-name="f_i.alt" horiz-adv-x="557" 
d="M34 0l75 421h-67l18 104h67l8 49c23 128 100 174 195 174c40 0 63 -7 78 -14l-16 -91c-11 3 -22 5 -38 5c-38 0 -69 -23 -79 -80l-8 -43h284l-92 -525h-140l74 421h-145l-73 -421h-141zM424 601l20 117h142l-20 -117h-142z" />
    <glyph glyph-name="f_j.alt" horiz-adv-x="557" 
d="M34 0l75 421h-67l18 104h67l8 49c23 128 100 174 195 174c40 0 63 -7 78 -14l-16 -91c-11 3 -22 5 -38 5c-38 0 -69 -23 -79 -80l-8 -43h284l-97 -559c-18 -105 -74 -164 -192 -164c-36 0 -76 9 -94 21l16 89c12 -4 29 -7 49 -7c52 0 73 20 83 73l77 443h-145l-73 -421
h-141zM424 601l20 117h142l-21 -117h-141z" />
    <glyph glyph-name="f_k.alt" horiz-adv-x="834" 
d="M34 0l74 421h-66l18 103h67l8 47c23 128 109 178 258 178c88 0 151 -17 192 -35l-78 -439l209 249h148l-216 -253l136 -271h-148l-129 273l-48 -273h-140l113 640c-12 4 -30 8 -55 8c-57 0 -91 -21 -102 -80l-8 -44h95l-18 -103h-96l-73 -421h-141z" />
    <glyph glyph-name="f_l.alt" horiz-adv-x="552" 
d="M34 0l75 421h-67l18 104h67l8 46c23 128 109 177 258 177c88 0 151 -15 192 -34l-126 -714h-140l113 641c-12 3 -30 7 -55 7c-57 0 -91 -21 -102 -80l-8 -43h95l-18 -104h-96l-73 -421h-141z" />
    <glyph glyph-name="f_l.alt1" horiz-adv-x="597" 
d="M463 -8c-93 0 -137 43 -118 149l88 500c-12 3 -30 7 -55 7c-57 0 -91 -21 -102 -80l-8 -43h95l-18 -104h-96l-106 -616h-141l108 616h-67l18 104h67l8 46c23 128 109 177 258 177c88 0 151 -15 192 -34l-101 -570c-6 -35 5 -48 34 -48c14 0 26 2 40 5l-16 -91
c-16 -8 -45 -18 -80 -18z" />
    <glyph glyph-name="f_l.alt2" horiz-adv-x="596" 
d="M462 -8c-93 0 -137 43 -118 149l88 500c-12 3 -30 7 -55 7c-57 0 -91 -21 -102 -80l-8 -43h95l-18 -104h-96l-73 -421h-141l75 421h-67l18 104h67l8 46c23 128 109 177 258 177c88 0 151 -15 192 -34l-101 -570c-6 -35 5 -48 34 -48c14 0 26 2 40 5l-16 -91
c-16 -8 -45 -18 -80 -18z" />
    <glyph glyph-name="registered.alt" horiz-adv-x="786" 
d="M408 -14c-204 0 -356 161 -356 358s152 356 356 356s359 -159 359 -356s-155 -358 -359 -358zM408 39c171 0 295 128 295 305s-124 303 -295 303c-172 0 -293 -126 -293 -303s121 -305 293 -305zM267 163v368h152c92 0 145 -37 145 -114c0 -50 -26 -83 -66 -96v-4
l86 -154h-105l-73 135h-41v-135h-98zM365 364h45c35 0 55 15 55 49c0 36 -23 46 -56 46h-44v-95z" />
    <glyph glyph-name="questiondown.uc" horiz-adv-x="420" 
d="M194 -12c-117 0 -188 59 -188 160c0 80 30 130 125 193c61 42 90 58 97 100l5 31h124l-7 -44c-12 -68 -39 -97 -118 -148c-63 -41 -76 -71 -76 -111c0 -43 28 -68 94 -68c57 0 86 9 126 22l-18 -104c-50 -19 -92 -31 -164 -31zM239 561l23 132h142l-24 -132h-141z" />
    <glyph glyph-name="exclamdown.uc" horiz-adv-x="290" 
d="M21 0l105 472h118l-65 -472h-158zM129 561l24 132h139l-24 -132h-139z" />
    <glyph glyph-name="hyphen.uc" horiz-adv-x="345" 
d="M55 282l20 113h246l-19 -113h-247z" />
    <glyph glyph-name="endash.uc" horiz-adv-x="428" 
d="M36 284l20 106h367l-19 -106h-368z" />
    <glyph glyph-name="emdash.uc" horiz-adv-x="737" 
d="M36 284l20 106h676l-19 -106h-677z" />
    <glyph glyph-name="guilsinglleft.uc" horiz-adv-x="291" 
d="M103 87l-64 179l6 40l128 179h122l-133 -204l59 -194h-118z" />
    <glyph glyph-name="guilsinglright.uc" horiz-adv-x="291" 
d="M6 87l134 204l-59 194h117l65 -179l-6 -40l-128 -179h-123z" />
    <glyph glyph-name="guillemotleft.uc" 
d="M308 87l-65 179l6 40l128 179h123l-134 -204l59 -194h-117zM103 87l-64 179l6 40l128 179h122l-133 -204l59 -194h-118z" />
    <glyph glyph-name="guillemotright.uc" 
d="M211 87l133 204l-59 194h118l64 -179l-6 -40l-128 -179h-122zM6 87l134 204l-59 194h117l65 -179l-6 -40l-128 -179h-123z" />
    <glyph glyph-name="parenleft.uc" horiz-adv-x="358" 
d="M174 -91c-59 69 -126 204 -126 351c0 224 123 411 252 508h122c-127 -122 -231 -297 -231 -512c0 -133 41 -260 99 -347h-116z" />
    <glyph glyph-name="parenright.uc" horiz-adv-x="358" 
d="M213 768c60 -69 127 -204 127 -351c0 -224 -124 -411 -252 -508h-123c127 122 232 297 232 512c0 133 -41 260 -99 347h115z" />
    <glyph glyph-name="bracketleft.uc" horiz-adv-x="360" 
d="M1 -91l151 859h268l-18 -105h-128l-115 -649h128l-18 -105h-268z" />
    <glyph glyph-name="bracketright.uc" horiz-adv-x="360" 
d="M-31 -91l19 105h127l115 649h-129l18 105h269l-151 -859h-268z" />
    <glyph glyph-name="braceleft.uc" horiz-adv-x="385" 
d="M293 -93c-165 3 -214 53 -214 131c0 13 1 27 3 41l22 122c9 59 -11 82 -82 86l19 106c71 5 100 21 111 79l21 122c21 113 78 174 272 176l-18 -106c-74 -5 -105 -21 -117 -85l-20 -114c-10 -61 -40 -109 -134 -126v-3c66 -13 93 -43 93 -93c0 -10 -1 -22 -3 -33l-20 -114
c-11 -63 13 -78 86 -83z" />
    <glyph glyph-name="braceright.uc" horiz-adv-x="385" 
d="M-31 -93l18 106c75 5 106 21 117 85l20 114c11 61 41 109 134 126v3c-66 13 -93 43 -93 93c0 10 1 22 4 33l20 114c11 63 -13 78 -87 83l19 106c165 -3 215 -53 215 -131c0 -13 -2 -27 -4 -41l-21 -122c-10 -59 10 -82 81 -86l-18 -106c-72 -5 -101 -21 -111 -79
l-22 -122c-20 -113 -77 -174 -272 -176z" />
    <glyph glyph-name="slash.uc" horiz-adv-x="376" 
d="M-41 -60l361 793h127l-361 -793h-127z" />
    <glyph glyph-name="backslash.uc" horiz-adv-x="377" 
d="M189 -60l-90 793h117l91 -793h-118z" />
    <glyph glyph-name="bar.uc" horiz-adv-x="291" 
d="M97 -60v793h115v-793h-115z" />
    <glyph glyph-name="at.uc" horiz-adv-x="771" 
d="M354 -13c-200 0 -320 108 -320 286c0 231 177 432 438 432c187 0 305 -104 305 -260c0 -176 -97 -291 -231 -291c-66 0 -97 21 -106 56h-4c-19 -32 -69 -55 -114 -55c-69 0 -110 41 -110 121c0 154 103 255 231 255c73 0 125 -13 154 -26l-51 -242c-5 -22 2 -35 24 -35
c72 0 121 100 121 211c0 107 -66 193 -225 193c-207 0 -345 -159 -345 -358c0 -141 90 -214 238 -214c86 0 173 18 228 36l-11 -63c-53 -25 -134 -46 -222 -46zM372 235c23 0 44 13 58 29l40 185c-11 5 -20 7 -37 7c-52 0 -102 -79 -102 -174c0 -31 12 -47 41 -47z" />
    <glyph glyph-name="uni2009" unicode="&#x2009;" horiz-adv-x="80" 
 />
    </font>
</defs>
</svg>
