<?xml version="1.0" standalone="no"?>
<!DOCTYPE svg PUBLIC "-//W3C//DTD SVG 1.1//EN" "http://www.w3.org/Graphics/SVG/1.1/DTD/svg11.dtd" >
<svg xmlns="http://www.w3.org/2000/svg" xmlns:xlink="http://www.w3.org/1999/xlink" version="1.1">
<metadata>
Created by FontForge 20161116 at Thu Feb 13 17:42:54 2014
 By Jimmy Warting
(c)2008-09 Paul Barnes and Christian Schwartz, under exclusive license to Schwartzco Inc./Commercial Type. All rights reserved.
</metadata>
<defs>
<font id="GuardianSans-BlackIt" horiz-adv-x="499" >
  <font-face 
    font-family="Guardian Sans Black"
    font-weight="800"
    font-style="italic"
    font-stretch="normal"
    units-per-em="1000"
    panose-1="2 11 10 3 5 5 3 13 8 3"
    ascent="790"
    descent="-210"
    x-height="539"
    cap-height="693"
    bbox="-251 -228 1318 1109"
    underline-thickness="102"
    underline-position="-51"
    slope="-10"
    stemh="166"
    stemv="210"
    unicode-range="U+0020-FB04"
  />
<missing-glyph horiz-adv-x="500" 
 />
    <glyph glyph-name="f_b" unicode="fb" horiz-adv-x="923" 
d="M331 26l103 583c-12 2 -25 4 -39 4c-42 0 -62 -15 -69 -51l-4 -23h67l-25 -142h-67l-102 -592h-207l102 592h-57l25 142h56l5 28c24 126 94 182 310 182c95 0 176 -13 230 -34l-39 -220h5c41 32 78 54 145 54c84 0 149 -63 149 -174c0 -242 -115 -385 -328 -385
c-106 0 -194 13 -260 36zM599 373l-42 -237c12 -5 29 -8 45 -8c57 0 79 41 97 139c3 19 5 46 5 65c0 50 -19 61 -48 61c-23 0 -40 -9 -57 -20z" />
    <glyph glyph-name="f_f" unicode="ff" horiz-adv-x="679" 
d="M293 -195l102 592h-98l-102 -592h-207l102 592h-57l25 142h56l5 27c24 126 105 176 211 176c52 0 80 -7 98 -13l-23 -126c-5 1 -15 3 -26 3c-31 0 -49 -20 -54 -52l-3 -15h97l5 28c24 126 106 182 237 182c56 0 90 -9 110 -17l-22 -125c-12 3 -34 6 -51 6
c-41 0 -60 -16 -67 -51l-4 -23h93l-25 -142h-93l-102 -592h-207z" />
    <glyph glyph-name="f_f_b" unicode="ffb" horiz-adv-x="1228" 
d="M636 26l103 583c-11 2 -25 4 -39 4c-41 0 -62 -15 -69 -51l-4 -23h67l-25 -142h-67l-101 -592h-208l102 592h-98l-102 -592h-207l102 592h-57l25 142h56l5 27c24 126 105 176 211 176c52 0 80 -7 98 -13l-23 -126c-5 1 -15 3 -26 3c-31 0 -49 -20 -54 -52l-3 -15h97l6 28
c23 126 94 182 309 182c95 0 176 -13 230 -34l-39 -220h5c42 32 78 54 145 54c84 0 149 -63 149 -174c0 -242 -115 -385 -328 -385c-105 0 -194 13 -260 36zM905 373l-43 -237c12 -5 29 -8 45 -8c57 0 79 41 97 139c3 19 5 46 5 65c0 50 -19 61 -48 61c-23 0 -40 -9 -56 -20
z" />
    <glyph glyph-name="f_f_h" unicode="ffh" horiz-adv-x="1229" 
d="M293 -195l102 592h-98l-102 -592h-207l102 592h-57l25 142h56l5 27c24 126 105 176 211 176c52 0 80 -7 98 -13l-23 -126c-5 1 -15 3 -26 3c-31 0 -49 -20 -54 -52l-3 -15h97l6 28c23 126 94 182 309 182c95 0 176 -13 230 -34l-39 -228h5c44 38 101 62 163 62
c92 0 129 -46 129 -125c0 -18 -2 -38 -6 -59l-65 -365h-206l57 326c2 8 3 18 3 28c0 24 -11 36 -37 36c-22 0 -44 -8 -65 -22l-65 -368h-206l107 609c-11 2 -25 4 -39 4c-41 0 -62 -15 -69 -51l-4 -23h67l-25 -142h-67l-101 -592h-208z" />
    <glyph glyph-name="f_f_i" unicode="ffi" horiz-adv-x="920" 
d="M293 -195l102 592h-98l-102 -592h-207l102 592h-57l25 142h56l5 27c24 126 105 176 211 176c52 0 80 -7 98 -13l-23 -126c-5 1 -15 3 -26 3c-31 0 -49 -20 -54 -52l-3 -15h97l6 34c23 128 104 176 210 176c50 0 75 -7 93 -13l-23 -126c-6 1 -12 3 -23 3
c-26 0 -46 -18 -51 -52l-4 -22h306l-95 -539h-206l69 397h-99l-101 -592h-208zM734 584l26 149h208l-26 -149h-208z" />
    <glyph glyph-name="f_f_j" unicode="ffj" horiz-adv-x="920" 
d="M535 -177l21 127c6 -2 16 -3 25 -3c31 0 45 14 51 47l69 403h-99l-101 -592h-208l102 592h-98l-102 -592h-207l102 592h-57l25 142h56l5 27c24 126 105 176 211 176c52 0 80 -7 98 -13l-23 -126c-5 1 -15 3 -26 3c-31 0 -49 -20 -54 -52l-3 -15h97l6 34
c23 128 104 176 210 176c50 0 75 -7 93 -13l-23 -126c-6 1 -12 3 -23 3c-26 0 -46 -18 -51 -52l-4 -22h306l-95 -553c-19 -110 -63 -183 -198 -183c-56 0 -86 11 -105 20zM734 584l26 149h208l-26 -149h-208z" />
    <glyph glyph-name="f_f_k" unicode="ffk" horiz-adv-x="1225" 
d="M967 0l-87 240l-42 -240h-207l108 609c-11 2 -25 4 -39 4c-41 0 -62 -15 -69 -51l-4 -23h67l-25 -142h-67l-102 -592h-207l102 592h-98l-102 -592h-207l102 592h-57l25 142h56l5 27c24 126 105 176 212 176c51 0 79 -7 97 -13l-23 -126c-5 1 -15 3 -26 3
c-31 0 -49 -20 -54 -52l-3 -15h98l4 28c24 126 95 182 310 182c95 0 176 -13 230 -33l-70 -395l163 218h209l-201 -262l114 -277h-212z" />
    <glyph glyph-name="f_f_l" unicode="ffl" horiz-adv-x="915" 
d="M293 -195l102 592h-98l-102 -592h-207l102 592h-57l25 142h56l5 27c24 126 105 176 211 176c52 0 80 -7 98 -13l-23 -126c-5 1 -15 3 -26 3c-31 0 -49 -20 -54 -52l-3 -15h97l6 28c23 126 94 182 309 182c95 0 176 -13 230 -34l-126 -715h-206l107 609c-11 2 -25 4 -39 4
c-41 0 -62 -15 -69 -51l-4 -23h67l-25 -142h-67l-101 -592h-208z" />
    <glyph glyph-name="f_h" unicode="fh" horiz-adv-x="924" 
d="M-12 -195l102 592h-57l25 142h56l5 28c24 126 94 182 310 182c95 0 176 -13 230 -34l-39 -228h5c44 38 101 62 163 62c92 0 129 -46 129 -125c0 -18 -2 -38 -6 -59l-65 -365h-207l58 326c2 8 3 18 3 28c0 24 -11 36 -37 36c-22 0 -44 -8 -65 -22l-65 -368h-207l108 609
c-12 2 -25 4 -39 4c-42 0 -62 -15 -69 -51l-4 -23h67l-25 -142h-67l-102 -592h-207z" />
    <glyph glyph-name="f_i" unicode="fi" horiz-adv-x="615" 
d="M-12 -195l102 592h-57l25 142h56l6 34c23 128 104 176 210 176c50 0 75 -7 93 -13l-23 -126c-6 1 -12 3 -23 3c-26 0 -46 -18 -51 -52l-4 -22h306l-95 -539h-207l70 397h-99l-102 -592h-207zM429 584l25 149h209l-26 -149h-208z" />
    <glyph glyph-name="f_j" unicode="fj" horiz-adv-x="615" 
d="M230 -177l21 127c6 -2 16 -3 25 -3c31 0 45 14 51 47l69 403h-99l-102 -592h-207l102 592h-57l25 142h56l6 34c23 128 104 176 210 176c50 0 75 -7 93 -13l-23 -126c-6 1 -12 3 -23 3c-26 0 -46 -18 -51 -52l-4 -22h306l-95 -553c-19 -110 -63 -183 -199 -183
c-55 0 -85 11 -104 20zM429 584l25 149h209l-26 -149h-208z" />
    <glyph glyph-name="f_k" unicode="fk" horiz-adv-x="920" 
d="M-12 -195l102 592h-57l25 142h56l5 28c24 126 95 182 310 182c95 0 176 -13 230 -33l-70 -395l163 218h209l-201 -262l114 -277h-212l-87 240l-42 -240h-207l108 609c-11 2 -25 4 -39 4c-42 0 -62 -15 -69 -51l-4 -23h67l-25 -142h-67l-102 -592h-207z" />
    <glyph glyph-name="f_l" unicode="fl" horiz-adv-x="610" 
d="M-12 -195l102 592h-57l25 142h56l5 28c24 126 94 182 310 182c95 0 176 -13 230 -34l-126 -715h-207l108 609c-12 2 -25 4 -39 4c-42 0 -62 -15 -69 -51l-4 -23h67l-25 -142h-67l-102 -592h-207z" />
    <glyph glyph-name=".notdef" horiz-adv-x="500" 
 />
    <glyph glyph-name="Eth" unicode="&#xd0;" horiz-adv-x="696" 
d="M5 271l27 152h43l48 270h255c216 0 320 -89 320 -265c0 -241 -113 -428 -391 -428h-306l47 271h-43zM257 159h55c76 0 114 57 136 178c7 38 10 76 10 100c0 73 -31 97 -94 97h-40l-20 -111h92l-27 -152h-92z" />
    <glyph glyph-name="eth" unicode="&#xf0;" horiz-adv-x="577" 
d="M122 626l107 29c-29 29 -60 57 -91 84h227c15 -11 30 -23 45 -36l109 29l19 -74l-66 -18c57 -67 102 -154 102 -261c0 -237 -102 -389 -319 -389c-173 0 -242 103 -242 215c0 194 100 327 254 327c24 0 46 -6 58 -14h6c-12 25 -28 49 -45 72l-144 -38zM365 373
c0 10 -1 20 -2 30c-11 6 -24 9 -42 9c-44 0 -70 -35 -88 -131c-6 -32 -10 -63 -10 -86c0 -50 21 -67 48 -67c39 0 65 32 83 132c7 37 11 75 11 113z" />
    <glyph glyph-name="Lslash" unicode="&#x141;" horiz-adv-x="544" 
d="M10 0l38 211l-54 -18l26 153l55 18l57 329h233l-43 -246l170 58l-27 -153l-171 -59l-23 -132h246l-29 -161h-478z" />
    <glyph glyph-name="lslash" unicode="&#x142;" horiz-adv-x="310" 
d="M-2 224l27 154l52 24l60 337h206l-42 -234l62 28l-27 -154l-62 -28l-61 -351h-206l43 248z" />
    <glyph glyph-name="Scaron" unicode="&#x160;" horiz-adv-x="543" 
d="M553 864l-131 -139h-164l-80 139h141l35 -39l50 39h149zM208 -10c-94 0 -184 24 -226 53l31 154c58 -26 106 -43 174 -43c72 0 97 24 97 59c0 24 -10 35 -57 51l-39 14c-102 32 -133 94 -133 184c0 153 93 243 288 243c129 0 186 -28 222 -49l-32 -152
c-46 18 -104 37 -186 37c-44 0 -71 -17 -71 -49c0 -23 9 -36 48 -49l46 -15c113 -36 146 -102 146 -192c0 -158 -103 -246 -308 -246z" />
    <glyph glyph-name="scaron" unicode="&#x161;" horiz-adv-x="467" 
d="M194 579l-76 159h142l34 -50l52 50h149l-136 -159h-165zM185 -10c-77 0 -161 19 -199 42l24 135c37 -18 98 -37 154 -37c57 0 73 14 73 34c0 18 -14 23 -48 32l-40 11c-69 18 -114 58 -114 147c0 128 89 195 246 195c82 0 136 -15 177 -35l-25 -134
c-33 15 -86 31 -137 31c-48 0 -64 -9 -64 -33c0 -17 19 -24 42 -30l39 -11c104 -28 127 -73 127 -142c0 -119 -63 -205 -255 -205z" />
    <glyph glyph-name="Yacute" unicode="&#xdd;" horiz-adv-x="642" 
d="M161 0l48 273l-133 420h231l58 -237h3l134 237h217l-278 -424l-47 -269h-233zM329 725l76 147h201l-119 -147h-158z" />
    <glyph glyph-name="yacute" unicode="&#xfd;" horiz-adv-x="572" 
d="M67 -198c-54 0 -95 11 -115 22l24 133c19 -5 43 -9 67 -9c43 0 66 14 80 44l11 22l-85 525h208l25 -293h4l136 293h201l-298 -562c-62 -118 -122 -175 -258 -175zM254 579l85 159h201l-127 -159h-159z" />
    <glyph glyph-name="Thorn" unicode="&#xde;" horiz-adv-x="653" 
d="M-3 0l122 693h233l-19 -104h72c175 0 254 -73 254 -190c0 -174 -99 -268 -312 -268h-94l-23 -131h-233zM277 271h56c69 0 96 38 96 105c0 42 -25 59 -66 59h-57z" />
    <glyph glyph-name="thorn" unicode="&#xfe;" horiz-adv-x="586" 
d="M-45 -195l164 934h207l-43 -244h5c41 32 78 54 145 54c84 0 149 -64 149 -176c0 -256 -119 -383 -288 -383c-35 0 -76 4 -98 16l-35 -201h-206zM265 128c58 0 79 39 96 137c3 19 6 46 6 65c0 51 -19 63 -48 63c-24 0 -40 -9 -57 -20l-42 -237c12 -5 29 -8 45 -8z" />
    <glyph glyph-name="Zcaron" unicode="&#x17d;" horiz-adv-x="586" 
d="M599 864l-131 -139h-164l-80 139h141l35 -39l50 39h149zM-18 0l28 156l316 372v4h-237l29 161h514l-28 -156l-318 -372v-4h256l-28 -161h-532z" />
    <glyph glyph-name="zcaron" unicode="&#x17e;" horiz-adv-x="485" 
d="M227 579l-76 159h142l34 -50l52 50h149l-136 -159h-165zM-27 0l27 144l232 251v3h-184l24 141h439l-22 -132l-247 -262v-3h206l-25 -142h-450z" />
    <glyph glyph-name="onehalf" unicode="&#xbd;" horiz-adv-x="925" 
d="M50 -40l621 753h139l-620 -753h-140zM90 268l49 278l-75 -7l17 96l143 59h104l-74 -426h-164zM527 0l19 106l88 63c56 40 85 68 85 109c0 25 -21 35 -54 35s-59 -4 -79 -13l19 106c29 15 89 27 142 27c98 0 153 -42 153 -118c0 -68 -49 -127 -126 -174l-41 -25v-2h141
l-20 -114h-327z" />
    <glyph glyph-name="onequarter" unicode="&#xbc;" horiz-adv-x="909" 
d="M90 268l49 278l-75 -7l17 96l143 59h104l-74 -426h-164zM52 -40l621 753h139l-620 -753h-140zM630 0l16 91h-180l17 98l228 237h156l-41 -232h53l-19 -103h-53l-16 -91h-161zM609 191h60l16 89h-3l-73 -87v-2z" />
    <glyph glyph-name="threequarters" unicode="&#xbe;" horiz-adv-x="937" 
d="M164 261c-48 0 -107 12 -135 25l18 99c22 -6 50 -11 76 -11c37 0 71 13 71 37c0 17 -13 26 -44 26h-37l17 93h34c39 0 58 9 58 33c0 17 -17 27 -56 27c-34 0 -51 -2 -72 -8l16 97c32 12 67 23 129 23c84 0 148 -31 148 -100c0 -59 -46 -96 -101 -109v-2
c51 -8 78 -32 78 -88c0 -80 -64 -142 -200 -142zM95 -43l621 753h139l-620 -753h-140zM658 0l16 91h-180l17 98l228 237h156l-41 -232h53l-19 -103h-53l-16 -91h-161zM637 191h60l16 89h-3l-73 -87v-2z" />
    <glyph glyph-name="brokenbar" unicode="&#xa6;" horiz-adv-x="311" 
d="M67 -120v404h183v-404h-183zM67 367v371h183v-371h-183z" />
    <glyph glyph-name="minus" unicode="&#x2212;" horiz-adv-x="518" 
d="M26 265l28 157h469l-27 -157h-470z" />
    <glyph glyph-name="multiply" unicode="&#xd7;" horiz-adv-x="554" 
d="M129 95l-99 112l146 124l-102 122l126 111l103 -126l147 126l100 -111l-148 -125l104 -121l-127 -112l-104 126z" />
    <glyph glyph-name="space" unicode=" " horiz-adv-x="157" 
 />
    <glyph glyph-name="exclam" unicode="!" horiz-adv-x="310" 
d="M64 237l50 456h236l-112 -456h-174zM13 0l30 172h194l-31 -172h-193z" />
    <glyph glyph-name="quotedbl" unicode="&#x22;" horiz-adv-x="469" 
d="M303 462l27 231h187l-58 -231h-156zM76 462l26 231h188l-59 -231h-155z" />
    <glyph glyph-name="numbersign" unicode="#" horiz-adv-x="553" 
d="M64 393l26 150h85l39 150h130l-39 -150h76l39 150h130l-39 -150h66l-26 -150h-78l-23 -90h71l-26 -150h-84l-39 -153h-130l39 153h-76l-39 -153h-130l39 153h-65l26 150h77l23 90h-72zM266 393l-22 -90h76l23 90h-77z" />
    <glyph glyph-name="dollar" unicode="$" horiz-adv-x="551" 
d="M62 -118l46 119c-50 10 -93 25 -117 42l32 143c40 -19 85 -33 142 -39l48 124c-110 27 -155 92 -155 191c0 153 97 243 292 243c11 0 17 0 31 -1l24 61h90l-27 -70c52 -10 84 -26 106 -39l-31 -142c-34 12 -78 24 -134 31l-46 -118c138 -32 166 -101 166 -189
c0 -158 -91 -248 -304 -248c-10 0 -15 0 -31 1l-42 -109h-90zM340 206c0 23 -9 35 -45 45l-42 -108c66 2 87 28 87 63zM242 495c0 -24 5 -38 39 -48l41 104h-10c-45 0 -70 -19 -70 -56z" />
    <glyph glyph-name="percent" unicode="%" horiz-adv-x="934" 
d="M236 401c23 0 41 21 51 92c4 21 8 52 8 67c0 28 -9 41 -28 41c-24 0 -41 -21 -52 -92c-3 -20 -6 -46 -6 -63c0 -32 8 -45 27 -45zM700 94c24 0 41 21 52 92c3 21 7 51 7 67c0 28 -9 41 -27 41c-25 0 -42 -21 -52 -92c-4 -20 -7 -46 -7 -63c0 -32 8 -45 27 -45zM225 297
c-101 0 -169 50 -169 159c0 145 89 249 222 249c99 0 169 -47 169 -155c0 -145 -94 -253 -222 -253zM264 -40h-140l563 753h140zM689 -10c-101 0 -169 50 -169 159c0 145 95 249 222 249c99 0 169 -47 169 -155c0 -145 -90 -253 -222 -253z" />
    <glyph glyph-name="ampersand" unicode="&#x26;" horiz-adv-x="722" 
d="M250 -11c-162 0 -247 61 -247 185c0 119 78 190 176 227c-16 30 -25 62 -25 90c0 126 84 214 250 214c143 0 210 -70 210 -154c0 -97 -62 -144 -170 -187l66 -102c17 29 29 58 38 95h158c-22 -88 -58 -159 -115 -218l91 -139h-243l-21 32c-58 -30 -104 -43 -168 -43z
M295 128c19 0 35 4 49 12l-99 153c-19 -26 -32 -40 -32 -77c0 -48 23 -88 82 -88zM384 451c37 28 51 49 51 84c0 32 -13 49 -35 49c-28 0 -44 -24 -44 -60c0 -25 14 -52 28 -73z" />
    <glyph glyph-name="quotesingle" unicode="'" horiz-adv-x="241" 
d="M76 462l26 231h188l-59 -231h-155z" />
    <glyph glyph-name="parenleft" unicode="(" horiz-adv-x="406" 
d="M170 -120c-65 67 -136 190 -136 343c0 250 145 433 270 516h179c-130 -124 -242 -300 -242 -527c0 -138 46 -251 97 -332h-168z" />
    <glyph glyph-name="parenright" unicode=")" horiz-adv-x="406" 
d="M-58 -120c130 124 242 300 242 527c0 138 -45 251 -97 332h168c65 -67 137 -190 137 -343c0 -250 -145 -433 -271 -516h-179z" />
    <glyph glyph-name="asterisk" unicode="*" horiz-adv-x="425" 
d="M159 310l26 107l-93 -58l-40 118l105 29l-93 42l81 111l72 -68l10 102h125l-26 -108l94 58l40 -117l-104 -30l91 -41l-80 -112l-72 68l-11 -101h-125z" />
    <glyph glyph-name="plus" unicode="+" horiz-adv-x="526" 
d="M149 108l28 157h-151l28 157h151l27 158h176l-28 -158h151l-28 -157h-151l-28 -157h-175z" />
    <glyph glyph-name="comma" unicode="," horiz-adv-x="261" 
d="M-23 -67l46 243h199l-88 -243h-157z" />
    <glyph glyph-name="hyphen" unicode="-" horiz-adv-x="336" 
d="M24 210l28 161h272l-28 -161h-272z" />
    <glyph glyph-name="period" unicode="." horiz-adv-x="262" 
d="M-11 0l30 176h196l-31 -176h-195z" />
    <glyph glyph-name="slash" unicode="/" horiz-adv-x="416" 
d="M-76 -120l394 859h183l-393 -859h-184z" />
    <glyph glyph-name="zero" unicode="0" horiz-adv-x="682" 
d="M307 -11c-156 0 -276 77 -276 256c0 65 7 107 19 164c43 208 193 295 358 295c156 0 275 -78 275 -256c0 -57 -9 -116 -18 -163c-41 -211 -182 -296 -358 -296zM326 150c52 0 78 41 98 150c12 65 22 132 22 166c0 54 -17 77 -57 77c-52 0 -80 -42 -99 -147
c-10 -54 -22 -133 -22 -166c0 -59 18 -80 58 -80z" />
    <glyph glyph-name="one" unicode="1" horiz-adv-x="401" 
d="M68 0l85 483l-97 -8l23 133l202 86h142l-123 -694h-232z" />
    <glyph glyph-name="two" unicode="2" horiz-adv-x="530" 
d="M-24 0l27 150l150 115c93 72 143 131 143 200c0 52 -35 68 -94 68c-41 0 -87 -10 -128 -21l27 151c56 26 119 42 204 42c158 0 238 -80 238 -189c0 -117 -72 -209 -196 -296l-77 -56v-3h220l-28 -161h-486z" />
    <glyph glyph-name="three" unicode="3" horiz-adv-x="518" 
d="M193 -12c-109 0 -172 21 -212 42l26 148c39 -12 81 -23 132 -23c87 0 114 28 114 72c0 40 -30 52 -85 52h-62l26 146h56c67 0 106 18 106 63c0 28 -22 49 -83 49c-55 0 -93 -6 -137 -18l27 149c60 22 102 37 197 37c139 0 225 -65 225 -160c0 -94 -63 -157 -150 -178v-4
c76 -15 118 -63 118 -137c0 -124 -94 -238 -298 -238z" />
    <glyph glyph-name="four" unicode="4" horiz-adv-x="647" 
d="M263 0l28 156h-292l25 143l371 395h217l-68 -385h97l-27 -153h-97l-27 -156h-227zM201 309h121l28 160h-4l-145 -157v-3z" />
    <glyph glyph-name="five" unicode="5" horiz-adv-x="539" 
d="M178 -12c-81 0 -161 20 -203 42l27 152c40 -12 77 -22 137 -22c90 0 133 22 133 81c0 40 -32 57 -111 57c-51 0 -74 -3 -116 -11l76 406h422l-29 -161h-253l-19 -96c22 4 29 7 66 7c138 0 208 -76 208 -177c0 -178 -123 -278 -338 -278z" />
    <glyph glyph-name="six" unicode="6" horiz-adv-x="630" 
d="M303 -12c-179 0 -274 93 -274 255c0 135 42 262 112 340c75 85 178 122 301 122c91 0 150 -16 183 -35l-27 -156c-29 9 -73 20 -136 20c-100 0 -155 -37 -178 -127c33 21 79 36 137 36c122 0 189 -69 189 -183c0 -154 -105 -272 -307 -272zM314 134c51 0 70 52 70 118
c0 39 -15 57 -56 57c-25 0 -43 -7 -62 -18c-7 -36 -10 -70 -10 -87c0 -49 17 -70 58 -70z" />
    <glyph glyph-name="seven" unicode="7" horiz-adv-x="559" 
d="M24 0l329 520v5h-289l30 168h525l-26 -149l-312 -544h-257z" />
    <glyph glyph-name="eight" unicode="8" horiz-adv-x="632" 
d="M284 -12c-186 0 -272 72 -272 173c0 85 49 139 148 173c-59 33 -84 80 -84 140c0 147 121 231 307 231c163 0 243 -73 243 -167c0 -82 -47 -130 -133 -172c60 -29 104 -80 104 -144c0 -143 -114 -234 -313 -234zM292 128c57 0 84 38 84 80c0 34 -33 56 -100 82
c-39 -23 -64 -53 -64 -96c0 -37 25 -66 80 -66zM374 425c35 19 60 43 60 83c0 28 -19 55 -66 55c-55 0 -77 -26 -77 -62c0 -29 20 -53 83 -76z" />
    <glyph glyph-name="nine" unicode="9" horiz-adv-x="631" 
d="M223 -12c-92 0 -156 16 -190 38l27 157c30 -14 79 -25 143 -25c100 0 166 39 178 128c-33 -21 -80 -37 -137 -37c-120 0 -190 70 -190 183c0 154 105 273 306 273c180 0 275 -94 275 -257c0 -138 -36 -267 -108 -346c-72 -82 -177 -114 -304 -114zM337 384
c23 0 42 7 61 18c6 36 10 69 10 86c0 50 -18 71 -59 71c-50 0 -70 -53 -70 -119c0 -38 15 -56 58 -56z" />
    <glyph glyph-name="colon" unicode=":" horiz-adv-x="269" 
d="M42 287l31 176h196l-32 -176h-195zM-8 0l31 176h195l-31 -176h-195z" />
    <glyph glyph-name="semicolon" unicode=";" horiz-adv-x="269" 
d="M-23 -67l46 243h199l-89 -243h-156zM42 287l31 176h196l-32 -176h-195z" />
    <glyph glyph-name="less" unicode="&#x3c;" horiz-adv-x="469" 
d="M401 70l-375 179l28 156l436 170l-30 -169l-239 -83l208 -93z" />
    <glyph glyph-name="equal" unicode="=" horiz-adv-x="516" 
d="M46 339l27 154h452l-27 -154h-452zM7 110l27 155h452l-27 -155h-452z" />
    <glyph glyph-name="greater" unicode="&#x3e;" horiz-adv-x="469" 
d="M3 70l30 169l238 84l-207 93l28 159l374 -179l-28 -156z" />
    <glyph glyph-name="question" unicode="?" horiz-adv-x="446" 
d="M83 237l7 37c11 65 31 89 99 133c49 31 65 52 65 88c0 30 -17 50 -79 50c-52 0 -80 -7 -112 -15l25 145c50 17 97 30 179 30c138 0 209 -63 209 -172c0 -79 -31 -135 -115 -190c-64 -42 -93 -56 -99 -90l-3 -16h-176zM34 0l30 172h195l-30 -172h-195z" />
    <glyph glyph-name="at" unicode="@" horiz-adv-x="948" 
d="M399 -163c-221 0 -372 130 -372 336c0 297 202 507 523 507c249 0 384 -138 384 -307c0 -222 -145 -339 -307 -339c-79 0 -118 26 -127 62h-5c-20 -40 -77 -62 -122 -62c-76 0 -130 57 -130 148c0 174 125 298 277 298c91 0 140 -16 180 -33l-52 -274
c-4 -18 4 -31 24 -31c77 0 138 101 138 218s-73 217 -271 217c-232 0 -388 -160 -388 -401c0 -162 108 -238 264 -238c107 0 198 15 273 42l-16 -89c-56 -35 -158 -54 -273 -54zM449 162c16 0 25 8 32 16l37 186c-5 3 -12 4 -19 4c-47 0 -82 -88 -82 -162
c0 -36 15 -44 32 -44z" />
    <glyph glyph-name="A" unicode="A" horiz-adv-x="701" 
d="M-48 0l360 693h251l96 -693h-232l-11 115h-200l-54 -115h-210zM378 470l-98 -212h122l-20 212h-4z" />
    <glyph glyph-name="B" unicode="B" horiz-adv-x="643" 
d="M-3 0l122 693h303c137 0 214 -64 214 -159s-49 -148 -137 -173v-3c80 -13 123 -51 123 -125c0 -126 -86 -233 -282 -233h-343zM249 142h51c53 0 86 28 86 89c0 36 -14 61 -60 61h-50zM296 411h44c48 0 79 28 79 88c0 35 -17 55 -56 55h-41z" />
    <glyph glyph-name="C" unicode="C" horiz-adv-x="566" 
d="M330 -10c-191 0 -301 92 -301 279c0 124 36 232 95 305c74 92 180 131 313 131c88 0 138 -13 173 -33l-28 -160c-30 12 -66 21 -123 21c-93 0 -142 -41 -166 -123c-13 -43 -21 -82 -21 -133c0 -88 49 -117 119 -117c61 0 111 15 143 26l-28 -163
c-36 -18 -92 -33 -176 -33z" />
    <glyph glyph-name="D" unicode="D" horiz-adv-x="692" 
d="M-3 0l122 693h254c217 0 320 -89 320 -265c0 -241 -112 -428 -391 -428h-305zM257 159h51c76 0 113 57 136 178c7 38 10 76 10 100c0 73 -31 97 -94 97h-37z" />
    <glyph glyph-name="E" unicode="E" horiz-adv-x="561" 
d="M-3 0l122 693h484l-29 -161h-254l-17 -101h195l-28 -158h-195l-20 -112h267l-29 -161h-496z" />
    <glyph glyph-name="F" unicode="F" horiz-adv-x="548" 
d="M-3 0l122 693h486l-29 -161h-253l-23 -129h195l-27 -159h-196l-43 -244h-232z" />
    <glyph glyph-name="G" unicode="G" horiz-adv-x="679" 
d="M357 -10c-214 0 -323 89 -323 279c0 125 41 233 91 300c75 99 191 136 327 136c120 0 179 -22 216 -45l-28 -166c-39 17 -96 36 -176 36c-101 0 -155 -47 -179 -150c-9 -41 -16 -85 -16 -130c0 -66 37 -100 94 -100c22 0 36 2 50 8l16 85h-63l25 145h278l-63 -360
c-61 -21 -149 -38 -249 -38z" />
    <glyph glyph-name="H" unicode="H" horiz-adv-x="722" 
d="M-3 0l122 693h233l-46 -257h172l46 257h233l-123 -693h-233l49 273h-172l-49 -273h-232z" />
    <glyph glyph-name="I" unicode="I" horiz-adv-x="321" 
d="M-1 0l122 693h233l-123 -693h-232z" />
    <glyph glyph-name="J" unicode="J" horiz-adv-x="433" 
d="M136 -8c-73 0 -131 15 -163 35l27 151c16 -4 43 -9 69 -9c62 0 82 25 93 85l78 439h233l-77 -438c-31 -181 -95 -263 -260 -263z" />
    <glyph glyph-name="K" unicode="K" horiz-adv-x="685" 
d="M-3 0l122 693h233l-52 -293l226 293h235l-266 -344l148 -349h-243l-117 301l-53 -301h-233z" />
    <glyph glyph-name="L" unicode="L" horiz-adv-x="530" 
d="M-3 0l122 693h233l-94 -532h244l-29 -161h-476z" />
    <glyph glyph-name="M" unicode="M" horiz-adv-x="883" 
d="M-3 0l122 693h298l28 -360h4l158 360h311l-122 -693h-228l75 430h-3l-187 -430h-155l-32 431h-4l-76 -431h-189z" />
    <glyph glyph-name="N" unicode="N" horiz-adv-x="700" 
d="M-3 0l122 693h246l109 -350h4l61 350h196l-122 -693h-225l-125 383h-3l-68 -383h-195z" />
    <glyph glyph-name="O" unicode="O" horiz-adv-x="718" 
d="M326 -12c-178 0 -295 95 -295 279c0 261 156 438 393 438c179 0 296 -95 296 -279c0 -262 -154 -438 -394 -438zM346 154c62 0 101 65 123 194c5 32 9 71 9 101c0 66 -26 90 -73 90c-55 0 -99 -51 -123 -194c-8 -41 -10 -75 -10 -101c0 -68 29 -90 74 -90z" />
    <glyph glyph-name="P" unicode="P" horiz-adv-x="635" 
d="M-3 0l122 693h277c181 0 260 -77 260 -206c0 -189 -120 -273 -327 -273h-66l-38 -214h-228zM288 356h45c59 0 89 43 89 119c0 44 -20 64 -64 64h-38z" />
    <glyph glyph-name="Q" unicode="Q" horiz-adv-x="718" 
d="M630 -112l-366 96c-144 37 -233 112 -233 283c0 261 156 438 393 438c179 0 296 -95 296 -279c0 -198 -95 -302 -213 -342l180 -33zM346 154c62 0 101 65 123 194c5 32 9 71 9 101c0 66 -26 90 -73 90c-55 0 -99 -51 -123 -194c-8 -41 -10 -75 -10 -101
c0 -68 29 -90 74 -90z" />
    <glyph glyph-name="R" unicode="R" horiz-adv-x="666" 
d="M-3 0l122 693h304c156 0 234 -72 234 -189c0 -104 -45 -177 -139 -208v-3l102 -293h-232l-72 237h-53l-34 -237h-232zM291 371h48c65 0 85 49 85 113c0 39 -22 57 -59 57h-44z" />
    <glyph glyph-name="S" unicode="S" horiz-adv-x="543" 
d="M208 -10c-94 0 -184 24 -226 53l31 154c58 -26 106 -43 174 -43c72 0 97 24 97 59c0 24 -10 35 -57 51l-39 14c-102 32 -133 94 -133 184c0 153 93 243 288 243c129 0 186 -28 222 -49l-32 -152c-46 18 -104 37 -186 37c-44 0 -71 -17 -71 -49c0 -23 9 -36 48 -49l46 -15
c113 -36 146 -102 146 -192c0 -158 -103 -246 -308 -246z" />
    <glyph glyph-name="T" unicode="T" horiz-adv-x="590" 
d="M133 0l94 532h-169l29 161h570l-29 -161h-168l-94 -532h-233z" />
    <glyph glyph-name="U" unicode="U" horiz-adv-x="683" 
d="M317 -12c-191 0 -284 74 -284 217c0 23 2 47 7 73l73 415h233l-76 -431c-2 -13 -3 -24 -3 -37c0 -45 24 -69 76 -69c61 0 87 34 98 101l77 436h206l-78 -445c-31 -176 -117 -260 -329 -260z" />
    <glyph glyph-name="V" unicode="V" horiz-adv-x="693" 
d="M172 0l-94 693h228l41 -432h4l201 432h218l-356 -693h-242z" />
    <glyph glyph-name="W" unicode="W" horiz-adv-x="958" 
d="M126 0l-44 693h225l10 -405h4l151 405h188l23 -405h4l138 405h205l-269 -693h-236l-16 390h-3l-143 -390h-237z" />
    <glyph glyph-name="X" unicode="X" horiz-adv-x="695" 
d="M-43 0l249 364l-110 329h242l57 -216h4l128 216h235l-238 -337l121 -356h-242l-67 232h-4l-140 -232h-235z" />
    <glyph glyph-name="Y" unicode="Y" horiz-adv-x="642" 
d="M161 0l48 273l-133 420h231l58 -237h3l134 237h217l-278 -424l-47 -269h-233z" />
    <glyph glyph-name="Z" unicode="Z" horiz-adv-x="586" 
d="M-18 0l28 156l316 372v4h-237l29 161h514l-28 -156l-318 -372v-4h256l-28 -161h-532z" />
    <glyph glyph-name="bracketleft" unicode="[" horiz-adv-x="390" 
d="M-24 -120l150 859h323l-26 -150h-116l-99 -559h116l-26 -150h-322z" />
    <glyph glyph-name="backslash" unicode="\" horiz-adv-x="416" 
d="M191 -120l-105 859h172l105 -859h-172z" />
    <glyph glyph-name="bracketright" unicode="]" horiz-adv-x="390" 
d="M-39 -120l26 150h115l99 559h-116l26 150h323l-151 -859h-322z" />
    <glyph glyph-name="asciicircum" unicode="^" horiz-adv-x="495" 
d="M43 433l198 260h167l107 -260h-162l-54 105l-91 -105h-165z" />
    <glyph glyph-name="underscore" unicode="_" horiz-adv-x="402" 
d="M-79 -172l21 126h411l-23 -126h-409z" />
    <glyph glyph-name="grave" unicode="`" 
d="M240 579l-77 159h192l35 -159h-150z" />
    <glyph glyph-name="a" unicode="a" horiz-adv-x="573" 
d="M166 -10c-99 0 -155 67 -155 179c0 253 160 380 353 380c100 0 185 -19 221 -32l-92 -517h-168l-6 61h-5c-35 -40 -85 -71 -148 -71zM265 133c22 0 38 11 50 22l43 244c-7 4 -13 6 -25 6c-53 0 -87 -42 -104 -141c-4 -22 -9 -48 -9 -77c0 -36 14 -54 45 -54z" />
    <glyph glyph-name="b" unicode="b" horiz-adv-x="586" 
d="M254 -10c-106 0 -194 13 -260 36l125 713h207l-43 -244h5c41 32 78 54 144 54c85 0 150 -63 150 -174c0 -242 -116 -385 -328 -385zM265 128c57 0 79 41 96 139c3 19 6 46 6 65c0 50 -19 61 -48 61c-24 0 -40 -9 -57 -20l-42 -237c12 -5 28 -8 45 -8z" />
    <glyph glyph-name="c" unicode="c" horiz-adv-x="459" 
d="M253 -10c-161 0 -240 82 -240 220c0 81 22 156 59 212c52 80 141 127 270 127c67 0 116 -15 142 -30l-25 -141c-26 11 -48 18 -95 18c-83 0 -116 -27 -136 -104c-5 -18 -8 -38 -8 -58c0 -60 29 -91 96 -91c46 0 85 11 112 20l-24 -139c-26 -16 -65 -34 -151 -34z" />
    <glyph glyph-name="d" unicode="d" horiz-adv-x="585" 
d="M167 -10c-101 0 -156 66 -156 177c0 250 136 382 290 382c54 0 79 -12 92 -18l36 208h207l-130 -739h-169l-6 61h-5c-36 -40 -98 -71 -159 -71zM266 133c26 0 47 12 61 22l43 245c-11 7 -23 12 -45 12c-55 0 -81 -47 -98 -153c-3 -20 -7 -46 -7 -66c0 -40 12 -60 46 -60z
" />
    <glyph glyph-name="e" unicode="e" horiz-adv-x="541" 
d="M267 -10c-173 0 -254 83 -254 220c0 85 21 161 61 219c51 74 133 120 243 120c190 0 240 -118 212 -287l-7 -42h-301c2 -61 25 -87 112 -87c61 0 120 15 154 29l-22 -127c-47 -24 -96 -45 -198 -45zM305 416c-36 0 -61 -25 -75 -90h115c11 60 1 90 -40 90z" />
    <glyph glyph-name="f" unicode="f" horiz-adv-x="374" 
d="M-12 -195l102 592h-57l25 142h56l5 28c24 126 106 182 237 182c56 0 90 -9 110 -17l-22 -125c-12 3 -34 6 -51 6c-41 0 -60 -16 -67 -51l-4 -23h93l-25 -142h-93l-102 -592h-207z" />
    <glyph glyph-name="g" unicode="g" horiz-adv-x="587" 
d="M196 -202c-88 0 -180 20 -221 45l25 140c48 -20 105 -33 167 -33c110 0 133 39 143 98l4 24h-5c-34 -33 -74 -55 -137 -55c-102 0 -157 72 -157 179c0 208 113 353 348 353c103 0 190 -21 235 -39l-83 -473c-31 -176 -130 -239 -319 -239zM269 151c23 0 50 12 63 22
l40 229c-9 4 -26 8 -40 8c-48 0 -82 -36 -99 -125c-4 -22 -7 -44 -7 -70c0 -38 13 -64 43 -64z" />
    <glyph glyph-name="h" unicode="h" horiz-adv-x="586" 
d="M-11 0l131 739h207l-44 -252h5c44 38 100 62 163 62c91 0 128 -46 128 -125c0 -18 -2 -38 -5 -59l-65 -365h-207l58 326c1 8 3 18 3 28c0 24 -12 36 -37 36c-22 0 -44 -8 -66 -22l-64 -368h-207z" />
    <glyph glyph-name="i" unicode="i" horiz-adv-x="281" 
d="M-8 0l95 539h207l-95 -539h-207zM94 584l26 149h209l-26 -149h-209z" />
    <glyph glyph-name="j" unicode="j" horiz-adv-x="281" 
d="M-33 -197c-46 0 -90 12 -109 22l24 127c8 -2 22 -5 40 -5c44 0 63 12 70 54l95 538h207l-97 -553c-20 -113 -80 -183 -230 -183zM94 584l26 149h209l-26 -149h-209z" />
    <glyph glyph-name="k" unicode="k" horiz-adv-x="582" 
d="M325 0l-87 241l-43 -241h-206l130 739h207l-74 -418l162 218h209l-201 -262l115 -277h-212z" />
    <glyph glyph-name="l" unicode="l" horiz-adv-x="279" 
d="M-9 0l130 739h207l-130 -739h-207z" />
    <glyph glyph-name="m" unicode="m" horiz-adv-x="875" 
d="M-11 0l95 539h201l-11 -61h5c47 44 100 71 168 71c62 0 99 -27 113 -75h4c55 47 112 75 181 75c87 0 123 -45 123 -124c0 -18 -2 -39 -6 -60l-64 -365h-207l58 326c1 8 3 19 3 29c0 23 -10 35 -31 35c-19 0 -37 -7 -60 -21v-8l-64 -361h-207l58 326c1 7 3 19 3 29
c0 23 -10 35 -31 35s-37 -7 -59 -21l-65 -369h-207z" />
    <glyph glyph-name="n" unicode="n" horiz-adv-x="586" 
d="M-11 0l95 539h201l-11 -62h5c49 44 108 72 172 72c90 0 128 -46 128 -125c0 -18 -2 -38 -5 -59l-65 -365h-207l58 326c1 8 3 18 3 28c0 24 -12 36 -37 36c-22 0 -44 -8 -66 -22l-64 -368h-207z" />
    <glyph glyph-name="o" unicode="o" horiz-adv-x="579" 
d="M249 -10c-167 0 -237 102 -237 215c0 184 112 344 318 344c167 0 242 -101 242 -214c0 -206 -116 -345 -323 -345zM270 128c39 0 65 32 83 132c6 36 10 64 10 86c0 49 -20 66 -47 66c-39 0 -66 -36 -84 -132c-7 -33 -10 -62 -10 -86c0 -49 20 -66 48 -66z" />
    <glyph glyph-name="p" unicode="p" horiz-adv-x="586" 
d="M-45 -195l129 734h201l-9 -51h5c44 38 85 61 152 61c84 0 149 -64 149 -176c0 -256 -119 -383 -288 -383c-35 0 -76 4 -98 16l-35 -201h-206zM265 128c58 0 79 39 95 136c4 18 6 45 6 65c0 50 -19 62 -48 62c-23 0 -40 -9 -57 -20l-41 -235c12 -5 29 -8 45 -8z" />
    <glyph glyph-name="q" unicode="q" horiz-adv-x="585" 
d="M265 -195l42 239h-5c-26 -26 -77 -54 -136 -54c-100 0 -155 66 -155 177c0 256 131 382 342 382c94 0 188 -18 243 -37l-124 -707h-207zM267 142c27 0 48 11 62 21l41 237c-11 6 -21 11 -43 11c-56 0 -82 -44 -98 -144c-4 -20 -7 -43 -7 -66c0 -39 12 -59 45 -59z" />
    <glyph glyph-name="r" unicode="r" horiz-adv-x="395" 
d="M-10 0l94 539h200l-12 -70h5c29 42 70 75 126 75c13 0 24 -1 30 -4l-32 -183c-11 3 -30 6 -48 6c-46 0 -67 -7 -97 -19l-60 -344h-206z" />
    <glyph glyph-name="s" unicode="s" horiz-adv-x="467" 
d="M185 -10c-77 0 -161 19 -199 42l24 135c37 -18 98 -37 154 -37c57 0 73 14 73 34c0 18 -14 23 -48 32l-40 11c-69 18 -114 58 -114 147c0 128 89 195 246 195c82 0 136 -15 177 -35l-25 -134c-33 15 -86 31 -137 31c-48 0 -64 -9 -64 -33c0 -17 19 -24 42 -30l39 -11
c104 -28 127 -73 127 -142c0 -119 -63 -205 -255 -205z" />
    <glyph glyph-name="t" unicode="t" horiz-adv-x="395" 
d="M209 -9c-128 0 -177 57 -156 175l41 233h-60l24 140h61l23 127h207l-23 -127h100l-24 -140h-101l-38 -214c-6 -30 5 -44 43 -44c16 0 38 3 52 6l-24 -133c-22 -12 -68 -23 -125 -23z" />
    <glyph glyph-name="u" unicode="u" horiz-adv-x="584" 
d="M144 -10c-87 0 -130 47 -130 131c0 16 1 32 5 55l64 363h207l-59 -332c-2 -12 -3 -21 -3 -29c0 -25 10 -34 36 -34c23 0 42 8 63 22l66 373h207l-95 -539h-175l-8 63h-5c-47 -45 -104 -73 -173 -73z" />
    <glyph glyph-name="v" unicode="v" horiz-adv-x="571" 
d="M106 0l-57 539h204l15 -331h4l146 331h203l-294 -539h-221z" />
    <glyph glyph-name="w" unicode="w" horiz-adv-x="790" 
d="M82 0l-28 539h201l3 -281h4l114 281h152l7 -281h4l111 281h186l-241 -539h-192l-9 276h-3l-117 -276h-192z" />
    <glyph glyph-name="x" unicode="x" horiz-adv-x="569" 
d="M-46 0l202 282l-93 257h212l40 -152l87 152h205l-182 -255l97 -284h-212l-48 165l-103 -165h-205z" />
    <glyph glyph-name="y" unicode="y" horiz-adv-x="572" 
d="M67 -198c-54 0 -95 11 -115 22l24 133c19 -5 43 -9 67 -9c43 0 66 14 80 44l11 22l-85 525h208l25 -293h4l136 293h201l-298 -562c-62 -118 -122 -175 -258 -175z" />
    <glyph glyph-name="z" unicode="z" horiz-adv-x="485" 
d="M-27 0l27 144l232 251v3h-184l24 141h439l-22 -132l-247 -262v-3h206l-25 -142h-450z" />
    <glyph glyph-name="braceleft" unicode="{" horiz-adv-x="399" 
d="M305 -122c-191 2 -250 50 -250 138c0 15 2 30 5 46l17 98c7 51 -10 70 -63 74l26 149c50 5 79 16 88 69l18 97c22 123 88 190 311 192l-26 -152c-56 -4 -75 -19 -84 -71l-14 -78c-11 -68 -46 -114 -142 -131v-3c63 -13 99 -38 99 -96c0 -11 -1 -24 -4 -36l-13 -78
c-8 -48 5 -62 59 -66z" />
    <glyph glyph-name="bar" unicode="|" horiz-adv-x="287" 
d="M73 -120v859h158v-859h-158z" />
    <glyph glyph-name="braceright" unicode="}" horiz-adv-x="399" 
d="M-40 -122l26 152c57 4 76 19 85 71l13 78c12 68 47 114 142 131v3c-62 13 -98 38 -98 96c0 11 1 24 4 36l13 78c8 48 -5 62 -60 66l27 152c191 -2 251 -50 251 -138c0 -15 -2 -30 -5 -46l-17 -98c-8 -51 10 -70 63 -74l-26 -149c-51 -5 -79 -16 -88 -69l-18 -97
c-22 -123 -88 -190 -312 -192z" />
    <glyph glyph-name="asciitilde" unicode="~" horiz-adv-x="455" 
d="M16 216c10 143 87 188 152 188c55 0 104 -35 129 -35c18 0 28 13 34 33h127c-7 -127 -85 -188 -150 -188c-55 0 -104 34 -129 34c-18 0 -28 -13 -35 -32h-128z" />
    <glyph glyph-name="Adieresis" unicode="&#xc4;" horiz-adv-x="701" 
d="M-48 0l360 693h251l96 -693h-232l-11 115h-200l-54 -115h-210zM378 470l-98 -212h122l-20 212h-4zM465 726l25 143h167l-24 -143h-168zM241 726l25 143h167l-24 -143h-168z" />
    <glyph glyph-name="Aring" unicode="&#xc5;" horiz-adv-x="701" 
d="M-48 0l360 693h251l96 -693h-232l-11 115h-200l-54 -115h-210zM378 470l-98 -212h122l-20 212h-4zM443 712c-78 0 -123 53 -123 111c0 72 56 124 134 124s123 -51 123 -110c0 -72 -56 -125 -134 -125zM446 786c26 0 43 18 43 46c0 24 -13 41 -38 41
c-26 0 -43 -18 -43 -46c0 -24 13 -41 38 -41z" />
    <glyph glyph-name="Ccedilla" unicode="&#xc7;" horiz-adv-x="566" 
d="M330 -10c-14 0 -27 1 -39 2l-5 -30c68 -3 97 -31 97 -73c0 -75 -70 -112 -244 -117l13 74c67 4 97 10 97 34c0 14 -13 22 -62 24l17 103c-113 34 -175 121 -175 262c0 124 36 232 95 305c74 92 180 131 313 131c88 0 138 -13 173 -33l-28 -160c-30 12 -66 21 -123 21
c-93 0 -142 -41 -166 -123c-13 -43 -21 -82 -21 -133c0 -88 49 -117 119 -117c61 0 111 15 143 26l-28 -163c-36 -18 -92 -33 -176 -33z" />
    <glyph glyph-name="Eacute" unicode="&#xc9;" horiz-adv-x="561" 
d="M279 725l76 147h201l-119 -147h-158zM-3 0l122 693h484l-29 -161h-254l-17 -101h195l-28 -158h-195l-20 -112h267l-29 -161h-496z" />
    <glyph glyph-name="Ntilde" unicode="&#xd1;" horiz-adv-x="700" 
d="M251 726c20 108 78 148 138 148c52 0 90 -30 114 -30c17 0 26 11 32 28h120c-20 -107 -78 -148 -139 -148c-52 0 -89 29 -114 29c-16 0 -26 -10 -31 -27h-120zM-3 0l122 693h246l109 -350h4l61 350h196l-122 -693h-225l-125 383h-3l-68 -383h-195z" />
    <glyph glyph-name="Odieresis" unicode="&#xd6;" horiz-adv-x="718" 
d="M458 726l25 143h167l-24 -143h-168zM234 726l25 143h167l-24 -143h-168zM326 -12c-178 0 -295 95 -295 279c0 261 156 438 393 438c179 0 296 -95 296 -279c0 -262 -154 -438 -394 -438zM346 154c62 0 101 65 123 194c5 32 9 71 9 101c0 66 -26 90 -73 90
c-55 0 -99 -51 -123 -194c-8 -41 -10 -75 -10 -101c0 -68 29 -90 74 -90z" />
    <glyph glyph-name="Udieresis" unicode="&#xdc;" horiz-adv-x="683" 
d="M317 -12c-191 0 -284 74 -284 217c0 23 2 47 7 73l73 415h233l-76 -431c-2 -13 -3 -24 -3 -37c0 -45 24 -69 76 -69c61 0 87 34 98 101l77 436h206l-78 -445c-31 -176 -117 -260 -329 -260zM457 726l25 143h167l-24 -143h-168zM233 726l25 143h167l-24 -143h-168z" />
    <glyph glyph-name="aacute" unicode="&#xe1;" horiz-adv-x="573" 
d="M166 -10c-99 0 -155 67 -155 179c0 253 160 380 353 380c100 0 185 -19 221 -32l-92 -517h-168l-6 61h-5c-35 -40 -85 -71 -148 -71zM265 133c22 0 38 11 50 22l43 244c-7 4 -13 6 -25 6c-53 0 -87 -42 -104 -141c-4 -22 -9 -48 -9 -77c0 -36 14 -54 45 -54zM276 579
l85 159h201l-127 -159h-159z" />
    <glyph glyph-name="agrave" unicode="&#xe0;" horiz-adv-x="573" 
d="M166 -10c-99 0 -155 67 -155 179c0 253 160 380 353 380c100 0 185 -19 221 -32l-92 -517h-168l-6 61h-5c-35 -40 -85 -71 -148 -71zM265 133c22 0 38 11 50 22l43 244c-7 4 -13 6 -25 6c-53 0 -87 -42 -104 -141c-4 -22 -9 -48 -9 -77c0 -36 14 -54 45 -54zM305 579
l-77 159h192l35 -159h-150z" />
    <glyph glyph-name="acircumflex" unicode="&#xe2;" horiz-adv-x="573" 
d="M166 -10c-99 0 -155 67 -155 179c0 253 160 380 353 380c100 0 185 -19 221 -32l-92 -517h-168l-6 61h-5c-35 -40 -85 -71 -148 -71zM265 133c22 0 38 11 50 22l43 244c-7 4 -13 6 -25 6c-53 0 -87 -42 -104 -141c-4 -22 -9 -48 -9 -77c0 -36 14 -54 45 -54zM185 579
l136 159h164l77 -159h-142l-34 49l-52 -49h-149z" />
    <glyph glyph-name="adieresis" unicode="&#xe4;" horiz-adv-x="573" 
d="M166 -10c-99 0 -155 67 -155 179c0 253 160 380 353 380c100 0 185 -19 221 -32l-92 -517h-168l-6 61h-5c-35 -40 -85 -71 -148 -71zM265 133c22 0 38 11 50 22l43 244c-7 4 -13 6 -25 6c-53 0 -87 -42 -104 -141c-4 -22 -9 -48 -9 -77c0 -36 14 -54 45 -54zM399 584
l26 149h167l-26 -149h-167zM181 584l26 149h167l-26 -149h-167z" />
    <glyph glyph-name="atilde" unicode="&#xe3;" horiz-adv-x="573" 
d="M166 -10c-99 0 -155 67 -155 179c0 253 160 380 353 380c100 0 185 -19 221 -32l-92 -517h-168l-6 61h-5c-35 -40 -85 -71 -148 -71zM265 133c22 0 38 11 50 22l43 244c-7 4 -13 6 -25 6c-53 0 -87 -42 -104 -141c-4 -22 -9 -48 -9 -77c0 -36 14 -54 45 -54zM185 586
c20 112 81 155 141 155c52 0 87 -30 112 -30c17 0 26 11 32 28h119c-19 -112 -80 -155 -140 -155c-52 0 -88 30 -112 30c-17 0 -27 -11 -32 -28h-120z" />
    <glyph glyph-name="aring" unicode="&#xe5;" horiz-adv-x="573" 
d="M166 -10c-99 0 -155 67 -155 179c0 253 160 380 353 380c100 0 185 -19 221 -32l-92 -517h-168l-6 61h-5c-35 -40 -85 -71 -148 -71zM265 133c22 0 38 11 50 22l43 244c-7 4 -13 6 -25 6c-53 0 -87 -42 -104 -141c-4 -22 -9 -48 -9 -77c0 -36 14 -54 45 -54zM382 575
c-78 0 -123 54 -123 111c0 72 56 125 134 125s123 -52 123 -111c0 -72 -56 -125 -134 -125zM385 649c26 0 43 18 43 47c0 24 -13 41 -38 41c-26 0 -43 -18 -43 -47c0 -24 13 -41 38 -41z" />
    <glyph glyph-name="ccedilla" unicode="&#xe7;" horiz-adv-x="459" 
d="M253 -10h-10l-4 -28c67 -3 97 -31 97 -73c0 -75 -70 -112 -245 -117l13 74c67 4 97 10 97 34c0 14 -12 22 -62 24l18 98c-96 27 -144 101 -144 208c0 81 22 156 59 212c52 80 141 127 270 127c67 0 116 -15 142 -30l-25 -141c-26 11 -48 18 -95 18
c-83 0 -116 -27 -136 -104c-5 -18 -8 -38 -8 -58c0 -60 29 -91 96 -91c46 0 85 11 112 20l-24 -139c-26 -16 -65 -34 -151 -34z" />
    <glyph glyph-name="eacute" unicode="&#xe9;" horiz-adv-x="541" 
d="M267 -10c-173 0 -254 83 -254 220c0 85 21 161 61 219c51 74 133 120 243 120c190 0 240 -118 212 -287l-7 -42h-301c2 -61 25 -87 112 -87c61 0 120 15 154 29l-22 -127c-47 -24 -96 -45 -198 -45zM230 579l85 159h201l-127 -159h-159zM305 416c-36 0 -61 -25 -75 -90
h115c11 60 1 90 -40 90z" />
    <glyph glyph-name="egrave" unicode="&#xe8;" horiz-adv-x="541" 
d="M267 -10c-173 0 -254 83 -254 220c0 85 21 161 61 219c51 74 133 120 243 120c190 0 240 -118 212 -287l-7 -42h-301c2 -61 25 -87 112 -87c61 0 120 15 154 29l-22 -127c-47 -24 -96 -45 -198 -45zM253 579l-77 159h192l35 -159h-150zM305 416c-36 0 -61 -25 -75 -90
h115c11 60 1 90 -40 90z" />
    <glyph glyph-name="ecircumflex" unicode="&#xea;" horiz-adv-x="541" 
d="M267 -10c-173 0 -254 83 -254 220c0 85 21 161 61 219c51 74 133 120 243 120c190 0 240 -118 212 -287l-7 -42h-301c2 -61 25 -87 112 -87c61 0 120 15 154 29l-22 -127c-47 -24 -96 -45 -198 -45zM132 579l136 159h164l77 -159h-142l-34 49l-52 -49h-149zM305 416
c-36 0 -61 -25 -75 -90h115c11 60 1 90 -40 90z" />
    <glyph glyph-name="edieresis" unicode="&#xeb;" horiz-adv-x="541" 
d="M267 -10c-173 0 -254 83 -254 220c0 85 21 161 61 219c51 74 133 120 243 120c190 0 240 -118 212 -287l-7 -42h-301c2 -61 25 -87 112 -87c61 0 120 15 154 29l-22 -127c-47 -24 -96 -45 -198 -45zM129 584l26 149h167l-26 -149h-167zM347 584l26 149h167l-26 -149h-167
zM305 416c-36 0 -61 -25 -75 -90h115c11 60 1 90 -40 90z" />
    <glyph glyph-name="iacute" unicode="&#xed;" horiz-adv-x="281" 
d="M102 579l85 159h201l-127 -159h-159zM-8 0l95 539h207l-95 -539h-207z" />
    <glyph glyph-name="igrave" unicode="&#xec;" horiz-adv-x="281" 
d="M-8 0l95 539h207l-95 -539h-207zM130 579l-77 159h192l35 -159h-150z" />
    <glyph glyph-name="icircumflex" unicode="&#xee;" horiz-adv-x="281" 
d="M-8 0l95 539h207l-95 -539h-207zM11 579l134 159h164l74 -159h-141l-32 49l-50 -49h-149z" />
    <glyph glyph-name="idieresis" unicode="&#xef;" horiz-adv-x="281" 
d="M220 584l26 149h151l-26 -149h-151zM26 584l26 149h150l-25 -149h-151zM-8 0l95 539h207l-95 -539h-207z" />
    <glyph glyph-name="ntilde" unicode="&#xf1;" horiz-adv-x="586" 
d="M-11 0l95 539h201l-11 -62h5c49 44 108 72 172 72c90 0 128 -46 128 -125c0 -18 -2 -38 -5 -59l-65 -365h-207l58 326c1 8 3 18 3 28c0 24 -12 36 -37 36c-22 0 -44 -8 -66 -22l-64 -368h-207zM163 586c20 112 81 155 141 155c52 0 87 -30 112 -30c17 0 26 11 32 28h119
c-19 -112 -80 -155 -140 -155c-52 0 -88 30 -112 30c-17 0 -27 -11 -32 -28h-120z" />
    <glyph glyph-name="oacute" unicode="&#xf3;" horiz-adv-x="579" 
d="M247 579l85 159h201l-127 -159h-159zM249 -10c-167 0 -237 102 -237 215c0 184 112 344 318 344c167 0 242 -101 242 -214c0 -206 -116 -345 -323 -345zM270 128c39 0 65 32 83 132c6 36 10 64 10 86c0 49 -20 66 -47 66c-39 0 -66 -36 -84 -132c-7 -33 -10 -62 -10 -86
c0 -49 20 -66 48 -66z" />
    <glyph glyph-name="ograve" unicode="&#xf2;" horiz-adv-x="579" 
d="M249 -10c-167 0 -237 102 -237 215c0 184 112 344 318 344c167 0 242 -101 242 -214c0 -206 -116 -345 -323 -345zM270 128c39 0 65 32 83 132c6 36 10 64 10 86c0 49 -20 66 -47 66c-39 0 -66 -36 -84 -132c-7 -33 -10 -62 -10 -86c0 -49 20 -66 48 -66zM269 579
l-77 159h192l35 -159h-150z" />
    <glyph glyph-name="ocircumflex" unicode="&#xf4;" horiz-adv-x="579" 
d="M156 579l136 159h164l77 -159h-142l-34 49l-52 -49h-149zM249 -10c-167 0 -237 102 -237 215c0 184 112 344 318 344c167 0 242 -101 242 -214c0 -206 -116 -345 -323 -345zM270 128c39 0 65 32 83 132c6 36 10 64 10 86c0 49 -20 66 -47 66c-39 0 -66 -36 -84 -132
c-7 -33 -10 -62 -10 -86c0 -49 20 -66 48 -66z" />
    <glyph glyph-name="odieresis" unicode="&#xf6;" horiz-adv-x="579" 
d="M365 584l26 149h167l-26 -149h-167zM147 584l26 149h167l-26 -149h-167zM249 -10c-167 0 -237 102 -237 215c0 184 112 344 318 344c167 0 242 -101 242 -214c0 -206 -116 -345 -323 -345zM270 128c39 0 65 32 83 132c6 36 10 64 10 86c0 49 -20 66 -47 66
c-39 0 -66 -36 -84 -132c-7 -33 -10 -62 -10 -86c0 -49 20 -66 48 -66z" />
    <glyph glyph-name="otilde" unicode="&#xf5;" horiz-adv-x="579" 
d="M249 -10c-167 0 -237 102 -237 215c0 184 112 344 318 344c167 0 242 -101 242 -214c0 -206 -116 -345 -323 -345zM270 128c39 0 65 32 83 132c6 36 10 64 10 86c0 49 -20 66 -47 66c-39 0 -66 -36 -84 -132c-7 -33 -10 -62 -10 -86c0 -49 20 -66 48 -66zM156 586
c20 112 81 155 141 155c52 0 87 -30 112 -30c17 0 26 11 32 28h119c-19 -112 -80 -155 -140 -155c-52 0 -88 30 -112 30c-17 0 -27 -11 -32 -28h-120z" />
    <glyph glyph-name="uacute" unicode="&#xfa;" horiz-adv-x="584" 
d="M260 579l85 159h201l-127 -159h-159zM144 -10c-87 0 -130 47 -130 131c0 16 1 32 5 55l64 363h207l-59 -332c-2 -12 -3 -21 -3 -29c0 -25 10 -34 36 -34c23 0 42 8 63 22l66 373h207l-95 -539h-175l-8 63h-5c-47 -45 -104 -73 -173 -73z" />
    <glyph glyph-name="ugrave" unicode="&#xf9;" horiz-adv-x="584" 
d="M144 -10c-87 0 -130 47 -130 131c0 16 1 32 5 55l64 363h207l-59 -332c-2 -12 -3 -21 -3 -29c0 -25 10 -34 36 -34c23 0 42 8 63 22l66 373h207l-95 -539h-175l-8 63h-5c-47 -45 -104 -73 -173 -73zM278 579l-77 159h192l35 -159h-150z" />
    <glyph glyph-name="ucircumflex" unicode="&#xfb;" horiz-adv-x="584" 
d="M158 579l136 159h164l77 -159h-142l-34 49l-52 -49h-149zM144 -10c-87 0 -130 47 -130 131c0 16 1 32 5 55l64 363h207l-59 -332c-2 -12 -3 -21 -3 -29c0 -25 10 -34 36 -34c23 0 42 8 63 22l66 373h207l-95 -539h-175l-8 63h-5c-47 -45 -104 -73 -173 -73z" />
    <glyph glyph-name="udieresis" unicode="&#xfc;" horiz-adv-x="584" 
d="M372 584l26 149h167l-26 -149h-167zM154 584l26 149h167l-26 -149h-167zM144 -10c-87 0 -130 47 -130 131c0 16 1 32 5 55l64 363h207l-59 -332c-2 -12 -3 -21 -3 -29c0 -25 10 -34 36 -34c23 0 42 8 63 22l66 373h207l-95 -539h-175l-8 63h-5c-47 -45 -104 -73 -173 -73
z" />
    <glyph glyph-name="dagger" unicode="&#x2020;" horiz-adv-x="511" 
d="M100 -69l78 441h-139l28 159h139l29 162h197l-29 -162h139l-28 -159h-139l-78 -441h-197z" />
    <glyph glyph-name="degree" unicode="&#xb0;" horiz-adv-x="383" 
d="M230 373c-105 0 -163 71 -163 152c0 96 76 177 186 177c105 0 163 -68 163 -149c0 -95 -76 -180 -186 -180zM236 470c46 0 64 38 64 78c0 31 -17 58 -53 58c-45 0 -65 -37 -65 -77c0 -31 17 -59 54 -59z" />
    <glyph glyph-name="cent" unicode="&#xa2;" horiz-adv-x="482" 
d="M157 -118l38 114c-116 21 -178 98 -178 216c0 80 20 154 59 211c55 79 147 126 274 126c11 0 21 -1 32 -1l21 62h91l-26 -77c16 -4 30 -9 39 -14l-24 -137c-17 7 -37 12 -61 15l-88 -258c43 1 90 11 116 20l-23 -135c-24 -15 -68 -31 -143 -33l-36 -109h-91zM219 234
c0 -39 10 -64 30 -78l82 241c-57 -10 -91 -40 -105 -105c-4 -19 -7 -38 -7 -58z" />
    <glyph glyph-name="sterling" unicode="&#xa3;" horiz-adv-x="546" 
d="M29 271l25 139h59l10 52c29 168 144 243 315 243c70 0 120 -15 142 -30l-28 -153c-25 8 -49 11 -77 11c-69 0 -111 -24 -124 -95l-5 -28h142l-26 -139h-142c-19 -60 -59 -90 -95 -108v-2h284l-29 -161h-500l27 151c40 14 67 40 78 97l4 23h-60z" />
    <glyph glyph-name="section" unicode="&#xa7;" horiz-adv-x="564" 
d="M483 79c0 -138 -95 -210 -274 -210c-98 0 -165 24 -209 49l23 136c43 -19 93 -42 170 -42c56 0 76 14 76 42c0 17 -6 28 -43 40l-56 16c-91 25 -153 61 -153 151c0 78 41 120 118 141c-24 26 -37 61 -37 105c0 123 95 197 252 197c106 0 160 -20 201 -42l-24 -136
c-33 16 -88 37 -167 37c-35 0 -60 -8 -60 -37c0 -20 12 -30 51 -42l55 -17c98 -27 155 -65 155 -145c0 -83 -43 -127 -117 -148c26 -25 39 -56 39 -95zM293 330c0 0 -24 10 -26 11c-33 -6 -51 -18 -51 -44c0 -22 10 -35 58 -49c0 0 22 -11 24 -11c43 5 58 19 58 44
c0 20 -10 34 -63 49z" />
    <glyph glyph-name="bullet" unicode="&#x2022;" horiz-adv-x="371" 
d="M183 155c-86 0 -150 68 -150 146c0 100 78 177 176 177c86 0 152 -65 152 -145c0 -96 -79 -178 -178 -178z" />
    <glyph glyph-name="paragraph" unicode="&#xb6;" horiz-adv-x="594" 
d="M191 -120l78 440h-17c-120 0 -187 63 -187 159c0 133 93 214 257 214h304l-143 -813h-112l125 707h-68l-125 -707h-112z" />
    <glyph glyph-name="germandbls" unicode="&#xdf;" horiz-adv-x="670" 
d="M-44 -195l125 716c29 165 156 228 342 228c154 0 231 -56 231 -149c0 -130 -160 -170 -160 -215c0 -16 10 -25 33 -40l24 -16c63 -39 95 -80 95 -146c0 -113 -83 -191 -224 -191c-80 0 -137 11 -175 30l23 133c33 -14 64 -27 113 -27c39 0 59 10 59 34c0 14 -9 22 -35 36
l-24 15c-57 32 -84 68 -84 120c0 122 143 170 143 236c0 25 -19 41 -52 41c-56 0 -92 -28 -105 -104l-122 -701h-207z" />
    <glyph glyph-name="registered" unicode="&#xae;" horiz-adv-x="456" 
d="M271 299c-117 0 -207 93 -207 204c0 112 90 202 207 202c116 0 207 -90 207 -202c0 -111 -91 -204 -207 -204zM271 338c97 0 162 71 162 165c0 91 -65 165 -162 165s-160 -74 -160 -165c0 -94 63 -165 160 -165zM184 407v196h103c51 0 82 -23 82 -64
c0 -23 -13 -43 -28 -50v-3l38 -79h-76l-30 63h-16v-63h-73zM257 515h18c13 0 19 6 19 18c0 13 -7 20 -19 20h-18v-38z" />
    <glyph glyph-name="copyright" unicode="&#xa9;" horiz-adv-x="769" 
d="M399 -14c-206 0 -359 161 -359 358s153 356 359 356s362 -159 362 -356s-156 -358 -362 -358zM399 43c171 0 294 126 294 301s-123 299 -294 299s-291 -124 -291 -299s120 -301 291 -301zM417 139c-127 0 -205 64 -205 197v8c0 144 93 203 207 203c57 0 87 -8 112 -19
v-110c-16 6 -36 10 -66 10c-56 0 -83 -20 -83 -74v-15c0 -58 20 -83 81 -83c30 0 53 7 69 12v-108c-26 -9 -56 -21 -115 -21z" />
    <glyph glyph-name="trademark" unicode="&#x2122;" horiz-adv-x="753" 
d="M354 385l54 308h148l13 -154h3l67 154h172l-54 -308h-123l31 174h-3l-75 -174h-95l-15 174h-3l-30 -174h-90zM114 385l36 204h-75l18 104h283l-18 -104h-77l-36 -204h-131z" />
    <glyph glyph-name="acute" unicode="&#xb4;" 
d="M230 579l85 159h201l-127 -159h-159z" />
    <glyph glyph-name="dieresis" unicode="&#xa8;" 
d="M333 584l26 149h167l-26 -149h-167zM115 584l26 149h167l-26 -149h-167z" />
    <glyph glyph-name="AE" unicode="&#xc6;" horiz-adv-x="951" 
d="M-52 0l465 693h580l-29 -161h-243l-17 -101h185l-28 -158h-185l-20 -112h256l-29 -161h-481l22 125h-179l-79 -125h-218zM333 268h117l44 251h-4z" />
    <glyph glyph-name="Oslash" unicode="&#xd8;" horiz-adv-x="718" 
d="M326 -12c-75 0 -138 19 -187 54l-41 -42h-133l108 111c-27 43 -42 95 -42 156c0 261 156 438 393 438c71 0 133 -17 181 -49l37 37h133l-102 -104c30 -44 47 -100 47 -163c0 -262 -154 -438 -394 -438zM343 149c72 0 120 63 142 197c3 18 6 38 8 58l-220 -225
c16 -22 42 -30 70 -30zM266 347c-3 -17 -6 -32 -7 -46l214 219c-16 17 -40 24 -66 24c-63 0 -115 -48 -141 -197z" />
    <glyph glyph-name="yen" unicode="&#xa5;" horiz-adv-x="640" 
d="M159 0l16 90h-144l23 131h144l7 40h-144l24 130h95l-107 302h233l56 -229h3l137 229h218l-212 -302h97l-24 -130h-144l-7 -40h144l-22 -131h-145l-16 -90h-232z" />
    <glyph glyph-name="ordfeminine" unicode="&#xaa;" horiz-adv-x="526" 
d="M188 211c-87 0 -144 58 -144 157c0 225 138 336 319 336c93 0 171 -17 202 -28l-80 -456h-156l-6 53h-4c-31 -35 -75 -62 -131 -62zM276 338c19 0 34 9 44 19l39 221c-7 3 -12 5 -23 5c-47 0 -76 -39 -92 -131c-4 -19 -7 -42 -7 -67c0 -33 11 -47 39 -47z" />
    <glyph glyph-name="ordmasculine" unicode="&#xba;" horiz-adv-x="533" 
d="M269 211c-153 0 -221 92 -221 192c0 161 97 301 284 301c153 0 225 -90 225 -190c0 -182 -102 -303 -288 -303zM282 334c35 0 58 26 73 115c6 33 9 56 9 76c0 44 -16 56 -41 56c-35 0 -58 -29 -73 -113c-6 -29 -10 -56 -10 -77c0 -44 18 -57 42 -57z" />
    <glyph glyph-name="ae" unicode="&#xe6;" horiz-adv-x="818" 
d="M152 -10c-100 0 -160 49 -160 137c0 110 66 166 222 184l94 12l3 14c9 46 -13 61 -85 61c-50 0 -105 -8 -146 -19l24 135c61 23 122 35 192 35s125 -16 153 -56c36 35 86 56 156 56c177 0 228 -117 200 -287l-7 -41h-301c2 -61 24 -88 112 -88c60 0 120 15 154 29
l-22 -127c-47 -24 -96 -45 -197 -45s-171 28 -212 79c-47 -51 -110 -79 -180 -79zM296 146c-5 20 -7 41 -7 64v13l-40 -2c-39 -1 -58 -18 -58 -65c0 -29 13 -40 36 -40c24 0 46 11 69 30zM581 416c-35 0 -60 -24 -73 -89h113c11 60 2 89 -40 89z" />
    <glyph glyph-name="oslash" unicode="&#xf8;" horiz-adv-x="579" 
d="M249 -10c-62 0 -111 14 -148 38l-27 -27h-115l85 84c-22 35 -32 77 -32 120c0 184 112 344 318 344c60 0 109 -14 146 -36l27 26h115l-83 -82c25 -35 37 -78 37 -122c0 -206 -116 -345 -323 -345zM269 123c51 0 83 30 102 134l7 45l-161 -159c13 -15 32 -20 52 -20z
M214 284c-3 -13 -5 -25 -7 -37l157 155c-12 11 -28 16 -47 16c-48 0 -85 -35 -103 -134z" />
    <glyph glyph-name="questiondown" unicode="&#xbf;" horiz-adv-x="446" 
d="M190 -132c-138 0 -209 63 -209 172c0 79 31 135 115 190c64 42 92 56 99 90l3 16h175l-6 -37c-11 -65 -31 -89 -99 -133c-49 -31 -65 -52 -65 -88c0 -30 17 -50 79 -50c52 0 80 7 112 15l-25 -145c-50 -17 -97 -30 -179 -30zM198 401l30 172h195l-30 -172h-195z" />
    <glyph glyph-name="exclamdown" unicode="&#xa1;" horiz-adv-x="310" 
d="M-29 -120l112 456h175l-51 -456h-236zM84 401l31 172h193l-30 -172h-194z" />
    <glyph glyph-name="florin" unicode="&#x192;" horiz-adv-x="463" 
d="M35 280l26 141h67l17 93c21 135 118 194 239 194c67 0 102 -10 124 -23l-24 -134c-16 5 -26 7 -45 7c-41 0 -61 -16 -68 -66l-13 -71h96l-26 -141h-95l-46 -264c-20 -138 -100 -199 -231 -199c-63 0 -107 15 -119 23l23 132c10 -3 19 -7 39 -7c33 0 53 16 60 60l45 255
h-69z" />
    <glyph glyph-name="guillemotleft" unicode="&#xab;" horiz-adv-x="551" 
d="M317 51l-58 178l9 47l120 178h171l-128 -208l52 -195h-166zM81 51l-57 178l8 47l120 178h172l-129 -208l52 -195h-166z" />
    <glyph glyph-name="guillemotright" unicode="&#xbb;" horiz-adv-x="551" 
d="M227 51l128 208l-52 195h166l58 -178l-9 -47l-120 -178h-171zM-9 51l129 208l-53 195h166l58 -178l-8 -47l-120 -178h-172z" />
    <glyph glyph-name="ellipsis" unicode="&#x2026;" horiz-adv-x="780" 
d="M507 0l31 176h195l-31 -176h-195zM-12 0l31 176h196l-32 -176h-195zM248 0l31 176h195l-31 -176h-195z" />
    <glyph glyph-name="uni00A0" unicode="&#xa0;" horiz-adv-x="157" 
 />
    <glyph glyph-name="Agrave" unicode="&#xc0;" horiz-adv-x="701" 
d="M-48 0l360 693h251l96 -693h-232l-11 115h-200l-54 -115h-210zM378 470l-98 -212h122l-20 212h-4zM374 725l-73 149h192l30 -149h-149z" />
    <glyph glyph-name="Atilde" unicode="&#xc3;" horiz-adv-x="701" 
d="M-48 0l360 693h251l96 -693h-232l-11 115h-200l-54 -115h-210zM378 470l-98 -212h122l-20 212h-4zM247 726c20 108 78 148 138 148c52 0 90 -30 114 -30c17 0 26 11 32 28h120c-20 -107 -78 -148 -139 -148c-52 0 -89 29 -114 29c-16 0 -26 -10 -31 -27h-120z" />
    <glyph glyph-name="Otilde" unicode="&#xd5;" horiz-adv-x="718" 
d="M241 726c20 108 78 148 138 148c52 0 90 -30 114 -30c17 0 26 11 32 28h120c-20 -107 -78 -148 -139 -148c-52 0 -89 29 -114 29c-16 0 -26 -10 -31 -27h-120zM326 -12c-178 0 -295 95 -295 279c0 261 156 438 393 438c179 0 296 -95 296 -279
c0 -262 -154 -438 -394 -438zM346 154c62 0 101 65 123 194c5 32 9 71 9 101c0 66 -26 90 -73 90c-55 0 -99 -51 -123 -194c-8 -41 -10 -75 -10 -101c0 -68 29 -90 74 -90z" />
    <glyph glyph-name="OE" unicode="&#x152;" horiz-adv-x="925" 
d="M351 0c-217 0 -320 89 -320 265c0 241 112 428 390 428h547l-29 -161h-246l-17 -101h187l-28 -158h-187l-20 -112h258l-28 -161h-507zM364 159h37l66 375h-51c-76 0 -114 -57 -136 -178c-7 -38 -10 -76 -10 -100c0 -73 31 -97 94 -97z" />
    <glyph glyph-name="oe" unicode="&#x153;" horiz-adv-x="883" 
d="M249 -10c-167 0 -237 103 -237 215c0 184 111 344 310 344c82 0 134 -28 165 -72c43 45 103 72 182 72c178 0 230 -119 201 -287l-7 -42h-301c2 -61 25 -87 112 -87c61 0 120 15 154 29l-22 -127c-47 -24 -92 -45 -184 -45c-89 0 -149 28 -184 79
c-46 -50 -110 -79 -189 -79zM270 128c39 0 65 32 83 132c7 36 10 63 10 86c0 50 -20 66 -47 66c-39 0 -66 -35 -84 -131c-6 -32 -10 -63 -10 -86c0 -50 21 -67 48 -67zM647 416c-37 0 -62 -25 -76 -90h115c12 60 2 90 -39 90z" />
    <glyph glyph-name="endash" unicode="&#x2013;" horiz-adv-x="432" 
d="M18 210l28 154h384l-28 -154h-384z" />
    <glyph glyph-name="emdash" unicode="&#x2014;" horiz-adv-x="785" 
d="M18 210l28 154h737l-28 -154h-737z" />
    <glyph glyph-name="quotedblleft" unicode="&#x201c;" horiz-adv-x="469" 
d="M283 462l78 231h155l-46 -231h-187zM55 462l78 231h156l-46 -231h-188z" />
    <glyph glyph-name="quotedblright" unicode="&#x201d;" horiz-adv-x="469" 
d="M294 462l46 231h188l-78 -231h-156zM67 462l46 231h187l-78 -231h-155z" />
    <glyph glyph-name="quoteleft" unicode="&#x2018;" horiz-adv-x="241" 
d="M55 462l78 231h156l-46 -231h-188z" />
    <glyph glyph-name="quoteright" unicode="&#x2019;" horiz-adv-x="241" 
d="M67 462l46 231h187l-78 -231h-155z" />
    <glyph glyph-name="divide" unicode="&#xf7;" horiz-adv-x="526" 
d="M26 265l28 157h477l-27 -157h-478zM133 56l30 171h190l-30 -171h-190zM204 460l30 171h190l-30 -171h-190z" />
    <glyph glyph-name="ydieresis" unicode="&#xff;" horiz-adv-x="572" 
d="M67 -198c-54 0 -95 11 -115 22l24 133c19 -5 43 -9 67 -9c43 0 66 14 80 44l11 22l-85 525h208l25 -293h4l136 293h201l-298 -562c-62 -118 -122 -175 -258 -175zM372 584l26 149h167l-26 -149h-167zM154 584l26 149h167l-26 -149h-167z" />
    <glyph glyph-name="Ydieresis" unicode="&#x178;" horiz-adv-x="642" 
d="M161 0l48 273l-133 420h231l58 -237h3l134 237h217l-278 -424l-47 -269h-233zM432 726l25 143h167l-24 -143h-168zM208 726l25 143h167l-24 -143h-168z" />
    <glyph glyph-name="fraction" unicode="&#x2044;" horiz-adv-x="267" 
d="M-251 -40l621 753h139l-620 -753h-140z" />
    <glyph glyph-name="Euro" unicode="&#x20ac;" horiz-adv-x="600" 
d="M37 366l18 104h58c13 35 30 68 51 96c66 90 167 139 307 139c88 0 140 -16 175 -33l-28 -157c-32 15 -61 24 -112 24c-72 0 -121 -16 -147 -69h169l-18 -104h-183l-7 -39h183l-19 -104h-166c10 -47 44 -69 117 -69c61 0 97 10 132 22l-27 -154c-44 -20 -89 -34 -178 -34
c-167 0 -271 79 -283 235h-67l18 104h51l5 39h-49z" />
    <glyph glyph-name="guilsinglleft" unicode="&#x2039;" horiz-adv-x="315" 
d="M81 51l-57 178l8 47l120 178h172l-129 -208l52 -195h-166z" />
    <glyph glyph-name="guilsinglright" unicode="&#x203a;" horiz-adv-x="315" 
d="M-9 51l129 208l-53 195h166l58 -178l-8 -47l-120 -178h-172z" />
    <glyph glyph-name="daggerdbl" unicode="&#x2021;" horiz-adv-x="511" 
d="M-11 93l28 159h139l22 120h-139l28 159h139l28 162h197l-28 -162h139l-28 -159h-139l-21 -120h138l-28 -159h-138l-29 -162h-197l28 162h-139z" />
    <glyph glyph-name="periodcentered" unicode="&#xb7;" horiz-adv-x="263" 
d="M28 225l31 175h197l-31 -175h-197z" />
    <glyph glyph-name="quotesinglbase" unicode="&#x201a;" horiz-adv-x="241" 
d="M-26 -59l47 231h187l-78 -231h-156z" />
    <glyph glyph-name="quotedblbase" unicode="&#x201e;" horiz-adv-x="468" 
d="M202 -59l46 231h188l-79 -231h-155zM-26 -59l47 231h187l-78 -231h-156z" />
    <glyph glyph-name="perthousand" unicode="&#x2030;" horiz-adv-x="1341" 
d="M236 401c23 0 41 21 51 92c4 21 8 52 8 67c0 28 -9 41 -28 41c-24 0 -41 -21 -52 -92c-3 -20 -6 -46 -6 -63c0 -32 8 -45 27 -45zM700 94c24 0 40 21 52 92c3 21 7 51 7 67c0 28 -9 41 -27 41c-25 0 -42 -21 -52 -92c-4 -20 -7 -46 -7 -63c0 -32 8 -45 27 -45zM1107 94
c24 0 41 21 52 92c3 21 7 51 7 67c0 28 -9 41 -27 41c-24 0 -42 -21 -52 -92c-4 -20 -7 -46 -7 -63c0 -32 8 -45 27 -45zM225 297c-101 0 -169 50 -169 159c0 145 89 249 222 249c99 0 169 -47 169 -155c0 -145 -94 -253 -222 -253zM124 -40l563 753h140l-563 -753h-140z
M689 -10c-101 0 -169 50 -169 159c0 145 95 249 222 249c99 0 169 -47 169 -155c0 -145 -90 -253 -222 -253zM1096 -10c-101 0 -169 50 -169 159c0 145 90 249 222 249c99 0 169 -47 169 -155c0 -145 -90 -253 -222 -253z" />
    <glyph glyph-name="Acircumflex" unicode="&#xc2;" horiz-adv-x="701" 
d="M-48 0l360 693h251l96 -693h-232l-11 115h-200l-54 -115h-210zM378 470l-98 -212h122l-20 212h-4zM247 725l131 139h164l80 -139h-141l-35 39l-50 -39h-149z" />
    <glyph glyph-name="Ecircumflex" unicode="&#xca;" horiz-adv-x="561" 
d="M184 725l131 139h164l80 -139h-141l-35 39l-50 -39h-149zM-3 0l122 693h484l-29 -161h-254l-17 -101h195l-28 -158h-195l-20 -112h267l-29 -161h-496z" />
    <glyph glyph-name="Aacute" unicode="&#xc1;" horiz-adv-x="701" 
d="M-48 0l360 693h251l96 -693h-232l-11 115h-200l-54 -115h-210zM378 470l-98 -212h122l-20 212h-4zM340 725l76 147h201l-119 -147h-158z" />
    <glyph glyph-name="Edieresis" unicode="&#xcb;" horiz-adv-x="561" 
d="M-3 0l122 693h484l-29 -161h-254l-17 -101h195l-28 -158h-195l-20 -112h267l-29 -161h-496zM403 726l25 143h167l-24 -143h-168zM179 726l25 143h167l-24 -143h-168z" />
    <glyph glyph-name="Egrave" unicode="&#xc8;" horiz-adv-x="561" 
d="M313 725l-73 149h192l30 -149h-149zM-3 0l122 693h484l-29 -161h-254l-17 -101h195l-28 -158h-195l-20 -112h267l-29 -161h-496z" />
    <glyph glyph-name="Iacute" unicode="&#xcd;" horiz-adv-x="321" 
d="M-1 0l122 693h233l-123 -693h-232zM144 725l76 147h201l-119 -147h-158z" />
    <glyph glyph-name="Icircumflex" unicode="&#xce;" horiz-adv-x="321" 
d="M-1 0l122 693h233l-123 -693h-232zM54 725l131 139h164l80 -139h-141l-35 39l-50 -39h-149z" />
    <glyph glyph-name="Idieresis" unicode="&#xcf;" horiz-adv-x="321" 
d="M-1 0l122 693h233l-123 -693h-232zM273 726l25 143h167l-24 -143h-168zM49 726l25 143h167l-24 -143h-168z" />
    <glyph glyph-name="Igrave" unicode="&#xcc;" horiz-adv-x="321" 
d="M-1 0l122 693h233l-123 -693h-232zM183 725l-73 149h192l30 -149h-149z" />
    <glyph glyph-name="Oacute" unicode="&#xd3;" horiz-adv-x="718" 
d="M335 725l76 147h201l-119 -147h-158zM326 -12c-178 0 -295 95 -295 279c0 261 156 438 393 438c179 0 296 -95 296 -279c0 -262 -154 -438 -394 -438zM346 154c62 0 101 65 123 194c5 32 9 71 9 101c0 66 -26 90 -73 90c-55 0 -99 -51 -123 -194c-8 -41 -10 -75 -10 -101
c0 -68 29 -90 74 -90z" />
    <glyph glyph-name="Ocircumflex" unicode="&#xd4;" horiz-adv-x="718" 
d="M241 725l131 139h164l80 -139h-141l-35 39l-50 -39h-149zM326 -12c-178 0 -295 95 -295 279c0 261 156 438 393 438c179 0 296 -95 296 -279c0 -262 -154 -438 -394 -438zM346 154c62 0 101 65 123 194c5 32 9 71 9 101c0 66 -26 90 -73 90c-55 0 -99 -51 -123 -194
c-8 -41 -10 -75 -10 -101c0 -68 29 -90 74 -90z" />
    <glyph glyph-name="Ograve" unicode="&#xd2;" horiz-adv-x="718" 
d="M370 725l-73 149h192l30 -149h-149zM326 -12c-178 0 -295 95 -295 279c0 261 156 438 393 438c179 0 296 -95 296 -279c0 -262 -154 -438 -394 -438zM346 154c62 0 101 65 123 194c5 32 9 71 9 101c0 66 -26 90 -73 90c-55 0 -99 -51 -123 -194c-8 -41 -10 -75 -10 -101
c0 -68 29 -90 74 -90z" />
    <glyph glyph-name="Uacute" unicode="&#xda;" horiz-adv-x="683" 
d="M347 725l76 147h201l-119 -147h-158zM317 -12c-191 0 -284 74 -284 217c0 23 2 47 7 73l73 415h233l-76 -431c-2 -13 -3 -24 -3 -37c0 -45 24 -69 76 -69c61 0 87 34 98 101l77 436h206l-78 -445c-31 -176 -117 -260 -329 -260z" />
    <glyph glyph-name="Ucircumflex" unicode="&#xdb;" horiz-adv-x="683" 
d="M239 725l131 139h164l80 -139h-141l-35 39l-50 -39h-149zM317 -12c-191 0 -284 74 -284 217c0 23 2 47 7 73l73 415h233l-76 -431c-2 -13 -3 -24 -3 -37c0 -45 24 -69 76 -69c61 0 87 34 98 101l77 436h206l-78 -445c-31 -176 -117 -260 -329 -260z" />
    <glyph glyph-name="Ugrave" unicode="&#xd9;" horiz-adv-x="683" 
d="M356 725l-73 149h192l30 -149h-149zM317 -12c-191 0 -284 74 -284 217c0 23 2 47 7 73l73 415h233l-76 -431c-2 -13 -3 -24 -3 -37c0 -45 24 -69 76 -69c61 0 87 34 98 101l77 436h206l-78 -445c-31 -176 -117 -260 -329 -260z" />
    <glyph glyph-name="dotlessi" unicode="&#x131;" horiz-adv-x="281" 
d="M-8 0l95 539h207l-95 -539h-207z" />
    <glyph glyph-name="circumflex" unicode="&#x2c6;" 
d="M116 579l136 159h164l77 -159h-142l-34 49l-52 -49h-149z" />
    <glyph glyph-name="tilde" unicode="&#x2dc;" 
d="M119 586c20 112 81 155 141 155c52 0 87 -30 112 -30c17 0 26 11 32 28h119c-19 -112 -80 -155 -140 -155c-52 0 -88 30 -112 30c-17 0 -27 -11 -32 -28h-120z" />
    <glyph glyph-name="macron" unicode="&#xaf;" 
d="M157 585l23 129h300l-23 -129h-300z" />
    <glyph glyph-name="breve" unicode="&#x2d8;" 
d="M323 583c-105 0 -161 63 -158 152h130c0 -22 12 -36 36 -36s39 14 45 36h129c-12 -90 -75 -152 -182 -152z" />
    <glyph glyph-name="dotaccent" unicode="&#x2d9;" 
d="M201 584l26 149h209l-26 -149h-209z" />
    <glyph glyph-name="ring" unicode="&#x2da;" 
d="M321 575c-78 0 -123 54 -123 111c0 72 56 125 134 125s123 -52 123 -111c0 -72 -56 -125 -134 -125zM324 649c26 0 43 18 43 47c0 24 -13 41 -38 41c-26 0 -43 -18 -43 -47c0 -24 13 -41 38 -41z" />
    <glyph glyph-name="cedilla" unicode="&#xb8;" 
d="M104 -228l13 74c67 4 97 10 97 34c0 14 -12 22 -62 24l17 96h89l-6 -38c67 -3 97 -31 97 -73c0 -75 -70 -112 -245 -117z" />
    <glyph glyph-name="hungarumlaut" unicode="&#x2dd;" 
d="M120 579l63 159h179l-87 -159h-155zM337 579l63 159h179l-87 -159h-155z" />
    <glyph glyph-name="ogonek" unicode="&#x2db;" 
d="M233 -199c-81 0 -113 40 -113 83c0 59 55 94 113 116h111c-27 -18 -58 -41 -58 -68c0 -12 9 -20 27 -20c7 0 17 2 24 3l-17 -98c-18 -9 -50 -16 -87 -16z" />
    <glyph glyph-name="caron" unicode="&#x2c7;" 
d="M221 579l-76 159h142l34 -50l52 50h149l-136 -159h-165z" />
    <glyph glyph-name="space_uni0326" horiz-adv-x="488" 
d="M71 -182l37 149h177l-74 -149h-140z" />
    <glyph glyph-name="caron.alt" horiz-adv-x="488" 
d="M363 574h-108l34 165h134z" />
    <glyph glyph-name="space_uni0326.alt" horiz-adv-x="488" 
d="M420 731l-37 -149h-177l75 149h139z" />
    <glyph glyph-name="acute.pl" 
d="M220 579l65 159h203l-108 -159h-160z" />
    <glyph glyph-name="grave.uc" 
d="M230 725l-73 149h192l30 -149h-149z" />
    <glyph glyph-name="dieresis.uc" 
d="M360 726l25 143h167l-24 -143h-168zM136 726l25 143h167l-24 -143h-168z" />
    <glyph glyph-name="macron.uc" 
d="M174 727l22 129h317l-23 -129h-316z" />
    <glyph glyph-name="acute.uc" 
d="M296 725l76 147h201l-119 -147h-158z" />
    <glyph glyph-name="circumflex.uc" 
d="M153 725l131 139h164l80 -139h-141l-35 39l-50 -39h-149z" />
    <glyph glyph-name="caron.uc" 
d="M531 864l-131 -139h-164l-80 139h141l35 -39l50 39h149z" />
    <glyph glyph-name="breve.uc" 
d="M337 722c-105 0 -165 59 -162 144h129c0 -23 12 -37 37 -37c24 0 39 14 44 37h130c-12 -85 -71 -144 -178 -144z" />
    <glyph glyph-name="dotaccent.uc" 
d="M226 726l25 143h209l-25 -143h-209z" />
    <glyph glyph-name="ring.uc" 
d="M329 712c-78 0 -123 53 -123 111c0 72 56 124 134 124s123 -51 123 -110c0 -72 -56 -125 -134 -125zM332 786c26 0 43 18 43 46c0 24 -13 41 -38 41c-26 0 -43 -18 -43 -46c0 -24 13 -41 38 -41z" />
    <glyph glyph-name="tilde.uc" 
d="M122 726c20 108 78 148 138 148c52 0 90 -30 114 -30c17 0 26 11 32 28h120c-20 -107 -78 -148 -139 -148c-52 0 -89 29 -114 29c-16 0 -26 -10 -31 -27h-120z" />
    <glyph glyph-name="hungarumlaut.uc" 
d="M183 725l59 149h180l-83 -149h-156zM400 725l59 149h179l-83 -149h-155z" />
    <glyph glyph-name="acute.ucpl" 
d="M270 725l60 149h203l-103 -149h-160z" />
    <glyph glyph-name="Dcroat" unicode="&#x110;" horiz-adv-x="696" 
d="M5 271l27 152h43l48 270h255c216 0 320 -89 320 -265c0 -241 -113 -428 -391 -428h-306l47 271h-43zM257 159h55c76 0 114 57 136 178c7 38 10 76 10 100c0 73 -31 97 -94 97h-40l-20 -111h92l-27 -152h-92z" />
    <glyph glyph-name="Eng" unicode="&#x14a;" horiz-adv-x="700" 
d="M370 -177c-65 0 -105 13 -130 24l23 127c14 -4 33 -9 66 -9c40 0 67 10 80 34l-146 384h-3l-68 -383h-195l122 693h246l113 -327h4l57 327h196l-118 -668c-22 -127 -89 -202 -247 -202z" />
    <glyph glyph-name="IJ" unicode="&#x132;" horiz-adv-x="751" 
d="M-1 0l122 693h233l-123 -693h-232zM454 -8c-72 0 -130 15 -162 35l27 151c16 -5 43 -9 68 -9c62 0 82 25 93 85l78 439h233l-76 -438c-32 -181 -96 -263 -261 -263z" />
    <glyph glyph-name="uni0237" unicode="&#x237;" horiz-adv-x="282" 
d="M-32 -197c-47 0 -91 12 -110 22l24 127c8 -2 22 -5 41 -5c43 0 62 12 70 54l94 538h207l-97 -553c-19 -113 -80 -183 -229 -183z" />
    <glyph glyph-name="dcroat" unicode="&#x111;" horiz-adv-x="586" 
d="M275 590l15 88h128l11 61h207l-11 -61h52l-15 -88h-52l-104 -590h-169l-6 61h-5c-36 -40 -98 -71 -159 -71c-101 0 -156 66 -156 177c0 250 136 382 290 382c54 0 79 -12 92 -18l10 59h-128zM266 133c26 0 47 12 61 22l43 245c-11 7 -23 12 -45 12
c-55 0 -81 -47 -98 -153c-3 -20 -7 -46 -7 -66c0 -40 12 -60 46 -60z" />
    <glyph glyph-name="eng" unicode="&#x14b;" horiz-adv-x="586" 
d="M-11 0l95 539h201l-11 -62h5c49 44 109 72 178 72c85 0 122 -46 122 -125c0 -18 -2 -38 -5 -59l-67 -379c-21 -113 -80 -183 -216 -183c-56 0 -98 12 -117 22l23 123c9 -2 20 -5 39 -5c39 0 59 16 66 58l58 325c1 8 3 18 3 28c0 24 -12 36 -37 36c-22 0 -44 -8 -66 -22
l-64 -368h-207z" />
    <glyph glyph-name="ij" unicode="&#x133;" horiz-adv-x="562" 
d="M-8 0l95 539h207l-95 -539h-207zM94 584l26 149h209l-26 -149h-209zM248 -197c-46 0 -90 12 -109 22l24 127c8 -2 22 -5 40 -5c44 0 63 12 70 54l95 538h207l-97 -553c-20 -113 -80 -183 -230 -183zM375 584l26 149h209l-26 -149h-209z" />
    <glyph glyph-name="Abreve" unicode="&#x102;" horiz-adv-x="701" 
d="M-48 0l360 693h251l96 -693h-232l-11 115h-200l-54 -115h-210zM378 470l-98 -212h122l-20 212h-4zM444 722c-105 0 -165 59 -162 144h129c0 -23 12 -37 37 -37c24 0 39 14 44 37h130c-12 -85 -71 -144 -178 -144z" />
    <glyph glyph-name="Amacron" unicode="&#x100;" horiz-adv-x="701" 
d="M-48 0l360 693h251l96 -693h-232l-11 115h-200l-54 -115h-210zM378 470l-98 -212h122l-20 212h-4zM279 727l22 129h317l-23 -129h-316z" />
    <glyph glyph-name="Aogonek" unicode="&#x104;" horiz-adv-x="701" 
d="M534 -199c-81 0 -113 40 -113 83c0 55 47 91 100 116h-94l-11 115h-201l-53 -115h-210l360 693h251l95 -687c-41 -19 -70 -48 -70 -74c0 -12 8 -20 26 -20c7 0 18 2 25 3l-17 -98c-18 -9 -51 -16 -88 -16zM378 470l-99 -212h123l-20 212h-4z" />
    <glyph glyph-name="Aringacute" unicode="&#x1fa;" horiz-adv-x="701" 
d="M-48 0l360 693h251l96 -693h-232l-11 115h-200l-54 -115h-210zM378 470l-98 -212h122l-20 212h-4zM388 962l76 147h201l-119 -147h-158zM443 712c-78 0 -123 53 -123 111c0 72 56 124 134 124s123 -51 123 -110c0 -72 -56 -125 -134 -125zM446 786c26 0 43 18 43 46
c0 24 -13 41 -38 41c-26 0 -43 -18 -43 -46c0 -24 13 -41 38 -41z" />
    <glyph glyph-name="AEacute" unicode="&#x1fc;" horiz-adv-x="951" 
d="M586 725l76 147h201l-119 -147h-158zM-52 0l465 693h580l-29 -161h-243l-17 -101h185l-28 -158h-185l-20 -112h256l-29 -161h-481l22 125h-179l-79 -125h-218zM333 268h117l44 251h-4z" />
    <glyph glyph-name="Cacute" unicode="&#x106;" horiz-adv-x="566" 
d="M330 -10c-191 0 -301 92 -301 279c0 124 36 232 95 305c74 92 180 131 313 131c88 0 138 -13 173 -33l-28 -160c-30 12 -66 21 -123 21c-93 0 -142 -41 -166 -123c-13 -43 -21 -82 -21 -133c0 -88 49 -117 119 -117c61 0 111 15 143 26l-28 -163
c-36 -18 -92 -33 -176 -33zM316 725l76 147h201l-119 -147h-158z" />
    <glyph glyph-name="Ccaron" unicode="&#x10c;" horiz-adv-x="566" 
d="M622 864l-131 -139h-164l-80 139h141l35 -39l50 39h149zM330 -10c-191 0 -301 92 -301 279c0 124 36 232 95 305c74 92 180 131 313 131c88 0 138 -13 173 -33l-28 -160c-30 12 -66 21 -123 21c-93 0 -142 -41 -166 -123c-13 -43 -21 -82 -21 -133
c0 -88 49 -117 119 -117c61 0 111 15 143 26l-28 -163c-36 -18 -92 -33 -176 -33z" />
    <glyph glyph-name="Ccircumflex" unicode="&#x108;" horiz-adv-x="566" 
d="M219 725l131 139h164l80 -139h-141l-35 39l-50 -39h-149zM330 -10c-191 0 -301 92 -301 279c0 124 36 232 95 305c74 92 180 131 313 131c88 0 138 -13 173 -33l-28 -160c-30 12 -66 21 -123 21c-93 0 -142 -41 -166 -123c-13 -43 -21 -82 -21 -133
c0 -88 49 -117 119 -117c61 0 111 15 143 26l-28 -163c-36 -18 -92 -33 -176 -33z" />
    <glyph glyph-name="Cdotaccent" unicode="&#x10a;" horiz-adv-x="566" 
d="M330 -10c-191 0 -301 92 -301 279c0 124 36 232 95 305c74 92 180 131 313 131c88 0 138 -13 173 -33l-28 -160c-30 12 -66 21 -123 21c-93 0 -142 -41 -166 -123c-13 -43 -21 -82 -21 -133c0 -88 49 -117 119 -117c61 0 111 15 143 26l-28 -163
c-36 -18 -92 -33 -176 -33zM308 726l25 143h209l-25 -143h-209z" />
    <glyph glyph-name="Cacute.pl" horiz-adv-x="566" 
d="M330 -10c-191 0 -301 92 -301 279c0 124 36 232 95 305c74 92 180 131 313 131c88 0 138 -13 173 -33l-28 -160c-30 12 -66 21 -123 21c-93 0 -142 -41 -166 -123c-13 -43 -21 -82 -21 -133c0 -88 49 -117 119 -117c61 0 111 15 143 26l-28 -163
c-36 -18 -92 -33 -176 -33zM338 725l60 149h203l-103 -149h-160z" />
    <glyph glyph-name="Dcaron" unicode="&#x10e;" horiz-adv-x="692" 
d="M611 864l-131 -139h-164l-80 139h141l35 -39l50 39h149zM-3 0l122 693h254c217 0 320 -89 320 -265c0 -241 -112 -428 -391 -428h-305zM257 159h51c76 0 113 57 136 178c7 38 10 76 10 100c0 73 -31 97 -94 97h-37z" />
    <glyph glyph-name="Ebreve" unicode="&#x114;" horiz-adv-x="561" 
d="M-3 0l122 693h484l-29 -161h-254l-17 -101h195l-28 -158h-195l-20 -112h267l-29 -161h-496zM372 722c-105 0 -165 59 -162 144h129c0 -23 12 -37 37 -37c24 0 39 14 44 37h130c-12 -85 -71 -144 -178 -144z" />
    <glyph glyph-name="Ecaron" unicode="&#x11a;" horiz-adv-x="561" 
d="M582 864l-131 -139h-164l-80 139h141l35 -39l50 39h149zM-3 0l122 693h484l-29 -161h-254l-17 -101h195l-28 -158h-195l-20 -112h267l-29 -161h-496z" />
    <glyph glyph-name="Edotaccent" unicode="&#x116;" horiz-adv-x="561" 
d="M270 726l25 143h209l-25 -143h-209zM-3 0l122 693h484l-29 -161h-254l-17 -101h195l-28 -158h-195l-20 -112h267l-29 -161h-496z" />
    <glyph glyph-name="Emacron" unicode="&#x112;" horiz-adv-x="561" 
d="M-3 0l122 693h484l-29 -161h-254l-17 -101h195l-28 -158h-195l-20 -112h267l-29 -161h-496zM211 727l22 129h317l-23 -129h-316z" />
    <glyph glyph-name="Eogonek" unicode="&#x118;" horiz-adv-x="561" 
d="M-3 0l122 693h484l-29 -161h-254l-17 -101h195l-28 -158h-195l-20 -112h267l-29 -161h-48c-28 -18 -58 -41 -58 -68c0 -12 9 -20 27 -20c7 0 17 2 24 3l-17 -98c-18 -9 -50 -16 -87 -16c-82 0 -114 40 -114 83c0 54 47 93 101 116h-324z" />
    <glyph glyph-name="Gbreve" unicode="&#x11e;" horiz-adv-x="679" 
d="M440 722c-105 0 -165 59 -162 144h129c0 -23 12 -37 37 -37c24 0 39 14 44 37h130c-12 -85 -71 -144 -178 -144zM357 -10c-214 0 -323 89 -323 279c0 125 41 233 91 300c75 99 191 136 327 136c120 0 179 -22 216 -45l-28 -166c-39 17 -96 36 -176 36
c-101 0 -155 -47 -179 -150c-9 -41 -16 -85 -16 -130c0 -66 37 -100 94 -100c22 0 36 2 50 8l16 85h-63l25 145h278l-63 -360c-61 -21 -149 -38 -249 -38z" />
    <glyph glyph-name="Gcircumflex" unicode="&#x11c;" horiz-adv-x="679" 
d="M244 725l131 139h164l80 -139h-141l-35 39l-50 -39h-149zM357 -10c-214 0 -323 89 -323 279c0 125 41 233 91 300c75 99 191 136 327 136c120 0 179 -22 216 -45l-28 -166c-39 17 -96 36 -176 36c-101 0 -155 -47 -179 -150c-9 -41 -16 -85 -16 -130
c0 -66 37 -100 94 -100c22 0 36 2 50 8l16 85h-63l25 145h278l-63 -360c-61 -21 -149 -38 -249 -38z" />
    <glyph glyph-name="Gcommaaccent" unicode="&#x122;" horiz-adv-x="679" 
d="M192 -182l37 149h177l-74 -149h-140zM357 -10c-214 0 -323 89 -323 279c0 125 41 233 91 300c75 99 191 136 327 136c120 0 179 -22 216 -45l-28 -166c-39 17 -96 36 -176 36c-101 0 -155 -47 -179 -150c-9 -41 -16 -85 -16 -130c0 -66 37 -100 94 -100c22 0 36 2 50 8
l16 85h-63l25 145h278l-63 -360c-61 -21 -149 -38 -249 -38z" />
    <glyph glyph-name="Gdotaccent" unicode="&#x120;" horiz-adv-x="679" 
d="M329 726l25 143h209l-25 -143h-209zM357 -10c-214 0 -323 89 -323 279c0 125 41 233 91 300c75 99 191 136 327 136c120 0 179 -22 216 -45l-28 -166c-39 17 -96 36 -176 36c-101 0 -155 -47 -179 -150c-9 -41 -16 -85 -16 -130c0 -66 37 -100 94 -100c22 0 36 2 50 8
l16 85h-63l25 145h278l-63 -360c-61 -21 -149 -38 -249 -38z" />
    <glyph glyph-name="Hbar" unicode="&#x126;" horiz-adv-x="727" 
d="M41 504l17 94h45l17 95h232l-17 -95h176l17 95h233l-17 -95h44l-18 -94h-43l-89 -504h-233l49 273h-176l-48 -273h-232l88 504h-45zM306 430h176l13 74h-176z" />
    <glyph glyph-name="Hcircumflex" unicode="&#x124;" horiz-adv-x="722" 
d="M-3 0l122 693h233l-46 -257h172l46 257h233l-123 -693h-233l49 273h-172l-49 -273h-232zM253 725l131 139h164l80 -139h-141l-35 39l-50 -39h-149z" />
    <glyph glyph-name="Idotaccent" unicode="&#x130;" horiz-adv-x="321" 
d="M-1 0l122 693h233l-123 -693h-232zM139 726l25 143h209l-25 -143h-209z" />
    <glyph glyph-name="Ibreve" unicode="&#x12c;" horiz-adv-x="321" 
d="M-1 0l122 693h233l-123 -693h-232zM252 722c-105 0 -165 59 -162 144h129c0 -23 12 -37 37 -37c24 0 39 14 44 37h130c-12 -85 -71 -144 -178 -144z" />
    <glyph glyph-name="Imacron" unicode="&#x12a;" horiz-adv-x="321" 
d="M-1 0l122 693h233l-123 -693h-232zM90 727l23 129h308l-23 -129h-308z" />
    <glyph glyph-name="Iogonek" unicode="&#x12e;" horiz-adv-x="321" 
d="M108 -199c-81 0 -113 40 -113 83c0 56 48 93 104 116h-100l122 693h233l-123 -691c-40 -16 -70 -44 -70 -70c0 -12 9 -20 27 -20c7 0 18 2 25 3l-18 -98c-18 -9 -50 -16 -87 -16z" />
    <glyph glyph-name="Itilde" unicode="&#x128;" horiz-adv-x="321" 
d="M-1 0l122 693h233l-123 -693h-232zM56 726c20 108 78 148 138 148c52 0 90 -30 114 -30c17 0 26 11 32 28h120c-20 -107 -78 -148 -139 -148c-52 0 -89 29 -114 29c-16 0 -26 -10 -31 -27h-120z" />
    <glyph glyph-name="Jcircumflex" unicode="&#x134;" horiz-adv-x="433" 
d="M167 725l131 139h164l80 -139h-141l-35 39l-50 -39h-149zM136 -8c-73 0 -131 15 -163 35l27 151c16 -4 43 -9 69 -9c62 0 82 25 93 85l78 439h233l-77 -438c-31 -181 -95 -263 -260 -263z" />
    <glyph glyph-name="Kcommaaccent" unicode="&#x136;" horiz-adv-x="685" 
d="M-3 0l122 693h233l-52 -293l226 293h235l-266 -344l148 -349h-243l-117 301l-53 -301h-233zM176 -182l37 149h177l-74 -149h-140z" />
    <glyph glyph-name="Lacute" unicode="&#x139;" horiz-adv-x="530" 
d="M142 725l76 147h201l-119 -147h-158zM-3 0l122 693h233l-94 -532h244l-29 -161h-476z" />
    <glyph glyph-name="Lcaron" unicode="&#x13d;" horiz-adv-x="536" 
d="M-4 0l122 693h233l-94 -532h244l-28 -161h-477zM368 503l42 190h158l-67 -190h-133z" />
    <glyph glyph-name="Lcommaaccent" unicode="&#x13b;" horiz-adv-x="530" 
d="M101 -182l37 149h177l-74 -149h-140zM-3 0l122 693h233l-94 -532h244l-29 -161h-476z" />
    <glyph glyph-name="Ldot" unicode="&#x13f;" horiz-adv-x="530" 
d="M-3 0l122 693h233l-94 -532h244l-29 -161h-476zM352 295l27 151h169l-26 -151h-170z" />
    <glyph glyph-name="Nacute" unicode="&#x143;" horiz-adv-x="700" 
d="M343 725l76 147h201l-119 -147h-158zM-3 0l122 693h246l109 -350h4l61 350h196l-122 -693h-225l-125 383h-3l-68 -383h-195z" />
    <glyph glyph-name="Ncaron" unicode="&#x147;" horiz-adv-x="700" 
d="M656 864l-131 -139h-164l-80 139h141l35 -39l50 39h149zM-3 0l122 693h246l109 -350h4l61 350h196l-122 -693h-225l-125 383h-3l-68 -383h-195z" />
    <glyph glyph-name="Ncommaaccent" unicode="&#x145;" horiz-adv-x="700" 
d="M172 -182l37 149h177l-74 -149h-140zM-3 0l122 693h246l109 -350h4l61 350h196l-122 -693h-225l-125 383h-3l-68 -383h-195z" />
    <glyph glyph-name="Nacute.pl" horiz-adv-x="700" 
d="M365 725l60 149h203l-103 -149h-160zM-3 0l122 693h246l109 -350h4l61 350h196l-122 -693h-225l-125 383h-3l-68 -383h-195z" />
    <glyph glyph-name="Obreve" unicode="&#x14e;" horiz-adv-x="718" 
d="M437 722c-105 0 -165 59 -162 144h129c0 -23 12 -37 37 -37c24 0 39 14 44 37h130c-12 -85 -71 -144 -178 -144zM326 -12c-178 0 -295 95 -295 279c0 261 156 438 393 438c179 0 296 -95 296 -279c0 -262 -154 -438 -394 -438zM346 154c62 0 101 65 123 194
c5 32 9 71 9 101c0 66 -26 90 -73 90c-55 0 -99 -51 -123 -194c-8 -41 -10 -75 -10 -101c0 -68 29 -90 74 -90z" />
    <glyph glyph-name="Ohungarumlaut" unicode="&#x150;" horiz-adv-x="718" 
d="M245 725l59 149h180l-83 -149h-156zM462 725l59 149h179l-83 -149h-155zM326 -12c-178 0 -295 95 -295 279c0 261 156 438 393 438c179 0 296 -95 296 -279c0 -262 -154 -438 -394 -438zM346 154c62 0 101 65 123 194c5 32 9 71 9 101c0 66 -26 90 -73 90
c-55 0 -99 -51 -123 -194c-8 -41 -10 -75 -10 -101c0 -68 29 -90 74 -90z" />
    <glyph glyph-name="Omacron" unicode="&#x14c;" horiz-adv-x="718" 
d="M274 727l22 129h317l-23 -129h-316zM326 -12c-178 0 -295 95 -295 279c0 261 156 438 393 438c179 0 296 -95 296 -279c0 -262 -154 -438 -394 -438zM346 154c62 0 101 65 123 194c5 32 9 71 9 101c0 66 -26 90 -73 90c-55 0 -99 -51 -123 -194c-8 -41 -10 -75 -10 -101
c0 -68 29 -90 74 -90z" />
    <glyph glyph-name="Oacute.pl" horiz-adv-x="718" 
d="M356 725l60 149h203l-103 -149h-160zM326 -12c-178 0 -295 95 -295 279c0 261 156 438 393 438c179 0 296 -95 296 -279c0 -262 -154 -438 -394 -438zM346 154c62 0 101 65 123 194c5 32 9 71 9 101c0 66 -26 90 -73 90c-55 0 -99 -51 -123 -194c-8 -41 -10 -75 -10 -101
c0 -68 29 -90 74 -90z" />
    <glyph glyph-name="Oslashacute" unicode="&#x1fe;" horiz-adv-x="718" 
d="M326 -12c-75 0 -138 19 -187 54l-41 -42h-133l108 111c-27 43 -42 95 -42 156c0 261 156 438 393 438c71 0 133 -17 181 -49l37 37h133l-102 -104c30 -44 47 -100 47 -163c0 -262 -154 -438 -394 -438zM335 725l76 147h201l-119 -147h-158zM343 149c72 0 120 63 142 197
c3 18 6 38 8 58l-220 -225c16 -22 42 -30 70 -30zM266 347c-3 -17 -6 -32 -7 -46l214 219c-16 17 -40 24 -66 24c-63 0 -115 -48 -141 -197z" />
    <glyph glyph-name="Racute" unicode="&#x154;" horiz-adv-x="666" 
d="M287 725l76 147h201l-119 -147h-158zM-3 0l122 693h304c156 0 234 -72 234 -189c0 -104 -45 -177 -139 -208v-3l102 -293h-232l-72 237h-53l-34 -237h-232zM291 371h48c65 0 85 49 85 113c0 39 -22 57 -59 57h-44z" />
    <glyph glyph-name="Rcaron" unicode="&#x158;" horiz-adv-x="666" 
d="M598 864l-131 -139h-164l-80 139h141l35 -39l50 39h149zM-3 0l122 693h304c156 0 234 -72 234 -189c0 -104 -45 -177 -139 -208v-3l102 -293h-232l-72 237h-53l-34 -237h-232zM291 371h48c65 0 85 49 85 113c0 39 -22 57 -59 57h-44z" />
    <glyph glyph-name="Rcommaaccent" unicode="&#x156;" horiz-adv-x="666" 
d="M166 -182l37 149h177l-74 -149h-140zM-3 0l122 693h304c156 0 234 -72 234 -189c0 -104 -45 -177 -139 -208v-3l102 -293h-232l-72 237h-53l-34 -237h-232zM291 371h48c65 0 85 49 85 113c0 39 -22 57 -59 57h-44z" />
    <glyph glyph-name="Sacute" unicode="&#x15a;" horiz-adv-x="543" 
d="M208 -10c-94 0 -184 24 -226 53l31 154c58 -26 106 -43 174 -43c72 0 97 24 97 59c0 24 -10 35 -57 51l-39 14c-102 32 -133 94 -133 184c0 153 93 243 288 243c129 0 186 -28 222 -49l-32 -152c-46 18 -104 37 -186 37c-44 0 -71 -17 -71 -49c0 -23 9 -36 48 -49l46 -15
c113 -36 146 -102 146 -192c0 -158 -103 -246 -308 -246zM245 725l76 147h201l-119 -147h-158z" />
    <glyph glyph-name="Scedilla" unicode="&#x15e;" horiz-adv-x="543" 
d="M79 -228l13 74c67 4 97 10 97 34c0 14 -12 22 -62 24l16 90c-69 7 -129 27 -161 49l31 154c58 -26 106 -43 174 -43c72 0 97 24 97 59c0 24 -10 35 -57 51l-39 14c-102 32 -133 94 -133 184c0 153 93 243 288 243c129 0 186 -28 222 -49l-32 -152c-46 18 -104 37 -186 37
c-44 0 -71 -17 -71 -49c0 -23 9 -36 48 -49l46 -15c113 -36 146 -102 146 -192c0 -152 -95 -239 -285 -245l-4 -29c67 -3 97 -31 97 -73c0 -75 -70 -112 -245 -117z" />
    <glyph glyph-name="Scircumflex" unicode="&#x15c;" horiz-adv-x="543" 
d="M151 725l131 139h164l80 -139h-141l-35 39l-50 -39h-149zM208 -10c-94 0 -184 24 -226 53l31 154c58 -26 106 -43 174 -43c72 0 97 24 97 59c0 24 -10 35 -57 51l-39 14c-102 32 -133 94 -133 184c0 153 93 243 288 243c129 0 186 -28 222 -49l-32 -152
c-46 18 -104 37 -186 37c-44 0 -71 -17 -71 -49c0 -23 9 -36 48 -49l46 -15c113 -36 146 -102 146 -192c0 -158 -103 -246 -308 -246z" />
    <glyph glyph-name="Scommaaccent" unicode="&#x218;" horiz-adv-x="543" 
d="M82 -182l37 149h177l-74 -149h-140zM208 -10c-94 0 -184 24 -226 53l31 154c58 -26 106 -43 174 -43c72 0 97 24 97 59c0 24 -10 35 -57 51l-39 14c-102 32 -133 94 -133 184c0 153 93 243 288 243c129 0 186 -28 222 -49l-32 -152c-46 18 -104 37 -186 37
c-44 0 -71 -17 -71 -49c0 -23 9 -36 48 -49l46 -15c113 -36 146 -102 146 -192c0 -158 -103 -246 -308 -246z" />
    <glyph glyph-name="Sacute.pl" horiz-adv-x="543" 
d="M208 -10c-94 0 -184 24 -226 53l31 154c58 -26 106 -43 174 -43c72 0 97 24 97 59c0 24 -10 35 -57 51l-39 14c-102 32 -133 94 -133 184c0 153 93 243 288 243c129 0 186 -28 222 -49l-32 -152c-46 18 -104 37 -186 37c-44 0 -71 -17 -71 -49c0 -23 9 -36 48 -49l46 -15
c113 -36 146 -102 146 -192c0 -158 -103 -246 -308 -246zM255 725l60 149h203l-103 -149h-160z" />
    <glyph glyph-name="Tcaron" unicode="&#x164;" horiz-adv-x="590" 
d="M591 864l-131 -139h-164l-80 139h141l35 -39l50 39h149zM133 0l94 532h-169l29 161h570l-29 -161h-168l-94 -532h-233z" />
    <glyph glyph-name="Tcommaaccent" unicode="&#x162;" horiz-adv-x="590" 
d="M116 -182l37 149h177l-74 -149h-140zM133 0l94 532h-169l29 161h570l-29 -161h-168l-94 -532h-233z" />
    <glyph glyph-name="Tbar" unicode="&#x166;" horiz-adv-x="590" 
d="M71 298l21 111h113l22 123h-169l29 161h570l-29 -161h-168l-22 -123h121l-21 -111h-120l-52 -298h-233l52 298h-114z" />
    <glyph glyph-name="Ubreve" unicode="&#x16c;" horiz-adv-x="683" 
d="M317 -12c-191 0 -284 74 -284 217c0 23 2 47 7 73l73 415h233l-76 -431c-2 -13 -3 -24 -3 -37c0 -45 24 -69 76 -69c61 0 87 34 98 101l77 436h206l-78 -445c-31 -176 -117 -260 -329 -260zM434 722c-105 0 -165 59 -162 144h129c0 -23 12 -37 37 -37c24 0 39 14 44 37
h130c-12 -85 -71 -144 -178 -144z" />
    <glyph glyph-name="Uhungarumlaut" unicode="&#x170;" horiz-adv-x="683" 
d="M242 725l59 149h180l-83 -149h-156zM459 725l59 149h179l-83 -149h-155zM317 -12c-191 0 -284 74 -284 217c0 23 2 47 7 73l73 415h233l-76 -431c-2 -13 -3 -24 -3 -37c0 -45 24 -69 76 -69c61 0 87 34 98 101l77 436h206l-78 -445c-31 -176 -117 -260 -329 -260z" />
    <glyph glyph-name="Umacron" unicode="&#x16a;" horiz-adv-x="683" 
d="M317 -12c-191 0 -284 74 -284 217c0 23 2 47 7 73l73 415h233l-76 -431c-2 -13 -3 -24 -3 -37c0 -45 24 -69 76 -69c61 0 87 34 98 101l77 436h206l-78 -445c-31 -176 -117 -260 -329 -260zM271 727l22 129h317l-23 -129h-316z" />
    <glyph glyph-name="Uogonek" unicode="&#x172;" horiz-adv-x="683" 
d="M311 -199c-81 0 -113 40 -113 83c0 50 40 83 87 105c-170 8 -252 81 -252 216c0 23 2 47 7 73l73 415h233l-76 -431c-2 -13 -3 -24 -3 -37c0 -45 24 -69 76 -69c61 0 87 34 98 101l77 436h206l-78 -445c-21 -124 -69 -198 -170 -237c-62 -25 -112 -40 -112 -79
c0 -12 9 -20 27 -20c7 0 17 2 24 3l-17 -98c-18 -9 -50 -16 -87 -16z" />
    <glyph glyph-name="Uring" unicode="&#x16e;" horiz-adv-x="683" 
d="M317 -12c-191 0 -284 74 -284 217c0 23 2 47 7 73l73 415h233l-76 -431c-2 -13 -3 -24 -3 -37c0 -45 24 -69 76 -69c61 0 87 34 98 101l77 436h206l-78 -445c-31 -176 -117 -260 -329 -260zM434 699c-78 0 -123 53 -123 111c0 72 56 124 134 124s123 -51 123 -110
c0 -72 -56 -125 -134 -125zM437 773c26 0 43 18 43 46c0 24 -13 41 -38 41c-26 0 -43 -18 -43 -46c0 -24 13 -41 38 -41z" />
    <glyph glyph-name="Utilde" unicode="&#x168;" horiz-adv-x="683" 
d="M317 -12c-191 0 -284 74 -284 217c0 23 2 47 7 73l73 415h233l-76 -431c-2 -13 -3 -24 -3 -37c0 -45 24 -69 76 -69c61 0 87 34 98 101l77 436h206l-78 -445c-31 -176 -117 -260 -329 -260zM240 726c20 108 78 148 138 148c52 0 90 -30 114 -30c17 0 26 11 32 28h120
c-20 -107 -78 -148 -139 -148c-52 0 -89 29 -114 29c-16 0 -26 -10 -31 -27h-120z" />
    <glyph glyph-name="Wacute" unicode="&#x1e82;" horiz-adv-x="958" 
d="M483 725l76 147h201l-119 -147h-158zM126 0l-44 693h225l10 -405h4l151 405h188l23 -405h4l138 405h205l-269 -693h-236l-16 390h-3l-143 -390h-237z" />
    <glyph glyph-name="Wcircumflex" unicode="&#x174;" horiz-adv-x="958" 
d="M381 725l131 139h164l80 -139h-141l-35 39l-50 -39h-149zM126 0l-44 693h225l10 -405h4l151 405h188l23 -405h4l138 405h205l-269 -693h-236l-16 390h-3l-143 -390h-237z" />
    <glyph glyph-name="Wdieresis" unicode="&#x1e84;" horiz-adv-x="958" 
d="M600 726l25 143h167l-24 -143h-168zM376 726l25 143h167l-24 -143h-168zM126 0l-44 693h225l10 -405h4l151 405h188l23 -405h4l138 405h205l-269 -693h-236l-16 390h-3l-143 -390h-237z" />
    <glyph glyph-name="Wgrave" unicode="&#x1e80;" horiz-adv-x="958" 
d="M504 725l-73 149h192l30 -149h-149zM126 0l-44 693h225l10 -405h4l151 405h188l23 -405h4l138 405h205l-269 -693h-236l-16 390h-3l-143 -390h-237z" />
    <glyph glyph-name="Ycircumflex" unicode="&#x176;" horiz-adv-x="642" 
d="M161 0l48 273l-133 420h231l58 -237h3l134 237h217l-278 -424l-47 -269h-233zM214 725l131 139h164l80 -139h-141l-35 39l-50 -39h-149z" />
    <glyph glyph-name="Ygrave" unicode="&#x1ef2;" horiz-adv-x="642" 
d="M161 0l48 273l-133 420h231l58 -237h3l134 237h217l-278 -424l-47 -269h-233zM342 725l-73 149h192l30 -149h-149z" />
    <glyph glyph-name="Zacute" unicode="&#x179;" horiz-adv-x="586" 
d="M288 725l76 147h201l-119 -147h-158zM-18 0l28 156l316 372v4h-237l29 161h514l-28 -156l-318 -372v-4h256l-28 -161h-532z" />
    <glyph glyph-name="Zdotaccent" unicode="&#x17b;" horiz-adv-x="586" 
d="M-18 0l28 156l316 372v4h-237l29 161h514l-28 -156l-318 -372v-4h256l-28 -161h-532zM278 726l25 143h209l-25 -143h-209z" />
    <glyph glyph-name="Zacute.pl" horiz-adv-x="586" 
d="M-18 0l28 156l316 372v4h-237l29 161h514l-28 -156l-318 -372v-4h256l-28 -161h-532zM295 725l60 149h203l-103 -149h-160z" />
    <glyph glyph-name="abreve" unicode="&#x103;" horiz-adv-x="573" 
d="M166 -10c-99 0 -155 67 -155 179c0 253 160 380 353 380c100 0 185 -19 221 -32l-92 -517h-168l-6 61h-5c-35 -40 -85 -71 -148 -71zM265 133c22 0 38 11 50 22l43 244c-7 4 -13 6 -25 6c-53 0 -87 -42 -104 -141c-4 -22 -9 -48 -9 -77c0 -36 14 -54 45 -54zM380 583
c-105 0 -161 63 -158 152h130c0 -22 12 -36 36 -36s39 14 45 36h129c-12 -90 -75 -152 -182 -152z" />
    <glyph glyph-name="amacron" unicode="&#x101;" horiz-adv-x="573" 
d="M166 -10c-99 0 -155 67 -155 179c0 253 160 380 353 380c100 0 185 -19 221 -32l-92 -517h-168l-6 61h-5c-35 -40 -85 -71 -148 -71zM265 133c22 0 38 11 50 22l43 244c-7 4 -13 6 -25 6c-53 0 -87 -42 -104 -141c-4 -22 -9 -48 -9 -77c0 -36 14 -54 45 -54zM224 585
l23 129h300l-23 -129h-300z" />
    <glyph glyph-name="aogonek" unicode="&#x105;" horiz-adv-x="573" 
d="M377 -199c-81 0 -113 40 -113 83c0 59 55 94 113 116h-52l-6 61h-5c-35 -40 -85 -71 -148 -71c-99 0 -155 67 -155 179c0 253 160 380 354 380c99 0 184 -19 220 -32l-91 -512c-34 -22 -63 -47 -63 -73c0 -12 8 -20 26 -20c7 0 18 2 25 3l-17 -98c-18 -9 -51 -16 -88 -16
zM264 133c23 0 39 11 51 22l43 244c-7 4 -13 6 -25 6c-53 0 -87 -41 -104 -141c-4 -22 -8 -48 -8 -77c0 -36 12 -54 43 -54z" />
    <glyph glyph-name="aringacute" unicode="&#x1fb;" horiz-adv-x="573" 
d="M166 -10c-99 0 -155 67 -155 179c0 253 160 380 353 380c100 0 185 -19 221 -32l-92 -517h-168l-6 61h-5c-35 -40 -85 -71 -148 -71zM265 133c22 0 38 11 50 22l43 244c-7 4 -13 6 -25 6c-53 0 -87 -42 -104 -141c-4 -22 -9 -48 -9 -77c0 -36 14 -54 45 -54zM382 575
c-78 0 -123 54 -123 111c0 72 56 125 134 125s123 -52 123 -111c0 -72 -56 -125 -134 -125zM385 649c26 0 43 18 43 47c0 24 -13 41 -38 41c-26 0 -43 -18 -43 -47c0 -24 13 -41 38 -41zM323 834l76 147h201l-119 -147h-158z" />
    <glyph glyph-name="aeacute" unicode="&#x1fd;" horiz-adv-x="818" 
d="M152 -10c-100 0 -160 49 -160 137c0 110 66 166 222 184l94 12l3 14c9 46 -13 61 -85 61c-50 0 -105 -8 -146 -19l24 135c61 23 122 35 192 35s125 -16 153 -56c36 35 86 56 156 56c177 0 228 -117 200 -287l-7 -41h-301c2 -61 24 -88 112 -88c60 0 120 15 154 29
l-22 -127c-47 -24 -96 -45 -197 -45s-171 28 -212 79c-47 -51 -110 -79 -180 -79zM399 579l85 159h201l-127 -159h-159zM296 146c-5 20 -7 41 -7 64v13l-40 -2c-39 -1 -58 -18 -58 -65c0 -29 13 -40 36 -40c24 0 46 11 69 30zM581 416c-35 0 -60 -24 -73 -89h113
c11 60 2 89 -40 89z" />
    <glyph glyph-name="cacute" unicode="&#x107;" horiz-adv-x="459" 
d="M236 579l85 159h201l-127 -159h-159zM253 -10c-161 0 -240 82 -240 220c0 81 22 156 59 212c52 80 141 127 270 127c67 0 116 -15 142 -30l-25 -141c-26 11 -48 18 -95 18c-83 0 -116 -27 -136 -104c-5 -18 -8 -38 -8 -58c0 -60 29 -91 96 -91c46 0 85 11 112 20
l-24 -139c-26 -16 -65 -34 -151 -34z" />
    <glyph glyph-name="ccaron" unicode="&#x10d;" horiz-adv-x="459" 
d="M232 579l-76 159h142l34 -50l52 50h149l-136 -159h-165zM253 -10c-161 0 -240 82 -240 220c0 81 22 156 59 212c52 80 141 127 270 127c67 0 116 -15 142 -30l-25 -141c-26 11 -48 18 -95 18c-83 0 -116 -27 -136 -104c-5 -18 -8 -38 -8 -58c0 -60 29 -91 96 -91
c46 0 85 11 112 20l-24 -139c-26 -16 -65 -34 -151 -34z" />
    <glyph glyph-name="ccircumflex" unicode="&#x109;" horiz-adv-x="459" 
d="M126 579l136 159h164l77 -159h-142l-34 49l-52 -49h-149zM253 -10c-161 0 -240 82 -240 220c0 81 22 156 59 212c52 80 141 127 270 127c67 0 116 -15 142 -30l-25 -141c-26 11 -48 18 -95 18c-83 0 -116 -27 -136 -104c-5 -18 -8 -38 -8 -58c0 -60 29 -91 96 -91
c46 0 85 11 112 20l-24 -139c-26 -16 -65 -34 -151 -34z" />
    <glyph glyph-name="cdotaccent" unicode="&#x10b;" horiz-adv-x="459" 
d="M212 584l26 149h209l-26 -149h-209zM253 -10c-161 0 -240 82 -240 220c0 81 22 156 59 212c52 80 141 127 270 127c67 0 116 -15 142 -30l-25 -141c-26 11 -48 18 -95 18c-83 0 -116 -27 -136 -104c-5 -18 -8 -38 -8 -58c0 -60 29 -91 96 -91c46 0 85 11 112 20l-24 -139
c-26 -16 -65 -34 -151 -34z" />
    <glyph glyph-name="cacute.pl" horiz-adv-x="459" 
d="M227 579l65 159h203l-108 -159h-160zM253 -10c-161 0 -240 82 -240 220c0 81 22 156 59 212c52 80 141 127 270 127c67 0 116 -15 142 -30l-25 -141c-26 11 -48 18 -95 18c-83 0 -116 -27 -136 -104c-5 -18 -8 -38 -8 -58c0 -60 29 -91 96 -91c46 0 85 11 112 20
l-24 -139c-26 -16 -65 -34 -151 -34z" />
    <glyph glyph-name="dcaron" unicode="&#x10f;" horiz-adv-x="585" 
d="M747 574h-108l34 165h134zM167 -10c-101 0 -156 66 -156 177c0 250 136 382 290 382c54 0 79 -12 92 -18l36 208h207l-130 -739h-169l-6 61h-5c-36 -40 -98 -71 -159 -71zM266 133c26 0 47 12 61 22l43 245c-11 7 -23 12 -45 12c-55 0 -81 -47 -98 -153
c-3 -20 -7 -46 -7 -66c0 -40 12 -60 46 -60z" />
    <glyph glyph-name="ebreve" unicode="&#x115;" horiz-adv-x="541" 
d="M267 -10c-173 0 -254 83 -254 220c0 85 21 161 61 219c51 74 133 120 243 120c190 0 240 -118 212 -287l-7 -42h-301c2 -61 25 -87 112 -87c61 0 120 15 154 29l-22 -127c-47 -24 -96 -45 -198 -45zM324 583c-105 0 -161 63 -158 152h130c0 -22 12 -36 36 -36
s39 14 45 36h129c-12 -90 -75 -152 -182 -152zM305 416c-36 0 -61 -25 -75 -90h115c11 60 1 90 -40 90z" />
    <glyph glyph-name="ecaron" unicode="&#x11b;" horiz-adv-x="541" 
d="M267 -10c-173 0 -254 83 -254 220c0 85 21 161 61 219c51 74 133 120 243 120c190 0 240 -118 212 -287l-7 -42h-301c2 -61 25 -87 112 -87c61 0 120 15 154 29l-22 -127c-47 -24 -96 -45 -198 -45zM235 579l-76 159h142l34 -50l52 50h149l-136 -159h-165zM305 416
c-36 0 -61 -25 -75 -90h115c11 60 1 90 -40 90z" />
    <glyph glyph-name="edotaccent" unicode="&#x117;" horiz-adv-x="541" 
d="M267 -10c-173 0 -254 83 -254 220c0 85 21 161 61 219c51 74 133 120 243 120c190 0 240 -118 212 -287l-7 -42h-301c2 -61 25 -87 112 -87c61 0 120 15 154 29l-22 -127c-47 -24 -96 -45 -198 -45zM216 584l26 149h209l-26 -149h-209zM305 416c-36 0 -61 -25 -75 -90
h115c11 60 1 90 -40 90z" />
    <glyph glyph-name="emacron" unicode="&#x113;" horiz-adv-x="541" 
d="M267 -10c-173 0 -254 83 -254 220c0 85 21 161 61 219c51 74 133 120 243 120c190 0 240 -118 212 -287l-7 -42h-301c2 -61 25 -87 112 -87c61 0 120 15 154 29l-22 -127c-47 -24 -96 -45 -198 -45zM169 585l23 129h300l-23 -129h-300zM305 416c-36 0 -61 -25 -75 -90
h115c11 60 1 90 -40 90z" />
    <glyph glyph-name="eogonek" unicode="&#x119;" horiz-adv-x="541" 
d="M487 162l-22 -127c-28 -14 -58 -25 -81 -38c-29 -18 -56 -39 -56 -65c0 -12 9 -20 27 -20c7 0 17 2 24 3l-17 -98c-18 -9 -50 -16 -87 -16c-82 0 -114 40 -114 83c0 53 43 84 94 106c-165 4 -242 86 -242 220c0 85 21 161 61 219c51 74 133 120 243 120
c190 0 240 -118 212 -287l-7 -42h-301c2 -61 25 -87 112 -87c61 0 120 15 154 29zM305 416c-36 0 -61 -25 -75 -90h115c11 60 1 90 -40 90z" />
    <glyph glyph-name="gbreve" unicode="&#x11f;" horiz-adv-x="587" 
d="M196 -202c-88 0 -180 20 -221 45l25 140c48 -20 105 -33 167 -33c110 0 133 39 143 98l4 24h-5c-34 -33 -74 -55 -137 -55c-102 0 -157 72 -157 179c0 208 113 353 348 353c103 0 190 -21 235 -39l-83 -473c-31 -176 -130 -239 -319 -239zM269 151c23 0 50 12 63 22
l40 229c-9 4 -26 8 -40 8c-48 0 -82 -36 -99 -125c-4 -22 -7 -44 -7 -70c0 -38 13 -64 43 -64zM376 583c-105 0 -161 63 -158 152h130c0 -22 12 -36 36 -36s39 14 45 36h129c-12 -90 -75 -152 -182 -152z" />
    <glyph glyph-name="gcircumflex" unicode="&#x11d;" horiz-adv-x="587" 
d="M181 579l136 159h164l77 -159h-142l-34 49l-52 -49h-149zM196 -202c-88 0 -180 20 -221 45l25 140c48 -20 105 -33 167 -33c110 0 133 39 143 98l4 24h-5c-34 -33 -74 -55 -137 -55c-102 0 -157 72 -157 179c0 208 113 353 348 353c103 0 190 -21 235 -39l-83 -473
c-31 -176 -130 -239 -319 -239zM269 151c23 0 50 12 63 22l40 229c-9 4 -26 8 -40 8c-48 0 -82 -36 -99 -125c-4 -22 -7 -44 -7 -70c0 -38 13 -64 43 -64z" />
    <glyph glyph-name="gcommaaccent" unicode="&#x123;" horiz-adv-x="587" 
d="M490 731l-37 -149h-177l75 149h139zM196 -202c-88 0 -180 20 -221 45l25 140c48 -20 105 -33 167 -33c110 0 133 39 143 98l4 24h-5c-34 -33 -74 -55 -137 -55c-102 0 -157 72 -157 179c0 208 113 353 348 353c103 0 190 -21 235 -39l-83 -473
c-31 -176 -130 -239 -319 -239zM269 151c23 0 50 12 63 22l40 229c-9 4 -26 8 -40 8c-48 0 -82 -36 -99 -125c-4 -22 -7 -44 -7 -70c0 -38 13 -64 43 -64z" />
    <glyph glyph-name="gdotaccent" unicode="&#x121;" horiz-adv-x="587" 
d="M196 -202c-88 0 -180 20 -221 45l25 140c48 -20 105 -33 167 -33c110 0 133 39 143 98l4 24h-5c-34 -33 -74 -55 -137 -55c-102 0 -157 72 -157 179c0 208 113 353 348 353c103 0 190 -21 235 -39l-83 -473c-31 -176 -130 -239 -319 -239zM269 151c23 0 50 12 63 22
l40 229c-9 4 -26 8 -40 8c-48 0 -82 -36 -99 -125c-4 -22 -7 -44 -7 -70c0 -38 13 -64 43 -64zM266 584l26 149h209l-26 -149h-209z" />
    <glyph glyph-name="hbar" unicode="&#x127;" horiz-adv-x="586" 
d="M-11 0l104 590h-50l15 88h51l11 61h207l-11 -61h129l-16 -88h-128l-18 -103h5c44 38 100 62 163 62c91 0 128 -46 128 -125c0 -18 -2 -38 -5 -59l-65 -365h-207l58 326c1 8 3 18 3 28c0 24 -12 36 -37 36c-22 0 -44 -8 -66 -22l-64 -368h-207z" />
    <glyph glyph-name="hcircumflex" unicode="&#x125;" horiz-adv-x="586" 
d="M-11 0l131 739h207l-44 -252h5c44 38 100 62 163 62c91 0 128 -46 128 -125c0 -18 -2 -38 -5 -59l-65 -365h-207l58 326c1 8 3 18 3 28c0 24 -12 36 -37 36c-22 0 -44 -8 -66 -22l-64 -368h-207zM196 770l131 139h164l80 -139h-141l-35 39l-50 -39h-149z" />
    <glyph glyph-name="ibreve" unicode="&#x12d;" horiz-adv-x="281" 
d="M205 583c-101 0 -155 63 -152 152h125c-1 -22 12 -36 35 -36c24 0 38 14 43 36h124c-11 -90 -71 -152 -175 -152zM-8 0l95 539h207l-95 -539h-207z" />
    <glyph glyph-name="imacron" unicode="&#x12b;" horiz-adv-x="281" 
d="M60 585l23 129h277l-23 -129h-277zM-8 0l95 539h207l-95 -539h-207z" />
    <glyph glyph-name="iogonek" unicode="&#x12f;" horiz-adv-x="281" 
d="M-30 -116c0 57 53 93 110 116h-88l95 539h207l-94 -533c-34 -22 -64 -48 -64 -74c0 -12 9 -20 27 -20c6 0 17 2 24 3l-17 -98c-18 -9 -50 -16 -87 -16c-81 0 -113 40 -113 83zM94 584l26 149h209l-26 -149h-209z" />
    <glyph glyph-name="itilde" unicode="&#x129;" horiz-adv-x="281" 
d="M23 586c20 112 76 155 131 155c49 0 81 -30 102 -30c15 0 23 11 29 28h114c-19 -112 -75 -155 -131 -155c-48 0 -81 29 -101 29c-16 0 -24 -10 -30 -27h-114zM-8 0l95 539h207l-95 -539h-207z" />
    <glyph glyph-name="idotaccent" horiz-adv-x="281" 
d="M-8 0l95 539h207l-95 -539h-207zM94 584l26 149h209l-26 -149h-209z" />
    <glyph glyph-name="jcircumflex" unicode="&#x135;" horiz-adv-x="281" 
d="M11 579l134 159h165l74 -159h-142l-32 49l-49 -49h-150zM-32 -197c-47 0 -91 12 -110 22l24 127c8 -2 22 -5 41 -5c43 0 62 12 70 54l94 538h207l-97 -553c-19 -113 -80 -183 -229 -183z" />
    <glyph glyph-name="kcommaaccent" unicode="&#x137;" horiz-adv-x="582" 
d="M325 0l-87 241l-43 -241h-206l130 739h207l-74 -418l162 218h209l-201 -262l115 -277h-212zM116 -182l37 149h177l-74 -149h-140z" />
    <glyph glyph-name="lacute" unicode="&#x13a;" horiz-adv-x="279" 
d="M142 770l76 147h201l-119 -147h-158zM-9 0l130 739h207l-130 -739h-207z" />
    <glyph glyph-name="lcaron" unicode="&#x13e;" horiz-adv-x="279" 
d="M439 574h-108l34 165h134zM-9 0l130 739h207l-130 -739h-207z" />
    <glyph glyph-name="lcommaaccent" unicode="&#x13c;" horiz-adv-x="279" 
d="M-36 -182l37 149h177l-74 -149h-140zM-9 0l130 739h207l-130 -739h-207z" />
    <glyph glyph-name="ldot" unicode="&#x140;" horiz-adv-x="428" 
d="M-9 0l130 739h207l-130 -739h-207zM283 289l24 138h152l-24 -138h-152z" />
    <glyph glyph-name="nacute" unicode="&#x144;" horiz-adv-x="586" 
d="M256 579l85 159h201l-127 -159h-159zM-11 0l95 539h201l-11 -62h5c49 44 108 72 172 72c90 0 128 -46 128 -125c0 -18 -2 -38 -5 -59l-65 -365h-207l58 326c1 8 3 18 3 28c0 24 -12 36 -37 36c-22 0 -44 -8 -66 -22l-64 -368h-207z" />
    <glyph glyph-name="napostrophe" unicode="&#x149;" horiz-adv-x="692" 
d="M-22 462l46 231h187l-78 -231h-155zM95 0l95 539h201l-11 -62h5c49 44 108 72 172 72c90 0 128 -46 128 -125c0 -18 -2 -38 -5 -59l-65 -365h-207l58 326c1 8 3 18 3 28c0 24 -12 36 -37 36c-22 0 -44 -8 -66 -22l-64 -368h-207z" />
    <glyph glyph-name="ncaron" unicode="&#x148;" horiz-adv-x="586" 
d="M272 579l-76 159h142l34 -50l52 50h149l-136 -159h-165zM-11 0l95 539h201l-11 -62h5c49 44 108 72 172 72c90 0 128 -46 128 -125c0 -18 -2 -38 -5 -59l-65 -365h-207l58 326c1 8 3 18 3 28c0 24 -12 36 -37 36c-22 0 -44 -8 -66 -22l-64 -368h-207z" />
    <glyph glyph-name="ncommaaccent" unicode="&#x146;" horiz-adv-x="586" 
d="M120 -182l37 149h177l-74 -149h-140zM-11 0l95 539h201l-11 -62h5c49 44 108 72 172 72c90 0 128 -46 128 -125c0 -18 -2 -38 -5 -59l-65 -365h-207l58 326c1 8 3 18 3 28c0 24 -12 36 -37 36c-22 0 -44 -8 -66 -22l-64 -368h-207z" />
    <glyph glyph-name="nacute.pl" horiz-adv-x="586" 
d="M263 579l65 159h203l-108 -159h-160zM-11 0l95 539h201l-11 -62h5c49 44 108 72 172 72c90 0 128 -46 128 -125c0 -18 -2 -38 -5 -59l-65 -365h-207l58 326c1 8 3 18 3 28c0 24 -12 36 -37 36c-22 0 -44 -8 -66 -22l-64 -368h-207z" />
    <glyph glyph-name="obreve" unicode="&#x14f;" horiz-adv-x="579" 
d="M249 -10c-167 0 -237 102 -237 215c0 184 112 344 318 344c167 0 242 -101 242 -214c0 -206 -116 -345 -323 -345zM270 128c39 0 65 32 83 132c6 36 10 64 10 86c0 49 -20 66 -47 66c-39 0 -66 -36 -84 -132c-7 -33 -10 -62 -10 -86c0 -49 20 -66 48 -66zM351 583
c-105 0 -161 63 -158 152h130c0 -22 12 -36 36 -36s39 14 45 36h129c-12 -90 -75 -152 -182 -152z" />
    <glyph glyph-name="ohungarumlaut" unicode="&#x151;" horiz-adv-x="579" 
d="M157 579l63 159h179l-87 -159h-155zM374 579l63 159h179l-87 -159h-155zM249 -10c-167 0 -237 102 -237 215c0 184 112 344 318 344c167 0 242 -101 242 -214c0 -206 -116 -345 -323 -345zM270 128c39 0 65 32 83 132c6 36 10 64 10 86c0 49 -20 66 -47 66
c-39 0 -66 -36 -84 -132c-7 -33 -10 -62 -10 -86c0 -49 20 -66 48 -66z" />
    <glyph glyph-name="omacron" unicode="&#x14d;" horiz-adv-x="579" 
d="M195 585l23 129h300l-23 -129h-300zM249 -10c-167 0 -237 102 -237 215c0 184 112 344 318 344c167 0 242 -101 242 -214c0 -206 -116 -345 -323 -345zM270 128c39 0 65 32 83 132c6 36 10 64 10 86c0 49 -20 66 -47 66c-39 0 -66 -36 -84 -132c-7 -33 -10 -62 -10 -86
c0 -49 20 -66 48 -66z" />
    <glyph glyph-name="oacute.pl" horiz-adv-x="579" 
d="M249 -10c-167 0 -237 102 -237 215c0 184 112 344 318 344c167 0 242 -101 242 -214c0 -206 -116 -345 -323 -345zM270 128c39 0 65 32 83 132c6 36 10 64 10 86c0 49 -20 66 -47 66c-39 0 -66 -36 -84 -132c-7 -33 -10 -62 -10 -86c0 -49 20 -66 48 -66zM255 579l65 159
h203l-108 -159h-160z" />
    <glyph glyph-name="oslashacute" unicode="&#x1ff;" horiz-adv-x="579" 
d="M249 -10c-62 0 -111 14 -148 38l-27 -27h-115l85 84c-22 35 -32 77 -32 120c0 184 112 344 318 344c60 0 109 -14 146 -36l27 26h115l-83 -82c25 -35 37 -78 37 -122c0 -206 -116 -345 -323 -345zM248 579l85 159h201l-127 -159h-159zM269 123c51 0 83 30 102 134l7 45
l-161 -159c13 -15 32 -20 52 -20zM214 284c-3 -13 -5 -25 -7 -37l157 155c-12 11 -28 16 -47 16c-48 0 -85 -35 -103 -134z" />
    <glyph glyph-name="racute" unicode="&#x155;" horiz-adv-x="395" 
d="M181 579l85 159h201l-127 -159h-159zM-10 0l94 539h200l-12 -70h5c29 42 70 75 126 75c13 0 24 -1 30 -4l-32 -183c-11 3 -30 6 -48 6c-46 0 -67 -7 -97 -19l-60 -344h-206z" />
    <glyph glyph-name="rcaron" unicode="&#x159;" horiz-adv-x="395" 
d="M188 579l-76 159h142l34 -50l52 50h149l-136 -159h-165zM-10 0l94 539h200l-12 -70h5c29 42 70 75 126 75c13 0 24 -1 30 -4l-32 -183c-11 3 -30 6 -48 6c-46 0 -67 -7 -97 -19l-60 -344h-206z" />
    <glyph glyph-name="rcommaaccent" unicode="&#x157;" horiz-adv-x="395" 
d="M-40 -182l37 149h177l-74 -149h-140zM-10 0l94 539h200l-12 -70h5c29 42 70 75 126 75c13 0 24 -1 30 -4l-32 -183c-11 3 -30 6 -48 6c-46 0 -67 -7 -97 -19l-60 -344h-206z" />
    <glyph glyph-name="sacute" unicode="&#x15b;" horiz-adv-x="467" 
d="M187 579l85 159h201l-127 -159h-159zM185 -10c-77 0 -161 19 -199 42l24 135c37 -18 98 -37 154 -37c57 0 73 14 73 34c0 18 -14 23 -48 32l-40 11c-69 18 -114 58 -114 147c0 128 89 195 246 195c82 0 136 -15 177 -35l-25 -134c-33 15 -86 31 -137 31
c-48 0 -64 -9 -64 -33c0 -17 19 -24 42 -30l39 -11c104 -28 127 -73 127 -142c0 -119 -63 -205 -255 -205z" />
    <glyph glyph-name="scedilla" unicode="&#x15f;" horiz-adv-x="467" 
d="M53 -228l13 74c67 4 97 10 97 34c0 14 -12 22 -62 24l16 91c-55 6 -104 20 -131 37l24 135c37 -18 98 -37 154 -37c57 0 73 14 73 34c0 18 -14 23 -48 32l-40 11c-69 18 -114 58 -114 147c0 128 89 195 246 195c82 0 136 -15 177 -35l-25 -134c-33 15 -86 31 -137 31
c-48 0 -64 -9 -64 -33c0 -17 19 -24 42 -30l39 -11c104 -28 127 -73 127 -142c0 -115 -59 -199 -235 -205l-4 -28c67 -3 97 -31 97 -73c0 -75 -70 -112 -245 -117z" />
    <glyph glyph-name="scircumflex" unicode="&#x15d;" horiz-adv-x="467" 
d="M86 579l136 159h164l77 -159h-142l-34 49l-52 -49h-149zM185 -10c-77 0 -161 19 -199 42l24 135c37 -18 98 -37 154 -37c57 0 73 14 73 34c0 18 -14 23 -48 32l-40 11c-69 18 -114 58 -114 147c0 128 89 195 246 195c82 0 136 -15 177 -35l-25 -134
c-33 15 -86 31 -137 31c-48 0 -64 -9 -64 -33c0 -17 19 -24 42 -30l39 -11c104 -28 127 -73 127 -142c0 -119 -63 -205 -255 -205z" />
    <glyph glyph-name="scommaaccent" unicode="&#x219;" horiz-adv-x="467" 
d="M55 -182l37 149h177l-74 -149h-140zM185 -10c-77 0 -161 19 -199 42l24 135c37 -18 98 -37 154 -37c57 0 73 14 73 34c0 18 -14 23 -48 32l-40 11c-69 18 -114 58 -114 147c0 128 89 195 246 195c82 0 136 -15 177 -35l-25 -134c-33 15 -86 31 -137 31
c-48 0 -64 -9 -64 -33c0 -17 19 -24 42 -30l39 -11c104 -28 127 -73 127 -142c0 -119 -63 -205 -255 -205z" />
    <glyph glyph-name="sacute.pl" horiz-adv-x="467" 
d="M185 -10c-77 0 -161 19 -199 42l24 135c37 -18 98 -37 154 -37c57 0 73 14 73 34c0 18 -14 23 -48 32l-40 11c-69 18 -114 58 -114 147c0 128 89 195 246 195c82 0 136 -15 177 -35l-25 -134c-33 15 -86 31 -137 31c-48 0 -64 -9 -64 -33c0 -17 19 -24 42 -30l39 -11
c104 -28 127 -73 127 -142c0 -119 -63 -205 -255 -205zM186 579l65 159h203l-108 -159h-160z" />
    <glyph glyph-name="tbar" unicode="&#x167;" horiz-adv-x="395" 
d="M8 252l16 94h60l10 53h-60l24 140h61l23 127h207l-23 -127h100l-24 -140h-101l-10 -53h101l-16 -94h-101l-12 -67c-6 -30 5 -44 43 -44c16 0 38 3 52 6l-24 -133c-22 -12 -68 -23 -125 -23c-128 0 -177 57 -156 175l15 86h-60z" />
    <glyph glyph-name="tcaron" unicode="&#x165;" horiz-adv-x="395" 
d="M476 574h-108l34 165h134zM209 -9c-128 0 -177 57 -156 175l41 233h-60l24 140h61l23 127h207l-23 -127h100l-24 -140h-101l-38 -214c-6 -30 5 -44 43 -44c16 0 38 3 52 6l-24 -133c-22 -12 -68 -23 -125 -23z" />
    <glyph glyph-name="tcommaaccent" unicode="&#x163;" horiz-adv-x="395" 
d="M49 -182l37 149h177l-74 -149h-140zM209 -9c-128 0 -177 57 -156 175l41 233h-60l24 140h61l23 127h207l-23 -127h100l-24 -140h-101l-38 -214c-6 -30 5 -44 43 -44c16 0 38 3 52 6l-24 -133c-22 -12 -68 -23 -125 -23z" />
    <glyph glyph-name="ubreve" unicode="&#x16d;" horiz-adv-x="584" 
d="M144 -10c-87 0 -130 47 -130 131c0 16 1 32 5 55l64 363h207l-59 -332c-2 -12 -3 -21 -3 -29c0 -25 10 -34 36 -34c23 0 42 8 63 22l66 373h207l-95 -539h-175l-8 63h-5c-47 -45 -104 -73 -173 -73zM351 583c-105 0 -161 63 -158 152h130c0 -22 12 -36 36 -36
s39 14 45 36h129c-12 -90 -75 -152 -182 -152z" />
    <glyph glyph-name="uhungarumlaut" unicode="&#x171;" horiz-adv-x="584" 
d="M144 -10c-87 0 -130 47 -130 131c0 16 1 32 5 55l64 363h207l-59 -332c-2 -12 -3 -21 -3 -29c0 -25 10 -34 36 -34c23 0 42 8 63 22l66 373h207l-95 -539h-175l-8 63h-5c-47 -45 -104 -73 -173 -73zM161 579l63 159h179l-87 -159h-155zM378 579l63 159h179l-87 -159h-155
z" />
    <glyph glyph-name="umacron" unicode="&#x16b;" horiz-adv-x="584" 
d="M144 -10c-87 0 -130 47 -130 131c0 16 1 32 5 55l64 363h207l-59 -332c-2 -12 -3 -21 -3 -29c0 -25 10 -34 36 -34c23 0 42 8 63 22l66 373h207l-95 -539h-175l-8 63h-5c-47 -45 -104 -73 -173 -73zM197 585l23 129h300l-23 -129h-300z" />
    <glyph glyph-name="uogonek" unicode="&#x173;" horiz-adv-x="584" 
d="M145 -10c-88 0 -131 47 -131 131c0 16 1 32 5 55l64 363h206l-58 -332c-2 -11 -3 -21 -3 -29c0 -24 10 -34 36 -34c23 0 42 8 63 22l67 373h206l-94 -534c-34 -22 -64 -47 -64 -73c0 -12 9 -20 27 -20c7 0 17 2 24 3l-17 -98c-18 -9 -50 -16 -87 -16
c-82 0 -114 40 -114 83c0 59 56 94 114 116h-59l-8 63h-5c-47 -45 -104 -73 -172 -73z" />
    <glyph glyph-name="uring" unicode="&#x16f;" horiz-adv-x="584" 
d="M359 575c-78 0 -123 54 -123 111c0 72 56 125 134 125s123 -52 123 -111c0 -72 -56 -125 -134 -125zM362 649c26 0 43 18 43 47c0 24 -13 41 -38 41c-26 0 -43 -18 -43 -47c0 -24 13 -41 38 -41zM144 -10c-87 0 -130 47 -130 131c0 16 1 32 5 55l64 363h207l-59 -332
c-2 -12 -3 -21 -3 -29c0 -25 10 -34 36 -34c23 0 42 8 63 22l66 373h207l-95 -539h-175l-8 63h-5c-47 -45 -104 -73 -173 -73z" />
    <glyph glyph-name="utilde" unicode="&#x169;" horiz-adv-x="584" 
d="M144 -10c-87 0 -130 47 -130 131c0 16 1 32 5 55l64 363h207l-59 -332c-2 -12 -3 -21 -3 -29c0 -25 10 -34 36 -34c23 0 42 8 63 22l66 373h207l-95 -539h-175l-8 63h-5c-47 -45 -104 -73 -173 -73zM158 586c20 112 81 155 141 155c52 0 87 -30 112 -30c17 0 26 11 32 28
h119c-19 -112 -80 -155 -140 -155c-52 0 -88 30 -112 30c-17 0 -27 -11 -32 -28h-120z" />
    <glyph glyph-name="wacute" unicode="&#x1e83;" horiz-adv-x="790" 
d="M377 579l85 159h201l-127 -159h-159zM82 0l-28 539h201l3 -281h4l114 281h152l7 -281h4l111 281h186l-241 -539h-192l-9 276h-3l-117 -276h-192z" />
    <glyph glyph-name="wcircumflex" unicode="&#x175;" horiz-adv-x="790" 
d="M263 579l136 159h164l77 -159h-142l-34 49l-52 -49h-149zM82 0l-28 539h201l3 -281h4l114 281h152l7 -281h4l111 281h186l-241 -539h-192l-9 276h-3l-117 -276h-192z" />
    <glyph glyph-name="wdieresis" unicode="&#x1e85;" horiz-adv-x="790" 
d="M482 584l26 149h167l-26 -149h-167zM264 584l26 149h167l-26 -149h-167zM82 0l-28 539h201l3 -281h4l114 281h152l7 -281h4l111 281h186l-241 -539h-192l-9 276h-3l-117 -276h-192z" />
    <glyph glyph-name="wgrave" unicode="&#x1e81;" horiz-adv-x="790" 
d="M82 0l-28 539h201l3 -281h4l114 281h152l7 -281h4l111 281h186l-241 -539h-192l-9 276h-3l-117 -276h-192zM382 579l-77 159h192l35 -159h-150z" />
    <glyph glyph-name="ycircumflex" unicode="&#x177;" horiz-adv-x="572" 
d="M67 -198c-54 0 -95 11 -115 22l24 133c19 -5 43 -9 67 -9c43 0 66 14 80 44l11 22l-85 525h208l25 -293h4l136 293h201l-298 -562c-62 -118 -122 -175 -258 -175zM158 579l136 159h164l77 -159h-142l-34 49l-52 -49h-149z" />
    <glyph glyph-name="ygrave" unicode="&#x1ef3;" horiz-adv-x="572" 
d="M67 -198c-54 0 -95 11 -115 22l24 133c19 -5 43 -9 67 -9c43 0 66 14 80 44l11 22l-85 525h208l25 -293h4l136 293h201l-298 -562c-62 -118 -122 -175 -258 -175zM274 579l-77 159h192l35 -159h-150z" />
    <glyph glyph-name="zacute" unicode="&#x17a;" horiz-adv-x="485" 
d="M219 579l85 159h201l-127 -159h-159zM-27 0l27 144l232 251v3h-184l24 141h439l-22 -132l-247 -262v-3h206l-25 -142h-450z" />
    <glyph glyph-name="zdotaccent" unicode="&#x17c;" horiz-adv-x="485" 
d="M-27 0l27 144l232 251v3h-184l24 141h439l-22 -132l-247 -262v-3h206l-25 -142h-450zM200 584l26 149h209l-26 -149h-209z" />
    <glyph glyph-name="zacute.pl" horiz-adv-x="485" 
d="M-27 0l27 144l232 251v3h-184l24 141h439l-22 -132l-247 -262v-3h206l-25 -142h-450zM220 579l65 159h203l-108 -159h-160z" />
    <glyph glyph-name="oneeighth" unicode="&#x215b;" horiz-adv-x="953" 
d="M701 -7c-124 0 -179 49 -179 104c0 51 44 89 100 104c-35 17 -57 41 -57 91c0 83 72 142 187 142c110 0 169 -46 169 -107c0 -48 -26 -83 -85 -100c44 -23 68 -51 68 -88c0 -82 -53 -146 -203 -146zM706 86c32 0 47 17 47 38c0 20 -15 32 -58 48c-22 -14 -36 -28 -36 -49
c0 -23 15 -37 47 -37zM755 265c18 8 33 25 33 43c0 17 -12 33 -40 33c-26 0 -39 -17 -39 -35c0 -19 15 -30 46 -41zM90 268l49 278l-75 -7l17 96l143 59h104l-74 -426h-164zM50 -40l621 753h139l-620 -753h-140z" />
    <glyph glyph-name="onethird" unicode="&#x2153;" horiz-adv-x="924" 
d="M669 -7c-48 0 -107 12 -134 25l17 99c23 -6 50 -11 76 -11c38 0 71 12 71 37c0 17 -13 26 -44 26h-36l16 93h34c40 0 58 9 58 33c0 17 -17 27 -56 27c-34 0 -51 -2 -72 -8l17 97c32 12 66 23 128 23c84 0 148 -31 148 -100c0 -59 -46 -96 -101 -109v-2
c51 -8 78 -32 78 -88c0 -80 -64 -142 -200 -142zM90 268l49 278l-75 -7l17 96l143 59h104l-74 -426h-164zM49 -40l621 753h139l-620 -753h-140z" />
    <glyph glyph-name="threeeighths" unicode="&#x215c;" horiz-adv-x="995" 
d="M742 -7c-124 0 -179 49 -179 104c0 51 44 89 100 104c-35 17 -57 41 -57 91c0 83 72 142 187 142c110 0 169 -46 169 -107c0 -48 -26 -83 -85 -100c44 -23 68 -51 68 -88c0 -82 -53 -146 -203 -146zM747 86c32 0 47 17 47 38c0 20 -15 32 -58 48c-22 -14 -36 -28 -36 -49
c0 -23 15 -37 47 -37zM796 265c18 8 33 25 33 43c0 17 -12 33 -40 33c-26 0 -39 -17 -39 -35c0 -19 15 -30 46 -41zM95 -40l621 753h139l-620 -753h-140zM164 261c-48 0 -107 12 -135 25l18 99c22 -6 50 -11 76 -11c37 0 71 13 71 37c0 17 -13 26 -44 26h-37l17 93h34
c39 0 58 9 58 33c0 17 -17 27 -56 27c-34 0 -51 -2 -72 -8l16 97c32 12 67 23 129 23c84 0 148 -31 148 -100c0 -59 -46 -96 -101 -109v-2c51 -8 78 -32 78 -88c0 -80 -64 -142 -200 -142z" />
    <glyph glyph-name="fiveeighths" unicode="&#x215d;" horiz-adv-x="996" 
d="M744 -7c-124 0 -179 49 -179 104c0 51 44 89 100 104c-35 17 -57 41 -57 91c0 83 72 142 187 142c110 0 169 -46 169 -107c0 -48 -26 -83 -85 -100c44 -23 68 -51 68 -88c0 -82 -53 -146 -203 -146zM749 86c32 0 47 17 47 38c0 20 -15 32 -58 48c-22 -14 -36 -28 -36 -49
c0 -23 15 -37 47 -37zM798 265c18 8 33 25 33 43c0 17 -12 33 -40 33c-26 0 -39 -17 -39 -35c0 -19 15 -30 46 -41zM171 261c-74 0 -116 13 -144 28l19 93c24 -8 52 -14 90 -14c50 0 75 15 75 42c0 19 -19 36 -66 36c-31 0 -46 -1 -75 -5l55 253h284l-19 -111h-169l-11 -52
c14 3 25 5 49 5c77 0 125 -31 125 -107c0 -101 -79 -168 -213 -168zM100 -40l621 753h139l-620 -753h-140z" />
    <glyph glyph-name="twothirds" unicode="&#x2154;" horiz-adv-x="1002" 
d="M747 -7c-48 0 -107 12 -134 25l17 99c23 -6 50 -11 76 -11c38 0 71 12 71 37c0 17 -13 26 -44 26h-36l16 93h34c40 0 58 9 58 33c0 17 -17 27 -56 27c-34 0 -51 -2 -72 -8l17 97c32 12 66 23 128 23c84 0 148 -31 148 -100c0 -59 -46 -96 -101 -109v-2
c51 -8 78 -32 78 -88c0 -80 -64 -142 -200 -142zM26 268l19 106l88 63c55 40 85 68 85 109c0 25 -21 35 -54 35c-34 0 -59 -4 -79 -13l19 106c29 15 89 28 142 28c98 0 153 -43 153 -119c0 -68 -49 -127 -126 -174l-41 -25v-2h140l-19 -114h-327zM132 -40l621 753h139
l-620 -753h-140z" />
    <glyph glyph-name="seveneighths" unicode="&#x215e;" horiz-adv-x="973" 
d="M721 -7c-124 0 -179 49 -179 104c0 51 44 89 100 104c-35 17 -57 41 -57 91c0 83 72 142 187 142c110 0 169 -46 169 -107c0 -48 -26 -83 -85 -100c44 -23 68 -51 68 -88c0 -82 -53 -146 -203 -146zM726 86c32 0 47 17 47 38c0 20 -15 32 -58 48c-22 -14 -36 -28 -36 -49
c0 -23 15 -37 47 -37zM775 265c18 8 33 25 33 43c0 17 -12 33 -40 33c-26 0 -39 -17 -39 -35c0 -19 15 -30 46 -41zM56 268l193 302v3h-174l21 121h340l-19 -107l-192 -319h-169zM63 -40l621 753h139l-620 -753h-140z" />
    <glyph glyph-name="uni24C5" unicode="&#x24c5;" horiz-adv-x="770" 
d="M400 -14c-206 0 -360 161 -360 358s154 356 360 356c205 0 362 -159 362 -356s-157 -358 -362 -358zM400 43c170 0 293 126 293 301s-123 299 -293 299c-171 0 -292 -124 -292 -299s121 -301 292 -301zM251 160v368h185c92 0 149 -47 149 -129c0 -85 -52 -136 -149 -136
h-55v-103h-130zM380 351h35c29 0 42 12 42 41c0 27 -13 41 -43 41h-34v-82z" />
    <glyph glyph-name="dollar.old" horiz-adv-x="547" 
d="M59 -110l44 108c-51 7 -93 20 -119 36l26 144c47 -18 94 -33 150 -39l47 114c-101 20 -157 74 -157 173c0 145 83 230 285 230c12 0 24 0 36 -1l26 64h86l-30 -72c47 -8 79 -19 101 -31l-26 -144c-34 14 -79 27 -132 34l-43 -105h1c114 -22 169 -71 169 -163
c0 -177 -107 -249 -307 -249c-10 0 -20 0 -30 1l-40 -100h-87zM332 195c0 18 -10 31 -46 41l-40 -99c68 4 86 23 86 58zM233 460c0 -17 7 -32 41 -42l38 93c-56 -2 -79 -17 -79 -51z" />
    <glyph glyph-name="Euro.old" horiz-adv-x="580" 
d="M33 340l16 97h55c12 33 28 62 47 89c61 83 156 130 297 130c81 0 137 -15 170 -31l-32 -145c-30 12 -59 21 -111 21c-69 0 -117 -15 -142 -64h169l-17 -97h-181c-3 -12 -5 -24 -7 -35h181l-17 -97h-166c12 -44 50 -65 118 -65c57 0 99 10 131 22l-26 -144
c-40 -19 -90 -32 -173 -32c-155 0 -260 73 -272 219h-64l18 97h48c1 12 2 23 4 35h-46z" />
    <glyph glyph-name="sterling.old" horiz-adv-x="541" 
d="M25 250l24 134h57l9 51c27 155 137 221 294 221c81 0 132 -17 159 -32l-26 -145c-28 8 -59 16 -103 16c-59 0 -105 -21 -116 -82l-5 -29h144l-23 -134h-145c-15 -51 -45 -78 -82 -98v-2h292l-26 -150h-501l25 141c36 13 68 38 77 91l3 18h-57z" />
    <glyph glyph-name="yen.old" horiz-adv-x="614" 
d="M157 0l14 81h-148l21 121h148l7 40h-148l21 121h100l-104 281h216l61 -217h2l137 217h200l-203 -281h101l-22 -121h-148l-7 -40h148l-21 -121h-148l-15 -81h-212z" />
    <glyph glyph-name="zero.old" horiz-adv-x="636" 
d="M296 -12c-169 0 -276 82 -276 238c0 62 20 140 42 188c62 144 186 197 293 197c168 0 276 -83 276 -242c0 -60 -21 -142 -45 -193c-60 -140 -184 -188 -290 -188zM302 132c55 0 79 56 99 166c7 40 9 71 9 93c0 53 -19 76 -58 76c-47 0 -76 -42 -96 -145
c-10 -50 -15 -89 -15 -117c0 -47 17 -73 61 -73z" />
    <glyph glyph-name="one.old" horiz-adv-x="383" 
d="M67 0l70 398l-96 -7l21 122l200 85h125l-105 -598h-215z" />
    <glyph glyph-name="two.old" horiz-adv-x="503" 
d="M-32 0l24 135l143 102c108 76 134 108 133 152c0 35 -30 52 -90 52c-58 0 -93 -12 -128 -24l26 145c46 21 101 43 207 43c141 0 220 -62 220 -168c0 -107 -57 -172 -186 -241l-83 -47v-3h232l-26 -146h-472z" />
    <glyph glyph-name="three.old" horiz-adv-x="510" 
d="M168 -112c-104 0 -170 22 -210 43l25 143c39 -13 85 -24 137 -24c91 0 118 31 118 76c0 43 -27 57 -84 57h-62l24 139h57c68 0 106 20 106 66c0 32 -25 55 -87 55c-55 0 -95 -6 -138 -18l25 143c59 21 105 37 200 37c138 0 217 -66 217 -160c0 -95 -61 -157 -148 -178v-4
c76 -14 119 -66 119 -140c0 -124 -92 -235 -299 -235z" />
    <glyph glyph-name="four.old" horiz-adv-x="629" 
d="M252 -102l28 156h-299l24 130l379 408h202l-71 -398h87l-24 -140h-87l-27 -156h-212zM181 194h127l33 180h-4l-156 -177v-3z" />
    <glyph glyph-name="five.old" horiz-adv-x="522" 
d="M159 -112c-81 0 -158 20 -201 42l27 142c40 -12 77 -22 137 -22c88 0 132 31 132 90c0 40 -31 61 -110 61c-51 0 -73 -4 -116 -12l77 404h419l-26 -152h-254l-21 -110c21 8 40 12 78 12c126 0 184 -74 184 -175c0 -178 -121 -280 -326 -280z" />
    <glyph glyph-name="six.old" horiz-adv-x="588" 
d="M273 -12c-164 0 -252 86 -252 236c0 137 47 274 125 358c80 86 176 123 299 123c83 0 127 -17 160 -37l-26 -143c-29 9 -70 20 -130 20c-101 0 -160 -54 -186 -145c34 24 83 40 141 40c113 0 171 -62 171 -167c0 -161 -112 -285 -302 -285zM285 124c50 0 74 54 74 133
c0 33 -12 55 -53 55c-24 0 -44 -8 -64 -19c-7 -32 -14 -62 -14 -99c0 -42 16 -70 57 -70z" />
    <glyph glyph-name="seven.old" horiz-adv-x="511" 
d="M1 -100l309 531v5h-261l27 157h479l-25 -139l-297 -554h-232z" />
    <glyph glyph-name="eight.old" horiz-adv-x="599" 
d="M268 -12c-183 0 -265 72 -265 173c0 85 49 139 150 174c-61 33 -86 79 -86 139c0 147 115 231 298 231c161 0 236 -73 236 -167c0 -82 -46 -130 -134 -173c63 -28 106 -79 106 -143c0 -143 -110 -234 -305 -234zM275 124c57 0 83 42 83 84c0 33 -32 56 -99 82
c-37 -23 -62 -54 -62 -97c0 -37 24 -69 78 -69zM356 424c35 20 59 45 59 85c0 28 -18 57 -65 57c-54 0 -75 -28 -75 -64c0 -29 19 -54 81 -78z" />
    <glyph glyph-name="nine.old" horiz-adv-x="602" 
d="M167 -112c-84 0 -129 17 -162 37l26 143c30 -10 70 -20 131 -20c100 0 165 43 186 145c-35 -24 -83 -40 -141 -40c-114 0 -172 62 -172 167c0 160 113 285 303 285c164 0 252 -86 252 -237c0 -136 -39 -278 -117 -363c-80 -85 -185 -117 -306 -117zM305 281
c24 0 43 8 64 19c6 32 13 62 13 99c0 42 -16 70 -56 70c-50 0 -75 -54 -75 -133c0 -34 12 -55 54 -55z" />
    <glyph glyph-name="percent.old" horiz-adv-x="878" 
d="M217 372c22 0 38 17 47 83c3 19 8 47 8 62c0 25 -9 38 -27 38c-23 0 -39 -19 -48 -83c-3 -19 -6 -43 -6 -58c0 -31 8 -42 26 -42zM658 88c22 0 37 18 47 84c3 19 7 47 7 61c0 26 -9 39 -26 39c-22 0 -39 -19 -48 -83c-3 -20 -6 -44 -6 -59c0 -30 8 -42 26 -42zM207 275
c-94 0 -161 46 -161 147c0 136 85 230 209 230c93 0 160 -44 160 -143c0 -136 -88 -234 -208 -234zM247 -36h-134l528 695h135zM648 -9c-95 0 -161 47 -161 148c0 135 90 230 208 230c94 0 161 -44 161 -144c0 -136 -84 -234 -208 -234z" />
    <glyph glyph-name="perthousand.old" horiz-adv-x="1263" 
d="M217 372c22 0 38 17 47 83c3 19 8 47 8 62c0 25 -9 38 -27 38c-23 0 -39 -19 -48 -83c-3 -19 -6 -43 -6 -58c0 -31 8 -42 26 -42zM658 88c22 0 37 18 47 84c3 19 7 47 7 61c0 26 -9 39 -26 39c-22 0 -39 -19 -48 -83c-3 -20 -6 -44 -6 -59c0 -30 8 -42 26 -42zM1043 88
c22 0 38 18 47 84c3 19 8 47 8 61c0 26 -9 39 -27 39c-22 0 -39 -19 -48 -83c-3 -20 -5 -44 -5 -59c0 -30 7 -42 25 -42zM207 275c-94 0 -161 46 -161 147c0 136 85 230 209 230c93 0 160 -44 160 -143c0 -136 -88 -234 -208 -234zM113 -36l528 695h135l-529 -695h-134z
M648 -9c-95 0 -161 47 -161 148c0 135 90 230 208 230c94 0 161 -44 161 -144c0 -136 -84 -234 -208 -234zM1033 -9c-94 0 -161 47 -161 148c0 135 90 230 209 230c93 0 160 -44 160 -144c0 -136 -84 -234 -208 -234z" />
    <glyph glyph-name="plus.old" horiz-adv-x="526" 
d="M144 80l28 157h-151l28 157h151l27 158h176l-28 -158h151l-28 -157h-151l-28 -157h-175z" />
    <glyph glyph-name="minus.old" horiz-adv-x="518" 
d="M21 237l28 157h469l-27 -157h-470z" />
    <glyph glyph-name="multiply.old" horiz-adv-x="554" 
d="M124 67l-99 112l146 124l-102 122l126 111l103 -126l147 126l100 -111l-148 -125l104 -121l-127 -112l-104 126z" />
    <glyph glyph-name="divide.old" horiz-adv-x="526" 
d="M21 237l28 157h477l-27 -157h-478zM128 28l30 171h190l-30 -171h-190zM199 432l30 171h190l-30 -171h-190z" />
    <glyph glyph-name="equal.old" horiz-adv-x="516" 
d="M41 311l27 154h452l-27 -154h-452zM2 82l27 155h452l-27 -155h-452z" />
    <glyph glyph-name="less.old" horiz-adv-x="469" 
d="M396 42l-375 179l28 156l436 170l-30 -169l-239 -83l208 -93z" />
    <glyph glyph-name="greater.old" horiz-adv-x="469" 
d="M-2 42l30 169l238 84l-207 93l28 159l374 -179l-28 -156z" />
    <glyph glyph-name="numbersign.old" horiz-adv-x="554" 
d="M61 368l25 146h83l34 129h130l-34 -129h76l34 129h130l-34 -129h68l-26 -146h-80l-21 -82h72l-26 -145h-83l-37 -141h-130l37 141h-76l-37 -141h-130l37 141h-67l26 145h78l21 82h-70zM261 368l-21 -82h76l21 82h-76z" />
    <glyph glyph-name="zero.num" horiz-adv-x="450" 
d="M233 261c-102 0 -179 49 -179 159c0 40 4 66 12 102c26 128 119 180 224 180c102 0 181 -48 181 -159c0 -36 -7 -72 -12 -100c-25 -131 -116 -182 -226 -182zM243 366c30 0 47 23 58 85c8 42 14 84 14 104c0 30 -12 42 -35 42c-29 0 -46 -23 -58 -84
c-6 -33 -14 -83 -14 -103c0 -33 13 -44 35 -44z" />
    <glyph glyph-name="one.num" horiz-adv-x="293" 
d="M87 268l49 278l-75 -7l17 96l143 59h104l-74 -426h-164z" />
    <glyph glyph-name="two.num" horiz-adv-x="371" 
d="M23 268l19 106l88 63c55 40 85 68 85 109c0 25 -21 35 -54 35c-34 0 -59 -4 -79 -13l19 106c29 15 89 28 142 28c98 0 153 -43 153 -119c0 -68 -49 -127 -126 -174l-41 -25v-2h140l-19 -114h-327z" />
    <glyph glyph-name="three.num" horiz-adv-x="366" 
d="M161 261c-48 0 -107 12 -135 25l18 99c22 -6 50 -11 76 -11c37 0 71 13 71 37c0 17 -13 26 -44 26h-37l17 93h34c39 0 58 9 58 33c0 17 -17 27 -56 27c-34 0 -51 -2 -72 -8l16 97c32 12 67 23 129 23c84 0 148 -31 148 -100c0 -59 -46 -96 -101 -109v-2
c51 -8 78 -32 78 -88c0 -80 -64 -142 -200 -142z" />
    <glyph glyph-name="four.num" horiz-adv-x="421" 
d="M192 268l16 91h-180l17 98l228 237h155l-40 -232h53l-19 -103h-53l-16 -91h-161zM171 459h60l15 89h-2l-73 -87v-2z" />
    <glyph glyph-name="five.num" horiz-adv-x="380" 
d="M168 261c-74 0 -116 13 -144 28l19 93c24 -8 52 -14 90 -14c50 0 75 15 75 42c0 19 -19 36 -66 36c-31 0 -46 -1 -75 -5l55 253h284l-19 -111h-169l-11 -52c14 3 25 5 49 5c77 0 125 -31 125 -107c0 -101 -79 -168 -213 -168z" />
    <glyph glyph-name="six.num" horiz-adv-x="415" 
d="M230 261c-116 0 -177 57 -177 158c0 85 25 161 70 209c46 51 117 74 194 74c57 0 96 -10 117 -22l-18 -103c-19 6 -47 13 -85 13c-61 0 -98 -21 -111 -69c20 12 49 21 88 21c75 0 117 -43 117 -113c0 -95 -65 -168 -195 -168zM235 355c31 0 43 29 43 67
c0 23 -9 33 -33 33c-14 0 -26 -5 -36 -11c-5 -21 -6 -41 -6 -51c0 -29 11 -38 32 -38z" />
    <glyph glyph-name="seven.num" horiz-adv-x="375" 
d="M53 268l193 302v3h-174l21 121h340l-19 -107l-192 -319h-169z" />
    <glyph glyph-name="eight.num" horiz-adv-x="419" 
d="M217 261c-125 0 -179 49 -179 104c0 51 43 89 100 104c-35 17 -57 41 -57 91c0 83 72 142 187 142c110 0 168 -46 168 -107c0 -48 -25 -83 -84 -100c44 -23 68 -51 68 -88c0 -82 -53 -146 -203 -146zM222 354c32 0 47 17 47 38c0 20 -15 32 -59 48
c-22 -14 -36 -28 -36 -49c0 -23 16 -37 48 -37zM271 533c18 8 33 25 33 43c0 17 -12 33 -40 33c-26 0 -40 -17 -40 -35c0 -19 16 -30 47 -41z" />
    <glyph glyph-name="nine.num" horiz-adv-x="417" 
d="M173 261c-60 0 -98 12 -119 24l18 103c18 -7 45 -15 87 -15c70 0 101 22 111 69c-21 -12 -50 -21 -89 -21c-75 0 -116 43 -116 112c0 96 64 169 194 169c116 0 177 -57 177 -159c0 -86 -22 -165 -67 -213c-45 -50 -118 -69 -196 -69zM245 507c13 0 26 4 35 11
c5 21 7 41 7 51c0 29 -12 39 -33 39c-30 0 -43 -30 -43 -68c0 -22 9 -33 34 -33z" />
    <glyph glyph-name="zero.den" horiz-adv-x="450" 
d="M186 -7c-101 0 -179 48 -179 159c0 40 4 66 12 102c26 128 119 180 224 180c103 0 181 -48 181 -159c0 -36 -6 -72 -12 -100c-25 -132 -116 -182 -226 -182zM197 98c29 0 47 23 57 85c8 42 15 83 15 104c0 30 -13 42 -36 42c-29 0 -46 -23 -58 -84
c-6 -33 -13 -83 -13 -103c0 -33 12 -44 35 -44z" />
    <glyph glyph-name="one.den" horiz-adv-x="293" 
d="M41 0l48 278l-74 -7l17 96l142 59h105l-75 -426h-163z" />
    <glyph glyph-name="two.den" horiz-adv-x="371" 
d="M-24 0l19 106l88 63c56 40 85 68 85 109c0 25 -21 35 -54 35s-59 -4 -79 -13l19 106c29 15 89 27 142 27c98 0 153 -42 153 -118c0 -68 -49 -127 -126 -174l-41 -25v-2h141l-20 -114h-327z" />
    <glyph glyph-name="three.den" horiz-adv-x="366" 
d="M114 -7c-48 0 -107 12 -134 25l17 99c23 -6 50 -11 76 -11c38 0 71 12 71 37c0 17 -13 26 -44 26h-36l16 93h34c40 0 58 9 58 33c0 17 -17 27 -56 27c-34 0 -51 -2 -72 -8l17 97c32 12 66 23 128 23c84 0 148 -31 148 -100c0 -59 -46 -96 -101 -109v-2
c51 -8 78 -32 78 -88c0 -80 -64 -142 -200 -142z" />
    <glyph glyph-name="four.den" horiz-adv-x="421" 
d="M145 0l16 91h-180l17 98l228 237h156l-41 -232h53l-19 -103h-53l-16 -91h-161zM124 191h60l16 89h-3l-73 -87v-2z" />
    <glyph glyph-name="five.den" horiz-adv-x="380" 
d="M122 -7c-74 0 -116 13 -144 28l18 93c25 -9 52 -14 90 -14c50 0 75 14 75 42c0 19 -18 36 -65 36c-32 0 -47 -1 -75 -5l55 253h283l-19 -111h-169l-11 -52c14 3 25 5 49 5c77 0 125 -31 125 -107c0 -101 -79 -168 -212 -168z" />
    <glyph glyph-name="six.den" horiz-adv-x="415" 
d="M183 -7c-115 0 -177 57 -177 158c0 85 26 161 70 209c46 51 117 74 194 74c57 0 96 -10 117 -22l-18 -103c-19 6 -47 13 -84 13c-61 0 -99 -21 -112 -69c20 12 49 20 89 20c74 0 116 -42 116 -112c0 -95 -65 -168 -195 -168zM188 87c31 0 44 29 44 67c0 23 -10 33 -34 33
c-14 0 -26 -5 -36 -11c-4 -21 -6 -41 -6 -51c0 -29 11 -38 32 -38z" />
    <glyph glyph-name="seven.den" horiz-adv-x="375" 
d="M7 0l192 302v3h-174l21 121h340l-18 -107l-193 -319h-168z" />
    <glyph glyph-name="eight.den" horiz-adv-x="419" 
d="M170 -7c-124 0 -179 49 -179 104c0 51 44 89 100 104c-35 17 -57 41 -57 91c0 83 72 142 187 142c110 0 169 -46 169 -107c0 -48 -26 -83 -85 -100c44 -23 68 -51 68 -88c0 -82 -53 -146 -203 -146zM175 86c32 0 47 17 47 38c0 20 -15 32 -58 48c-22 -14 -36 -28 -36 -49
c0 -23 15 -37 47 -37zM224 265c18 8 33 25 33 43c0 17 -12 33 -40 33c-26 0 -39 -17 -39 -35c0 -19 15 -30 46 -41z" />
    <glyph glyph-name="nine.den" horiz-adv-x="417" 
d="M126 -7c-59 0 -98 12 -119 24l18 103c18 -7 45 -15 87 -15c71 0 101 22 111 69c-20 -12 -50 -21 -89 -21c-75 0 -116 43 -116 112c0 96 65 169 195 169c115 0 176 -58 176 -159c0 -86 -22 -165 -66 -213c-45 -50 -118 -69 -197 -69zM198 239c13 0 26 4 35 11
c5 21 7 41 7 51c0 29 -12 39 -33 39c-30 0 -43 -30 -43 -68c0 -22 9 -33 34 -33z" />
    <glyph glyph-name="zero.sub" horiz-adv-x="450" 
d="M165 -127c-101 0 -179 48 -179 159c0 40 4 66 12 102c26 128 119 180 224 180c103 0 181 -48 181 -159c0 -36 -6 -72 -12 -100c-25 -132 -116 -182 -226 -182zM176 -22c29 0 47 23 57 85c8 42 15 83 15 104c0 30 -13 42 -36 42c-29 0 -46 -23 -58 -84
c-6 -33 -13 -83 -13 -103c0 -33 12 -44 35 -44z" />
    <glyph glyph-name="one.sub" horiz-adv-x="293" 
d="M20 -120l48 278l-74 -7l17 96l142 59h105l-75 -426h-163z" />
    <glyph glyph-name="two.sub" horiz-adv-x="371" 
d="M-45 -120l19 106l88 63c56 40 85 68 85 109c0 25 -21 35 -54 35s-59 -4 -79 -13l19 106c29 15 89 27 142 27c98 0 153 -42 153 -118c0 -68 -49 -127 -126 -174l-41 -25v-2h141l-20 -114h-327z" />
    <glyph glyph-name="three.sub" horiz-adv-x="366" 
d="M93 -127c-48 0 -107 12 -134 25l17 99c23 -6 50 -11 76 -11c38 0 71 12 71 37c0 17 -13 26 -44 26h-36l16 93h34c40 0 58 9 58 33c0 17 -17 27 -56 27c-34 0 -51 -2 -72 -8l17 97c32 12 66 23 128 23c84 0 148 -31 148 -100c0 -59 -46 -96 -101 -109v-2
c51 -8 78 -32 78 -88c0 -80 -64 -142 -200 -142z" />
    <glyph glyph-name="four.sub" horiz-adv-x="421" 
d="M124 -120l16 91h-180l17 98l228 237h156l-41 -232h53l-19 -103h-53l-16 -91h-161zM103 71h60l16 89h-3l-73 -87v-2z" />
    <glyph glyph-name="five.sub" horiz-adv-x="380" 
d="M101 -127c-74 0 -116 13 -144 28l18 93c25 -9 52 -14 90 -14c50 0 75 14 75 42c0 19 -18 36 -65 36c-32 0 -47 -1 -75 -5l55 253h283l-19 -111h-169l-11 -52c14 3 25 5 49 5c77 0 125 -31 125 -107c0 -101 -79 -168 -212 -168z" />
    <glyph glyph-name="six.sub" horiz-adv-x="415" 
d="M162 -127c-115 0 -177 57 -177 158c0 85 26 161 70 209c46 51 117 74 194 74c57 0 96 -10 117 -22l-18 -103c-19 6 -47 13 -84 13c-61 0 -99 -21 -112 -69c20 12 49 20 89 20c74 0 116 -42 116 -112c0 -95 -65 -168 -195 -168zM167 -33c31 0 44 29 44 67
c0 23 -10 33 -34 33c-14 0 -26 -5 -36 -11c-4 -21 -6 -41 -6 -51c0 -29 11 -38 32 -38z" />
    <glyph glyph-name="seven.sub" horiz-adv-x="375" 
d="M-14 -120l192 302v3h-174l21 121h340l-18 -107l-193 -319h-168z" />
    <glyph glyph-name="eight.sub" horiz-adv-x="419" 
d="M149 -127c-124 0 -179 49 -179 104c0 51 44 89 100 104c-35 17 -57 41 -57 91c0 83 72 142 187 142c110 0 169 -46 169 -107c0 -48 -26 -83 -85 -100c44 -23 68 -51 68 -88c0 -82 -53 -146 -203 -146zM154 -34c32 0 47 17 47 38c0 20 -15 32 -58 48
c-22 -14 -36 -28 -36 -49c0 -23 15 -37 47 -37zM203 145c18 8 33 25 33 43c0 17 -12 33 -40 33c-26 0 -39 -17 -39 -35c0 -19 15 -30 46 -41z" />
    <glyph glyph-name="nine.sub" horiz-adv-x="417" 
d="M105 -127c-59 0 -98 12 -119 24l18 103c18 -7 45 -15 87 -15c71 0 101 22 111 69c-20 -12 -50 -21 -89 -21c-75 0 -116 43 -116 112c0 96 65 169 195 169c115 0 176 -58 176 -159c0 -86 -22 -165 -66 -213c-45 -50 -118 -69 -197 -69zM177 119c13 0 26 4 35 11
c5 21 7 41 7 51c0 29 -12 39 -33 39c-30 0 -43 -30 -43 -68c0 -22 9 -33 34 -33z" />
    <glyph glyph-name="zero.sup" horiz-adv-x="450" 
d="M243 315c-102 0 -180 48 -180 159c0 40 4 66 12 102c26 128 119 180 224 180c103 0 182 -48 182 -159c0 -36 -7 -72 -13 -100c-24 -132 -115 -182 -225 -182zM253 420c29 0 47 23 57 85c8 42 15 83 15 104c0 30 -12 42 -36 42c-29 0 -46 -23 -57 -84
c-7 -33 -14 -83 -14 -103c0 -33 12 -44 35 -44z" />
    <glyph glyph-name="one.sup" horiz-adv-x="293" 
d="M97 322l48 278l-74 -7l17 96l142 59h105l-75 -426h-163z" />
    <glyph glyph-name="two.sup" horiz-adv-x="371" 
d="M32 322l19 106l88 63c56 40 85 68 85 109c0 25 -20 35 -54 35c-33 0 -58 -4 -79 -13l19 106c30 15 90 27 143 27c97 0 152 -42 152 -118c0 -68 -49 -127 -126 -174l-40 -25v-2h140l-20 -114h-327z" />
    <glyph glyph-name="three.sup" horiz-adv-x="366" 
d="M170 315c-48 0 -106 12 -134 25l17 99c23 -6 51 -11 76 -11c38 0 71 12 71 37c0 17 -13 26 -44 26h-36l16 93h34c40 0 59 9 59 33c0 17 -18 27 -57 27c-34 0 -51 -2 -72 -8l17 97c32 12 66 23 128 23c84 0 148 -31 148 -100c0 -59 -46 -96 -101 -109v-2
c51 -8 79 -32 79 -88c0 -80 -65 -142 -201 -142z" />
    <glyph glyph-name="four.sup" horiz-adv-x="421" 
d="M202 322l15 91h-180l17 98l228 237h156l-41 -232h53l-19 -103h-53l-16 -91h-160zM180 513h60l16 89h-2l-74 -87v-2z" />
    <glyph glyph-name="five.sup" horiz-adv-x="380" 
d="M178 315c-74 0 -116 13 -144 28l18 93c25 -9 52 -14 90 -14c51 0 75 14 75 42c0 19 -18 36 -65 36c-32 0 -46 -1 -75 -5l55 253h284l-20 -111h-168l-12 -52c14 3 25 5 49 5c77 0 125 -31 125 -107c0 -101 -79 -168 -212 -168z" />
    <glyph glyph-name="six.sup" horiz-adv-x="415" 
d="M239 315c-115 0 -177 57 -177 158c0 85 26 161 70 209c46 51 117 74 195 74c57 0 95 -10 116 -22l-18 -103c-19 6 -46 13 -84 13c-61 0 -99 -21 -112 -69c20 12 50 20 89 20c75 0 117 -42 117 -112c0 -95 -65 -168 -196 -168zM244 409c31 0 44 29 44 67
c0 23 -10 33 -33 33c-15 0 -27 -5 -36 -11c-5 -21 -7 -41 -7 -51c0 -29 12 -38 32 -38z" />
    <glyph glyph-name="seven.sup" horiz-adv-x="375" 
d="M63 322l192 302v3h-173l20 121h341l-19 -107l-193 -319h-168z" />
    <glyph glyph-name="eight.sup" horiz-adv-x="419" 
d="M226 315c-124 0 -178 49 -178 104c0 51 43 89 99 104c-35 17 -57 41 -57 91c0 83 72 142 187 142c110 0 169 -46 169 -107c0 -48 -26 -83 -85 -100c44 -23 68 -51 68 -88c0 -82 -53 -146 -203 -146zM231 408c32 0 47 17 47 38c0 20 -14 32 -58 48
c-22 -14 -36 -28 -36 -49c0 -23 15 -37 47 -37zM281 587c17 8 33 25 33 43c0 17 -12 33 -41 33c-26 0 -39 -17 -39 -35c0 -19 16 -30 47 -41z" />
    <glyph glyph-name="nine.sup" horiz-adv-x="417" 
d="M182 315c-59 0 -98 12 -119 24l18 103c18 -7 45 -15 87 -15c71 0 101 22 111 69c-20 -12 -50 -21 -89 -21c-74 0 -116 43 -116 112c0 96 65 169 195 169c115 0 177 -58 177 -159c0 -86 -22 -165 -67 -213c-45 -50 -118 -69 -197 -69zM254 561c13 0 26 4 36 11
c4 21 6 41 6 51c0 29 -12 39 -33 39c-30 0 -42 -30 -42 -68c0 -22 9 -33 33 -33z" />
    <glyph glyph-name="uni2033" unicode="&#x2033;" horiz-adv-x="469" 
d="M67 462l46 231h187l-78 -231h-155zM294 462l46 231h188l-78 -231h-156z" />
    <glyph glyph-name="uni2032" unicode="&#x2032;" horiz-adv-x="241" 
d="M67 462l46 231h187l-78 -231h-155z" />
    <glyph glyph-name="a.alt" horiz-adv-x="539" 
d="M144 -10c-85 0 -152 40 -152 136c0 109 62 170 222 186l98 11l2 13c9 47 -10 62 -86 62c-52 0 -109 -8 -150 -20l24 136c61 23 125 35 211 35c172 0 234 -70 209 -212l-60 -337h-173l-6 42h-5c-31 -33 -69 -52 -134 -52zM228 116c20 0 39 8 51 17l15 90l-45 -2
c-40 -1 -59 -22 -59 -67c0 -26 15 -38 38 -38z" />
    <glyph glyph-name="f.alt" horiz-adv-x="374" 
d="M20 0l70 397h-57l25 142h56l5 29c25 126 107 181 237 181c57 0 91 -9 110 -17l-21 -125c-12 3 -35 6 -52 6c-40 0 -60 -16 -66 -51l-5 -23h94l-26 -142h-93l-69 -397h-208z" />
    <glyph glyph-name="l.alt" horiz-adv-x="319" 
d="M159 -11c-110 0 -162 50 -141 169l103 581h206l-99 -566c-5 -27 4 -37 24 -37c12 0 22 2 33 4l-23 -128c-16 -9 -53 -23 -103 -23z" />
    <glyph glyph-name="aacute.alt" horiz-adv-x="539" 
d="M231 579l85 159h201l-127 -159h-159zM144 -10c-85 0 -152 40 -152 136c0 109 62 170 222 186l98 11l2 13c9 47 -10 62 -86 62c-52 0 -109 -8 -150 -20l24 136c61 23 125 35 211 35c172 0 234 -70 209 -212l-60 -337h-173l-6 42h-5c-31 -33 -69 -52 -134 -52zM228 116
c20 0 39 8 51 17l15 90l-45 -2c-40 -1 -59 -22 -59 -67c0 -26 15 -38 38 -38z" />
    <glyph glyph-name="abreve.alt" horiz-adv-x="539" 
d="M144 -10c-85 0 -152 40 -152 136c0 109 62 170 222 186l98 11l2 13c9 47 -10 62 -86 62c-52 0 -109 -8 -150 -20l24 136c61 23 125 35 211 35c172 0 234 -70 209 -212l-60 -337h-173l-6 42h-5c-31 -33 -69 -52 -134 -52zM228 116c20 0 39 8 51 17l15 90l-45 -2
c-40 -1 -59 -22 -59 -67c0 -26 15 -38 38 -38zM334 583c-105 0 -161 63 -158 152h130c0 -22 12 -36 36 -36s39 14 45 36h129c-12 -90 -75 -152 -182 -152z" />
    <glyph glyph-name="acircumflex.alt" horiz-adv-x="539" 
d="M139 579l136 159h164l77 -159h-142l-34 49l-52 -49h-149zM144 -10c-85 0 -152 40 -152 136c0 109 62 170 222 186l98 11l2 13c9 47 -10 62 -86 62c-52 0 -109 -8 -150 -20l24 136c61 23 125 35 211 35c172 0 234 -70 209 -212l-60 -337h-173l-6 42h-5
c-31 -33 -69 -52 -134 -52zM228 116c20 0 39 8 51 17l15 90l-45 -2c-40 -1 -59 -22 -59 -67c0 -26 15 -38 38 -38z" />
    <glyph glyph-name="adieresis.alt" horiz-adv-x="539" 
d="M353 584l26 149h167l-26 -149h-167zM135 584l26 149h167l-26 -149h-167zM144 -10c-85 0 -152 40 -152 136c0 109 62 170 222 186l98 11l2 13c9 47 -10 62 -86 62c-52 0 -109 -8 -150 -20l24 136c61 23 125 35 211 35c172 0 234 -70 209 -212l-60 -337h-173l-6 42h-5
c-31 -33 -69 -52 -134 -52zM228 116c20 0 39 8 51 17l15 90l-45 -2c-40 -1 -59 -22 -59 -67c0 -26 15 -38 38 -38z" />
    <glyph glyph-name="agrave.alt" horiz-adv-x="539" 
d="M144 -10c-85 0 -152 40 -152 136c0 109 62 170 222 186l98 11l2 13c9 47 -10 62 -86 62c-52 0 -109 -8 -150 -20l24 136c61 23 125 35 211 35c172 0 234 -70 209 -212l-60 -337h-173l-6 42h-5c-31 -33 -69 -52 -134 -52zM228 116c20 0 39 8 51 17l15 90l-45 -2
c-40 -1 -59 -22 -59 -67c0 -26 15 -38 38 -38zM259 579l-77 159h192l35 -159h-150z" />
    <glyph glyph-name="amacron.alt" horiz-adv-x="539" 
d="M144 -10c-85 0 -152 40 -152 136c0 109 62 170 222 186l98 11l2 13c9 47 -10 62 -86 62c-52 0 -109 -8 -150 -20l24 136c61 23 125 35 211 35c172 0 234 -70 209 -212l-60 -337h-173l-6 42h-5c-31 -33 -69 -52 -134 -52zM228 116c20 0 39 8 51 17l15 90l-45 -2
c-40 -1 -59 -22 -59 -67c0 -26 15 -38 38 -38zM178 585l23 129h300l-23 -129h-300z" />
    <glyph glyph-name="aogonek.alt" horiz-adv-x="539" 
d="M144 -10c-85 0 -152 40 -152 136c0 109 62 170 222 186l98 11l2 13c9 47 -10 62 -86 62c-52 0 -109 -8 -150 -20l24 136c61 23 125 35 211 35c172 0 234 -70 209 -212l-59 -332c-35 -22 -64 -47 -64 -73c0 -12 8 -20 27 -20c7 0 17 2 24 3l-17 -98
c-18 -9 -50 -16 -87 -16c-82 0 -114 40 -114 83c0 59 56 94 114 116h-57l-6 42h-5c-31 -33 -69 -52 -134 -52zM228 116c20 0 39 8 51 17l15 90l-45 -2c-40 -1 -59 -22 -59 -67c0 -26 15 -38 38 -38z" />
    <glyph glyph-name="aring.alt" horiz-adv-x="539" 
d="M333 575c-78 0 -123 54 -123 111c0 72 56 125 134 125s123 -52 123 -111c0 -72 -56 -125 -134 -125zM336 649c26 0 43 18 43 47c0 24 -13 41 -38 41c-26 0 -43 -18 -43 -47c0 -24 13 -41 38 -41zM144 -10c-85 0 -152 40 -152 136c0 109 62 170 222 186l98 11l2 13
c9 47 -10 62 -86 62c-52 0 -109 -8 -150 -20l24 136c61 23 125 35 211 35c172 0 234 -70 209 -212l-60 -337h-173l-6 42h-5c-31 -33 -69 -52 -134 -52zM228 116c20 0 39 8 51 17l15 90l-45 -2c-40 -1 -59 -22 -59 -67c0 -26 15 -38 38 -38z" />
    <glyph glyph-name="aringacute.alt" horiz-adv-x="539" 
d="M334 575c-78 0 -123 54 -123 111c0 72 56 125 134 125s123 -52 123 -111c0 -72 -56 -125 -134 -125zM337 649c26 0 43 18 43 47c0 24 -13 41 -38 41c-26 0 -43 -18 -43 -47c0 -24 13 -41 38 -41zM144 -10c-85 0 -152 40 -152 136c0 109 62 170 222 186l98 11l2 13
c9 47 -10 62 -86 62c-52 0 -109 -8 -150 -20l24 136c61 23 125 35 211 35c172 0 234 -70 209 -212l-60 -337h-173l-6 42h-5c-31 -33 -69 -52 -134 -52zM228 116c20 0 39 8 51 17l15 90l-45 -2c-40 -1 -59 -22 -59 -67c0 -26 15 -38 38 -38zM277 834l76 147h201l-119 -147
h-158z" />
    <glyph glyph-name="atilde.alt" horiz-adv-x="539" 
d="M144 -10c-85 0 -152 40 -152 136c0 109 62 170 222 186l98 11l2 13c9 47 -10 62 -86 62c-52 0 -109 -8 -150 -20l24 136c61 23 125 35 211 35c172 0 234 -70 209 -212l-60 -337h-173l-6 42h-5c-31 -33 -69 -52 -134 -52zM228 116c20 0 39 8 51 17l15 90l-45 -2
c-40 -1 -59 -22 -59 -67c0 -26 15 -38 38 -38zM139 586c20 112 81 155 141 155c52 0 87 -30 112 -30c17 0 26 11 32 28h119c-19 -112 -80 -155 -140 -155c-52 0 -88 30 -112 30c-17 0 -27 -11 -32 -28h-120z" />
    <glyph glyph-name="lacute.alt" horiz-adv-x="319" 
d="M159 -11c-110 0 -162 50 -141 169l103 581h206l-99 -566c-5 -27 4 -37 24 -37c12 0 22 2 33 4l-23 -128c-16 -9 -53 -23 -103 -23zM138 770l76 147h201l-119 -147h-158z" />
    <glyph glyph-name="lcaron.alt" horiz-adv-x="319" 
d="M159 -11c-110 0 -162 50 -141 169l103 581h206l-99 -566c-5 -27 4 -37 24 -37c12 0 22 2 33 4l-23 -128c-16 -9 -53 -23 -103 -23zM439 574h-108l34 165h134z" />
    <glyph glyph-name="lcommaaccent.alt" horiz-adv-x="319" 
d="M0 -182l37 149h177l-74 -149h-140zM159 -11c-110 0 -162 50 -141 169l103 581h206l-99 -566c-5 -27 4 -37 24 -37c12 0 22 2 33 4l-23 -128c-16 -9 -53 -23 -103 -23z" />
    <glyph glyph-name="ldot.alt" horiz-adv-x="428" 
d="M159 -11c-110 0 -162 50 -141 169l103 581h206l-99 -566c-5 -27 4 -37 24 -37c12 0 22 2 33 4l-23 -128c-16 -9 -53 -23 -103 -23zM282 289l24 138h152l-24 -138h-152z" />
    <glyph glyph-name="lslash.alt" horiz-adv-x="334" 
d="M-2 224l27 154l51 23l60 338h207l-42 -234l71 33l-27 -154l-71 -33l-31 -178c-5 -27 4 -37 24 -37c12 0 22 2 33 4l-22 -128c-17 -9 -54 -23 -104 -23c-110 0 -162 50 -141 169l16 89z" />
    <glyph glyph-name="germandbls.alt" horiz-adv-x="670" 
d="M-10 0l91 521c29 165 156 228 342 228c154 0 231 -56 231 -149c0 -130 -160 -170 -160 -215c0 -16 10 -25 33 -40l24 -16c63 -39 95 -80 95 -146c0 -113 -83 -191 -224 -191c-80 0 -137 11 -175 30l23 133c33 -14 64 -27 113 -27c39 0 59 10 59 34c0 14 -9 22 -35 36
l-24 15c-57 32 -84 68 -84 120c0 122 143 170 143 236c0 25 -19 41 -52 41c-56 0 -92 -28 -105 -104l-88 -506h-207z" />
    <glyph glyph-name="f_b.alt" horiz-adv-x="923" 
d="M331 26l103 583c-12 2 -25 4 -39 4c-42 0 -62 -15 -69 -51l-4 -23h67l-25 -142h-67l-69 -397h-208l70 397h-57l25 142h56l5 28c24 126 94 182 310 182c95 0 176 -13 230 -34l-39 -220h5c41 32 78 54 145 54c84 0 149 -63 149 -174c0 -242 -115 -385 -328 -385
c-106 0 -194 13 -260 36zM599 373l-42 -237c12 -5 29 -8 45 -8c57 0 79 41 97 139c3 19 5 46 5 65c0 50 -19 61 -48 61c-23 0 -40 -9 -57 -20z" />
    <glyph glyph-name="f_f.alt" horiz-adv-x="679" 
d="M325 0l70 397h-98l-69 -397h-208l70 397h-57l25 142h56l5 27c24 126 105 176 211 176c52 0 80 -7 98 -13l-23 -126c-5 1 -15 3 -26 3c-31 0 -49 -20 -54 -52l-3 -15h97l5 28c24 126 106 182 237 182c56 0 90 -9 110 -17l-22 -125c-12 3 -34 6 -51 6
c-41 0 -60 -16 -67 -51l-4 -23h93l-25 -142h-93l-69 -397h-208z" />
    <glyph glyph-name="f_f_b.alt" horiz-adv-x="1228" 
d="M636 26l103 583c-11 2 -25 4 -39 4c-41 0 -62 -15 -69 -51l-4 -23h67l-25 -142h-67l-69 -397h-208l70 397h-98l-69 -397h-208l70 397h-57l25 142h56l5 27c24 126 105 176 211 176c52 0 80 -7 98 -13l-23 -126c-5 1 -15 3 -26 3c-31 0 -49 -20 -54 -52l-3 -15h97l6 28
c23 126 94 182 309 182c95 0 176 -13 230 -34l-39 -220h5c42 32 78 54 145 54c84 0 149 -63 149 -174c0 -242 -115 -385 -328 -385c-105 0 -194 13 -260 36zM905 373l-43 -237c12 -5 29 -8 45 -8c57 0 79 41 97 139c3 19 5 46 5 65c0 50 -19 61 -48 61c-23 0 -40 -9 -56 -20
z" />
    <glyph glyph-name="f_f_h.alt" horiz-adv-x="1229" 
d="M325 0l70 397h-98l-69 -397h-208l70 397h-57l25 142h56l5 27c24 126 105 176 211 176c52 0 80 -7 98 -13l-23 -126c-5 1 -15 3 -26 3c-31 0 -49 -20 -54 -52l-3 -15h97l6 28c23 126 94 182 309 182c95 0 176 -13 230 -34l-39 -228h5c44 38 101 62 163 62
c92 0 129 -46 129 -125c0 -18 -2 -38 -6 -59l-65 -365h-206l57 326c2 8 3 18 3 28c0 24 -11 36 -37 36c-22 0 -44 -8 -65 -22l-65 -368h-206l107 609c-11 2 -25 4 -39 4c-41 0 -62 -15 -69 -51l-4 -23h67l-25 -142h-67l-69 -397h-208z" />
    <glyph glyph-name="f_f_i.alt" horiz-adv-x="920" 
d="M325 0l70 397h-98l-69 -397h-208l70 397h-57l25 142h56l5 27c24 126 105 176 211 176c52 0 80 -7 98 -13l-23 -126c-5 1 -15 3 -26 3c-31 0 -49 -20 -54 -52l-3 -15h97l6 34c23 128 104 176 210 176c50 0 75 -7 93 -13l-23 -126c-6 1 -12 3 -23 3c-26 0 -46 -18 -51 -52
l-4 -22h306l-95 -539h-206l69 397h-99l-69 -397h-208zM734 584l26 149h208l-25 -149h-209z" />
    <glyph glyph-name="f_f_j.alt" horiz-adv-x="920" 
d="M325 0l70 397h-98l-69 -397h-208l70 397h-57l25 142h56l5 27c24 126 105 176 211 176c52 0 80 -7 98 -13l-23 -126c-5 1 -15 3 -26 3c-31 0 -49 -20 -54 -52l-3 -15h97l6 34c23 128 104 176 210 176c50 0 75 -7 93 -13l-23 -126c-6 1 -12 3 -23 3c-26 0 -46 -18 -51 -52
l-4 -22h306l-95 -553c-20 -113 -80 -183 -230 -183c-46 0 -90 12 -109 22l24 127c8 -2 22 -5 41 -5c43 0 62 12 70 54l67 396h-99l-69 -397h-208zM734 584l26 149h208l-26 -149h-208z" />
    <glyph glyph-name="f_f_k.alt" horiz-adv-x="1225" 
d="M967 0l-87 240l-42 -240h-207l108 609c-11 2 -25 4 -39 4c-41 0 -62 -15 -69 -51l-4 -23h67l-25 -142h-67l-69 -397h-208l70 397h-98l-69 -397h-208l70 397h-57l25 142h56l5 27c24 126 105 176 212 176c51 0 79 -7 97 -13l-23 -126c-5 1 -15 3 -26 3
c-31 0 -49 -20 -54 -52l-3 -15h98l4 28c24 126 95 182 310 182c95 0 176 -13 230 -33l-70 -395l163 218h209l-201 -262l114 -277h-212z" />
    <glyph glyph-name="f_f_l.alt" horiz-adv-x="915" 
d="M325 0l70 397h-98l-69 -397h-208l70 397h-57l25 142h56l5 27c24 126 105 176 211 176c52 0 80 -7 98 -13l-23 -126c-5 1 -15 3 -26 3c-31 0 -49 -20 -54 -52l-3 -15h97l6 28c23 126 94 182 309 182c95 0 176 -13 230 -34l-126 -715h-206l107 609c-11 2 -25 4 -39 4
c-41 0 -62 -15 -69 -51l-4 -23h67l-25 -142h-67l-69 -397h-208z" />
    <glyph glyph-name="f_f_l.alt1" horiz-adv-x="956" 
d="M800 -11c-110 0 -162 50 -141 169l80 451c-11 2 -25 4 -39 4c-41 0 -62 -15 -69 -51l-4 -23h67l-25 -142h-67l-101 -592h-208l102 592h-98l-102 -592h-207l102 592h-57l25 142h56l5 27c24 126 105 176 211 176c52 0 80 -7 98 -13l-23 -126c-5 1 -15 3 -26 3
c-31 0 -49 -20 -54 -52l-3 -15h97l6 28c23 126 94 182 309 182c95 0 176 -13 230 -34l-95 -542c-5 -27 4 -37 24 -37c12 0 22 2 33 4l-23 -128c-16 -9 -53 -23 -103 -23z" />
    <glyph glyph-name="f_f_l.alt2" horiz-adv-x="956" 
d="M800 -11c-110 0 -162 50 -141 169l80 451c-11 2 -25 4 -39 4c-41 0 -62 -15 -69 -51l-4 -23h67l-25 -142h-67l-69 -397h-208l70 397h-98l-69 -397h-208l70 397h-57l25 142h56l5 27c24 126 105 176 211 176c52 0 80 -7 98 -13l-23 -126c-5 1 -15 3 -26 3
c-31 0 -49 -20 -54 -52l-3 -15h97l6 28c23 126 94 182 309 182c95 0 176 -13 230 -34l-95 -542c-5 -27 4 -37 24 -37c12 0 22 2 33 4l-23 -128c-16 -9 -53 -23 -103 -23z" />
    <glyph glyph-name="f_h.alt" horiz-adv-x="924" 
d="M20 0l70 397h-57l25 142h56l5 28c24 126 94 182 310 182c95 0 176 -13 230 -34l-39 -228h5c44 38 101 62 163 62c92 0 129 -46 129 -125c0 -18 -2 -38 -6 -59l-65 -365h-207l58 326c2 8 3 18 3 28c0 24 -11 36 -37 36c-22 0 -44 -8 -65 -22l-65 -368h-207l108 609
c-12 2 -25 4 -39 4c-42 0 -62 -15 -69 -51l-4 -23h67l-25 -142h-67l-69 -397h-208z" />
    <glyph glyph-name="f_i.alt" horiz-adv-x="615" 
d="M20 0l70 397h-57l25 142h56l6 34c23 128 104 176 210 176c50 0 75 -7 93 -13l-23 -126c-6 1 -12 3 -23 3c-26 0 -46 -18 -51 -52l-4 -22h306l-95 -539h-207l70 397h-99l-69 -397h-208zM429 584l25 149h209l-26 -149h-208z" />
    <glyph glyph-name="f_j.alt" horiz-adv-x="615" 
d="M20 0l70 397h-57l25 142h56l6 34c23 128 104 176 210 176c50 0 75 -7 93 -13l-23 -126c-6 1 -12 3 -23 3c-26 0 -46 -18 -51 -52l-4 -22h306l-95 -553c-20 -113 -80 -183 -230 -183c-46 0 -90 12 -109 22l24 127c8 -2 22 -5 40 -5c44 0 63 12 71 54l67 396h-99l-69 -397
h-208zM429 584l25 149h209l-26 -149h-208z" />
    <glyph glyph-name="f_k.alt" horiz-adv-x="920" 
d="M20 0l70 397h-57l25 142h56l5 28c24 126 95 182 310 182c95 0 176 -13 230 -33l-70 -395l163 218h209l-201 -262l114 -277h-212l-87 240l-42 -240h-207l108 609c-11 2 -25 4 -39 4c-42 0 -62 -15 -69 -51l-4 -23h67l-25 -142h-67l-69 -397h-208z" />
    <glyph glyph-name="f_l.alt" horiz-adv-x="610" 
d="M20 0l70 397h-57l25 142h56l5 28c24 126 94 182 310 182c95 0 176 -13 230 -34l-126 -715h-207l108 609c-12 2 -25 4 -39 4c-42 0 -62 -15 -69 -51l-4 -23h67l-25 -142h-67l-69 -397h-208z" />
    <glyph glyph-name="f_l.alt1" horiz-adv-x="651" 
d="M495 -11c-110 0 -162 50 -141 169l80 451c-12 2 -25 4 -39 4c-42 0 -62 -15 -69 -51l-4 -23h67l-25 -142h-67l-102 -592h-207l102 592h-57l25 142h56l5 28c24 126 94 182 310 182c95 0 176 -13 230 -34l-96 -542c-4 -27 5 -37 25 -37c12 0 22 2 33 4l-23 -128
c-16 -9 -53 -23 -103 -23z" />
    <glyph glyph-name="f_l.alt2" horiz-adv-x="651" 
d="M495 -11c-110 0 -162 50 -141 169l80 451c-12 2 -25 4 -39 4c-42 0 -62 -15 -69 -51l-4 -23h67l-25 -142h-67l-69 -397h-208l70 397h-57l25 142h56l5 28c24 126 94 182 310 182c95 0 176 -13 230 -34l-96 -542c-4 -27 5 -37 25 -37c12 0 22 2 33 4l-23 -128
c-16 -9 -53 -23 -103 -23z" />
    <glyph glyph-name="registered.alt" horiz-adv-x="769" 
d="M399 -14c-206 0 -359 161 -359 358s153 356 359 356s362 -159 362 -356s-156 -358 -362 -358zM399 43c171 0 294 126 294 301s-123 299 -294 299s-291 -124 -291 -299s120 -301 291 -301zM239 166v361h182c92 0 147 -40 147 -117c0 -44 -21 -79 -53 -93v-4l73 -147h-135
l-56 118h-30v-118h-128zM367 363h34c24 0 39 12 39 38s-15 36 -40 36h-33v-74z" />
    <glyph glyph-name="questiondown.uc" horiz-adv-x="446" 
d="M211 -12c-138 0 -209 63 -209 172c0 79 31 135 115 190c64 42 92 56 99 90l3 16h175l-6 -37c-11 -65 -31 -89 -99 -133c-49 -31 -65 -52 -65 -88c0 -30 17 -50 79 -50c52 0 80 7 112 15l-25 -145c-50 -17 -97 -30 -179 -30zM219 521l30 172h195l-30 -172h-195z" />
    <glyph glyph-name="exclamdown.uc" horiz-adv-x="310" 
d="M-8 0l112 456h175l-51 -456h-236zM105 521l31 172h193l-30 -172h-194z" />
    <glyph glyph-name="hyphen.uc" horiz-adv-x="352" 
d="M34 262l29 160h288l-28 -160h-289z" />
    <glyph glyph-name="endash.uc" horiz-adv-x="432" 
d="M27 260l28 154h384l-28 -154h-384z" />
    <glyph glyph-name="emdash.uc" horiz-adv-x="785" 
d="M27 260l28 154h737l-28 -154h-737z" />
    <glyph glyph-name="guilsinglleft.uc" horiz-adv-x="315" 
d="M88 89l-58 178l9 48l120 177h171l-128 -207l52 -196h-166z" />
    <glyph glyph-name="guilsinglright.uc" horiz-adv-x="315" 
d="M-3 89l129 208l-52 195h166l58 -177l-9 -48l-120 -178h-172z" />
    <glyph glyph-name="guillemotleft.uc" horiz-adv-x="551" 
d="M324 89l-58 178l8 48l120 177h172l-129 -207l53 -196h-166zM88 89l-58 178l9 48l120 177h171l-128 -207l52 -196h-166z" />
    <glyph glyph-name="guillemotright.uc" horiz-adv-x="551" 
d="M233 89l129 208l-53 195h167l57 -177l-8 -48l-120 -178h-172zM-3 89l129 208l-52 195h166l58 -177l-9 -48l-120 -178h-172z" />
    <glyph glyph-name="parenleft.uc" horiz-adv-x="406" 
d="M175 -91c-64 67 -136 190 -136 344c0 250 144 432 270 515h179c-130 -124 -242 -300 -242 -526c0 -138 46 -252 97 -333h-168z" />
    <glyph glyph-name="parenright.uc" horiz-adv-x="406" 
d="M260 768c65 -67 137 -190 137 -344c0 -250 -145 -432 -271 -515h-179c130 124 242 300 242 526c0 138 -45 252 -97 333h168z" />
    <glyph glyph-name="bracketleft.uc" horiz-adv-x="390" 
d="M-19 -91l150 859h323l-26 -150h-116l-99 -559h116l-26 -150h-322z" />
    <glyph glyph-name="bracketright.uc" horiz-adv-x="390" 
d="M-34 -91l26 150h115l99 559h-116l26 150h323l-151 -859h-322z" />
    <glyph glyph-name="braceleft.uc" horiz-adv-x="399" 
d="M310 -93c-191 2 -250 50 -250 138c0 15 2 30 5 46l17 98c7 51 -10 70 -63 74l26 149c50 5 79 16 88 69l18 97c22 123 88 190 311 192l-26 -152c-56 -4 -75 -19 -84 -71l-14 -78c-11 -68 -46 -114 -142 -131v-3c63 -13 99 -38 99 -96c0 -11 -1 -24 -4 -36l-13 -78
c-8 -48 5 -62 59 -66z" />
    <glyph glyph-name="braceright.uc" horiz-adv-x="399" 
d="M-35 -93l26 152c57 4 76 19 85 71l13 78c12 68 47 114 142 131v3c-62 13 -98 38 -98 96c0 11 1 24 4 36l13 78c8 48 -5 62 -60 66l27 152c191 -2 251 -50 251 -138c0 -15 -2 -30 -5 -46l-17 -98c-8 -51 10 -70 63 -74l-26 -149c-51 -5 -79 -16 -88 -69l-18 -97
c-22 -123 -88 -190 -312 -192z" />
    <glyph glyph-name="slash.uc" horiz-adv-x="416" 
d="M-48 -60l363 793h184l-363 -793h-184z" />
    <glyph glyph-name="backslash.uc" horiz-adv-x="416" 
d="M184 -60l-97 793h172l97 -793h-172z" />
    <glyph glyph-name="bar.uc" horiz-adv-x="287" 
d="M73 -60v793h158v-793h-158z" />
    <glyph glyph-name="at.uc" horiz-adv-x="803" 
d="M371 -13c-202 0 -340 104 -340 296c0 253 189 422 449 422c206 0 332 -106 332 -269c0 -186 -109 -280 -248 -280c-73 0 -106 21 -118 53h-4c-19 -30 -65 -50 -109 -50c-71 0 -113 42 -113 130c0 141 84 240 230 240c84 0 136 -15 171 -30l-40 -225c-3 -15 4 -24 19 -24
c66 0 105 86 105 180c0 105 -64 185 -235 185c-194 0 -328 -128 -328 -332c0 -146 98 -205 236 -205c86 0 170 15 237 35l-14 -78c-52 -27 -138 -48 -230 -48zM401 258c9 0 23 5 29 10l30 168c-6 3 -13 5 -21 5c-40 0 -65 -73 -65 -148c0 -26 8 -35 27 -35z" />
    <glyph glyph-name="uni2009" unicode="&#x2009;" horiz-adv-x="66" 
 />
    </font>
</defs>
</svg>
